<svg xmlns="http://www.w3.org/2000/svg" xmlns:xlink="http://www.w3.org/1999/xlink" width="512" zoomAndPan="magnify" viewBox="0 0 384 383.999986" height="512" preserveAspectRatio="xMidYMid meet" version="1.0"><defs><clipPath id="7c4b52915a"><path d="M 28 252 L 356 252 L 356 364.949219 L 28 364.949219 Z M 28 252 " clip-rule="nonzero"/></clipPath><clipPath id="39339e535f"><path d="M 293.472656 93 L 360.269531 93 L 360.269531 217.601562 L 293.472656 217.601562 Z M 293.472656 93 " clip-rule="nonzero"/></clipPath><clipPath id="4029fc13bf"><path d="M 23.519531 94 L 89 94 L 89 216 L 23.519531 216 Z M 23.519531 94 " clip-rule="nonzero"/></clipPath><clipPath id="64e0511f0f"><path d="M 132 19.199219 L 250 19.199219 L 250 58 L 132 58 Z M 132 19.199219 " clip-rule="nonzero"/></clipPath><clipPath id="e7bf88a2c5"><path d="M 23.519531 158 L 128 158 L 128 359 L 23.519531 359 Z M 23.519531 158 " clip-rule="nonzero"/></clipPath><clipPath id="cab03f6d45"><path d="M 255.160156 158.011719 L 360.269531 158.011719 L 360.269531 357.230469 L 255.160156 357.230469 Z M 255.160156 158.011719 " clip-rule="nonzero"/></clipPath></defs><g clip-path="url(#7c4b52915a)"><path fill="#ffffff" d="M 164.511719 252.785156 C 157.332031 252.796875 150.339844 255.328125 144.828125 259.917969 L 28.246094 363.4375 C 29.800781 364.246094 31.703125 364.691406 34.019531 364.691406 C 34.019531 364.691406 34.027344 364.691406 34.035156 364.691406 L 350.335938 364.414062 C 352.339844 364.414062 354.066406 363.792969 355.550781 362.675781 L 237.261719 259.601562 C 232.027344 255.328125 225.367188 252.90625 218.515625 252.761719 L 190.109375 252.761719 L 164.511719 252.785156 " fill-opacity="1" fill-rule="nonzero"/></g><g clip-path="url(#39339e535f)"><path fill="#ffffff" d="M 360.132812 148.890625 C 360.363281 148.65625 360.417969 148.417969 360.4375 148.222656 L 360.4375 147.90625 C 360.414062 147.703125 360.335938 147.417969 360.039062 147.171875 L 293.515625 93.019531 L 293.515625 217.5625 L 360.132812 148.890625 " fill-opacity="1" fill-rule="nonzero"/></g><g clip-path="url(#4029fc13bf)"><path fill="#ffffff" d="M 23.96875 147.492188 C 23.757812 147.660156 23.660156 147.84375 23.597656 148.015625 L 23.597656 148.800781 C 23.648438 148.9375 23.710938 149.089844 23.847656 149.230469 L 88.054688 215.996094 L 88.054688 94.382812 L 23.96875 147.492188 " fill-opacity="1" fill-rule="nonzero"/></g><g clip-path="url(#64e0511f0f)"><path fill="#ffffff" d="M 194.617188 19.304688 L 194.613281 19.304688 L 187.089844 19.328125 C 182.714844 19.332031 176.261719 20.992188 172.902344 24.066406 L 132.488281 57.558594 L 249.953125 57.558594 L 209.035156 24.25 C 205.5 20.992188 199.011719 19.304688 194.617188 19.304688 " fill-opacity="1" fill-rule="nonzero"/></g><g clip-path="url(#e7bf88a2c5)"><path fill="#ffffff" d="M 109.027344 247.328125 L 23.59375 158.488281 L 23.519531 353.8125 C 23.523438 355.503906 23.734375 356.976562 24.121094 358.273438 L 127.472656 266.503906 L 126.863281 265.871094 C 126.863281 265.871094 126.859375 265.871094 126.859375 265.867188 L 109.027344 247.328125 " fill-opacity="1" fill-rule="nonzero"/></g><g clip-path="url(#cab03f6d45)"><path fill="#ffffff" d="M 292.25 228.34375 L 255.230469 266.503906 L 359.320312 357.210938 C 360.042969 355.210938 360.464844 352.953125 360.464844 350.515625 L 360.441406 158.054688 L 292.589844 227.996094 C 292.585938 228 292.582031 228.003906 292.582031 228.003906 L 292.25 228.34375 " fill-opacity="1" fill-rule="nonzero"/></g><path fill="#ffffff" d="M 168.078125 166.589844 C 168.078125 174.902344 172.238281 180.953125 180.554688 180.953125 C 191.519531 180.953125 201.539062 166.964844 203.617188 155.246094 L 207.585938 133.882812 C 205.695312 133.320312 202.480469 132.5625 198.136719 132.5625 C 181.503906 132.5625 168.078125 148.25 168.078125 166.589844 " fill-opacity="1" fill-rule="nonzero"/><path fill="#ffffff" d="M 217.414062 191.160156 C 209.851562 191.160156 202.859375 186.054688 203.425781 174.523438 L 202.671875 174.523438 C 196.054688 185.679688 187.359375 191.160156 176.019531 191.160156 C 165.054688 191.160156 155.605469 182.277344 155.605469 167.34375 C 155.605469 143.90625 174.128906 122.546875 200.40625 122.546875 C 208.53125 122.546875 215.714844 124.246094 220.628906 126.515625 L 214.199219 160.726562 C 211.367188 175.09375 213.632812 181.710938 219.871094 181.898438 C 229.511719 182.089844 240.285156 169.234375 240.285156 147.308594 C 240.285156 119.898438 223.84375 100.242188 194.542969 100.242188 C 163.730469 100.242188 137.835938 124.625 137.835938 162.996094 C 137.835938 194.5625 158.4375 214.03125 186.414062 214.03125 C 197.191406 214.03125 207.207031 211.761719 214.957031 207.414062 L 217.984375 215.546875 C 207.582031 221.023438 197 223.105469 184.335938 223.105469 C 153.335938 223.105469 127.0625 200.421875 127.0625 164.128906 C 127.0625 125.191406 154.09375 91.546875 196.054688 91.546875 C 228.945312 91.546875 251.058594 114.605469 251.058594 146.171875 C 251.058594 174.523438 235.179688 191.160156 217.414062 191.160156 Z M 94.65625 64.15625 L 94.65625 222.859375 L 129.707031 259.308594 L 139.984375 252.492188 C 146.230469 248.351562 153.488281 246.160156 160.980469 246.160156 L 218.78125 246.160156 C 226.226562 246.160156 233.449219 248.324219 239.664062 252.417969 L 250.296875 259.417969 L 271.5 240.179688 L 286.917969 224.359375 L 286.917969 64.15625 L 94.65625 64.15625 " fill-opacity="1" fill-rule="nonzero"/></svg>