<svg xmlns="http://www.w3.org/2000/svg" xmlns:xlink="http://www.w3.org/1999/xlink" width="512" zoomAndPan="magnify" viewBox="0 0 384 383.999986" height="512" preserveAspectRatio="xMidYMid meet" version="1.0"><defs><clipPath id="db56c7a185"><path d="M 19.199219 19.199219 L 364.949219 19.199219 L 364.949219 364.949219 L 19.199219 364.949219 Z M 19.199219 19.199219 " clip-rule="nonzero"/></clipPath></defs><g clip-path="url(#db56c7a185)"><path fill="#8c52ff" d="M 192 19.199219 C 96.566406 19.199219 19.199219 96.566406 19.199219 192 C 19.199219 287.433594 96.566406 364.796875 192 364.796875 C 287.433594 364.796875 364.796875 287.433594 364.796875 192 C 364.796875 96.566406 287.433594 19.199219 192 19.199219 Z M 192 351.710938 C 103.792969 351.710938 32.289062 280.203125 32.289062 192 C 32.289062 103.792969 103.792969 32.289062 192 32.289062 C 280.203125 32.289062 351.710938 103.792969 351.710938 192 C 351.710938 280.203125 280.203125 351.710938 192 351.710938 Z M 192 351.710938 " fill-opacity="1" fill-rule="nonzero"/></g><path fill="#8c52ff" d="M 171.71875 276.699219 C 167.382812 277.117188 163.921875 277.59375 160.445312 277.757812 C 140.730469 278.6875 126.132812 270.914062 117.28125 252.789062 C 114.460938 247.019531 110.851562 241.570312 107.09375 236.339844 C 104.835938 233.199219 101.671875 230.675781 98.75 228.0625 L 98.71875 228.03125 C 96.910156 226.441406 97.707031 223.46875 100.082031 223.066406 C 102.867188 222.601562 105.460938 223.105469 107.992188 223.746094 C 115.921875 225.765625 121.011719 231.386719 125.066406 238.109375 C 134.234375 253.308594 150.023438 259.648438 167.097656 255.121094 C 169.996094 254.351562 171.273438 253.105469 171.90625 249.941406 C 172.640625 246.253906 173.640625 242.621094 174.71875 238.914062 C 174.875 238.371094 174.976562 237.8125 175.023438 237.246094 C 175.066406 236.679688 175.054688 236.117188 174.984375 235.550781 C 174.914062 234.988281 174.789062 234.4375 174.609375 233.898438 C 174.425781 233.359375 174.191406 232.847656 173.90625 232.355469 C 173.621094 231.863281 173.285156 231.40625 172.90625 230.984375 C 172.527344 230.5625 172.109375 230.179688 171.652344 229.84375 C 171.195312 229.503906 170.710938 229.214844 170.195312 228.976562 C 169.679688 228.738281 169.144531 228.554688 168.59375 228.421875 L 168.496094 228.398438 C 150.78125 224.160156 135.476562 216.269531 125.613281 200.078125 C 120.339844 191.421875 117.734375 181.886719 117.867188 171.949219 C 118.019531 160.675781 119.015625 149.382812 120.3125 138.171875 C 121.222656 130.28125 124.878906 123.292969 130.554688 117.617188 C 132.53125 115.636719 132.699219 113.980469 131.742188 111.417969 C 127.835938 100.929688 128.515625 90.421875 131.984375 79.914062 C 132.960938 76.945312 134.351562 76.523438 137.1875 77.417969 C 145.96875 80.179688 152.515625 85.890625 158.273438 92.730469 L 158.332031 92.800781 C 159.054688 93.671875 159.886719 94.414062 160.835938 95.03125 C 161.78125 95.652344 162.796875 96.117188 163.882812 96.429688 C 164.96875 96.746094 166.074219 96.894531 167.207031 96.875 C 168.335938 96.855469 169.4375 96.671875 170.515625 96.324219 C 188.730469 90.347656 216.367188 90.269531 233.550781 96.183594 C 234.628906 96.550781 235.738281 96.746094 236.878906 96.777344 C 238.015625 96.808594 239.136719 96.667969 240.234375 96.359375 C 241.332031 96.050781 242.359375 95.585938 243.316406 94.96875 C 244.273438 94.347656 245.117188 93.601562 245.847656 92.726562 L 245.902344 92.660156 C 251.667969 85.820312 258.246094 80.152344 267.015625 77.378906 C 269.960938 76.449219 271.214844 77.160156 272.144531 80.019531 C 275.566406 90.535156 276.152344 100.980469 272.449219 111.578125 C 271.929688 113.070312 271.949219 115.664062 272.878906 116.605469 C 280.742188 124.585938 284.1875 134.488281 285.058594 145.21875 C 285.902344 155.585938 286.816406 166.132812 285.855469 176.429688 C 283.351562 203.203125 267.070312 218.796875 242.316406 226.546875 C 240.199219 227.210938 238.046875 227.769531 235.847656 228.289062 C 235.277344 228.421875 234.726562 228.617188 234.195312 228.867188 C 233.664062 229.117188 233.164062 229.417969 232.699219 229.773438 C 232.230469 230.128906 231.804688 230.53125 231.421875 230.976562 C 231.039062 231.417969 230.707031 231.898438 230.425781 232.414062 C 230.140625 232.929688 229.914062 233.464844 229.746094 234.027344 C 229.578125 234.589844 229.46875 235.164062 229.417969 235.75 C 229.367188 236.335938 229.378906 236.917969 229.453125 237.5 C 229.527344 238.082031 229.660156 238.652344 229.851562 239.207031 C 233.226562 248.976562 232.710938 259.417969 232.65625 269.789062 C 232.644531 272.175781 232.636719 274.558594 232.632812 276.949219 C 232.628906 277.933594 232.582031 278.914062 232.480469 279.894531 C 232.382812 280.875 232.238281 281.847656 232.042969 282.8125 C 231.847656 283.78125 231.609375 284.734375 231.320312 285.675781 C 231.03125 286.617188 230.699219 287.542969 230.320312 288.453125 C 229.941406 289.363281 229.519531 290.25 229.054688 291.121094 C 228.589844 291.988281 228.082031 292.832031 227.535156 293.648438 C 226.984375 294.46875 226.398438 295.257812 225.773438 296.015625 C 225.148438 296.777344 224.484375 297.507812 223.789062 298.203125 C 223.089844 298.898438 222.363281 299.558594 221.597656 300.183594 C 220.835938 300.804688 220.046875 301.390625 219.226562 301.9375 C 218.40625 302.484375 217.5625 302.988281 216.695312 303.453125 C 215.824219 303.917969 214.933594 304.335938 214.023438 304.714844 C 213.113281 305.089844 212.1875 305.421875 211.246094 305.707031 C 210.304688 305.992188 209.347656 306.230469 208.382812 306.421875 C 207.417969 306.613281 206.441406 306.757812 205.460938 306.855469 C 204.480469 306.949219 203.5 307 202.515625 307 L 201.835938 307 C 200.847656 307 199.867188 306.949219 198.882812 306.855469 C 197.902344 306.757812 196.925781 306.613281 195.960938 306.421875 C 194.992188 306.226562 194.035156 305.988281 193.09375 305.703125 C 192.148438 305.414062 191.222656 305.085938 190.308594 304.707031 C 189.398438 304.328125 188.507812 303.90625 187.636719 303.441406 C 186.769531 302.976562 185.921875 302.472656 185.101562 301.921875 C 184.28125 301.375 183.492188 300.789062 182.730469 300.164062 C 181.964844 299.535156 181.234375 298.875 180.539062 298.175781 C 179.839844 297.480469 179.179688 296.75 178.554688 295.988281 C 177.929688 295.226562 177.339844 294.433594 176.792969 293.613281 C 176.246094 292.792969 175.738281 291.949219 175.273438 291.078125 C 174.808594 290.207031 174.386719 289.316406 174.007812 288.40625 C 173.632812 287.496094 173.300781 286.566406 173.015625 285.625 C 172.726562 284.679688 172.488281 283.722656 172.296875 282.757812 C 172.101562 281.789062 171.957031 280.8125 171.863281 279.832031 C 171.765625 278.851562 171.71875 277.867188 171.71875 276.878906 Z M 171.71875 276.699219 " fill-opacity="1" fill-rule="nonzero"/></svg>