<svg xmlns="http://www.w3.org/2000/svg" xmlns:xlink="http://www.w3.org/1999/xlink" width="512" zoomAndPan="magnify" viewBox="0 0 384 383.999986" height="512" preserveAspectRatio="xMidYMid meet" version="1.0"><defs><clipPath id="48988743c0"><path d="M 38.398438 172 L 345.898438 172 L 345.898438 212 L 38.398438 212 Z M 38.398438 172 " clip-rule="nonzero"/></clipPath><clipPath id="f81af2490f"><path d="M 38.398438 262 L 345.898438 262 L 345.898438 300.699219 L 38.398438 300.699219 Z M 38.398438 262 " clip-rule="nonzero"/></clipPath><clipPath id="8d76bc0ab8"><path d="M 38.398438 83.199219 L 345.898438 83.199219 L 345.898438 122 L 38.398438 122 Z M 38.398438 83.199219 " clip-rule="nonzero"/></clipPath><clipPath id="9e3cbf939c"><path d="M 139.578125 105.453125 L 141 105.453125 L 141 106.675781 L 139.578125 106.675781 Z M 139.578125 105.453125 " clip-rule="nonzero"/></clipPath><clipPath id="8577aef64e"><path d="M 141 105.898438 C 140.398438 106.875 139.800781 106.726562 139.648438 106.5 C 139.5 106.273438 139.648438 105.675781 139.800781 105.523438 C 140.023438 105.375 140.851562 105.601562 140.851562 105.601562 " clip-rule="nonzero"/></clipPath><clipPath id="df42be9f54"><path d="M 0.578125 0.453125 L 2 0.453125 L 2 1.675781 L 0.578125 1.675781 Z M 0.578125 0.453125 " clip-rule="nonzero"/></clipPath><clipPath id="dec25eac3c"><path d="M 2 0.898438 C 1.398438 1.875 0.800781 1.726562 0.648438 1.5 C 0.5 1.273438 0.648438 0.675781 0.800781 0.523438 C 1.023438 0.375 1.851562 0.601562 1.851562 0.601562 " clip-rule="nonzero"/></clipPath><clipPath id="97f2d14758"><rect x="0" width="2" y="0" height="2"/></clipPath></defs><g clip-path="url(#48988743c0)"><path fill="#000000" d="M 326.679688 172.757812 L 57.621094 172.757812 C 47.003906 172.757812 38.402344 181.351562 38.402344 191.949219 C 38.402344 202.550781 47.003906 211.140625 57.621094 211.140625 L 326.679688 211.140625 C 337.292969 211.140625 345.898438 202.550781 345.898438 191.949219 C 345.898438 181.351562 337.292969 172.757812 326.679688 172.757812 Z M 326.679688 172.757812 " fill-opacity="1" fill-rule="nonzero"/></g><g clip-path="url(#f81af2490f)"><path fill="#000000" d="M 326.679688 262.316406 L 57.621094 262.316406 C 47.003906 262.316406 38.402344 270.910156 38.402344 281.507812 C 38.402344 292.109375 47.003906 300.699219 57.621094 300.699219 L 326.679688 300.699219 C 337.292969 300.699219 345.898438 292.109375 345.898438 281.507812 C 345.898438 270.910156 337.292969 262.316406 326.679688 262.316406 Z M 326.679688 262.316406 " fill-opacity="1" fill-rule="nonzero"/></g><g clip-path="url(#8d76bc0ab8)"><path fill="#000000" d="M 57.621094 121.582031 L 326.679688 121.582031 C 337.292969 121.582031 345.898438 112.992188 345.898438 102.390625 C 345.898438 91.792969 337.292969 83.199219 326.679688 83.199219 L 57.621094 83.199219 C 47.003906 83.199219 38.402344 91.792969 38.402344 102.390625 C 38.402344 112.992188 47.003906 121.582031 57.621094 121.582031 Z M 57.621094 121.582031 " fill-opacity="1" fill-rule="nonzero"/></g><g clip-path="url(#9e3cbf939c)"><g clip-path="url(#8577aef64e)"><g transform="matrix(1, 0, 0, 1, 139, 105)"><g clip-path="url(#97f2d14758)"><g clip-path="url(#df42be9f54)"><g clip-path="url(#dec25eac3c)"><rect x="-223.48" width="552.96" fill="#000000" height="552.959979" y="-189.479997" fill-opacity="1"/></g></g></g></g></g></g></svg>