<svg xmlns="http://www.w3.org/2000/svg" xmlns:xlink="http://www.w3.org/1999/xlink" width="512" zoomAndPan="magnify" viewBox="0 0 384 383.999986" height="512" preserveAspectRatio="xMidYMid meet" version="1.0"><defs><clipPath id="2fae016d3a"><path d="M 19 32 L 352 32 L 352 364.949219 L 19 364.949219 Z M 19 32 " clip-rule="nonzero"/></clipPath><clipPath id="95aa57b346"><path d="M 170 19.199219 L 365.582031 19.199219 L 365.582031 214 L 170 214 Z M 170 19.199219 " clip-rule="nonzero"/></clipPath></defs><g clip-path="url(#2fae016d3a)"><path fill="#ffffff" d="M 300.257812 247.335938 C 291.796875 238.894531 283.769531 237.339844 278.417969 237.519531 C 267.960938 237.886719 261.503906 244.988281 261.179688 245.394531 C 252.0625 254.835938 234.3125 267.390625 225.839844 264.515625 C 219.960938 261.628906 192.960938 235.613281 171.054688 212.90625 C 148.59375 191.253906 122.566406 164.25 119.851562 158.820312 C 116.863281 149.855469 129.402344 132.148438 138.425781 123.375 C 139.242188 122.664062 146.324219 116.210938 146.691406 105.761719 C 146.878906 100.472656 145.316406 92.390625 136.863281 83.945312 L 95.503906 42.570312 C 80.113281 27.203125 63.074219 32.957031 55.664062 38.554688 C 31.941406 59.070312 19.714844 84.226562 19.363281 113.316406 C 18.40625 189.714844 100.359375 267.007812 107.847656 273.917969 L 108.53125 274.6875 C 108.859375 275.050781 109.199219 275.390625 109.566406 275.714844 L 110.09375 276.171875 C 115.589844 282.164062 192.84375 364.867188 269.578125 364.859375 C 270.019531 364.859375 270.46875 364.859375 270.914062 364.851562 C 300 364.484375 325.136719 352.273438 346.070312 328.019531 C 351.25 321.144531 356.996094 304.082031 341.648438 288.734375 L 300.257812 247.335938 " fill-opacity="1" fill-rule="nonzero"/></g><g clip-path="url(#95aa57b346)"><path fill="#ffffff" d="M 184.382812 19.230469 C 176.957031 19.230469 170.949219 25.246094 170.949219 32.664062 C 170.949219 40.078125 176.957031 46.097656 184.382812 46.097656 C 269.523438 46.097656 338.789062 115.355469 338.789062 200.488281 C 338.789062 207.90625 344.796875 213.921875 352.222656 213.921875 C 359.648438 213.921875 365.65625 207.90625 365.65625 200.488281 C 365.65625 100.546875 284.332031 19.230469 184.382812 19.230469 " fill-opacity="1" fill-rule="nonzero"/></g><path fill="#ffffff" d="M 184.382812 103.625 C 237.777344 103.625 281.210938 147.078125 281.210938 200.488281 C 281.210938 207.90625 287.222656 213.921875 294.644531 213.921875 C 302.070312 213.921875 308.078125 207.90625 308.078125 200.488281 C 308.078125 132.265625 252.585938 76.761719 184.382812 76.761719 C 176.957031 76.761719 170.949219 82.777344 170.949219 90.195312 C 170.949219 97.613281 176.957031 103.625 184.382812 103.625 " fill-opacity="1" fill-rule="nonzero"/></svg>