<svg xmlns="http://www.w3.org/2000/svg" xmlns:xlink="http://www.w3.org/1999/xlink" width="512" zoomAndPan="magnify" viewBox="0 0 384 383.999986" height="512" preserveAspectRatio="xMidYMid meet" version="1.0"><defs><clipPath id="67d53dfffa"><path d="M 19.199219 19.199219 L 364.949219 19.199219 L 364.949219 364.949219 L 19.199219 364.949219 Z M 19.199219 19.199219 " clip-rule="nonzero"/></clipPath></defs><g clip-path="url(#67d53dfffa)"><path fill="#cb2029" d="M 364.960938 312.367188 C 364.960938 341.382812 341.441406 364.902344 312.425781 364.902344 L 71.761719 364.902344 C 42.75 364.902344 19.226562 341.382812 19.226562 312.367188 L 19.226562 71.703125 C 19.226562 42.6875 42.75 19.164062 71.761719 19.164062 L 312.425781 19.164062 C 341.441406 19.164062 364.960938 42.6875 364.960938 71.703125 Z M 364.960938 312.367188 " fill-opacity="1" fill-rule="nonzero"/></g><path fill="#ffffff" d="M 314.628906 194.71875 C 314.628906 213.828125 314.613281 234.101562 310.328125 252.65625 C 307.332031 265.679688 296.675781 275.292969 283.839844 276.738281 C 253.453125 280.128906 222.691406 280.140625 192.074219 280.128906 C 161.453125 280.140625 130.699219 280.128906 100.308594 276.738281 C 87.46875 275.292969 76.816406 265.679688 73.824219 252.65625 C 69.5625 234.101562 69.5625 213.828125 69.5625 194.71875 C 69.5625 175.601562 69.601562 155.363281 73.878906 136.78125 C 76.863281 123.757812 87.523438 114.144531 100.359375 112.71875 C 130.75 109.3125 161.507812 109.308594 192.125 109.3125 C 222.738281 109.308594 253.503906 109.3125 283.894531 112.71875 C 296.734375 114.144531 307.390625 123.757812 310.378906 136.78125 C 314.644531 155.363281 314.628906 175.601562 314.628906 194.71875 Z M 314.628906 194.71875 " fill-opacity="1" fill-rule="nonzero"/><path fill="#cb2029" d="M 166.273438 149.101562 L 166.273438 240.738281 L 237.480469 194.921875 Z M 166.273438 149.101562 " fill-opacity="1" fill-rule="nonzero"/></svg>