<svg xmlns="http://www.w3.org/2000/svg" xmlns:xlink="http://www.w3.org/1999/xlink" width="512" zoomAndPan="magnify" viewBox="0 0 384 329.999987" height="440" preserveAspectRatio="xMidYMid meet" version="1.0"><defs><clipPath id="e0a9d94b60"><path d="M 16.5 143 L 367.5 143 L 367.5 187 L 16.5 187 Z M 16.5 143 " clip-rule="nonzero"/></clipPath><clipPath id="36f2bc908e"><path d="M 16.5 245 L 367.5 245 L 367.5 289.613281 L 16.5 289.613281 Z M 16.5 245 " clip-rule="nonzero"/></clipPath><clipPath id="eedefee58c"><path d="M 16.5 40.613281 L 367.5 40.613281 L 367.5 85 L 16.5 85 Z M 16.5 40.613281 " clip-rule="nonzero"/></clipPath></defs><g clip-path="url(#e0a9d94b60)"><path fill="#7dd3fc" d="M 345.5625 143.058594 L 38.4375 143.058594 C 26.320312 143.058594 16.5 152.878906 16.5 164.996094 C 16.5 177.113281 26.320312 186.933594 38.4375 186.933594 L 345.5625 186.933594 C 357.679688 186.933594 367.5 177.113281 367.5 164.996094 C 367.5 152.878906 357.679688 143.058594 345.5625 143.058594 Z M 345.5625 143.058594 " fill-opacity="1" fill-rule="nonzero"/></g><g clip-path="url(#36f2bc908e)"><path fill="#7dd3fc" d="M 345.5625 245.433594 L 38.4375 245.433594 C 26.320312 245.433594 16.5 255.253906 16.5 267.371094 C 16.5 279.488281 26.320312 289.308594 38.4375 289.308594 L 345.5625 289.308594 C 357.679688 289.308594 367.5 279.488281 367.5 267.371094 C 367.5 255.253906 357.679688 245.433594 345.5625 245.433594 Z M 345.5625 245.433594 " fill-opacity="1" fill-rule="nonzero"/></g><g clip-path="url(#eedefee58c)"><path fill="#7dd3fc" d="M 38.4375 84.558594 L 345.5625 84.558594 C 357.679688 84.558594 367.5 74.738281 367.5 62.621094 C 367.5 50.503906 357.679688 40.683594 345.5625 40.683594 L 38.4375 40.683594 C 26.320312 40.683594 16.5 50.503906 16.5 62.621094 C 16.5 74.738281 26.320312 84.558594 38.4375 84.558594 Z M 38.4375 84.558594 " fill-opacity="1" fill-rule="nonzero"/></g></svg>