<svg xmlns="http://www.w3.org/2000/svg" xmlns:xlink="http://www.w3.org/1999/xlink" width="512" zoomAndPan="magnify" viewBox="0 0 384 329.999987" height="440" preserveAspectRatio="xMidYMid meet" version="1.0"><defs><clipPath id="6bfb17cc46"><path d="M 16.5 143 L 367.5 143 L 367.5 188 L 16.5 188 Z M 16.5 143 " clip-rule="nonzero"/></clipPath><clipPath id="2081369045"><path d="M 16.5 245 L 367.5 245 L 367.5 289.613281 L 16.5 289.613281 Z M 16.5 245 " clip-rule="nonzero"/></clipPath><clipPath id="b2a2297976"><path d="M 16.5 40.613281 L 367.5 40.613281 L 367.5 85 L 16.5 85 Z M 16.5 40.613281 " clip-rule="nonzero"/></clipPath></defs><g clip-path="url(#6bfb17cc46)"><path fill="#000000" d="M 345.5625 143.15625 L 38.4375 143.15625 C 26.320312 143.15625 16.5 152.984375 16.5 165.113281 C 16.5 177.242188 26.320312 187.074219 38.4375 187.074219 L 345.5625 187.074219 C 357.679688 187.074219 367.5 177.242188 367.5 165.113281 C 367.5 152.984375 357.679688 143.15625 345.5625 143.15625 Z M 345.5625 143.15625 " fill-opacity="1" fill-rule="nonzero"/></g><g clip-path="url(#2081369045)"><path fill="#000000" d="M 345.5625 245.628906 L 38.4375 245.628906 C 26.320312 245.628906 16.5 255.457031 16.5 267.585938 C 16.5 279.714844 26.320312 289.542969 38.4375 289.542969 L 345.5625 289.542969 C 357.679688 289.542969 367.5 279.714844 367.5 267.585938 C 367.5 255.457031 357.679688 245.628906 345.5625 245.628906 Z M 345.5625 245.628906 " fill-opacity="1" fill-rule="nonzero"/></g><g clip-path="url(#b2a2297976)"><path fill="#000000" d="M 38.4375 84.601562 L 345.5625 84.601562 C 357.679688 84.601562 367.5 74.769531 367.5 62.644531 C 367.5 50.515625 357.679688 40.683594 345.5625 40.683594 L 38.4375 40.683594 C 26.320312 40.683594 16.5 50.515625 16.5 62.644531 C 16.5 74.769531 26.320312 84.601562 38.4375 84.601562 Z M 38.4375 84.601562 " fill-opacity="1" fill-rule="nonzero"/></g></svg>