<svg xmlns="http://www.w3.org/2000/svg" xmlns:xlink="http://www.w3.org/1999/xlink" width="512" zoomAndPan="magnify" viewBox="0 0 384 383.999986" height="512" preserveAspectRatio="xMidYMid meet" version="1.0"><defs><clipPath id="fbd9d69878"><path d="M 360 238 L 370.679688 238 L 370.679688 265 L 360 265 Z M 360 238 " clip-rule="nonzero"/></clipPath><clipPath id="729b8d5be9"><path d="M 194 370 L 204 370 L 204 372.984375 L 194 372.984375 Z M 194 370 " clip-rule="nonzero"/></clipPath><clipPath id="f4ded5732f"><path d="M 202 371 L 212 371 L 212 372.984375 L 202 372.984375 Z M 202 371 " clip-rule="nonzero"/></clipPath><clipPath id="8d44cc66c9"><path d="M 176 371 L 184 371 L 184 372.984375 L 176 372.984375 Z M 176 371 " clip-rule="nonzero"/></clipPath><clipPath id="c2005f570b"><path d="M 52.203125 172.277344 L 53.652344 172.277344 L 53.652344 173.5 L 52.203125 173.5 Z M 52.203125 172.277344 " clip-rule="nonzero"/></clipPath><clipPath id="005bf48472"><path d="M 53.625 172.726562 C 52.949219 173.699219 52.351562 173.550781 52.273438 173.324219 C 52.125 173.101562 52.273438 172.5 52.425781 172.351562 C 52.648438 172.199219 53.398438 172.425781 53.398438 172.425781 " clip-rule="nonzero"/></clipPath><clipPath id="fe27963d57"><path d="M 0.203125 0.277344 L 1.652344 0.277344 L 1.652344 1.5 L 0.203125 1.5 Z M 0.203125 0.277344 " clip-rule="nonzero"/></clipPath><clipPath id="53db05d371"><path d="M 1.625 0.726562 C 0.949219 1.699219 0.351562 1.550781 0.273438 1.324219 C 0.125 1.101562 0.273438 0.5 0.425781 0.351562 C 0.648438 0.199219 1.398438 0.425781 1.398438 0.425781 " clip-rule="nonzero"/></clipPath><clipPath id="7f78769d6c"><rect x="0" width="2" y="0" height="2"/></clipPath><clipPath id="874899f994"><path d="M 99.453125 227.550781 L 100.902344 227.550781 L 100.902344 228.832031 L 99.453125 228.832031 Z M 99.453125 227.550781 " clip-rule="nonzero"/></clipPath><clipPath id="fdb12e51a0"><path d="M 100.875 228 C 100.273438 229.050781 99.675781 228.824219 99.523438 228.675781 C 99.375 228.449219 99.523438 227.851562 99.675781 227.625 C 99.898438 227.476562 100.726562 227.699219 100.726562 227.699219 " clip-rule="nonzero"/></clipPath><clipPath id="2e8936cbfa"><path d="M 0.453125 0.550781 L 1.902344 0.550781 L 1.902344 1.832031 L 0.453125 1.832031 Z M 0.453125 0.550781 " clip-rule="nonzero"/></clipPath><clipPath id="3ad2666f04"><path d="M 1.875 1 C 1.273438 2.050781 0.675781 1.824219 0.523438 1.675781 C 0.375 1.449219 0.523438 0.851562 0.675781 0.625 C 0.898438 0.476562 1.726562 0.699219 1.726562 0.699219 " clip-rule="nonzero"/></clipPath><clipPath id="4b9febfb3a"><rect x="0" width="2" y="0" height="2"/></clipPath></defs><path fill="#000000" d="M 156.28125 16.699219 C 153.914062 16.984375 152.082031 17.226562 149.957031 17.519531 C 147.1875 17.894531 146.515625 17.960938 146.199219 17.90625 C 147.394531 16.410156 165.761719 14.253906 168.535156 15.289062 C 168.414062 15.398438 168.398438 15.414062 167.433594 15.539062 C 163.71875 15.949219 159.992188 16.253906 156.28125 16.699219 " fill-opacity="1" fill-rule="nonzero"/><path fill="#000000" d="M 141.78125 20.726562 C 131.285156 23.15625 131.285156 23.15625 131.011719 23.144531 L 131.035156 23.027344 C 134.84375 20.691406 152.332031 17.007812 154.539062 17.699219 C 154.417969 17.851562 154.398438 17.875 153.390625 18.140625 C 149.539062 19.074219 145.644531 19.832031 141.78125 20.726562 " fill-opacity="1" fill-rule="nonzero"/><path fill="#000000" d="M 127.597656 26.703125 C 117.714844 30.066406 117.125 30.269531 116.277344 30.296875 L 116.210938 30.164062 C 118.613281 27.777344 137.507812 21.429688 140.28125 22.078125 C 140.214844 22.277344 140.203125 22.304688 139.222656 22.714844 C 138.480469 23 138.480469 23 127.597656 26.703125 " fill-opacity="1" fill-rule="nonzero"/><path fill="#000000" d="M 114.695312 34.558594 C 106.550781 38.253906 103.546875 39.441406 102.789062 39.246094 C 103.011719 36.558594 123.710938 27.90625 126.695312 28.398438 L 126.734375 28.59375 C 126.515625 28.8125 126.429688 28.878906 125.875 29.222656 C 124.820312 29.820312 123.507812 30.5625 114.695312 34.558594 " fill-opacity="1" fill-rule="nonzero"/><path fill="#000000" d="M 103.996094 44.203125 C 95.953125 48.863281 91.410156 50.867188 91.53125 49.695312 C 91.835938 46.664062 112.367188 35.214844 114.898438 36.664062 C 114.957031 36.914062 114.890625 37.015625 114.3125 37.578125 C 112.636719 38.972656 109.171875 41.207031 103.996094 44.203125 " fill-opacity="1" fill-rule="nonzero"/><path fill="#000000" d="M 96.4375 55.46875 C 88.894531 60.949219 83.269531 63.632812 83.355469 61.710938 C 83.527344 57.738281 102.882812 44.597656 105.625 46.59375 C 105.933594 46.820312 105.71875 47.207031 105.460938 47.65625 C 103.71875 50.019531 99.0625 53.566406 96.4375 55.46875 " fill-opacity="1" fill-rule="nonzero"/><path fill="#000000" d="M 169.160156 12.335938 C 167.515625 12.445312 165.984375 12.617188 165.257812 12.777344 L 171.179688 11.871094 L 172.890625 11.648438 C 177.269531 11.105469 178.183594 11.839844 178.1875 11.851562 L 178.164062 11.949219 C 177.921875 12.0625 177.597656 12.09375 176.683594 12.128906 C 169.644531 12.304688 169.644531 12.304688 169.160156 12.335938 " fill-opacity="1" fill-rule="nonzero"/><path fill="#000000" d="M 154.714844 14.882812 C 152.527344 15.339844 151.332031 15.695312 150.824219 15.84375 C 153.808594 15.140625 157.796875 14.21875 160.796875 13.597656 C 164.328125 12.820312 165.347656 12.953125 165.449219 12.972656 C 165.324219 13.101562 165.296875 13.132812 163.710938 13.378906 C 158.1875 14.210938 157.191406 14.359375 154.714844 14.882812 " fill-opacity="1" fill-rule="nonzero"/><path fill="#000000" d="M 138.835938 19.289062 C 138.398438 19.429688 137.253906 19.808594 136.066406 20.242188 C 139.273438 19.207031 143.558594 17.851562 146.796875 16.914062 C 147.5 16.699219 149.632812 16.042969 150.675781 15.90625 C 150.417969 16.0625 150.417969 16.0625 148.878906 16.464844 C 145.011719 17.46875 142.214844 18.191406 138.835938 19.289062 " fill-opacity="1" fill-rule="nonzero"/><path fill="#000000" d="M 122.464844 25.585938 C 120.804688 26.296875 119.722656 26.804688 119.007812 27.136719 L 126.625 23.796875 L 132.03125 21.683594 C 133.46875 21.132812 134.484375 20.78125 134.890625 20.703125 C 134.625 20.863281 134.609375 20.878906 133.082031 21.449219 C 128.820312 23.027344 126.003906 24.070312 122.464844 25.585938 " fill-opacity="1" fill-rule="nonzero"/><path fill="#000000" d="M 106.496094 33.773438 C 104.792969 34.679688 101.566406 36.429688 99.085938 37.984375 C 103.28125 35.519531 108.894531 32.25 113.195312 29.976562 C 116.351562 28.347656 118.210938 27.574219 118.839844 27.402344 C 118.746094 27.570312 118.734375 27.582031 117.265625 28.332031 C 108.117188 32.910156 108.117188 32.910156 106.496094 33.773438 " fill-opacity="1" fill-rule="nonzero"/><path fill="#000000" d="M 91.859375 43.777344 C 88.953125 45.644531 86.214844 47.785156 83.148438 49.410156 C 84.011719 47.570312 101.441406 36.136719 103.644531 35.964844 C 103.605469 36.160156 103.59375 36.210938 102.328125 37.089844 C 98.890625 39.398438 95.34375 41.539062 91.859375 43.777344 " fill-opacity="1" fill-rule="nonzero"/><path fill="#000000" d="M 79.445312 55.5 C 71.71875 61.429688 70.546875 62.015625 70.046875 62.097656 C 69.519531 60.105469 88.113281 45.550781 90.144531 46.363281 C 90.175781 46.59375 89.996094 46.839844 89.207031 47.625 C 88.351562 48.414062 86.761719 49.882812 79.445312 55.5 " fill-opacity="1" fill-rule="nonzero"/><path fill="#000000" d="M 70.125 68.785156 C 65.269531 73.226562 59.683594 77.746094 59.914062 75.867188 C 60.394531 71.894531 78.140625 56.007812 79.289062 58.519531 C 79.414062 58.792969 79.101562 59.289062 78.777344 59.816406 C 76.914062 62.394531 73.042969 66.113281 70.125 68.785156 " fill-opacity="1" fill-rule="nonzero"/><path fill="#000000" d="M 70.90625 59.832031 C 69.902344 60.785156 67.234375 63.316406 63.984375 66.738281 L 70.90625 59.832031 " fill-opacity="1" fill-rule="nonzero"/><path fill="#000000" d="M 50.886719 83.21875 C 48.703125 85.9375 46.664062 88.773438 44.367188 91.40625 C 44.429688 91.277344 44.527344 91.109375 44.605469 90.984375 C 47.039062 87.625 50.160156 83.054688 52.714844 79.789062 L 55.960938 75.765625 C 57.050781 74.453125 59.007812 72.164062 59.855469 71.542969 L 59.964844 71.566406 C 59.84375 71.863281 59.632812 72.183594 58.886719 73.191406 C 58.132812 74.191406 58.132812 74.191406 50.886719 83.21875 " fill-opacity="1" fill-rule="nonzero"/><path fill="#000000" d="M 92.898438 68.1875 C 85.800781 74.628906 79.175781 77.871094 78.992188 74.992188 C 78.859375 72.859375 82.582031 68.164062 87.464844 64.296875 C 93.757812 59.3125 99.085938 57.152344 100.121094 58.261719 C 100.363281 58.523438 100.300781 58.941406 100.253906 59.273438 C 99.300781 62.082031 95.234375 66.066406 92.898438 68.1875 " fill-opacity="1" fill-rule="nonzero"/><path fill="#000000" d="M 93.933594 81.992188 C 86.933594 90.007812 79.023438 93.570312 79.089844 88.683594 C 79.1875 80.953125 96.554688 68.121094 99.113281 71.367188 C 99.277344 71.570312 99.359375 71.929688 99.414062 72.183594 C 99.414062 75.257812 95.980469 79.648438 93.933594 81.992188 " fill-opacity="1" fill-rule="nonzero"/><path fill="#000000" d="M 99.445312 96.410156 C 93.539062 105.042969 85.054688 109.230469 83.792969 104.128906 C 81.9375 96.617188 97.035156 82.476562 101.933594 84.746094 C 102.507812 85.015625 102.765625 85.480469 102.972656 85.855469 C 103.945312 89.125 101.179688 93.871094 99.445312 96.410156 " fill-opacity="1" fill-rule="nonzero"/><path fill="#000000" d="M 109.390625 111.136719 C 104.328125 120.777344 94.714844 125.414062 92.800781 119.140625 C 90.382812 111.226562 103.914062 95.535156 110.035156 99.15625 C 110.359375 99.347656 110.710938 99.726562 110.953125 100.011719 C 112.902344 103.390625 110.808594 108.433594 109.390625 111.136719 " fill-opacity="1" fill-rule="nonzero"/><path fill="#000000" d="M 123.585938 125.925781 C 119.605469 136.125 109.585938 141.320312 106.296875 134.894531 C 102.367188 127.203125 113.464844 111.238281 121.332031 113.265625 C 122.210938 113.496094 122.777344 113.972656 123.234375 114.351562 C 126.128906 117.789062 124.695312 123.078125 123.585938 125.925781 " fill-opacity="1" fill-rule="nonzero"/><path fill="#000000" d="M 141.660156 140.5 C 138.578125 151.558594 127.285156 157.171875 123.351562 149.605469 C 118.828125 140.898438 129.699219 124.820312 138.074219 127.824219 C 138.550781 127.996094 139.128906 128.359375 139.554688 128.640625 C 143.308594 132.058594 142.484375 137.539062 141.660156 140.5 " fill-opacity="1" fill-rule="nonzero"/><path fill="#000000" d="M 163.128906 154.632812 C 161.015625 166.054688 149.402344 172.25 144.308594 164.683594 C 138.800781 156.503906 147.589844 140.347656 156.84375 141.636719 C 157.96875 141.792969 158.792969 142.238281 159.457031 142.597656 C 164.140625 146.070312 163.585938 152.171875 163.128906 154.632812 " fill-opacity="1" fill-rule="nonzero"/><path fill="#000000" d="M 187.347656 168.082031 C 186.03125 179.726562 174.234375 186.515625 168.226562 179.089844 C 161.699219 171.019531 169.621094 154.230469 179.53125 155.140625 C 180.75 155.25 181.667969 155.667969 182.410156 156.007812 C 187.535156 159.222656 187.703125 164.949219 187.347656 168.082031 " fill-opacity="1" fill-rule="nonzero"/><path fill="#000000" d="M 213.609375 180.65625 C 212.910156 192.492188 201.03125 199.867188 194.347656 192.613281 C 186.875 184.5 193.984375 167.390625 204.628906 167.875 C 205.90625 167.933594 206.902344 168.316406 207.699219 168.625 C 213.488281 171.78125 213.757812 178.089844 213.609375 180.65625 " fill-opacity="1" fill-rule="nonzero"/><path fill="#000000" d="M 241.054688 192.15625 C 240.738281 204.089844 228.910156 212.066406 221.878906 205.089844 C 213.972656 197.242188 220.550781 179.65625 231.394531 179.660156 C 232.710938 179.660156 233.742188 180.007812 234.574219 180.28125 C 240.414062 183.097656 241.140625 188.929688 241.054688 192.15625 " fill-opacity="1" fill-rule="nonzero"/><path fill="#000000" d="M 268.824219 202.457031 C 268.671875 214.488281 257.003906 223.070312 249.910156 216.367188 C 241.949219 208.855469 248.203125 190.835938 258.949219 190.316406 C 260.265625 190.253906 261.304688 190.546875 262.140625 190.785156 C 268.046875 193.351562 268.863281 199.199219 268.824219 202.457031 " fill-opacity="1" fill-rule="nonzero"/><path fill="#000000" d="M 295.304688 211.535156 C 295.105469 223.730469 284.292969 232.730469 277.503906 226.347656 C 269.65625 218.976562 276.792969 199.308594 287.167969 199.707031 C 287.777344 199.730469 288.570312 199.921875 289.15625 200.074219 C 294.628906 202.390625 295.355469 208.25 295.304688 211.535156 " fill-opacity="1" fill-rule="nonzero"/><path fill="#000000" d="M 318.480469 219.640625 C 318.023438 231.5625 308.214844 241.125 302.574219 235.140625 C 295.898438 228.054688 302.554688 208.058594 311.59375 208.054688 C 312.121094 208.054688 312.816406 208.214844 313.324219 208.34375 C 318.28125 210.554688 318.582031 216.980469 318.480469 219.640625 " fill-opacity="1" fill-rule="nonzero"/><path fill="#000000" d="M 337.683594 226.902344 C 336.746094 238.53125 328.109375 248.277344 323.679688 242.699219 C 318.09375 235.660156 325.53125 214.367188 333.160156 215.578125 C 333.378906 215.613281 333.660156 215.710938 333.871094 215.769531 C 337.953125 217.8125 337.898438 224.234375 337.683594 226.902344 " fill-opacity="1" fill-rule="nonzero"/><path fill="#000000" d="M 352.441406 233.203125 C 350.976562 243.898438 344.082031 253.578125 340.730469 249.636719 C 336.257812 244.382812 343.765625 221.398438 349.652344 222.304688 C 349.824219 222.332031 350.039062 222.417969 350.203125 222.464844 C 353.289062 224.351562 352.792969 230.601562 352.441406 233.203125 " fill-opacity="1" fill-rule="nonzero"/><path fill="#000000" d="M 362.398438 238.648438 C 360.441406 248.304688 354.933594 257.882812 352.734375 255.441406 C 349.367188 251.710938 357.167969 227.519531 361.519531 228.195312 C 361.632812 228.214844 361.773438 228.289062 361.886719 228.328125 C 363.886719 230.035156 362.910156 236.109375 362.398438 238.648438 " fill-opacity="1" fill-rule="nonzero"/><path fill="#000000" d="M 367.355469 243.472656 C 364.796875 252.917969 360.539062 261.472656 359.472656 260.375 C 357.855469 258.699219 366.410156 232.957031 368.449219 233.371094 L 368.628906 233.480469 C 369.511719 235.136719 367.875 241.550781 367.355469 243.472656 " fill-opacity="1" fill-rule="nonzero"/><g clip-path="url(#fbd9d69878)"><path fill="#000000" d="M 365.667969 252.910156 L 361.191406 264.101562 C 361.117188 264.261719 361.019531 264.476562 360.9375 264.636719 C 361.039062 263.988281 370.183594 238.296875 370.265625 238.109375 L 370.285156 238.164062 C 370.257812 238.300781 370.207031 238.484375 370.175781 238.621094 C 368.828125 242.914062 367.261719 248.707031 365.667969 252.910156 " fill-opacity="1" fill-rule="nonzero"/></g><path fill="#000000" d="M 64.714844 83.453125 C 58.6875 90.0625 53.683594 93.457031 53.558594 91.019531 C 53.300781 86.148438 69.21875 69.671875 71.867188 72.058594 C 72.203125 72.363281 72.058594 72.90625 71.90625 73.476562 C 70.644531 76.679688 66.859375 81.101562 64.714844 83.453125 " fill-opacity="1" fill-rule="nonzero"/><path fill="#000000" d="M 63.984375 99.277344 C 58.3125 106.808594 52.28125 110.636719 51.578125 107.164062 C 50.394531 101.296875 64.480469 84.636719 68.703125 86.910156 C 69.296875 87.226562 69.339844 87.785156 69.390625 88.429688 C 69.117188 91.984375 65.882812 96.75 63.984375 99.277344 " fill-opacity="1" fill-rule="nonzero"/><path fill="#000000" d="M 68.429688 115.921875 C 63.222656 124.476562 56.089844 128.636719 54.554688 124.019531 C 52.140625 116.757812 65.648438 99.496094 70.980469 103.03125 C 71.496094 103.378906 71.722656 103.929688 71.90625 104.367188 C 72.722656 108.125 70.078125 113.21875 68.429688 115.921875 " fill-opacity="1" fill-rule="nonzero"/><path fill="#000000" d="M 77.65625 132.78125 C 73.027344 142.359375 64.800781 146.882812 62.472656 141.136719 C 59.234375 133.128906 71.148438 116.273438 77.828125 119.410156 C 78.527344 119.734375 78.925781 120.289062 79.246094 120.734375 C 81.078125 124.574219 79.035156 129.929688 77.65625 132.78125 " fill-opacity="1" fill-rule="nonzero"/><path fill="#000000" d="M 91.390625 149.582031 C 87.503906 159.984375 77.894531 164.886719 74.8125 158.042969 C 71.007812 149.613281 81.683594 133.246094 89.269531 135.878906 C 90.128906 136.179688 90.6875 136.726562 91.132812 137.167969 C 93.949219 141.027344 92.503906 146.601562 91.390625 149.582031 " fill-opacity="1" fill-rule="nonzero"/><path fill="#000000" d="M 109.222656 166.058594 C 106.1875 176.804688 96.039062 182.230469 91.710938 175.421875 C 86.367188 167.019531 96.179688 149.867188 105 152.195312 C 106.015625 152.464844 106.71875 153 107.289062 153.429688 C 110.996094 157.246094 110.09375 162.980469 109.222656 166.058594 " fill-opacity="1" fill-rule="nonzero"/><path fill="#000000" d="M 130.640625 181.988281 C 128.222656 193.695312 116.746094 199.378906 111.75 191.347656 C 106.105469 182.285156 114.976562 166.21875 124.578125 168.113281 C 125.71875 168.335938 126.550781 168.851562 127.21875 169.261719 C 131.710938 172.984375 131.289062 178.832031 130.640625 181.988281 " fill-opacity="1" fill-rule="nonzero"/><path fill="#000000" d="M 154.953125 197.152344 C 153.179688 209.015625 141.296875 215.238281 135.398438 207.394531 C 128.691406 198.488281 137.003906 181.898438 147.414062 183.402344 C 148.664062 183.585938 149.601562 184.070312 150.351562 184.457031 C 155.476562 188.035156 155.433594 193.945312 154.953125 197.152344 " fill-opacity="1" fill-rule="nonzero"/><path fill="#000000" d="M 181.425781 211.378906 C 180.113281 223.371094 167.945312 230.121094 161.398438 222.488281 C 153.980469 213.84375 161.871094 196.8125 172.808594 197.863281 C 174.132812 197.992188 175.136719 198.4375 175.949219 198.792969 C 181.546875 202.183594 181.785156 208.132812 181.425781 211.378906 " fill-opacity="1" fill-rule="nonzero"/><path fill="#000000" d="M 209.179688 224.488281 C 208.011719 237.28125 194.644531 244.324219 188.144531 235.578125 C 181.175781 226.195312 190.117188 209.503906 201.070312 211.445312 C 201.742188 211.5625 202.601562 211.875 203.238281 212.117188 C 209.101562 215.277344 209.476562 221.226562 209.179688 224.488281 " fill-opacity="1" fill-rule="nonzero"/><path fill="#000000" d="M 237.320312 236.375 C 236.160156 249.03125 222.742188 256.609375 216.214844 248.296875 C 209.109375 239.261719 218.027344 222.242188 229.109375 223.6875 C 229.777344 223.773438 230.652344 224.050781 231.292969 224.265625 C 237.238281 227.167969 237.625 233.097656 237.320312 236.375 " fill-opacity="1" fill-rule="nonzero"/><path fill="#000000" d="M 264.878906 246.828125 C 263.4375 259.035156 250.125 266.96875 243.933594 259.3125 C 237.230469 251.023438 246.441406 233.742188 257.074219 234.660156 C 257.734375 234.71875 258.589844 234.953125 259.222656 235.136719 C 265.253906 237.863281 265.1875 244.21875 264.878906 246.828125 " fill-opacity="1" fill-rule="nonzero"/><path fill="#000000" d="M 290.554688 255.566406 C 288.675781 267.265625 275.863281 275.519531 270.394531 268.554688 C 264.167969 260.625 275.011719 242.492188 284.898438 244.300781 C 285.195312 244.355469 285.574219 244.476562 285.867188 244.554688 C 291.316406 246.910156 290.960938 253.039062 290.554688 255.566406 " fill-opacity="1" fill-rule="nonzero"/><path fill="#000000" d="M 312.203125 262.886719 C 309.71875 274.132812 298.144531 282.566406 293.988281 276.152344 C 289.222656 268.792969 299.816406 250.945312 308.164062 252.285156 C 308.410156 252.320312 308.730469 252.425781 308.976562 252.484375 C 313.511719 254.53125 312.742188 260.4375 312.203125 262.886719 " fill-opacity="1" fill-rule="nonzero"/><path fill="#000000" d="M 329.28125 269.003906 C 326.238281 279.289062 316.574219 287.820312 313.375 283.046875 C 309.234375 276.882812 319.988281 258 327.070312 258.992188 C 327.265625 259.019531 327.519531 259.105469 327.71875 259.152344 C 331.234375 260.9375 329.984375 266.636719 329.28125 269.003906 " fill-opacity="1" fill-rule="nonzero"/><path fill="#000000" d="M 341.558594 274.167969 C 337.820312 283.96875 329.117188 292.644531 327.453125 288.234375 C 325.511719 283.097656 336.027344 263.214844 341.773438 264.777344 C 344.210938 266.359375 342.433594 271.875 341.558594 274.167969 " fill-opacity="1" fill-rule="nonzero"/><path fill="#000000" d="M 348.894531 278.601562 C 344.691406 287.503906 337.371094 296.125 336.652344 293.019531 C 335.875 289.65625 347.292969 268.277344 350.929688 269.589844 C 352.289062 271.070312 349.714844 276.863281 348.894531 278.601562 " fill-opacity="1" fill-rule="nonzero"/><path fill="#000000" d="M 351.296875 282.535156 C 347.105469 290.003906 341.910156 297.027344 340.746094 297.328125 C 340.175781 295.769531 353.238281 274.160156 355.011719 273.734375 L 355.113281 273.820312 C 355.304688 275.300781 351.96875 281.339844 351.296875 282.535156 " fill-opacity="1" fill-rule="nonzero"/><path fill="#000000" d="M 353.34375 279.816406 C 349.90625 285.433594 345.230469 292.878906 341.453125 298.28125 C 345.828125 292.285156 350.890625 284.195312 353.632812 279.300781 L 353.34375 279.816406 " fill-opacity="1" fill-rule="nonzero"/><path fill="#000000" d="M 43.050781 99.515625 C 41.113281 102.335938 36.527344 108.835938 35.726562 108.386719 C 35.074219 105.78125 48.664062 85.425781 50.125 86.828125 C 50.367188 87.058594 49.972656 88.011719 49.734375 88.582031 C 48.53125 91.132812 46.28125 94.8125 43.050781 99.515625 " fill-opacity="1" fill-rule="nonzero"/><path fill="#000000" d="M 39.757812 116.914062 C 36.175781 123.101562 32.042969 128.1875 31.324219 125.996094 C 29.898438 121.636719 41.285156 101.945312 44.425781 103.335938 C 44.984375 103.582031 44.882812 104.597656 44.820312 105.203125 C 44.089844 109.035156 41.332031 114.183594 39.753906 116.914062 " fill-opacity="1" fill-rule="nonzero"/><path fill="#000000" d="M 41.621094 135.167969 C 37.679688 143.4375 32.707031 147.765625 31.578125 143.902344 C 29.550781 136.96875 39.582031 118.367188 43.914062 121.023438 C 44.523438 121.398438 44.675781 122.078125 44.832031 122.800781 C 45.199219 126.925781 42.976562 132.324219 41.621094 135.167969 " fill-opacity="1" fill-rule="nonzero"/><path fill="#000000" d="M 49.054688 153.949219 C 45.496094 163.261719 39.355469 167.726562 37.105469 162.632812 C 33.746094 155.019531 42.671875 136.925781 48.617188 139.304688 C 49.546875 139.675781 49.917969 140.375 50.316406 141.109375 C 51.867188 145.359375 50.191406 150.976562 49.054688 153.949219 " fill-opacity="1" fill-rule="nonzero"/><path fill="#000000" d="M 61.457031 172.613281 C 58.460938 182.757812 51.058594 187.484375 47.804688 181.335938 C 43.367188 172.964844 51.214844 155.789062 58.566406 157.773438 C 59.753906 158.089844 60.320312 158.773438 60.914062 159.5 C 63.5 163.742188 62.363281 169.535156 61.457031 172.613281 " fill-opacity="1" fill-rule="nonzero"/><path fill="#000000" d="M 78.246094 190.820312 C 75.808594 201.777344 67.039062 206.730469 62.859375 199.5 C 57.773438 190.699219 64.878906 174.414062 73.132812 175.953125 C 74.542969 176.21875 75.285156 176.886719 76.070312 177.589844 C 79.59375 181.761719 78.945312 187.667969 78.246094 190.820312 " fill-opacity="1" fill-rule="nonzero"/><path fill="#000000" d="M 98.855469 208.363281 C 97.050781 219.523438 87.632812 224.917969 82.339844 217.824219 C 75.925781 209.222656 82.472656 192.484375 91.808594 193.625 C 93.417969 193.820312 94.3125 194.457031 95.253906 195.125 C 99.597656 199.183594 99.375 205.160156 98.855469 208.363281 " fill-opacity="1" fill-rule="nonzero"/><path fill="#000000" d="M 122.566406 225.042969 C 121.152344 236.929688 110.296875 242.5 104.40625 234.359375 C 97.640625 225 104.945312 208.636719 114.96875 210.695312 C 116.183594 210.949219 117.101562 211.488281 117.839844 211.925781 C 122.84375 215.808594 122.949219 221.816406 122.566406 225.046875 " fill-opacity="1" fill-rule="nonzero"/><path fill="#000000" d="M 148.539062 240.679688 C 147.449219 252.304688 136.113281 258.203125 129.589844 250.546875 C 122.496094 242.222656 128.65625 226.316406 138.875 226.578125 C 140.769531 226.628906 141.871094 227.183594 143.042969 227.769531 C 148.53125 231.449219 148.839844 237.4375 148.539062 240.679688 " fill-opacity="1" fill-rule="nonzero"/><path fill="#000000" d="M 175.910156 254.902344 C 174.8125 266.765625 162.101562 272.625 155.609375 264.253906 C 148.84375 255.527344 156.261719 240.472656 166.789062 241.5625 C 168.152344 241.707031 169.199219 242.164062 170.039062 242.527344 C 176.042969 246.082031 176.144531 252.363281 175.910156 254.902344 " fill-opacity="1" fill-rule="nonzero"/><path fill="#000000" d="M 203.699219 267.40625 C 202.402344 278.777344 189.453125 284.898438 183.023438 277.1875 C 176.285156 269.113281 183.964844 254.394531 194.59375 255.003906 C 195.984375 255.085938 197.042969 255.480469 197.902344 255.796875 C 203.96875 258.953125 203.976562 264.96875 203.699219 267.40625 " fill-opacity="1" fill-rule="nonzero"/><path fill="#000000" d="M 231.003906 278.167969 C 229.207031 289.453125 214.964844 295.6875 209.546875 287.566406 C 203.703125 278.8125 214.25 264.390625 224.59375 266.988281 C 224.914062 267.070312 225.332031 267.222656 225.652344 267.320312 C 231.605469 270.085938 231.378906 275.824219 231.003906 278.167969 " fill-opacity="1" fill-rule="nonzero"/><path fill="#000000" d="M 256.890625 287.164062 C 254.410156 297.933594 240.285156 304.503906 235.601562 297.070312 C 230.542969 289.03125 241.613281 274.835938 251.402344 276.820312 C 251.707031 276.878906 252.105469 277.011719 252.40625 277.09375 C 258.007812 279.445312 257.40625 284.921875 256.890625 287.164062 " fill-opacity="1" fill-rule="nonzero"/><path fill="#000000" d="M 280.375 294.472656 C 277.054688 304.761719 263.316406 311.644531 259.667969 304.847656 C 255.828125 297.6875 267.089844 282.765625 277.203125 285.109375 C 282.152344 287.074219 281.066406 292.3125 280.375 294.472656 " fill-opacity="1" fill-rule="nonzero"/><path fill="#000000" d="M 299.445312 300.40625 C 295.25 310.164062 282.757812 317.21875 280.621094 311.035156 C 278.398438 304.597656 290.125 289.886719 298.089844 291.65625 C 301.988281 293.332031 300.335938 298.335938 299.445312 300.40625 " fill-opacity="1" fill-rule="nonzero"/><path fill="#000000" d="M 313.640625 305.257812 C 308.722656 314.167969 298.046875 321.34375 296.84375 316.550781 C 295.488281 311.160156 307.859375 295.605469 314.167969 297.03125 C 316.992188 298.480469 314.742188 303.261719 313.640625 305.257812 " fill-opacity="1" fill-rule="nonzero"/><path fill="#000000" d="M 322.882812 309.257812 C 317.53125 317.089844 308.09375 324.410156 307.816406 320.945312 C 307.484375 316.816406 321 300.351562 325.332031 301.476562 C 327.046875 302.75 324.191406 307.34375 322.882812 309.257812 " fill-opacity="1" fill-rule="nonzero"/><path fill="#000000" d="M 327.257812 312.644531 C 322.285156 318.742188 314.910156 325.371094 313.648438 324.886719 C 312.8125 322.917969 329.046875 304.847656 331.378906 305.152344 L 331.570312 305.226562 C 332.210938 306.46875 328.085938 311.625 327.257812 312.644531 " fill-opacity="1" fill-rule="nonzero"/><path fill="#000000" d="M 326.953125 315.65625 C 326.320312 316.328125 325.683594 316.992188 325.039062 317.652344 L 320.066406 322.5625 C 317.097656 325.375 315.09375 327.109375 314.429688 327.585938 C 314.570312 326.84375 332.835938 308.515625 332.996094 308.453125 L 333.011719 308.515625 C 332.5625 309.457031 329.625 312.820312 326.953125 315.65625 " fill-opacity="1" fill-rule="nonzero"/><path fill="#000000" d="M 24.207031 135.300781 C 20.828125 144.371094 20.457031 145.046875 20.28125 145.371094 C 20.210938 145.140625 20.207031 145.121094 20.644531 143.507812 L 24.378906 131.503906 L 26.054688 126.9375 C 26.605469 125.507812 28.070312 121.710938 28.855469 120.773438 L 29 120.785156 C 29.019531 121.140625 28.9375 121.539062 28.585938 122.804688 C 28.160156 124.21875 27.449219 126.585938 24.207031 135.300781 " fill-opacity="1" fill-rule="nonzero"/><path fill="#000000" d="M 23.074219 154.714844 C 21.21875 160.957031 18.914062 166.511719 18.097656 165.050781 C 16.203125 161.652344 22.246094 139.460938 25.046875 139.515625 C 25.675781 139.53125 25.695312 140.816406 25.710938 141.667969 C 25.535156 145.695312 24.179688 150.984375 23.074219 154.714844 " fill-opacity="1" fill-rule="nonzero"/><path fill="#000000" d="M 27.382812 174.667969 C 25.816406 181.625 22.898438 187.476562 21.050781 185.09375 C 17.503906 180.523438 21.859375 159.078125 26.351562 159.015625 C 27.429688 159 27.847656 160.328125 28.125 161.207031 C 29.101562 165.707031 28.078125 171.574219 27.382812 174.667969 " fill-opacity="1" fill-rule="nonzero"/><path fill="#000000" d="M 37.398438 194.828125 C 35.953125 203.929688 31.707031 208.785156 28.828125 204.636719 C 23.832031 197.429688 27.644531 177.785156 33.796875 178.992188 C 35.03125 179.234375 35.773438 180.421875 36.21875 181.132812 C 38.421875 185.6875 37.902344 191.667969 37.398438 194.828125 " fill-opacity="1" fill-rule="nonzero"/><path fill="#000000" d="M 52.410156 214.558594 C 51.421875 224.519531 46.164062 229.394531 41.984375 224.230469 C 35.785156 216.5625 38.96875 198.0625 46.34375 198.847656 C 47.910156 199.011719 48.949219 200.160156 49.574219 200.839844 C 52.78125 205.308594 52.726562 211.355469 52.410156 214.558594 " fill-opacity="1" fill-rule="nonzero"/><path fill="#000000" d="M 71.503906 233.425781 C 70.96875 243.640625 64.410156 248.515625 59.191406 242.574219 C 52.242188 234.660156 55.128906 217.710938 63.367188 218.054688 C 65.210938 218.132812 66.507812 219.226562 67.285156 219.878906 C 71.347656 224.195312 71.671875 230.21875 71.503906 233.425781 " fill-opacity="1" fill-rule="nonzero"/><path fill="#000000" d="M 93.914062 250.941406 C 93.679688 261.308594 85.679688 266.082031 79.648438 259.449219 C 72.429688 251.507812 75.363281 236.402344 84.136719 236.355469 C 86.207031 236.347656 87.710938 237.363281 88.613281 237.96875 C 93.386719 242.046875 93.984375 247.84375 93.914062 250.941406 " fill-opacity="1" fill-rule="nonzero"/><path fill="#000000" d="M 118.707031 266.871094 C 118.582031 277.328125 109.09375 281.988281 102.589844 274.78125 C 95.347656 266.753906 99.484375 252.488281 108.828125 253.28125 C 110.566406 253.433594 111.628906 254.015625 112.75 254.636719 C 118.015625 258.371094 118.742188 263.902344 118.707031 266.871094 " fill-opacity="1" fill-rule="nonzero"/><path fill="#000000" d="M 144.980469 281.140625 C 144.746094 291.101562 134.699219 295.898438 127.917969 289.285156 C 120.359375 281.914062 124.796875 268.144531 134.609375 268.535156 C 136.445312 268.609375 137.5625 269.132812 138.75 269.683594 C 144.328125 273.058594 145.046875 278.308594 144.980469 281.140625 " fill-opacity="1" fill-rule="nonzero"/><path fill="#000000" d="M 171.75 293.664062 C 171.144531 303.613281 159.730469 308.328125 153.246094 301.316406 C 146.613281 294.136719 151.75 282.109375 161.449219 282.105469 C 163.34375 282.105469 164.484375 282.558594 165.691406 283.035156 C 171.34375 286.023438 171.914062 290.980469 171.75 293.664062 " fill-opacity="1" fill-rule="nonzero"/><path fill="#000000" d="M 198.125 304.445312 C 196.859375 314.398438 184.214844 319.046875 178.519531 311.648438 C 172.707031 304.101562 180.675781 292.425781 190.535156 294.050781 C 191.171875 294.160156 191.996094 294.425781 192.609375 294.632812 C 198.160156 297.242188 198.449219 301.898438 198.125 304.445312 " fill-opacity="1" fill-rule="nonzero"/><path fill="#000000" d="M 223.183594 313.464844 C 220.996094 323.140625 207.214844 327.816406 202.980469 320.320312 C 198.726562 312.78125 208.457031 302.082031 217.648438 304.199219 C 217.945312 304.265625 218.332031 304.394531 218.625 304.480469 C 223.855469 306.707031 223.726562 311.0625 223.183594 313.464844 " fill-opacity="1" fill-rule="nonzero"/><path fill="#000000" d="M 246.144531 320.800781 C 242.878906 329.898438 229.238281 334.855469 226.152344 328.058594 C 223.15625 321.472656 233.386719 310.265625 242.851562 312.601562 C 247.613281 314.457031 246.960938 318.535156 246.144531 320.800781 " fill-opacity="1" fill-rule="nonzero"/><path fill="#000000" d="M 266.210938 326.527344 C 261.714844 335.078125 248.433594 340.292969 246.742188 334.171875 C 245.097656 328.222656 256.289062 317.367188 264.546875 319.066406 C 268.773438 320.621094 267.117188 324.804688 266.210938 326.527344 " fill-opacity="1" fill-rule="nonzero"/><path fill="#000000" d="M 281.773438 330.980469 C 276.394531 338.542969 264.757812 343.992188 263.988281 339.308594 C 263.167969 334.347656 275.664062 322.839844 282.167969 324.125 C 285.296875 325.417969 282.933594 329.347656 281.773438 330.980469 " fill-opacity="1" fill-rule="nonzero"/><path fill="#000000" d="M 292.320312 334.460938 C 286.632812 340.65625 276.636719 346.234375 276.121094 343.503906 C 275.484375 340.136719 289.800781 327.105469 294.789062 328.128906 C 296.804688 329.21875 293.734375 332.917969 292.320312 334.460938 " fill-opacity="1" fill-rule="nonzero"/><path fill="#000000" d="M 297.992188 337.214844 C 291.742188 342.722656 282.613281 347.949219 282.894531 346.28125 C 283.265625 344.085938 299.511719 330.5625 302.464844 331.320312 C 303.429688 332.332031 298.910156 336.40625 297.992188 337.214844 " fill-opacity="1" fill-rule="nonzero"/><path fill="#000000" d="M 299.039062 339.484375 C 292.765625 344.105469 285.648438 348.25 284.695312 348.503906 C 285.03125 347.433594 304.75 333.550781 305.382812 333.941406 C 305.1875 334.769531 301.148438 337.925781 299.039062 339.484375 " fill-opacity="1" fill-rule="nonzero"/><path fill="#000000" d="M 291.640625 344.660156 L 290.988281 345.070312 C 295.625 342.171875 299.699219 339.304688 302.304688 337.410156 C 299.109375 339.589844 294.917969 342.597656 291.640625 344.660156 " fill-opacity="1" fill-rule="nonzero"/><path fill="#000000" d="M 14.988281 175.058594 C 14.777344 177.269531 14.664062 178.976562 14.625 179.539062 C 15.207031 174 15.902344 166.59375 16.765625 161.085938 L 16.714844 161.417969 C 15.726562 167.601562 15.144531 173.425781 14.988281 175.058594 " fill-opacity="1" fill-rule="nonzero"/><path fill="#000000" d="M 16.167969 195.746094 C 16.050781 199.378906 15.792969 205.65625 15.339844 206.855469 L 15.1875 206.871094 C 14.269531 204.683594 13.660156 182.414062 15.339844 179.582031 L 15.570312 179.566406 C 15.796875 179.941406 15.890625 180.378906 16.050781 181.785156 C 16.152344 182.984375 16.457031 186.613281 16.167969 195.746094 " fill-opacity="1" fill-rule="nonzero"/><path fill="#000000" d="M 22.84375 216.445312 C 23.011719 222.714844 22.320312 228.570312 20.714844 227.074219 C 17.128906 223.738281 15.742188 200.390625 19.121094 200.210938 C 19.90625 200.167969 20.492188 201.625 20.84375 202.492188 C 22.378906 207.117188 22.757812 213.222656 22.84375 216.449219 " fill-opacity="1" fill-rule="nonzero"/><path fill="#000000" d="M 35.046875 236.601562 C 35.621094 244.097656 33.863281 248.65625 31.203125 246.554688 C 25.679688 242.195312 23.335938 221.03125 28.359375 220.828125 C 29.617188 220.777344 30.632812 222.199219 31.238281 223.046875 C 34 227.660156 34.808594 233.523438 35.046875 236.601562 " fill-opacity="1" fill-rule="nonzero"/><path fill="#000000" d="M 51.941406 255.597656 C 52.863281 263.375 50.234375 267.765625 46.324219 264.996094 C 39.328125 260.054688 36.457031 242.398438 42.382812 240.78125 C 44.28125 240.261719 45.96875 241.914062 46.78125 242.710938 C 50.457031 247.023438 51.589844 252.636719 51.941406 255.597656 " fill-opacity="1" fill-rule="nonzero"/><path fill="#000000" d="M 72.332031 273.058594 C 73.546875 281.421875 69.367188 285.570312 64.046875 281.285156 C 56.34375 275.074219 54.660156 259.765625 61.609375 259.144531 C 63.589844 258.96875 65.203125 260.179688 66.167969 260.90625 C 70.578125 264.90625 71.921875 270.238281 72.332031 273.058594 " fill-opacity="1" fill-rule="nonzero"/><path fill="#000000" d="M 95.253906 288.839844 C 96.527344 297.242188 91.121094 301.199219 84.917969 296.402344 C 76.882812 290.1875 75.886719 276.859375 83.386719 276.023438 C 85.625 275.773438 87.433594 276.867188 88.511719 277.519531 C 93.4375 281.164062 94.847656 286.171875 95.253906 288.839844 " fill-opacity="1" fill-rule="nonzero"/><path fill="#000000" d="M 119.773438 302.886719 C 120.894531 311.121094 114.085938 314.933594 107.429688 309.792969 C 99.765625 303.875 99.699219 292.242188 107.328125 291.21875 C 109.757812 290.890625 111.683594 291.855469 112.835938 292.429688 C 118.082031 295.699219 119.433594 300.382812 119.773438 302.886719 " fill-opacity="1" fill-rule="nonzero"/><path fill="#000000" d="M 144.902344 315.136719 C 145.609375 323.136719 137.425781 326.796875 130.777344 321.460938 C 123.6875 315.761719 124.683594 305.867188 132.476562 304.65625 C 135.054688 304.257812 137.027344 305.097656 138.210938 305.59375 C 143.554688 308.472656 144.699219 312.804688 144.902344 315.136719 " fill-opacity="1" fill-rule="nonzero"/><path fill="#000000" d="M 169.730469 325.605469 C 169.777344 333.773438 159.433594 337.054688 153.457031 330.769531 C 147.773438 324.789062 151.550781 316.050781 159.773438 316.160156 C 161.484375 316.179688 162.542969 316.5625 163.660156 316.96875 C 168.914062 319.457031 169.71875 323.449219 169.730469 325.605469 " fill-opacity="1" fill-rule="nonzero"/><path fill="#000000" d="M 193.351562 334.308594 C 192.382812 342.199219 180.980469 345.355469 176.171875 339.070312 C 171.558594 333.035156 178.085938 324.789062 186.445312 326.097656 C 187.011719 326.1875 187.753906 326.402344 188.304688 326.574219 C 193.269531 328.675781 193.597656 332.320312 193.351562 334.308594 " fill-opacity="1" fill-rule="nonzero"/><path fill="#000000" d="M 214.988281 341.320312 C 212.734375 348.773438 200.425781 351.886719 197.429688 345.765625 C 194.679688 340.152344 202.765625 332.210938 211.273438 334.449219 C 215.789062 336.183594 215.539062 339.5 214.988281 341.320312 " fill-opacity="1" fill-rule="nonzero"/><path fill="#000000" d="M 233.890625 346.742188 C 230.21875 353.484375 218.144531 356.796875 216.671875 351.46875 C 215.308594 346.539062 224.445312 339.046875 231.835938 340.683594 C 235.882812 342.125 234.621094 345.398438 233.890625 346.742188 " fill-opacity="1" fill-rule="nonzero"/><path fill="#000000" d="M 249.484375 350.703125 C 245.078125 355.890625 233.347656 360.367188 232.839844 356.082031 C 232.34375 351.910156 242.882812 344.234375 249.300781 345.394531 C 252.59375 346.507812 250.527344 349.476562 249.484375 350.703125 " fill-opacity="1" fill-rule="nonzero"/><path fill="#000000" d="M 260.628906 353.503906 C 255.214844 357.976562 245.164062 361.828125 245.039062 359.476562 C 244.902344 356.875 257.351562 347.929688 262.703125 348.816406 C 264.960938 349.710938 261.6875 352.628906 260.628906 353.503906 " fill-opacity="1" fill-rule="nonzero"/><path fill="#000000" d="M 266.839844 355.46875 C 261.367188 358.839844 252.972656 362.195312 252.078125 361.632812 C 251.914062 360.542969 267.746094 350.726562 271.09375 351.300781 C 272.253906 352.050781 267.75 354.90625 266.839844 355.46875 " fill-opacity="1" fill-rule="nonzero"/><path fill="#000000" d="M 268.414062 356.839844 C 261.8125 360.007812 254.6875 362.441406 254.007812 362.613281 C 254.164062 362.5 273.660156 352.828125 274.707031 353.109375 C 274.226562 353.996094 269.765625 356.191406 268.414062 356.839844 " fill-opacity="1" fill-rule="nonzero"/><path fill="#000000" d="M 264.402344 358.738281 C 266.378906 357.910156 268.957031 356.808594 273.085938 354.871094 L 264.402344 358.738281 " fill-opacity="1" fill-rule="nonzero"/><path fill="#000000" d="M 20.144531 236.699219 C 21.015625 240.347656 21.75 243.140625 22.390625 245.242188 L 18.726562 231.589844 L 16.679688 221.167969 C 16.84375 221.910156 17.003906 222.65625 17.167969 223.40625 C 18.289062 228.5625 19.175781 232.636719 20.144531 236.699219 " fill-opacity="1" fill-rule="nonzero"/><path fill="#000000" d="M 28.8125 256.03125 C 29.40625 258.011719 31.308594 264.558594 30.949219 265.601562 C 29.984375 265.496094 26.824219 257.808594 24.917969 252.300781 C 22.96875 246.667969 21.867188 241.640625 22.464844 241.101562 C 22.875 240.730469 23.746094 242.429688 24.164062 243.242188 C 25.652344 246.386719 27.214844 250.691406 28.8125 256.03125 " fill-opacity="1" fill-rule="nonzero"/><path fill="#000000" d="M 42.398438 274.460938 C 44.125 279.417969 44.941406 284.082031 43.15625 283.433594 C 38.875 281.863281 30.273438 261.523438 33.367188 260.273438 C 34.273438 259.910156 35.683594 261.613281 36.285156 262.339844 C 39.210938 266.265625 41.226562 271.097656 42.398438 274.460938 " fill-opacity="1" fill-rule="nonzero"/><path fill="#000000" d="M 60.160156 291.574219 C 62.085938 296.53125 62.460938 301.136719 59.363281 299.898438 C 52.996094 297.351562 44.523438 279.699219 49.070312 278.4375 C 50.441406 278.054688 52.242188 279.613281 53.015625 280.28125 C 56.902344 284.109375 59.160156 289 60.160156 291.574219 " fill-opacity="1" fill-rule="nonzero"/><path fill="#000000" d="M 80.660156 306.90625 C 82.691406 311.878906 82.332031 316.234375 78.214844 314.59375 C 71.03125 311.738281 63.339844 297.394531 67.796875 295.164062 C 69.570312 294.277344 71.941406 295.875 72.949219 296.558594 C 77.394531 300.015625 79.6875 304.527344 80.660156 306.90625 " fill-opacity="1" fill-rule="nonzero"/><path fill="#000000" d="M 102.914062 320.410156 C 105.183594 326.011719 103.226562 329.210938 98.636719 327.402344 C 90.652344 324.25 84.1875 312.183594 89.292969 309.949219 C 91.378906 309.035156 93.941406 310.4375 95.039062 311.035156 C 99.828125 314.109375 102.027344 318.230469 102.914062 320.410156 " fill-opacity="1" fill-rule="nonzero"/><path fill="#000000" d="M 125.90625 332.054688 C 127.804688 337.21875 125.175781 340.9375 118.933594 337.988281 C 111.085938 334.277344 106.90625 324.96875 112.160156 322.898438 C 114.515625 321.964844 117.175781 323.171875 118.3125 323.6875 C 123.226562 326.363281 125.179688 330.074219 125.90625 332.054688 " fill-opacity="1" fill-rule="nonzero"/><path fill="#000000" d="M 148.707031 341.851562 C 150.183594 347 145.699219 350.335938 139.089844 346.6875 C 132.007812 342.789062 130.253906 335.195312 136.109375 333.800781 C 138.472656 333.234375 140.785156 334.117188 141.769531 334.488281 C 146.617188 336.769531 148.195312 340.085938 148.707031 341.851562 " fill-opacity="1" fill-rule="nonzero"/><path fill="#000000" d="M 170.394531 349.851562 C 171.210938 355.566406 163.671875 357.625 157.984375 353.242188 C 152.945312 349.359375 153.839844 343.765625 159.628906 342.921875 C 161.800781 342.609375 163.507812 343.160156 164.53125 343.488281 C 169.113281 345.378906 170.167969 348.285156 170.394531 349.851562 " fill-opacity="1" fill-rule="nonzero"/><path fill="#000000" d="M 190.175781 356.132812 C 189.734375 361.484375 180.550781 363.207031 176.53125 358.699219 C 173.09375 354.84375 177.113281 349.894531 183.359375 350.292969 C 184.332031 350.355469 185.09375 350.5625 185.707031 350.730469 C 189.859375 352.25 190.292969 354.769531 190.175781 356.132812 " fill-opacity="1" fill-rule="nonzero"/><path fill="#000000" d="M 207.320312 360.8125 C 205.148438 365.859375 194.90625 367.285156 193.441406 362.738281 C 192.296875 359.167969 198.425781 354.933594 204.566406 356.320312 C 208.273438 357.539062 207.726562 359.867188 207.320312 360.8125 " fill-opacity="1" fill-rule="nonzero"/><path fill="#000000" d="M 221.242188 364.035156 C 217.972656 367.507812 208.164062 369.867188 208.042969 366.480469 C 207.953125 363.84375 214.980469 359.398438 220.425781 360.382812 C 223.425781 361.277344 221.996094 363.234375 221.242188 364.035156 " fill-opacity="1" fill-rule="nonzero"/><path fill="#000000" d="M 231.46875 365.984375 C 227.414062 368.375 218.5625 370.484375 218.675781 369.03125 C 218.792969 367.460938 228.066406 362.464844 232.785156 363.089844 C 235.105469 363.742188 232.097656 365.613281 231.46875 365.984375 " fill-opacity="1" fill-rule="nonzero"/><path fill="#000000" d="M 237.382812 366.917969 C 232.238281 368.769531 225.308594 369.953125 224.777344 369.90625 C 225.546875 369.242188 238.433594 364.421875 241.035156 364.660156 L 241.28125 364.8125 C 241.15625 365.492188 238.511719 366.511719 237.382812 366.917969 " fill-opacity="1" fill-rule="nonzero"/><path fill="#000000" d="M 232.734375 368.503906 C 235.097656 367.945312 237.011719 367.417969 239.886719 366.613281 C 242.492188 365.882812 244.109375 365.4375 244.511719 365.441406 C 244.371094 365.554688 244.296875 365.609375 243.164062 365.972656 C 240.042969 366.765625 235.875 367.800781 232.734375 368.503906 " fill-opacity="1" fill-rule="nonzero"/><path fill="#000000" d="M 48.660156 296.753906 C 51.136719 300.472656 51.304688 300.710938 54.089844 304.664062 C 50.058594 299.246094 44.789062 291.945312 41.101562 286.292969 L 40.832031 285.851562 C 39.90625 284.332031 39.835938 284.097656 39.777344 283.914062 C 39.925781 283.957031 40.011719 283.984375 41.351562 285.851562 C 42.324219 287.242188 42.324219 287.242188 48.660156 296.753906 " fill-opacity="1" fill-rule="nonzero"/><path fill="#000000" d="M 63.851562 312.296875 C 65.625 314.6875 68.574219 318.789062 68.367188 319.390625 C 66.363281 319.734375 52.09375 302.523438 52.789062 300.601562 C 53.023438 299.953125 54.746094 301.585938 55.484375 302.289062 C 57.925781 304.746094 60.738281 308.113281 63.851562 312.296875 " fill-opacity="1" fill-rule="nonzero"/><path fill="#000000" d="M 82.085938 326.207031 C 84.5 329.191406 86.847656 332.65625 85.519531 332.59375 C 81.875 332.425781 67.707031 317.507812 69.558594 315.789062 C 70.234375 315.167969 72.3125 316.644531 73.199219 317.273438 C 76.851562 320.085938 80.050781 323.683594 82.085938 326.207031 " fill-opacity="1" fill-rule="nonzero"/><path fill="#000000" d="M 101.96875 338.175781 C 104.207031 340.789062 106.195312 343.835938 104.433594 343.832031 C 100.710938 343.816406 86.441406 332.15625 88.566406 329.347656 C 89.09375 328.660156 90.585938 328.996094 93.007812 330.351562 C 96.988281 332.816406 100.078125 335.96875 101.96875 338.175781 " fill-opacity="1" fill-rule="nonzero"/><path fill="#000000" d="M 122.441406 348.195312 C 124.152344 350.144531 126.292969 353.363281 123.507812 353.066406 C 118.496094 352.53125 106.238281 343.164062 108.96875 340.761719 C 109.707031 340.113281 111.351562 340.363281 113.867188 341.503906 C 117.941406 343.597656 120.78125 346.296875 122.441406 348.195312 " fill-opacity="1" fill-rule="nonzero"/><path fill="#000000" d="M 142.558594 356.308594 C 143.925781 357.914062 145.453125 360.582031 142.496094 360.394531 C 137.355469 360.074219 127.03125 353.019531 129.378906 350.46875 C 129.921875 349.878906 131.296875 349.449219 134.761719 350.738281 C 138.953125 352.546875 141.441406 355.007812 142.558594 356.308594 " fill-opacity="1" fill-rule="nonzero"/><path fill="#000000" d="M 161.390625 362.582031 C 162.820312 364.488281 162.75 366.308594 159.21875 365.777344 C 153.714844 364.957031 146.65625 360.046875 149.300781 358.050781 C 149.988281 357.527344 151.5 357.113281 154.78125 358.121094 C 158.691406 359.542969 160.597656 361.527344 161.390625 362.582031 " fill-opacity="1" fill-rule="nonzero"/><path fill="#000000" d="M 178.15625 367.125 C 179.363281 369.523438 176.257812 370.351562 171.636719 368.871094 C 167.355469 367.496094 165.433594 365.042969 167.683594 363.828125 C 168.511719 363.375 170.121094 362.992188 173.0625 363.722656 C 176.664062 364.824219 177.824219 366.472656 178.15625 367.125 " fill-opacity="1" fill-rule="nonzero"/><path fill="#000000" d="M 192.140625 370.066406 C 191.996094 372.445312 184.363281 372.046875 182.597656 370.195312 C 181.335938 368.882812 183.464844 367.4375 186.660156 367.4375 C 187.632812 367.4375 188.238281 367.550781 188.878906 367.675781 C 191.988281 368.457031 192.160156 369.703125 192.140625 370.066406 " fill-opacity="1" fill-rule="nonzero"/><g clip-path="url(#729b8d5be9)"><path fill="#000000" d="M 202.792969 371.578125 C 201.601562 372.34375 193.929688 372.980469 194.261719 371.816406 C 194.496094 370.996094 198.109375 369.671875 201.589844 370.117188 C 204.230469 370.628906 202.847656 371.539062 202.792969 371.578125 " fill-opacity="1" fill-rule="nonzero"/></g><g clip-path="url(#f4ded5732f)"><path fill="#000000" d="M 209.671875 371.855469 C 209.539062 371.871094 209.355469 371.886719 209.222656 371.898438 C 207.148438 372.035156 204.382812 372.203125 202.304688 372.300781 C 205.128906 372.109375 207.847656 371.113281 210.710938 371.242188 C 211.105469 371.285156 211.195312 371.300781 211.289062 371.402344 C 211.238281 371.652344 210.253906 371.792969 209.671875 371.855469 " fill-opacity="1" fill-rule="nonzero"/></g><path fill="#000000" d="M 88.585938 337.460938 C 91.066406 339.355469 92.460938 340.324219 93.378906 340.964844 C 89.394531 338.042969 84.054688 334.175781 80.203125 331.078125 L 77.1875 328.539062 C 77.046875 328.417969 76.90625 328.292969 76.773438 328.160156 C 76.917969 328.222656 77 328.261719 78.761719 329.660156 C 86.859375 336.144531 86.859375 336.144531 88.585938 337.460938 " fill-opacity="1" fill-rule="nonzero"/><path fill="#000000" d="M 105.863281 348.082031 C 108.039062 349.523438 110.257812 350.898438 112.457031 352.300781 L 112.292969 352.246094 L 106.007812 348.835938 L 101.972656 346.476562 C 97.359375 343.6875 93.664062 341.070312 93.195312 340.261719 L 93.316406 340.1875 C 93.84375 340.335938 94.429688 340.65625 95.828125 341.488281 C 97.058594 342.246094 97.058594 342.246094 105.863281 348.082031 " fill-opacity="1" fill-rule="nonzero"/><path fill="#000000" d="M 123.894531 356.671875 C 125.808594 357.769531 127.871094 358.613281 129.640625 359.957031 C 127.140625 359.769531 111.226562 351.972656 111.121094 350.359375 C 111.386719 350.164062 112.183594 350.421875 114.164062 351.335938 C 116.921875 352.679688 118.820312 353.765625 123.894531 356.671875 " fill-opacity="1" fill-rule="nonzero"/><path fill="#000000" d="M 141.625 363.265625 C 143.203125 364.027344 144.84375 364.65625 146.355469 365.550781 C 146.097656 365.703125 139.777344 363.777344 135.265625 361.910156 C 131.910156 360.527344 129.324219 359.042969 129.371094 358.539062 C 129.40625 358.1875 130.507812 358.402344 132.640625 359.179688 C 135.421875 360.257812 137.496094 361.265625 141.625 363.265625 " fill-opacity="1" fill-rule="nonzero"/><path fill="#000000" d="M 158.140625 367.949219 C 159.363281 368.421875 160.648438 368.722656 161.832031 369.296875 C 161.691406 369.28125 161.546875 369.253906 161.40625 369.226562 L 159.191406 368.792969 C 149.023438 366.71875 146.464844 364.847656 147.085938 364.5625 C 147.601562 364.328125 149.640625 364.902344 150.3125 365.09375 C 152.378906 365.71875 152.59375 365.804688 158.140625 367.949219 " fill-opacity="1" fill-rule="nonzero"/><path fill="#000000" d="M 172.585938 370.835938 C 173.574219 371.089844 174.085938 371.171875 174.488281 371.226562 C 172.8125 371.011719 170.578125 370.734375 168.90625 370.492188 L 167.664062 370.304688 C 164.472656 369.796875 163.039062 369.242188 163.035156 368.917969 C 163.425781 368.578125 165.507812 369.003906 166.289062 369.164062 C 168.40625 369.640625 170.484375 370.300781 172.585938 370.835938 " fill-opacity="1" fill-rule="nonzero"/><g clip-path="url(#8d44cc66c9)"><path fill="#000000" d="M 177.878906 371.589844 L 177.261719 371.527344 C 176.882812 371.480469 176.816406 371.460938 176.722656 371.414062 C 176.824219 371.328125 177.359375 371.226562 179.792969 371.53125 C 181.101562 371.703125 182.402344 371.96875 183.722656 372.058594 C 181.96875 371.925781 179.632812 371.753906 177.878906 371.589844 " fill-opacity="1" fill-rule="nonzero"/></g><g clip-path="url(#c2005f570b)"><g clip-path="url(#005bf48472)"><g transform="matrix(1, 0, 0, 1, 52, 172)"><g clip-path="url(#7f78769d6c)"><g clip-path="url(#fe27963d57)"><g clip-path="url(#53db05d371)"><rect x="-136.48" width="552.96" fill="#000000" height="552.959979" y="-256.479997" fill-opacity="1"/></g></g></g></g></g></g><g clip-path="url(#874899f994)"><g clip-path="url(#fdb12e51a0)"><g transform="matrix(1, 0, 0, 1, 99, 227)"><g clip-path="url(#4b9febfb3a)"><g clip-path="url(#2e8936cbfa)"><g clip-path="url(#3ad2666f04)"><rect x="-183.48" width="552.96" fill="#000000" height="552.959979" y="-311.479997" fill-opacity="1"/></g></g></g></g></g></g></svg>