<svg xmlns="http://www.w3.org/2000/svg" xmlns:xlink="http://www.w3.org/1999/xlink" width="160" zoomAndPan="magnify" viewBox="0 0 120 119.999999" height="160" preserveAspectRatio="xMidYMid meet" version="1.0"><defs><clipPath id="d476faa505"><path d="M 37.539062 51.058594 L 37.894531 51.058594 L 37.894531 51.335938 L 37.539062 51.335938 Z M 37.539062 51.058594 " clip-rule="nonzero"/></clipPath><clipPath id="ea313521f1"><path d="M 37.875 51.226562 C 37.199219 51.523438 37.800781 51.074219 37.800781 51.074219 " clip-rule="nonzero"/></clipPath><clipPath id="ccd0731120"><path d="M 0.539062 0.0585938 L 0.894531 0.0585938 L 0.894531 0.335938 L 0.539062 0.335938 Z M 0.539062 0.0585938 " clip-rule="nonzero"/></clipPath><clipPath id="dc8d8f9eec"><path d="M 0.875 0.226562 C 0.199219 0.523438 0.800781 0.0742188 0.800781 0.0742188 " clip-rule="nonzero"/></clipPath><clipPath id="a27b10529b"><rect x="0" width="1" y="0" height="1"/></clipPath></defs><path fill="#f69d1f" d="M 52.472656 35.429688 C 52.210938 35.605469 51.960938 35.804688 51.710938 36.019531 C 43.351562 66.066406 57.328125 78.921875 62.628906 82.578125 C 65.445312 82.621094 68.265625 82.675781 71.082031 82.753906 C 72.671875 82.796875 74.261719 82.847656 75.851562 82.902344 C 79.386719 80.0625 85.917969 72.335938 81.402344 56.105469 C 81.257812 55.976562 81.105469 55.863281 80.953125 55.757812 C 79.5 56.554688 76.429688 58.777344 76.015625 63.519531 C 76.015625 63.519531 75.199219 59.273438 79.304688 55.109375 C 74.160156 54.324219 67.355469 63.121094 67.355469 63.121094 C 67.105469 53.269531 78.589844 52.328125 78.589844 52.328125 C 75.324219 49.554688 66.015625 49.902344 66.015625 49.902344 C 73.738281 44.605469 81.113281 51.832031 81.113281 51.832031 C 80.007812 47.5625 76.554688 44.324219 75.027344 43.058594 C 75.386719 44.515625 75.574219 46.128906 75.527344 47.914062 C 75.527344 47.914062 63.988281 33 55.265625 34.332031 C 62.222656 41.390625 60.839844 48.585938 60.839844 48.585938 C 60.140625 40.550781 54.933594 36.777344 52.472656 35.429688 Z M 52.472656 35.429688 " fill-opacity="1" fill-rule="nonzero"/><path fill="#4181c3" d="M 61.621094 108.039062 L 87.347656 106.566406 C 88.828125 105.695312 90.261719 104.757812 91.644531 103.757812 L 76.875 101.839844 L 94.980469 101.132812 C 98.476562 98.15625 101.585938 94.742188 104.230469 90.976562 L 81.40625 88.847656 L 106.960938 86.660156 C 107.40625 85.878906 107.832031 85.085938 108.238281 84.28125 L 105.714844 84.28125 C 101.820312 84.570312 97.929688 84.726562 94.035156 84.839844 C 90.023438 84.949219 86.015625 84.996094 82.003906 84.996094 C 77.992188 84.996094 73.980469 84.945312 69.972656 84.835938 C 69.46875 84.820312 68.964844 84.804688 68.464844 84.789062 C 62.535156 84.929688 56.605469 84.996094 50.679688 84.996094 C 43.882812 84.996094 37.082031 84.914062 30.28125 84.726562 C 26.363281 84.617188 22.445312 84.476562 18.53125 84.28125 L 11.753906 84.28125 C 12.558594 85.878906 13.4375 87.425781 14.394531 88.925781 L 38.585938 90.996094 L 17.246094 92.980469 C 20.285156 96.917969 23.859375 100.421875 27.851562 103.386719 L 43.121094 103.984375 L 31.003906 105.558594 C 32.992188 106.824219 35.070312 107.96875 37.230469 108.972656 L 58.378906 110.183594 L 48.289062 112.722656 C 52.058594 113.558594 55.976562 114 60 114 C 65.523438 114 70.855469 113.167969 75.875 111.625 Z M 61.621094 108.039062 " fill-opacity="1" fill-rule="nonzero"/><path fill="#f69d1f" d="M 94.3125 71.085938 L 112.992188 70.410156 C 113.652344 67.039062 114 63.5625 114 60 C 114 46.515625 109.054688 34.183594 100.878906 24.71875 L 82.9375 27.695312 L 97.414062 21.066406 C 87.707031 11.734375 74.523438 6 60 6 C 44.816406 6 31.097656 12.269531 21.289062 22.355469 L 39.957031 21.734375 L 18.015625 26.039062 C 12.378906 33 8.4375 41.386719 6.820312 50.574219 L 22.316406 52.011719 L 6.300781 54.300781 C 6.101562 56.171875 6 58.074219 6 60 C 6 65.574219 6.847656 70.953125 8.414062 76.011719 L 30.183594 77.285156 L 9.707031 79.699219 C 10.054688 80.582031 10.421875 81.457031 10.8125 82.316406 C 11.722656 81.789062 12.710938 81.238281 13.628906 80.78125 C 16.332031 79.429688 29.125 83.640625 35.71875 81.257812 C 42.316406 78.875 51.289062 82.480469 51.289062 82.480469 C 39.277344 68.554688 45.832031 44.429688 48.265625 37.003906 L 48.25 37.003906 C 48.25 37.003906 39.6875 28.945312 25.921875 47.914062 C 25.921875 47.914062 23.070312 31.964844 43.550781 31.210938 C 43.550781 31.210938 32.722656 23.992188 23.574219 28.859375 C 23.574219 28.859375 36.246094 16.269531 48.667969 29.699219 C 48.667969 29.699219 43.296875 23.65625 45.144531 18.285156 C 45.144531 18.285156 46.742188 24.746094 49.507812 26.929688 C 49.507812 26.929688 50.179688 14.421875 63.777344 12.910156 C 63.777344 12.910156 54.628906 19.375 52.195312 28.777344 C 52.195312 28.777344 64.703125 16.523438 77.796875 25.503906 C 77.796875 25.503906 62.015625 24.914062 56.476562 29.613281 C 56.476562 29.613281 71.578125 30.855469 74.894531 42.558594 C 82.324219 43.746094 82.699219 50.742188 82.699219 50.742188 C 84.332031 49.457031 85.273438 45.644531 85.273438 45.644531 C 86.363281 48.8125 83.195312 52.378906 83.195312 52.378906 C 90.523438 44.457031 98 51.882812 98 51.882812 C 92.601562 49.011719 86.214844 53.269531 86.214844 53.269531 C 98.296875 53.714844 96.609375 63.121094 96.609375 63.121094 C 88.492188 51.933594 83.441406 56.6875 83.441406 56.6875 L 83.433594 56.6875 C 84.847656 61.003906 88.625 74.890625 81.949219 83.152344 C 86.371094 80.125 94.050781 82.847656 98.027344 81.097656 C 101.113281 79.738281 106.359375 82.410156 108.542969 83.671875 C 109.953125 80.789062 111.113281 77.761719 111.992188 74.621094 Z M 94.3125 71.085938 " fill-opacity="1" fill-rule="nonzero"/><g clip-path="url(#d476faa505)"><g clip-path="url(#ea313521f1)"><g transform="matrix(1, 0, 0, 1, 37, 51)"><g clip-path="url(#a27b10529b)"><g clip-path="url(#ccd0731120)"><g clip-path="url(#dc8d8f9eec)"><rect x="-63.4" width="172.8" fill="#f69d1f" height="172.799998" y="-77.4" fill-opacity="1"/></g></g></g></g></g></g></svg>