<svg xmlns="http://www.w3.org/2000/svg" xmlns:xlink="http://www.w3.org/1999/xlink" width="128" zoomAndPan="magnify" viewBox="0 0 96 95.999999" height="128" preserveAspectRatio="xMidYMid meet" version="1.0"><defs><clipPath id="f10dffa87c"><path d="M 38 19 L 80.984375 19 L 80.984375 77 L 38 77 Z M 38 19 " clip-rule="nonzero"/></clipPath></defs><path fill="#064088" d="M 57.964844 64.539062 C 63.070312 61.726562 67.640625 58.171875 71.570312 54.042969 C 66.707031 58.34375 61.011719 61.800781 54.667969 64.132812 C 52.339844 64.988281 49.925781 65.695312 47.429688 66.234375 C 46.6875 66.394531 45.945312 66.539062 45.203125 66.667969 C 46.007812 67.46875 46.863281 68.21875 47.757812 68.914062 C 51.351562 67.78125 54.761719 66.304688 57.964844 64.539062 " fill-opacity="1" fill-rule="nonzero"/><path fill="#064088" d="M 24.261719 59.644531 C 27.75 59.964844 31.308594 60.007812 34.910156 59.753906 C 36.464844 62.636719 38.539062 65.160156 40.988281 67.222656 C 36.707031 67.621094 32.472656 67.496094 28.351562 66.894531 C 26.667969 64.683594 25.289062 62.246094 24.261719 59.644531 Z M 22.332031 45.25 C 25.40625 45.976562 28.574219 46.460938 31.8125 46.691406 C 31.761719 48.484375 31.898438 50.3125 32.234375 52.152344 C 32.457031 53.339844 32.753906 54.496094 33.125 55.613281 C 29.558594 55.40625 26.0625 54.898438 22.664062 54.109375 C 22.128906 51.25 21.996094 48.273438 22.332031 45.25 Z M 26.71875 32.539062 C 27.90625 32.929688 29.117188 33.273438 30.347656 33.570312 C 31.960938 33.960938 33.609375 34.273438 35.285156 34.496094 C 33.800781 37.058594 32.75 39.882812 32.214844 42.851562 C 31.921875 42.800781 31.632812 42.742188 31.339844 42.6875 C 28.5625 42.160156 25.855469 41.429688 23.234375 40.511719 C 24.019531 37.644531 25.203125 34.96875 26.71875 32.539062 Z M 47.617188 78.425781 C 41.902344 77.507812 36.824219 75.042969 32.730469 71.535156 C 35.996094 71.410156 39.289062 71 42.59375 70.289062 C 43.28125 70.140625 43.964844 69.976562 44.640625 69.804688 C 47.265625 71.335938 50.164062 72.414062 53.214844 72.945312 C 44.5625 69.472656 37.789062 61.859375 35.78125 52.097656 C 35.742188 51.90625 35.699219 51.714844 35.664062 51.519531 C 33.8125 41.476562 37.433594 31.695312 44.410156 25.238281 C 41.515625 26.96875 39.015625 29.238281 37.023438 31.882812 C 34.851562 31.425781 32.746094 30.820312 30.710938 30.074219 C 30.125 29.859375 29.542969 29.632812 28.96875 29.394531 C 29.75 28.441406 30.589844 27.535156 31.476562 26.6875 C 38.089844 20.355469 47.488281 17.085938 57.230469 18.652344 C 62.527344 19.503906 67.277344 21.683594 71.203125 24.796875 C 66.710938 20.554688 60.941406 17.570312 54.378906 16.511719 C 47.292969 15.375 40.378906 16.660156 34.480469 19.757812 C 25.882812 24.273438 19.445312 32.640625 17.785156 42.96875 C 14.984375 60.378906 26.828125 76.761719 44.238281 79.5625 C 50.800781 80.617188 57.214844 79.59375 62.8125 76.972656 C 58.109375 78.695312 52.914062 79.277344 47.617188 78.425781 " fill-opacity="1" fill-rule="nonzero"/><g clip-path="url(#f10dffa87c)"><path fill="#3b9fef" d="M 52.609375 19.957031 C 47.382812 19.957031 42.488281 21.367188 38.28125 23.832031 C 41.558594 22.398438 45.183594 21.597656 48.992188 21.597656 C 63.765625 21.597656 75.746094 33.578125 75.746094 48.351562 C 75.746094 53.382812 74.355469 58.085938 71.941406 62.105469 C 67.265625 69.894531 58.738281 75.109375 48.992188 75.109375 C 45.183594 75.109375 41.558594 74.308594 38.28125 72.875 C 42.488281 75.339844 47.382812 76.75 52.609375 76.75 C 65.195312 76.75 75.867188 68.5625 79.59375 57.222656 C 80.507812 54.429688 81.007812 51.449219 81.007812 48.351562 C 81.007812 32.667969 68.292969 19.957031 52.609375 19.957031 " fill-opacity="1" fill-rule="nonzero"/></g><path fill="#064088" d="M 50.003906 45.199219 C 57.28125 43.453125 64.03125 40.375 69.992188 36.234375 C 64.0625 39.636719 57.453125 41.992188 50.414062 43.054688 C 50.230469 43.753906 50.089844 44.46875 50.003906 45.199219 " fill-opacity="1" fill-rule="nonzero"/><path fill="#064088" d="M 38.777344 55.683594 C 38.621094 55.6875 38.464844 55.691406 38.308594 55.695312 C 38.730469 56.917969 39.230469 58.097656 39.796875 59.226562 C 40.660156 59.101562 41.515625 58.960938 42.363281 58.804688 C 44.964844 58.324219 47.507812 57.691406 49.980469 56.921875 C 52.078125 59.320312 54.957031 60.960938 58.132812 61.519531 C 53.34375 59.597656 49.613281 55.335938 48.609375 49.886719 C 47.601562 44.4375 49.566406 39.128906 53.355469 35.621094 C 50.394531 37.390625 48.199219 40.195312 47.167969 43.449219 C 45.632812 43.589844 44.082031 43.671875 42.515625 43.6875 C 40.609375 43.707031 38.730469 43.628906 36.871094 43.460938 C 36.761719 44.574219 36.710938 45.699219 36.734375 46.839844 C 40.105469 46.800781 43.410156 46.480469 46.625 45.902344 C 46.445312 47.308594 46.476562 48.765625 46.746094 50.230469 C 47.042969 51.824219 47.59375 53.304688 48.355469 54.636719 C 47 54.890625 45.625 55.101562 44.238281 55.269531 C 42.40625 55.488281 40.585938 55.625 38.777344 55.683594 " fill-opacity="1" fill-rule="nonzero"/><path fill="#064088" d="M 42.367188 32.679688 C 41.675781 32.617188 40.988281 32.539062 40.308594 32.449219 C 39.875 33.234375 39.480469 34.035156 39.121094 34.859375 C 48.433594 35.359375 57.304688 33.152344 64.9375 28.898438 C 58.085938 31.972656 50.378906 33.394531 42.367188 32.679688 " fill-opacity="1" fill-rule="nonzero"/><path fill="#064088" d="M 51.503906 53.960938 C 51.859375 54.679688 52.265625 55.363281 52.71875 56.007812 C 60.488281 53.210938 67.523438 49.015625 73.5625 43.757812 C 67.089844 48.476562 59.644531 52 51.503906 53.960938 " fill-opacity="1" fill-rule="nonzero"/></svg>