<svg xmlns="http://www.w3.org/2000/svg" xmlns:xlink="http://www.w3.org/1999/xlink" width="128" zoomAndPan="magnify" viewBox="0 0 96 95.999999" height="128" preserveAspectRatio="xMidYMid meet" version="1.0"><defs><clipPath id="ff9eebc9f0"><path d="M 9.207031 29 L 86.457031 29 L 86.457031 77.359375 L 9.207031 77.359375 Z M 9.207031 29 " clip-rule="nonzero"/></clipPath><clipPath id="f4055909fa"><path d="M 54 18.859375 L 71 18.859375 L 71 23 L 54 23 Z M 54 18.859375 " clip-rule="nonzero"/></clipPath></defs><g clip-path="url(#ff9eebc9f0)"><path fill="#064088" d="M 42.480469 53.105469 C 42.480469 41.953125 51.554688 32.875 62.710938 32.875 C 73.867188 32.875 82.945312 41.953125 82.945312 53.105469 C 82.945312 64.261719 73.867188 73.339844 62.710938 73.339844 C 51.554688 73.339844 42.480469 64.261719 42.480469 53.105469 Z M 44.242188 68.457031 L 34.703125 68.449219 C 34.15625 68.449219 33.714844 68.890625 33.714844 69.4375 C 33.714844 69.984375 34.15625 70.425781 34.703125 70.429688 L 46.089844 70.441406 C 50.40625 74.585938 56.265625 77.136719 62.710938 77.136719 C 75.960938 77.136719 86.742188 66.355469 86.742188 53.105469 C 86.742188 39.855469 75.960938 29.074219 62.710938 29.074219 C 56.300781 29.074219 50.46875 31.597656 46.15625 35.703125 L 34.816406 35.703125 C 34.269531 35.703125 33.824219 36.148438 33.824219 36.695312 C 33.824219 37.242188 34.269531 37.683594 34.816406 37.683594 L 44.300781 37.683594 C 40.796875 41.859375 38.683594 47.238281 38.683594 53.105469 C 38.683594 53.617188 38.703125 54.125 38.734375 54.628906 L 28.582031 54.628906 C 28.035156 54.628906 27.59375 55.074219 27.59375 55.621094 C 27.59375 56.164062 28.035156 56.609375 28.582031 56.609375 L 38.9375 56.609375 C 39.59375 61.074219 41.480469 65.140625 44.242188 68.457031 Z M 20.847656 68.960938 L 12.496094 68.960938 C 11.949219 68.960938 11.507812 69.402344 11.507812 69.949219 C 11.507812 70.496094 11.949219 70.9375 12.496094 70.9375 L 20.847656 70.9375 C 21.394531 70.9375 21.835938 70.496094 21.835938 69.949219 C 21.835938 69.402344 21.394531 68.960938 20.847656 68.960938 Z M 30.507812 62.335938 C 31.050781 62.335938 31.496094 62.78125 31.496094 63.324219 C 31.496094 63.871094 31.050781 64.316406 30.507812 64.316406 L 22.152344 64.316406 C 21.609375 64.316406 21.164062 63.871094 21.164062 63.324219 C 21.164062 62.78125 21.609375 62.335938 22.152344 62.335938 Z M 18.578125 56.085938 L 10.226562 56.085938 C 9.679688 56.085938 9.238281 56.527344 9.238281 57.074219 C 9.238281 57.621094 9.679688 58.0625 10.226562 58.0625 L 18.578125 58.0625 C 19.125 58.0625 19.566406 57.621094 19.566406 57.074219 C 19.566406 56.527344 19.125 56.085938 18.578125 56.085938 Z M 23.617188 48.371094 L 15.265625 48.371094 C 14.71875 48.371094 14.273438 48.816406 14.273438 49.363281 C 14.273438 49.90625 14.71875 50.351562 15.265625 50.351562 L 23.617188 50.351562 C 24.164062 50.351562 24.605469 49.90625 24.605469 49.363281 C 24.605469 48.816406 24.164062 48.371094 23.617188 48.371094 Z M 31.566406 40.972656 C 32.113281 40.972656 32.554688 41.414062 32.554688 41.960938 C 32.554688 42.507812 32.113281 42.949219 31.566406 42.949219 L 23.214844 42.949219 C 22.667969 42.949219 22.226562 42.507812 22.226562 41.960938 C 22.226562 41.414062 22.667969 40.972656 23.214844 40.972656 Z M 24.21875 35.273438 L 15.867188 35.273438 C 15.320312 35.273438 14.878906 35.71875 14.878906 36.261719 C 14.878906 36.8125 15.320312 37.253906 15.867188 37.253906 L 24.21875 37.253906 C 24.765625 37.253906 25.210938 36.8125 25.210938 36.261719 C 25.210938 35.71875 24.765625 35.273438 24.21875 35.273438 Z M 24.21875 35.273438 " fill-opacity="1" fill-rule="evenodd"/></g><path fill="#3b9fef" d="M 52.746094 37.820312 C 50.628906 39.207031 48.8125 41.019531 47.429688 43.140625 L 48.089844 43.523438 C 48.566406 43.796875 48.726562 44.402344 48.453125 44.875 C 48.179688 45.351562 47.570312 45.507812 47.101562 45.238281 L 46.4375 44.851562 C 45.316406 47.054688 44.628906 49.515625 44.488281 52.117188 L 45.257812 52.117188 C 45.804688 52.117188 46.246094 52.5625 46.246094 53.105469 C 46.246094 53.652344 45.804688 54.097656 45.257812 54.097656 L 44.488281 54.097656 C 44.628906 56.699219 45.316406 59.160156 46.4375 61.363281 L 47.101562 60.976562 C 47.574219 60.703125 48.179688 60.867188 48.453125 61.339844 C 48.726562 61.8125 48.566406 62.417969 48.089844 62.691406 L 47.429688 63.074219 C 48.8125 65.191406 50.628906 67.003906 52.746094 68.390625 L 53.128906 67.726562 C 53.402344 67.253906 54.007812 67.089844 54.480469 67.363281 C 54.953125 67.636719 55.113281 68.242188 54.84375 68.71875 L 54.457031 69.382812 C 56.660156 70.503906 59.121094 71.191406 61.722656 71.332031 L 61.722656 70.5625 C 61.722656 70.011719 62.167969 69.570312 62.714844 69.570312 C 63.257812 69.570312 63.703125 70.015625 63.703125 70.5625 L 63.703125 71.332031 C 66.304688 71.191406 68.765625 70.507812 70.96875 69.382812 L 70.585938 68.71875 C 70.3125 68.242188 70.472656 67.636719 70.949219 67.363281 C 71.421875 67.089844 72.027344 67.253906 72.300781 67.726562 L 72.683594 68.390625 C 74.800781 67.003906 76.613281 65.191406 78 63.074219 L 77.335938 62.691406 C 76.863281 62.417969 76.699219 61.8125 76.972656 61.339844 C 77.246094 60.867188 77.851562 60.703125 78.324219 60.976562 L 78.992188 61.363281 C 80.113281 59.160156 80.800781 56.699219 80.941406 54.097656 L 80.167969 54.097656 C 79.625 54.097656 79.179688 53.652344 79.179688 53.105469 C 79.179688 52.5625 79.625 52.117188 80.167969 52.117188 L 80.941406 52.117188 C 80.800781 49.515625 80.113281 47.054688 78.992188 44.851562 L 78.324219 45.238281 C 77.855469 45.507812 77.25 45.351562 76.972656 44.875 C 76.699219 44.402344 76.863281 43.796875 77.335938 43.523438 L 78 43.140625 C 76.613281 41.023438 74.800781 39.207031 72.683594 37.820312 L 72.300781 38.484375 C 72.117188 38.800781 71.785156 38.980469 71.441406 38.980469 C 70.691406 38.980469 70.203125 38.160156 70.585938 37.496094 L 70.96875 36.828125 C 68.765625 35.707031 66.308594 35.019531 63.703125 34.878906 L 63.703125 35.652344 C 63.703125 36.199219 63.261719 36.640625 62.714844 36.640625 C 62.167969 36.640625 61.726562 36.199219 61.726562 35.652344 L 61.726562 34.878906 C 59.125 35.019531 56.664062 35.707031 54.460938 36.828125 L 54.84375 37.496094 C 55.117188 37.96875 54.953125 38.574219 54.480469 38.847656 C 54.011719 39.117188 53.40625 38.960938 53.132812 38.484375 Z M 58.464844 53.105469 C 58.464844 51.105469 59.855469 49.425781 61.722656 48.976562 L 61.722656 39.414062 C 61.722656 38.867188 62.167969 38.425781 62.710938 38.425781 C 63.257812 38.425781 63.703125 38.867188 63.703125 39.414062 L 63.703125 48.976562 C 65.25 49.347656 66.46875 50.570312 66.839844 52.117188 L 72.769531 52.117188 C 73.3125 52.117188 73.757812 52.5625 73.757812 53.105469 C 73.757812 53.652344 73.3125 54.097656 72.769531 54.097656 L 66.839844 54.097656 C 66.394531 55.964844 64.710938 57.351562 62.710938 57.351562 C 60.371094 57.351562 58.464844 55.449219 58.464844 53.105469 Z M 58.464844 53.105469 " fill-opacity="1" fill-rule="evenodd"/><path fill="#064088" d="M 62.710938 50.839844 C 61.460938 50.839844 60.441406 51.855469 60.441406 53.105469 C 60.441406 54.359375 61.460938 55.375 62.710938 55.375 C 63.964844 55.375 64.980469 54.359375 64.980469 53.105469 C 64.980469 51.855469 63.964844 50.839844 62.710938 50.839844 Z M 62.710938 50.839844 " fill-opacity="1" fill-rule="evenodd"/><g clip-path="url(#f4055909fa)"><path fill="#064088" d="M 56.738281 22.734375 L 68.6875 22.734375 C 69.757812 22.734375 70.625 21.863281 70.625 20.792969 C 70.625 19.722656 69.753906 18.855469 68.6875 18.855469 L 56.738281 18.855469 C 55.667969 18.855469 54.796875 19.722656 54.796875 20.792969 C 54.796875 21.863281 55.667969 22.734375 56.738281 22.734375 Z M 56.738281 22.734375 " fill-opacity="1" fill-rule="evenodd"/></g><path fill="#064088" d="M 66.648438 24.710938 L 58.773438 24.710938 L 58.773438 27.394531 C 61.375 26.996094 64.046875 26.996094 66.648438 27.394531 Z M 66.648438 24.710938 " fill-opacity="1" fill-rule="evenodd"/></svg>