<svg xmlns="http://www.w3.org/2000/svg" xmlns:xlink="http://www.w3.org/1999/xlink" width="80" zoomAndPan="magnify" viewBox="0 0 60 60" height="80" preserveAspectRatio="xMidYMid meet" version="1.0"><defs><filter x="0%" y="0%" width="100%" height="100%" id="6c14582dba"><feColorMatrix values="0 0 0 0 1 0 0 0 0 1 0 0 0 0 1 0 0 0 1 0" color-interpolation-filters="sRGB"/></filter><clipPath id="032bd17d93"><path d="M 9.050781 9.875 L 9.527344 9.875 L 9.527344 10.316406 L 9.050781 10.316406 Z M 9.050781 9.875 " clip-rule="nonzero"/></clipPath><clipPath id="986ccd7d5d"><path d="M 9.5 10.199219 C 8.601562 10.5 9.398438 9.898438 9.398438 9.898438 " clip-rule="nonzero"/></clipPath><mask id="ccfcf58280"><g filter="url(#6c14582dba)"><rect x="-6" width="72" fill="#000000" y="-6" height="72" fill-opacity="0.01"/></g></mask><clipPath id="b965f8232f"><path d="M 0.0507812 0.875 L 0.527344 0.875 L 0.527344 1.316406 L 0.0507812 1.316406 Z M 0.0507812 0.875 " clip-rule="nonzero"/></clipPath><clipPath id="c6e9944566"><path d="M 0.5 1.199219 C -0.398438 1.5 0.398438 0.898438 0.398438 0.898438 " clip-rule="nonzero"/></clipPath><clipPath id="7b799ac6d8"><rect x="0" width="1" y="0" height="2"/></clipPath><clipPath id="952f6738de"><path d="M 1.503906 3 L 58.503906 3 L 58.503906 45 L 1.503906 45 Z M 1.503906 3 " clip-rule="nonzero"/></clipPath><clipPath id="d3d663653d"><path d="M 24.292969 3.5625 L 26.40625 3.5625 L 26.40625 5.425781 L 24.292969 5.425781 Z M 24.292969 3.5625 " clip-rule="nonzero"/></clipPath><clipPath id="e1e487074c"><path d="M 26.398438 4.273438 C 25.5 5.773438 24.601562 5.476562 24.375 5.175781 C 24.226562 4.875 24.375 3.898438 24.675781 3.675781 C 24.976562 3.449219 26.175781 3.75 26.175781 3.75 " clip-rule="nonzero"/></clipPath><clipPath id="96e9f018e8"><path d="M 0.292969 0.5625 L 2.398438 0.5625 L 2.398438 2.425781 L 0.292969 2.425781 Z M 0.292969 0.5625 " clip-rule="nonzero"/></clipPath><clipPath id="f7edd78a5a"><path d="M 2.398438 1.273438 C 1.5 2.773438 0.601562 2.476562 0.375 2.175781 C 0.226562 1.875 0.375 0.898438 0.675781 0.675781 C 0.976562 0.449219 2.175781 0.75 2.175781 0.75 " clip-rule="nonzero"/></clipPath><clipPath id="73d7d8f92d"><rect x="0" width="3" y="0" height="3"/></clipPath></defs><g clip-path="url(#032bd17d93)"><g clip-path="url(#986ccd7d5d)"><g mask="url(#ccfcf58280)"><g transform="matrix(1, 0, 0, 1, 9, 9)"><g clip-path="url(#7b799ac6d8)"><g clip-path="url(#b965f8232f)"><g clip-path="url(#c6e9944566)"><rect x="-22.2" width="86.4" fill="#ffffff" height="86.4" y="-22.2" fill-opacity="1"/></g></g></g></g></g></g></g><path fill="#6b1e2f" d="M 22.003906 24.882812 C 22.003906 23.179688 22.300781 18.074219 22.300781 18.074219 C 22.308594 17.886719 22.46875 17.746094 22.660156 17.765625 C 22.824219 17.78125 22.945312 17.921875 22.949219 18.085938 L 23.214844 24.148438 C 23.234375 24.527344 23.523438 24.855469 23.90625 24.882812 C 24.328125 24.910156 24.683594 24.589844 24.703125 24.171875 L 24.96875 18.082031 C 24.976562 17.914062 25.105469 17.773438 25.273438 17.761719 C 25.285156 17.761719 25.292969 17.761719 25.300781 17.761719 C 25.3125 17.761719 25.320312 17.761719 25.332031 17.761719 C 25.5 17.773438 25.628906 17.914062 25.636719 18.082031 L 25.902344 24.171875 C 25.921875 24.589844 26.277344 24.910156 26.699219 24.882812 C 27.082031 24.855469 27.371094 24.527344 27.390625 24.148438 L 27.65625 18.085938 C 27.660156 17.921875 27.78125 17.78125 27.945312 17.765625 C 28.136719 17.746094 28.296875 17.886719 28.304688 18.074219 C 28.304688 18.074219 28.601562 23.179688 28.601562 24.882812 C 28.601562 28.039062 26.289062 31.125 26.289062 31.972656 L 26.289062 36.644531 C 26.859375 36.644531 27.320312 37.105469 27.320312 37.671875 L 27.320312 49.269531 C 27.320312 50.382812 26.417969 51.285156 25.300781 51.285156 C 24.1875 51.285156 23.285156 50.382812 23.285156 49.269531 L 23.285156 37.671875 C 23.285156 37.105469 23.746094 36.644531 24.316406 36.644531 L 24.316406 31.972656 C 24.316406 31.125 22.003906 28.039062 22.003906 24.882812 " fill-opacity="1" fill-rule="nonzero"/><path fill="#6b1e2f" d="M 33.011719 36.644531 L 33.011719 31.972656 C 33.011719 31.125 30.011719 28.949219 30.011719 25.796875 C 30.011719 21.683594 32.3125 18.074219 34 18.074219 C 35.6875 18.074219 37.988281 21.683594 37.988281 25.796875 C 37.988281 28.949219 34.992188 31.121094 34.988281 31.96875 L 34.988281 36.644531 C 35.554688 36.644531 36.015625 37.105469 36.015625 37.671875 L 36.015625 49.269531 C 36.015625 50.382812 35.113281 51.285156 34 51.285156 C 32.886719 51.285156 31.984375 50.382812 31.984375 49.269531 L 31.984375 37.671875 C 31.984375 37.105469 32.445312 36.644531 33.011719 36.644531 " fill-opacity="1" fill-rule="nonzero"/><path fill="#6b1e2f" d="M 49.921875 21.273438 C 49.921875 21.273438 49.90625 21.101562 49.890625 20.925781 C 49.882812 20.839844 49.875 20.75 49.867188 20.6875 C 49.859375 20.621094 49.855469 20.578125 49.855469 20.578125 C 49.855469 20.578125 49.84375 20.613281 49.820312 20.664062 C 49.800781 20.714844 49.769531 20.785156 49.742188 20.855469 C 49.683594 20.996094 49.625 21.132812 49.625 21.132812 C 49.488281 21.214844 49.292969 21.351562 49.097656 21.539062 C 48.902344 21.730469 48.710938 21.96875 48.582031 22.257812 C 48.519531 22.398438 48.46875 22.554688 48.441406 22.722656 C 48.429688 22.804688 48.421875 22.890625 48.417969 22.976562 C 48.417969 23.023438 48.417969 23.066406 48.421875 23.113281 C 48.425781 23.160156 48.425781 23.207031 48.433594 23.253906 C 48.453125 23.441406 48.511719 23.640625 48.59375 23.859375 C 48.636719 23.964844 48.691406 24.074219 48.75 24.191406 C 48.8125 24.308594 48.882812 24.425781 48.964844 24.550781 C 49.46875 24.519531 49.816406 24.363281 50.042969 24.117188 C 50.15625 23.996094 50.242188 23.851562 50.296875 23.695312 C 50.351562 23.539062 50.382812 23.363281 50.390625 23.183594 C 50.410156 22.828125 50.34375 22.445312 50.242188 22.105469 C 50.21875 22.019531 50.195312 21.9375 50.164062 21.859375 C 50.136719 21.78125 50.109375 21.707031 50.082031 21.632812 C 50.023438 21.492188 49.96875 21.371094 49.921875 21.273438 " fill-opacity="1" fill-rule="nonzero"/><path fill="#6b1e2f" d="M 50.132812 26.929688 C 50.648438 26.96875 51.027344 26.859375 51.292969 26.644531 C 51.554688 26.429688 51.710938 26.109375 51.777344 25.746094 C 51.796875 25.65625 51.808594 25.566406 51.816406 25.472656 C 51.824219 25.378906 51.824219 25.28125 51.824219 25.1875 C 51.824219 24.996094 51.808594 24.808594 51.78125 24.628906 C 51.730469 24.265625 51.640625 23.949219 51.574219 23.738281 C 51.574219 23.738281 51.578125 23.691406 51.578125 23.625 C 51.582031 23.558594 51.585938 23.46875 51.589844 23.378906 C 51.597656 23.199219 51.605469 23.019531 51.605469 23.019531 C 51.605469 23.019531 51.527344 23.152344 51.449219 23.285156 C 51.371094 23.417969 51.289062 23.550781 51.289062 23.550781 C 51.140625 23.617188 50.921875 23.726562 50.699219 23.890625 C 50.472656 24.054688 50.246094 24.273438 50.074219 24.542969 C 49.988281 24.679688 49.914062 24.832031 49.863281 24.996094 C 49.839844 25.078125 49.816406 25.164062 49.804688 25.253906 C 49.789062 25.34375 49.78125 25.4375 49.777344 25.535156 C 49.777344 25.632812 49.78125 25.734375 49.792969 25.839844 C 49.804688 25.949219 49.828125 26.058594 49.855469 26.171875 C 49.886719 26.289062 49.921875 26.410156 49.964844 26.535156 C 49.988281 26.597656 50.015625 26.664062 50.042969 26.726562 C 50.070312 26.792969 50.097656 26.863281 50.132812 26.929688 " fill-opacity="1" fill-rule="nonzero"/><path fill="#6b1e2f" d="M 52.898438 26.484375 C 52.898438 26.484375 52.90625 26.4375 52.921875 26.371094 C 52.933594 26.304688 52.953125 26.210938 52.972656 26.121094 C 53.003906 25.941406 53.035156 25.757812 53.035156 25.757812 C 53.035156 25.757812 52.9375 25.882812 52.839844 26.007812 C 52.738281 26.128906 52.640625 26.253906 52.640625 26.253906 C 52.480469 26.296875 52.242188 26.378906 51.992188 26.511719 C 51.738281 26.648438 51.476562 26.835938 51.261719 27.089844 C 51.152344 27.214844 51.058594 27.355469 50.984375 27.515625 C 50.90625 27.675781 50.851562 27.855469 50.820312 28.050781 C 50.753906 28.449219 50.796875 28.921875 50.976562 29.519531 C 51.5 29.628906 51.894531 29.574219 52.195312 29.394531 C 52.5 29.210938 52.695312 28.910156 52.820312 28.550781 C 52.878906 28.375 52.921875 28.183594 52.949219 27.988281 C 52.976562 27.796875 52.984375 27.601562 52.984375 27.417969 C 52.980469 27.042969 52.941406 26.707031 52.898438 26.484375 " fill-opacity="1" fill-rule="nonzero"/><path fill="#6b1e2f" d="M 51.46875 32.265625 C 51.984375 32.453125 52.398438 32.457031 52.726562 32.3125 C 52.890625 32.242188 53.035156 32.136719 53.160156 32.007812 C 53.222656 31.941406 53.277344 31.871094 53.332031 31.792969 C 53.386719 31.714844 53.433594 31.632812 53.476562 31.546875 C 53.652344 31.203125 53.753906 30.796875 53.804688 30.421875 C 53.816406 30.328125 53.828125 30.234375 53.835938 30.144531 C 53.839844 30.101562 53.84375 30.054688 53.847656 30.011719 C 53.847656 29.96875 53.851562 29.929688 53.851562 29.886719 C 53.855469 29.722656 53.855469 29.578125 53.851562 29.464844 C 53.851562 29.464844 53.867188 29.417969 53.890625 29.351562 C 53.914062 29.285156 53.945312 29.195312 53.976562 29.109375 C 54.003906 29.019531 54.035156 28.929688 54.058594 28.859375 C 54.082031 28.792969 54.09375 28.75 54.09375 28.75 C 54.09375 28.75 54.066406 28.777344 54.023438 28.820312 C 53.976562 28.859375 53.917969 28.917969 53.859375 28.972656 C 53.742188 29.082031 53.621094 29.195312 53.621094 29.195312 C 53.453125 29.214844 53.199219 29.261719 52.925781 29.363281 C 52.648438 29.464844 52.355469 29.617188 52.105469 29.84375 C 51.976562 29.957031 51.859375 30.085938 51.761719 30.238281 C 51.710938 30.3125 51.667969 30.394531 51.625 30.480469 C 51.582031 30.566406 51.546875 30.660156 51.515625 30.757812 C 51.398438 31.148438 51.367188 31.636719 51.46875 32.265625 " fill-opacity="1" fill-rule="nonzero"/><path fill="#6b1e2f" d="M 51.582031 35.128906 C 52.078125 35.390625 52.496094 35.449219 52.851562 35.351562 C 53.203125 35.257812 53.496094 35.007812 53.71875 34.683594 C 53.773438 34.601562 53.828125 34.515625 53.878906 34.425781 C 53.925781 34.339844 53.96875 34.246094 54.011719 34.152344 C 54.050781 34.058594 54.089844 33.964844 54.121094 33.871094 C 54.15625 33.777344 54.183594 33.679688 54.210938 33.585938 C 54.238281 33.492188 54.261719 33.398438 54.28125 33.3125 C 54.300781 33.222656 54.320312 33.132812 54.332031 33.050781 C 54.363281 32.886719 54.382812 32.742188 54.394531 32.621094 C 54.394531 32.621094 54.480469 32.453125 54.570312 32.28125 C 54.613281 32.195312 54.65625 32.105469 54.6875 32.042969 C 54.71875 31.976562 54.742188 31.933594 54.742188 31.933594 C 54.742188 31.933594 54.605469 32.03125 54.472656 32.128906 C 54.40625 32.175781 54.335938 32.222656 54.285156 32.257812 C 54.234375 32.292969 54.199219 32.316406 54.199219 32.316406 C 54.023438 32.316406 53.761719 32.328125 53.46875 32.390625 C 53.175781 32.457031 52.855469 32.570312 52.566406 32.761719 C 52.496094 32.808594 52.425781 32.863281 52.359375 32.921875 C 52.289062 32.980469 52.222656 33.042969 52.164062 33.113281 C 52.101562 33.183594 52.042969 33.257812 51.992188 33.339844 C 51.964844 33.382812 51.9375 33.421875 51.914062 33.46875 C 51.890625 33.511719 51.867188 33.558594 51.84375 33.605469 C 51.796875 33.699219 51.757812 33.804688 51.726562 33.914062 C 51.695312 34.023438 51.664062 34.140625 51.640625 34.265625 C 51.628906 34.328125 51.621094 34.394531 51.613281 34.460938 C 51.605469 34.527344 51.597656 34.597656 51.59375 34.667969 C 51.582031 34.8125 51.582031 34.964844 51.582031 35.128906 " fill-opacity="1" fill-rule="nonzero"/><path fill="#6b1e2f" d="M 54.496094 35.902344 C 54.496094 35.902344 54.613281 35.746094 54.726562 35.582031 C 54.835938 35.417969 54.945312 35.253906 54.945312 35.253906 C 54.945312 35.253906 54.796875 35.335938 54.644531 35.414062 C 54.496094 35.492188 54.34375 35.566406 54.34375 35.566406 C 54.167969 35.542969 53.898438 35.519531 53.59375 35.539062 C 53.289062 35.5625 52.945312 35.632812 52.625 35.789062 C 52.464844 35.867188 52.3125 35.964844 52.167969 36.089844 C 52.023438 36.214844 51.890625 36.363281 51.773438 36.542969 C 51.539062 36.90625 51.375 37.386719 51.300781 38.054688 C 51.761719 38.386719 52.179688 38.503906 52.550781 38.453125 C 52.738281 38.429688 52.914062 38.367188 53.078125 38.269531 C 53.238281 38.171875 53.390625 38.042969 53.527344 37.894531 C 53.800781 37.601562 54.019531 37.21875 54.179688 36.855469 C 54.199219 36.808594 54.21875 36.765625 54.238281 36.71875 C 54.253906 36.675781 54.273438 36.628906 54.289062 36.585938 C 54.320312 36.496094 54.351562 36.410156 54.375 36.332031 C 54.429688 36.167969 54.46875 36.023438 54.496094 35.902344 " fill-opacity="1" fill-rule="nonzero"/><path fill="#6b1e2f" d="M 50.601562 40.980469 C 51.027344 41.382812 51.429688 41.558594 51.816406 41.5625 C 52.007812 41.5625 52.199219 41.523438 52.375 41.445312 C 52.550781 41.371094 52.722656 41.261719 52.882812 41.132812 C 53.042969 41 53.1875 40.84375 53.324219 40.679688 C 53.460938 40.515625 53.578125 40.339844 53.6875 40.167969 C 53.792969 39.992188 53.882812 39.820312 53.960938 39.664062 C 54.039062 39.507812 54.097656 39.363281 54.144531 39.25 C 54.144531 39.25 54.179688 39.210938 54.230469 39.15625 C 54.257812 39.128906 54.285156 39.097656 54.320312 39.0625 C 54.351562 39.027344 54.382812 38.992188 54.417969 38.953125 C 54.554688 38.804688 54.6875 38.652344 54.6875 38.652344 C 54.6875 38.652344 54.523438 38.710938 54.359375 38.769531 C 54.199219 38.828125 54.035156 38.886719 54.035156 38.886719 C 53.859375 38.835938 53.585938 38.773438 53.273438 38.753906 C 53.121094 38.746094 52.953125 38.746094 52.78125 38.761719 C 52.609375 38.78125 52.433594 38.816406 52.261719 38.871094 C 52.089844 38.925781 51.917969 39.003906 51.757812 39.109375 C 51.59375 39.214844 51.4375 39.347656 51.296875 39.515625 C 51.003906 39.851562 50.773438 40.316406 50.601562 40.980469 " fill-opacity="1" fill-rule="nonzero"/><path fill="#6b1e2f" d="M 53.316406 42.589844 C 53.316406 42.589844 53.476562 42.464844 53.636719 42.332031 C 53.792969 42.199219 53.953125 42.0625 53.953125 42.0625 C 53.953125 42.0625 53.777344 42.101562 53.601562 42.136719 C 53.429688 42.175781 53.253906 42.210938 53.253906 42.210938 C 53.085938 42.132812 52.820312 42.03125 52.503906 41.96875 C 52.191406 41.90625 51.832031 41.882812 51.464844 41.945312 C 51.28125 41.980469 51.097656 42.035156 50.917969 42.121094 C 50.738281 42.203125 50.558594 42.316406 50.394531 42.464844 C 50.054688 42.761719 49.753906 43.203125 49.488281 43.851562 C 49.859375 44.320312 50.246094 44.554688 50.636719 44.609375 C 51.027344 44.667969 51.414062 44.542969 51.777344 44.324219 C 51.953125 44.210938 52.125 44.078125 52.289062 43.929688 C 52.445312 43.78125 52.59375 43.617188 52.726562 43.457031 C 52.859375 43.296875 52.972656 43.132812 53.074219 42.988281 C 53.171875 42.835938 53.253906 42.699219 53.316406 42.589844 " fill-opacity="1" fill-rule="nonzero"/><path fill="#6b1e2f" d="M 47.957031 46.605469 C 48.269531 47.132812 48.625 47.421875 49.011719 47.535156 C 49.109375 47.5625 49.207031 47.578125 49.304688 47.585938 C 49.40625 47.59375 49.503906 47.589844 49.605469 47.578125 C 49.804688 47.550781 50.007812 47.492188 50.207031 47.40625 C 50.402344 47.316406 50.597656 47.203125 50.777344 47.078125 C 50.960938 46.949219 51.132812 46.808594 51.289062 46.660156 C 51.445312 46.515625 51.585938 46.371094 51.707031 46.234375 C 51.828125 46.09375 51.929688 45.96875 52.007812 45.867188 C 52.007812 45.867188 52.054688 45.839844 52.121094 45.800781 C 52.1875 45.757812 52.277344 45.703125 52.367188 45.648438 C 52.546875 45.535156 52.726562 45.421875 52.726562 45.421875 C 52.726562 45.421875 52.542969 45.433594 52.363281 45.449219 C 52.179688 45.460938 52 45.472656 52 45.472656 C 51.835938 45.371094 51.582031 45.230469 51.273438 45.125 C 51.121094 45.070312 50.953125 45.023438 50.773438 44.992188 C 50.597656 44.960938 50.414062 44.949219 50.222656 44.953125 C 50.03125 44.960938 49.835938 44.992188 49.644531 45.054688 C 49.546875 45.082031 49.449219 45.121094 49.355469 45.167969 C 49.257812 45.210938 49.160156 45.265625 49.066406 45.332031 C 48.679688 45.585938 48.316406 45.988281 47.957031 46.605469 " fill-opacity="1" fill-rule="nonzero"/><path fill="#6b1e2f" d="M 50.21875 49.003906 C 50.21875 49.003906 50.234375 48.996094 50.253906 48.988281 C 50.277344 48.980469 50.308594 48.964844 50.34375 48.949219 C 50.417969 48.917969 50.515625 48.875 50.613281 48.832031 C 50.710938 48.785156 50.8125 48.742188 50.886719 48.710938 C 50.960938 48.675781 51.007812 48.652344 51.007812 48.652344 C 51.007812 48.652344 50.960938 48.652344 50.890625 48.644531 C 50.824219 48.640625 50.730469 48.636719 50.636719 48.628906 C 50.453125 48.617188 50.265625 48.601562 50.265625 48.601562 C 50.117188 48.476562 49.878906 48.300781 49.582031 48.148438 C 49.28125 47.996094 48.929688 47.867188 48.539062 47.832031 C 48.152344 47.789062 47.742188 47.84375 47.316406 48.046875 C 47.265625 48.074219 47.210938 48.101562 47.160156 48.132812 C 47.105469 48.160156 47.050781 48.195312 47 48.230469 C 46.890625 48.300781 46.785156 48.382812 46.675781 48.476562 C 46.566406 48.566406 46.457031 48.671875 46.347656 48.789062 C 46.296875 48.847656 46.238281 48.910156 46.183594 48.976562 C 46.128906 49.039062 46.070312 49.109375 46.015625 49.179688 C 46.136719 49.46875 46.277344 49.699219 46.433594 49.878906 C 46.59375 50.058594 46.769531 50.1875 46.957031 50.269531 C 47.144531 50.355469 47.34375 50.390625 47.550781 50.394531 C 47.652344 50.394531 47.757812 50.390625 47.863281 50.375 C 47.96875 50.359375 48.074219 50.335938 48.179688 50.304688 C 48.390625 50.242188 48.605469 50.160156 48.804688 50.054688 C 49.007812 49.949219 49.203125 49.832031 49.382812 49.707031 C 49.558594 49.582031 49.722656 49.453125 49.863281 49.332031 C 50.003906 49.207031 50.125 49.09375 50.21875 49.003906 " fill-opacity="1" fill-rule="nonzero"/><path fill="#6b1e2f" d="M 43.6875 51.515625 C 43.851562 52.132812 44.128906 52.53125 44.484375 52.75 C 44.660156 52.863281 44.855469 52.929688 45.066406 52.960938 C 45.171875 52.976562 45.277344 52.988281 45.386719 52.984375 C 45.496094 52.984375 45.609375 52.976562 45.71875 52.960938 C 45.832031 52.945312 45.941406 52.921875 46.054688 52.894531 C 46.167969 52.867188 46.277344 52.832031 46.386719 52.792969 C 46.496094 52.753906 46.605469 52.710938 46.710938 52.667969 C 46.820312 52.621094 46.921875 52.570312 47.019531 52.519531 C 47.21875 52.417969 47.402344 52.3125 47.5625 52.207031 C 47.722656 52.105469 47.859375 52.007812 47.96875 51.925781 C 47.96875 51.925781 48.179688 51.867188 48.390625 51.808594 C 48.496094 51.777344 48.601562 51.746094 48.683594 51.722656 C 48.761719 51.699219 48.8125 51.683594 48.8125 51.683594 C 48.8125 51.683594 48.765625 51.675781 48.699219 51.660156 C 48.628906 51.648438 48.535156 51.628906 48.441406 51.609375 C 48.257812 51.566406 48.070312 51.527344 48.070312 51.527344 C 47.9375 51.378906 47.722656 51.167969 47.441406 50.972656 C 47.160156 50.777344 46.820312 50.597656 46.433594 50.503906 C 46.242188 50.460938 46.039062 50.433594 45.828125 50.4375 C 45.71875 50.441406 45.613281 50.453125 45.503906 50.472656 C 45.394531 50.488281 45.28125 50.515625 45.167969 50.550781 C 45.050781 50.589844 44.9375 50.636719 44.820312 50.691406 C 44.699219 50.75 44.578125 50.816406 44.457031 50.894531 C 44.335938 50.976562 44.210938 51.0625 44.082031 51.167969 C 44.019531 51.21875 43.953125 51.273438 43.890625 51.332031 C 43.824219 51.390625 43.753906 51.449219 43.6875 51.515625 " fill-opacity="1" fill-rule="nonzero"/><path fill="#6b1e2f" d="M 45.3125 24.421875 C 45.3125 24.421875 45.175781 24.457031 45.039062 24.496094 C 44.96875 24.515625 44.902344 24.535156 44.851562 24.546875 C 44.800781 24.5625 44.765625 24.570312 44.765625 24.570312 C 44.765625 24.570312 44.800781 24.578125 44.851562 24.585938 C 44.90625 24.597656 44.972656 24.613281 45.042969 24.625 C 45.179688 24.65625 45.316406 24.683594 45.316406 24.683594 C 45.382812 24.734375 45.457031 24.796875 45.550781 24.863281 C 45.597656 24.898438 45.644531 24.933594 45.699219 24.96875 C 45.753906 25.003906 45.804688 25.042969 45.863281 25.078125 C 46.097656 25.226562 46.367188 25.375 46.664062 25.464844 C 46.808594 25.511719 46.960938 25.546875 47.117188 25.558594 C 47.277344 25.566406 47.429688 25.558594 47.589844 25.515625 C 47.910156 25.433594 48.230469 25.230469 48.515625 24.8125 C 48.449219 24.683594 48.378906 24.566406 48.308594 24.464844 C 48.234375 24.359375 48.15625 24.269531 48.078125 24.1875 C 47.925781 24.023438 47.761719 23.90625 47.601562 23.820312 C 47.5625 23.800781 47.519531 23.78125 47.480469 23.765625 C 47.4375 23.75 47.398438 23.738281 47.355469 23.722656 C 47.277344 23.699219 47.195312 23.683594 47.113281 23.675781 C 46.953125 23.65625 46.800781 23.664062 46.648438 23.691406 C 46.347656 23.75 46.070312 23.878906 45.84375 24.023438 C 45.613281 24.164062 45.429688 24.316406 45.3125 24.421875 " fill-opacity="1" fill-rule="nonzero"/><path fill="#6b1e2f" d="M 46.449219 26.273438 C 46.449219 26.273438 46.308594 26.292969 46.164062 26.308594 C 46.019531 26.328125 45.875 26.347656 45.875 26.347656 C 45.875 26.347656 46.011719 26.394531 46.148438 26.441406 C 46.214844 26.464844 46.285156 26.488281 46.335938 26.507812 C 46.386719 26.527344 46.421875 26.539062 46.421875 26.539062 C 46.53125 26.660156 46.707031 26.835938 46.917969 27.019531 C 47.027344 27.109375 47.144531 27.203125 47.269531 27.289062 C 47.332031 27.332031 47.402344 27.375 47.46875 27.414062 C 47.535156 27.453125 47.605469 27.492188 47.675781 27.527344 C 47.960938 27.660156 48.273438 27.75 48.609375 27.710938 C 48.945312 27.671875 49.300781 27.507812 49.652344 27.125 C 49.625 27.054688 49.601562 26.988281 49.574219 26.925781 C 49.546875 26.859375 49.519531 26.800781 49.488281 26.742188 C 49.429688 26.625 49.367188 26.519531 49.296875 26.425781 C 49.230469 26.335938 49.160156 26.25 49.089844 26.179688 C 49.015625 26.105469 48.941406 26.042969 48.863281 25.988281 C 48.785156 25.9375 48.707031 25.890625 48.628906 25.855469 C 48.550781 25.816406 48.46875 25.789062 48.390625 25.769531 C 48.230469 25.726562 48.070312 25.714844 47.914062 25.71875 C 47.601562 25.734375 47.300781 25.832031 47.046875 25.941406 C 46.792969 26.054688 46.585938 26.183594 46.449219 26.273438 " fill-opacity="1" fill-rule="nonzero"/><path fill="#6b1e2f" d="M 47.347656 28.316406 C 47.347656 28.316406 47.199219 28.316406 47.050781 28.3125 C 46.902344 28.3125 46.753906 28.3125 46.753906 28.3125 C 46.753906 28.3125 46.882812 28.378906 47.015625 28.445312 C 47.082031 28.480469 47.148438 28.515625 47.195312 28.539062 C 47.246094 28.566406 47.277344 28.585938 47.277344 28.585938 C 47.375 28.722656 47.523438 28.925781 47.714844 29.144531 C 47.808594 29.25 47.917969 29.363281 48.035156 29.46875 C 48.148438 29.574219 48.277344 29.679688 48.414062 29.765625 C 48.679688 29.949219 48.992188 30.078125 49.335938 30.089844 C 49.679688 30.097656 50.066406 29.984375 50.476562 29.644531 C 50.359375 29.046875 50.117188 28.636719 49.839844 28.375 C 49.695312 28.246094 49.542969 28.152344 49.390625 28.085938 C 49.234375 28.019531 49.070312 27.984375 48.910156 27.96875 C 48.589844 27.9375 48.277344 27.988281 48.003906 28.066406 C 47.726562 28.144531 47.496094 28.246094 47.347656 28.316406 " fill-opacity="1" fill-rule="nonzero"/><path fill="#6b1e2f" d="M 47.96875 30.53125 C 47.96875 30.53125 47.816406 30.507812 47.667969 30.480469 C 47.59375 30.472656 47.515625 30.460938 47.460938 30.453125 C 47.402344 30.445312 47.367188 30.4375 47.367188 30.4375 C 47.367188 30.4375 47.398438 30.460938 47.445312 30.492188 C 47.488281 30.523438 47.550781 30.570312 47.613281 30.613281 C 47.675781 30.65625 47.738281 30.703125 47.785156 30.734375 C 47.832031 30.769531 47.859375 30.792969 47.859375 30.792969 C 47.898438 30.867188 47.949219 30.964844 48.011719 31.070312 C 48.042969 31.125 48.074219 31.183594 48.109375 31.242188 C 48.144531 31.300781 48.183594 31.359375 48.226562 31.421875 C 48.390625 31.667969 48.59375 31.933594 48.84375 32.15625 C 48.90625 32.210938 48.972656 32.265625 49.039062 32.3125 C 49.105469 32.363281 49.175781 32.40625 49.25 32.445312 C 49.398438 32.527344 49.5625 32.585938 49.734375 32.613281 C 50.085938 32.671875 50.492188 32.609375 50.953125 32.324219 C 50.917969 31.699219 50.734375 31.25 50.488281 30.945312 C 50.425781 30.871094 50.359375 30.800781 50.289062 30.742188 C 50.222656 30.683594 50.148438 30.628906 50.074219 30.585938 C 49.921875 30.496094 49.765625 30.4375 49.605469 30.398438 C 49.285156 30.320312 48.957031 30.332031 48.667969 30.371094 C 48.378906 30.410156 48.128906 30.480469 47.96875 30.53125 " fill-opacity="1" fill-rule="nonzero"/><path fill="#6b1e2f" d="M 48.289062 32.871094 C 48.289062 32.871094 48.25 32.859375 48.195312 32.84375 C 48.140625 32.828125 48.0625 32.804688 47.988281 32.78125 C 47.839844 32.738281 47.6875 32.695312 47.6875 32.695312 C 47.6875 32.695312 47.71875 32.71875 47.761719 32.757812 C 47.804688 32.800781 47.859375 32.851562 47.917969 32.90625 C 48.027344 33.015625 48.140625 33.125 48.140625 33.125 C 48.171875 33.207031 48.207031 33.3125 48.253906 33.429688 C 48.277344 33.488281 48.300781 33.550781 48.332031 33.613281 C 48.359375 33.679688 48.390625 33.746094 48.421875 33.816406 C 48.453125 33.882812 48.492188 33.953125 48.527344 34.023438 C 48.566406 34.09375 48.605469 34.167969 48.652344 34.238281 C 48.695312 34.308594 48.738281 34.378906 48.789062 34.449219 C 48.839844 34.515625 48.890625 34.585938 48.945312 34.648438 C 49.167969 34.910156 49.441406 35.132812 49.785156 35.238281 C 50.132812 35.347656 50.554688 35.339844 51.066406 35.113281 C 51.078125 34.957031 51.078125 34.804688 51.070312 34.664062 C 51.066406 34.597656 51.0625 34.527344 51.054688 34.460938 C 51.046875 34.398438 51.035156 34.332031 51.019531 34.273438 C 50.996094 34.152344 50.964844 34.039062 50.921875 33.9375 C 50.882812 33.832031 50.835938 33.738281 50.785156 33.652344 C 50.757812 33.609375 50.730469 33.566406 50.703125 33.527344 C 50.675781 33.488281 50.644531 33.453125 50.613281 33.417969 C 50.550781 33.347656 50.484375 33.285156 50.414062 33.226562 C 50.34375 33.171875 50.273438 33.125 50.199219 33.082031 C 50.121094 33.039062 50.046875 33 49.964844 32.972656 C 49.652344 32.847656 49.316406 32.808594 49.019531 32.808594 C 48.722656 32.808594 48.460938 32.84375 48.289062 32.871094 " fill-opacity="1" fill-rule="nonzero"/><path fill="#6b1e2f" d="M 48.285156 35.304688 C 48.285156 35.304688 48.136719 35.234375 47.992188 35.167969 C 47.847656 35.105469 47.699219 35.039062 47.699219 35.039062 C 47.699219 35.039062 47.800781 35.160156 47.902344 35.285156 C 48 35.410156 48.097656 35.539062 48.097656 35.539062 C 48.117188 35.625 48.140625 35.738281 48.171875 35.863281 C 48.1875 35.925781 48.203125 35.992188 48.222656 36.0625 C 48.234375 36.097656 48.242188 36.132812 48.253906 36.171875 C 48.265625 36.207031 48.277344 36.242188 48.289062 36.28125 C 48.382812 36.578125 48.515625 36.90625 48.703125 37.199219 C 48.796875 37.347656 48.90625 37.484375 49.035156 37.609375 C 49.160156 37.730469 49.304688 37.835938 49.472656 37.914062 C 49.808594 38.070312 50.238281 38.125 50.789062 37.96875 C 50.925781 37.328125 50.867188 36.820312 50.707031 36.441406 C 50.625 36.253906 50.515625 36.09375 50.390625 35.960938 C 50.265625 35.828125 50.121094 35.722656 49.972656 35.636719 C 49.671875 35.46875 49.339844 35.382812 49.035156 35.339844 C 48.734375 35.296875 48.460938 35.296875 48.285156 35.304688 " fill-opacity="1" fill-rule="nonzero"/><path fill="#6b1e2f" d="M 47.941406 37.777344 C 47.941406 37.777344 47.800781 37.6875 47.664062 37.597656 C 47.523438 37.511719 47.386719 37.425781 47.386719 37.425781 C 47.386719 37.425781 47.472656 37.5625 47.554688 37.703125 C 47.578125 37.738281 47.597656 37.773438 47.617188 37.808594 C 47.636719 37.839844 47.65625 37.871094 47.671875 37.898438 C 47.699219 37.953125 47.722656 37.988281 47.722656 37.988281 C 47.722656 38.078125 47.734375 38.195312 47.75 38.328125 C 47.761719 38.460938 47.78125 38.609375 47.808594 38.765625 C 47.835938 38.921875 47.871094 39.089844 47.917969 39.257812 C 47.964844 39.425781 48.027344 39.59375 48.101562 39.757812 C 48.175781 39.917969 48.265625 40.074219 48.378906 40.21875 C 48.492188 40.359375 48.621094 40.484375 48.78125 40.589844 C 49.101562 40.796875 49.527344 40.910156 50.105469 40.824219 C 50.339844 40.195312 50.347656 39.675781 50.238281 39.269531 C 50.179688 39.066406 50.09375 38.886719 49.984375 38.738281 C 49.875 38.585938 49.746094 38.457031 49.605469 38.351562 C 49.464844 38.242188 49.3125 38.15625 49.160156 38.085938 C 49.003906 38.015625 48.847656 37.960938 48.695312 37.917969 C 48.394531 37.832031 48.121094 37.792969 47.941406 37.777344 " fill-opacity="1" fill-rule="nonzero"/><path fill="#6b1e2f" d="M 47.246094 40.238281 C 47.246094 40.238281 47.121094 40.128906 46.992188 40.019531 C 46.863281 39.914062 46.738281 39.808594 46.738281 39.808594 C 46.738281 39.808594 46.804688 39.960938 46.867188 40.113281 C 46.9375 40.265625 46.996094 40.421875 46.996094 40.421875 C 46.988281 40.515625 46.980469 40.636719 46.976562 40.773438 C 46.972656 40.90625 46.96875 41.0625 46.976562 41.226562 C 46.980469 41.386719 46.996094 41.5625 47.019531 41.738281 C 47.042969 41.914062 47.082031 42.09375 47.136719 42.269531 C 47.238281 42.617188 47.417969 42.953125 47.707031 43.207031 C 48.003906 43.460938 48.417969 43.632812 49.019531 43.628906 C 49.339844 43.027344 49.421875 42.496094 49.367188 42.070312 C 49.335938 41.855469 49.273438 41.667969 49.183594 41.496094 C 49.09375 41.328125 48.980469 41.179688 48.855469 41.054688 C 48.601562 40.796875 48.285156 40.617188 47.992188 40.488281 C 47.703125 40.359375 47.429688 40.28125 47.246094 40.238281 " fill-opacity="1" fill-rule="nonzero"/><path fill="#6b1e2f" d="M 46.203125 42.640625 C 46.203125 42.640625 46.089844 42.511719 45.976562 42.382812 C 45.859375 42.257812 45.746094 42.132812 45.746094 42.132812 C 45.746094 42.132812 45.792969 42.296875 45.835938 42.460938 C 45.859375 42.542969 45.882812 42.625 45.898438 42.6875 C 45.914062 42.75 45.921875 42.792969 45.921875 42.792969 C 45.902344 42.886719 45.875 43.003906 45.855469 43.144531 C 45.828125 43.28125 45.804688 43.433594 45.792969 43.601562 C 45.773438 43.765625 45.761719 43.941406 45.765625 44.125 C 45.761719 44.308594 45.773438 44.492188 45.804688 44.679688 C 45.835938 44.863281 45.878906 45.046875 45.953125 45.222656 C 45.988281 45.308594 46.03125 45.394531 46.082031 45.476562 C 46.132812 45.558594 46.1875 45.636719 46.253906 45.710938 C 46.515625 46.007812 46.914062 46.242188 47.519531 46.320312 C 47.933594 45.753906 48.089844 45.234375 48.089844 44.792969 C 48.089844 44.683594 48.082031 44.574219 48.066406 44.476562 C 48.046875 44.375 48.023438 44.277344 47.988281 44.1875 C 47.921875 44 47.828125 43.835938 47.714844 43.691406 C 47.605469 43.542969 47.476562 43.414062 47.339844 43.296875 C 47.203125 43.183594 47.0625 43.082031 46.921875 43 C 46.644531 42.828125 46.378906 42.710938 46.203125 42.640625 " fill-opacity="1" fill-rule="nonzero"/><path fill="#6b1e2f" d="M 44.808594 44.929688 C 44.808594 44.929688 44.710938 44.785156 44.613281 44.636719 C 44.566406 44.566406 44.515625 44.496094 44.480469 44.441406 C 44.441406 44.386719 44.417969 44.351562 44.417969 44.351562 C 44.417969 44.351562 44.425781 44.394531 44.433594 44.457031 C 44.441406 44.523438 44.453125 44.609375 44.464844 44.695312 C 44.472656 44.78125 44.484375 44.871094 44.492188 44.933594 C 44.496094 44.96875 44.5 44.996094 44.5 45.015625 C 44.503906 45.035156 44.503906 45.042969 44.503906 45.042969 C 44.46875 45.136719 44.425781 45.253906 44.382812 45.390625 C 44.339844 45.523438 44.292969 45.675781 44.253906 45.84375 C 44.238281 45.929688 44.214844 46.011719 44.199219 46.101562 C 44.183594 46.1875 44.167969 46.277344 44.152344 46.371094 C 44.128906 46.554688 44.113281 46.746094 44.117188 46.9375 C 44.121094 47.035156 44.125 47.128906 44.136719 47.222656 C 44.148438 47.316406 44.167969 47.414062 44.191406 47.507812 C 44.242188 47.691406 44.316406 47.875 44.429688 48.042969 C 44.539062 48.214844 44.6875 48.371094 44.882812 48.507812 C 45.078125 48.644531 45.324219 48.757812 45.621094 48.839844 C 45.683594 48.777344 45.742188 48.710938 45.796875 48.648438 C 45.851562 48.582031 45.902344 48.519531 45.945312 48.457031 C 46.039062 48.328125 46.117188 48.203125 46.183594 48.082031 C 46.246094 47.957031 46.296875 47.835938 46.335938 47.71875 C 46.355469 47.660156 46.371094 47.601562 46.386719 47.542969 C 46.398438 47.484375 46.410156 47.429688 46.417969 47.371094 C 46.480469 46.925781 46.375 46.53125 46.191406 46.203125 C 46.007812 45.875 45.742188 45.605469 45.488281 45.390625 C 45.230469 45.179688 44.976562 45.027344 44.808594 44.929688 " fill-opacity="1" fill-rule="nonzero"/><path fill="#6b1e2f" d="M 43.070312 47.054688 C 43.070312 47.054688 42.996094 46.894531 42.917969 46.734375 C 42.878906 46.652344 42.839844 46.574219 42.808594 46.515625 C 42.777344 46.453125 42.757812 46.414062 42.757812 46.414062 C 42.757812 46.414062 42.757812 46.460938 42.757812 46.527344 C 42.757812 46.59375 42.757812 46.679688 42.757812 46.769531 C 42.753906 46.949219 42.75 47.128906 42.75 47.128906 C 42.699219 47.21875 42.640625 47.328125 42.578125 47.460938 C 42.519531 47.59375 42.449219 47.738281 42.386719 47.902344 C 42.355469 47.980469 42.324219 48.066406 42.292969 48.152344 C 42.265625 48.238281 42.234375 48.328125 42.210938 48.417969 C 42.183594 48.511719 42.164062 48.605469 42.144531 48.699219 C 42.125 48.792969 42.105469 48.890625 42.09375 48.984375 C 42.085938 49.082031 42.078125 49.179688 42.078125 49.277344 C 42.074219 49.375 42.078125 49.472656 42.089844 49.570312 C 42.113281 49.765625 42.164062 49.960938 42.253906 50.148438 C 42.433594 50.523438 42.761719 50.871094 43.347656 51.125 C 43.417969 51.066406 43.488281 51.011719 43.550781 50.953125 C 43.613281 50.894531 43.671875 50.835938 43.730469 50.78125 C 43.839844 50.664062 43.9375 50.550781 44.019531 50.433594 C 44.101562 50.316406 44.171875 50.203125 44.226562 50.089844 C 44.28125 49.976562 44.324219 49.863281 44.355469 49.75 C 44.390625 49.640625 44.410156 49.53125 44.421875 49.425781 C 44.429688 49.320312 44.433594 49.214844 44.425781 49.113281 C 44.410156 48.910156 44.363281 48.71875 44.292969 48.539062 C 44.152344 48.179688 43.925781 47.867188 43.695312 47.617188 C 43.464844 47.367188 43.230469 47.175781 43.070312 47.054688 " fill-opacity="1" fill-rule="nonzero"/><path fill="#6b1e2f" d="M 45.425781 54.1875 C 45.3125 54.015625 45.125 53.773438 44.871094 53.535156 C 44.613281 53.296875 44.292969 53.066406 43.917969 52.917969 C 43.824219 52.878906 43.726562 52.847656 43.625 52.824219 C 43.523438 52.796875 43.417969 52.777344 43.3125 52.761719 C 43.203125 52.75 43.09375 52.746094 42.980469 52.75 C 42.921875 52.75 42.867188 52.753906 42.808594 52.761719 C 42.75 52.765625 42.6875 52.773438 42.628906 52.78125 C 42.507812 52.800781 42.382812 52.832031 42.257812 52.875 C 42.128906 52.914062 41.996094 52.960938 41.863281 53.023438 C 41.792969 53.054688 41.726562 53.089844 41.65625 53.125 C 41.585938 53.164062 41.515625 53.199219 41.441406 53.242188 C 41.371094 53.285156 41.296875 53.332031 41.222656 53.382812 C 41.148438 53.429688 41.070312 53.480469 40.992188 53.539062 C 40.992188 53.539062 40.957031 53.558594 40.886719 53.605469 C 40.820312 53.648438 40.722656 53.710938 40.589844 53.789062 C 40.527344 53.828125 40.453125 53.871094 40.378906 53.917969 C 40.335938 53.941406 40.296875 53.964844 40.253906 53.992188 C 40.210938 54.015625 40.167969 54.039062 40.121094 54.066406 C 40.03125 54.121094 39.933594 54.175781 39.832031 54.234375 C 39.730469 54.292969 39.621094 54.347656 39.507812 54.410156 C 39.050781 54.65625 38.511719 54.929688 37.917969 55.1875 C 37.324219 55.445312 36.679688 55.699219 36.027344 55.914062 C 35.371094 56.132812 34.707031 56.320312 34.078125 56.46875 C 33.445312 56.613281 32.851562 56.726562 32.339844 56.796875 C 32.210938 56.820312 32.089844 56.832031 31.972656 56.847656 C 31.851562 56.863281 31.742188 56.878906 31.636719 56.890625 C 31.429688 56.910156 31.246094 56.929688 31.097656 56.945312 C 30.792969 56.96875 30.621094 56.980469 30.621094 56.980469 C 30.621094 56.980469 30.777344 56.976562 31.046875 56.972656 C 31.316406 56.96875 31.699219 56.953125 32.160156 56.917969 C 32.621094 56.878906 33.160156 56.828125 33.734375 56.738281 C 34.308594 56.648438 34.921875 56.53125 35.527344 56.390625 C 35.679688 56.351562 35.828125 56.316406 35.980469 56.277344 C 36.128906 56.234375 36.28125 56.195312 36.425781 56.15625 C 36.574219 56.113281 36.722656 56.066406 36.867188 56.023438 C 36.9375 56.003906 37.007812 55.980469 37.082031 55.957031 C 37.152344 55.933594 37.222656 55.914062 37.289062 55.890625 C 37.847656 55.707031 38.363281 55.515625 38.796875 55.335938 C 38.90625 55.292969 39.011719 55.25 39.109375 55.207031 C 39.210938 55.164062 39.300781 55.121094 39.390625 55.085938 C 39.566406 55.007812 39.71875 54.9375 39.84375 54.878906 C 39.96875 54.820312 40.066406 54.777344 40.132812 54.742188 C 40.199219 54.710938 40.234375 54.691406 40.234375 54.691406 C 40.351562 54.636719 40.46875 54.59375 40.589844 54.574219 C 40.707031 54.550781 40.824219 54.542969 40.9375 54.554688 C 41.160156 54.578125 41.367188 54.664062 41.515625 54.816406 C 41.75 55.054688 42.054688 55.195312 42.390625 55.257812 C 42.558594 55.289062 42.734375 55.300781 42.917969 55.296875 C 43.007812 55.292969 43.097656 55.289062 43.191406 55.277344 C 43.28125 55.269531 43.371094 55.253906 43.460938 55.238281 C 43.554688 55.222656 43.644531 55.203125 43.734375 55.183594 C 43.777344 55.171875 43.824219 55.160156 43.867188 55.148438 C 43.910156 55.136719 43.957031 55.125 44 55.109375 C 44.171875 55.058594 44.339844 55 44.496094 54.9375 C 44.652344 54.875 44.796875 54.808594 44.925781 54.75 C 44.988281 54.71875 45.050781 54.6875 45.109375 54.660156 C 45.164062 54.628906 45.214844 54.601562 45.261719 54.574219 C 45.261719 54.574219 45.484375 54.546875 45.707031 54.515625 C 45.820312 54.5 45.929688 54.484375 46.015625 54.46875 C 46.097656 54.457031 46.15625 54.445312 46.15625 54.445312 C 46.15625 54.445312 45.972656 54.382812 45.789062 54.320312 C 45.609375 54.253906 45.425781 54.1875 45.425781 54.1875 " fill-opacity="1" fill-rule="nonzero"/><path fill="#6b1e2f" d="M 41.023438 48.957031 C 41.167969 49.101562 41.375 49.328125 41.570312 49.613281 C 41.769531 49.902344 41.953125 50.246094 42.042969 50.628906 C 42.066406 50.726562 42.085938 50.824219 42.09375 50.925781 C 42.101562 51.023438 42.101562 51.125 42.097656 51.230469 C 42.089844 51.332031 42.070312 51.4375 42.046875 51.542969 C 42.03125 51.597656 42.019531 51.652344 42 51.703125 C 41.980469 51.757812 41.957031 51.808594 41.933594 51.863281 C 41.886719 51.96875 41.824219 52.078125 41.753906 52.183594 C 41.679688 52.292969 41.59375 52.398438 41.492188 52.503906 C 41.445312 52.554688 41.390625 52.609375 41.332031 52.660156 C 41.277344 52.710938 41.214844 52.757812 41.148438 52.808594 C 41.085938 52.859375 41.015625 52.910156 40.941406 52.957031 C 40.871094 53.007812 40.792969 53.050781 40.710938 53.097656 C 40.710938 53.097656 40.675781 53.121094 40.609375 53.164062 C 40.542969 53.207031 40.445312 53.269531 40.320312 53.34375 C 40.257812 53.382812 40.1875 53.425781 40.109375 53.472656 C 40.074219 53.492188 40.03125 53.515625 39.992188 53.542969 C 39.949219 53.566406 39.90625 53.589844 39.863281 53.617188 C 39.773438 53.667969 39.679688 53.722656 39.578125 53.777344 C 39.476562 53.835938 39.371094 53.890625 39.261719 53.953125 C 38.8125 54.191406 38.289062 54.457031 37.707031 54.710938 C 37.128906 54.964844 36.5 55.207031 35.863281 55.421875 C 35.222656 55.636719 34.574219 55.816406 33.957031 55.960938 C 33.34375 56.105469 32.761719 56.210938 32.261719 56.28125 C 32.136719 56.304688 32.019531 56.316406 31.902344 56.332031 C 31.789062 56.347656 31.683594 56.359375 31.578125 56.371094 C 31.375 56.394531 31.199219 56.414062 31.050781 56.425781 C 30.757812 56.449219 30.589844 56.460938 30.589844 56.460938 C 30.589844 56.460938 30.738281 56.441406 30.996094 56.402344 C 31.257812 56.367188 31.625 56.304688 32.066406 56.21875 C 32.503906 56.125 33.011719 56.011719 33.546875 55.859375 C 34.085938 55.707031 34.648438 55.523438 35.203125 55.320312 C 35.339844 55.265625 35.480469 55.214844 35.617188 55.160156 C 35.753906 55.105469 35.886719 55.046875 36.023438 54.996094 C 36.15625 54.9375 36.289062 54.878906 36.417969 54.820312 C 36.484375 54.792969 36.546875 54.765625 36.609375 54.734375 C 36.671875 54.703125 36.738281 54.675781 36.800781 54.644531 C 37.296875 54.410156 37.753906 54.175781 38.136719 53.957031 C 38.234375 53.902344 38.324219 53.855469 38.410156 53.800781 C 38.496094 53.75 38.578125 53.703125 38.65625 53.65625 C 38.8125 53.566406 38.941406 53.484375 39.050781 53.417969 C 39.15625 53.347656 39.242188 53.296875 39.300781 53.257812 C 39.359375 53.21875 39.386719 53.199219 39.386719 53.199219 C 39.488281 53.132812 39.574219 53.054688 39.644531 52.96875 C 39.714844 52.878906 39.765625 52.78125 39.800781 52.679688 C 39.875 52.480469 39.875 52.265625 39.796875 52.070312 C 39.675781 51.757812 39.65625 51.4375 39.691406 51.136719 C 39.710938 50.980469 39.742188 50.828125 39.785156 50.683594 C 39.808594 50.609375 39.832031 50.535156 39.859375 50.464844 C 39.882812 50.394531 39.910156 50.324219 39.941406 50.253906 C 39.96875 50.183594 40 50.117188 40.03125 50.050781 C 40.050781 50.019531 40.066406 49.988281 40.082031 49.957031 C 40.097656 49.921875 40.113281 49.890625 40.128906 49.859375 C 40.195312 49.734375 40.265625 49.617188 40.332031 49.507812 C 40.398438 49.398438 40.464844 49.296875 40.523438 49.210938 C 40.554688 49.167969 40.585938 49.125 40.613281 49.085938 C 40.636719 49.050781 40.664062 49.011719 40.6875 48.980469 C 40.6875 48.980469 40.714844 48.800781 40.746094 48.625 C 40.761719 48.535156 40.773438 48.445312 40.78125 48.375 C 40.789062 48.308594 40.796875 48.265625 40.796875 48.265625 C 40.796875 48.265625 40.855469 48.4375 40.914062 48.609375 C 40.96875 48.785156 41.023438 48.957031 41.023438 48.957031 " fill-opacity="1" fill-rule="nonzero"/><path fill="#6b1e2f" d="M 45.851562 20.632812 L 45.382812 20.269531 L 45.648438 20.800781 C 45.660156 21.453125 45.855469 23.453125 47.839844 23.25 C 48.417969 21.34375 46.488281 20.769531 45.851562 20.632812 " fill-opacity="1" fill-rule="nonzero"/><path fill="#6b1e2f" d="M 10.070312 21.273438 C 10.070312 21.273438 10.085938 21.101562 10.101562 20.925781 C 10.109375 20.839844 10.117188 20.75 10.125 20.6875 C 10.128906 20.621094 10.136719 20.578125 10.136719 20.578125 C 10.136719 20.578125 10.148438 20.613281 10.171875 20.664062 C 10.191406 20.714844 10.21875 20.785156 10.25 20.855469 C 10.308594 20.996094 10.367188 21.132812 10.367188 21.132812 C 10.503906 21.214844 10.699219 21.351562 10.894531 21.539062 C 11.089844 21.730469 11.277344 21.96875 11.40625 22.257812 C 11.472656 22.398438 11.523438 22.554688 11.550781 22.722656 C 11.5625 22.804688 11.570312 22.890625 11.574219 22.976562 C 11.574219 23.023438 11.574219 23.066406 11.570312 23.113281 C 11.566406 23.160156 11.5625 23.207031 11.558594 23.253906 C 11.539062 23.441406 11.480469 23.640625 11.398438 23.859375 C 11.355469 23.964844 11.300781 24.074219 11.242188 24.191406 C 11.179688 24.308594 11.109375 24.425781 11.027344 24.550781 C 10.523438 24.519531 10.175781 24.363281 9.949219 24.117188 C 9.835938 23.996094 9.75 23.851562 9.695312 23.695312 C 9.640625 23.539062 9.609375 23.363281 9.597656 23.183594 C 9.582031 22.828125 9.648438 22.445312 9.746094 22.105469 C 9.773438 22.019531 9.796875 21.9375 9.824219 21.859375 C 9.855469 21.78125 9.882812 21.707031 9.910156 21.632812 C 9.96875 21.492188 10.023438 21.371094 10.070312 21.273438 " fill-opacity="1" fill-rule="nonzero"/><path fill="#6b1e2f" d="M 9.859375 26.929688 C 9.34375 26.96875 8.964844 26.859375 8.699219 26.644531 C 8.4375 26.429688 8.28125 26.109375 8.214844 25.746094 C 8.195312 25.65625 8.183594 25.566406 8.175781 25.472656 C 8.167969 25.378906 8.164062 25.28125 8.164062 25.1875 C 8.167969 24.996094 8.179688 24.808594 8.210938 24.628906 C 8.257812 24.265625 8.351562 23.949219 8.417969 23.738281 C 8.417969 23.738281 8.414062 23.691406 8.410156 23.625 C 8.410156 23.558594 8.402344 23.46875 8.398438 23.378906 C 8.394531 23.199219 8.386719 23.019531 8.386719 23.019531 C 8.386719 23.019531 8.464844 23.152344 8.542969 23.285156 C 8.621094 23.417969 8.699219 23.550781 8.699219 23.550781 C 8.851562 23.617188 9.070312 23.726562 9.292969 23.890625 C 9.519531 24.054688 9.746094 24.273438 9.917969 24.542969 C 10.003906 24.679688 10.078125 24.832031 10.128906 24.996094 C 10.152344 25.078125 10.171875 25.164062 10.1875 25.253906 C 10.203125 25.34375 10.210938 25.4375 10.214844 25.535156 C 10.214844 25.632812 10.210938 25.734375 10.195312 25.839844 C 10.183594 25.949219 10.164062 26.058594 10.136719 26.171875 C 10.105469 26.289062 10.070312 26.410156 10.027344 26.535156 C 10.003906 26.597656 9.976562 26.664062 9.949219 26.726562 C 9.921875 26.792969 9.894531 26.863281 9.859375 26.929688 " fill-opacity="1" fill-rule="nonzero"/><path fill="#6b1e2f" d="M 7.09375 26.484375 C 7.09375 26.484375 7.082031 26.4375 7.070312 26.371094 C 7.054688 26.304688 7.035156 26.210938 7.019531 26.121094 C 6.988281 25.941406 6.957031 25.757812 6.957031 25.757812 C 6.957031 25.757812 7.054688 25.882812 7.152344 26.007812 C 7.25 26.128906 7.351562 26.253906 7.351562 26.253906 C 7.511719 26.296875 7.75 26.378906 8 26.511719 C 8.25 26.648438 8.515625 26.835938 8.730469 27.089844 C 8.839844 27.214844 8.929688 27.355469 9.007812 27.515625 C 9.085938 27.675781 9.140625 27.855469 9.171875 28.050781 C 9.238281 28.449219 9.195312 28.921875 9.011719 29.519531 C 8.492188 29.628906 8.097656 29.574219 7.792969 29.394531 C 7.492188 29.210938 7.296875 28.910156 7.171875 28.550781 C 7.113281 28.375 7.070312 28.183594 7.042969 27.988281 C 7.015625 27.796875 7.007812 27.601562 7.007812 27.417969 C 7.007812 27.042969 7.050781 26.707031 7.09375 26.484375 " fill-opacity="1" fill-rule="nonzero"/><path fill="#6b1e2f" d="M 8.519531 32.265625 C 8.007812 32.453125 7.59375 32.457031 7.265625 32.3125 C 7.101562 32.242188 6.957031 32.136719 6.832031 32.007812 C 6.769531 31.941406 6.714844 31.871094 6.660156 31.792969 C 6.605469 31.714844 6.558594 31.632812 6.515625 31.546875 C 6.339844 31.203125 6.238281 30.796875 6.1875 30.421875 C 6.175781 30.328125 6.164062 30.234375 6.15625 30.144531 C 6.152344 30.101562 6.148438 30.054688 6.144531 30.011719 C 6.144531 29.96875 6.140625 29.929688 6.140625 29.886719 C 6.136719 29.722656 6.136719 29.578125 6.140625 29.464844 C 6.140625 29.464844 6.121094 29.417969 6.101562 29.351562 C 6.078125 29.285156 6.046875 29.195312 6.015625 29.109375 C 5.984375 29.019531 5.957031 28.929688 5.933594 28.859375 C 5.910156 28.792969 5.898438 28.75 5.898438 28.75 C 5.898438 28.75 5.925781 28.777344 5.96875 28.820312 C 6.015625 28.859375 6.074219 28.917969 6.132812 28.972656 C 6.25 29.082031 6.371094 29.195312 6.371094 29.195312 C 6.539062 29.214844 6.792969 29.261719 7.066406 29.363281 C 7.339844 29.464844 7.636719 29.617188 7.886719 29.84375 C 8.015625 29.957031 8.132812 30.085938 8.230469 30.238281 C 8.28125 30.3125 8.324219 30.394531 8.367188 30.480469 C 8.40625 30.566406 8.445312 30.660156 8.472656 30.757812 C 8.59375 31.148438 8.621094 31.636719 8.519531 32.265625 " fill-opacity="1" fill-rule="nonzero"/><path fill="#6b1e2f" d="M 8.40625 35.128906 C 7.914062 35.390625 7.496094 35.449219 7.140625 35.351562 C 6.789062 35.257812 6.496094 35.007812 6.273438 34.683594 C 6.214844 34.601562 6.160156 34.515625 6.113281 34.425781 C 6.066406 34.339844 6.023438 34.246094 5.980469 34.152344 C 5.941406 34.058594 5.902344 33.964844 5.867188 33.871094 C 5.835938 33.777344 5.808594 33.679688 5.78125 33.585938 C 5.753906 33.492188 5.730469 33.398438 5.710938 33.3125 C 5.691406 33.222656 5.671875 33.132812 5.660156 33.050781 C 5.628906 32.886719 5.609375 32.742188 5.597656 32.621094 C 5.597656 32.621094 5.507812 32.453125 5.421875 32.28125 C 5.375 32.195312 5.335938 32.105469 5.304688 32.042969 C 5.273438 31.976562 5.25 31.933594 5.25 31.933594 C 5.25 31.933594 5.386719 32.03125 5.519531 32.128906 C 5.585938 32.175781 5.65625 32.222656 5.707031 32.257812 C 5.757812 32.292969 5.792969 32.316406 5.792969 32.316406 C 5.96875 32.316406 6.230469 32.328125 6.523438 32.390625 C 6.816406 32.457031 7.136719 32.570312 7.425781 32.761719 C 7.496094 32.808594 7.566406 32.863281 7.632812 32.921875 C 7.703125 32.980469 7.765625 33.042969 7.828125 33.113281 C 7.890625 33.183594 7.949219 33.257812 8 33.339844 C 8.027344 33.382812 8.050781 33.421875 8.078125 33.46875 C 8.101562 33.511719 8.125 33.558594 8.148438 33.605469 C 8.191406 33.699219 8.230469 33.804688 8.265625 33.914062 C 8.296875 34.023438 8.328125 34.140625 8.351562 34.265625 C 8.363281 34.328125 8.371094 34.394531 8.378906 34.460938 C 8.386719 34.527344 8.394531 34.597656 8.398438 34.667969 C 8.410156 34.8125 8.410156 34.964844 8.40625 35.128906 " fill-opacity="1" fill-rule="nonzero"/><path fill="#6b1e2f" d="M 5.492188 35.902344 C 5.492188 35.902344 5.378906 35.746094 5.265625 35.582031 C 5.15625 35.417969 5.046875 35.253906 5.046875 35.253906 C 5.046875 35.253906 5.195312 35.335938 5.347656 35.414062 C 5.496094 35.492188 5.648438 35.566406 5.648438 35.566406 C 5.824219 35.542969 6.09375 35.519531 6.398438 35.539062 C 6.703125 35.5625 7.046875 35.632812 7.367188 35.789062 C 7.527344 35.867188 7.679688 35.964844 7.824219 36.089844 C 7.96875 36.214844 8.101562 36.363281 8.214844 36.542969 C 8.453125 36.90625 8.617188 37.386719 8.691406 38.054688 C 8.230469 38.386719 7.8125 38.503906 7.441406 38.453125 C 7.253906 38.429688 7.078125 38.367188 6.914062 38.269531 C 6.753906 38.171875 6.601562 38.042969 6.464844 37.894531 C 6.191406 37.601562 5.972656 37.21875 5.8125 36.855469 C 5.792969 36.808594 5.773438 36.765625 5.753906 36.71875 C 5.738281 36.675781 5.71875 36.628906 5.703125 36.585938 C 5.671875 36.496094 5.640625 36.410156 5.613281 36.332031 C 5.558594 36.167969 5.523438 36.023438 5.492188 35.902344 " fill-opacity="1" fill-rule="nonzero"/><path fill="#6b1e2f" d="M 9.386719 40.980469 C 8.964844 41.382812 8.558594 41.558594 8.175781 41.5625 C 7.984375 41.5625 7.792969 41.523438 7.617188 41.445312 C 7.441406 41.371094 7.269531 41.261719 7.109375 41.132812 C 6.949219 41 6.804688 40.84375 6.667969 40.679688 C 6.53125 40.515625 6.410156 40.339844 6.304688 40.167969 C 6.195312 39.992188 6.105469 39.820312 6.03125 39.664062 C 5.953125 39.507812 5.894531 39.363281 5.847656 39.25 C 5.847656 39.25 5.8125 39.210938 5.761719 39.15625 C 5.734375 39.128906 5.707031 39.097656 5.671875 39.0625 C 5.640625 39.027344 5.605469 38.992188 5.574219 38.953125 C 5.4375 38.804688 5.300781 38.652344 5.300781 38.652344 C 5.300781 38.652344 5.464844 38.710938 5.628906 38.769531 C 5.792969 38.828125 5.957031 38.886719 5.957031 38.886719 C 6.132812 38.835938 6.402344 38.773438 6.714844 38.753906 C 6.871094 38.746094 7.039062 38.746094 7.210938 38.761719 C 7.378906 38.78125 7.554688 38.816406 7.730469 38.871094 C 7.902344 38.925781 8.074219 39.003906 8.234375 39.109375 C 8.398438 39.214844 8.554688 39.347656 8.695312 39.515625 C 8.984375 39.851562 9.21875 40.316406 9.386719 40.980469 " fill-opacity="1" fill-rule="nonzero"/><path fill="#6b1e2f" d="M 6.675781 42.589844 C 6.675781 42.589844 6.511719 42.464844 6.355469 42.332031 C 6.199219 42.199219 6.039062 42.0625 6.039062 42.0625 C 6.039062 42.0625 6.214844 42.101562 6.386719 42.136719 C 6.5625 42.175781 6.738281 42.210938 6.738281 42.210938 C 6.90625 42.132812 7.171875 42.03125 7.488281 41.96875 C 7.800781 41.90625 8.160156 41.882812 8.527344 41.945312 C 8.710938 41.980469 8.894531 42.035156 9.074219 42.121094 C 9.253906 42.203125 9.433594 42.316406 9.597656 42.464844 C 9.9375 42.761719 10.238281 43.203125 10.503906 43.851562 C 10.132812 44.320312 9.746094 44.554688 9.355469 44.609375 C 8.964844 44.667969 8.578125 44.542969 8.214844 44.324219 C 8.035156 44.210938 7.863281 44.078125 7.703125 43.929688 C 7.546875 43.78125 7.398438 43.617188 7.265625 43.457031 C 7.132812 43.296875 7.015625 43.132812 6.917969 42.988281 C 6.820312 42.835938 6.738281 42.699219 6.675781 42.589844 " fill-opacity="1" fill-rule="nonzero"/><path fill="#6b1e2f" d="M 12.035156 46.605469 C 11.722656 47.132812 11.367188 47.421875 10.980469 47.535156 C 10.882812 47.5625 10.785156 47.578125 10.683594 47.585938 C 10.585938 47.59375 10.488281 47.589844 10.386719 47.578125 C 10.1875 47.550781 9.984375 47.492188 9.785156 47.40625 C 9.589844 47.316406 9.394531 47.203125 9.210938 47.078125 C 9.03125 46.949219 8.859375 46.808594 8.703125 46.660156 C 8.546875 46.515625 8.40625 46.371094 8.285156 46.234375 C 8.164062 46.09375 8.0625 45.96875 7.984375 45.867188 C 7.984375 45.867188 7.9375 45.839844 7.871094 45.800781 C 7.804688 45.757812 7.714844 45.703125 7.625 45.648438 C 7.445312 45.535156 7.265625 45.421875 7.265625 45.421875 C 7.265625 45.421875 7.449219 45.433594 7.628906 45.449219 C 7.8125 45.460938 7.992188 45.472656 7.992188 45.472656 C 8.15625 45.371094 8.410156 45.230469 8.71875 45.125 C 8.871094 45.070312 9.039062 45.023438 9.21875 44.992188 C 9.394531 44.960938 9.578125 44.949219 9.769531 44.953125 C 9.960938 44.960938 10.152344 44.992188 10.347656 45.054688 C 10.441406 45.082031 10.539062 45.121094 10.636719 45.167969 C 10.734375 45.210938 10.832031 45.265625 10.925781 45.332031 C 11.308594 45.585938 11.675781 45.988281 12.035156 46.605469 " fill-opacity="1" fill-rule="nonzero"/><path fill="#6b1e2f" d="M 9.769531 49.003906 C 9.769531 49.003906 9.757812 48.996094 9.738281 48.988281 C 9.714844 48.980469 9.683594 48.964844 9.648438 48.949219 C 9.574219 48.917969 9.476562 48.875 9.378906 48.832031 C 9.277344 48.785156 9.179688 48.742188 9.105469 48.710938 C 9.03125 48.675781 8.984375 48.652344 8.984375 48.652344 C 8.984375 48.652344 9.03125 48.652344 9.097656 48.644531 C 9.167969 48.640625 9.261719 48.636719 9.355469 48.628906 C 9.539062 48.617188 9.726562 48.601562 9.726562 48.601562 C 9.875 48.476562 10.113281 48.300781 10.410156 48.148438 C 10.707031 47.996094 11.0625 47.867188 11.449219 47.832031 C 11.839844 47.789062 12.25 47.84375 12.675781 48.046875 C 12.726562 48.074219 12.777344 48.101562 12.832031 48.132812 C 12.886719 48.160156 12.9375 48.195312 12.992188 48.230469 C 13.101562 48.300781 13.207031 48.382812 13.3125 48.476562 C 13.421875 48.566406 13.53125 48.671875 13.640625 48.789062 C 13.695312 48.847656 13.753906 48.910156 13.808594 48.976562 C 13.863281 49.039062 13.921875 49.109375 13.976562 49.179688 C 13.851562 49.46875 13.714844 49.699219 13.554688 49.878906 C 13.398438 50.058594 13.222656 50.1875 13.035156 50.269531 C 12.847656 50.355469 12.648438 50.390625 12.441406 50.394531 C 12.339844 50.394531 12.234375 50.390625 12.128906 50.375 C 12.023438 50.359375 11.914062 50.335938 11.808594 50.304688 C 11.601562 50.242188 11.386719 50.160156 11.183594 50.054688 C 10.984375 49.949219 10.789062 49.832031 10.609375 49.707031 C 10.433594 49.582031 10.269531 49.453125 10.125 49.332031 C 9.984375 49.207031 9.867188 49.09375 9.769531 49.003906 " fill-opacity="1" fill-rule="nonzero"/><path fill="#6b1e2f" d="M 16.304688 51.515625 C 16.140625 52.132812 15.863281 52.53125 15.507812 52.75 C 15.332031 52.863281 15.132812 52.929688 14.925781 52.960938 C 14.820312 52.976562 14.710938 52.988281 14.605469 52.984375 C 14.496094 52.984375 14.382812 52.976562 14.273438 52.960938 C 14.160156 52.945312 14.046875 52.921875 13.9375 52.894531 C 13.824219 52.867188 13.714844 52.832031 13.601562 52.792969 C 13.492188 52.753906 13.386719 52.710938 13.277344 52.667969 C 13.171875 52.621094 13.070312 52.570312 12.972656 52.519531 C 12.773438 52.417969 12.589844 52.3125 12.429688 52.207031 C 12.269531 52.105469 12.128906 52.007812 12.023438 51.925781 C 12.023438 51.925781 11.8125 51.867188 11.601562 51.808594 C 11.496094 51.777344 11.390625 51.746094 11.308594 51.722656 C 11.230469 51.699219 11.179688 51.683594 11.179688 51.683594 C 11.179688 51.683594 11.222656 51.675781 11.292969 51.660156 C 11.363281 51.648438 11.457031 51.628906 11.550781 51.609375 C 11.734375 51.566406 11.921875 51.527344 11.921875 51.527344 C 12.054688 51.378906 12.269531 51.167969 12.550781 50.972656 C 12.828125 50.777344 13.171875 50.597656 13.558594 50.503906 C 13.75 50.460938 13.953125 50.433594 14.164062 50.4375 C 14.269531 50.441406 14.378906 50.453125 14.488281 50.472656 C 14.597656 50.488281 14.710938 50.515625 14.824219 50.550781 C 14.941406 50.589844 15.054688 50.636719 15.171875 50.691406 C 15.292969 50.75 15.410156 50.816406 15.535156 50.894531 C 15.65625 50.976562 15.78125 51.0625 15.910156 51.167969 C 15.972656 51.21875 16.039062 51.273438 16.101562 51.332031 C 16.167969 51.390625 16.234375 51.449219 16.304688 51.515625 " fill-opacity="1" fill-rule="nonzero"/><path fill="#6b1e2f" d="M 14.679688 24.421875 C 14.679688 24.421875 14.816406 24.457031 14.953125 24.496094 C 15.023438 24.515625 15.089844 24.535156 15.140625 24.546875 C 15.191406 24.5625 15.226562 24.570312 15.226562 24.570312 C 15.226562 24.570312 15.191406 24.578125 15.140625 24.585938 C 15.085938 24.597656 15.019531 24.613281 14.949219 24.625 C 14.8125 24.65625 14.671875 24.683594 14.671875 24.683594 C 14.609375 24.734375 14.535156 24.796875 14.441406 24.863281 C 14.394531 24.898438 14.347656 24.933594 14.292969 24.96875 C 14.238281 25.003906 14.1875 25.042969 14.128906 25.078125 C 13.894531 25.226562 13.625 25.375 13.328125 25.464844 C 13.183594 25.511719 13.03125 25.546875 12.875 25.558594 C 12.714844 25.566406 12.558594 25.558594 12.402344 25.515625 C 12.082031 25.433594 11.761719 25.230469 11.476562 24.8125 C 11.542969 24.683594 11.613281 24.566406 11.683594 24.464844 C 11.757812 24.359375 11.835938 24.269531 11.910156 24.1875 C 12.0625 24.023438 12.230469 23.90625 12.390625 23.820312 C 12.429688 23.800781 12.472656 23.78125 12.511719 23.765625 C 12.554688 23.75 12.59375 23.738281 12.636719 23.722656 C 12.714844 23.699219 12.796875 23.683594 12.878906 23.675781 C 13.035156 23.65625 13.191406 23.664062 13.34375 23.691406 C 13.644531 23.75 13.921875 23.878906 14.148438 24.023438 C 14.378906 24.164062 14.5625 24.316406 14.679688 24.421875 " fill-opacity="1" fill-rule="nonzero"/><path fill="#6b1e2f" d="M 13.542969 26.273438 C 13.542969 26.273438 13.683594 26.292969 13.828125 26.308594 C 13.972656 26.328125 14.113281 26.347656 14.113281 26.347656 C 14.113281 26.347656 13.980469 26.394531 13.84375 26.441406 C 13.773438 26.464844 13.707031 26.488281 13.65625 26.507812 C 13.605469 26.527344 13.570312 26.539062 13.570312 26.539062 C 13.460938 26.660156 13.285156 26.835938 13.074219 27.019531 C 12.964844 27.109375 12.847656 27.203125 12.722656 27.289062 C 12.65625 27.332031 12.589844 27.375 12.523438 27.414062 C 12.457031 27.453125 12.386719 27.492188 12.316406 27.527344 C 12.027344 27.660156 11.71875 27.75 11.378906 27.710938 C 11.046875 27.671875 10.691406 27.507812 10.339844 27.125 C 10.367188 27.054688 10.390625 26.988281 10.417969 26.925781 C 10.445312 26.859375 10.472656 26.800781 10.503906 26.742188 C 10.5625 26.625 10.625 26.519531 10.691406 26.425781 C 10.761719 26.335938 10.832031 26.25 10.902344 26.179688 C 10.976562 26.105469 11.050781 26.042969 11.128906 25.988281 C 11.207031 25.9375 11.285156 25.890625 11.363281 25.855469 C 11.441406 25.816406 11.523438 25.789062 11.601562 25.769531 C 11.761719 25.726562 11.921875 25.714844 12.078125 25.71875 C 12.390625 25.734375 12.691406 25.832031 12.945312 25.941406 C 13.195312 26.054688 13.40625 26.183594 13.542969 26.273438 " fill-opacity="1" fill-rule="nonzero"/><path fill="#6b1e2f" d="M 12.644531 28.316406 C 12.644531 28.316406 12.792969 28.316406 12.941406 28.3125 C 13.089844 28.3125 13.238281 28.3125 13.238281 28.3125 C 13.238281 28.3125 13.105469 28.378906 12.976562 28.445312 C 12.910156 28.480469 12.84375 28.515625 12.796875 28.539062 C 12.746094 28.566406 12.714844 28.585938 12.714844 28.585938 C 12.617188 28.722656 12.46875 28.925781 12.273438 29.144531 C 12.179688 29.25 12.074219 29.363281 11.957031 29.46875 C 11.84375 29.574219 11.714844 29.679688 11.578125 29.765625 C 11.3125 29.949219 11 30.078125 10.65625 30.089844 C 10.3125 30.097656 9.925781 29.984375 9.515625 29.644531 C 9.632812 29.046875 9.875 28.636719 10.152344 28.375 C 10.296875 28.246094 10.445312 28.152344 10.601562 28.085938 C 10.757812 28.019531 10.921875 27.984375 11.082031 27.96875 C 11.402344 27.9375 11.714844 27.988281 11.988281 28.066406 C 12.261719 28.144531 12.492188 28.246094 12.644531 28.316406 " fill-opacity="1" fill-rule="nonzero"/><path fill="#6b1e2f" d="M 12.023438 30.53125 C 12.023438 30.53125 12.175781 30.507812 12.324219 30.480469 C 12.398438 30.472656 12.476562 30.460938 12.53125 30.453125 C 12.585938 30.445312 12.625 30.4375 12.625 30.4375 C 12.625 30.4375 12.59375 30.460938 12.546875 30.492188 C 12.5 30.523438 12.441406 30.570312 12.378906 30.613281 C 12.316406 30.65625 12.253906 30.703125 12.207031 30.734375 C 12.160156 30.769531 12.128906 30.792969 12.128906 30.792969 C 12.09375 30.867188 12.042969 30.964844 11.980469 31.070312 C 11.949219 31.125 11.917969 31.183594 11.882812 31.242188 C 11.847656 31.300781 11.808594 31.359375 11.765625 31.421875 C 11.601562 31.667969 11.398438 31.933594 11.148438 32.15625 C 11.085938 32.210938 11.019531 32.265625 10.953125 32.3125 C 10.886719 32.363281 10.816406 32.40625 10.742188 32.445312 C 10.59375 32.527344 10.429688 32.585938 10.253906 32.613281 C 9.90625 32.671875 9.5 32.609375 9.035156 32.324219 C 9.074219 31.699219 9.253906 31.25 9.503906 30.945312 C 9.566406 30.871094 9.632812 30.800781 9.699219 30.742188 C 9.769531 30.683594 9.84375 30.628906 9.917969 30.585938 C 10.070312 30.496094 10.226562 30.4375 10.386719 30.398438 C 10.707031 30.320312 11.035156 30.332031 11.324219 30.371094 C 11.613281 30.410156 11.863281 30.480469 12.023438 30.53125 " fill-opacity="1" fill-rule="nonzero"/><path fill="#6b1e2f" d="M 11.703125 32.871094 C 11.703125 32.871094 11.742188 32.859375 11.796875 32.84375 C 11.851562 32.828125 11.929688 32.804688 12.003906 32.78125 C 12.152344 32.738281 12.304688 32.695312 12.304688 32.695312 C 12.304688 32.695312 12.273438 32.71875 12.230469 32.757812 C 12.1875 32.800781 12.128906 32.851562 12.074219 32.90625 C 11.964844 33.015625 11.851562 33.125 11.851562 33.125 C 11.820312 33.207031 11.785156 33.3125 11.738281 33.429688 C 11.714844 33.488281 11.6875 33.550781 11.660156 33.613281 C 11.632812 33.679688 11.601562 33.746094 11.570312 33.816406 C 11.535156 33.882812 11.5 33.953125 11.460938 34.023438 C 11.425781 34.09375 11.386719 34.167969 11.339844 34.238281 C 11.296875 34.308594 11.25 34.378906 11.203125 34.449219 C 11.152344 34.515625 11.101562 34.585938 11.046875 34.648438 C 10.824219 34.910156 10.550781 35.132812 10.203125 35.238281 C 9.855469 35.347656 9.4375 35.339844 8.925781 35.113281 C 8.910156 34.957031 8.914062 34.804688 8.921875 34.664062 C 8.925781 34.597656 8.929688 34.527344 8.9375 34.460938 C 8.945312 34.398438 8.957031 34.332031 8.96875 34.273438 C 8.996094 34.152344 9.027344 34.039062 9.066406 33.9375 C 9.109375 33.832031 9.15625 33.738281 9.207031 33.652344 C 9.234375 33.609375 9.261719 33.566406 9.289062 33.527344 C 9.316406 33.488281 9.347656 33.453125 9.378906 33.417969 C 9.441406 33.347656 9.507812 33.285156 9.578125 33.226562 C 9.648438 33.171875 9.71875 33.125 9.792969 33.082031 C 9.867188 33.039062 9.945312 33 10.023438 32.972656 C 10.339844 32.847656 10.675781 32.808594 10.972656 32.808594 C 11.269531 32.808594 11.53125 32.84375 11.703125 32.871094 " fill-opacity="1" fill-rule="nonzero"/><path fill="#6b1e2f" d="M 11.707031 35.304688 C 11.707031 35.304688 11.855469 35.234375 12 35.167969 C 12.144531 35.105469 12.289062 35.039062 12.289062 35.039062 C 12.289062 35.039062 12.191406 35.160156 12.089844 35.285156 C 11.988281 35.410156 11.894531 35.539062 11.894531 35.539062 C 11.875 35.625 11.851562 35.738281 11.820312 35.863281 C 11.804688 35.925781 11.789062 35.992188 11.769531 36.0625 C 11.757812 36.097656 11.75 36.132812 11.738281 36.171875 C 11.726562 36.207031 11.714844 36.242188 11.703125 36.28125 C 11.609375 36.578125 11.476562 36.90625 11.289062 37.199219 C 11.195312 37.347656 11.085938 37.484375 10.957031 37.609375 C 10.832031 37.730469 10.6875 37.835938 10.519531 37.914062 C 10.183594 38.070312 9.753906 38.125 9.203125 37.96875 C 9.066406 37.328125 9.125 36.820312 9.285156 36.441406 C 9.367188 36.253906 9.476562 36.09375 9.601562 35.960938 C 9.726562 35.828125 9.871094 35.722656 10.019531 35.636719 C 10.320312 35.46875 10.652344 35.382812 10.957031 35.339844 C 11.257812 35.296875 11.53125 35.296875 11.707031 35.304688 " fill-opacity="1" fill-rule="nonzero"/><path fill="#6b1e2f" d="M 12.050781 37.777344 C 12.050781 37.777344 12.191406 37.6875 12.328125 37.597656 C 12.464844 37.511719 12.605469 37.425781 12.605469 37.425781 C 12.605469 37.425781 12.519531 37.5625 12.433594 37.703125 C 12.414062 37.738281 12.394531 37.773438 12.375 37.808594 C 12.355469 37.839844 12.335938 37.871094 12.320312 37.898438 C 12.292969 37.953125 12.269531 37.988281 12.269531 37.988281 C 12.265625 38.078125 12.257812 38.195312 12.242188 38.328125 C 12.230469 38.460938 12.210938 38.609375 12.183594 38.765625 C 12.15625 38.921875 12.117188 39.089844 12.070312 39.257812 C 12.027344 39.425781 11.964844 39.59375 11.890625 39.757812 C 11.816406 39.917969 11.726562 40.074219 11.613281 40.21875 C 11.5 40.359375 11.371094 40.484375 11.210938 40.589844 C 10.890625 40.796875 10.464844 40.910156 9.882812 40.824219 C 9.652344 40.195312 9.644531 39.675781 9.753906 39.269531 C 9.8125 39.066406 9.898438 38.886719 10.007812 38.738281 C 10.117188 38.585938 10.246094 38.457031 10.386719 38.351562 C 10.527344 38.242188 10.679688 38.15625 10.832031 38.085938 C 10.988281 38.015625 11.144531 37.960938 11.296875 37.917969 C 11.59375 37.832031 11.871094 37.792969 12.050781 37.777344 " fill-opacity="1" fill-rule="nonzero"/><path fill="#6b1e2f" d="M 12.746094 40.238281 C 12.746094 40.238281 12.871094 40.128906 13 40.019531 C 13.125 39.914062 13.253906 39.808594 13.253906 39.808594 C 13.253906 39.808594 13.1875 39.960938 13.121094 40.113281 C 13.054688 40.265625 12.996094 40.421875 12.996094 40.421875 C 13.003906 40.515625 13.011719 40.636719 13.015625 40.773438 C 13.019531 40.90625 13.023438 41.0625 13.015625 41.226562 C 13.011719 41.386719 12.996094 41.5625 12.96875 41.738281 C 12.949219 41.914062 12.910156 42.09375 12.855469 42.269531 C 12.753906 42.617188 12.574219 42.953125 12.28125 43.207031 C 11.988281 43.460938 11.570312 43.632812 10.972656 43.628906 C 10.652344 43.027344 10.570312 42.496094 10.625 42.070312 C 10.65625 41.855469 10.71875 41.667969 10.804688 41.496094 C 10.898438 41.328125 11.011719 41.179688 11.136719 41.054688 C 11.390625 40.796875 11.707031 40.617188 11.996094 40.488281 C 12.289062 40.359375 12.5625 40.28125 12.746094 40.238281 " fill-opacity="1" fill-rule="nonzero"/><path fill="#6b1e2f" d="M 13.789062 42.640625 C 13.789062 42.640625 13.902344 42.511719 14.015625 42.382812 C 14.128906 42.257812 14.246094 42.132812 14.246094 42.132812 C 14.246094 42.132812 14.199219 42.296875 14.15625 42.460938 C 14.132812 42.542969 14.109375 42.625 14.09375 42.6875 C 14.078125 42.75 14.070312 42.792969 14.070312 42.792969 C 14.089844 42.886719 14.117188 43.003906 14.136719 43.144531 C 14.160156 43.28125 14.183594 43.433594 14.199219 43.601562 C 14.21875 43.765625 14.230469 43.941406 14.226562 44.125 C 14.226562 44.308594 14.21875 44.492188 14.1875 44.679688 C 14.15625 44.863281 14.113281 45.046875 14.039062 45.222656 C 14.003906 45.308594 13.960938 45.394531 13.910156 45.476562 C 13.859375 45.558594 13.804688 45.636719 13.738281 45.710938 C 13.476562 46.007812 13.078125 46.242188 12.472656 46.320312 C 12.058594 45.753906 11.902344 45.234375 11.898438 44.792969 C 11.898438 44.683594 11.910156 44.574219 11.925781 44.476562 C 11.945312 44.375 11.96875 44.277344 12.003906 44.1875 C 12.070312 44 12.164062 43.835938 12.277344 43.691406 C 12.386719 43.542969 12.515625 43.414062 12.652344 43.296875 C 12.785156 43.183594 12.929688 43.082031 13.066406 43 C 13.347656 42.828125 13.613281 42.710938 13.789062 42.640625 " fill-opacity="1" fill-rule="nonzero"/><path fill="#6b1e2f" d="M 15.183594 44.929688 C 15.183594 44.929688 15.28125 44.785156 15.378906 44.636719 C 15.425781 44.566406 15.476562 44.496094 15.511719 44.441406 C 15.550781 44.386719 15.574219 44.351562 15.574219 44.351562 C 15.574219 44.351562 15.566406 44.394531 15.558594 44.457031 C 15.550781 44.523438 15.539062 44.609375 15.527344 44.695312 C 15.519531 44.78125 15.507812 44.871094 15.5 44.933594 C 15.496094 44.96875 15.492188 44.996094 15.492188 45.015625 C 15.488281 45.035156 15.488281 45.042969 15.488281 45.042969 C 15.523438 45.136719 15.566406 45.253906 15.609375 45.390625 C 15.648438 45.523438 15.695312 45.675781 15.734375 45.84375 C 15.753906 45.929688 15.777344 46.011719 15.792969 46.101562 C 15.808594 46.1875 15.824219 46.277344 15.835938 46.371094 C 15.863281 46.554688 15.878906 46.746094 15.875 46.9375 C 15.871094 47.035156 15.863281 47.128906 15.851562 47.222656 C 15.84375 47.316406 15.824219 47.414062 15.800781 47.507812 C 15.75 47.691406 15.671875 47.875 15.5625 48.042969 C 15.453125 48.214844 15.304688 48.371094 15.109375 48.507812 C 14.910156 48.644531 14.667969 48.757812 14.371094 48.839844 C 14.308594 48.777344 14.25 48.710938 14.195312 48.648438 C 14.140625 48.582031 14.089844 48.519531 14.042969 48.457031 C 13.953125 48.328125 13.875 48.203125 13.808594 48.082031 C 13.746094 47.957031 13.695312 47.835938 13.65625 47.71875 C 13.636719 47.660156 13.621094 47.601562 13.605469 47.542969 C 13.59375 47.484375 13.582031 47.429688 13.574219 47.371094 C 13.507812 46.925781 13.617188 46.53125 13.800781 46.203125 C 13.984375 45.875 14.246094 45.605469 14.503906 45.390625 C 14.761719 45.179688 15.015625 45.027344 15.183594 44.929688 " fill-opacity="1" fill-rule="nonzero"/><path fill="#6b1e2f" d="M 16.917969 47.054688 C 16.917969 47.054688 16.996094 46.894531 17.074219 46.734375 C 17.113281 46.652344 17.152344 46.574219 17.183594 46.515625 C 17.214844 46.453125 17.234375 46.414062 17.234375 46.414062 C 17.234375 46.414062 17.234375 46.460938 17.230469 46.527344 C 17.234375 46.59375 17.234375 46.679688 17.234375 46.769531 C 17.238281 46.949219 17.242188 47.128906 17.242188 47.128906 C 17.289062 47.21875 17.351562 47.328125 17.414062 47.460938 C 17.472656 47.59375 17.542969 47.738281 17.605469 47.902344 C 17.636719 47.980469 17.667969 48.066406 17.695312 48.152344 C 17.726562 48.238281 17.753906 48.328125 17.78125 48.417969 C 17.808594 48.511719 17.828125 48.605469 17.847656 48.699219 C 17.867188 48.792969 17.886719 48.890625 17.894531 48.984375 C 17.90625 49.082031 17.914062 49.179688 17.914062 49.277344 C 17.914062 49.375 17.914062 49.472656 17.902344 49.570312 C 17.878906 49.765625 17.828125 49.960938 17.738281 50.148438 C 17.558594 50.523438 17.230469 50.871094 16.644531 51.125 C 16.574219 51.066406 16.503906 51.011719 16.441406 50.953125 C 16.378906 50.894531 16.320312 50.835938 16.261719 50.78125 C 16.152344 50.664062 16.050781 50.550781 15.972656 50.433594 C 15.890625 50.316406 15.820312 50.203125 15.765625 50.089844 C 15.707031 49.976562 15.667969 49.863281 15.632812 49.75 C 15.601562 49.640625 15.582031 49.53125 15.570312 49.425781 C 15.558594 49.320312 15.558594 49.214844 15.566406 49.113281 C 15.582031 48.910156 15.628906 48.71875 15.699219 48.539062 C 15.839844 48.179688 16.066406 47.867188 16.296875 47.617188 C 16.527344 47.367188 16.761719 47.175781 16.917969 47.054688 " fill-opacity="1" fill-rule="nonzero"/><path fill="#6b1e2f" d="M 14.566406 54.1875 C 14.679688 54.015625 14.867188 53.773438 15.121094 53.535156 C 15.375 53.296875 15.699219 53.066406 16.074219 52.917969 C 16.167969 52.878906 16.265625 52.847656 16.367188 52.824219 C 16.46875 52.796875 16.570312 52.777344 16.679688 52.761719 C 16.785156 52.75 16.898438 52.746094 17.011719 52.75 C 17.066406 52.75 17.125 52.753906 17.183594 52.761719 C 17.242188 52.765625 17.304688 52.773438 17.363281 52.78125 C 17.484375 52.800781 17.609375 52.832031 17.734375 52.875 C 17.863281 52.914062 17.996094 52.960938 18.128906 53.023438 C 18.199219 53.054688 18.265625 53.089844 18.335938 53.125 C 18.40625 53.164062 18.476562 53.199219 18.550781 53.242188 C 18.621094 53.285156 18.695312 53.332031 18.769531 53.382812 C 18.84375 53.429688 18.921875 53.480469 19 53.539062 C 19 53.539062 19.035156 53.558594 19.101562 53.605469 C 19.171875 53.648438 19.269531 53.710938 19.402344 53.789062 C 19.464844 53.828125 19.535156 53.871094 19.613281 53.917969 C 19.652344 53.941406 19.695312 53.964844 19.734375 53.992188 C 19.777344 54.015625 19.824219 54.039062 19.867188 54.066406 C 19.960938 54.121094 20.058594 54.175781 20.160156 54.234375 C 20.261719 54.292969 20.371094 54.347656 20.484375 54.410156 C 20.941406 54.65625 21.480469 54.929688 22.074219 55.1875 C 22.667969 55.445312 23.308594 55.699219 23.964844 55.914062 C 24.621094 56.132812 25.285156 56.320312 25.914062 56.46875 C 26.546875 56.613281 27.140625 56.726562 27.652344 56.796875 C 27.78125 56.820312 27.902344 56.832031 28.019531 56.847656 C 28.136719 56.863281 28.25 56.878906 28.351562 56.890625 C 28.5625 56.910156 28.746094 56.929688 28.894531 56.945312 C 29.195312 56.96875 29.367188 56.980469 29.367188 56.980469 C 29.367188 56.980469 29.214844 56.976562 28.945312 56.972656 C 28.675781 56.96875 28.292969 56.953125 27.832031 56.917969 C 27.371094 56.878906 26.832031 56.828125 26.253906 56.738281 C 25.679688 56.648438 25.070312 56.53125 24.464844 56.390625 C 24.3125 56.351562 24.160156 56.316406 24.011719 56.277344 C 23.863281 56.234375 23.710938 56.195312 23.5625 56.15625 C 23.417969 56.113281 23.269531 56.066406 23.125 56.023438 C 23.054688 56.003906 22.980469 55.980469 22.910156 55.957031 C 22.839844 55.933594 22.769531 55.914062 22.699219 55.890625 C 22.144531 55.707031 21.628906 55.515625 21.191406 55.335938 C 21.085938 55.292969 20.980469 55.25 20.882812 55.207031 C 20.78125 55.164062 20.6875 55.121094 20.601562 55.085938 C 20.425781 55.007812 20.273438 54.9375 20.148438 54.878906 C 20.023438 54.820312 19.925781 54.777344 19.859375 54.742188 C 19.792969 54.710938 19.757812 54.691406 19.757812 54.691406 C 19.640625 54.636719 19.523438 54.59375 19.402344 54.574219 C 19.285156 54.550781 19.167969 54.542969 19.054688 54.554688 C 18.832031 54.578125 18.625 54.664062 18.476562 54.816406 C 18.242188 55.054688 17.9375 55.195312 17.597656 55.257812 C 17.429688 55.289062 17.253906 55.300781 17.074219 55.296875 C 16.984375 55.292969 16.894531 55.289062 16.800781 55.277344 C 16.710938 55.269531 16.621094 55.253906 16.53125 55.238281 C 16.4375 55.222656 16.347656 55.203125 16.257812 55.183594 C 16.214844 55.171875 16.167969 55.160156 16.125 55.148438 C 16.082031 55.136719 16.035156 55.125 15.992188 55.109375 C 15.820312 55.058594 15.652344 55 15.496094 54.9375 C 15.339844 54.875 15.195312 54.808594 15.066406 54.75 C 15 54.71875 14.941406 54.6875 14.882812 54.660156 C 14.828125 54.628906 14.777344 54.601562 14.730469 54.574219 C 14.730469 54.574219 14.507812 54.546875 14.285156 54.515625 C 14.171875 54.5 14.058594 54.484375 13.976562 54.46875 C 13.894531 54.457031 13.835938 54.445312 13.835938 54.445312 C 13.835938 54.445312 14.019531 54.382812 14.203125 54.320312 C 14.382812 54.253906 14.566406 54.1875 14.566406 54.1875 " fill-opacity="1" fill-rule="nonzero"/><path fill="#6b1e2f" d="M 18.96875 48.957031 C 18.824219 49.101562 18.617188 49.328125 18.417969 49.613281 C 18.222656 49.902344 18.039062 50.246094 17.945312 50.628906 C 17.925781 50.726562 17.90625 50.824219 17.898438 50.925781 C 17.890625 51.023438 17.886719 51.125 17.894531 51.230469 C 17.902344 51.332031 17.917969 51.4375 17.945312 51.542969 C 17.957031 51.597656 17.972656 51.652344 17.992188 51.703125 C 18.011719 51.757812 18.03125 51.808594 18.058594 51.863281 C 18.105469 51.96875 18.164062 52.078125 18.238281 52.183594 C 18.3125 52.292969 18.398438 52.398438 18.496094 52.503906 C 18.546875 52.554688 18.601562 52.609375 18.660156 52.660156 C 18.714844 52.710938 18.777344 52.757812 18.84375 52.808594 C 18.90625 52.859375 18.976562 52.910156 19.046875 52.957031 C 19.121094 53.007812 19.199219 53.050781 19.28125 53.097656 C 19.28125 53.097656 19.316406 53.121094 19.382812 53.164062 C 19.449219 53.207031 19.546875 53.269531 19.671875 53.34375 C 19.734375 53.382812 19.804688 53.425781 19.882812 53.472656 C 19.917969 53.492188 19.960938 53.515625 20 53.542969 C 20.042969 53.566406 20.085938 53.589844 20.128906 53.617188 C 20.21875 53.667969 20.3125 53.722656 20.414062 53.777344 C 20.511719 53.835938 20.621094 53.890625 20.730469 53.953125 C 21.175781 54.191406 21.703125 54.457031 22.285156 54.710938 C 22.863281 54.964844 23.492188 55.207031 24.128906 55.421875 C 24.769531 55.636719 25.417969 55.816406 26.035156 55.960938 C 26.648438 56.105469 27.230469 56.210938 27.730469 56.28125 C 27.851562 56.304688 27.972656 56.316406 28.085938 56.332031 C 28.203125 56.347656 28.308594 56.359375 28.410156 56.371094 C 28.617188 56.394531 28.792969 56.414062 28.941406 56.425781 C 29.234375 56.449219 29.402344 56.460938 29.402344 56.460938 C 29.402344 56.460938 29.253906 56.441406 28.996094 56.402344 C 28.734375 56.367188 28.367188 56.304688 27.925781 56.21875 C 27.488281 56.125 26.980469 56.011719 26.445312 55.859375 C 25.90625 55.707031 25.34375 55.523438 24.789062 55.320312 C 24.652344 55.265625 24.511719 55.214844 24.375 55.160156 C 24.238281 55.105469 24.105469 55.046875 23.96875 54.996094 C 23.835938 54.9375 23.703125 54.878906 23.574219 54.820312 C 23.507812 54.792969 23.445312 54.765625 23.382812 54.734375 C 23.316406 54.703125 23.253906 54.675781 23.191406 54.644531 C 22.691406 54.410156 22.238281 54.175781 21.855469 53.957031 C 21.757812 53.902344 21.664062 53.855469 21.578125 53.800781 C 21.492188 53.75 21.410156 53.703125 21.335938 53.65625 C 21.179688 53.566406 21.050781 53.484375 20.941406 53.417969 C 20.832031 53.347656 20.746094 53.296875 20.691406 53.257812 C 20.632812 53.21875 20.605469 53.199219 20.605469 53.199219 C 20.503906 53.132812 20.417969 53.054688 20.347656 52.96875 C 20.277344 52.878906 20.226562 52.78125 20.1875 52.679688 C 20.117188 52.480469 20.117188 52.265625 20.195312 52.070312 C 20.316406 51.757812 20.335938 51.4375 20.300781 51.136719 C 20.28125 50.980469 20.25 50.828125 20.207031 50.683594 C 20.183594 50.609375 20.160156 50.535156 20.132812 50.464844 C 20.109375 50.394531 20.078125 50.324219 20.050781 50.253906 C 20.023438 50.183594 19.992188 50.117188 19.957031 50.050781 C 19.941406 50.019531 19.925781 49.988281 19.910156 49.957031 C 19.894531 49.921875 19.878906 49.890625 19.859375 49.859375 C 19.796875 49.734375 19.726562 49.617188 19.660156 49.507812 C 19.59375 49.398438 19.527344 49.296875 19.46875 49.210938 C 19.4375 49.167969 19.40625 49.125 19.378906 49.085938 C 19.351562 49.050781 19.328125 49.011719 19.304688 48.980469 C 19.304688 48.980469 19.273438 48.800781 19.246094 48.625 C 19.230469 48.535156 19.21875 48.445312 19.210938 48.375 C 19.203125 48.308594 19.195312 48.265625 19.195312 48.265625 C 19.195312 48.265625 19.136719 48.4375 19.078125 48.609375 C 19.023438 48.785156 18.96875 48.957031 18.96875 48.957031 " fill-opacity="1" fill-rule="nonzero"/><path fill="#6b1e2f" d="M 14.140625 20.632812 L 14.609375 20.269531 L 14.339844 20.800781 C 14.332031 21.453125 14.136719 23.453125 12.152344 23.25 C 11.574219 21.34375 13.503906 20.769531 14.140625 20.632812 " fill-opacity="1" fill-rule="nonzero"/><g clip-path="url(#952f6738de)"><path fill="#6b1e2f" d="M 2.433594 33.753906 C 2.433594 18.53125 14.773438 6.191406 29.996094 6.191406 C 45.21875 6.191406 57.558594 18.53125 57.558594 33.753906 C 57.558594 37.492188 56.8125 41.054688 55.464844 44.304688 C 57.398438 40.460938 58.488281 36.117188 58.488281 31.519531 C 58.488281 15.78125 45.734375 3.023438 29.996094 3.023438 C 14.257812 3.023438 1.5 15.78125 1.5 31.519531 C 1.5 36.117188 2.589844 40.460938 4.523438 44.304688 C 3.175781 41.054688 2.433594 37.492188 2.433594 33.753906 " fill-opacity="1" fill-rule="nonzero"/></g><g clip-path="url(#d3d663653d)"><g clip-path="url(#e1e487074c)"><g transform="matrix(1, 0, 0, 1, 24, 3)"><g clip-path="url(#73d7d8f92d)"><g clip-path="url(#96e9f018e8)"><g clip-path="url(#f7edd78a5a)"><rect x="-37.2" width="86.4" fill="#6b1e2f" height="86.4" y="-16.2" fill-opacity="1"/></g></g></g></g></g></g></svg>