<svg xmlns="http://www.w3.org/2000/svg" xmlns:xlink="http://www.w3.org/1999/xlink" width="40" zoomAndPan="magnify" viewBox="0 0 30 30.000001" height="40" preserveAspectRatio="xMidYMid meet" version="1.0"><defs><clipPath id="6f1f4e30dc"><path d="M 15 25 L 23 25 L 23 27.582031 L 15 27.582031 Z M 15 25 " clip-rule="nonzero"/></clipPath><clipPath id="d059d58650"><path d="M 15 23 L 21 23 L 21 27.582031 L 15 27.582031 Z M 15 23 " clip-rule="nonzero"/></clipPath><clipPath id="93203e74d1"><path d="M 7 25 L 15 25 L 15 27.582031 L 7 27.582031 Z M 7 25 " clip-rule="nonzero"/></clipPath><clipPath id="b0cc7c0ff0"><path d="M 9 23 L 15 23 L 15 27.582031 L 9 27.582031 Z M 9 23 " clip-rule="nonzero"/></clipPath><clipPath id="9c93d64468"><path d="M 1.210938 1.453125 L 28.792969 1.453125 L 28.792969 22 L 1.210938 22 Z M 1.210938 1.453125 " clip-rule="nonzero"/></clipPath><clipPath id="8c9b2ad77c"><path d="M 11.117188 2.378906 L 11.464844 2.378906 L 11.464844 2.699219 L 11.117188 2.699219 Z M 11.117188 2.378906 " clip-rule="nonzero"/></clipPath><clipPath id="33537ed12f"><path d="M 11.445312 2.613281 C 10.789062 2.832031 11.371094 2.394531 11.371094 2.394531 " clip-rule="nonzero"/></clipPath><clipPath id="2ec3ebbca8"><path d="M 0.117188 0.378906 L 0.464844 0.378906 L 0.464844 0.699219 L 0.117188 0.699219 Z M 0.117188 0.378906 " clip-rule="nonzero"/></clipPath><clipPath id="bd38232396"><path d="M 0.445312 0.613281 C -0.210938 0.832031 0.371094 0.394531 0.371094 0.394531 " clip-rule="nonzero"/></clipPath><clipPath id="d238fef33c"><rect x="0" width="1" y="0" height="1"/></clipPath></defs><path fill="#6b1e2f" d="M 11.128906 12.039062 C 11.128906 11.214844 11.273438 8.746094 11.273438 8.746094 C 11.277344 8.65625 11.355469 8.585938 11.445312 8.597656 C 11.523438 8.605469 11.582031 8.671875 11.585938 8.753906 L 11.714844 11.683594 C 11.722656 11.871094 11.863281 12.027344 12.046875 12.039062 C 12.253906 12.054688 12.425781 11.898438 12.433594 11.699219 L 12.5625 8.75 C 12.566406 8.667969 12.628906 8.601562 12.710938 8.597656 C 12.714844 8.597656 12.71875 8.597656 12.726562 8.597656 C 12.730469 8.597656 12.734375 8.597656 12.738281 8.597656 C 12.820312 8.601562 12.882812 8.667969 12.886719 8.75 L 13.015625 11.699219 C 13.023438 11.898438 13.195312 12.054688 13.402344 12.039062 C 13.585938 12.027344 13.726562 11.871094 13.734375 11.683594 L 13.863281 8.753906 C 13.867188 8.671875 13.925781 8.605469 14.003906 8.597656 C 14.09375 8.585938 14.171875 8.65625 14.175781 8.746094 C 14.175781 8.746094 14.320312 11.214844 14.320312 12.039062 C 14.320312 13.566406 13.203125 15.058594 13.203125 15.46875 L 13.203125 17.730469 C 13.476562 17.730469 13.699219 17.953125 13.699219 18.226562 L 13.699219 23.835938 C 13.699219 24.375 13.261719 24.8125 12.726562 24.8125 C 12.1875 24.8125 11.75 24.375 11.75 23.835938 L 11.75 18.226562 C 11.75 17.953125 11.972656 17.730469 12.246094 17.730469 L 12.246094 15.46875 C 12.246094 15.058594 11.128906 13.566406 11.128906 12.039062 " fill-opacity="1" fill-rule="nonzero"/><path fill="#6b1e2f" d="M 16.453125 17.730469 L 16.453125 15.46875 C 16.453125 15.058594 15.003906 14.007812 15.003906 12.480469 C 15.003906 10.492188 16.117188 8.746094 16.933594 8.746094 C 17.75 8.746094 18.863281 10.492188 18.863281 12.480469 C 18.863281 14.007812 17.410156 15.058594 17.410156 15.46875 L 17.410156 17.730469 C 17.683594 17.730469 17.90625 17.953125 17.90625 18.226562 L 17.90625 23.835938 C 17.90625 24.375 17.472656 24.8125 16.933594 24.8125 C 16.394531 24.8125 15.957031 24.375 15.957031 23.835938 L 15.957031 18.226562 C 15.957031 17.953125 16.179688 17.730469 16.453125 17.730469 " fill-opacity="1" fill-rule="nonzero"/><path fill="#6b1e2f" d="M 24.632812 10.292969 C 24.632812 10.292969 24.628906 10.210938 24.621094 10.125 C 24.617188 10.085938 24.613281 10.042969 24.609375 10.011719 C 24.605469 9.980469 24.601562 9.957031 24.601562 9.957031 C 24.601562 9.957031 24.597656 9.972656 24.585938 10 C 24.574219 10.023438 24.5625 10.058594 24.546875 10.09375 C 24.519531 10.160156 24.492188 10.226562 24.492188 10.226562 C 24.425781 10.265625 24.332031 10.332031 24.234375 10.425781 C 24.140625 10.515625 24.050781 10.632812 23.988281 10.769531 C 23.957031 10.839844 23.933594 10.914062 23.917969 10.996094 C 23.914062 11.035156 23.910156 11.078125 23.90625 11.121094 C 23.90625 11.140625 23.90625 11.164062 23.910156 11.183594 C 23.910156 11.207031 23.910156 11.230469 23.914062 11.253906 C 23.925781 11.34375 23.953125 11.441406 23.992188 11.542969 C 24.011719 11.597656 24.039062 11.648438 24.066406 11.707031 C 24.097656 11.761719 24.132812 11.820312 24.171875 11.878906 C 24.414062 11.863281 24.585938 11.789062 24.695312 11.671875 C 24.75 11.613281 24.789062 11.542969 24.816406 11.464844 C 24.84375 11.390625 24.855469 11.304688 24.863281 11.21875 C 24.871094 11.046875 24.839844 10.859375 24.789062 10.695312 C 24.777344 10.65625 24.765625 10.613281 24.753906 10.578125 C 24.738281 10.539062 24.726562 10.503906 24.710938 10.46875 C 24.683594 10.402344 24.65625 10.339844 24.632812 10.292969 " fill-opacity="1" fill-rule="nonzero"/><path fill="#6b1e2f" d="M 24.734375 13.03125 C 24.988281 13.050781 25.167969 12.996094 25.296875 12.894531 C 25.425781 12.789062 25.5 12.632812 25.53125 12.457031 C 25.539062 12.414062 25.546875 12.371094 25.550781 12.324219 C 25.554688 12.28125 25.554688 12.234375 25.554688 12.1875 C 25.554688 12.097656 25.546875 12.003906 25.535156 11.917969 C 25.511719 11.742188 25.464844 11.589844 25.433594 11.484375 C 25.433594 11.484375 25.433594 11.464844 25.4375 11.433594 C 25.4375 11.398438 25.441406 11.355469 25.441406 11.3125 C 25.445312 11.226562 25.449219 11.136719 25.449219 11.136719 C 25.449219 11.136719 25.410156 11.203125 25.375 11.269531 C 25.335938 11.332031 25.296875 11.394531 25.296875 11.394531 C 25.226562 11.425781 25.117188 11.480469 25.011719 11.558594 C 24.902344 11.640625 24.792969 11.746094 24.707031 11.875 C 24.667969 11.941406 24.632812 12.015625 24.605469 12.09375 C 24.59375 12.136719 24.585938 12.175781 24.578125 12.21875 C 24.570312 12.265625 24.566406 12.308594 24.566406 12.355469 C 24.5625 12.402344 24.566406 12.453125 24.574219 12.503906 C 24.578125 12.554688 24.589844 12.609375 24.601562 12.664062 C 24.617188 12.71875 24.632812 12.777344 24.65625 12.839844 C 24.667969 12.871094 24.679688 12.902344 24.691406 12.933594 C 24.707031 12.964844 24.71875 12.996094 24.734375 13.03125 " fill-opacity="1" fill-rule="nonzero"/><path fill="#6b1e2f" d="M 26.074219 12.816406 C 26.074219 12.816406 26.078125 12.792969 26.085938 12.761719 C 26.09375 12.726562 26.101562 12.683594 26.109375 12.640625 C 26.125 12.550781 26.140625 12.464844 26.140625 12.464844 C 26.140625 12.464844 26.09375 12.523438 26.046875 12.585938 C 26 12.644531 25.949219 12.703125 25.949219 12.703125 C 25.871094 12.726562 25.757812 12.765625 25.636719 12.828125 C 25.515625 12.894531 25.386719 12.984375 25.28125 13.105469 C 25.230469 13.167969 25.183594 13.238281 25.148438 13.316406 C 25.113281 13.390625 25.082031 13.476562 25.070312 13.574219 C 25.035156 13.765625 25.058594 13.992188 25.144531 14.28125 C 25.398438 14.335938 25.589844 14.3125 25.734375 14.222656 C 25.882812 14.136719 25.976562 13.988281 26.035156 13.816406 C 26.066406 13.730469 26.085938 13.636719 26.097656 13.542969 C 26.113281 13.449219 26.117188 13.355469 26.117188 13.265625 C 26.117188 13.085938 26.09375 12.921875 26.074219 12.816406 " fill-opacity="1" fill-rule="nonzero"/><path fill="#6b1e2f" d="M 25.382812 15.613281 C 25.632812 15.703125 25.832031 15.703125 25.992188 15.636719 C 26.070312 15.601562 26.140625 15.550781 26.199219 15.488281 C 26.230469 15.457031 26.257812 15.421875 26.285156 15.382812 C 26.3125 15.347656 26.332031 15.304688 26.355469 15.265625 C 26.4375 15.097656 26.488281 14.902344 26.511719 14.71875 C 26.519531 14.675781 26.523438 14.628906 26.527344 14.585938 C 26.53125 14.5625 26.53125 14.542969 26.535156 14.523438 C 26.535156 14.5 26.535156 14.480469 26.535156 14.460938 C 26.539062 14.382812 26.539062 14.3125 26.535156 14.257812 C 26.535156 14.257812 26.542969 14.234375 26.554688 14.203125 C 26.566406 14.171875 26.582031 14.128906 26.59375 14.085938 C 26.609375 14.042969 26.625 13.996094 26.636719 13.964844 C 26.648438 13.933594 26.652344 13.910156 26.652344 13.910156 C 26.652344 13.910156 26.640625 13.925781 26.617188 13.945312 C 26.597656 13.964844 26.566406 13.992188 26.539062 14.019531 C 26.480469 14.074219 26.425781 14.125 26.425781 14.125 C 26.34375 14.136719 26.21875 14.160156 26.085938 14.207031 C 25.953125 14.257812 25.8125 14.332031 25.691406 14.441406 C 25.628906 14.496094 25.574219 14.558594 25.523438 14.632812 C 25.5 14.667969 25.480469 14.707031 25.457031 14.75 C 25.4375 14.789062 25.421875 14.835938 25.40625 14.882812 C 25.347656 15.074219 25.335938 15.308594 25.382812 15.613281 " fill-opacity="1" fill-rule="nonzero"/><path fill="#6b1e2f" d="M 25.4375 16.996094 C 25.675781 17.125 25.878906 17.152344 26.050781 17.105469 C 26.222656 17.058594 26.363281 16.9375 26.472656 16.78125 C 26.5 16.742188 26.523438 16.699219 26.546875 16.65625 C 26.570312 16.613281 26.59375 16.570312 26.613281 16.527344 C 26.632812 16.480469 26.652344 16.433594 26.667969 16.386719 C 26.683594 16.34375 26.695312 16.296875 26.710938 16.25 C 26.722656 16.207031 26.734375 16.160156 26.746094 16.117188 C 26.753906 16.074219 26.761719 16.03125 26.769531 15.992188 C 26.78125 15.914062 26.792969 15.84375 26.796875 15.785156 C 26.796875 15.785156 26.839844 15.703125 26.882812 15.621094 C 26.90625 15.578125 26.925781 15.535156 26.941406 15.503906 C 26.957031 15.472656 26.964844 15.453125 26.964844 15.453125 C 26.964844 15.453125 26.902344 15.5 26.835938 15.546875 C 26.804688 15.570312 26.769531 15.589844 26.746094 15.609375 C 26.71875 15.625 26.703125 15.636719 26.703125 15.636719 C 26.621094 15.636719 26.492188 15.640625 26.351562 15.671875 C 26.207031 15.703125 26.054688 15.757812 25.914062 15.851562 C 25.878906 15.875 25.847656 15.902344 25.8125 15.929688 C 25.78125 15.957031 25.75 15.988281 25.71875 16.023438 C 25.6875 16.054688 25.660156 16.09375 25.636719 16.132812 C 25.621094 16.152344 25.609375 16.171875 25.597656 16.195312 C 25.585938 16.214844 25.574219 16.238281 25.5625 16.261719 C 25.542969 16.304688 25.523438 16.355469 25.507812 16.410156 C 25.492188 16.460938 25.476562 16.519531 25.464844 16.578125 C 25.460938 16.609375 25.457031 16.640625 25.453125 16.675781 C 25.449219 16.707031 25.445312 16.742188 25.441406 16.773438 C 25.4375 16.84375 25.4375 16.917969 25.4375 16.996094 " fill-opacity="1" fill-rule="nonzero"/><path fill="#6b1e2f" d="M 26.847656 17.371094 C 26.847656 17.371094 26.902344 17.296875 26.957031 17.214844 C 27.011719 17.136719 27.066406 17.058594 27.066406 17.058594 C 27.066406 17.058594 26.992188 17.097656 26.917969 17.136719 C 26.847656 17.171875 26.773438 17.210938 26.773438 17.210938 C 26.6875 17.195312 26.558594 17.183594 26.410156 17.195312 C 26.261719 17.207031 26.097656 17.242188 25.941406 17.316406 C 25.867188 17.355469 25.792969 17.402344 25.722656 17.460938 C 25.652344 17.523438 25.585938 17.59375 25.53125 17.683594 C 25.417969 17.855469 25.339844 18.089844 25.300781 18.410156 C 25.527344 18.574219 25.726562 18.628906 25.90625 18.605469 C 25.996094 18.59375 26.082031 18.5625 26.160156 18.515625 C 26.238281 18.46875 26.3125 18.40625 26.378906 18.335938 C 26.511719 18.191406 26.617188 18.007812 26.695312 17.832031 C 26.703125 17.808594 26.714844 17.789062 26.722656 17.765625 C 26.730469 17.746094 26.738281 17.722656 26.746094 17.703125 C 26.761719 17.660156 26.777344 17.617188 26.789062 17.578125 C 26.816406 17.5 26.835938 17.429688 26.847656 17.371094 " fill-opacity="1" fill-rule="nonzero"/><path fill="#6b1e2f" d="M 24.964844 19.828125 C 25.167969 20.023438 25.363281 20.109375 25.550781 20.109375 C 25.644531 20.109375 25.734375 20.089844 25.820312 20.054688 C 25.90625 20.015625 25.988281 19.964844 26.066406 19.902344 C 26.144531 19.835938 26.214844 19.761719 26.28125 19.683594 C 26.347656 19.605469 26.402344 19.519531 26.457031 19.433594 C 26.507812 19.351562 26.550781 19.265625 26.589844 19.191406 C 26.625 19.113281 26.65625 19.046875 26.675781 18.988281 C 26.675781 18.988281 26.695312 18.972656 26.71875 18.945312 C 26.730469 18.933594 26.746094 18.917969 26.761719 18.902344 C 26.777344 18.882812 26.792969 18.867188 26.808594 18.847656 C 26.875 18.773438 26.941406 18.703125 26.941406 18.703125 C 26.941406 18.703125 26.863281 18.730469 26.78125 18.757812 C 26.703125 18.789062 26.625 18.816406 26.625 18.816406 C 26.539062 18.789062 26.410156 18.761719 26.257812 18.75 C 26.183594 18.746094 26.101562 18.746094 26.019531 18.753906 C 25.9375 18.765625 25.851562 18.78125 25.765625 18.808594 C 25.683594 18.835938 25.601562 18.871094 25.523438 18.921875 C 25.441406 18.976562 25.367188 19.039062 25.300781 19.121094 C 25.160156 19.28125 25.046875 19.507812 24.964844 19.828125 " fill-opacity="1" fill-rule="nonzero"/><path fill="#6b1e2f" d="M 26.277344 20.605469 C 26.277344 20.605469 26.355469 20.546875 26.429688 20.480469 C 26.507812 20.417969 26.585938 20.351562 26.585938 20.351562 C 26.585938 20.351562 26.5 20.371094 26.414062 20.386719 C 26.332031 20.40625 26.246094 20.421875 26.246094 20.421875 C 26.164062 20.386719 26.035156 20.335938 25.882812 20.304688 C 25.734375 20.277344 25.558594 20.265625 25.378906 20.296875 C 25.292969 20.3125 25.203125 20.339844 25.117188 20.378906 C 25.03125 20.421875 24.941406 20.472656 24.863281 20.546875 C 24.699219 20.691406 24.554688 20.902344 24.425781 21.21875 C 24.605469 21.441406 24.792969 21.558594 24.980469 21.582031 C 25.167969 21.613281 25.355469 21.550781 25.53125 21.445312 C 25.617188 21.390625 25.703125 21.324219 25.78125 21.253906 C 25.855469 21.183594 25.925781 21.105469 25.992188 21.027344 C 26.054688 20.949219 26.113281 20.871094 26.160156 20.796875 C 26.207031 20.726562 26.246094 20.660156 26.277344 20.605469 " fill-opacity="1" fill-rule="nonzero"/><path fill="#6b1e2f" d="M 23.683594 22.550781 C 23.835938 22.804688 24.007812 22.945312 24.195312 23 C 24.242188 23.011719 24.289062 23.019531 24.335938 23.023438 C 24.386719 23.027344 24.433594 23.023438 24.480469 23.019531 C 24.578125 23.007812 24.675781 22.976562 24.773438 22.9375 C 24.867188 22.894531 24.960938 22.839844 25.050781 22.777344 C 25.136719 22.714844 25.21875 22.648438 25.296875 22.578125 C 25.371094 22.507812 25.441406 22.433594 25.5 22.371094 C 25.558594 22.300781 25.605469 22.242188 25.644531 22.191406 C 25.644531 22.191406 25.664062 22.179688 25.699219 22.160156 C 25.730469 22.140625 25.773438 22.113281 25.816406 22.085938 C 25.90625 22.03125 25.992188 21.976562 25.992188 21.976562 C 25.992188 21.976562 25.902344 21.984375 25.816406 21.988281 C 25.726562 21.996094 25.640625 22 25.640625 22 C 25.5625 21.953125 25.4375 21.882812 25.289062 21.832031 C 25.214844 21.804688 25.132812 21.785156 25.046875 21.769531 C 24.960938 21.753906 24.871094 21.746094 24.78125 21.75 C 24.6875 21.753906 24.59375 21.769531 24.5 21.796875 C 24.453125 21.8125 24.40625 21.832031 24.359375 21.851562 C 24.3125 21.875 24.265625 21.902344 24.21875 21.933594 C 24.035156 22.054688 23.859375 22.25 23.683594 22.550781 " fill-opacity="1" fill-rule="nonzero"/><path fill="#6b1e2f" d="M 24.78125 23.710938 C 24.78125 23.710938 24.785156 23.707031 24.796875 23.703125 C 24.804688 23.699219 24.820312 23.691406 24.839844 23.683594 C 24.875 23.667969 24.921875 23.648438 24.96875 23.625 C 25.015625 23.605469 25.066406 23.582031 25.101562 23.566406 C 25.136719 23.550781 25.160156 23.539062 25.160156 23.539062 C 25.160156 23.539062 25.136719 23.539062 25.105469 23.535156 C 25.070312 23.535156 25.027344 23.53125 24.980469 23.527344 C 24.890625 23.523438 24.800781 23.515625 24.800781 23.515625 C 24.730469 23.453125 24.613281 23.367188 24.46875 23.296875 C 24.324219 23.222656 24.152344 23.160156 23.964844 23.140625 C 23.777344 23.121094 23.578125 23.148438 23.375 23.246094 C 23.347656 23.257812 23.324219 23.273438 23.296875 23.289062 C 23.273438 23.300781 23.246094 23.316406 23.222656 23.335938 C 23.167969 23.367188 23.117188 23.410156 23.066406 23.453125 C 23.011719 23.5 22.960938 23.550781 22.90625 23.605469 C 22.878906 23.636719 22.855469 23.664062 22.828125 23.695312 C 22.800781 23.726562 22.773438 23.761719 22.746094 23.796875 C 22.804688 23.933594 22.871094 24.046875 22.949219 24.132812 C 23.023438 24.21875 23.109375 24.28125 23.199219 24.320312 C 23.292969 24.363281 23.386719 24.382812 23.488281 24.382812 C 23.535156 24.382812 23.585938 24.378906 23.640625 24.371094 C 23.691406 24.363281 23.742188 24.355469 23.792969 24.339844 C 23.894531 24.308594 23.996094 24.269531 24.09375 24.21875 C 24.191406 24.167969 24.289062 24.109375 24.375 24.050781 C 24.457031 23.988281 24.539062 23.925781 24.605469 23.867188 C 24.675781 23.808594 24.734375 23.753906 24.78125 23.710938 " fill-opacity="1" fill-rule="nonzero"/><path fill="#6b1e2f" d="M 21.621094 24.925781 C 21.699219 25.222656 21.832031 25.414062 22.003906 25.523438 C 22.089844 25.574219 22.183594 25.609375 22.285156 25.625 C 22.335938 25.632812 22.390625 25.636719 22.441406 25.636719 C 22.492188 25.636719 22.546875 25.628906 22.601562 25.625 C 22.65625 25.617188 22.710938 25.605469 22.765625 25.589844 C 22.820312 25.578125 22.871094 25.5625 22.925781 25.542969 C 22.976562 25.523438 23.03125 25.503906 23.082031 25.480469 C 23.132812 25.460938 23.183594 25.433594 23.230469 25.410156 C 23.328125 25.363281 23.417969 25.308594 23.492188 25.261719 C 23.570312 25.210938 23.636719 25.164062 23.691406 25.125 C 23.691406 25.125 23.792969 25.09375 23.894531 25.066406 C 23.945312 25.050781 23.996094 25.035156 24.035156 25.027344 C 24.074219 25.015625 24.097656 25.003906 24.097656 25.003906 C 24.097656 25.003906 24.078125 25 24.042969 24.996094 C 24.007812 24.988281 23.964844 24.980469 23.917969 24.96875 C 23.828125 24.949219 23.738281 24.929688 23.738281 24.929688 C 23.675781 24.859375 23.570312 24.757812 23.433594 24.660156 C 23.300781 24.566406 23.132812 24.480469 22.949219 24.4375 C 22.855469 24.414062 22.753906 24.402344 22.652344 24.402344 C 22.601562 24.40625 22.550781 24.410156 22.496094 24.417969 C 22.445312 24.429688 22.390625 24.441406 22.335938 24.457031 C 22.277344 24.476562 22.222656 24.5 22.167969 24.527344 C 22.109375 24.554688 22.050781 24.585938 21.992188 24.625 C 21.933594 24.664062 21.871094 24.707031 21.808594 24.757812 C 21.777344 24.78125 21.746094 24.808594 21.714844 24.835938 C 21.683594 24.863281 21.652344 24.894531 21.621094 24.925781 " fill-opacity="1" fill-rule="nonzero"/><path fill="#6b1e2f" d="M 22.402344 11.816406 C 22.402344 11.816406 22.339844 11.835938 22.273438 11.851562 C 22.238281 11.863281 22.207031 11.871094 22.179688 11.878906 C 22.15625 11.886719 22.140625 11.890625 22.140625 11.890625 C 22.140625 11.890625 22.15625 11.894531 22.183594 11.898438 C 22.207031 11.902344 22.242188 11.910156 22.273438 11.917969 C 22.339844 11.929688 22.40625 11.945312 22.40625 11.945312 C 22.4375 11.96875 22.476562 12 22.519531 12.03125 C 22.542969 12.046875 22.566406 12.066406 22.589844 12.082031 C 22.617188 12.097656 22.644531 12.117188 22.671875 12.136719 C 22.785156 12.207031 22.914062 12.277344 23.058594 12.324219 C 23.128906 12.347656 23.203125 12.363281 23.277344 12.367188 C 23.355469 12.371094 23.429688 12.367188 23.507812 12.347656 C 23.660156 12.308594 23.816406 12.207031 23.953125 12.007812 C 23.921875 11.945312 23.886719 11.886719 23.851562 11.835938 C 23.820312 11.785156 23.78125 11.742188 23.742188 11.703125 C 23.671875 11.625 23.589844 11.566406 23.511719 11.527344 C 23.492188 11.515625 23.472656 11.507812 23.453125 11.5 C 23.433594 11.492188 23.414062 11.484375 23.394531 11.480469 C 23.355469 11.46875 23.316406 11.460938 23.277344 11.457031 C 23.199219 11.445312 23.125 11.449219 23.050781 11.464844 C 22.90625 11.492188 22.773438 11.554688 22.660156 11.625 C 22.550781 11.691406 22.460938 11.765625 22.402344 11.816406 " fill-opacity="1" fill-rule="nonzero"/><path fill="#6b1e2f" d="M 22.957031 12.714844 C 22.957031 12.714844 22.886719 12.722656 22.816406 12.730469 C 22.746094 12.738281 22.679688 12.75 22.679688 12.75 C 22.679688 12.75 22.742188 12.773438 22.808594 12.792969 C 22.84375 12.804688 22.875 12.816406 22.898438 12.828125 C 22.925781 12.835938 22.941406 12.84375 22.941406 12.84375 C 22.992188 12.902344 23.078125 12.984375 23.183594 13.074219 C 23.234375 13.117188 23.289062 13.164062 23.351562 13.203125 C 23.382812 13.226562 23.414062 13.246094 23.449219 13.265625 C 23.480469 13.285156 23.511719 13.304688 23.546875 13.320312 C 23.6875 13.386719 23.839844 13.425781 24 13.410156 C 24.164062 13.390625 24.335938 13.3125 24.503906 13.125 C 24.492188 13.09375 24.480469 13.058594 24.464844 13.027344 C 24.453125 12.996094 24.4375 12.96875 24.425781 12.941406 C 24.394531 12.882812 24.367188 12.832031 24.332031 12.789062 C 24.300781 12.742188 24.265625 12.703125 24.230469 12.667969 C 24.195312 12.632812 24.160156 12.601562 24.121094 12.574219 C 24.085938 12.550781 24.046875 12.527344 24.011719 12.511719 C 23.972656 12.492188 23.933594 12.480469 23.894531 12.46875 C 23.816406 12.449219 23.738281 12.441406 23.664062 12.445312 C 23.511719 12.453125 23.367188 12.5 23.246094 12.554688 C 23.121094 12.605469 23.019531 12.667969 22.957031 12.714844 " fill-opacity="1" fill-rule="nonzero"/><path fill="#6b1e2f" d="M 23.390625 13.703125 C 23.390625 13.703125 23.316406 13.703125 23.246094 13.699219 C 23.171875 13.699219 23.101562 13.699219 23.101562 13.699219 C 23.101562 13.699219 23.164062 13.730469 23.230469 13.765625 C 23.261719 13.78125 23.292969 13.796875 23.316406 13.808594 C 23.339844 13.824219 23.355469 13.832031 23.355469 13.832031 C 23.402344 13.898438 23.472656 13.996094 23.566406 14.101562 C 23.613281 14.152344 23.664062 14.207031 23.722656 14.257812 C 23.777344 14.3125 23.839844 14.359375 23.90625 14.402344 C 24.035156 14.492188 24.183594 14.554688 24.351562 14.558594 C 24.519531 14.5625 24.703125 14.507812 24.902344 14.34375 C 24.847656 14.054688 24.726562 13.859375 24.59375 13.730469 C 24.527344 13.667969 24.453125 13.621094 24.378906 13.589844 C 24.300781 13.558594 24.222656 13.539062 24.144531 13.535156 C 23.992188 13.519531 23.839844 13.542969 23.707031 13.582031 C 23.574219 13.617188 23.460938 13.667969 23.390625 13.703125 " fill-opacity="1" fill-rule="nonzero"/><path fill="#6b1e2f" d="M 23.6875 14.773438 C 23.6875 14.773438 23.617188 14.761719 23.542969 14.75 C 23.507812 14.746094 23.472656 14.738281 23.445312 14.734375 C 23.417969 14.730469 23.398438 14.726562 23.398438 14.726562 C 23.398438 14.726562 23.414062 14.738281 23.4375 14.753906 C 23.457031 14.769531 23.488281 14.792969 23.519531 14.8125 C 23.546875 14.832031 23.578125 14.855469 23.601562 14.871094 C 23.625 14.886719 23.636719 14.898438 23.636719 14.898438 C 23.65625 14.9375 23.679688 14.984375 23.710938 15.035156 C 23.726562 15.058594 23.742188 15.085938 23.757812 15.117188 C 23.773438 15.144531 23.792969 15.175781 23.8125 15.203125 C 23.894531 15.324219 23.992188 15.453125 24.113281 15.558594 C 24.144531 15.585938 24.175781 15.613281 24.207031 15.636719 C 24.238281 15.660156 24.273438 15.679688 24.308594 15.699219 C 24.382812 15.738281 24.460938 15.765625 24.546875 15.78125 C 24.714844 15.808594 24.910156 15.777344 25.132812 15.640625 C 25.117188 15.339844 25.027344 15.121094 24.910156 14.972656 C 24.878906 14.9375 24.847656 14.902344 24.8125 14.875 C 24.78125 14.847656 24.742188 14.820312 24.707031 14.800781 C 24.636719 14.757812 24.558594 14.726562 24.480469 14.707031 C 24.328125 14.671875 24.167969 14.675781 24.027344 14.695312 C 23.886719 14.714844 23.769531 14.746094 23.6875 14.773438 " fill-opacity="1" fill-rule="nonzero"/><path fill="#6b1e2f" d="M 23.84375 15.90625 C 23.84375 15.90625 23.824219 15.898438 23.800781 15.890625 C 23.773438 15.882812 23.734375 15.871094 23.699219 15.863281 C 23.625 15.839844 23.554688 15.820312 23.554688 15.820312 C 23.554688 15.820312 23.566406 15.832031 23.589844 15.851562 C 23.609375 15.871094 23.636719 15.894531 23.664062 15.921875 C 23.71875 15.972656 23.773438 16.027344 23.773438 16.027344 C 23.789062 16.066406 23.804688 16.117188 23.828125 16.175781 C 23.839844 16.203125 23.851562 16.234375 23.867188 16.265625 C 23.878906 16.296875 23.894531 16.328125 23.910156 16.363281 C 23.925781 16.394531 23.941406 16.429688 23.960938 16.464844 C 23.980469 16.496094 24 16.53125 24.019531 16.566406 C 24.039062 16.601562 24.0625 16.632812 24.085938 16.667969 C 24.109375 16.699219 24.136719 16.734375 24.164062 16.765625 C 24.269531 16.890625 24.402344 17 24.570312 17.050781 C 24.738281 17.101562 24.941406 17.101562 25.1875 16.992188 C 25.195312 16.914062 25.195312 16.839844 25.191406 16.773438 C 25.1875 16.738281 25.1875 16.707031 25.183594 16.675781 C 25.179688 16.644531 25.171875 16.613281 25.167969 16.582031 C 25.152344 16.523438 25.140625 16.46875 25.121094 16.421875 C 25.097656 16.371094 25.078125 16.324219 25.050781 16.28125 C 25.039062 16.261719 25.027344 16.242188 25.011719 16.222656 C 25 16.203125 24.984375 16.1875 24.96875 16.167969 C 24.9375 16.136719 24.90625 16.105469 24.871094 16.078125 C 24.839844 16.050781 24.804688 16.027344 24.769531 16.007812 C 24.730469 15.984375 24.695312 15.96875 24.65625 15.953125 C 24.503906 15.894531 24.34375 15.875 24.199219 15.875 C 24.054688 15.875 23.925781 15.890625 23.84375 15.90625 " fill-opacity="1" fill-rule="nonzero"/><path fill="#6b1e2f" d="M 23.84375 17.082031 C 23.84375 17.082031 23.773438 17.050781 23.703125 17.015625 C 23.628906 16.984375 23.558594 16.953125 23.558594 16.953125 C 23.558594 16.953125 23.609375 17.011719 23.65625 17.074219 C 23.707031 17.132812 23.753906 17.195312 23.753906 17.195312 C 23.761719 17.238281 23.773438 17.292969 23.789062 17.351562 C 23.792969 17.382812 23.804688 17.414062 23.8125 17.449219 C 23.816406 17.464844 23.824219 17.484375 23.828125 17.5 C 23.832031 17.519531 23.839844 17.535156 23.84375 17.554688 C 23.890625 17.699219 23.953125 17.855469 24.042969 18 C 24.089844 18.070312 24.144531 18.136719 24.203125 18.195312 C 24.265625 18.257812 24.335938 18.308594 24.417969 18.34375 C 24.582031 18.421875 24.789062 18.445312 25.054688 18.371094 C 25.121094 18.0625 25.09375 17.816406 25.015625 17.632812 C 24.972656 17.542969 24.921875 17.464844 24.863281 17.398438 C 24.800781 17.335938 24.730469 17.285156 24.660156 17.242188 C 24.511719 17.160156 24.351562 17.121094 24.207031 17.101562 C 24.058594 17.078125 23.929688 17.078125 23.84375 17.082031 " fill-opacity="1" fill-rule="nonzero"/><path fill="#6b1e2f" d="M 23.675781 18.277344 C 23.675781 18.277344 23.609375 18.234375 23.542969 18.191406 C 23.476562 18.148438 23.410156 18.109375 23.410156 18.109375 C 23.410156 18.109375 23.449219 18.175781 23.492188 18.242188 C 23.5 18.261719 23.511719 18.277344 23.519531 18.292969 C 23.53125 18.308594 23.539062 18.324219 23.546875 18.335938 C 23.558594 18.363281 23.570312 18.378906 23.570312 18.378906 C 23.570312 18.425781 23.578125 18.480469 23.582031 18.546875 C 23.589844 18.609375 23.597656 18.679688 23.613281 18.757812 C 23.625 18.832031 23.644531 18.914062 23.667969 18.996094 C 23.6875 19.074219 23.71875 19.15625 23.753906 19.234375 C 23.789062 19.316406 23.832031 19.390625 23.886719 19.457031 C 23.941406 19.527344 24.007812 19.589844 24.082031 19.640625 C 24.238281 19.738281 24.445312 19.792969 24.722656 19.753906 C 24.835938 19.449219 24.839844 19.195312 24.789062 19 C 24.757812 18.902344 24.71875 18.816406 24.664062 18.742188 C 24.613281 18.667969 24.550781 18.609375 24.480469 18.554688 C 24.414062 18.503906 24.339844 18.460938 24.265625 18.429688 C 24.191406 18.394531 24.113281 18.367188 24.042969 18.347656 C 23.898438 18.304688 23.765625 18.285156 23.675781 18.277344 " fill-opacity="1" fill-rule="nonzero"/><path fill="#6b1e2f" d="M 23.339844 19.46875 C 23.339844 19.46875 23.28125 19.417969 23.21875 19.363281 C 23.15625 19.3125 23.09375 19.261719 23.09375 19.261719 C 23.09375 19.261719 23.125 19.335938 23.15625 19.40625 C 23.191406 19.484375 23.21875 19.558594 23.21875 19.558594 C 23.214844 19.605469 23.210938 19.660156 23.210938 19.726562 C 23.207031 19.792969 23.207031 19.867188 23.210938 19.945312 C 23.210938 20.023438 23.21875 20.109375 23.230469 20.195312 C 23.242188 20.277344 23.261719 20.367188 23.285156 20.449219 C 23.335938 20.621094 23.421875 20.78125 23.5625 20.90625 C 23.707031 21.027344 23.90625 21.113281 24.199219 21.109375 C 24.355469 20.816406 24.394531 20.5625 24.367188 20.355469 C 24.351562 20.25 24.320312 20.160156 24.277344 20.078125 C 24.234375 19.996094 24.179688 19.925781 24.117188 19.863281 C 23.996094 19.738281 23.84375 19.652344 23.703125 19.589844 C 23.5625 19.527344 23.429688 19.492188 23.339844 19.46875 " fill-opacity="1" fill-rule="nonzero"/><path fill="#6b1e2f" d="M 22.835938 20.632812 C 22.835938 20.632812 22.78125 20.570312 22.726562 20.507812 C 22.671875 20.445312 22.613281 20.386719 22.613281 20.386719 C 22.613281 20.386719 22.636719 20.464844 22.660156 20.542969 C 22.667969 20.585938 22.679688 20.625 22.6875 20.65625 C 22.695312 20.683594 22.699219 20.703125 22.699219 20.703125 C 22.691406 20.75 22.675781 20.808594 22.667969 20.875 C 22.65625 20.941406 22.644531 21.015625 22.636719 21.097656 C 22.628906 21.175781 22.621094 21.261719 22.625 21.351562 C 22.621094 21.4375 22.628906 21.527344 22.644531 21.617188 C 22.65625 21.707031 22.679688 21.796875 22.714844 21.878906 C 22.730469 21.921875 22.753906 21.964844 22.777344 22.003906 C 22.800781 22.042969 22.828125 22.082031 22.859375 22.117188 C 22.988281 22.261719 23.179688 22.375 23.472656 22.414062 C 23.671875 22.136719 23.746094 21.886719 23.75 21.671875 C 23.75 21.617188 23.746094 21.566406 23.734375 21.519531 C 23.726562 21.46875 23.714844 21.421875 23.699219 21.378906 C 23.667969 21.289062 23.621094 21.210938 23.566406 21.140625 C 23.515625 21.066406 23.453125 21.003906 23.386719 20.949219 C 23.320312 20.894531 23.25 20.84375 23.183594 20.804688 C 23.050781 20.722656 22.921875 20.664062 22.835938 20.632812 " fill-opacity="1" fill-rule="nonzero"/><path fill="#6b1e2f" d="M 22.160156 21.738281 C 22.160156 21.738281 22.113281 21.667969 22.066406 21.597656 C 22.042969 21.5625 22.019531 21.527344 22 21.503906 C 21.984375 21.476562 21.972656 21.457031 21.972656 21.457031 C 21.972656 21.457031 21.976562 21.480469 21.980469 21.511719 C 21.984375 21.542969 21.988281 21.582031 21.992188 21.625 C 22 21.667969 22.003906 21.710938 22.007812 21.742188 C 22.011719 21.757812 22.011719 21.769531 22.011719 21.78125 C 22.011719 21.789062 22.011719 21.792969 22.011719 21.792969 C 21.996094 21.839844 21.976562 21.894531 21.957031 21.960938 C 21.933594 22.027344 21.914062 22.101562 21.894531 22.179688 C 21.882812 22.222656 21.875 22.261719 21.867188 22.304688 C 21.859375 22.347656 21.851562 22.390625 21.84375 22.4375 C 21.832031 22.527344 21.824219 22.617188 21.828125 22.710938 C 21.828125 22.757812 21.832031 22.800781 21.835938 22.847656 C 21.84375 22.894531 21.851562 22.941406 21.863281 22.984375 C 21.886719 23.074219 21.921875 23.164062 21.976562 23.246094 C 22.03125 23.328125 22.101562 23.402344 22.199219 23.46875 C 22.292969 23.535156 22.410156 23.589844 22.554688 23.628906 C 22.585938 23.597656 22.613281 23.566406 22.640625 23.539062 C 22.664062 23.507812 22.691406 23.476562 22.710938 23.445312 C 22.757812 23.382812 22.792969 23.320312 22.824219 23.261719 C 22.855469 23.203125 22.878906 23.144531 22.898438 23.085938 C 22.910156 23.058594 22.917969 23.03125 22.925781 23.003906 C 22.929688 22.976562 22.933594 22.949219 22.9375 22.921875 C 22.96875 22.703125 22.917969 22.515625 22.832031 22.355469 C 22.742188 22.195312 22.613281 22.066406 22.488281 21.960938 C 22.363281 21.859375 22.242188 21.785156 22.160156 21.738281 " fill-opacity="1" fill-rule="nonzero"/><path fill="#6b1e2f" d="M 21.320312 22.765625 C 21.320312 22.765625 21.285156 22.6875 21.246094 22.613281 C 21.226562 22.574219 21.207031 22.535156 21.195312 22.503906 C 21.179688 22.476562 21.167969 22.457031 21.167969 22.457031 C 21.167969 22.457031 21.167969 22.480469 21.167969 22.511719 C 21.167969 22.542969 21.167969 22.585938 21.167969 22.628906 C 21.167969 22.714844 21.164062 22.800781 21.164062 22.800781 C 21.140625 22.84375 21.113281 22.898438 21.082031 22.964844 C 21.054688 23.027344 21.019531 23.097656 20.988281 23.175781 C 20.972656 23.214844 20.960938 23.257812 20.945312 23.296875 C 20.929688 23.339844 20.917969 23.382812 20.902344 23.425781 C 20.890625 23.472656 20.882812 23.515625 20.871094 23.5625 C 20.863281 23.609375 20.855469 23.652344 20.847656 23.699219 C 20.84375 23.746094 20.839844 23.792969 20.839844 23.84375 C 20.839844 23.890625 20.839844 23.9375 20.847656 23.984375 C 20.855469 24.078125 20.882812 24.171875 20.925781 24.261719 C 21.011719 24.445312 21.171875 24.613281 21.453125 24.734375 C 21.488281 24.707031 21.523438 24.679688 21.550781 24.652344 C 21.582031 24.625 21.613281 24.597656 21.640625 24.570312 C 21.691406 24.511719 21.742188 24.457031 21.78125 24.402344 C 21.820312 24.34375 21.851562 24.289062 21.878906 24.234375 C 21.90625 24.179688 21.925781 24.125 21.941406 24.070312 C 21.957031 24.019531 21.96875 23.964844 21.972656 23.914062 C 21.980469 23.863281 21.980469 23.8125 21.976562 23.761719 C 21.96875 23.664062 21.945312 23.570312 21.910156 23.484375 C 21.84375 23.308594 21.734375 23.160156 21.621094 23.039062 C 21.511719 22.917969 21.398438 22.824219 21.320312 22.765625 " fill-opacity="1" fill-rule="nonzero"/><g clip-path="url(#6f1f4e30dc)"><path fill="#6b1e2f" d="M 22.460938 26.214844 C 22.40625 26.132812 22.3125 26.015625 22.191406 25.902344 C 22.066406 25.785156 21.910156 25.675781 21.730469 25.601562 C 21.683594 25.585938 21.636719 25.570312 21.589844 25.558594 C 21.539062 25.542969 21.488281 25.535156 21.4375 25.527344 C 21.386719 25.523438 21.332031 25.519531 21.277344 25.519531 C 21.25 25.523438 21.222656 25.523438 21.191406 25.527344 C 21.164062 25.527344 21.136719 25.53125 21.105469 25.539062 C 21.046875 25.546875 20.988281 25.5625 20.925781 25.582031 C 20.863281 25.601562 20.800781 25.625 20.734375 25.65625 C 20.703125 25.667969 20.667969 25.6875 20.636719 25.703125 C 20.601562 25.722656 20.566406 25.738281 20.53125 25.761719 C 20.496094 25.78125 20.460938 25.804688 20.425781 25.828125 C 20.390625 25.851562 20.351562 25.875 20.316406 25.902344 C 20.316406 25.902344 20.296875 25.914062 20.265625 25.933594 C 20.230469 25.957031 20.183594 25.988281 20.121094 26.023438 C 20.089844 26.042969 20.054688 26.0625 20.015625 26.085938 C 20 26.097656 19.980469 26.109375 19.957031 26.121094 C 19.9375 26.132812 19.917969 26.144531 19.894531 26.160156 C 19.851562 26.183594 19.804688 26.210938 19.753906 26.238281 C 19.703125 26.269531 19.652344 26.296875 19.597656 26.324219 C 19.375 26.445312 19.113281 26.574219 18.828125 26.699219 C 18.539062 26.828125 18.230469 26.949219 17.914062 27.054688 C 17.597656 27.160156 17.273438 27.25 16.96875 27.320312 C 16.664062 27.390625 16.375 27.445312 16.128906 27.480469 C 16.066406 27.488281 16.007812 27.496094 15.949219 27.503906 C 15.894531 27.511719 15.839844 27.519531 15.789062 27.523438 C 15.6875 27.535156 15.601562 27.542969 15.527344 27.550781 C 15.382812 27.5625 15.296875 27.570312 15.296875 27.570312 C 15.296875 27.570312 15.371094 27.566406 15.503906 27.566406 C 15.632812 27.5625 15.820312 27.554688 16.042969 27.539062 C 16.265625 27.519531 16.527344 27.492188 16.804688 27.453125 C 17.082031 27.410156 17.378906 27.351562 17.671875 27.28125 C 17.742188 27.265625 17.816406 27.246094 17.890625 27.226562 C 17.960938 27.207031 18.035156 27.1875 18.105469 27.167969 C 18.179688 27.148438 18.25 27.125 18.320312 27.105469 C 18.355469 27.097656 18.386719 27.085938 18.421875 27.074219 C 18.457031 27.0625 18.492188 27.050781 18.523438 27.039062 C 18.792969 26.953125 19.042969 26.859375 19.253906 26.773438 C 19.304688 26.75 19.355469 26.730469 19.40625 26.710938 C 19.453125 26.691406 19.496094 26.667969 19.539062 26.652344 C 19.625 26.613281 19.699219 26.578125 19.757812 26.550781 C 19.820312 26.523438 19.867188 26.503906 19.898438 26.484375 C 19.929688 26.46875 19.949219 26.460938 19.949219 26.460938 C 20.003906 26.433594 20.0625 26.414062 20.121094 26.40625 C 20.175781 26.394531 20.234375 26.390625 20.289062 26.394531 C 20.398438 26.40625 20.496094 26.449219 20.566406 26.519531 C 20.683594 26.636719 20.828125 26.703125 20.992188 26.734375 C 21.074219 26.75 21.160156 26.753906 21.246094 26.753906 C 21.289062 26.753906 21.332031 26.75 21.378906 26.746094 C 21.421875 26.742188 21.464844 26.734375 21.507812 26.726562 C 21.554688 26.71875 21.597656 26.707031 21.640625 26.699219 C 21.664062 26.695312 21.683594 26.6875 21.707031 26.683594 C 21.726562 26.675781 21.75 26.671875 21.769531 26.664062 C 21.851562 26.636719 21.933594 26.609375 22.011719 26.582031 C 22.085938 26.550781 22.15625 26.519531 22.21875 26.488281 C 22.25 26.472656 22.277344 26.460938 22.304688 26.445312 C 22.332031 26.429688 22.359375 26.417969 22.378906 26.40625 C 22.378906 26.40625 22.488281 26.390625 22.597656 26.375 C 22.652344 26.371094 22.703125 26.359375 22.746094 26.355469 C 22.785156 26.347656 22.8125 26.34375 22.8125 26.34375 C 22.8125 26.34375 22.722656 26.3125 22.636719 26.28125 C 22.546875 26.25 22.460938 26.214844 22.460938 26.214844 " fill-opacity="1" fill-rule="nonzero"/></g><g clip-path="url(#d059d58650)"><path fill="#6b1e2f" d="M 20.332031 23.6875 C 20.398438 23.757812 20.5 23.867188 20.59375 24.003906 C 20.691406 24.144531 20.78125 24.308594 20.824219 24.496094 C 20.835938 24.542969 20.84375 24.589844 20.847656 24.636719 C 20.851562 24.6875 20.851562 24.734375 20.847656 24.785156 C 20.84375 24.835938 20.835938 24.886719 20.824219 24.9375 C 20.816406 24.964844 20.8125 24.988281 20.800781 25.015625 C 20.792969 25.042969 20.78125 25.066406 20.769531 25.09375 C 20.746094 25.144531 20.71875 25.195312 20.683594 25.25 C 20.648438 25.300781 20.605469 25.351562 20.558594 25.402344 C 20.535156 25.425781 20.507812 25.453125 20.480469 25.476562 C 20.453125 25.503906 20.421875 25.527344 20.390625 25.550781 C 20.359375 25.574219 20.324219 25.597656 20.292969 25.621094 C 20.257812 25.644531 20.21875 25.667969 20.179688 25.691406 C 20.179688 25.691406 20.164062 25.703125 20.128906 25.722656 C 20.097656 25.742188 20.050781 25.773438 19.988281 25.808594 C 19.957031 25.828125 19.925781 25.847656 19.886719 25.871094 C 19.871094 25.882812 19.851562 25.894531 19.832031 25.90625 C 19.808594 25.917969 19.789062 25.929688 19.769531 25.941406 C 19.726562 25.964844 19.679688 25.992188 19.628906 26.019531 C 19.582031 26.046875 19.53125 26.074219 19.476562 26.105469 C 19.261719 26.21875 19.007812 26.347656 18.726562 26.46875 C 18.445312 26.59375 18.140625 26.710938 17.832031 26.816406 C 17.523438 26.917969 17.210938 27.003906 16.910156 27.074219 C 16.613281 27.144531 16.332031 27.195312 16.09375 27.230469 C 16.03125 27.242188 15.972656 27.246094 15.917969 27.253906 C 15.863281 27.261719 15.8125 27.269531 15.761719 27.273438 C 15.664062 27.285156 15.578125 27.292969 15.503906 27.300781 C 15.363281 27.3125 15.28125 27.316406 15.28125 27.316406 C 15.28125 27.316406 15.355469 27.308594 15.480469 27.289062 C 15.605469 27.269531 15.785156 27.242188 15.996094 27.199219 C 16.207031 27.15625 16.453125 27.097656 16.714844 27.027344 C 16.972656 26.953125 17.246094 26.863281 17.515625 26.765625 C 17.582031 26.738281 17.648438 26.714844 17.714844 26.6875 C 17.78125 26.660156 17.84375 26.632812 17.910156 26.609375 C 17.976562 26.578125 18.039062 26.550781 18.101562 26.523438 C 18.132812 26.511719 18.164062 26.496094 18.195312 26.480469 C 18.226562 26.46875 18.257812 26.453125 18.285156 26.4375 C 18.527344 26.324219 18.75 26.210938 18.933594 26.105469 C 18.980469 26.078125 19.023438 26.054688 19.066406 26.03125 C 19.109375 26.007812 19.148438 25.984375 19.183594 25.960938 C 19.257812 25.917969 19.324219 25.875 19.375 25.84375 C 19.425781 25.8125 19.46875 25.785156 19.496094 25.765625 C 19.523438 25.75 19.539062 25.738281 19.539062 25.738281 C 19.585938 25.707031 19.628906 25.667969 19.664062 25.628906 C 19.695312 25.585938 19.722656 25.539062 19.738281 25.488281 C 19.773438 25.390625 19.773438 25.289062 19.738281 25.191406 C 19.679688 25.042969 19.667969 24.886719 19.6875 24.742188 C 19.695312 24.667969 19.710938 24.59375 19.730469 24.523438 C 19.742188 24.484375 19.753906 24.453125 19.765625 24.417969 C 19.777344 24.382812 19.792969 24.347656 19.804688 24.316406 C 19.820312 24.28125 19.835938 24.25 19.851562 24.214844 C 19.859375 24.203125 19.867188 24.1875 19.875 24.171875 C 19.882812 24.152344 19.890625 24.140625 19.898438 24.125 C 19.929688 24.0625 19.964844 24.003906 19.996094 23.953125 C 20.027344 23.902344 20.058594 23.851562 20.089844 23.808594 C 20.101562 23.789062 20.117188 23.769531 20.128906 23.75 C 20.144531 23.730469 20.15625 23.714844 20.167969 23.699219 C 20.167969 23.699219 20.179688 23.613281 20.195312 23.527344 C 20.203125 23.484375 20.207031 23.4375 20.214844 23.40625 C 20.21875 23.375 20.21875 23.351562 20.21875 23.351562 C 20.21875 23.351562 20.25 23.4375 20.277344 23.519531 C 20.304688 23.601562 20.332031 23.6875 20.332031 23.6875 " fill-opacity="1" fill-rule="nonzero"/></g><path fill="#6b1e2f" d="M 22.664062 9.984375 L 22.4375 9.808594 L 22.566406 10.066406 C 22.574219 10.378906 22.667969 11.347656 23.628906 11.25 C 23.90625 10.328125 22.972656 10.050781 22.664062 9.984375 " fill-opacity="1" fill-rule="nonzero"/><path fill="#6b1e2f" d="M 5.355469 10.292969 C 5.355469 10.292969 5.363281 10.210938 5.371094 10.125 C 5.375 10.085938 5.378906 10.042969 5.382812 10.011719 C 5.386719 9.980469 5.386719 9.957031 5.386719 9.957031 C 5.386719 9.957031 5.394531 9.972656 5.402344 10 C 5.414062 10.023438 5.429688 10.058594 5.441406 10.09375 C 5.472656 10.160156 5.5 10.226562 5.5 10.226562 C 5.566406 10.265625 5.660156 10.332031 5.753906 10.425781 C 5.847656 10.515625 5.941406 10.632812 6.003906 10.769531 C 6.035156 10.839844 6.058594 10.914062 6.070312 10.996094 C 6.078125 11.035156 6.082031 11.078125 6.082031 11.121094 C 6.082031 11.140625 6.082031 11.164062 6.082031 11.183594 C 6.082031 11.207031 6.078125 11.230469 6.074219 11.253906 C 6.066406 11.34375 6.039062 11.441406 5.996094 11.542969 C 5.976562 11.597656 5.949219 11.648438 5.921875 11.707031 C 5.894531 11.761719 5.859375 11.820312 5.820312 11.878906 C 5.574219 11.863281 5.40625 11.789062 5.296875 11.671875 C 5.242188 11.613281 5.199219 11.542969 5.175781 11.464844 C 5.148438 11.390625 5.132812 11.304688 5.128906 11.21875 C 5.121094 11.046875 5.152344 10.859375 5.199219 10.695312 C 5.210938 10.65625 5.222656 10.613281 5.238281 10.578125 C 5.25 10.539062 5.265625 10.503906 5.277344 10.46875 C 5.304688 10.402344 5.332031 10.339844 5.355469 10.292969 " fill-opacity="1" fill-rule="nonzero"/><path fill="#6b1e2f" d="M 5.253906 13.03125 C 5.003906 13.050781 4.820312 12.996094 4.691406 12.894531 C 4.566406 12.789062 4.488281 12.632812 4.457031 12.457031 C 4.449219 12.414062 4.441406 12.371094 4.4375 12.324219 C 4.433594 12.28125 4.433594 12.234375 4.433594 12.1875 C 4.433594 12.097656 4.441406 12.003906 4.457031 11.917969 C 4.480469 11.742188 4.523438 11.589844 4.554688 11.484375 C 4.554688 11.484375 4.554688 11.464844 4.554688 11.433594 C 4.550781 11.398438 4.550781 11.355469 4.546875 11.3125 C 4.542969 11.226562 4.539062 11.136719 4.539062 11.136719 C 4.539062 11.136719 4.578125 11.203125 4.617188 11.269531 C 4.65625 11.332031 4.691406 11.394531 4.691406 11.394531 C 4.765625 11.425781 4.871094 11.480469 4.980469 11.558594 C 5.089844 11.640625 5.199219 11.746094 5.28125 11.875 C 5.324219 11.941406 5.359375 12.015625 5.382812 12.09375 C 5.394531 12.136719 5.40625 12.175781 5.414062 12.21875 C 5.421875 12.265625 5.425781 12.308594 5.425781 12.355469 C 5.425781 12.402344 5.421875 12.453125 5.417969 12.503906 C 5.410156 12.554688 5.402344 12.609375 5.386719 12.664062 C 5.371094 12.71875 5.355469 12.777344 5.335938 12.839844 C 5.324219 12.871094 5.3125 12.902344 5.296875 12.933594 C 5.285156 12.964844 5.269531 12.996094 5.253906 13.03125 " fill-opacity="1" fill-rule="nonzero"/><path fill="#6b1e2f" d="M 3.914062 12.816406 C 3.914062 12.816406 3.910156 12.792969 3.902344 12.761719 C 3.898438 12.726562 3.886719 12.683594 3.878906 12.640625 C 3.863281 12.550781 3.847656 12.464844 3.847656 12.464844 C 3.847656 12.464844 3.898438 12.523438 3.945312 12.585938 C 3.992188 12.644531 4.039062 12.703125 4.039062 12.703125 C 4.117188 12.726562 4.234375 12.765625 4.355469 12.828125 C 4.476562 12.894531 4.605469 12.984375 4.707031 13.105469 C 4.757812 13.167969 4.804688 13.238281 4.839844 13.316406 C 4.878906 13.390625 4.90625 13.476562 4.921875 13.574219 C 4.953125 13.765625 4.933594 13.992188 4.84375 14.28125 C 4.59375 14.335938 4.402344 14.3125 4.253906 14.222656 C 4.109375 14.136719 4.015625 13.988281 3.953125 13.816406 C 3.925781 13.730469 3.90625 13.636719 3.890625 13.542969 C 3.878906 13.449219 3.875 13.355469 3.875 13.265625 C 3.875 13.085938 3.894531 12.921875 3.914062 12.816406 " fill-opacity="1" fill-rule="nonzero"/><path fill="#6b1e2f" d="M 4.605469 15.613281 C 4.359375 15.703125 4.15625 15.703125 4 15.636719 C 3.917969 15.601562 3.851562 15.550781 3.789062 15.488281 C 3.757812 15.457031 3.730469 15.421875 3.707031 15.382812 C 3.679688 15.347656 3.65625 15.304688 3.636719 15.265625 C 3.550781 15.097656 3.503906 14.902344 3.476562 14.71875 C 3.472656 14.675781 3.464844 14.628906 3.460938 14.585938 C 3.460938 14.5625 3.457031 14.542969 3.457031 14.523438 C 3.457031 14.5 3.457031 14.480469 3.453125 14.460938 C 3.453125 14.382812 3.453125 14.3125 3.453125 14.257812 C 3.453125 14.257812 3.445312 14.234375 3.433594 14.203125 C 3.425781 14.171875 3.410156 14.128906 3.394531 14.085938 C 3.378906 14.042969 3.367188 13.996094 3.355469 13.964844 C 3.34375 13.933594 3.335938 13.910156 3.335938 13.910156 C 3.335938 13.910156 3.351562 13.925781 3.371094 13.945312 C 3.394531 13.964844 3.421875 13.992188 3.449219 14.019531 C 3.507812 14.074219 3.566406 14.125 3.566406 14.125 C 3.648438 14.136719 3.769531 14.160156 3.902344 14.207031 C 4.035156 14.257812 4.175781 14.332031 4.300781 14.441406 C 4.359375 14.496094 4.417969 14.558594 4.464844 14.632812 C 4.492188 14.667969 4.511719 14.707031 4.53125 14.75 C 4.550781 14.789062 4.570312 14.835938 4.582031 14.882812 C 4.640625 15.074219 4.65625 15.308594 4.605469 15.613281 " fill-opacity="1" fill-rule="nonzero"/><path fill="#6b1e2f" d="M 4.550781 16.996094 C 4.3125 17.125 4.109375 17.152344 3.9375 17.105469 C 3.769531 17.058594 3.625 16.9375 3.519531 16.78125 C 3.492188 16.742188 3.464844 16.699219 3.441406 16.65625 C 3.417969 16.613281 3.398438 16.570312 3.378906 16.527344 C 3.359375 16.480469 3.339844 16.433594 3.324219 16.386719 C 3.308594 16.34375 3.292969 16.296875 3.28125 16.25 C 3.269531 16.207031 3.253906 16.160156 3.246094 16.117188 C 3.238281 16.074219 3.230469 16.03125 3.222656 15.992188 C 3.207031 15.914062 3.195312 15.84375 3.191406 15.785156 C 3.191406 15.785156 3.148438 15.703125 3.105469 15.621094 C 3.085938 15.578125 3.066406 15.535156 3.050781 15.503906 C 3.035156 15.472656 3.023438 15.453125 3.023438 15.453125 C 3.023438 15.453125 3.089844 15.5 3.15625 15.546875 C 3.1875 15.570312 3.21875 15.589844 3.246094 15.609375 C 3.269531 15.625 3.285156 15.636719 3.285156 15.636719 C 3.371094 15.636719 3.5 15.640625 3.640625 15.671875 C 3.78125 15.703125 3.9375 15.757812 4.074219 15.851562 C 4.109375 15.875 4.144531 15.902344 4.175781 15.929688 C 4.210938 15.957031 4.242188 15.988281 4.269531 16.023438 C 4.300781 16.054688 4.328125 16.09375 4.355469 16.132812 C 4.367188 16.152344 4.378906 16.171875 4.390625 16.195312 C 4.402344 16.214844 4.414062 16.238281 4.425781 16.261719 C 4.449219 16.304688 4.464844 16.355469 4.484375 16.410156 C 4.5 16.460938 4.511719 16.519531 4.523438 16.578125 C 4.527344 16.609375 4.535156 16.640625 4.535156 16.675781 C 4.542969 16.707031 4.542969 16.742188 4.546875 16.773438 C 4.550781 16.84375 4.550781 16.917969 4.550781 16.996094 " fill-opacity="1" fill-rule="nonzero"/><path fill="#6b1e2f" d="M 3.140625 17.371094 C 3.140625 17.371094 3.085938 17.296875 3.03125 17.214844 C 2.976562 17.136719 2.925781 17.058594 2.925781 17.058594 C 2.925781 17.058594 2.996094 17.097656 3.070312 17.136719 C 3.144531 17.171875 3.214844 17.210938 3.214844 17.210938 C 3.300781 17.195312 3.433594 17.183594 3.578125 17.195312 C 3.726562 17.207031 3.894531 17.242188 4.046875 17.316406 C 4.125 17.355469 4.199219 17.402344 4.269531 17.460938 C 4.339844 17.523438 4.402344 17.59375 4.457031 17.683594 C 4.574219 17.855469 4.652344 18.089844 4.6875 18.410156 C 4.464844 18.574219 4.261719 18.628906 4.082031 18.605469 C 3.992188 18.59375 3.910156 18.5625 3.828125 18.515625 C 3.75 18.46875 3.679688 18.40625 3.613281 18.335938 C 3.480469 18.191406 3.375 18.007812 3.296875 17.832031 C 3.285156 17.808594 3.277344 17.789062 3.269531 17.765625 C 3.257812 17.746094 3.25 17.722656 3.242188 17.703125 C 3.226562 17.660156 3.214844 17.617188 3.199219 17.578125 C 3.175781 17.5 3.15625 17.429688 3.140625 17.371094 " fill-opacity="1" fill-rule="nonzero"/><path fill="#6b1e2f" d="M 5.027344 19.828125 C 4.820312 20.023438 4.625 20.109375 4.4375 20.109375 C 4.347656 20.109375 4.253906 20.089844 4.167969 20.054688 C 4.082031 20.015625 4 19.964844 3.921875 19.902344 C 3.847656 19.835938 3.773438 19.761719 3.707031 19.683594 C 3.644531 19.605469 3.585938 19.519531 3.535156 19.433594 C 3.480469 19.351562 3.4375 19.265625 3.402344 19.191406 C 3.363281 19.113281 3.335938 19.046875 3.3125 18.988281 C 3.3125 18.988281 3.296875 18.972656 3.269531 18.945312 C 3.257812 18.933594 3.242188 18.917969 3.226562 18.902344 C 3.214844 18.882812 3.195312 18.867188 3.179688 18.847656 C 3.113281 18.773438 3.050781 18.703125 3.050781 18.703125 C 3.050781 18.703125 3.128906 18.730469 3.207031 18.757812 C 3.285156 18.789062 3.367188 18.816406 3.367188 18.816406 C 3.453125 18.789062 3.582031 18.761719 3.734375 18.75 C 3.808594 18.746094 3.890625 18.746094 3.972656 18.753906 C 4.054688 18.765625 4.140625 18.78125 4.222656 18.808594 C 4.308594 18.835938 4.390625 18.871094 4.46875 18.921875 C 4.546875 18.976562 4.621094 19.039062 4.691406 19.121094 C 4.832031 19.28125 4.945312 19.507812 5.027344 19.828125 " fill-opacity="1" fill-rule="nonzero"/><path fill="#6b1e2f" d="M 3.714844 20.605469 C 3.714844 20.605469 3.636719 20.546875 3.558594 20.480469 C 3.484375 20.417969 3.40625 20.351562 3.40625 20.351562 C 3.40625 20.351562 3.488281 20.371094 3.574219 20.386719 C 3.660156 20.40625 3.742188 20.421875 3.742188 20.421875 C 3.824219 20.386719 3.953125 20.335938 4.105469 20.304688 C 4.257812 20.277344 4.433594 20.265625 4.609375 20.296875 C 4.699219 20.3125 4.789062 20.339844 4.875 20.378906 C 4.960938 20.421875 5.046875 20.472656 5.128906 20.546875 C 5.292969 20.691406 5.4375 20.902344 5.566406 21.21875 C 5.386719 21.441406 5.199219 21.558594 5.011719 21.582031 C 4.820312 21.613281 4.632812 21.550781 4.457031 21.445312 C 4.371094 21.390625 4.289062 21.324219 4.210938 21.253906 C 4.132812 21.183594 4.0625 21.105469 4 21.027344 C 3.933594 20.949219 3.878906 20.871094 3.832031 20.796875 C 3.78125 20.726562 3.742188 20.660156 3.714844 20.605469 " fill-opacity="1" fill-rule="nonzero"/><path fill="#6b1e2f" d="M 6.308594 22.550781 C 6.15625 22.804688 5.984375 22.945312 5.796875 23 C 5.75 23.011719 5.703125 23.019531 5.652344 23.023438 C 5.605469 23.027344 5.558594 23.023438 5.507812 23.019531 C 5.414062 23.007812 5.3125 22.976562 5.21875 22.9375 C 5.125 22.894531 5.03125 22.839844 4.941406 22.777344 C 4.855469 22.714844 4.769531 22.648438 4.695312 22.578125 C 4.617188 22.507812 4.550781 22.433594 4.492188 22.371094 C 4.433594 22.300781 4.382812 22.242188 4.347656 22.191406 C 4.347656 22.191406 4.324219 22.179688 4.292969 22.160156 C 4.257812 22.140625 4.214844 22.113281 4.171875 22.085938 C 4.085938 22.03125 4 21.976562 4 21.976562 C 4 21.976562 4.085938 21.984375 4.175781 21.988281 C 4.261719 21.996094 4.351562 22 4.351562 22 C 4.429688 21.953125 4.550781 21.882812 4.703125 21.832031 C 4.777344 21.804688 4.859375 21.785156 4.941406 21.769531 C 5.027344 21.753906 5.117188 21.746094 5.210938 21.75 C 5.300781 21.753906 5.394531 21.769531 5.488281 21.796875 C 5.535156 21.8125 5.582031 21.832031 5.628906 21.851562 C 5.675781 21.875 5.722656 21.902344 5.769531 21.933594 C 5.957031 22.054688 6.132812 22.25 6.308594 22.550781 " fill-opacity="1" fill-rule="nonzero"/><path fill="#6b1e2f" d="M 5.210938 23.710938 C 5.210938 23.710938 5.203125 23.707031 5.195312 23.703125 C 5.183594 23.699219 5.167969 23.691406 5.152344 23.683594 C 5.117188 23.667969 5.066406 23.648438 5.019531 23.625 C 4.972656 23.605469 4.925781 23.582031 4.890625 23.566406 C 4.851562 23.550781 4.828125 23.539062 4.828125 23.539062 C 4.828125 23.539062 4.851562 23.539062 4.886719 23.535156 C 4.917969 23.535156 4.964844 23.53125 5.007812 23.527344 C 5.097656 23.523438 5.1875 23.515625 5.1875 23.515625 C 5.261719 23.453125 5.375 23.367188 5.519531 23.296875 C 5.664062 23.222656 5.835938 23.160156 6.023438 23.140625 C 6.210938 23.121094 6.410156 23.148438 6.617188 23.246094 C 6.640625 23.257812 6.667969 23.273438 6.691406 23.289062 C 6.71875 23.300781 6.742188 23.316406 6.769531 23.335938 C 6.820312 23.367188 6.875 23.410156 6.925781 23.453125 C 6.976562 23.5 7.03125 23.550781 7.082031 23.605469 C 7.109375 23.636719 7.136719 23.664062 7.164062 23.695312 C 7.191406 23.726562 7.21875 23.761719 7.246094 23.796875 C 7.1875 23.933594 7.117188 24.046875 7.042969 24.132812 C 6.964844 24.21875 6.882812 24.28125 6.789062 24.320312 C 6.699219 24.363281 6.601562 24.382812 6.503906 24.382812 C 6.453125 24.382812 6.402344 24.378906 6.351562 24.371094 C 6.300781 24.363281 6.25 24.355469 6.199219 24.339844 C 6.097656 24.308594 5.992188 24.269531 5.894531 24.21875 C 5.796875 24.167969 5.703125 24.109375 5.617188 24.050781 C 5.53125 23.988281 5.453125 23.925781 5.382812 23.867188 C 5.316406 23.808594 5.257812 23.753906 5.210938 23.710938 " fill-opacity="1" fill-rule="nonzero"/><path fill="#6b1e2f" d="M 8.371094 24.925781 C 8.292969 25.222656 8.160156 25.414062 7.988281 25.523438 C 7.902344 25.574219 7.804688 25.609375 7.703125 25.625 C 7.652344 25.632812 7.601562 25.636719 7.550781 25.636719 C 7.496094 25.636719 7.441406 25.628906 7.386719 25.625 C 7.335938 25.617188 7.28125 25.605469 7.226562 25.589844 C 7.171875 25.578125 7.117188 25.5625 7.066406 25.542969 C 7.011719 25.523438 6.960938 25.503906 6.90625 25.480469 C 6.855469 25.460938 6.808594 25.433594 6.757812 25.410156 C 6.664062 25.363281 6.574219 25.308594 6.496094 25.261719 C 6.421875 25.210938 6.351562 25.164062 6.300781 25.125 C 6.300781 25.125 6.199219 25.09375 6.097656 25.066406 C 6.046875 25.050781 5.992188 25.035156 5.957031 25.027344 C 5.917969 25.015625 5.890625 25.003906 5.890625 25.003906 C 5.890625 25.003906 5.914062 25 5.949219 24.996094 C 5.980469 24.988281 6.027344 24.980469 6.070312 24.96875 C 6.160156 24.949219 6.25 24.929688 6.25 24.929688 C 6.316406 24.859375 6.421875 24.757812 6.554688 24.660156 C 6.691406 24.566406 6.855469 24.480469 7.042969 24.4375 C 7.136719 24.414062 7.234375 24.402344 7.335938 24.402344 C 7.386719 24.40625 7.441406 24.410156 7.492188 24.417969 C 7.546875 24.429688 7.601562 24.441406 7.65625 24.457031 C 7.710938 24.476562 7.765625 24.5 7.824219 24.527344 C 7.882812 24.554688 7.941406 24.585938 8 24.625 C 8.058594 24.664062 8.117188 24.707031 8.179688 24.757812 C 8.210938 24.78125 8.242188 24.808594 8.273438 24.835938 C 8.304688 24.863281 8.339844 24.894531 8.371094 24.925781 " fill-opacity="1" fill-rule="nonzero"/><path fill="#6b1e2f" d="M 7.585938 11.816406 C 7.585938 11.816406 7.652344 11.835938 7.71875 11.851562 C 7.75 11.863281 7.785156 11.871094 7.808594 11.878906 C 7.832031 11.886719 7.851562 11.890625 7.851562 11.890625 C 7.851562 11.890625 7.832031 11.894531 7.808594 11.898438 C 7.78125 11.902344 7.75 11.910156 7.714844 11.917969 C 7.648438 11.929688 7.582031 11.945312 7.582031 11.945312 C 7.550781 11.96875 7.515625 12 7.46875 12.03125 C 7.449219 12.046875 7.425781 12.066406 7.398438 12.082031 C 7.371094 12.097656 7.347656 12.117188 7.320312 12.136719 C 7.207031 12.207031 7.074219 12.277344 6.933594 12.324219 C 6.859375 12.347656 6.789062 12.363281 6.710938 12.367188 C 6.636719 12.371094 6.558594 12.367188 6.484375 12.347656 C 6.328125 12.308594 6.175781 12.207031 6.035156 12.007812 C 6.066406 11.945312 6.101562 11.886719 6.136719 11.835938 C 6.171875 11.785156 6.210938 11.742188 6.246094 11.703125 C 6.320312 11.625 6.402344 11.566406 6.476562 11.527344 C 6.496094 11.515625 6.515625 11.507812 6.535156 11.5 C 6.558594 11.492188 6.578125 11.484375 6.597656 11.480469 C 6.636719 11.46875 6.675781 11.460938 6.714844 11.457031 C 6.789062 11.445312 6.867188 11.449219 6.941406 11.464844 C 7.085938 11.492188 7.21875 11.554688 7.328125 11.625 C 7.441406 11.691406 7.53125 11.765625 7.585938 11.816406 " fill-opacity="1" fill-rule="nonzero"/><path fill="#6b1e2f" d="M 7.035156 12.714844 C 7.035156 12.714844 7.105469 12.722656 7.175781 12.730469 C 7.242188 12.738281 7.3125 12.75 7.3125 12.75 C 7.3125 12.75 7.246094 12.773438 7.179688 12.792969 C 7.148438 12.804688 7.113281 12.816406 7.089844 12.828125 C 7.066406 12.835938 7.050781 12.84375 7.050781 12.84375 C 6.996094 12.902344 6.910156 12.984375 6.808594 13.074219 C 6.753906 13.117188 6.699219 13.164062 6.636719 13.203125 C 6.609375 13.226562 6.574219 13.246094 6.542969 13.265625 C 6.511719 13.285156 6.476562 13.304688 6.441406 13.320312 C 6.304688 13.386719 6.152344 13.425781 5.988281 13.410156 C 5.828125 13.390625 5.65625 13.3125 5.488281 13.125 C 5.5 13.09375 5.511719 13.058594 5.523438 13.027344 C 5.535156 12.996094 5.550781 12.96875 5.566406 12.941406 C 5.59375 12.882812 5.625 12.832031 5.65625 12.789062 C 5.691406 12.742188 5.722656 12.703125 5.757812 12.667969 C 5.792969 12.632812 5.832031 12.601562 5.867188 12.574219 C 5.90625 12.550781 5.941406 12.527344 5.980469 12.511719 C 6.019531 12.492188 6.058594 12.480469 6.097656 12.46875 C 6.175781 12.449219 6.25 12.441406 6.328125 12.445312 C 6.480469 12.453125 6.625 12.5 6.746094 12.554688 C 6.867188 12.605469 6.96875 12.667969 7.035156 12.714844 " fill-opacity="1" fill-rule="nonzero"/><path fill="#6b1e2f" d="M 6.601562 13.703125 C 6.601562 13.703125 6.671875 13.703125 6.746094 13.699219 C 6.816406 13.699219 6.890625 13.699219 6.890625 13.699219 C 6.890625 13.699219 6.824219 13.730469 6.761719 13.765625 C 6.730469 13.78125 6.699219 13.796875 6.675781 13.808594 C 6.648438 13.824219 6.632812 13.832031 6.632812 13.832031 C 6.585938 13.898438 6.515625 13.996094 6.421875 14.101562 C 6.375 14.152344 6.324219 14.207031 6.269531 14.257812 C 6.210938 14.3125 6.152344 14.359375 6.085938 14.402344 C 5.957031 14.492188 5.804688 14.554688 5.640625 14.558594 C 5.472656 14.5625 5.285156 14.507812 5.085938 14.34375 C 5.144531 14.054688 5.261719 13.859375 5.394531 13.730469 C 5.464844 13.667969 5.539062 13.621094 5.613281 13.589844 C 5.6875 13.558594 5.765625 13.539062 5.84375 13.535156 C 6 13.519531 6.152344 13.542969 6.285156 13.582031 C 6.417969 13.617188 6.527344 13.667969 6.601562 13.703125 " fill-opacity="1" fill-rule="nonzero"/><path fill="#6b1e2f" d="M 6.300781 14.773438 C 6.300781 14.773438 6.375 14.761719 6.445312 14.75 C 6.484375 14.746094 6.519531 14.738281 6.546875 14.734375 C 6.574219 14.730469 6.59375 14.726562 6.59375 14.726562 C 6.59375 14.726562 6.578125 14.738281 6.554688 14.753906 C 6.53125 14.769531 6.503906 14.792969 6.472656 14.8125 C 6.441406 14.832031 6.414062 14.855469 6.390625 14.871094 C 6.367188 14.886719 6.351562 14.898438 6.351562 14.898438 C 6.335938 14.9375 6.308594 14.984375 6.28125 15.035156 C 6.265625 15.058594 6.25 15.085938 6.230469 15.117188 C 6.214844 15.144531 6.195312 15.175781 6.175781 15.203125 C 6.097656 15.324219 5.996094 15.453125 5.878906 15.558594 C 5.847656 15.585938 5.816406 15.613281 5.78125 15.636719 C 5.75 15.660156 5.714844 15.679688 5.679688 15.699219 C 5.609375 15.738281 5.53125 15.765625 5.445312 15.78125 C 5.277344 15.808594 5.078125 15.777344 4.855469 15.640625 C 4.875 15.339844 4.960938 15.121094 5.082031 14.972656 C 5.113281 14.9375 5.144531 14.902344 5.175781 14.875 C 5.210938 14.847656 5.246094 14.820312 5.28125 14.800781 C 5.355469 14.757812 5.429688 14.726562 5.507812 14.707031 C 5.664062 14.671875 5.824219 14.675781 5.960938 14.695312 C 6.101562 14.714844 6.222656 14.746094 6.300781 14.773438 " fill-opacity="1" fill-rule="nonzero"/><path fill="#6b1e2f" d="M 6.144531 15.90625 C 6.144531 15.90625 6.164062 15.898438 6.191406 15.890625 C 6.21875 15.882812 6.253906 15.871094 6.289062 15.863281 C 6.363281 15.839844 6.4375 15.820312 6.4375 15.820312 C 6.4375 15.820312 6.421875 15.832031 6.402344 15.851562 C 6.378906 15.871094 6.351562 15.894531 6.324219 15.921875 C 6.269531 15.972656 6.21875 16.027344 6.21875 16.027344 C 6.203125 16.066406 6.183594 16.117188 6.164062 16.175781 C 6.152344 16.203125 6.140625 16.234375 6.125 16.265625 C 6.109375 16.296875 6.097656 16.328125 6.082031 16.363281 C 6.066406 16.394531 6.046875 16.429688 6.027344 16.464844 C 6.011719 16.496094 5.992188 16.53125 5.96875 16.566406 C 5.949219 16.601562 5.925781 16.632812 5.902344 16.667969 C 5.878906 16.699219 5.855469 16.734375 5.828125 16.765625 C 5.71875 16.890625 5.589844 17 5.421875 17.050781 C 5.253906 17.101562 5.050781 17.101562 4.800781 16.992188 C 4.796875 16.914062 4.796875 16.839844 4.800781 16.773438 C 4.800781 16.738281 4.804688 16.707031 4.808594 16.675781 C 4.8125 16.644531 4.816406 16.613281 4.824219 16.582031 C 4.835938 16.523438 4.851562 16.46875 4.871094 16.421875 C 4.890625 16.371094 4.914062 16.324219 4.9375 16.28125 C 4.949219 16.261719 4.964844 16.242188 4.976562 16.222656 C 4.992188 16.203125 5.007812 16.1875 5.019531 16.167969 C 5.050781 16.136719 5.082031 16.105469 5.117188 16.078125 C 5.152344 16.050781 5.1875 16.027344 5.222656 16.007812 C 5.257812 15.984375 5.296875 15.96875 5.332031 15.953125 C 5.488281 15.894531 5.648438 15.875 5.792969 15.875 C 5.9375 15.875 6.0625 15.890625 6.144531 15.90625 " fill-opacity="1" fill-rule="nonzero"/><path fill="#6b1e2f" d="M 6.148438 17.082031 C 6.148438 17.082031 6.21875 17.050781 6.289062 17.015625 C 6.359375 16.984375 6.429688 16.953125 6.429688 16.953125 C 6.429688 16.953125 6.382812 17.011719 6.332031 17.074219 C 6.285156 17.132812 6.238281 17.195312 6.238281 17.195312 C 6.230469 17.238281 6.214844 17.292969 6.203125 17.351562 C 6.195312 17.382812 6.1875 17.414062 6.175781 17.449219 C 6.171875 17.464844 6.167969 17.484375 6.160156 17.5 C 6.15625 17.519531 6.152344 17.535156 6.144531 17.554688 C 6.101562 17.699219 6.035156 17.855469 5.945312 18 C 5.898438 18.070312 5.847656 18.136719 5.785156 18.195312 C 5.722656 18.257812 5.652344 18.308594 5.574219 18.34375 C 5.410156 18.421875 5.203125 18.445312 4.9375 18.371094 C 4.871094 18.0625 4.898438 17.816406 4.976562 17.632812 C 5.015625 17.542969 5.070312 17.464844 5.128906 17.398438 C 5.1875 17.335938 5.257812 17.285156 5.332031 17.242188 C 5.476562 17.160156 5.636719 17.121094 5.785156 17.101562 C 5.929688 17.078125 6.0625 17.078125 6.148438 17.082031 " fill-opacity="1" fill-rule="nonzero"/><path fill="#6b1e2f" d="M 6.3125 18.277344 C 6.3125 18.277344 6.382812 18.234375 6.449219 18.191406 C 6.515625 18.148438 6.582031 18.109375 6.582031 18.109375 C 6.582031 18.109375 6.539062 18.175781 6.5 18.242188 C 6.488281 18.261719 6.480469 18.277344 6.46875 18.292969 C 6.460938 18.308594 6.453125 18.324219 6.445312 18.335938 C 6.429688 18.363281 6.421875 18.378906 6.421875 18.378906 C 6.417969 18.425781 6.414062 18.480469 6.40625 18.546875 C 6.402344 18.609375 6.390625 18.679688 6.378906 18.757812 C 6.367188 18.832031 6.347656 18.914062 6.324219 18.996094 C 6.300781 19.074219 6.273438 19.15625 6.234375 19.234375 C 6.199219 19.316406 6.15625 19.390625 6.101562 19.457031 C 6.046875 19.527344 5.984375 19.589844 5.90625 19.640625 C 5.753906 19.738281 5.546875 19.792969 5.265625 19.753906 C 5.152344 19.449219 5.148438 19.195312 5.203125 19 C 5.230469 18.902344 5.273438 18.816406 5.324219 18.742188 C 5.378906 18.667969 5.441406 18.609375 5.507812 18.554688 C 5.578125 18.503906 5.648438 18.460938 5.726562 18.429688 C 5.800781 18.394531 5.875 18.367188 5.949219 18.347656 C 6.09375 18.304688 6.226562 18.285156 6.3125 18.277344 " fill-opacity="1" fill-rule="nonzero"/><path fill="#6b1e2f" d="M 6.648438 19.46875 C 6.648438 19.46875 6.710938 19.417969 6.773438 19.363281 C 6.835938 19.3125 6.894531 19.261719 6.894531 19.261719 C 6.894531 19.261719 6.863281 19.335938 6.832031 19.40625 C 6.800781 19.484375 6.769531 19.558594 6.769531 19.558594 C 6.773438 19.605469 6.777344 19.660156 6.78125 19.726562 C 6.78125 19.792969 6.785156 19.867188 6.78125 19.945312 C 6.777344 20.023438 6.769531 20.109375 6.757812 20.195312 C 6.746094 20.277344 6.730469 20.367188 6.703125 20.449219 C 6.652344 20.621094 6.566406 20.78125 6.425781 20.90625 C 6.285156 21.027344 6.082031 21.113281 5.792969 21.109375 C 5.636719 20.816406 5.597656 20.5625 5.625 20.355469 C 5.640625 20.25 5.667969 20.160156 5.710938 20.078125 C 5.753906 19.996094 5.808594 19.925781 5.871094 19.863281 C 5.996094 19.738281 6.148438 19.652344 6.289062 19.589844 C 6.429688 19.527344 6.5625 19.492188 6.648438 19.46875 " fill-opacity="1" fill-rule="nonzero"/><path fill="#6b1e2f" d="M 7.15625 20.632812 C 7.15625 20.632812 7.210938 20.570312 7.265625 20.507812 C 7.320312 20.445312 7.375 20.386719 7.375 20.386719 C 7.375 20.386719 7.351562 20.464844 7.332031 20.542969 C 7.320312 20.585938 7.308594 20.625 7.300781 20.65625 C 7.296875 20.683594 7.289062 20.703125 7.289062 20.703125 C 7.300781 20.75 7.3125 20.808594 7.324219 20.875 C 7.335938 20.941406 7.347656 21.015625 7.355469 21.097656 C 7.363281 21.175781 7.367188 21.261719 7.367188 21.351562 C 7.367188 21.4375 7.363281 21.527344 7.347656 21.617188 C 7.332031 21.707031 7.3125 21.796875 7.277344 21.878906 C 7.257812 21.921875 7.238281 21.964844 7.214844 22.003906 C 7.1875 22.042969 7.160156 22.082031 7.128906 22.117188 C 7.003906 22.261719 6.808594 22.375 6.519531 22.414062 C 6.320312 22.136719 6.242188 21.886719 6.242188 21.671875 C 6.242188 21.617188 6.246094 21.566406 6.253906 21.519531 C 6.261719 21.46875 6.273438 21.421875 6.292969 21.378906 C 6.324219 21.289062 6.367188 21.210938 6.421875 21.140625 C 6.476562 21.066406 6.539062 21.003906 6.605469 20.949219 C 6.671875 20.894531 6.738281 20.84375 6.804688 20.804688 C 6.941406 20.722656 7.070312 20.664062 7.15625 20.632812 " fill-opacity="1" fill-rule="nonzero"/><path fill="#6b1e2f" d="M 7.828125 21.738281 C 7.828125 21.738281 7.875 21.667969 7.921875 21.597656 C 7.945312 21.5625 7.96875 21.527344 7.988281 21.503906 C 8.007812 21.476562 8.019531 21.457031 8.019531 21.457031 C 8.019531 21.457031 8.015625 21.480469 8.011719 21.511719 C 8.007812 21.542969 8 21.582031 7.996094 21.625 C 7.992188 21.667969 7.984375 21.710938 7.980469 21.742188 C 7.980469 21.757812 7.980469 21.769531 7.976562 21.78125 C 7.976562 21.789062 7.976562 21.792969 7.976562 21.792969 C 7.992188 21.839844 8.015625 21.894531 8.035156 21.960938 C 8.054688 22.027344 8.078125 22.101562 8.097656 22.179688 C 8.105469 22.222656 8.117188 22.261719 8.125 22.304688 C 8.132812 22.347656 8.140625 22.390625 8.144531 22.4375 C 8.15625 22.527344 8.164062 22.617188 8.164062 22.710938 C 8.160156 22.757812 8.160156 22.800781 8.152344 22.847656 C 8.148438 22.894531 8.140625 22.941406 8.128906 22.984375 C 8.105469 23.074219 8.066406 23.164062 8.011719 23.246094 C 7.957031 23.328125 7.886719 23.402344 7.792969 23.46875 C 7.699219 23.535156 7.582031 23.589844 7.433594 23.628906 C 7.40625 23.597656 7.378906 23.566406 7.351562 23.539062 C 7.324219 23.507812 7.300781 23.476562 7.277344 23.445312 C 7.234375 23.382812 7.195312 23.320312 7.164062 23.261719 C 7.132812 23.203125 7.109375 23.144531 7.089844 23.085938 C 7.082031 23.058594 7.074219 23.03125 7.066406 23.003906 C 7.058594 22.976562 7.054688 22.949219 7.050781 22.921875 C 7.019531 22.703125 7.070312 22.515625 7.160156 22.355469 C 7.25 22.195312 7.375 22.066406 7.5 21.960938 C 7.625 21.859375 7.746094 21.785156 7.828125 21.738281 " fill-opacity="1" fill-rule="nonzero"/><path fill="#6b1e2f" d="M 8.667969 22.765625 C 8.667969 22.765625 8.707031 22.6875 8.742188 22.613281 C 8.761719 22.574219 8.78125 22.535156 8.796875 22.503906 C 8.8125 22.476562 8.820312 22.457031 8.820312 22.457031 C 8.820312 22.457031 8.820312 22.480469 8.820312 22.511719 C 8.820312 22.542969 8.820312 22.585938 8.820312 22.628906 C 8.824219 22.714844 8.824219 22.800781 8.824219 22.800781 C 8.847656 22.84375 8.878906 22.898438 8.90625 22.964844 C 8.9375 23.027344 8.96875 23.097656 9 23.175781 C 9.015625 23.214844 9.03125 23.257812 9.046875 23.296875 C 9.058594 23.339844 9.074219 23.382812 9.085938 23.425781 C 9.097656 23.472656 9.109375 23.515625 9.117188 23.5625 C 9.128906 23.609375 9.136719 23.652344 9.140625 23.699219 C 9.148438 23.746094 9.152344 23.792969 9.152344 23.84375 C 9.152344 23.890625 9.148438 23.9375 9.144531 23.984375 C 9.132812 24.078125 9.109375 24.171875 9.066406 24.261719 C 8.976562 24.445312 8.820312 24.613281 8.535156 24.734375 C 8.5 24.707031 8.46875 24.679688 8.4375 24.652344 C 8.40625 24.625 8.378906 24.597656 8.351562 24.570312 C 8.296875 24.511719 8.25 24.457031 8.210938 24.402344 C 8.171875 24.34375 8.136719 24.289062 8.109375 24.234375 C 8.082031 24.179688 8.0625 24.125 8.046875 24.070312 C 8.03125 24.019531 8.023438 23.964844 8.015625 23.914062 C 8.011719 23.863281 8.011719 23.8125 8.015625 23.761719 C 8.023438 23.664062 8.042969 23.570312 8.078125 23.484375 C 8.148438 23.308594 8.257812 23.160156 8.367188 23.039062 C 8.480469 22.917969 8.59375 22.824219 8.667969 22.765625 " fill-opacity="1" fill-rule="nonzero"/><g clip-path="url(#93203e74d1)"><path fill="#6b1e2f" d="M 7.53125 26.214844 C 7.585938 26.132812 7.675781 26.015625 7.800781 25.902344 C 7.921875 25.785156 8.078125 25.675781 8.261719 25.601562 C 8.304688 25.585938 8.351562 25.570312 8.402344 25.558594 C 8.449219 25.542969 8.5 25.535156 8.554688 25.527344 C 8.605469 25.523438 8.660156 25.519531 8.714844 25.519531 C 8.742188 25.523438 8.769531 25.523438 8.796875 25.527344 C 8.824219 25.527344 8.855469 25.53125 8.882812 25.539062 C 8.941406 25.546875 9.003906 25.5625 9.0625 25.582031 C 9.125 25.601562 9.191406 25.625 9.253906 25.65625 C 9.289062 25.667969 9.320312 25.6875 9.355469 25.703125 C 9.386719 25.722656 9.421875 25.738281 9.457031 25.761719 C 9.492188 25.78125 9.527344 25.804688 9.5625 25.828125 C 9.601562 25.851562 9.636719 25.875 9.675781 25.902344 C 9.675781 25.902344 9.691406 25.914062 9.726562 25.933594 C 9.757812 25.957031 9.808594 25.988281 9.871094 26.023438 C 9.902344 26.042969 9.933594 26.0625 9.972656 26.085938 C 9.992188 26.097656 10.011719 26.109375 10.03125 26.121094 C 10.050781 26.132812 10.074219 26.144531 10.097656 26.160156 C 10.140625 26.183594 10.1875 26.210938 10.238281 26.238281 C 10.285156 26.269531 10.339844 26.296875 10.394531 26.324219 C 10.613281 26.445312 10.875 26.574219 11.164062 26.699219 C 11.449219 26.828125 11.761719 26.949219 12.078125 27.054688 C 12.394531 27.160156 12.714844 27.25 13.019531 27.320312 C 13.324219 27.390625 13.613281 27.445312 13.863281 27.480469 C 13.921875 27.488281 13.984375 27.496094 14.039062 27.503906 C 14.097656 27.511719 14.148438 27.519531 14.199219 27.523438 C 14.300781 27.535156 14.390625 27.542969 14.464844 27.550781 C 14.609375 27.5625 14.691406 27.570312 14.691406 27.570312 C 14.691406 27.570312 14.617188 27.566406 14.488281 27.566406 C 14.355469 27.5625 14.171875 27.554688 13.949219 27.539062 C 13.722656 27.519531 13.464844 27.492188 13.1875 27.453125 C 12.90625 27.410156 12.613281 27.351562 12.320312 27.28125 C 12.246094 27.265625 12.171875 27.246094 12.101562 27.226562 C 12.027344 27.207031 11.957031 27.1875 11.882812 27.167969 C 11.8125 27.148438 11.742188 27.125 11.671875 27.105469 C 11.636719 27.097656 11.601562 27.085938 11.566406 27.074219 C 11.535156 27.0625 11.5 27.050781 11.464844 27.039062 C 11.195312 26.953125 10.945312 26.859375 10.738281 26.773438 C 10.683594 26.75 10.632812 26.730469 10.585938 26.710938 C 10.539062 26.691406 10.492188 26.667969 10.449219 26.652344 C 10.363281 26.613281 10.292969 26.578125 10.230469 26.550781 C 10.171875 26.523438 10.125 26.503906 10.089844 26.484375 C 10.058594 26.46875 10.042969 26.460938 10.042969 26.460938 C 9.984375 26.433594 9.929688 26.414062 9.871094 26.40625 C 9.8125 26.394531 9.757812 26.390625 9.703125 26.394531 C 9.59375 26.40625 9.492188 26.449219 9.421875 26.519531 C 9.308594 26.636719 9.160156 26.703125 9 26.734375 C 8.917969 26.75 8.832031 26.753906 8.746094 26.753906 C 8.699219 26.753906 8.65625 26.75 8.613281 26.746094 C 8.570312 26.742188 8.523438 26.734375 8.480469 26.726562 C 8.4375 26.71875 8.394531 26.707031 8.347656 26.699219 C 8.328125 26.695312 8.304688 26.6875 8.285156 26.683594 C 8.261719 26.675781 8.242188 26.671875 8.222656 26.664062 C 8.136719 26.636719 8.054688 26.609375 7.980469 26.582031 C 7.90625 26.550781 7.835938 26.519531 7.773438 26.488281 C 7.742188 26.472656 7.710938 26.460938 7.683594 26.445312 C 7.65625 26.429688 7.632812 26.417969 7.609375 26.40625 C 7.609375 26.40625 7.5 26.390625 7.394531 26.375 C 7.339844 26.371094 7.285156 26.359375 7.246094 26.355469 C 7.203125 26.347656 7.179688 26.34375 7.179688 26.34375 C 7.179688 26.34375 7.265625 26.3125 7.355469 26.28125 C 7.441406 26.25 7.53125 26.214844 7.53125 26.214844 " fill-opacity="1" fill-rule="nonzero"/></g><g clip-path="url(#b0cc7c0ff0)"><path fill="#6b1e2f" d="M 9.660156 23.6875 C 9.589844 23.757812 9.492188 23.867188 9.394531 24.003906 C 9.300781 24.144531 9.210938 24.308594 9.167969 24.496094 C 9.15625 24.542969 9.148438 24.589844 9.144531 24.636719 C 9.136719 24.6875 9.136719 24.734375 9.140625 24.785156 C 9.144531 24.835938 9.152344 24.886719 9.164062 24.9375 C 9.171875 24.964844 9.179688 24.988281 9.1875 25.015625 C 9.199219 25.042969 9.207031 25.066406 9.21875 25.09375 C 9.242188 25.144531 9.273438 25.195312 9.308594 25.25 C 9.34375 25.300781 9.382812 25.351562 9.433594 25.402344 C 9.457031 25.425781 9.484375 25.453125 9.511719 25.476562 C 9.539062 25.503906 9.566406 25.527344 9.597656 25.550781 C 9.632812 25.574219 9.664062 25.597656 9.699219 25.621094 C 9.734375 25.644531 9.773438 25.667969 9.8125 25.691406 C 9.8125 25.691406 9.828125 25.703125 9.859375 25.722656 C 9.890625 25.742188 9.941406 25.773438 10 25.808594 C 10.03125 25.828125 10.066406 25.847656 10.101562 25.871094 C 10.121094 25.882812 10.140625 25.894531 10.160156 25.90625 C 10.179688 25.917969 10.199219 25.929688 10.222656 25.941406 C 10.265625 25.964844 10.3125 25.992188 10.359375 26.019531 C 10.40625 26.046875 10.460938 26.074219 10.511719 26.105469 C 10.730469 26.21875 10.984375 26.347656 11.265625 26.46875 C 11.542969 26.59375 11.847656 26.710938 12.15625 26.816406 C 12.464844 26.917969 12.78125 27.003906 13.078125 27.074219 C 13.375 27.144531 13.65625 27.195312 13.898438 27.230469 C 13.957031 27.242188 14.015625 27.246094 14.070312 27.253906 C 14.128906 27.261719 14.179688 27.269531 14.230469 27.273438 C 14.328125 27.285156 14.414062 27.292969 14.484375 27.300781 C 14.625 27.3125 14.707031 27.316406 14.707031 27.316406 C 14.707031 27.316406 14.636719 27.308594 14.511719 27.289062 C 14.386719 27.269531 14.207031 27.242188 13.996094 27.199219 C 13.78125 27.15625 13.535156 27.097656 13.277344 27.027344 C 13.015625 26.953125 12.746094 26.863281 12.476562 26.765625 C 12.410156 26.738281 12.34375 26.714844 12.277344 26.6875 C 12.210938 26.660156 12.144531 26.632812 12.078125 26.609375 C 12.015625 26.578125 11.953125 26.550781 11.886719 26.523438 C 11.855469 26.511719 11.824219 26.496094 11.796875 26.480469 C 11.765625 26.46875 11.734375 26.453125 11.703125 26.4375 C 11.460938 26.324219 11.242188 26.210938 11.054688 26.105469 C 11.011719 26.078125 10.964844 26.054688 10.921875 26.03125 C 10.882812 26.007812 10.84375 25.984375 10.804688 25.960938 C 10.730469 25.917969 10.667969 25.875 10.613281 25.84375 C 10.5625 25.8125 10.519531 25.785156 10.492188 25.765625 C 10.464844 25.75 10.453125 25.738281 10.453125 25.738281 C 10.402344 25.707031 10.359375 25.667969 10.328125 25.628906 C 10.292969 25.585938 10.269531 25.539062 10.25 25.488281 C 10.214844 25.390625 10.214844 25.289062 10.253906 25.191406 C 10.3125 25.042969 10.324219 24.886719 10.304688 24.742188 C 10.296875 24.667969 10.28125 24.59375 10.257812 24.523438 C 10.25 24.484375 10.238281 24.453125 10.222656 24.417969 C 10.210938 24.382812 10.199219 24.347656 10.183594 24.316406 C 10.167969 24.28125 10.15625 24.25 10.140625 24.214844 C 10.132812 24.203125 10.125 24.1875 10.117188 24.171875 C 10.109375 24.152344 10.101562 24.140625 10.09375 24.125 C 10.058594 24.0625 10.027344 24.003906 9.996094 23.953125 C 9.960938 23.902344 9.929688 23.851562 9.902344 23.808594 C 9.886719 23.789062 9.871094 23.769531 9.859375 23.75 C 9.847656 23.730469 9.835938 23.714844 9.824219 23.699219 C 9.824219 23.699219 9.808594 23.613281 9.792969 23.527344 C 9.789062 23.484375 9.78125 23.4375 9.777344 23.40625 C 9.773438 23.375 9.769531 23.351562 9.769531 23.351562 C 9.769531 23.351562 9.742188 23.4375 9.714844 23.519531 C 9.6875 23.601562 9.660156 23.6875 9.660156 23.6875 " fill-opacity="1" fill-rule="nonzero"/></g><path fill="#6b1e2f" d="M 7.324219 9.984375 L 7.550781 9.808594 L 7.421875 10.066406 C 7.417969 10.378906 7.324219 11.347656 6.363281 11.25 C 6.082031 10.328125 7.015625 10.050781 7.324219 9.984375 " fill-opacity="1" fill-rule="nonzero"/><g clip-path="url(#9c93d64468)"><path fill="#6b1e2f" d="M 1.660156 16.332031 C 1.660156 8.96875 7.632812 2.996094 14.996094 2.996094 C 22.359375 2.996094 28.328125 8.96875 28.328125 16.332031 C 28.328125 18.140625 27.96875 19.863281 27.316406 21.4375 C 28.253906 19.574219 28.78125 17.476562 28.78125 15.25 C 28.78125 7.636719 22.609375 1.464844 14.996094 1.464844 C 7.382812 1.464844 1.210938 7.636719 1.210938 15.25 C 1.210938 17.476562 1.738281 19.574219 2.671875 21.4375 C 2.019531 19.863281 1.660156 18.140625 1.660156 16.332031 " fill-opacity="1" fill-rule="nonzero"/></g><g clip-path="url(#8c9b2ad77c)"><g clip-path="url(#33537ed12f)"><g transform="matrix(1, 0, 0, 1, 11, 2)"><g clip-path="url(#d238fef33c)"><g clip-path="url(#2ec3ebbca8)"><g clip-path="url(#bd38232396)"><rect x="-17.6" width="43.2" fill="#6b1e2f" height="43.200001" y="-8.6" fill-opacity="1"/></g></g></g></g></g></g></svg>