<svg xmlns="http://www.w3.org/2000/svg" xmlns:xlink="http://www.w3.org/1999/xlink" width="50" zoomAndPan="magnify" viewBox="0 0 37.5 37.499999" height="50" preserveAspectRatio="xMidYMid meet" version="1.0"><defs><filter x="0%" y="0%" width="100%" height="100%" id="1c9838afe2"><feColorMatrix values="0 0 0 0 1 0 0 0 0 1 0 0 0 0 1 0 0 0 1 0" color-interpolation-filters="sRGB"/></filter><clipPath id="2dcc3f043d"><path d="M 11 5 L 35.15625 5 L 35.15625 33 L 11 33 Z M 11 5 " clip-rule="nonzero"/></clipPath><clipPath id="0a54d8687d"><path d="M 1.851562 5 L 24 5 L 24 33.894531 L 1.851562 33.894531 Z M 1.851562 5 " clip-rule="nonzero"/></clipPath><clipPath id="70d12b5ed8"><path d="M 13 2.808594 L 23 2.808594 L 23 13 L 13 13 Z M 13 2.808594 " clip-rule="nonzero"/></clipPath><clipPath id="4ec33a9ec4"><path d="M 17.0625 4.792969 L 17.414062 4.792969 L 17.414062 5.121094 L 17.0625 5.121094 Z M 17.0625 4.792969 " clip-rule="nonzero"/></clipPath><clipPath id="7fa2d08f13"><path d="M 17.394531 5.03125 C 16.726562 5.253906 17.320312 4.8125 17.320312 4.8125 " clip-rule="nonzero"/></clipPath><mask id="0b2a7e78de"><g filter="url(#1c9838afe2)"><rect x="-3.75" width="45" fill="#000000" y="-3.75" height="44.999999" fill-opacity="0.08"/></g></mask><clipPath id="9daccd29a9"><path d="M 0.0625 0.792969 L 0.414062 0.792969 L 0.414062 1.121094 L 0.0625 1.121094 Z M 0.0625 0.792969 " clip-rule="nonzero"/></clipPath><clipPath id="975438d01b"><path d="M 0.394531 1.03125 C -0.273438 1.253906 0.320312 0.8125 0.320312 0.8125 " clip-rule="nonzero"/></clipPath><clipPath id="3b22c704a6"><rect x="0" width="1" y="0" height="2"/></clipPath></defs><path fill="#6b1e2f" d="M 10.769531 32.652344 C 10.789062 32.660156 10.792969 32.660156 10.8125 32.667969 C 10.804688 32.664062 10.789062 32.65625 10.769531 32.652344 Z M 10.769531 32.652344 " fill-opacity="1" fill-rule="nonzero"/><g clip-path="url(#2dcc3f043d)"><path fill="#6b1e2f" d="M 31.339844 7.039062 C 30.003906 6.285156 28.492188 5.71875 26.945312 5.699219 C 26.484375 5.710938 25.84375 5.796875 25.765625 6.347656 C 25.6875 6.746094 25.613281 7.140625 25.503906 7.535156 C 25.175781 8.785156 24.824219 9.761719 24.265625 10.878906 C 23.605469 12.164062 22.988281 13.269531 22.046875 14.234375 C 21.671875 14.601562 21.980469 14.847656 22.191406 15.1875 C 22.300781 15.363281 22.320312 15.484375 22.335938 15.503906 C 22.414062 15.75 22.40625 15.703125 22.40625 16 C 22.402344 16.316406 22.203125 16.792969 21.972656 17.242188 C 21.496094 18.152344 20.980469 18.835938 20.390625 19.589844 C 19.699219 20.476562 18.957031 21.324219 18.1875 22.148438 C 17.960938 22.394531 17.542969 22.824219 17.265625 23.105469 C 16.519531 21.96875 15.996094 20.855469 15.445312 19.480469 C 14.429688 17.015625 13.101562 11.734375 11.179688 9.445312 C 13.160156 12.597656 14.664062 19.527344 16.292969 22.339844 C 17.914062 25.097656 20.179688 27.386719 22.292969 29.761719 C 22.601562 30.117188 23.097656 30.824219 23.3125 31.429688 C 23.402344 31.664062 23.472656 31.945312 23.519531 32.167969 C 23.519531 32.109375 23.519531 32.054688 23.515625 32 C 23.472656 30.921875 22.949219 29.9375 22.285156 29.113281 C 21.769531 28.453125 20.804688 27.5 20.121094 26.726562 C 19.574219 26.101562 19.097656 25.539062 18.628906 24.945312 C 19.558594 23.886719 20.507812 22.847656 21.488281 21.839844 C 22.246094 21.066406 23.023438 20.316406 23.804688 19.570312 C 24.195312 19.199219 24.542969 18.886719 24.972656 18.589844 C 25.332031 18.324219 25.761719 18.1875 26.214844 18.222656 C 25.40625 17.945312 24.347656 18.710938 23.59375 19.335938 C 22.445312 20.289062 21.410156 21.371094 20.382812 22.453125 C 19.710938 23.175781 19.046875 23.90625 18.394531 24.648438 C 18.347656 24.589844 18.296875 24.527344 18.25 24.464844 C 19.609375 22.910156 21.078125 21.257812 21.714844 20.632812 C 22.804688 19.632812 24.394531 17.914062 25.972656 17.875 C 26.332031 17.875 26.363281 17.875 26.75 17.96875 C 27.058594 18.03125 27.207031 18.191406 27.417969 17.875 C 28.523438 16.71875 30.652344 14.847656 31.960938 13.847656 C 32.597656 13.359375 33.589844 12.707031 34.261719 12.265625 C 34.46875 12.128906 34.683594 12 34.882812 11.851562 C 35.015625 11.757812 35.15625 11.636719 35.148438 11.460938 C 34.921875 9.796875 32.75 7.847656 31.339844 7.039062 Z M 31.597656 13.5 C 30.144531 14.640625 28.191406 16.324219 27.0625 17.496094 C 26.988281 17.476562 26.917969 17.453125 26.84375 17.4375 C 25.585938 17.054688 24.671875 17.363281 23.71875 18.121094 C 22.628906 18.988281 21.609375 19.945312 20.664062 20.964844 C 20.09375 21.5625 18.914062 22.898438 17.933594 24.046875 C 17.855469 23.9375 17.777344 23.832031 17.695312 23.71875 C 17.609375 23.605469 17.53125 23.488281 17.453125 23.375 C 18.195312 22.640625 19.09375 21.683594 19.761719 20.925781 C 20.828125 19.640625 21.945312 18.34375 22.625 16.800781 C 22.878906 16.226562 23.023438 15.601562 22.703125 15.015625 C 22.632812 14.867188 22.53125 14.734375 22.441406 14.597656 C 23.386719 13.558594 24.40625 11.644531 25.058594 10.148438 C 25.519531 9.011719 25.875 8.046875 26.152344 6.957031 C 26.207031 6.757812 26.226562 6.554688 26.289062 6.355469 C 26.289062 6.351562 26.289062 6.351562 26.292969 6.347656 C 26.296875 6.34375 26.300781 6.339844 26.304688 6.335938 C 26.320312 6.324219 26.339844 6.3125 26.363281 6.304688 C 26.335938 6.316406 26.363281 6.296875 26.394531 6.28125 C 26.382812 6.289062 26.375 6.296875 26.363281 6.304688 C 26.371094 6.300781 26.378906 6.292969 26.394531 6.28125 C 26.40625 6.277344 26.414062 6.277344 26.421875 6.273438 C 26.9375 6.132812 27.394531 6.207031 27.992188 6.316406 C 29.171875 6.558594 29.980469 6.878906 31.019531 7.441406 C 31.703125 7.816406 32.089844 8.15625 32.65625 8.753906 C 33.347656 9.4375 34.457031 10.609375 34.59375 11.386719 C 33.679688 12.070312 32.554688 12.757812 31.597656 13.5 Z M 31.597656 13.5 " fill-opacity="1" fill-rule="nonzero"/></g><path fill="#6b1e2f" d="M 11.085938 32.167969 C 11.082031 32.167969 11.082031 32.167969 11.078125 32.171875 C 11.082031 32.167969 11.082031 32.167969 11.085938 32.167969 Z M 11.085938 32.167969 " fill-opacity="1" fill-rule="nonzero"/><g clip-path="url(#0a54d8687d)"><path fill="#6b1e2f" d="M 23.164062 33.53125 C 22.816406 33.800781 22.359375 33.75 21.976562 33.601562 C 21.523438 33.460938 20.933594 32.910156 20.761719 32.679688 C 20.25 32.019531 19.902344 31.25 19.535156 30.503906 C 17.007812 25.195312 15.917969 23.351562 13.148438 21.054688 C 12.082031 20.171875 11.058594 19.898438 9.863281 19.304688 C 6.652344 17.78125 3.160156 13.625 2.996094 9.441406 C 2.941406 8.664062 3.160156 6.351562 4.746094 5.636719 C 5.617188 5.242188 8.128906 5.503906 10.84375 8.871094 C 7.839844 4.8125 5.585938 5.007812 4.671875 5.335938 C 4.414062 5.429688 4.191406 5.558594 3.996094 5.703125 C 3.996094 5.703125 3.996094 5.699219 4 5.699219 C 2.371094 7.253906 1.851562 8.839844 1.871094 10.75 C 1.878906 11.402344 2.078125 12.398438 2.261719 13.027344 C 2.632812 14.308594 3.246094 15.167969 4.015625 16.257812 C 4.789062 17.351562 5.742188 18.308594 6.835938 19.085938 C 7.929688 19.863281 9.15625 20.25 10.339844 20.878906 C 10.984375 21.222656 11.78125 21.617188 12.394531 22.015625 C 13.007812 22.417969 13.558594 22.921875 14.082031 23.4375 C 13.921875 23.160156 13.746094 22.894531 13.527344 22.667969 C 13.304688 22.4375 13.066406 22.226562 12.824219 22.019531 C 12.324219 21.59375 11.765625 21.238281 11.191406 20.921875 C 10.035156 20.28125 8.8125 19.785156 7.6875 19.09375 C 5.433594 17.710938 3.472656 15.351562 2.589844 12.867188 C 2.113281 11.539062 1.949219 9.824219 2.648438 8 C 1.957031 10.851562 3.4375 13.933594 5.355469 16.207031 C 6.28125 17.328125 7.363281 18.328125 8.578125 19.128906 C 9.65625 19.847656 10.882812 20.285156 12.011719 20.910156 C 12.65625 21.292969 13.199219 21.773438 13.832031 22.394531 C 16.296875 24.816406 17.527344 27.574219 19.171875 30.984375 C 19.394531 31.4375 19.621094 31.894531 19.902344 32.320312 C 19.507812 31.910156 19.167969 31.449219 18.875 30.96875 C 17.972656 29.5 16.410156 25.722656 14.613281 23.824219 C 14.566406 23.777344 14.492188 23.835938 14.523438 23.890625 C 14.753906 24.289062 14.988281 24.683594 15.222656 25.078125 C 14.660156 25.605469 13.664062 26.542969 13.089844 27.050781 C 11.777344 28.234375 10.4375 29.382812 9.109375 30.546875 C 9.027344 30.628906 8.972656 30.648438 8.867188 30.832031 C 8.753906 31.027344 8.84375 31.402344 8.84375 31.390625 C 8.949219 31.792969 9.113281 32.109375 9.511719 32.476562 C 9.585938 32.542969 9.664062 32.609375 9.742188 32.667969 C 10.230469 33.207031 11.121094 33.777344 11.816406 33.703125 C 12.855469 33.558594 13.363281 32.351562 14.625 30.3125 C 15.257812 29.277344 15.863281 28.355469 16.542969 27.449219 C 17.71875 29.75 18.457031 31.835938 20.101562 33.125 C 20.792969 33.667969 21.757812 34.183594 22.652344 33.878906 C 22.664062 33.875 22.675781 33.875 22.6875 33.871094 C 22.703125 33.863281 22.710938 33.855469 22.722656 33.84375 C 22.824219 33.808594 22.929688 33.765625 23.03125 33.703125 C 23.148438 33.640625 23.25 33.480469 23.304688 33.394531 C 23.261719 33.441406 23.214844 33.488281 23.164062 33.53125 Z M 15.363281 25.316406 C 15.621094 25.75 15.765625 26.007812 15.976562 26.386719 C 14.957031 27.59375 13.921875 29.046875 12.992188 30.324219 C 12.445312 31.089844 11.507812 32.597656 11.046875 32.734375 C 11.046875 32.734375 11.050781 32.734375 11.054688 32.734375 C 11.050781 32.738281 11.050781 32.738281 11.050781 32.738281 C 11.046875 32.738281 11.042969 32.738281 11.042969 32.738281 C 11.042969 32.738281 11.046875 32.738281 11.046875 32.734375 C 11.046875 32.734375 11.042969 32.734375 11.042969 32.738281 C 11.039062 32.738281 11.039062 32.738281 11.042969 32.738281 C 10.960938 32.722656 10.945312 32.71875 10.8125 32.667969 C 10.839844 32.679688 10.789062 32.660156 10.765625 32.652344 C 10.765625 32.652344 10.769531 32.652344 10.773438 32.652344 C 10.074219 32.355469 9.363281 31.773438 9.273438 31.019531 C 9.308594 30.789062 9.222656 31.117188 15.363281 25.316406 Z M 14.707031 29.464844 C 13.082031 31.902344 12.589844 33.558594 11.269531 33.214844 C 11.683594 33.035156 12.292969 32.101562 12.898438 31.210938 C 13.742188 29.96875 14.585938 28.894531 15.441406 27.753906 C 15.503906 27.664062 15.792969 27.320312 16.214844 26.820312 C 16.265625 26.917969 16.316406 27.011719 16.367188 27.109375 C 15.78125 27.871094 15.222656 28.652344 14.707031 29.464844 Z M 14.707031 29.464844 " fill-opacity="1" fill-rule="nonzero"/></g><path fill="#6b1e2f" d="M 26.433594 5.71875 C 26.421875 5.722656 26.410156 5.730469 26.398438 5.738281 C 26.40625 5.734375 26.417969 5.726562 26.433594 5.71875 Z M 26.433594 5.71875 " fill-opacity="1" fill-rule="nonzero"/><path fill="#6b1e2f" d="M 27.511719 6.964844 C 27.449219 6.984375 27.410156 7.035156 27.386719 7.09375 C 27.269531 7.351562 27.171875 7.621094 27.066406 7.882812 C 26.78125 8.585938 26.488281 9.285156 26.167969 9.972656 C 26.597656 9.316406 26.953125 8.621094 27.296875 7.914062 C 27.179688 8.25 27.128906 8.347656 26.929688 8.839844 C 26.328125 10.226562 25.683594 11.605469 24.839844 12.867188 C 24.390625 13.539062 24.160156 13.859375 23.789062 14.34375 C 23.734375 14.410156 23.675781 14.484375 23.625 14.53125 C 23.714844 14.007812 24.160156 13.308594 24.363281 12.871094 C 24.101562 13.257812 23.824219 13.632812 23.582031 14.035156 C 23.464844 14.257812 23.386719 14.390625 23.382812 14.65625 C 23.46875 15.058594 23.871094 14.683594 24.015625 14.519531 C 24.449219 14.066406 24.847656 13.582031 25.207031 13.066406 C 26.160156 11.664062 27.007812 9.949219 27.554688 8.5625 C 27.667969 8.265625 28.070312 6.914062 27.511719 6.964844 Z M 27.511719 6.964844 " fill-opacity="1" fill-rule="nonzero"/><path fill="#6b1e2f" d="M 32.308594 10.042969 C 32.246094 10.050781 32.191406 10.089844 32.15625 10.140625 C 31.984375 10.367188 31.824219 10.601562 31.660156 10.835938 C 31.222656 11.453125 30.773438 12.0625 30.300781 12.65625 C 30.875 12.121094 31.378906 11.523438 31.878906 10.921875 C 31.683594 11.21875 31.613281 11.304688 31.308594 11.730469 C 30.398438 12.945312 29.453125 14.136719 28.339844 15.167969 C 27.746094 15.714844 27.445312 15.976562 26.976562 16.355469 C 26.90625 16.410156 26.828125 16.46875 26.769531 16.503906 C 26.976562 16.011719 27.578125 15.4375 27.875 15.058594 C 27.53125 15.375 27.171875 15.675781 26.84375 16.011719 C 26.679688 16.199219 26.570312 16.308594 26.507812 16.566406 C 26.496094 16.980469 26.976562 16.707031 27.15625 16.582031 C 27.679688 16.242188 28.179688 15.859375 28.648438 15.445312 C 29.898438 14.300781 31.125 12.828125 31.980469 11.609375 C 32.160156 11.347656 32.863281 10.125 32.308594 10.042969 Z M 32.308594 10.042969 " fill-opacity="1" fill-rule="nonzero"/><path fill="#6b1e2f" d="M 29.789062 9.480469 C 29.921875 9.191406 30.410156 7.867188 29.847656 7.878906 C 29.789062 7.894531 29.742188 7.945312 29.714844 8 C 29.582031 8.25 29.46875 8.511719 29.34375 8.769531 C 29.015625 9.453125 28.679688 10.128906 28.3125 10.796875 C 28.785156 10.171875 29.183594 9.496094 29.574219 8.816406 C 29.433594 9.144531 29.378906 9.238281 29.148438 9.714844 C 28.460938 11.0625 27.726562 12.394531 26.804688 13.601562 C 26.3125 14.242188 26.0625 14.550781 25.660156 15.003906 C 25.601562 15.070312 25.535156 15.140625 25.484375 15.183594 C 25.605469 14.664062 26.097656 14 26.328125 13.578125 C 26.042969 13.945312 25.738281 14.300781 25.472656 14.6875 C 25.34375 14.902344 25.253906 15.027344 25.234375 15.292969 C 25.292969 15.703125 25.71875 15.355469 25.875 15.199219 C 26.335938 14.773438 26.765625 14.3125 27.160156 13.824219 C 28.195312 12.484375 29.152344 10.824219 29.789062 9.480469 Z M 29.789062 9.480469 " fill-opacity="1" fill-rule="nonzero"/><g clip-path="url(#70d12b5ed8)"><path fill="#6b1e2f" d="M 16.515625 11.851562 C 16.824219 12.136719 17.136719 12.414062 17.476562 12.65625 C 17.613281 12.742188 17.746094 12.855469 17.910156 12.882812 C 17.707031 12.800781 17.566406 12.605469 17.410156 12.457031 C 17.109375 12.128906 16.828125 11.78125 16.546875 11.433594 C 15.535156 10.191406 14.46875 8.570312 14.042969 7.023438 C 13.753906 5.929688 13.660156 4.351562 14.546875 3.992188 C 15.035156 3.828125 15.917969 4.261719 16.566406 5.007812 C 16.878906 5.375 17.195312 5.847656 17.441406 6.351562 C 17.226562 7.105469 17.097656 7.910156 17.265625 8.671875 C 17.355469 8.972656 17.484375 9.347656 17.800781 9.472656 C 18.351562 9.613281 18.445312 9.070312 18.433594 8.652344 C 18.472656 7.84375 18.296875 7.035156 17.960938 6.300781 C 18.121094 5.789062 18.339844 5.289062 18.613281 4.851562 C 19.027344 4.253906 18.941406 4.332031 19.46875 3.804688 C 19.730469 3.582031 19.960938 3.410156 20.335938 3.335938 C 20.46875 3.304688 20.667969 3.335938 20.734375 3.347656 C 20.980469 3.421875 21.019531 3.410156 21.160156 3.511719 C 21.570312 3.84375 21.59375 4.382812 21.65625 4.742188 C 21.738281 6.1875 21.0625 7.882812 20.214844 9.359375 C 19.746094 10.171875 18.125 12.585938 17.90625 12.882812 C 17.960938 12.832031 19.675781 11.769531 21.550781 7.578125 C 21.886719 6.824219 22.21875 5.480469 22.125 4.652344 C 22.042969 4.023438 21.796875 3.300781 21.175781 3.023438 C 21.035156 2.949219 20.558594 2.816406 20.222656 2.910156 C 19.816406 2.964844 19.285156 3.371094 19.136719 3.507812 C 18.453125 4.089844 17.964844 4.871094 17.652344 5.703125 C 17.261719 5.023438 16.761719 4.386719 16.105469 3.945312 C 15.289062 3.363281 14.167969 3.179688 13.628906 4.21875 C 13.171875 5.195312 13.347656 6.339844 13.621094 7.347656 C 14.179688 9.066406 15.167969 10.648438 16.515625 11.851562 Z M 17.761719 7.15625 C 17.789062 7.234375 17.808594 7.3125 17.828125 7.390625 C 17.953125 7.757812 17.964844 8.660156 17.933594 8.933594 C 17.933594 8.941406 17.929688 8.953125 17.929688 8.960938 C 17.773438 8.75 17.671875 8.339844 17.683594 7.910156 C 17.691406 7.667969 17.71875 7.414062 17.761719 7.15625 Z M 17.761719 7.15625 " fill-opacity="1" fill-rule="nonzero"/></g><path fill="#6b1e2f" d="M 6.714844 6.226562 C 5.699219 5.847656 4.464844 6.21875 4.042969 7.464844 C 2.847656 10.527344 6.609375 17.40625 10.453125 18.675781 C 11.527344 18.984375 12.78125 18.839844 13.21875 17.644531 C 13.703125 16.308594 12.738281 13.5 11.742188 11.878906 C 11.648438 11.734375 11.105469 10.835938 11.007812 10.703125 C 11.210938 11.136719 12.757812 13.6875 12.949219 15.871094 C 13.046875 16.746094 12.742188 17.777344 12.238281 18.089844 C 11.664062 18.425781 10.675781 18.289062 9.9375 17.894531 C 7.875 16.730469 6.355469 14.65625 5.261719 12.375 C 3.898438 9.636719 3.855469 5.863281 6.695312 6.695312 C 8.609375 7.257812 9.984375 9.097656 11.007812 10.703125 C 9.132812 7.484375 7.742188 6.5625 6.714844 6.226562 Z M 6.714844 6.226562 " fill-opacity="1" fill-rule="nonzero"/><path fill="#6b1e2f" d="M 29.820312 16.132812 C 29.109375 16.851562 28.414062 17.601562 27.867188 18.460938 C 28.667969 17.554688 29.613281 16.789062 30.507812 15.988281 C 31.773438 14.875 32.792969 13.980469 34.089844 13.015625 C 34.25 12.890625 34.460938 12.738281 34.601562 12.640625 C 34.476562 12.703125 34.351562 12.765625 34.230469 12.832031 C 32.609375 13.710938 31.121094 14.820312 29.820312 16.132812 Z M 29.820312 16.132812 " fill-opacity="1" fill-rule="nonzero"/><path fill="#6b1e2f" d="M 7.453125 23.617188 C 6.746094 23.363281 5.921875 23.738281 5.710938 24.472656 C 5.609375 24.839844 5.691406 25.304688 5.980469 25.570312 C 6.023438 25.609375 6.070312 25.644531 6.117188 25.675781 C 6.175781 25.734375 6.242188 25.789062 6.3125 25.832031 C 6.914062 26.207031 7.859375 26.097656 8.226562 25.441406 C 8.621094 24.734375 8.171875 23.878906 7.453125 23.617188 Z M 7.898438 25.074219 C 7.75 25.582031 7.121094 25.734375 6.664062 25.605469 C 6.550781 25.574219 6.445312 25.523438 6.351562 25.464844 C 6.320312 25.4375 6.292969 25.40625 6.265625 25.371094 C 6.121094 25.175781 6.03125 24.933594 6.0625 24.6875 C 6.132812 24.179688 6.667969 23.871094 7.148438 23.976562 C 7.636719 24.082031 8.046875 24.558594 7.898438 25.074219 Z M 7.898438 25.074219 " fill-opacity="1" fill-rule="nonzero"/><path fill="#6b1e2f" d="M 27.941406 23.617188 C 27.238281 23.363281 26.410156 23.738281 26.199219 24.472656 C 26.097656 24.839844 26.179688 25.304688 26.46875 25.570312 C 26.511719 25.609375 26.558594 25.644531 26.605469 25.675781 C 26.664062 25.734375 26.730469 25.789062 26.804688 25.832031 C 27.402344 26.207031 28.351562 26.097656 28.714844 25.441406 C 29.113281 24.734375 28.660156 23.878906 27.941406 23.617188 Z M 28.386719 25.074219 C 28.238281 25.582031 27.609375 25.734375 27.152344 25.605469 C 27.039062 25.574219 26.933594 25.523438 26.839844 25.464844 C 26.808594 25.4375 26.78125 25.40625 26.753906 25.371094 C 26.609375 25.175781 26.519531 24.933594 26.550781 24.6875 C 26.621094 24.179688 27.15625 23.871094 27.636719 23.976562 C 28.125 24.082031 28.535156 24.558594 28.386719 25.074219 Z M 28.386719 25.074219 " fill-opacity="1" fill-rule="nonzero"/><g clip-path="url(#4ec33a9ec4)"><g clip-path="url(#7fa2d08f13)"><g mask="url(#0b2a7e78de)"><g transform="matrix(1, 0, 0, 1, 17, 4)"><g clip-path="url(#3b22c704a6)"><g clip-path="url(#9daccd29a9)"><g clip-path="url(#975438d01b)"><rect x="-25.25" width="54" fill="#000000" height="53.999999" y="-12.25" fill-opacity="1"/></g></g></g></g></g></g></g></svg>