<svg xmlns="http://www.w3.org/2000/svg" style="display:none">
  <symbol id="icon-dashboard" viewBox="0 0 24 24"><path d="M3 13h8V3H3v10zm10 8h8V11h-8v10zM3 21h8v-6H3v6zm10-8h8V3h-8v10z"/></symbol>
  <symbol id="icon-class" viewBox="0 0 24 24"><path d="M12 3l9 5-9 5-9-5 9-5zm0 7l9 5-9 5-9-5 9-5z"/></symbol>
  <symbol id="icon-chat" viewBox="0 0 24 24"><path d="M4 4h16v12H7l-3 3V4z"/></symbol>
  <symbol id="icon-settings" viewBox="0 0 24 24"><path d="M12 8a4 4 0 100 8 4 4 0 000-8zm9 4l-2.2.7.6 2.2-2 1.2-1.6-1.7-2.2.8-1-2.2-2.2-.7V10l2.2-.7 1-2.2 2.2.8 1.6-1.7 2 1.2-.6 2.2L21 12z"/></symbol>
</svg>
