<svg xmlns="http://www.w3.org/2000/svg" xmlns:xlink="http://www.w3.org/1999/xlink" width="40" zoomAndPan="magnify" viewBox="0 0 30 30.000001" height="40" preserveAspectRatio="xMidYMid meet" version="1.0"><defs><clipPath id="037d9c077b"><path d="M 4.375 3.257812 L 25.421875 3.257812 L 25.421875 25.757812 L 4.375 25.757812 Z M 4.375 3.257812 " clip-rule="nonzero"/></clipPath><clipPath id="399c328d2e"><path d="M 4.375 3.261719 L 25.421875 3.261719 L 25.421875 25.757812 L 4.375 25.757812 Z M 4.375 3.261719 " clip-rule="nonzero"/></clipPath></defs><g clip-path="url(#037d9c077b)"><path fill="#ffffff" d="M 18.09375 10.589844 C 17.777344 10.492188 17.238281 10.367188 16.511719 10.367188 C 13.726562 10.367188 11.480469 12.992188 11.480469 16.0625 C 11.480469 17.457031 12.175781 18.46875 13.570312 18.46875 C 15.40625 18.46875 17.082031 16.125 17.429688 14.164062 Z M 19.835938 24.257812 C 18.09375 25.175781 16.320312 25.523438 14.203125 25.523438 C 9.011719 25.523438 4.613281 21.726562 4.613281 15.652344 C 4.613281 9.132812 9.136719 3.5 16.164062 3.5 C 21.671875 3.5 25.375 7.359375 25.375 12.644531 C 25.375 17.390625 22.714844 20.175781 19.742188 20.175781 C 18.472656 20.175781 17.304688 19.324219 17.398438 17.390625 L 17.273438 17.390625 C 16.164062 19.257812 14.707031 20.175781 12.808594 20.175781 C 10.972656 20.175781 9.390625 18.691406 9.390625 16.191406 C 9.390625 12.265625 12.492188 8.6875 16.890625 8.6875 C 18.253906 8.6875 19.457031 8.972656 20.277344 9.355469 L 19.203125 15.082031 C 18.726562 17.488281 19.105469 18.59375 20.152344 18.625 C 21.765625 18.65625 23.570312 16.507812 23.570312 12.835938 C 23.570312 8.246094 20.816406 4.957031 15.910156 4.957031 C 10.753906 4.957031 6.417969 9.039062 6.417969 15.460938 C 6.417969 20.746094 9.867188 24.007812 14.550781 24.007812 C 16.355469 24.007812 18.03125 23.625 19.328125 22.898438 L 19.835938 24.257812 " fill-opacity="1" fill-rule="nonzero"/></g><g clip-path="url(#399c328d2e)"><path fill="#ffffff" d="M 16.511719 10.605469 C 13.914062 10.605469 11.71875 13.105469 11.71875 16.0625 C 11.71875 16.714844 11.898438 18.230469 13.570312 18.230469 C 15.226562 18.230469 16.851562 16.0625 17.195312 14.121094 L 17.820312 10.761719 C 17.410156 10.65625 16.972656 10.605469 16.511719 10.605469 Z M 13.570312 18.707031 C 12.132812 18.707031 11.242188 17.695312 11.242188 16.0625 C 11.242188 14.511719 11.785156 13.035156 12.773438 11.90625 C 13.773438 10.757812 15.101562 10.128906 16.511719 10.128906 C 17.097656 10.128906 17.652344 10.207031 18.164062 10.359375 L 18.367188 10.421875 L 17.664062 14.207031 C 17.484375 15.230469 16.949219 16.351562 16.242188 17.203125 C 15.433594 18.175781 14.484375 18.707031 13.570312 18.707031 Z M 16.164062 3.738281 C 9.714844 3.738281 4.851562 8.859375 4.851562 15.652344 C 4.851562 21.234375 8.785156 25.285156 14.203125 25.285156 C 16.3125 25.285156 17.96875 24.933594 19.535156 24.144531 L 19.199219 23.238281 C 17.914062 23.898438 16.3125 24.246094 14.550781 24.246094 C 12.179688 24.246094 10.050781 23.40625 8.554688 21.882812 C 7 20.296875 6.179688 18.078125 6.179688 15.460938 C 6.179688 13.875 6.4375 12.378906 6.953125 11.023438 C 7.441406 9.730469 8.148438 8.589844 9.054688 7.632812 C 10.839844 5.753906 13.273438 4.714844 15.910156 4.714844 C 18.335938 4.714844 20.355469 5.507812 21.753906 7.011719 C 23.097656 8.453125 23.808594 10.464844 23.808594 12.835938 C 23.808594 15.027344 23.167969 16.910156 22.050781 18.003906 C 21.472656 18.574219 20.796875 18.878906 20.148438 18.867188 C 19.730469 18.851562 19.402344 18.695312 19.167969 18.402344 C 18.703125 17.816406 18.636719 16.714844 18.96875 15.035156 L 20.007812 9.496094 C 19.144531 9.132812 18.019531 8.929688 16.890625 8.929688 C 12.886719 8.929688 9.632812 12.1875 9.632812 16.191406 C 9.632812 18.394531 10.9375 19.9375 12.808594 19.9375 C 14.609375 19.9375 16 19.066406 17.066406 17.269531 L 17.136719 17.152344 L 17.648438 17.152344 L 17.636719 17.402344 C 17.597656 18.222656 17.800781 18.890625 18.222656 19.332031 C 18.59375 19.722656 19.132812 19.9375 19.742188 19.9375 C 21.171875 19.9375 22.503906 19.265625 23.484375 18.042969 C 24.5625 16.699219 25.132812 14.832031 25.132812 12.644531 C 25.132812 7.402344 21.445312 3.738281 16.164062 3.738281 Z M 14.203125 25.765625 C 11.546875 25.765625 9.09375 24.796875 7.292969 23.039062 C 6.375 22.140625 5.65625 21.066406 5.160156 19.847656 C 4.636719 18.570312 4.375 17.15625 4.375 15.652344 C 4.375 12.339844 5.511719 9.253906 7.578125 6.96875 C 8.628906 5.804688 9.882812 4.894531 11.296875 4.261719 C 12.789062 3.597656 14.425781 3.261719 16.164062 3.261719 C 17.542969 3.261719 18.835938 3.496094 20.015625 3.960938 C 21.15625 4.414062 22.164062 5.074219 23.003906 5.921875 C 24.6875 7.617188 25.613281 10.003906 25.613281 12.644531 C 25.613281 14.945312 25.007812 16.914062 23.859375 18.339844 C 22.785156 19.679688 21.320312 20.417969 19.742188 20.417969 C 19 20.417969 18.339844 20.148438 17.875 19.664062 C 17.476562 19.242188 17.238281 18.671875 17.171875 17.992188 C 16.054688 19.621094 14.621094 20.417969 12.808594 20.417969 C 11.816406 20.417969 10.902344 20.011719 10.234375 19.28125 C 9.527344 18.507812 9.152344 17.4375 9.152344 16.191406 C 9.152344 14.203125 9.941406 12.242188 11.320312 10.800781 C 12.769531 9.285156 14.75 8.449219 16.890625 8.449219 C 18.164062 8.449219 19.433594 8.699219 20.378906 9.136719 L 20.546875 9.214844 L 19.4375 15.125 C 19.066406 17.011719 19.289062 17.785156 19.542969 18.105469 C 19.6875 18.285156 19.890625 18.378906 20.160156 18.386719 C 20.675781 18.398438 21.230469 18.140625 21.714844 17.664062 C 22.742188 16.65625 23.332031 14.898438 23.332031 12.835938 C 23.332031 8.121094 20.488281 5.195312 15.910156 5.195312 C 10.546875 5.195312 6.65625 9.511719 6.65625 15.460938 C 6.65625 20.429688 9.828125 23.765625 14.550781 23.765625 C 16.34375 23.765625 17.957031 23.394531 19.210938 22.691406 L 19.457031 22.554688 L 20.132812 24.375 L 19.945312 24.472656 C 18.25 25.367188 16.476562 25.765625 14.203125 25.765625 " fill-opacity="1" fill-rule="nonzero"/></g></svg>