<svg xmlns="http://www.w3.org/2000/svg" xmlns:xlink="http://www.w3.org/1999/xlink" width="40" zoomAndPan="magnify" viewBox="0 0 30 30.000001" height="40" preserveAspectRatio="xMidYMid meet" version="1.0"><defs><clipPath id="2f7e5c80f1"><path d="M 4.148438 3.664062 L 25.921875 3.664062 L 25.921875 25.441406 L 4.148438 25.441406 Z M 4.148438 3.664062 " clip-rule="nonzero"/></clipPath></defs><g clip-path="url(#2f7e5c80f1)"><path fill="#ffffff" d="M 24.683594 14.511719 C 24.683594 9.171875 20.335938 4.828125 14.996094 4.828125 C 9.65625 4.828125 5.3125 9.171875 5.3125 14.511719 C 5.3125 19.855469 9.65625 24.199219 14.996094 24.199219 C 20.335938 24.199219 24.683594 19.855469 24.683594 14.511719 Z M 25.84375 14.511719 C 25.84375 20.492188 20.976562 25.359375 14.996094 25.359375 C 9.015625 25.359375 4.152344 20.492188 4.152344 14.511719 C 4.152344 8.53125 9.015625 3.667969 14.996094 3.667969 C 20.976562 3.667969 25.84375 8.53125 25.84375 14.511719 Z M 15.78125 8.625 C 15.539062 8.566406 15.253906 8.742188 15.203125 8.988281 C 15.203125 8.996094 15.199219 9.003906 15.199219 9.011719 C 15.164062 9.183594 15.257812 9.335938 15.433594 9.375 C 18.902344 10.171875 20.363281 12.539062 19.535156 16 C 19.492188 16.171875 19.585938 16.324219 19.757812 16.367188 C 19.765625 16.371094 19.773438 16.371094 19.78125 16.375 C 20.023438 16.4375 20.304688 16.261719 20.363281 16.019531 C 21.257812 12.230469 19.574219 9.507812 15.78125 8.625 Z M 15.234375 10.015625 C 15.003906 9.953125 14.722656 10.113281 14.652344 10.347656 C 14.652344 10.351562 14.652344 10.355469 14.648438 10.363281 C 14.597656 10.539062 14.6875 10.703125 14.867188 10.75 C 17.5625 11.472656 18.601562 13.148438 18.054688 15.882812 C 18.015625 16.066406 18.128906 16.222656 18.320312 16.25 C 18.324219 16.25 18.328125 16.25 18.332031 16.253906 C 18.574219 16.285156 18.832031 16.105469 18.875 15.875 C 19.480469 12.847656 18.226562 10.820312 15.234375 10.015625 Z M 14.21875 12.09375 C 16.183594 12.71875 16.878906 13.808594 16.5625 15.875 C 16.535156 16.058594 16.652344 16.210938 16.847656 16.230469 C 17.089844 16.257812 17.34375 16.070312 17.382812 15.839844 C 17.777344 13.496094 16.890625 12.0625 14.617188 11.371094 C 14.394531 11.304688 14.117188 11.445312 14.03125 11.671875 L 14.027344 11.679688 C 13.960938 11.863281 14.042969 12.035156 14.21875 12.09375 Z M 18.71875 20.570312 C 17.113281 22.617188 14.980469 20.890625 13.703125 19.398438 C 12.097656 17.425781 10.839844 15.398438 9.789062 13.082031 C 9.023438 11.277344 8.425781 8.59375 10.976562 8.070312 C 11.609375 7.9375 12.238281 8.359375 12.414062 9 C 12.609375 9.703125 12.71875 10.050781 12.972656 10.730469 C 13.203125 11.351562 12.941406 12.054688 12.347656 12.316406 C 12.296875 12.339844 12.273438 12.351562 12.226562 12.371094 C 11.90625 12.511719 11.773438 12.914062 11.941406 13.265625 C 12.683594 14.730469 13.515625 16.074219 14.496094 17.390625 C 14.734375 17.699219 15.15625 17.757812 15.425781 17.535156 C 15.464844 17.5 15.484375 17.484375 15.527344 17.449219 C 16.027344 17.03125 16.773438 17.109375 17.226562 17.59375 C 17.722656 18.125 17.980469 18.378906 18.527344 18.867188 C 19.023438 19.3125 19.117188 20.058594 18.71875 20.570312 " fill-opacity="1" fill-rule="nonzero"/></g></svg>