<svg xmlns="http://www.w3.org/2000/svg" xmlns:xlink="http://www.w3.org/1999/xlink" width="1024" zoomAndPan="magnify" viewBox="0 0 768 284.999983" height="380" preserveAspectRatio="xMidYMid meet" version="1.0"><defs><g/><clipPath id="b01f3da675"><rect x="0" width="726" y="0" height="225"/></clipPath></defs><g transform="matrix(1, 0, 0, 1, 22, 26)"><g clip-path="url(#b01f3da675)"><g fill="#fab204" fill-opacity="1"><g transform="translate(11.674488, 168.936831)"><g><path d="M 30.402344 6.453125 C 22.113281 6.453125 14.945312 4.828125 8.898438 1.585938 C 2.78125 -1.699219 -1.894531 -6.191406 -5.121094 -11.894531 C -8.320312 -17.550781 -9.921875 -23.789062 -9.921875 -30.605469 C -9.921875 -39.054688 -7.742188 -47.125 -3.386719 -54.824219 C 0.890625 -62.378906 6.65625 -69.109375 13.902344 -75.007812 C 21.109375 -80.871094 29.226562 -85.496094 38.257812 -88.882812 C 47.324219 -92.28125 56.609375 -93.984375 66.105469 -93.984375 C 73.894531 -93.984375 81.609375 -92.851562 89.25 -90.585938 C 96.707031 -88.378906 104.058594 -85.753906 111.308594 -82.71875 C 118.390625 -79.75 125.375 -77.050781 132.253906 -74.621094 L 131.191406 -71.617188 L 128.859375 -73.789062 C 138.207031 -83.8125 147.039062 -93.832031 155.367188 -103.851562 C 163.707031 -113.882812 171.128906 -123.136719 177.632812 -131.605469 C 184.148438 -140.089844 189.304688 -146.90625 193.101562 -152.058594 L 195.667969 -150.167969 L 195.710938 -146.980469 L 150.824219 -146.367188 C 146.007812 -146.246094 142.492188 -145.46875 140.277344 -144.027344 C 137.78125 -142.402344 135.058594 -139.992188 132.109375 -136.789062 L 130.265625 -134.78125 L 123.3125 -139.414062 L 125.40625 -142.121094 C 128.695312 -146.371094 131.75 -150.175781 134.5625 -153.539062 C 137.464844 -157.007812 140.410156 -160.023438 143.398438 -162.585938 L 143.496094 -162.667969 L 143.601562 -162.742188 C 145.421875 -164.070312 147.445312 -165.019531 149.671875 -165.597656 C 151.773438 -166.140625 153.910156 -166.414062 156.085938 -166.414062 L 211.582031 -166.414062 C 213.824219 -166.414062 215.484375 -165.667969 216.5625 -164.175781 C 217.5625 -162.789062 217.824219 -161.019531 217.347656 -158.863281 C 212.046875 -134.8125 207.496094 -113.140625 203.691406 -93.851562 C 199.890625 -74.574219 197.007812 -58.699219 195.042969 -46.226562 C 193.09375 -33.878906 192.121094 -25.949219 192.121094 -22.445312 C 192.121094 -18.527344 192.667969 -16.105469 193.753906 -15.179688 C 194.996094 -14.121094 196.3125 -13.59375 197.707031 -13.59375 C 199.457031 -13.59375 201.511719 -14.269531 203.878906 -15.621094 C 206.519531 -17.132812 209.855469 -19.773438 213.890625 -23.546875 L 216.28125 -25.78125 L 222.121094 -19.210938 L 219.914062 -17.085938 C 212.5625 -10.011719 206.117188 -4.652344 200.582031 -1.007812 C 194.675781 2.878906 189.230469 4.820312 184.242188 4.820312 C 180.003906 4.820312 176.273438 2.957031 173.054688 -0.773438 C 169.921875 -4.402344 168.507812 -10.035156 168.8125 -17.675781 C 169.09375 -22.5625 169.886719 -29.539062 171.191406 -38.609375 C 172.488281 -47.636719 174.367188 -58.5 176.828125 -71.199219 L 179.957031 -70.59375 L 181.96875 -68.121094 C 177.402344 -64.410156 172.136719 -61.207031 166.171875 -58.507812 C 160.042969 -55.734375 153.277344 -54.347656 145.882812 -54.347656 C 142.066406 -54.347656 138.351562 -54.597656 134.738281 -55.09375 C 131.207031 -55.578125 127.707031 -56.167969 124.242188 -56.859375 L 124.867188 -59.984375 L 127.179688 -57.789062 C 119.246094 -49.445312 111.175781 -41.445312 102.96875 -33.78125 C 94.714844 -26.082031 86.527344 -19.238281 78.402344 -13.246094 C 70.1875 -7.1875 62.09375 -2.414062 54.125 1.082031 C 45.964844 4.664062 38.054688 6.453125 30.402344 6.453125 Z M 30.402344 0.078125 C 37.164062 0.078125 44.21875 -1.535156 51.5625 -4.757812 C 59.101562 -8.0625 66.785156 -12.601562 74.621094 -18.378906 C 82.546875 -24.222656 90.546875 -30.910156 98.617188 -38.445312 C 106.730469 -46.019531 114.710938 -53.929688 122.558594 -62.183594 L 123.769531 -63.457031 L 125.492188 -63.113281 C 128.828125 -62.445312 132.199219 -61.875 135.605469 -61.410156 C 138.929688 -60.953125 142.355469 -60.726562 145.882812 -60.726562 C 152.363281 -60.726562 158.25 -61.921875 163.542969 -64.320312 C 169.007812 -66.789062 173.808594 -69.707031 177.945312 -73.070312 L 184.753906 -78.601562 L 183.085938 -69.988281 C 180.648438 -57.390625 178.785156 -46.625 177.5 -37.699219 C 176.222656 -28.8125 175.449219 -22.050781 175.183594 -17.417969 C 174.945312 -11.457031 175.84375 -7.296875 177.878906 -4.941406 C 179.828125 -2.683594 181.949219 -1.554688 184.242188 -1.554688 C 187.957031 -1.554688 192.234375 -3.148438 197.078125 -6.335938 C 202.285156 -9.765625 208.425781 -14.878906 215.492188 -21.679688 L 217.703125 -19.382812 L 215.320312 -17.265625 L 213.6875 -19.101562 L 216.070312 -21.21875 L 218.25 -18.890625 C 213.851562 -14.777344 210.113281 -11.839844 207.042969 -10.085938 C 203.695312 -8.171875 200.585938 -7.21875 197.707031 -7.21875 C 194.75 -7.21875 192.054688 -8.253906 189.621094 -10.324219 C 187.039062 -12.527344 185.746094 -16.566406 185.746094 -22.445312 C 185.746094 -26.28125 186.746094 -34.542969 188.742188 -47.21875 C 190.722656 -59.773438 193.621094 -75.730469 197.4375 -95.082031 C 201.25 -114.421875 205.8125 -136.140625 211.121094 -160.246094 C 211.1875 -160.53125 211.210938 -160.738281 211.199219 -160.867188 C 211.210938 -160.746094 211.277344 -160.605469 211.394531 -160.441406 C 211.542969 -160.234375 211.714844 -160.09375 211.90625 -160.019531 C 211.875 -160.03125 211.765625 -160.039062 211.582031 -160.039062 L 156.085938 -160.039062 C 154.453125 -160.039062 152.847656 -159.832031 151.273438 -159.425781 C 149.828125 -159.050781 148.519531 -158.4375 147.351562 -157.585938 L 145.476562 -160.164062 L 147.550781 -157.746094 C 144.828125 -155.410156 142.128906 -152.644531 139.453125 -149.449219 C 136.691406 -146.148438 133.6875 -142.402344 130.449219 -138.21875 L 127.929688 -140.171875 L 129.695312 -142.824219 L 131.53125 -141.597656 L 129.765625 -138.945312 L 127.417969 -141.105469 C 130.726562 -144.703125 133.855469 -147.457031 136.800781 -149.371094 C 140.023438 -151.46875 144.671875 -152.59375 150.738281 -152.742188 L 202.039062 -153.441406 L 198.234375 -148.277344 C 194.414062 -143.089844 189.230469 -136.238281 182.6875 -127.722656 C 176.136719 -119.1875 168.664062 -109.871094 160.269531 -99.773438 C 151.867188 -89.664062 142.953125 -79.550781 133.523438 -69.441406 L 132.101562 -67.914062 L 130.132812 -68.609375 C 123.136719 -71.078125 116.039062 -73.820312 108.84375 -76.835938 C 101.808594 -79.785156 94.675781 -82.328125 87.441406 -84.472656 C 80.390625 -86.5625 73.28125 -87.605469 66.105469 -87.605469 C 57.378906 -87.605469 48.84375 -86.042969 40.496094 -82.914062 C 32.117188 -79.769531 24.59375 -75.484375 17.925781 -70.0625 C 11.300781 -64.667969 6.046875 -58.542969 2.164062 -51.683594 C -1.640625 -44.960938 -3.546875 -37.933594 -3.546875 -30.605469 C -3.546875 -24.90625 -2.21875 -19.71875 0.429688 -15.035156 C 3.050781 -10.402344 6.878906 -6.734375 11.914062 -4.035156 C 17.019531 -1.292969 23.183594 0.078125 30.402344 0.078125 Z M 9.921875 -38.765625 C 9.921875 -32.410156 11.234375 -26.996094 13.867188 -22.53125 C 16.492188 -18.074219 19.992188 -14.660156 24.371094 -12.289062 C 28.792969 -9.894531 33.660156 -8.695312 38.96875 -8.695312 C 46.96875 -8.824219 55.222656 -11.273438 63.730469 -16.042969 C 72.507812 -20.960938 81.5 -27.527344 90.714844 -35.738281 C 100.035156 -44.050781 109.429688 -53.140625 118.894531 -63.007812 L 121.195312 -60.800781 L 120.34375 -57.730469 C 111.332031 -60.222656 102.871094 -63.3125 94.960938 -66.988281 C 87.273438 -70.5625 79.824219 -73.730469 72.617188 -76.492188 C 65.707031 -79.140625 58.640625 -80.464844 51.417969 -80.464844 C 43.058594 -80.464844 35.773438 -78.488281 29.5625 -74.535156 C 23.300781 -70.550781 18.464844 -65.371094 15.054688 -58.992188 C 11.632812 -52.59375 9.921875 -45.851562 9.921875 -38.765625 Z M 3.546875 -38.765625 C 3.546875 -46.914062 5.507812 -54.660156 9.429688 -62 C 13.367188 -69.359375 18.933594 -75.332031 26.140625 -79.914062 C 33.394531 -84.53125 41.820312 -86.839844 51.417969 -86.839844 C 59.425781 -86.839844 67.253906 -85.375 74.898438 -82.449219 C 82.246094 -79.632812 89.828125 -76.40625 97.648438 -72.773438 C 105.242188 -69.242188 113.375 -66.277344 122.046875 -63.875 L 127.191406 -62.449219 L 123.496094 -58.59375 C 113.917969 -48.605469 104.402344 -39.398438 94.957031 -30.980469 C 85.398438 -22.460938 76.027344 -15.628906 66.847656 -10.480469 C 57.402344 -5.1875 48.109375 -2.464844 38.96875 -2.320312 C 32.582031 -2.320312 26.703125 -3.773438 21.332031 -6.683594 C 15.917969 -9.617188 11.597656 -13.820312 8.371094 -19.296875 C 5.152344 -24.757812 3.546875 -31.25 3.546875 -38.765625 Z M 135.640625 -73.425781 C 139.757812 -72.097656 143.804688 -71.003906 147.78125 -70.140625 C 151.640625 -69.304688 155.496094 -68.886719 159.347656 -68.886719 C 163.609375 -68.886719 167.28125 -69.660156 170.371094 -71.203125 C 173.660156 -72.847656 176.355469 -74.597656 178.460938 -76.453125 L 180.570312 -74.0625 L 177.445312 -74.695312 C 179.488281 -84.777344 181.800781 -95.804688 184.390625 -107.789062 C 186.976562 -119.773438 189.835938 -132.574219 192.96875 -146.191406 L 196.074219 -145.476562 L 198.65625 -143.605469 C 194.691406 -138.136719 189.570312 -131.34375 183.292969 -123.222656 C 177.015625 -115.101562 169.949219 -106.332031 162.105469 -96.914062 C 154.25 -87.492188 145.886719 -77.933594 137.011719 -68.238281 L 134.660156 -70.390625 Z M 133.683594 -67.355469 L 128.957031 -68.882812 L 132.308594 -72.542969 C 141.117188 -82.164062 149.417969 -91.648438 157.207031 -100.996094 C 165.003906 -110.351562 172.015625 -119.0625 178.25 -127.125 C 184.488281 -135.191406 189.570312 -141.933594 193.492188 -147.347656 L 199.183594 -144.761719 C 196.058594 -131.171875 193.203125 -118.398438 190.621094 -106.445312 C 188.039062 -94.488281 185.730469 -83.484375 183.691406 -73.429688 L 183.480469 -72.382812 L 182.679688 -71.671875 C 180.15625 -69.449219 177.003906 -67.390625 173.222656 -65.5 C 169.234375 -63.507812 164.613281 -62.511719 159.347656 -62.511719 C 155.042969 -62.511719 150.734375 -62.976562 146.433594 -63.910156 C 142.25 -64.816406 138 -65.964844 133.683594 -67.355469 Z M 133.683594 -67.355469 "/></g></g></g><g fill="#fab204" fill-opacity="1"><g transform="translate(234.465667, 168.936831)"><g><path d="M 62.433594 3.1875 C 60.238281 3.1875 58.585938 2.394531 57.476562 0.808594 C 56.273438 -0.910156 56.226562 -2.878906 57.339844 -5.097656 L 57.363281 -5.144531 L 72.996094 -33.960938 C 78.085938 -43.324219 82.1875 -51.054688 85.304688 -57.152344 C 89.617188 -65.78125 92.851562 -72.621094 95.003906 -77.660156 C 97.007812 -82.363281 98.011719 -85.652344 98.011719 -87.53125 C 98.011719 -88.316406 97.816406 -88.972656 97.425781 -89.492188 C 97.246094 -89.730469 96.738281 -89.851562 95.894531 -89.851562 C 93.042969 -89.851562 89.347656 -88.214844 84.800781 -84.941406 C 79.8125 -81.351562 74.105469 -76.539062 67.675781 -70.515625 C 60.84375 -64.082031 54.039062 -56.707031 47.257812 -48.382812 C 40.453125 -40.027344 34.085938 -31.40625 28.15625 -22.511719 L 25.503906 -24.28125 L 28.289062 -22.730469 C 22.265625 -11.917969 17.941406 -4.503906 15.316406 -0.496094 C 13.753906 1.960938 11.640625 3.1875 8.976562 3.1875 L -0.816406 3.1875 C -3.273438 3.1875 -4.953125 2.191406 -5.859375 0.195312 C -6.621094 -1.472656 -6.5 -3.308594 -5.503906 -5.300781 L -5.453125 -5.40625 L -5.394531 -5.503906 C -2.824219 -9.828125 0.183594 -15.105469 3.640625 -21.335938 L 14.445312 -41.015625 C 18.160156 -47.832031 21.570312 -54.449219 24.675781 -60.863281 C 27.769531 -67.257812 30.289062 -72.898438 32.234375 -77.792969 C 34.054688 -82.378906 34.964844 -85.554688 34.964844 -87.324219 C 34.964844 -88.214844 34.835938 -88.789062 34.574219 -89.050781 C 34.3125 -89.3125 33.738281 -89.441406 32.847656 -89.441406 C 31.230469 -89.441406 29.03125 -88.660156 26.25 -87.097656 C 23.199219 -85.378906 19.449219 -82.496094 15.003906 -78.441406 L 12.488281 -76.148438 L 6.863281 -83.183594 L 9.078125 -85.195312 C 16.714844 -92.140625 23.585938 -97.433594 29.683594 -101.082031 C 36.105469 -104.917969 41.308594 -106.835938 45.296875 -106.835938 C 50.414062 -106.835938 54.035156 -105.148438 56.15625 -101.773438 C 57.976562 -98.875 58.890625 -95.964844 58.890625 -93.039062 C 58.890625 -89.9375 57.800781 -85.453125 55.628906 -79.585938 C 53.558594 -73.992188 50.871094 -67.6875 47.566406 -60.667969 C 44.285156 -53.695312 40.796875 -46.652344 37.105469 -39.542969 L 34.277344 -41.011719 L 31.742188 -42.945312 C 41.492188 -55.714844 51.453125 -67.113281 61.625 -77.148438 C 70.898438 -86.148438 79.601562 -93.289062 87.730469 -98.570312 C 96.21875 -104.082031 103.222656 -106.835938 108.75 -106.835938 C 113.40625 -106.835938 116.867188 -105.183594 119.132812 -101.878906 C 121.136719 -98.957031 122.140625 -95.804688 122.140625 -92.425781 C 122.140625 -90.371094 121.726562 -87.84375 120.902344 -84.847656 C 120.109375 -81.96875 118.558594 -77.96875 116.246094 -72.851562 C 113.980469 -67.84375 110.59375 -60.898438 106.082031 -52.011719 L 106.066406 -51.980469 L 106.046875 -51.945312 C 105.101562 -50.191406 104.125 -48.335938 103.113281 -46.382812 C 102.078125 -44.375 100.9375 -42.269531 99.695312 -40.058594 L 96.914062 -41.621094 L 94.386719 -43.5625 C 103.4375 -55.355469 112.527344 -65.988281 121.652344 -75.460938 C 130.847656 -85 139.476562 -92.550781 147.542969 -98.113281 C 155.976562 -103.929688 163.175781 -106.835938 169.144531 -106.835938 C 173.636719 -106.835938 177.050781 -105.203125 179.386719 -101.929688 C 181.484375 -98.996094 182.53125 -95.828125 182.53125 -92.425781 C 182.53125 -88.160156 181.214844 -83.101562 178.578125 -77.246094 C 176.082031 -71.695312 173.003906 -65.8125 169.339844 -59.59375 L 158.625 -41.429688 C 155.128906 -35.507812 152.167969 -30.132812 149.753906 -25.300781 C 147.53125 -20.855469 146.417969 -17.453125 146.417969 -15.097656 C 146.417969 -14.1875 146.574219 -13.585938 146.882812 -13.300781 C 147.257812 -12.953125 148.011719 -12.777344 149.148438 -12.777344 C 150.652344 -12.777344 152.710938 -13.585938 155.324219 -15.207031 C 158.273438 -17.035156 161.746094 -19.816406 165.742188 -23.546875 L 168.257812 -25.898438 L 173.910156 -18.832031 L 171.695312 -16.820312 C 164.074219 -9.890625 157.359375 -4.609375 151.554688 -0.972656 C 145.390625 2.890625 140.441406 4.820312 136.703125 4.820312 C 131.144531 4.820312 127.242188 2.945312 124.992188 -0.808594 C 123.054688 -4.035156 122.085938 -7.164062 122.085938 -10.203125 C 122.085938 -14.863281 123.402344 -20.1875 126.03125 -26.171875 C 128.53125 -31.871094 131.617188 -37.800781 135.289062 -43.96875 C 138.910156 -50.046875 142.5625 -55.992188 146.253906 -61.796875 C 149.863281 -67.480469 152.832031 -72.6875 155.164062 -77.410156 C 157.324219 -81.796875 158.40625 -85.167969 158.40625 -87.53125 C 158.40625 -88.507812 158.261719 -89.148438 157.972656 -89.449219 C 157.714844 -89.71875 157.152344 -89.851562 156.289062 -89.851562 C 153.71875 -89.851562 150.058594 -88.117188 145.316406 -84.648438 C 140.152344 -80.875 134.4375 -75.789062 128.164062 -69.386719 C 121.84375 -62.929688 115.414062 -55.660156 108.882812 -47.574219 C 102.332031 -39.472656 96.085938 -31.167969 90.144531 -22.660156 L 87.53125 -24.484375 L 90.332031 -22.964844 C 88.574219 -19.71875 86.746094 -16.265625 84.851562 -12.609375 C 82.960938 -8.964844 81 -5.046875 78.972656 -0.855469 L 76.105469 -2.246094 L 79.007812 -0.925781 C 77.761719 1.816406 75.566406 3.1875 72.429688 3.1875 Z M 62.433594 -3.1875 L 72.429688 -3.1875 C 72.71875 -3.1875 72.910156 -3.21875 73.011719 -3.28125 C 73.070312 -3.316406 73.132812 -3.410156 73.203125 -3.5625 L 73.234375 -3.632812 C 75.289062 -7.875 77.273438 -11.847656 79.191406 -15.546875 C 81.105469 -19.234375 82.949219 -22.722656 84.726562 -26.003906 L 84.8125 -26.160156 L 84.917969 -26.308594 C 90.945312 -34.941406 97.28125 -43.363281 103.921875 -51.585938 C 110.585938 -59.824219 117.144531 -67.246094 123.609375 -73.847656 C 130.125 -80.5 136.105469 -85.816406 141.554688 -89.796875 C 147.417969 -94.082031 152.332031 -96.226562 156.289062 -96.226562 C 158.960938 -96.226562 161.050781 -95.441406 162.5625 -93.871094 C 164.042969 -92.335938 164.78125 -90.222656 164.78125 -87.53125 C 164.78125 -84.179688 163.480469 -79.867188 160.882812 -74.59375 C 158.453125 -69.660156 155.367188 -64.257812 151.632812 -58.378906 C 147.976562 -52.621094 144.355469 -46.730469 140.765625 -40.707031 C 137.230469 -34.765625 134.261719 -29.066406 131.867188 -23.609375 C 129.597656 -18.441406 128.464844 -13.972656 128.464844 -10.203125 C 128.464844 -8.34375 129.128906 -6.304688 130.457031 -4.089844 C 131.472656 -2.398438 133.550781 -1.554688 136.703125 -1.554688 C 139.21875 -1.554688 143.042969 -3.160156 148.167969 -6.375 C 153.652344 -9.808594 160.066406 -14.863281 167.40625 -21.539062 L 169.550781 -19.179688 L 167.0625 -17.1875 L 165.429688 -19.226562 L 167.917969 -21.21875 L 170.09375 -18.890625 C 161.183594 -10.5625 154.203125 -6.402344 149.148438 -6.402344 C 146.339844 -6.402344 144.136719 -7.144531 142.539062 -8.632812 C 140.875 -10.183594 140.042969 -12.335938 140.042969 -15.097656 C 140.042969 -18.457031 141.378906 -22.808594 144.050781 -28.152344 C 146.535156 -33.117188 149.5625 -38.621094 153.136719 -44.671875 L 163.84375 -62.828125 C 167.390625 -68.847656 170.363281 -74.527344 172.765625 -79.859375 C 175.027344 -84.886719 176.15625 -89.074219 176.15625 -92.425781 C 176.15625 -94.464844 175.503906 -96.398438 174.199219 -98.226562 C 173.136719 -99.714844 171.449219 -100.460938 169.144531 -100.460938 C 164.5 -100.460938 158.507812 -97.929688 151.160156 -92.863281 C 143.449219 -87.542969 135.140625 -80.265625 126.246094 -71.035156 C 117.28125 -61.734375 108.347656 -51.285156 99.445312 -39.683594 L 94.136719 -43.1875 C 95.34375 -45.328125 96.445312 -47.371094 97.449219 -49.308594 C 98.476562 -51.296875 99.472656 -53.183594 100.433594 -54.96875 L 103.242188 -53.457031 L 100.398438 -54.898438 C 104.863281 -63.699219 108.210938 -70.558594 110.433594 -75.480469 C 112.609375 -80.292969 114.050781 -83.980469 114.753906 -86.539062 C 115.425781 -88.984375 115.761719 -90.945312 115.761719 -92.425781 C 115.761719 -94.488281 115.132812 -96.4375 113.875 -98.273438 C 112.875 -99.730469 111.167969 -100.460938 108.75 -100.460938 C 104.480469 -100.460938 98.632812 -98.046875 91.203125 -93.222656 C 83.421875 -88.164062 75.054688 -81.296875 66.101562 -72.609375 C 56.140625 -62.785156 46.378906 -51.605469 36.8125 -39.074219 L 31.449219 -42.480469 C 35.101562 -49.515625 38.550781 -56.484375 41.796875 -63.382812 C 45.023438 -70.238281 47.640625 -76.378906 49.652344 -81.800781 C 51.558594 -86.953125 52.511719 -90.699219 52.511719 -93.039062 C 52.511719 -94.738281 51.925781 -96.519531 50.757812 -98.382812 C 49.886719 -99.765625 48.066406 -100.460938 45.296875 -100.460938 C 42.480469 -100.460938 38.367188 -98.84375 32.953125 -95.605469 C 27.21875 -92.179688 20.691406 -87.136719 13.367188 -80.476562 L 11.222656 -82.835938 L 13.710938 -84.828125 L 15.34375 -82.789062 L 12.855469 -80.796875 L 10.707031 -83.152344 C 15.507812 -87.53125 19.648438 -90.699219 23.125 -92.65625 C 26.875 -94.765625 30.117188 -95.820312 32.847656 -95.820312 C 35.496094 -95.820312 37.574219 -95.066406 39.082031 -93.558594 C 40.589844 -92.050781 41.34375 -89.972656 41.34375 -87.324219 C 41.34375 -84.742188 40.28125 -80.78125 38.160156 -75.4375 C 36.15625 -70.402344 33.574219 -64.617188 30.414062 -58.085938 C 27.261719 -51.578125 23.804688 -44.867188 20.035156 -37.945312 L 9.214844 -18.246094 C 5.730469 -11.960938 2.6875 -6.628906 0.0898438 -2.25 L -2.652344 -3.875 L 0.199219 -2.449219 C 0.0976562 -2.246094 0.0390625 -2.101562 0.03125 -2.019531 C 0.046875 -2.140625 0.015625 -2.28125 -0.0546875 -2.441406 C -0.1875 -2.730469 -0.398438 -2.953125 -0.6875 -3.105469 C -0.773438 -3.148438 -0.847656 -3.179688 -0.914062 -3.191406 C -0.902344 -3.1875 -0.871094 -3.1875 -0.816406 -3.1875 L 8.976562 -3.1875 C 9.308594 -3.1875 9.640625 -3.457031 9.984375 -3.992188 C 12.527344 -7.871094 16.769531 -15.152344 22.71875 -25.832031 L 22.78125 -25.941406 L 22.851562 -26.046875 C 28.894531 -35.109375 35.378906 -43.898438 42.3125 -52.410156 C 49.269531 -60.953125 56.269531 -68.535156 63.3125 -75.164062 C 69.941406 -81.378906 75.863281 -86.363281 81.078125 -90.117188 C 86.734375 -94.191406 91.671875 -96.226562 95.894531 -96.226562 C 98.863281 -96.226562 101.074219 -95.257812 102.527344 -93.320312 C 103.765625 -91.664062 104.386719 -89.734375 104.386719 -87.53125 C 104.386719 -84.78125 103.214844 -80.660156 100.867188 -75.160156 C 98.667969 -70 95.371094 -63.03125 90.980469 -54.25 C 87.839844 -48.105469 83.714844 -40.328125 78.601562 -30.921875 L 62.992188 -2.152344 L 60.191406 -3.671875 L 63.042969 -2.246094 C 62.988281 -2.144531 62.957031 -2.0625 62.9375 -1.996094 C 62.9375 -2.003906 62.941406 -2.027344 62.941406 -2.070312 C 62.953125 -2.34375 62.871094 -2.601562 62.699219 -2.847656 C 62.59375 -3 62.460938 -3.109375 62.300781 -3.179688 C 62.273438 -3.191406 62.253906 -3.199219 62.246094 -3.199219 C 62.289062 -3.191406 62.351562 -3.1875 62.433594 -3.1875 Z M 62.433594 -3.1875 "/></g></g></g><g fill="#fab204" fill-opacity="1"><g transform="translate(415.228494, 168.936831)"><g><path d="M 29.378906 4.617188 C 20.941406 4.617188 14.210938 2.335938 9.179688 -2.230469 C 4.140625 -6.804688 1.3125 -12.8125 0.699219 -20.242188 C 0.105469 -27.449219 1.921875 -35.132812 6.144531 -43.292969 L 35.339844 -98.207031 C 40.488281 -107.808594 46.710938 -116.8125 54.007812 -125.222656 C 61.316406 -133.644531 69.496094 -141.058594 78.546875 -147.464844 C 87.632812 -153.898438 97.320312 -158.894531 107.601562 -162.464844 C 117.9375 -166.050781 128.589844 -167.84375 139.558594 -167.84375 C 145.363281 -167.84375 149.941406 -167.476562 153.292969 -166.75 C 158.097656 -165.707031 160.496094 -163.511719 160.496094 -160.164062 C 160.496094 -158.152344 159.601562 -155.824219 157.804688 -153.175781 C 156.136719 -150.710938 153.863281 -148.542969 150.984375 -146.675781 C 147.941406 -144.703125 144.472656 -143.714844 140.578125 -143.714844 C 136.5 -143.714844 131.546875 -144.460938 125.710938 -145.957031 C 120.121094 -147.386719 112.761719 -149.332031 103.636719 -151.78125 L 104.464844 -154.859375 L 105.613281 -151.886719 C 99.890625 -149.675781 94.757812 -146.917969 90.222656 -143.613281 C 85.71875 -140.332031 81.386719 -135.925781 77.222656 -130.398438 C 72.976562 -124.757812 68.511719 -117.457031 63.832031 -108.496094 L 28.738281 -41.167969 L 25.914062 -42.644531 L 23.464844 -44.683594 C 35.117188 -58.671875 46.988281 -71.15625 59.066406 -82.136719 C 66.640625 -89.300781 73.765625 -95.140625 80.4375 -99.65625 C 87.535156 -104.460938 93.738281 -106.789062 99.050781 -106.632812 L 98.957031 -103.445312 L 98.957031 -106.632812 C 104.070312 -106.632812 107.996094 -104.472656 110.730469 -100.148438 C 113.167969 -96.296875 114.386719 -92.023438 114.386719 -87.324219 C 114.386719 -79.167969 112.679688 -70.785156 109.265625 -62.175781 C 105.90625 -53.707031 101.398438 -45.492188 95.738281 -37.53125 C 90.082031 -29.570312 83.621094 -22.445312 76.355469 -16.15625 C 69.058594 -9.84375 61.433594 -4.820312 53.484375 -1.09375 C 45.371094 2.714844 37.335938 4.617188 29.378906 4.617188 Z M 29.378906 -1.761719 C 36.386719 -1.761719 43.519531 -3.460938 50.777344 -6.863281 C 58.195312 -10.34375 65.332031 -15.050781 72.179688 -20.976562 C 79.0625 -26.929688 85.179688 -33.679688 90.542969 -41.226562 C 95.902344 -48.769531 100.167969 -56.535156 103.335938 -64.527344 C 106.453125 -72.378906 108.007812 -79.980469 108.007812 -87.324219 C 108.007812 -90.789062 107.121094 -93.929688 105.339844 -96.742188 C 103.859375 -99.085938 101.730469 -100.257812 98.957031 -100.257812 L 98.863281 -100.257812 C 94.921875 -100.375 89.972656 -98.414062 84.011719 -94.378906 C 77.625 -90.054688 70.742188 -84.398438 63.355469 -77.417969 C 51.492188 -66.636719 39.828125 -54.363281 28.359375 -40.601562 L 23.085938 -44.117188 L 58.179688 -111.449219 C 63.023438 -120.71875 67.671875 -128.3125 72.128906 -134.234375 C 76.671875 -140.265625 81.453125 -145.109375 86.46875 -148.765625 C 91.453125 -152.398438 97.070312 -155.421875 103.316406 -157.835938 L 104.285156 -158.210938 L 105.292969 -157.941406 C 114.394531 -155.496094 121.726562 -153.558594 127.289062 -152.132812 C 132.609375 -150.773438 137.039062 -150.089844 140.578125 -150.089844 C 143.214844 -150.089844 145.527344 -150.738281 147.515625 -152.027344 C 149.667969 -153.425781 151.339844 -155 152.527344 -156.75 C 153.589844 -158.320312 154.121094 -159.457031 154.121094 -160.164062 C 154.121094 -160.019531 154.160156 -159.875 154.234375 -159.742188 L 154.242188 -159.691406 C 153.824219 -160 153.058594 -160.277344 151.9375 -160.519531 C 149.035156 -161.148438 144.90625 -161.464844 139.558594 -161.464844 C 129.308594 -161.464844 119.351562 -159.789062 109.691406 -156.4375 C 99.980469 -153.070312 90.824219 -148.34375 82.230469 -142.261719 C 73.597656 -136.152344 65.796875 -129.078125 58.824219 -121.042969 C 51.835938 -112.992188 45.886719 -104.382812 40.96875 -95.214844 L 11.808594 -40.359375 C 8.144531 -33.285156 6.558594 -26.753906 7.054688 -20.765625 C 7.527344 -15.003906 9.667969 -10.402344 13.464844 -6.953125 C 17.28125 -3.492188 22.585938 -1.761719 29.378906 -1.761719 Z M 24.363281 -32.3125 C 23.394531 -26.636719 23.796875 -22.148438 25.5625 -18.84375 C 27.34375 -15.511719 29.757812 -13.113281 32.804688 -11.644531 C 36.039062 -10.089844 39.183594 -9.308594 42.234375 -9.308594 C 47.75 -9.308594 52.9375 -10.816406 57.796875 -13.828125 C 62.84375 -16.960938 67.394531 -21.132812 71.445312 -26.339844 C 75.585938 -31.664062 79.171875 -37.519531 82.199219 -43.90625 C 85.238281 -50.3125 87.546875 -56.707031 89.128906 -63.097656 C 90.699219 -69.441406 91.484375 -75.140625 91.484375 -80.183594 C 91.484375 -84.15625 91.019531 -86.824219 90.09375 -88.1875 C 89.433594 -89.160156 88.511719 -89.648438 87.324219 -89.648438 C 85.472656 -89.648438 82.625 -88.476562 78.785156 -86.132812 C 74.609375 -83.589844 70.015625 -80.011719 65 -75.390625 C 58.53125 -69.59375 51.65625 -62.71875 44.382812 -54.773438 C 37.078125 -46.792969 30.183594 -38.816406 23.691406 -30.835938 L 21.21875 -32.847656 Z M 18.078125 -33.382812 L 18.21875 -34.210938 L 18.746094 -34.859375 C 25.3125 -42.933594 32.292969 -51.007812 39.679688 -59.078125 C 47.09375 -67.179688 54.097656 -74.183594 60.683594 -80.082031 C 66.003906 -84.984375 70.933594 -88.816406 75.464844 -91.578125 C 80.328125 -94.542969 84.28125 -96.023438 87.324219 -96.023438 C 90.765625 -96.023438 93.445312 -94.605469 95.371094 -91.769531 C 97.03125 -89.324219 97.859375 -85.460938 97.859375 -80.183594 C 97.859375 -74.621094 97.011719 -68.414062 95.316406 -61.566406 C 93.632812 -54.761719 91.183594 -47.964844 87.960938 -41.175781 C 84.734375 -34.367188 80.90625 -28.117188 76.476562 -22.425781 C 71.960938 -16.613281 66.851562 -11.945312 61.15625 -8.410156 C 55.269531 -4.757812 48.960938 -2.933594 42.234375 -2.933594 C 38.214844 -2.933594 34.148438 -3.921875 30.039062 -5.902344 C 25.738281 -7.96875 22.375 -11.285156 19.9375 -15.839844 C 17.488281 -20.425781 16.867188 -26.273438 18.078125 -33.382812 Z M 18.078125 -33.382812 "/></g></g></g><g fill="#fab204" fill-opacity="1"><g transform="translate(527.440172, 168.936831)"><g><path d="M -0.816406 3.1875 C -3.273438 3.1875 -4.953125 2.191406 -5.859375 0.195312 C -6.621094 -1.472656 -6.5 -3.308594 -5.503906 -5.300781 L -5.453125 -5.40625 L -5.394531 -5.503906 C -2.824219 -9.828125 0.183594 -15.105469 3.640625 -21.335938 L 14.445312 -41.015625 C 18.160156 -47.832031 21.570312 -54.449219 24.675781 -60.863281 C 27.769531 -67.257812 30.289062 -72.898438 32.234375 -77.792969 C 34.054688 -82.378906 34.964844 -85.554688 34.964844 -87.324219 C 34.964844 -88.214844 34.835938 -88.789062 34.574219 -89.050781 C 34.3125 -89.3125 33.738281 -89.441406 32.847656 -89.441406 C 31.230469 -89.441406 29.03125 -88.660156 26.25 -87.097656 C 23.199219 -85.378906 19.449219 -82.496094 15.003906 -78.441406 L 12.488281 -76.148438 L 6.863281 -83.183594 L 9.078125 -85.195312 C 16.714844 -92.140625 23.585938 -97.433594 29.683594 -101.082031 C 36.105469 -104.917969 41.308594 -106.835938 45.296875 -106.835938 C 50.414062 -106.835938 54.035156 -105.148438 56.15625 -101.773438 C 57.976562 -98.875 58.890625 -95.964844 58.890625 -93.039062 C 58.890625 -90.230469 58.015625 -86.3125 56.261719 -81.28125 C 54.597656 -76.496094 52.386719 -71.066406 49.625 -64.992188 L 46.722656 -66.308594 L 44.078125 -68.089844 C 48.941406 -75.316406 54.125 -81.785156 59.628906 -87.496094 C 65.242188 -93.324219 71.398438 -97.984375 78.097656 -101.476562 C 84.953125 -105.050781 92.449219 -106.835938 100.589844 -106.835938 C 103.265625 -106.835938 106.113281 -106.503906 109.125 -105.84375 C 111.007812 -105.429688 112.492188 -104.789062 113.578125 -103.914062 C 115.070312 -102.714844 115.8125 -101.199219 115.8125 -99.363281 C 115.8125 -97.078125 114.917969 -94.613281 113.121094 -91.964844 C 111.484375 -89.542969 109.421875 -87.441406 106.9375 -85.65625 C 104.207031 -83.691406 101.203125 -82.710938 97.933594 -82.710938 C 94.492188 -82.710938 90.675781 -83.066406 86.488281 -83.773438 C 82.34375 -84.476562 77.28125 -85.730469 71.304688 -87.539062 L 72.226562 -90.589844 L 73.953125 -87.910156 C 68.558594 -84.441406 62.78125 -78.609375 56.617188 -70.414062 C 50.308594 -62.027344 44.269531 -52.660156 38.488281 -42.3125 L 35.707031 -43.867188 L 38.542969 -42.417969 C 35.402344 -36.273438 32.296875 -30.367188 29.226562 -24.699219 C 26.148438 -19.027344 23.378906 -14.070312 20.914062 -9.824219 C 18.441406 -5.566406 16.582031 -2.464844 15.332031 -0.519531 C 13.757812 1.953125 11.640625 3.1875 8.976562 3.1875 Z M -0.816406 -3.1875 L 8.976562 -3.1875 C 9.308594 -3.1875 9.636719 -3.449219 9.96875 -3.96875 C 11.167969 -5.832031 12.976562 -8.851562 15.402344 -13.027344 C 17.835938 -17.214844 20.574219 -22.121094 23.621094 -27.738281 C 26.667969 -33.359375 29.75 -39.21875 32.867188 -45.316406 L 32.894531 -45.371094 L 32.921875 -45.421875 C 38.839844 -56.019531 45.039062 -65.628906 51.519531 -74.246094 C 58.140625 -83.050781 64.46875 -89.394531 70.503906 -93.273438 L 71.742188 -94.066406 L 73.148438 -93.640625 C 78.871094 -91.914062 83.671875 -90.71875 87.550781 -90.0625 C 91.390625 -89.410156 94.851562 -89.085938 97.933594 -89.085938 C 99.835938 -89.085938 101.59375 -89.667969 103.214844 -90.832031 C 105.085938 -92.175781 106.628906 -93.746094 107.84375 -95.539062 C 108.90625 -97.109375 109.4375 -98.382812 109.4375 -99.363281 C 109.4375 -99.164062 109.484375 -99.023438 109.582031 -98.945312 C 109.273438 -99.195312 108.667969 -99.417969 107.757812 -99.617188 C 105.195312 -100.179688 102.804688 -100.460938 100.589844 -100.460938 C 93.492188 -100.460938 86.976562 -98.914062 81.046875 -95.824219 C 74.960938 -92.652344 69.351562 -88.402344 64.21875 -83.074219 C 58.976562 -77.628906 54.023438 -71.449219 49.367188 -64.53125 L 43.820312 -67.628906 C 46.5 -73.527344 48.640625 -78.773438 50.242188 -83.375 C 51.753906 -87.726562 52.511719 -90.949219 52.511719 -93.039062 C 52.511719 -94.738281 51.925781 -96.519531 50.757812 -98.382812 C 49.886719 -99.765625 48.066406 -100.460938 45.296875 -100.460938 C 42.480469 -100.460938 38.367188 -98.84375 32.953125 -95.605469 C 27.21875 -92.179688 20.691406 -87.136719 13.367188 -80.476562 L 11.222656 -82.835938 L 13.710938 -84.828125 L 15.34375 -82.789062 L 12.855469 -80.796875 L 10.707031 -83.152344 C 15.507812 -87.53125 19.648438 -90.699219 23.125 -92.65625 C 26.875 -94.765625 30.117188 -95.820312 32.847656 -95.820312 C 35.496094 -95.820312 37.574219 -95.066406 39.082031 -93.558594 C 40.589844 -92.050781 41.34375 -89.972656 41.34375 -87.324219 C 41.34375 -84.742188 40.28125 -80.78125 38.160156 -75.4375 C 36.15625 -70.402344 33.574219 -64.617188 30.414062 -58.085938 C 27.261719 -51.578125 23.804688 -44.867188 20.035156 -37.945312 L 9.214844 -18.246094 C 5.730469 -11.960938 2.6875 -6.628906 0.0898438 -2.25 L -2.652344 -3.875 L 0.199219 -2.449219 C 0.0976562 -2.246094 0.0390625 -2.101562 0.03125 -2.019531 C 0.046875 -2.140625 0.015625 -2.28125 -0.0546875 -2.441406 C -0.1875 -2.730469 -0.398438 -2.953125 -0.6875 -3.105469 C -0.773438 -3.148438 -0.847656 -3.179688 -0.914062 -3.191406 C -0.902344 -3.1875 -0.871094 -3.1875 -0.816406 -3.1875 Z M -0.816406 -3.1875 "/></g></g></g><g fill="#fab204" fill-opacity="1"><g transform="translate(622.922053, 168.936831)"><g><path d="M 26.523438 4.617188 C 20.3125 4.617188 15.175781 3.285156 11.109375 0.628906 C 7.0625 -2.019531 4.0625 -5.453125 2.105469 -9.679688 C 0.207031 -13.777344 -0.738281 -18.03125 -0.738281 -22.445312 C -0.738281 -30.097656 1.015625 -37.9375 4.527344 -45.960938 C 7.96875 -53.832031 12.566406 -61.378906 18.316406 -68.601562 C 24.039062 -75.789062 30.421875 -82.242188 37.472656 -87.964844 C 44.554688 -93.714844 51.824219 -98.277344 59.28125 -101.65625 C 66.910156 -105.109375 74.148438 -106.835938 81 -106.835938 C 87.066406 -106.835938 91.71875 -105.507812 94.960938 -102.847656 C 98.386719 -100.035156 100.101562 -96.355469 100.101562 -91.816406 C 100.101562 -87.945312 98.789062 -83.886719 96.160156 -79.628906 C 93.675781 -75.613281 89.488281 -71.050781 83.601562 -65.941406 C 77.863281 -60.964844 69.980469 -55.042969 59.949219 -48.171875 C 49.988281 -41.351562 37.375 -33.101562 22.109375 -23.421875 L 20.402344 -26.117188 L 23.558594 -26.566406 C 24.140625 -22.507812 25.707031 -19.199219 28.269531 -16.636719 C 30.707031 -14.199219 34.410156 -12.980469 39.378906 -12.980469 C 42.546875 -12.980469 46.546875 -13.839844 51.367188 -15.550781 C 56.148438 -17.25 61.921875 -21.089844 68.6875 -27.074219 L 71.070312 -29.183594 L 76.890625 -22.632812 L 74.59375 -20.511719 C 65.382812 -11.996094 56.515625 -5.695312 48 -1.613281 C 39.335938 2.539062 32.175781 4.617188 26.523438 4.617188 Z M 26.523438 -1.761719 C 31.210938 -1.761719 37.449219 -3.628906 45.242188 -7.363281 C 53.183594 -11.167969 61.523438 -17.113281 70.269531 -25.191406 L 72.429688 -22.851562 L 70.046875 -20.734375 L 68.417969 -22.570312 L 70.800781 -24.6875 L 72.910156 -22.300781 C 65.53125 -15.769531 59.0625 -11.519531 53.503906 -9.542969 C 47.988281 -7.585938 43.28125 -6.605469 39.378906 -6.605469 C 32.648438 -6.605469 27.441406 -8.445312 23.761719 -12.128906 C 20.199219 -15.691406 18.027344 -20.203125 17.246094 -25.664062 L 16.957031 -27.707031 L 18.695312 -28.808594 C 33.898438 -38.445312 46.449219 -46.65625 56.347656 -53.433594 C 66.175781 -60.167969 73.867188 -65.941406 79.421875 -70.757812 C 84.820312 -75.445312 88.59375 -79.519531 90.734375 -82.984375 C 92.730469 -86.210938 93.726562 -89.152344 93.726562 -91.816406 C 93.726562 -94.347656 92.789062 -96.378906 90.914062 -97.917969 C 88.851562 -99.613281 85.546875 -100.460938 81 -100.460938 C 75.066406 -100.460938 68.703125 -98.921875 61.914062 -95.847656 C 54.953125 -92.695312 48.144531 -88.417969 41.488281 -83.015625 C 34.800781 -77.582031 28.738281 -71.457031 23.304688 -64.632812 C 17.902344 -57.84375 13.589844 -50.769531 10.367188 -43.40625 C 7.214844 -36.195312 5.636719 -29.207031 5.636719 -22.445312 C 5.636719 -18.96875 6.386719 -15.605469 7.890625 -12.355469 C 9.335938 -9.238281 11.570312 -6.6875 14.597656 -4.707031 C 17.605469 -2.742188 21.582031 -1.761719 26.523438 -1.761719 Z M 18.515625 -31.679688 C 32.847656 -40.601562 44.289062 -48.332031 52.847656 -54.867188 C 61.253906 -61.289062 67.339844 -67 71.109375 -72.003906 C 74.625 -76.671875 76.382812 -81.101562 76.382812 -85.285156 C 76.382812 -87.679688 75.652344 -89.476562 74.1875 -90.671875 C 72.53125 -92.027344 70.378906 -92.707031 67.738281 -92.707031 C 63.152344 -92.707031 58.695312 -91.425781 54.367188 -88.867188 C 49.847656 -86.195312 45.699219 -82.613281 41.917969 -78.128906 C 38.066406 -73.5625 34.738281 -68.46875 31.925781 -62.84375 C 29.101562 -57.195312 26.9375 -51.453125 25.429688 -45.621094 C 23.9375 -39.855469 23.257812 -34.398438 23.386719 -29.257812 L 23.386719 -28.972656 L 20.199219 -28.972656 Z M 17.011719 -23.230469 L 17.011719 -29.175781 L 20.199219 -29.175781 L 17.011719 -29.097656 C 16.867188 -34.835938 17.617188 -40.875 19.253906 -47.214844 C 20.875 -53.484375 23.199219 -59.644531 26.222656 -65.695312 C 29.261719 -71.769531 32.867188 -77.285156 37.042969 -82.238281 C 41.289062 -87.277344 45.980469 -91.3125 51.121094 -94.355469 C 56.449219 -97.507812 61.988281 -99.082031 67.738281 -99.082031 C 71.898438 -99.082031 75.394531 -97.925781 78.226562 -95.609375 C 81.25 -93.132812 82.761719 -89.691406 82.761719 -85.285156 C 82.761719 -79.679688 80.574219 -73.972656 76.203125 -68.167969 C 72.082031 -62.695312 65.585938 -56.574219 56.71875 -49.800781 C 48 -43.140625 36.386719 -35.296875 21.882812 -26.265625 Z M 17.011719 -23.230469 "/></g></g></g><g fill="#fab204" fill-opacity="1"><g transform="translate(11.674488, 168.936831)"><g><path d="M 30.40625 3.265625 C 22.644531 3.265625 15.976562 1.769531 10.40625 -1.21875 C 4.832031 -4.21875 0.582031 -8.300781 -2.34375 -13.46875 C -5.269531 -18.632812 -6.734375 -24.347656 -6.734375 -30.609375 C -6.734375 -38.492188 -4.691406 -46.039062 -0.609375 -53.25 C 3.472656 -60.457031 8.976562 -66.882812 15.90625 -72.53125 C 22.84375 -78.175781 30.664062 -82.628906 39.375 -85.890625 C 48.082031 -89.160156 56.992188 -90.796875 66.109375 -90.796875 C 73.585938 -90.796875 81 -89.707031 88.34375 -87.53125 C 95.6875 -85.351562 102.925781 -82.765625 110.0625 -79.765625 C 117.207031 -76.773438 124.25 -74.054688 131.1875 -71.609375 C 140.570312 -81.679688 149.445312 -91.75 157.8125 -101.8125 C 166.175781 -111.875 173.625 -121.15625 180.15625 -129.65625 C 186.6875 -138.15625 191.859375 -144.992188 195.671875 -150.171875 L 150.78125 -149.5625 C 145.34375 -149.414062 141.257812 -148.457031 138.53125 -146.6875 C 135.8125 -144.925781 132.890625 -142.34375 129.765625 -138.9375 L 127.921875 -140.171875 C 131.191406 -144.390625 134.21875 -148.160156 137 -151.484375 C 139.789062 -154.816406 142.613281 -157.710938 145.46875 -160.171875 C 146.96875 -161.253906 148.632812 -162.03125 150.46875 -162.5 C 152.3125 -162.976562 154.179688 -163.21875 156.078125 -163.21875 L 211.578125 -163.21875 C 213.890625 -163.21875 214.773438 -161.992188 214.234375 -159.546875 C 208.929688 -135.472656 204.375 -113.78125 200.5625 -94.46875 C 196.75 -75.15625 193.859375 -59.238281 191.890625 -46.71875 C 189.921875 -34.207031 188.9375 -26.113281 188.9375 -22.4375 C 188.9375 -17.539062 189.851562 -14.3125 191.6875 -12.75 C 193.519531 -11.1875 195.523438 -10.40625 197.703125 -10.40625 C 200.015625 -10.40625 202.597656 -11.21875 205.453125 -12.84375 C 208.316406 -14.476562 211.851562 -17.269531 216.0625 -21.21875 L 217.703125 -19.390625 C 210.492188 -12.453125 204.203125 -7.210938 198.828125 -3.671875 C 193.453125 -0.140625 188.585938 1.625 184.234375 1.625 C 180.972656 1.625 178.050781 0.128906 175.46875 -2.859375 C 172.882812 -5.847656 171.726562 -10.742188 172 -17.546875 C 172.269531 -22.304688 173.050781 -29.175781 174.34375 -38.15625 C 175.632812 -47.132812 177.503906 -57.945312 179.953125 -70.59375 C 175.597656 -67.0625 170.5625 -64 164.84375 -61.40625 C 159.132812 -58.820312 152.8125 -57.53125 145.875 -57.53125 C 142.207031 -57.53125 138.640625 -57.769531 135.171875 -58.25 C 131.703125 -58.726562 128.265625 -59.304688 124.859375 -59.984375 C 116.972656 -51.691406 108.945312 -43.734375 100.78125 -36.109375 C 92.625 -28.492188 84.53125 -21.726562 76.5 -15.8125 C 68.476562 -9.894531 60.59375 -5.234375 52.84375 -1.828125 C 45.09375 1.566406 37.613281 3.265625 30.40625 3.265625 Z M 6.734375 -38.765625 C 6.734375 -31.828125 8.191406 -25.875 11.109375 -20.90625 C 14.035156 -15.945312 17.945312 -12.140625 22.84375 -9.484375 C 27.75 -6.835938 33.125 -5.515625 38.96875 -5.515625 C 47.539062 -5.648438 56.3125 -8.234375 65.28125 -13.265625 C 74.257812 -18.296875 83.441406 -24.992188 92.828125 -33.359375 C 102.210938 -41.722656 111.664062 -50.867188 121.1875 -60.796875 C 112.351562 -63.242188 104.054688 -66.269531 96.296875 -69.875 C 88.546875 -73.476562 81.03125 -76.675781 73.75 -79.46875 C 66.476562 -82.257812 59.035156 -83.65625 51.421875 -83.65625 C 42.441406 -83.65625 34.582031 -81.507812 27.84375 -77.21875 C 21.113281 -72.9375 15.910156 -67.359375 12.234375 -60.484375 C 8.566406 -53.617188 6.734375 -46.378906 6.734375 -38.765625 Z M 134.65625 -70.390625 C 138.875 -69.023438 143.023438 -67.898438 147.109375 -67.015625 C 151.191406 -66.140625 155.269531 -65.703125 159.34375 -65.703125 C 164.101562 -65.703125 168.25 -66.582031 171.78125 -68.34375 C 175.320312 -70.113281 178.25 -72.019531 180.5625 -74.0625 C 182.601562 -84.125 184.914062 -95.140625 187.5 -107.109375 C 190.082031 -119.085938 192.941406 -131.875 196.078125 -145.46875 C 192.128906 -140.03125 187.023438 -133.265625 180.765625 -125.171875 C 174.515625 -117.078125 167.476562 -108.335938 159.65625 -98.953125 C 151.832031 -89.566406 143.5 -80.046875 134.65625 -70.390625 Z M 134.65625 -70.390625 "/></g></g></g><g fill="#fab204" fill-opacity="1"><g transform="translate(234.465667, 168.936831)"><g><path d="M 62.4375 0 C 61.34375 0 60.554688 -0.335938 60.078125 -1.015625 C 59.609375 -1.703125 59.644531 -2.585938 60.1875 -3.671875 C 65.488281 -13.460938 70.691406 -23.050781 75.796875 -32.4375 C 80.898438 -41.820312 85.015625 -49.578125 88.140625 -55.703125 C 92.492188 -64.410156 95.757812 -71.3125 97.9375 -76.40625 C 100.113281 -81.507812 101.203125 -85.21875 101.203125 -87.53125 C 101.203125 -89.03125 100.789062 -90.320312 99.96875 -91.40625 C 99.15625 -92.488281 97.796875 -93.03125 95.890625 -93.03125 C 92.359375 -93.03125 88.039062 -91.191406 82.9375 -87.515625 C 77.832031 -83.847656 72.019531 -78.957031 65.5 -72.84375 C 58.5625 -66.3125 51.65625 -58.828125 44.78125 -50.390625 C 37.914062 -41.960938 31.488281 -33.257812 25.5 -24.28125 C 19.519531 -13.53125 15.238281 -6.1875 12.65625 -2.25 C 11.695312 -0.75 10.472656 0 8.984375 0 L -0.8125 0 C -1.90625 0 -2.617188 -0.375 -2.953125 -1.125 C -3.296875 -1.875 -3.195312 -2.789062 -2.65625 -3.875 C -0.0703125 -8.226562 2.953125 -13.53125 6.421875 -19.78125 C 9.890625 -26.039062 13.492188 -32.601562 17.234375 -39.46875 C 20.972656 -46.34375 24.40625 -53.007812 27.53125 -59.46875 C 30.664062 -65.9375 33.21875 -71.648438 35.1875 -76.609375 C 37.164062 -81.578125 38.15625 -85.148438 38.15625 -87.328125 C 38.15625 -90.859375 36.382812 -92.625 32.84375 -92.625 C 30.664062 -92.625 27.945312 -91.707031 24.6875 -89.875 C 21.425781 -88.039062 17.484375 -85.015625 12.859375 -80.796875 L 11.21875 -82.84375 C 18.695312 -89.632812 25.394531 -94.796875 31.3125 -98.328125 C 37.226562 -101.867188 41.890625 -103.640625 45.296875 -103.640625 C 49.242188 -103.640625 51.960938 -102.445312 53.453125 -100.0625 C 54.953125 -97.6875 55.703125 -95.34375 55.703125 -93.03125 C 55.703125 -90.3125 54.679688 -86.195312 52.640625 -80.6875 C 50.597656 -75.1875 47.941406 -68.96875 44.671875 -62.03125 C 41.410156 -55.09375 37.945312 -48.085938 34.28125 -41.015625 C 43.9375 -53.660156 53.796875 -64.945312 63.859375 -74.875 C 72.972656 -83.71875 81.507812 -90.722656 89.46875 -95.890625 C 97.425781 -101.054688 103.851562 -103.640625 108.75 -103.640625 C 112.28125 -103.640625 114.863281 -102.445312 116.5 -100.0625 C 118.132812 -97.6875 118.953125 -95.140625 118.953125 -92.421875 C 118.953125 -90.660156 118.578125 -88.414062 117.828125 -85.6875 C 117.078125 -82.96875 115.578125 -79.125 113.328125 -74.15625 C 111.085938 -69.195312 107.722656 -62.296875 103.234375 -53.453125 C 102.285156 -51.679688 101.300781 -49.8125 100.28125 -47.84375 C 99.257812 -45.875 98.140625 -43.800781 96.921875 -41.625 C 105.890625 -53.320312 114.894531 -63.863281 123.9375 -73.25 C 132.988281 -82.632812 141.457031 -90.046875 149.34375 -95.484375 C 157.238281 -100.921875 163.835938 -103.640625 169.140625 -103.640625 C 172.546875 -103.640625 175.097656 -102.445312 176.796875 -100.0625 C 178.492188 -97.6875 179.34375 -95.140625 179.34375 -92.421875 C 179.34375 -88.617188 178.117188 -83.992188 175.671875 -78.546875 C 173.222656 -73.109375 170.195312 -67.328125 166.59375 -61.203125 C 162.988281 -55.085938 159.414062 -49.035156 155.875 -43.046875 C 152.34375 -37.066406 149.351562 -31.628906 146.90625 -26.734375 C 144.457031 -21.835938 143.234375 -17.957031 143.234375 -15.09375 C 143.234375 -11.425781 145.203125 -9.59375 149.140625 -9.59375 C 153.359375 -9.59375 159.617188 -13.46875 167.921875 -21.21875 L 169.546875 -19.171875 C 162.066406 -12.378906 155.503906 -7.210938 149.859375 -3.671875 C 144.210938 -0.140625 139.828125 1.625 136.703125 1.625 C 132.347656 1.625 129.351562 0.265625 127.71875 -2.453125 C 126.09375 -5.171875 125.28125 -7.753906 125.28125 -10.203125 C 125.28125 -14.421875 126.503906 -19.316406 128.953125 -24.890625 C 131.398438 -30.460938 134.425781 -36.273438 138.03125 -42.328125 C 141.632812 -48.390625 145.269531 -54.3125 148.9375 -60.09375 C 152.613281 -65.875 155.640625 -71.175781 158.015625 -76 C 160.398438 -80.832031 161.59375 -84.675781 161.59375 -87.53125 C 161.59375 -91.195312 159.820312 -93.03125 156.28125 -93.03125 C 153.019531 -93.03125 148.738281 -91.09375 143.4375 -87.21875 C 138.132812 -83.34375 132.285156 -78.140625 125.890625 -71.609375 C 119.492188 -65.085938 112.992188 -57.742188 106.390625 -49.578125 C 99.796875 -41.421875 93.507812 -33.054688 87.53125 -24.484375 C 85.757812 -21.222656 83.921875 -17.753906 82.015625 -14.078125 C 80.117188 -10.398438 78.148438 -6.457031 76.109375 -2.25 C 75.421875 -0.75 74.195312 0 72.4375 0 Z M 62.4375 0 "/></g></g></g><g fill="#fab204" fill-opacity="1"><g transform="translate(415.228494, 168.936831)"><g><path d="M 29.375 1.421875 C 21.757812 1.421875 15.738281 -0.582031 11.3125 -4.59375 C 6.894531 -8.601562 4.414062 -13.90625 3.875 -20.5 C 3.332031 -27.101562 5.035156 -34.210938 8.984375 -41.828125 L 38.15625 -96.703125 C 43.1875 -106.085938 49.269531 -114.894531 56.40625 -123.125 C 63.550781 -131.363281 71.546875 -138.609375 80.390625 -144.859375 C 89.234375 -151.117188 98.648438 -155.984375 108.640625 -159.453125 C 118.640625 -162.921875 128.945312 -164.65625 139.5625 -164.65625 C 145.132812 -164.65625 149.484375 -164.3125 152.609375 -163.625 C 155.742188 -162.945312 157.3125 -161.796875 157.3125 -160.171875 C 157.3125 -158.804688 156.59375 -157.066406 155.15625 -154.953125 C 153.726562 -152.847656 151.753906 -150.976562 149.234375 -149.34375 C 146.722656 -147.71875 143.835938 -146.90625 140.578125 -146.90625 C 136.765625 -146.90625 132.070312 -147.617188 126.5 -149.046875 C 120.925781 -150.472656 113.582031 -152.410156 104.46875 -154.859375 C 98.476562 -152.546875 93.101562 -149.65625 88.34375 -146.1875 C 83.582031 -142.71875 79.023438 -138.09375 74.671875 -132.3125 C 70.316406 -126.53125 65.757812 -119.082031 61 -109.96875 L 25.90625 -42.640625 C 37.46875 -56.515625 49.234375 -68.894531 61.203125 -79.78125 C 68.691406 -86.851562 75.695312 -92.597656 82.21875 -97.015625 C 88.75 -101.429688 94.328125 -103.570312 98.953125 -103.4375 C 102.898438 -103.4375 105.925781 -101.769531 108.03125 -98.4375 C 110.144531 -95.113281 111.203125 -91.410156 111.203125 -87.328125 C 111.203125 -79.578125 109.566406 -71.582031 106.296875 -63.34375 C 103.035156 -55.113281 98.648438 -47.125 93.140625 -39.375 C 87.628906 -31.625 81.335938 -24.6875 74.265625 -18.5625 C 67.191406 -12.445312 59.8125 -7.585938 52.125 -3.984375 C 44.445312 -0.378906 36.863281 1.421875 29.375 1.421875 Z M 21.21875 -32.84375 C 20.132812 -26.457031 20.644531 -21.289062 22.75 -17.34375 C 24.851562 -13.394531 27.738281 -10.535156 31.40625 -8.765625 C 35.082031 -7.003906 38.691406 -6.125 42.234375 -6.125 C 48.359375 -6.125 54.101562 -7.789062 59.46875 -11.125 C 64.84375 -14.457031 69.671875 -18.875 73.953125 -24.375 C 78.242188 -29.882812 81.953125 -35.9375 85.078125 -42.53125 C 88.210938 -49.132812 90.59375 -55.734375 92.21875 -62.328125 C 93.851562 -68.929688 94.671875 -74.882812 94.671875 -80.1875 C 94.671875 -84.8125 94.023438 -88.070312 92.734375 -89.96875 C 91.441406 -91.875 89.640625 -92.828125 87.328125 -92.828125 C 84.878906 -92.828125 81.476562 -91.5 77.125 -88.84375 C 72.769531 -86.195312 68.007812 -82.492188 62.84375 -77.734375 C 56.3125 -71.890625 49.375 -64.953125 42.03125 -56.921875 C 34.6875 -48.898438 27.75 -40.875 21.21875 -32.84375 Z M 21.21875 -32.84375 "/></g></g></g><g fill="#fab204" fill-opacity="1"><g transform="translate(527.440172, 168.936831)"><g><path d="M -0.8125 0 C -1.90625 0 -2.617188 -0.375 -2.953125 -1.125 C -3.296875 -1.875 -3.195312 -2.789062 -2.65625 -3.875 C -0.0703125 -8.226562 2.953125 -13.53125 6.421875 -19.78125 C 9.890625 -26.039062 13.492188 -32.601562 17.234375 -39.46875 C 20.972656 -46.34375 24.40625 -53.007812 27.53125 -59.46875 C 30.664062 -65.9375 33.21875 -71.648438 35.1875 -76.609375 C 37.164062 -81.578125 38.15625 -85.148438 38.15625 -87.328125 C 38.15625 -90.859375 36.382812 -92.625 32.84375 -92.625 C 30.664062 -92.625 27.945312 -91.707031 24.6875 -89.875 C 21.425781 -88.039062 17.484375 -85.015625 12.859375 -80.796875 L 11.21875 -82.84375 C 18.695312 -89.632812 25.394531 -94.796875 31.3125 -98.328125 C 37.226562 -101.867188 41.890625 -103.640625 45.296875 -103.640625 C 49.242188 -103.640625 51.960938 -102.445312 53.453125 -100.0625 C 54.953125 -97.6875 55.703125 -95.34375 55.703125 -93.03125 C 55.703125 -90.582031 54.882812 -87.007812 53.25 -82.3125 C 51.613281 -77.625 49.4375 -72.289062 46.71875 -66.3125 C 51.476562 -73.382812 56.546875 -79.707031 61.921875 -85.28125 C 67.296875 -90.863281 73.175781 -95.316406 79.5625 -98.640625 C 85.957031 -101.972656 92.96875 -103.640625 100.59375 -103.640625 C 103.039062 -103.640625 105.65625 -103.332031 108.4375 -102.71875 C 111.226562 -102.113281 112.625 -100.992188 112.625 -99.359375 C 112.625 -97.734375 111.910156 -95.863281 110.484375 -93.75 C 109.054688 -91.644531 107.253906 -89.804688 105.078125 -88.234375 C 102.898438 -86.671875 100.519531 -85.890625 97.9375 -85.890625 C 94.664062 -85.890625 91.023438 -86.226562 87.015625 -86.90625 C 83.003906 -87.59375 78.078125 -88.820312 72.234375 -90.59375 C 66.515625 -86.914062 60.457031 -80.828125 54.0625 -72.328125 C 47.675781 -63.828125 41.554688 -54.335938 35.703125 -43.859375 C 32.578125 -37.742188 29.484375 -31.863281 26.421875 -26.21875 C 23.359375 -20.570312 20.601562 -15.640625 18.15625 -11.421875 C 15.707031 -7.203125 13.875 -4.144531 12.65625 -2.25 C 11.695312 -0.75 10.472656 0 8.984375 0 Z M -0.8125 0 "/></g></g></g><g fill="#fab204" fill-opacity="1"><g transform="translate(622.922053, 168.936831)"><g><path d="M 26.53125 1.421875 C 20.945312 1.421875 16.382812 0.265625 12.84375 -2.046875 C 9.3125 -4.359375 6.695312 -7.347656 5 -11.015625 C 3.300781 -14.691406 2.453125 -18.5 2.453125 -22.4375 C 2.453125 -29.644531 4.117188 -37.054688 7.453125 -44.671875 C 10.785156 -52.296875 15.238281 -59.609375 20.8125 -66.609375 C 26.382812 -73.617188 32.601562 -79.910156 39.46875 -85.484375 C 46.34375 -91.066406 53.382812 -95.488281 60.59375 -98.75 C 67.800781 -102.007812 74.601562 -103.640625 81 -103.640625 C 86.300781 -103.640625 90.28125 -102.550781 92.9375 -100.375 C 95.59375 -98.207031 96.921875 -95.351562 96.921875 -91.8125 C 96.921875 -88.550781 95.765625 -85.050781 93.453125 -81.3125 C 91.140625 -77.570312 87.160156 -73.25 81.515625 -68.34375 C 75.867188 -63.445312 68.078125 -57.597656 58.140625 -50.796875 C 48.210938 -44.003906 35.632812 -35.773438 20.40625 -26.109375 C 21.082031 -21.347656 22.953125 -17.4375 26.015625 -14.375 C 29.078125 -11.320312 33.53125 -9.796875 39.375 -9.796875 C 42.914062 -9.796875 47.269531 -10.710938 52.4375 -12.546875 C 57.601562 -14.378906 63.722656 -18.425781 70.796875 -24.6875 L 72.4375 -22.84375 C 63.457031 -14.550781 54.851562 -8.429688 46.625 -4.484375 C 38.394531 -0.546875 31.695312 1.421875 26.53125 1.421875 Z M 20.203125 -28.96875 C 34.617188 -37.945312 46.144531 -45.734375 54.78125 -52.328125 C 63.414062 -58.929688 69.707031 -64.847656 73.65625 -70.078125 C 77.601562 -75.316406 79.578125 -80.382812 79.578125 -85.28125 C 79.578125 -88.6875 78.453125 -91.304688 76.203125 -93.140625 C 73.960938 -94.972656 71.140625 -95.890625 67.734375 -95.890625 C 62.566406 -95.890625 57.566406 -94.460938 52.734375 -91.609375 C 47.910156 -88.753906 43.492188 -84.945312 39.484375 -80.1875 C 35.472656 -75.425781 32.003906 -70.117188 29.078125 -64.265625 C 26.148438 -58.421875 23.90625 -52.472656 22.34375 -46.421875 C 20.78125 -40.367188 20.066406 -34.617188 20.203125 -29.171875 Z M 20.203125 -28.96875 "/></g></g></g></g></g></svg>