<svg xmlns="http://www.w3.org/2000/svg" xmlns:xlink="http://www.w3.org/1999/xlink" width="40" zoomAndPan="magnify" viewBox="0 0 30 30.000001" height="40" preserveAspectRatio="xMidYMid meet" version="1.0"><defs><clipPath id="b8ca9bf19d"><path d="M 3.714844 3.066406 L 26.941406 3.066406 L 26.941406 26.292969 L 3.714844 26.292969 Z M 3.714844 3.066406 " clip-rule="nonzero"/></clipPath><clipPath id="0f06c156c9"><path d="M 10 7 L 21 7 L 21 26.292969 L 10 26.292969 Z M 10 7 " clip-rule="nonzero"/></clipPath></defs><g clip-path="url(#b8ca9bf19d)"><path fill="#0866ff" d="M 26.941406 14.679688 C 26.941406 8.265625 21.742188 3.066406 15.328125 3.066406 C 8.914062 3.066406 3.714844 8.265625 3.714844 14.679688 C 3.714844 20.128906 7.464844 24.699219 12.523438 25.953125 L 12.523438 18.230469 L 10.125 18.230469 L 10.125 14.679688 L 12.523438 14.679688 L 12.523438 13.152344 C 12.523438 9.199219 14.3125 7.367188 18.191406 7.367188 C 18.929688 7.367188 20.199219 7.511719 20.71875 7.65625 L 20.71875 10.871094 C 20.441406 10.84375 19.964844 10.828125 19.375 10.828125 C 17.472656 10.828125 16.734375 11.550781 16.734375 13.425781 L 16.734375 14.679688 L 20.527344 14.679688 L 19.875 18.230469 L 16.734375 18.230469 L 16.734375 26.210938 C 22.484375 25.515625 26.941406 20.617188 26.941406 14.679688 Z M 26.941406 14.679688 " fill-opacity="1" fill-rule="nonzero"/></g><g clip-path="url(#0f06c156c9)"><path fill="#ffffff" d="M 19.878906 18.230469 L 20.53125 14.679688 L 16.734375 14.679688 L 16.734375 13.425781 C 16.734375 11.550781 17.472656 10.828125 19.375 10.828125 C 19.96875 10.828125 20.445312 10.84375 20.71875 10.871094 L 20.71875 7.65625 C 20.199219 7.511719 18.929688 7.367188 18.191406 7.367188 C 14.3125 7.367188 12.523438 9.199219 12.523438 13.152344 L 12.523438 14.679688 L 10.128906 14.679688 L 10.128906 18.230469 L 12.523438 18.230469 L 12.523438 25.953125 C 13.421875 26.175781 14.359375 26.296875 15.328125 26.296875 C 15.804688 26.296875 16.273438 26.265625 16.738281 26.210938 L 16.738281 18.230469 Z M 19.878906 18.230469 " fill-opacity="1" fill-rule="nonzero"/></g></svg>