<svg xmlns="http://www.w3.org/2000/svg" xmlns:xlink="http://www.w3.org/1999/xlink" width="140" zoomAndPan="magnify" viewBox="0 0 104.88 104.999996" height="140" preserveAspectRatio="xMidYMid meet" version="1.0"><defs><g/><clipPath id="8ccf14ed8b"><path d="M 0.0820312 1.109375 L 104.761719 1.109375 L 104.761719 103.742188 L 0.0820312 103.742188 Z M 0.0820312 1.109375 " clip-rule="nonzero"/></clipPath></defs><g clip-path="url(#8ccf14ed8b)"><path fill="#fab204" d="M 104.777344 53.816406 C 104.203125 24.71875 80.101562 1.109375 50.960938 1.109375 C 25.488281 1.109375 4.585938 19.117188 0.0820312 43.058594 C 1.671875 37.898438 4.785156 31.265625 10.832031 25.644531 C 22.683594 14.597656 31.671875 13.410156 31.671875 13.410156 C 4.671875 27.605469 -2.257812 61.242188 7.476562 81.324219 C 13.148438 90.296875 21.425781 97.503906 31.207031 101.890625 C 33.941406 102.554688 36.589844 102.664062 36.527344 98.984375 L 36.546875 98.984375 C 34.890625 92.679688 31.230469 80.621094 29.417969 78.921875 C 27.054688 76.71875 21.714844 77.910156 19.574219 75.242188 C 17.433594 72.550781 9.507812 38.671875 9.507812 38.671875 C 9.507812 38.671875 10.214844 37.855469 10.941406 38.140625 C 11.671875 38.472656 20.457031 68.671875 21.339844 69.355469 C 22.222656 70.039062 22.066406 69.640625 22.574219 69.664062 C 22.949219 69.554688 23.480469 69.488281 23.589844 68.078125 C 23.703125 66.644531 13.902344 38.449219 13.878906 37.988281 C 13.835938 37.503906 13.722656 36.027344 14.828125 36.222656 C 15.929688 36.402344 26.328125 65.742188 26.96875 66.46875 C 27.628906 67.195312 28.003906 67.019531 28.492188 66.976562 C 28.820312 66.710938 29.109375 66.6875 29.109375 65.761719 C 29.132812 64.859375 17.675781 35.847656 18.382812 35.011719 C 19.089844 34.152344 19.992188 35.339844 20.28125 35.738281 C 20.566406 36.136719 31.734375 63.867188 32.75 64.859375 C 33.746094 65.851562 34.164062 65.585938 34.519531 65.453125 C 34.9375 65.101562 35.089844 65.476562 35.335938 64.394531 C 35.554688 63.292969 22.289062 34.726562 22.621094 34.019531 C 22.972656 33.335938 24.074219 33.511719 24.074219 33.511719 C 24.074219 33.511719 40.34375 64.394531 40.5 67.769531 C 40.652344 71.164062 35.730469 74.007812 35.421875 77.179688 C 35.15625 79.628906 40.941406 92.832031 44.253906 99.621094 C 44.957031 100.902344 46.148438 102.640625 47.71875 103.304688 C 50.34375 104.425781 51.402344 103.367188 51.425781 100.722656 L 51.734375 70.921875 C 51.625 69.90625 51.449219 68.914062 51.09375 68.1875 C 50.695312 67.414062 50.125 66.820312 49.59375 66.421875 C 44.382812 64.683594 40.566406 59.636719 40.390625 50.664062 C 40.191406 39.289062 45.90625 25.886719 53.300781 25.886719 C 60.699219 25.886719 66.945312 39.289062 67.164062 50.664062 C 67.34375 59.128906 64.117188 64.085938 59.4375 66.09375 C 58.886719 66.578125 58.136719 67.328125 57.671875 68.230469 C 57.363281 68.871094 57.210938 69.996094 57.164062 71.097656 L 58.3125 100.128906 L 58.335938 100.128906 C 58.335938 100.128906 59.261719 103.015625 60.832031 102.925781 C 61.625 102.882812 62.152344 101.890625 62.484375 100.945312 L 62.460938 100.945312 C 62.460938 100.945312 62.574219 100.546875 62.792969 99.84375 C 62.882812 99.421875 62.925781 99.136719 62.925781 99.136719 L 62.992188 99.160156 C 65.707031 90.03125 77.914062 48.855469 78.84375 44.84375 C 79.902344 40.324219 82.726562 30.007812 85.796875 31.75 C 88.863281 33.488281 90.078125 46.519531 88.246094 60.757812 C 86.390625 75 83.035156 83.441406 79.59375 86.992188 C 76.125 90.519531 72.109375 88.136719 70.5 92.546875 C 69.417969 95.542969 68.664062 98.894531 68.289062 100.769531 C 68.402344 101.382812 68.820312 102.796875 70.277344 103.015625 C 71.027344 103.148438 71.890625 102.972656 72.640625 102.753906 C 73.234375 102.488281 73.851562 102.246094 74.449219 101.957031 C 92.703125 93.734375 105.199219 75.285156 104.777344 53.816406 " fill-opacity="1" fill-rule="evenodd"/></g><g fill="#000000" fill-opacity="1"><g transform="translate(37.808302, 17.889604)"><g><path d="M 5.265625 0 L 0.328125 0 L 1.234375 -2.25 L 1.234375 -3.78125 L 0.21875 -7.1875 L 2.453125 -7.1875 L 1.46875 -3.78125 L 1.46875 -1.453125 L 5.265625 -1.453125 Z M 5.265625 0 "/></g></g></g><g fill="#000000" fill-opacity="1"><g transform="translate(43.232683, 17.889604)"><g><path d="M 4.21875 0.234375 C 3.207031 0.234375 2.425781 0.0820312 1.875 -0.21875 C 1.320312 -0.53125 0.9375 -0.972656 0.71875 -1.546875 C 0.5 -2.117188 0.390625 -2.796875 0.390625 -3.578125 C 0.390625 -4.429688 0.5 -5.140625 0.71875 -5.703125 C 0.9375 -6.273438 1.320312 -6.695312 1.875 -6.96875 C 2.425781 -7.238281 3.207031 -7.375 4.21875 -7.375 C 5.15625 -7.375 5.882812 -7.234375 6.40625 -6.953125 C 6.925781 -6.671875 7.296875 -6.25 7.515625 -5.6875 C 7.734375 -5.132812 7.84375 -4.429688 7.84375 -3.578125 C 7.84375 -2.796875 7.734375 -2.117188 7.515625 -1.546875 C 7.296875 -0.972656 6.925781 -0.53125 6.40625 -0.21875 C 5.882812 0.0820312 5.15625 0.234375 4.21875 0.234375 Z M 4.21875 -1.109375 C 4.925781 -1.109375 5.5 -1.164062 5.9375 -1.28125 C 6.382812 -1.394531 6.722656 -1.554688 6.953125 -1.765625 C 7.191406 -1.972656 7.351562 -2.222656 7.4375 -2.515625 C 7.519531 -2.816406 7.5625 -3.148438 7.5625 -3.515625 C 7.5625 -3.859375 7.519531 -4.175781 7.4375 -4.46875 C 7.363281 -4.757812 7.210938 -5.019531 6.984375 -5.25 C 6.765625 -5.476562 6.429688 -5.65625 5.984375 -5.78125 C 5.546875 -5.914062 4.957031 -5.984375 4.21875 -5.984375 C 3.445312 -5.984375 2.828125 -5.914062 2.359375 -5.78125 C 1.898438 -5.65625 1.546875 -5.476562 1.296875 -5.25 C 1.046875 -5.019531 0.878906 -4.757812 0.796875 -4.46875 C 0.710938 -4.175781 0.671875 -3.859375 0.671875 -3.515625 C 0.671875 -3.148438 0.707031 -2.816406 0.78125 -2.515625 C 0.863281 -2.222656 1.023438 -1.972656 1.265625 -1.765625 C 1.503906 -1.554688 1.859375 -1.394531 2.328125 -1.28125 C 2.804688 -1.164062 3.4375 -1.109375 4.21875 -1.109375 Z M 4.21875 -1.109375 "/></g></g></g><g fill="#000000" fill-opacity="1"><g transform="translate(51.471151, 17.889604)"><g><path d="M 4.203125 0.203125 C 3.472656 0.203125 2.816406 0.0859375 2.234375 -0.140625 C 1.660156 -0.367188 1.207031 -0.742188 0.875 -1.265625 C 0.550781 -1.796875 0.390625 -2.503906 0.390625 -3.390625 C 0.390625 -4.316406 0.5625 -5.070312 0.90625 -5.65625 C 1.257812 -6.238281 1.734375 -6.671875 2.328125 -6.953125 C 2.921875 -7.234375 3.582031 -7.375 4.3125 -7.375 C 5.132812 -7.375 5.984375 -7.21875 6.859375 -6.90625 L 6.859375 -5.5625 C 6.515625 -5.695312 6.128906 -5.800781 5.703125 -5.875 C 5.273438 -5.945312 4.84375 -5.984375 4.40625 -5.984375 C 3.914062 -5.984375 3.445312 -5.925781 3 -5.8125 C 2.550781 -5.695312 2.148438 -5.53125 1.796875 -5.3125 C 1.441406 -5.09375 1.160156 -4.820312 0.953125 -4.5 C 0.742188 -4.175781 0.640625 -3.804688 0.640625 -3.390625 C 0.640625 -3.003906 0.742188 -2.671875 0.953125 -2.390625 C 1.160156 -2.117188 1.441406 -1.894531 1.796875 -1.71875 C 2.160156 -1.550781 2.570312 -1.425781 3.03125 -1.34375 C 3.5 -1.257812 3.988281 -1.21875 4.5 -1.21875 C 4.863281 -1.21875 5.226562 -1.238281 5.59375 -1.28125 C 5.957031 -1.332031 6.296875 -1.398438 6.609375 -1.484375 L 6.609375 -3.375 L 2.953125 -3.375 L 2.953125 -3.609375 L 6.859375 -3.609375 L 6.859375 -0.125 C 6.390625 -0.0195312 5.929688 0.0546875 5.484375 0.109375 C 5.035156 0.171875 4.609375 0.203125 4.203125 0.203125 Z M 4.203125 0.203125 "/></g></g></g><g fill="#000000" fill-opacity="1"><g transform="translate(58.811553, 17.889604)"><g><path d="M 4.21875 0.234375 C 3.207031 0.234375 2.425781 0.0820312 1.875 -0.21875 C 1.320312 -0.53125 0.9375 -0.972656 0.71875 -1.546875 C 0.5 -2.117188 0.390625 -2.796875 0.390625 -3.578125 C 0.390625 -4.429688 0.5 -5.140625 0.71875 -5.703125 C 0.9375 -6.273438 1.320312 -6.695312 1.875 -6.96875 C 2.425781 -7.238281 3.207031 -7.375 4.21875 -7.375 C 5.15625 -7.375 5.882812 -7.234375 6.40625 -6.953125 C 6.925781 -6.671875 7.296875 -6.25 7.515625 -5.6875 C 7.734375 -5.132812 7.84375 -4.429688 7.84375 -3.578125 C 7.84375 -2.796875 7.734375 -2.117188 7.515625 -1.546875 C 7.296875 -0.972656 6.925781 -0.53125 6.40625 -0.21875 C 5.882812 0.0820312 5.15625 0.234375 4.21875 0.234375 Z M 4.21875 -1.109375 C 4.925781 -1.109375 5.5 -1.164062 5.9375 -1.28125 C 6.382812 -1.394531 6.722656 -1.554688 6.953125 -1.765625 C 7.191406 -1.972656 7.351562 -2.222656 7.4375 -2.515625 C 7.519531 -2.816406 7.5625 -3.148438 7.5625 -3.515625 C 7.5625 -3.859375 7.519531 -4.175781 7.4375 -4.46875 C 7.363281 -4.757812 7.210938 -5.019531 6.984375 -5.25 C 6.765625 -5.476562 6.429688 -5.65625 5.984375 -5.78125 C 5.546875 -5.914062 4.957031 -5.984375 4.21875 -5.984375 C 3.445312 -5.984375 2.828125 -5.914062 2.359375 -5.78125 C 1.898438 -5.65625 1.546875 -5.476562 1.296875 -5.25 C 1.046875 -5.019531 0.878906 -4.757812 0.796875 -4.46875 C 0.710938 -4.175781 0.671875 -3.859375 0.671875 -3.515625 C 0.671875 -3.148438 0.707031 -2.816406 0.78125 -2.515625 C 0.863281 -2.222656 1.023438 -1.972656 1.265625 -1.765625 C 1.503906 -1.554688 1.859375 -1.394531 2.328125 -1.28125 C 2.804688 -1.164062 3.4375 -1.109375 4.21875 -1.109375 Z M 4.21875 -1.109375 "/></g></g></g></svg>