<svg xmlns="http://www.w3.org/2000/svg" xmlns:xlink="http://www.w3.org/1999/xlink" width="200" zoomAndPan="magnify" viewBox="0 0 150 149.999998" height="200" preserveAspectRatio="xMidYMid meet" version="1.0"><defs><clipPath id="92d9d1d889"><path d="M 71.589844 9.507812 L 71.945312 9.507812 L 71.945312 9.839844 L 71.589844 9.839844 Z M 71.589844 9.507812 " clip-rule="nonzero"/></clipPath><clipPath id="2f4b31d360"><path d="M 71.925781 9.75 C 71.25 9.976562 71.851562 9.523438 71.851562 9.523438 " clip-rule="nonzero"/></clipPath><clipPath id="407d3416a3"><path d="M 0.589844 0.507812 L 0.945312 0.507812 L 0.945312 0.839844 L 0.589844 0.839844 Z M 0.589844 0.507812 " clip-rule="nonzero"/></clipPath><clipPath id="0f8851e96d"><path d="M 0.925781 0.75 C 0.25 0.976562 0.851562 0.523438 0.851562 0.523438 " clip-rule="nonzero"/></clipPath><clipPath id="d997e99116"><rect x="0" width="1" y="0" height="1"/></clipPath><clipPath id="9e4534c8d2"><path d="M 25.238281 28.105469 L 25.597656 28.105469 L 25.597656 28.4375 L 25.238281 28.4375 Z M 25.238281 28.105469 " clip-rule="nonzero"/></clipPath><clipPath id="5e2ba4aee2"><path d="M 25.574219 28.351562 C 24.898438 28.574219 25.5 28.125 25.5 28.125 " clip-rule="nonzero"/></clipPath><clipPath id="8148ddae75"><path d="M 0.238281 0.105469 L 0.597656 0.105469 L 0.597656 0.4375 L 0.238281 0.4375 Z M 0.238281 0.105469 " clip-rule="nonzero"/></clipPath><clipPath id="de5248e928"><path d="M 0.574219 0.351562 C -0.101562 0.574219 0.5 0.125 0.5 0.125 " clip-rule="nonzero"/></clipPath><clipPath id="0cba34d5be"><rect x="0" width="1" y="0" height="1"/></clipPath><clipPath id="c3213a9ff3"><path d="M 37 109 L 144.910156 109 L 144.910156 126 L 37 126 Z M 37 109 " clip-rule="nonzero"/></clipPath><clipPath id="a0616ab2ee"><path d="M 5.410156 107 L 27.402344 107 L 27.402344 128.179688 L 5.410156 128.179688 Z M 5.410156 107 " clip-rule="nonzero"/></clipPath><clipPath id="8e6adfec81"><path d="M 37 67 L 144.910156 67 L 144.910156 84 L 37 84 Z M 37 67 " clip-rule="nonzero"/></clipPath><clipPath id="9301070339"><path d="M 5.410156 64 L 28 64 L 28 86 L 5.410156 86 Z M 5.410156 64 " clip-rule="nonzero"/></clipPath><clipPath id="83b0a1a71f"><path d="M 37 24 L 144.910156 24 L 144.910156 41 L 37 41 Z M 37 24 " clip-rule="nonzero"/></clipPath><clipPath id="811ae7a0f3"><path d="M 5.410156 21.679688 L 28 21.679688 L 28 43 L 5.410156 43 Z M 5.410156 21.679688 " clip-rule="nonzero"/></clipPath><clipPath id="8e96f02b30"><path d="M 14.289062 32.007812 L 14.644531 32.007812 L 14.644531 32.339844 L 14.289062 32.339844 Z M 14.289062 32.007812 " clip-rule="nonzero"/></clipPath><clipPath id="45e80af900"><path d="M 14.625 32.25 C 13.949219 32.476562 14.550781 32.023438 14.550781 32.023438 " clip-rule="nonzero"/></clipPath><clipPath id="dad4d71c45"><path d="M 0.289062 0.0078125 L 0.640625 0.0078125 L 0.640625 0.339844 L 0.289062 0.339844 Z M 0.289062 0.0078125 " clip-rule="nonzero"/></clipPath><clipPath id="f8eb93e2c9"><path d="M 0.625 0.25 C -0.0507812 0.476562 0.550781 0.0234375 0.550781 0.0234375 " clip-rule="nonzero"/></clipPath><clipPath id="67741ced1d"><rect x="0" width="1" y="0" height="1"/></clipPath></defs><g clip-path="url(#92d9d1d889)"><g clip-path="url(#2f4b31d360)"><g transform="matrix(1, 0, 0, 1, 71, 9)"><g clip-path="url(#d997e99116)"><g clip-path="url(#407d3416a3)"><g clip-path="url(#0f8851e96d)"><rect x="-104" width="216" fill="#000000" height="215.999996" y="-41.999999" fill-opacity="1"/></g></g></g></g></g></g><g clip-path="url(#9e4534c8d2)"><g clip-path="url(#5e2ba4aee2)"><g transform="matrix(1, 0, 0, 1, 25, 28)"><g clip-path="url(#0cba34d5be)"><g clip-path="url(#8148ddae75)"><g clip-path="url(#de5248e928)"><rect x="-58" width="216" fill="#ffffff" height="215.999996" y="-60.999999" fill-opacity="1"/></g></g></g></g></g></g><g clip-path="url(#c3213a9ff3)"><path fill="#0c3a61" d="M 144.582031 117.855469 C 144.582031 113.453125 141.015625 109.886719 136.617188 109.886719 L 45.78125 109.886719 C 41.382812 109.886719 37.8125 113.453125 37.8125 117.855469 C 37.8125 122.253906 41.382812 125.824219 45.78125 125.824219 L 136.617188 125.824219 C 141.015625 125.824219 144.582031 122.253906 144.582031 117.855469 " fill-opacity="1" fill-rule="nonzero"/></g><g clip-path="url(#a0616ab2ee)"><path fill="#0c3a61" d="M 16.035156 128.300781 L 16.566406 128.300781 C 22.433594 128.300781 27.191406 123.542969 27.191406 117.675781 C 27.191406 111.808594 22.433594 107.054688 16.566406 107.054688 L 16.035156 107.054688 C 10.167969 107.054688 5.410156 111.808594 5.410156 117.675781 C 5.410156 123.542969 10.167969 128.300781 16.035156 128.300781 " fill-opacity="1" fill-rule="nonzero"/></g><g clip-path="url(#8e6adfec81)"><path fill="#0c3a61" d="M 136.617188 67.125 L 45.78125 67.125 C 41.382812 67.125 37.8125 70.691406 37.8125 75.09375 C 37.8125 79.496094 41.382812 83.0625 45.78125 83.0625 L 136.617188 83.0625 C 141.015625 83.0625 144.582031 79.496094 144.582031 75.09375 C 144.582031 70.691406 141.015625 67.125 136.617188 67.125 " fill-opacity="1" fill-rule="nonzero"/></g><g clip-path="url(#9301070339)"><path fill="#0c3a61" d="M 16.566406 64.46875 L 16.035156 64.46875 C 10.167969 64.46875 5.410156 69.226562 5.410156 75.09375 C 5.410156 80.960938 10.167969 85.71875 16.035156 85.71875 L 16.566406 85.71875 C 22.433594 85.71875 27.191406 80.960938 27.191406 75.09375 C 27.191406 69.226562 22.433594 64.46875 16.566406 64.46875 " fill-opacity="1" fill-rule="nonzero"/></g><g clip-path="url(#83b0a1a71f)"><path fill="#0c3a61" d="M 37.8125 32.332031 C 37.8125 36.734375 41.382812 40.300781 45.78125 40.300781 L 136.617188 40.300781 C 141.015625 40.300781 144.582031 36.734375 144.582031 32.332031 C 144.582031 27.933594 141.015625 24.367188 136.617188 24.367188 L 45.78125 24.367188 C 41.382812 24.367188 37.8125 27.933594 37.8125 32.332031 " fill-opacity="1" fill-rule="nonzero"/></g><g clip-path="url(#811ae7a0f3)"><path fill="#0c3a61" d="M 16.566406 21.710938 L 16.035156 21.710938 C 10.167969 21.710938 5.410156 26.464844 5.410156 32.332031 C 5.410156 38.199219 10.167969 42.957031 16.035156 42.957031 L 16.566406 42.957031 C 22.433594 42.957031 27.191406 38.199219 27.191406 32.332031 C 27.191406 26.464844 22.433594 21.710938 16.566406 21.710938 " fill-opacity="1" fill-rule="nonzero"/></g><g clip-path="url(#8e96f02b30)"><g clip-path="url(#45e80af900)"><g transform="matrix(1, 0, 0, 1, 14, 32)"><g clip-path="url(#67741ced1d)"><g clip-path="url(#dad4d71c45)"><g clip-path="url(#f8eb93e2c9)"><rect x="-47" width="216" fill="#0c3a61" height="215.999996" y="-64.999999" fill-opacity="1"/></g></g></g></g></g></g></svg>