<svg xmlns="http://www.w3.org/2000/svg" xmlns:xlink="http://www.w3.org/1999/xlink" width="200" zoomAndPan="magnify" viewBox="0 0 150 149.999998" height="200" preserveAspectRatio="xMidYMid meet" version="1.0"><defs><clipPath id="6385044cf6"><path d="M 1.519531 1.703125 L 148.519531 1.703125 L 148.519531 147.953125 L 1.519531 147.953125 Z M 1.519531 1.703125 " clip-rule="nonzero"/></clipPath><clipPath id="db1f02a873"><path d="M 23.4375 33.355469 L 23.796875 33.355469 L 23.796875 33.6875 L 23.4375 33.6875 Z M 23.4375 33.355469 " clip-rule="nonzero"/></clipPath><clipPath id="d31a7ebc4e"><path d="M 23.773438 33.601562 C 23.101562 33.824219 23.699219 33.375 23.699219 33.375 " clip-rule="nonzero"/></clipPath><clipPath id="f64644c18c"><path d="M 0.4375 0.359375 L 0.796875 0.359375 L 0.796875 0.6875 L 0.4375 0.6875 Z M 0.4375 0.359375 " clip-rule="nonzero"/></clipPath><clipPath id="9faf22feda"><path d="M 0.773438 0.601562 C 0.101562 0.824219 0.699219 0.375 0.699219 0.375 " clip-rule="nonzero"/></clipPath><clipPath id="c5d8ea13d0"><rect x="0" width="1" y="0" height="1"/></clipPath></defs><path fill="#000000" d="M 105.503906 43.070312 L 44.96875 42.503906 C 41.144531 42.46875 38.011719 45.53125 37.976562 49.347656 C 37.941406 53.160156 41.011719 56.285156 44.839844 56.320312 L 105.375 56.886719 C 109.199219 56.921875 112.332031 53.859375 112.367188 50.042969 C 112.402344 46.226562 109.328125 43.105469 105.503906 43.070312 Z M 105.503906 43.070312 " fill-opacity="1" fill-rule="nonzero"/><path fill="#000000" d="M 105.027344 93.542969 L 44.492188 92.976562 C 40.667969 92.941406 37.535156 96.003906 37.5 99.820312 C 37.464844 103.636719 40.539062 106.761719 44.363281 106.796875 L 104.898438 107.363281 C 108.722656 107.398438 111.855469 104.335938 111.890625 100.519531 C 111.925781 96.699219 108.851562 93.578125 105.027344 93.542969 Z M 105.027344 93.542969 " fill-opacity="1" fill-rule="nonzero"/><path fill="#000000" d="M 105.265625 68.304688 L 44.730469 67.738281 C 40.90625 67.703125 37.773438 70.765625 37.738281 74.582031 C 37.703125 78.398438 40.773438 81.523438 44.601562 81.558594 L 105.136719 82.125 C 108.960938 82.160156 112.09375 79.097656 112.128906 75.28125 C 112.164062 71.464844 109.089844 68.339844 105.265625 68.304688 Z M 105.265625 68.304688 " fill-opacity="1" fill-rule="nonzero"/><g clip-path="url(#6385044cf6)"><path fill="#000000" d="M 75.617188 1.910156 C 56.082031 1.722656 37.605469 9.148438 23.644531 22.8125 C 9.6875 36.476562 1.902344 54.742188 1.714844 74.246094 C 1.53125 93.753906 8.976562 112.160156 22.675781 126.082031 C 36.375 140.003906 54.6875 147.773438 74.246094 147.953125 C 74.480469 147.957031 74.710938 147.957031 74.945312 147.957031 C 114.996094 147.957031 147.773438 115.648438 148.148438 75.617188 C 148.527344 35.351562 115.992188 2.285156 75.617188 1.910156 Z M 74.941406 135.871094 C 74.746094 135.871094 74.550781 135.871094 74.355469 135.867188 C 58.039062 135.714844 42.753906 129.230469 31.320312 117.613281 C 19.890625 105.996094 13.679688 90.632812 13.832031 74.359375 C 13.984375 58.082031 20.484375 42.839844 32.132812 31.4375 C 43.644531 20.171875 58.8125 13.988281 74.914062 13.988281 C 75.109375 13.988281 75.308594 13.988281 75.503906 13.992188 C 109.191406 14.308594 136.34375 41.898438 136.027344 75.5 C 135.714844 108.910156 108.367188 135.871094 74.941406 135.871094 Z M 74.941406 135.871094 " fill-opacity="1" fill-rule="nonzero"/></g><g clip-path="url(#db1f02a873)"><g clip-path="url(#d31a7ebc4e)"><g transform="matrix(1, 0, 0, 1, 23, 33)"><g clip-path="url(#c5d8ea13d0)"><g clip-path="url(#f64644c18c)"><g clip-path="url(#9faf22feda)"><rect x="-56" width="216" fill="#000000" height="215.999996" y="-65.999999" fill-opacity="1"/></g></g></g></g></g></g></svg>