<svg xmlns="http://www.w3.org/2000/svg" xmlns:xlink="http://www.w3.org/1999/xlink" width="200" zoomAndPan="magnify" viewBox="0 0 150 149.999998" height="200" preserveAspectRatio="xMidYMid meet" version="1.0"><defs><clipPath id="8a0c729fe5"><path d="M 1.519531 1.703125 L 148.519531 1.703125 L 148.519531 147.953125 L 1.519531 147.953125 Z M 1.519531 1.703125 " clip-rule="nonzero"/></clipPath><clipPath id="ca234bf4a5"><path d="M 71.589844 9.507812 L 71.945312 9.507812 L 71.945312 9.839844 L 71.589844 9.839844 Z M 71.589844 9.507812 " clip-rule="nonzero"/></clipPath><clipPath id="85b92f71dd"><path d="M 71.925781 9.75 C 71.25 9.976562 71.851562 9.523438 71.851562 9.523438 " clip-rule="nonzero"/></clipPath><clipPath id="6e37ceeaae"><path d="M 0.589844 0.507812 L 0.945312 0.507812 L 0.945312 0.839844 L 0.589844 0.839844 Z M 0.589844 0.507812 " clip-rule="nonzero"/></clipPath><clipPath id="156cba0ba6"><path d="M 0.925781 0.75 C 0.25 0.976562 0.851562 0.523438 0.851562 0.523438 " clip-rule="nonzero"/></clipPath><clipPath id="e5b91e8709"><rect x="0" width="1" y="0" height="1"/></clipPath><clipPath id="68bbaae61d"><path d="M 25.238281 28.105469 L 25.597656 28.105469 L 25.597656 28.4375 L 25.238281 28.4375 Z M 25.238281 28.105469 " clip-rule="nonzero"/></clipPath><clipPath id="4ab7e22f6d"><path d="M 25.574219 28.351562 C 24.898438 28.574219 25.5 28.125 25.5 28.125 " clip-rule="nonzero"/></clipPath><clipPath id="94e8031693"><path d="M 0.238281 0.105469 L 0.597656 0.105469 L 0.597656 0.4375 L 0.238281 0.4375 Z M 0.238281 0.105469 " clip-rule="nonzero"/></clipPath><clipPath id="318068cda3"><path d="M 0.574219 0.351562 C -0.101562 0.574219 0.5 0.125 0.5 0.125 " clip-rule="nonzero"/></clipPath><clipPath id="c2bfc3db36"><rect x="0" width="1" y="0" height="1"/></clipPath></defs><path fill="#ffffff" d="M 105.46875 43.164062 L 44.957031 42.597656 C 41.132812 42.5625 38 45.632812 37.964844 49.457031 C 37.929688 53.28125 41 56.414062 44.828125 56.449219 L 105.339844 57.015625 C 109.164062 57.050781 112.296875 53.980469 112.332031 50.15625 C 112.367188 46.328125 109.292969 43.199219 105.46875 43.164062 Z M 105.46875 43.164062 " fill-opacity="1" fill-rule="nonzero"/><path fill="#ffffff" d="M 104.996094 93.757812 L 44.480469 93.1875 C 40.65625 93.152344 37.527344 96.222656 37.492188 100.050781 C 37.457031 103.875 40.523438 107.003906 44.351562 107.039062 L 104.867188 107.609375 C 108.6875 107.644531 111.820312 104.574219 111.855469 100.746094 C 111.890625 96.921875 108.816406 93.792969 104.996094 93.757812 Z M 104.996094 93.757812 " fill-opacity="1" fill-rule="nonzero"/><path fill="#ffffff" d="M 105.230469 68.460938 L 44.71875 67.890625 C 40.894531 67.855469 37.761719 70.925781 37.726562 74.753906 C 37.691406 78.574219 40.761719 81.707031 44.589844 81.742188 L 105.101562 82.3125 C 108.925781 82.347656 112.058594 79.277344 112.09375 75.449219 C 112.128906 71.628906 109.054688 68.496094 105.230469 68.460938 Z M 105.230469 68.460938 " fill-opacity="1" fill-rule="nonzero"/><g clip-path="url(#8a0c729fe5)"><path fill="#ffffff" d="M 75.59375 1.910156 C 56.066406 1.722656 37.59375 9.167969 23.640625 22.863281 C 9.6875 36.558594 1.902344 54.863281 1.714844 74.414062 C 1.53125 93.964844 8.972656 112.417969 22.667969 126.371094 C 36.363281 140.324219 54.671875 148.113281 74.222656 148.292969 C 74.457031 148.296875 74.6875 148.296875 74.921875 148.296875 C 114.960938 148.296875 147.726562 115.914062 148.101562 75.789062 C 148.480469 35.429688 115.953125 2.289062 75.59375 1.910156 Z M 74.917969 136.179688 C 74.722656 136.179688 74.527344 136.179688 74.335938 136.179688 C 58.019531 136.027344 42.742188 129.527344 31.3125 117.882812 C 19.882812 106.238281 13.675781 90.839844 13.828125 74.527344 C 13.980469 58.214844 20.480469 42.933594 32.125 31.503906 C 43.628906 20.214844 58.792969 14.019531 74.890625 14.019531 C 75.085938 14.019531 75.285156 14.019531 75.480469 14.023438 C 109.15625 14.339844 136.300781 41.992188 135.984375 75.671875 C 135.671875 109.160156 108.332031 136.179688 74.917969 136.179688 Z M 74.917969 136.179688 " fill-opacity="1" fill-rule="nonzero"/></g><g clip-path="url(#ca234bf4a5)"><g clip-path="url(#85b92f71dd)"><g transform="matrix(1, 0, 0, 1, 71, 9)"><g clip-path="url(#e5b91e8709)"><g clip-path="url(#6e37ceeaae)"><g clip-path="url(#156cba0ba6)"><rect x="-104" width="216" fill="#000000" height="215.999996" y="-41.999999" fill-opacity="1"/></g></g></g></g></g></g><g clip-path="url(#68bbaae61d)"><g clip-path="url(#4ab7e22f6d)"><g transform="matrix(1, 0, 0, 1, 25, 28)"><g clip-path="url(#c2bfc3db36)"><g clip-path="url(#94e8031693)"><g clip-path="url(#318068cda3)"><rect x="-58" width="216" fill="#ffffff" height="215.999996" y="-60.999999" fill-opacity="1"/></g></g></g></g></g></g></svg>