<svg xmlns="http://www.w3.org/2000/svg" xmlns:xlink="http://www.w3.org/1999/xlink" width="512" zoomAndPan="magnify" viewBox="0 0 384 149.999998" height="200" preserveAspectRatio="xMidYMid meet" version="1.0"><defs><g/><clipPath id="c66ff72ecf"><path d="M 0.078125 0.921875 L 372.320312 0.921875 L 372.320312 118 L 0.078125 118 Z M 0.078125 0.921875 " clip-rule="nonzero"/></clipPath><clipPath id="3636f6eae4"><path d="M 0.078125 13 L 76 13 L 76 99 L 0.078125 99 Z M 0.078125 13 " clip-rule="nonzero"/></clipPath><clipPath id="02f0c31381"><rect x="0" width="373" y="0" height="118"/></clipPath><clipPath id="823000d34b"><path d="M 148 99 L 218 99 L 218 121.878906 L 148 121.878906 Z M 148 99 " clip-rule="nonzero"/></clipPath><clipPath id="8a6cdc98d6"><rect x="0" width="70" y="0" height="23"/></clipPath><clipPath id="ee46779366"><rect x="0" width="373" y="0" height="122"/></clipPath></defs><g transform="matrix(1, 0, 0, 1, 10, 13)"><g clip-path="url(#ee46779366)"><g clip-path="url(#c66ff72ecf)"><g transform="matrix(1, 0, 0, 1, 0, -0.000000000000007105)"><g clip-path="url(#02f0c31381)"><g clip-path="url(#3636f6eae4)"><g fill="#f3bec9" fill-opacity="1"><g transform="translate(4.023237, 93.0931)"><g><path d="M 57.171875 -2.1875 C 57.546875 -0.726562 58.671875 0.140625 60.546875 0.421875 C 62.421875 0.710938 64.882812 0.859375 67.9375 0.859375 C 68.820312 0.859375 69.691406 0.984375 70.546875 1.234375 C 71.410156 1.492188 71.84375 2.066406 71.84375 2.953125 C 71.84375 3.835938 71.554688 4.4375 70.984375 4.75 C 70.410156 5.070312 69.582031 5.234375 68.5 5.234375 L 46.3125 5.234375 C 45.164062 5.234375 44.382812 5.109375 43.96875 4.859375 C 43.5625 4.609375 43.359375 4.226562 43.359375 3.71875 C 43.359375 3.019531 43.707031 2.585938 44.40625 2.421875 C 45.101562 2.265625 45.878906 2.109375 46.734375 1.953125 C 47.585938 1.796875 48.363281 1.492188 49.0625 1.046875 C 49.769531 0.597656 50.125 -0.222656 50.125 -1.421875 C 50.125 -1.742188 50.007812 -2.394531 49.78125 -3.375 C 49.5625 -4.363281 49.289062 -5.507812 48.96875 -6.8125 C 48.65625 -8.113281 48.304688 -9.507812 47.921875 -11 C 47.546875 -12.5 47.164062 -13.914062 46.78125 -15.25 C 46.40625 -16.582031 46.054688 -17.785156 45.734375 -18.859375 C 45.421875 -19.941406 45.195312 -20.738281 45.0625 -21.25 L 21.4375 -21.25 C 20.988281 -19.976562 20.523438 -18.59375 20.046875 -17.09375 C 19.578125 -15.601562 19.132812 -14.144531 18.71875 -12.71875 C 18.3125 -11.289062 17.976562 -9.988281 17.71875 -8.8125 C 17.46875 -7.632812 17.34375 -6.757812 17.34375 -6.1875 C 17.34375 -5.8125 17.578125 -5.507812 18.046875 -5.28125 C 18.523438 -5.0625 19.128906 -4.90625 19.859375 -4.8125 C 20.597656 -4.71875 21.394531 -4.671875 22.25 -4.671875 C 23.101562 -4.671875 23.878906 -4.671875 24.578125 -4.671875 C 25.210938 -4.671875 25.832031 -4.507812 26.4375 -4.1875 C 27.039062 -3.875 27.34375 -3.238281 27.34375 -2.28125 C 27.34375 -1.707031 27.117188 -1.179688 26.671875 -0.703125 C 26.234375 -0.234375 25.378906 0 24.109375 0 L -1.328125 0 C -1.898438 0 -2.410156 -0.203125 -2.859375 -0.609375 C -3.304688 -1.023438 -3.53125 -1.582031 -3.53125 -2.28125 C -3.53125 -2.914062 -3.289062 -3.40625 -2.8125 -3.75 C -2.332031 -4.101562 -1.773438 -4.28125 -1.140625 -4.28125 C -0.691406 -4.28125 -0.117188 -4.3125 0.578125 -4.375 C 1.273438 -4.445312 1.972656 -4.515625 2.671875 -4.578125 C 3.367188 -4.640625 3.984375 -4.703125 4.515625 -4.765625 C 5.054688 -4.828125 5.425781 -4.859375 5.625 -4.859375 C 6.957031 -4.984375 7.972656 -5.332031 8.671875 -5.90625 C 9.367188 -6.476562 9.910156 -7.335938 10.296875 -8.484375 C 11.242188 -11.148438 12.304688 -14.421875 13.484375 -18.296875 C 14.660156 -22.171875 15.867188 -26.332031 17.109375 -30.78125 C 18.347656 -35.226562 19.617188 -39.785156 20.921875 -44.453125 C 22.222656 -49.117188 23.441406 -53.5625 24.578125 -57.78125 C 25.722656 -62.007812 26.785156 -65.867188 27.765625 -69.359375 C 28.753906 -72.859375 29.566406 -75.65625 30.203125 -77.75 C 30.328125 -78.257812 30.644531 -78.71875 31.15625 -79.125 C 31.664062 -79.539062 32.492188 -79.75 33.640625 -79.75 C 35.472656 -79.75 36.582031 -79.082031 36.96875 -77.75 Z M 33.921875 -68.125 C 33.597656 -66.914062 33.179688 -65.328125 32.671875 -63.359375 C 32.171875 -61.390625 31.601562 -59.195312 30.96875 -56.78125 C 30.332031 -54.375 29.648438 -51.832031 28.921875 -49.15625 C 28.191406 -46.488281 27.492188 -43.851562 26.828125 -41.25 C 26.160156 -38.644531 25.507812 -36.148438 24.875 -33.765625 C 24.238281 -31.390625 23.695312 -29.3125 23.25 -27.53125 C 25.21875 -27.46875 27.109375 -27.4375 28.921875 -27.4375 C 30.734375 -27.4375 32.625 -27.4375 34.59375 -27.4375 C 36.050781 -27.4375 37.554688 -27.4375 39.109375 -27.4375 C 40.671875 -27.4375 42.179688 -27.46875 43.640625 -27.53125 C 42.878906 -30.457031 42.082031 -33.601562 41.25 -36.96875 C 40.425781 -40.332031 39.585938 -43.789062 38.734375 -47.34375 C 37.878906 -50.90625 37.035156 -54.445312 36.203125 -57.96875 C 35.378906 -61.5 34.617188 -64.882812 33.921875 -68.125 Z M 33.921875 -68.125 "/></g></g></g></g><g fill="#f3bec9" fill-opacity="1"><g transform="translate(81.956397, 93.0931)"><g><path d="M 9.25 -38.5 C 8.039062 -38.5 6.671875 -38.460938 5.140625 -38.390625 C 3.617188 -38.328125 2.285156 -38.296875 1.140625 -38.296875 C 0.765625 -38.296875 0.210938 -38.488281 -0.515625 -38.875 C -1.253906 -39.257812 -1.625 -40.019531 -1.625 -41.15625 C -1.625 -42.050781 -1.304688 -42.703125 -0.671875 -43.109375 C -0.0351562 -43.523438 0.726562 -43.796875 1.625 -43.921875 L 6.484375 -44.40625 C 7.753906 -44.53125 8.515625 -44.828125 8.765625 -45.296875 C 9.015625 -45.773438 9.140625 -46.554688 9.140625 -47.640625 C 9.140625 -48.972656 9.15625 -50.414062 9.1875 -51.96875 C 9.226562 -53.53125 9.40625 -54.945312 9.71875 -56.21875 C 10.03125 -57.488281 10.535156 -58.25 11.234375 -58.5 C 11.941406 -58.757812 12.453125 -58.890625 12.765625 -58.890625 C 13.585938 -58.890625 14.316406 -58.679688 14.953125 -58.265625 C 15.585938 -57.847656 15.90625 -56.6875 15.90625 -54.78125 L 15.90625 -44.59375 C 16.351562 -44.59375 17.210938 -44.609375 18.484375 -44.640625 C 19.753906 -44.671875 21.101562 -44.71875 22.53125 -44.78125 C 23.957031 -44.84375 25.273438 -44.890625 26.484375 -44.921875 C 27.691406 -44.953125 28.488281 -44.96875 28.875 -44.96875 C 29.632812 -44.96875 30.394531 -44.757812 31.15625 -44.34375 C 31.914062 -43.9375 32.296875 -43.222656 32.296875 -42.203125 C 32.296875 -41.316406 32.007812 -40.664062 31.4375 -40.25 C 30.863281 -39.84375 30.296875 -39.578125 29.734375 -39.453125 C 27.441406 -39.191406 25.101562 -39.03125 22.71875 -38.96875 C 20.34375 -38.90625 18.070312 -38.8125 15.90625 -38.6875 L 15.90625 -14.484375 C 15.90625 -13.460938 15.96875 -12.378906 16.09375 -11.234375 C 16.226562 -10.097656 16.46875 -9.035156 16.8125 -8.046875 C 17.164062 -7.066406 17.675781 -6.257812 18.34375 -5.625 C 19.007812 -4.988281 19.914062 -4.671875 21.0625 -4.671875 C 22.070312 -4.671875 22.894531 -4.84375 23.53125 -5.1875 C 24.164062 -5.539062 24.707031 -5.96875 25.15625 -6.46875 C 25.601562 -6.976562 25.953125 -7.519531 26.203125 -8.09375 C 26.453125 -8.664062 26.675781 -9.207031 26.875 -9.71875 C 27.0625 -10.226562 27.234375 -10.734375 27.390625 -11.234375 C 27.546875 -11.742188 27.75 -12.207031 28 -12.625 C 28.257812 -13.039062 28.613281 -13.375 29.0625 -13.625 C 29.507812 -13.875 30.113281 -14 30.875 -14 C 31.382812 -14 31.796875 -13.875 32.109375 -13.625 C 32.429688 -13.375 32.671875 -13.085938 32.828125 -12.765625 C 32.984375 -12.453125 33.09375 -12.132812 33.15625 -11.8125 C 33.21875 -11.5 33.25 -11.273438 33.25 -11.140625 C 33.25 -10.253906 32.992188 -9.113281 32.484375 -7.71875 C 31.984375 -6.320312 31.175781 -4.972656 30.0625 -3.671875 C 28.945312 -2.367188 27.53125 -1.253906 25.8125 -0.328125 C 24.101562 0.585938 22.070312 1.046875 19.71875 1.046875 C 16.101562 1.046875 13.4375 -0.253906 11.71875 -2.859375 C 11.082031 -3.804688 10.585938 -4.835938 10.234375 -5.953125 C 9.890625 -7.066406 9.617188 -8.207031 9.421875 -9.375 C 9.234375 -10.550781 9.125 -11.679688 9.09375 -12.765625 C 9.0625 -13.847656 9.046875 -14.832031 9.046875 -15.71875 Z M 9.25 -38.5 "/></g></g></g><g fill="#f3bec9" fill-opacity="1"><g transform="translate(127.592555, 93.0931)"><g><path d="M 34.6875 -28.875 C 35.757812 -28.875 36.296875 -29.125 36.296875 -29.625 C 36.296875 -30.582031 36.039062 -31.648438 35.53125 -32.828125 C 35.03125 -34.003906 34.285156 -35.082031 33.296875 -36.0625 C 32.316406 -37.050781 31.0625 -37.878906 29.53125 -38.546875 C 28.007812 -39.210938 26.234375 -39.546875 24.203125 -39.546875 C 22.234375 -39.546875 20.453125 -39.210938 18.859375 -38.546875 C 17.273438 -37.878906 15.910156 -37.019531 14.765625 -35.96875 C 13.617188 -34.914062 12.695312 -33.738281 12 -32.4375 C 11.300781 -31.132812 10.828125 -29.816406 10.578125 -28.484375 Z M 10.1875 -22.765625 C 10.125 -22.453125 10.078125 -22.117188 10.046875 -21.765625 C 10.015625 -21.421875 10 -21.085938 10 -20.765625 C 10 -18.859375 10.316406 -16.953125 10.953125 -15.046875 C 11.585938 -13.148438 12.523438 -11.4375 13.765625 -9.90625 C 15.003906 -8.382812 16.53125 -7.160156 18.34375 -6.234375 C 20.15625 -5.316406 22.234375 -4.859375 24.578125 -4.859375 C 27.054688 -4.859375 29.148438 -5.238281 30.859375 -6 C 32.578125 -6.757812 33.960938 -7.726562 35.015625 -8.90625 C 36.066406 -10.082031 36.828125 -11.351562 37.296875 -12.71875 C 37.773438 -14.082031 38.015625 -15.335938 38.015625 -16.484375 C 38.015625 -16.992188 38.21875 -17.628906 38.625 -18.390625 C 39.039062 -19.148438 39.914062 -19.53125 41.25 -19.53125 C 42.019531 -19.53125 42.6875 -19.257812 43.25 -18.71875 C 43.820312 -18.175781 44.109375 -17.429688 44.109375 -16.484375 C 44.109375 -14.265625 43.773438 -12.085938 43.109375 -9.953125 C 42.441406 -7.828125 41.3125 -5.9375 39.71875 -4.28125 C 38.132812 -2.632812 35.976562 -1.300781 33.25 -0.28125 C 30.519531 0.726562 27.125 1.234375 23.0625 1.234375 C 19.757812 1.234375 16.851562 0.679688 14.34375 -0.421875 C 11.832031 -1.535156 9.71875 -3.109375 8 -5.140625 C 6.289062 -7.171875 5.003906 -9.566406 4.140625 -12.328125 C 3.285156 -15.097656 2.859375 -18.164062 2.859375 -21.53125 C 2.859375 -25.21875 3.363281 -28.550781 4.375 -31.53125 C 5.394531 -34.519531 6.859375 -37.03125 8.765625 -39.0625 C 10.671875 -41.09375 12.957031 -42.664062 15.625 -43.78125 C 18.289062 -44.894531 21.242188 -45.453125 24.484375 -45.453125 C 27.984375 -45.453125 30.9375 -44.832031 33.34375 -43.59375 C 35.757812 -42.351562 37.695312 -40.859375 39.15625 -39.109375 C 40.625 -37.367188 41.671875 -35.5625 42.296875 -33.6875 C 42.929688 -31.8125 43.25 -30.238281 43.25 -28.96875 C 43.25 -27.507812 42.898438 -26.144531 42.203125 -24.875 C 41.503906 -23.601562 40.519531 -22.96875 39.25 -22.96875 C 37.28125 -22.96875 34.945312 -22.953125 32.25 -22.921875 C 29.550781 -22.890625 26.675781 -22.875 23.625 -22.875 C 22.988281 -22.875 22.066406 -22.875 20.859375 -22.875 C 19.660156 -22.875 18.390625 -22.851562 17.046875 -22.8125 C 15.710938 -22.78125 14.425781 -22.765625 13.1875 -22.765625 C 11.957031 -22.765625 10.957031 -22.765625 10.1875 -22.765625 Z M 10.1875 -22.765625 "/></g></g></g><g fill="#f3bec9" fill-opacity="1"><g transform="translate(185.804536, 93.0931)"><g><path d="M 15.90625 -74.796875 C 15.90625 -73.203125 15.890625 -71.53125 15.859375 -69.78125 C 15.828125 -68.039062 15.8125 -66.421875 15.8125 -64.921875 C 15.8125 -63.429688 15.8125 -62.191406 15.8125 -61.203125 C 15.8125 -60.222656 15.8125 -59.703125 15.8125 -59.640625 C 15.8125 -45.285156 15.84375 -33.722656 15.90625 -24.953125 C 15.96875 -16.191406 16 -9.6875 16 -5.4375 L 20.390625 -5.4375 C 22.359375 -5.4375 23.644531 -5.117188 24.25 -4.484375 C 24.851562 -3.847656 25.15625 -3.144531 25.15625 -2.375 C 25.15625 -1.875 24.882812 -1.335938 24.34375 -0.765625 C 23.800781 -0.191406 22.863281 0.09375 21.53125 0.09375 C 21.082031 0.09375 20.476562 0.078125 19.71875 0.046875 C 18.957031 0.015625 18.144531 -0.015625 17.28125 -0.046875 C 16.425781 -0.078125 15.539062 -0.109375 14.625 -0.140625 C 13.707031 -0.171875 12.832031 -0.1875 12 -0.1875 C 11.363281 -0.1875 10.648438 -0.171875 9.859375 -0.140625 C 9.066406 -0.109375 8.269531 -0.09375 7.46875 -0.09375 C 6.675781 -0.09375 5.914062 -0.078125 5.1875 -0.046875 C 4.457031 -0.015625 3.835938 0 3.328125 0 C 1.804688 0 0.742188 -0.269531 0.140625 -0.8125 C -0.460938 -1.351562 -0.765625 -1.910156 -0.765625 -2.484375 C -0.765625 -3.429688 -0.507812 -4.078125 0 -4.421875 C 0.507812 -4.773438 0.921875 -4.953125 1.234375 -4.953125 L 4.390625 -5.140625 C 7.242188 -5.335938 8.734375 -6.320312 8.859375 -8.09375 C 8.921875 -9.875 8.984375 -11.75 9.046875 -13.71875 C 9.109375 -15.6875 9.171875 -17.910156 9.234375 -20.390625 C 9.304688 -22.867188 9.34375 -25.660156 9.34375 -28.765625 C 9.34375 -31.878906 9.34375 -35.40625 9.34375 -39.34375 C 9.34375 -43.414062 9.34375 -46.988281 9.34375 -50.0625 C 9.34375 -53.144531 9.328125 -55.910156 9.296875 -58.359375 C 9.265625 -60.804688 9.25 -63.015625 9.25 -64.984375 C 9.25 -66.953125 9.25 -68.859375 9.25 -70.703125 C 9.25 -71.710938 9.148438 -72.40625 8.953125 -72.78125 C 8.765625 -73.164062 8.257812 -73.359375 7.4375 -73.359375 L 1.53125 -73.359375 C 0.195312 -73.359375 -0.863281 -73.5 -1.65625 -73.78125 C -2.457031 -74.070312 -2.859375 -74.601562 -2.859375 -75.375 C -2.859375 -76.007812 -2.394531 -76.5 -1.46875 -76.84375 C -0.550781 -77.195312 0.585938 -77.46875 1.953125 -77.65625 C 3.316406 -77.84375 4.757812 -77.96875 6.28125 -78.03125 C 7.8125 -78.09375 9.210938 -78.125 10.484375 -78.125 C 12.265625 -78.125 13.613281 -77.976562 14.53125 -77.6875 C 15.445312 -77.40625 15.90625 -76.441406 15.90625 -74.796875 Z M 15.90625 -74.796875 "/></g></g></g><g fill="#f3bec9" fill-opacity="1"><g transform="translate(221.627747, 93.0931)"><g><path d="M 18.765625 -5.53125 L 24.203125 -5.53125 C 25.597656 -5.53125 26.707031 -5.367188 27.53125 -5.046875 C 28.363281 -4.734375 28.78125 -3.941406 28.78125 -2.671875 C 28.78125 -1.835938 28.492188 -1.179688 27.921875 -0.703125 C 27.347656 -0.234375 26.679688 0 25.921875 0 L 8.859375 0 C 8.097656 0 7.316406 -0.015625 6.515625 -0.046875 C 5.722656 -0.078125 5.023438 -0.171875 4.421875 -0.328125 C 3.828125 -0.492188 3.320312 -0.75 2.90625 -1.09375 C 2.488281 -1.445312 2.28125 -1.941406 2.28125 -2.578125 C 2.28125 -3.148438 2.40625 -3.59375 2.65625 -3.90625 C 2.914062 -4.226562 3.300781 -4.46875 3.8125 -4.625 C 4.320312 -4.78125 4.910156 -4.90625 5.578125 -5 C 6.242188 -5.09375 7.019531 -5.203125 7.90625 -5.328125 C 9.300781 -5.523438 10.253906 -5.734375 10.765625 -5.953125 C 11.273438 -6.171875 11.59375 -6.632812 11.71875 -7.34375 C 11.90625 -9.375 12.015625 -11.578125 12.046875 -13.953125 C 12.078125 -16.335938 12.09375 -18.453125 12.09375 -20.296875 C 12.09375 -22.710938 12.0625 -25.03125 12 -27.25 C 11.9375 -29.46875 11.84375 -31.785156 11.71875 -34.203125 C 11.65625 -34.960938 11.523438 -35.582031 11.328125 -36.0625 C 11.140625 -36.539062 10.796875 -36.78125 10.296875 -36.78125 C 10.035156 -36.78125 9.539062 -36.75 8.8125 -36.6875 C 8.082031 -36.625 7.316406 -36.578125 6.515625 -36.546875 C 5.722656 -36.515625 4.976562 -36.460938 4.28125 -36.390625 C 3.582031 -36.328125 3.109375 -36.296875 2.859375 -36.296875 C 2.347656 -36.296875 1.773438 -36.453125 1.140625 -36.765625 C 0.503906 -37.085938 0.1875 -37.441406 0.1875 -37.828125 C 0.1875 -38.585938 0.34375 -39.15625 0.65625 -39.53125 C 0.976562 -39.914062 1.441406 -40.203125 2.046875 -40.390625 C 2.648438 -40.585938 3.378906 -40.71875 4.234375 -40.78125 C 5.097656 -40.84375 6.066406 -40.9375 7.140625 -41.0625 C 7.972656 -41.125 8.863281 -41.1875 9.8125 -41.25 C 10.769531 -41.320312 11.707031 -41.390625 12.625 -41.453125 C 13.539062 -41.515625 14.378906 -41.546875 15.140625 -41.546875 C 15.910156 -41.546875 16.550781 -41.546875 17.0625 -41.546875 C 17.820312 -41.546875 18.296875 -41.242188 18.484375 -40.640625 C 18.671875 -40.035156 18.765625 -39.222656 18.765625 -38.203125 Z M 9.140625 -55.265625 C 9.140625 -55.710938 9.25 -56.269531 9.46875 -56.9375 C 9.695312 -57.601562 10.015625 -58.21875 10.421875 -58.78125 C 10.835938 -59.351562 11.394531 -59.847656 12.09375 -60.265625 C 12.800781 -60.679688 13.628906 -60.890625 14.578125 -60.890625 C 15.847656 -60.890625 16.957031 -60.425781 17.90625 -59.5 C 18.863281 -58.582031 19.34375 -57.296875 19.34375 -55.640625 C 19.34375 -53.359375 18.722656 -51.769531 17.484375 -50.875 C 16.242188 -49.988281 15.050781 -49.546875 13.90625 -49.546875 C 12.570312 -49.546875 11.441406 -50.082031 10.515625 -51.15625 C 9.597656 -52.238281 9.140625 -53.609375 9.140625 -55.265625 Z M 9.140625 -55.265625 "/></g></g></g><g fill="#f3bec9" fill-opacity="1"><g transform="translate(260.880733, 93.0931)"><g><path d="M 34.6875 -28.875 C 35.757812 -28.875 36.296875 -29.125 36.296875 -29.625 C 36.296875 -30.582031 36.039062 -31.648438 35.53125 -32.828125 C 35.03125 -34.003906 34.285156 -35.082031 33.296875 -36.0625 C 32.316406 -37.050781 31.0625 -37.878906 29.53125 -38.546875 C 28.007812 -39.210938 26.234375 -39.546875 24.203125 -39.546875 C 22.234375 -39.546875 20.453125 -39.210938 18.859375 -38.546875 C 17.273438 -37.878906 15.910156 -37.019531 14.765625 -35.96875 C 13.617188 -34.914062 12.695312 -33.738281 12 -32.4375 C 11.300781 -31.132812 10.828125 -29.816406 10.578125 -28.484375 Z M 10.1875 -22.765625 C 10.125 -22.453125 10.078125 -22.117188 10.046875 -21.765625 C 10.015625 -21.421875 10 -21.085938 10 -20.765625 C 10 -18.859375 10.316406 -16.953125 10.953125 -15.046875 C 11.585938 -13.148438 12.523438 -11.4375 13.765625 -9.90625 C 15.003906 -8.382812 16.53125 -7.160156 18.34375 -6.234375 C 20.15625 -5.316406 22.234375 -4.859375 24.578125 -4.859375 C 27.054688 -4.859375 29.148438 -5.238281 30.859375 -6 C 32.578125 -6.757812 33.960938 -7.726562 35.015625 -8.90625 C 36.066406 -10.082031 36.828125 -11.351562 37.296875 -12.71875 C 37.773438 -14.082031 38.015625 -15.335938 38.015625 -16.484375 C 38.015625 -16.992188 38.21875 -17.628906 38.625 -18.390625 C 39.039062 -19.148438 39.914062 -19.53125 41.25 -19.53125 C 42.019531 -19.53125 42.6875 -19.257812 43.25 -18.71875 C 43.820312 -18.175781 44.109375 -17.429688 44.109375 -16.484375 C 44.109375 -14.265625 43.773438 -12.085938 43.109375 -9.953125 C 42.441406 -7.828125 41.3125 -5.9375 39.71875 -4.28125 C 38.132812 -2.632812 35.976562 -1.300781 33.25 -0.28125 C 30.519531 0.726562 27.125 1.234375 23.0625 1.234375 C 19.757812 1.234375 16.851562 0.679688 14.34375 -0.421875 C 11.832031 -1.535156 9.71875 -3.109375 8 -5.140625 C 6.289062 -7.171875 5.003906 -9.566406 4.140625 -12.328125 C 3.285156 -15.097656 2.859375 -18.164062 2.859375 -21.53125 C 2.859375 -25.21875 3.363281 -28.550781 4.375 -31.53125 C 5.394531 -34.519531 6.859375 -37.03125 8.765625 -39.0625 C 10.671875 -41.09375 12.957031 -42.664062 15.625 -43.78125 C 18.289062 -44.894531 21.242188 -45.453125 24.484375 -45.453125 C 27.984375 -45.453125 30.9375 -44.832031 33.34375 -43.59375 C 35.757812 -42.351562 37.695312 -40.859375 39.15625 -39.109375 C 40.625 -37.367188 41.671875 -35.5625 42.296875 -33.6875 C 42.929688 -31.8125 43.25 -30.238281 43.25 -28.96875 C 43.25 -27.507812 42.898438 -26.144531 42.203125 -24.875 C 41.503906 -23.601562 40.519531 -22.96875 39.25 -22.96875 C 37.28125 -22.96875 34.945312 -22.953125 32.25 -22.921875 C 29.550781 -22.890625 26.675781 -22.875 23.625 -22.875 C 22.988281 -22.875 22.066406 -22.875 20.859375 -22.875 C 19.660156 -22.875 18.390625 -22.851562 17.046875 -22.8125 C 15.710938 -22.78125 14.425781 -22.765625 13.1875 -22.765625 C 11.957031 -22.765625 10.957031 -22.765625 10.1875 -22.765625 Z M 10.1875 -22.765625 "/></g></g></g><g fill="#f3bec9" fill-opacity="1"><g transform="translate(319.092696, 93.0931)"><g><path d="M 39.453125 -32.015625 C 39.453125 -30.929688 39.335938 -29.878906 39.109375 -28.859375 C 38.890625 -27.847656 38.523438 -26.945312 38.015625 -26.15625 C 37.503906 -25.363281 36.835938 -24.710938 36.015625 -24.203125 C 35.191406 -23.691406 34.144531 -23.4375 32.875 -23.4375 C 31.789062 -23.4375 30.785156 -23.738281 29.859375 -24.34375 C 28.941406 -24.945312 28.484375 -25.882812 28.484375 -27.15625 C 28.484375 -28.101562 28.691406 -28.785156 29.109375 -29.203125 C 29.523438 -29.617188 30 -29.9375 30.53125 -30.15625 C 31.070312 -30.375 31.550781 -30.609375 31.96875 -30.859375 C 32.382812 -31.117188 32.59375 -31.597656 32.59375 -32.296875 C 32.59375 -33.503906 32.175781 -34.347656 31.34375 -34.828125 C 30.519531 -35.304688 29.472656 -35.546875 28.203125 -35.546875 C 27.054688 -35.546875 25.816406 -35.289062 24.484375 -34.78125 C 23.148438 -34.269531 21.910156 -33.410156 20.765625 -32.203125 C 19.628906 -30.992188 18.675781 -29.421875 17.90625 -27.484375 C 17.144531 -25.546875 16.765625 -23.148438 16.765625 -20.296875 L 16.765625 -5.8125 L 21.921875 -5.8125 C 25.222656 -5.8125 27.539062 -5.539062 28.875 -5 C 30.207031 -4.457031 30.875 -3.648438 30.875 -2.578125 C 30.875 -0.859375 29.921875 0 28.015625 0 C 27.054688 0 26.003906 -0.015625 24.859375 -0.046875 C 23.722656 -0.078125 22.566406 -0.109375 21.390625 -0.140625 C 20.210938 -0.171875 19.050781 -0.203125 17.90625 -0.234375 C 16.769531 -0.265625 15.753906 -0.28125 14.859375 -0.28125 C 13.910156 -0.28125 13.085938 -0.265625 12.390625 -0.234375 C 11.691406 -0.203125 11.007812 -0.171875 10.34375 -0.140625 C 9.675781 -0.109375 9.007812 -0.078125 8.34375 -0.046875 C 7.675781 -0.015625 6.894531 0 6 0 C 4.988281 0 4.226562 -0.269531 3.71875 -0.8125 C 3.207031 -1.351562 2.953125 -1.972656 2.953125 -2.671875 C 2.953125 -3.367188 3.191406 -4.035156 3.671875 -4.671875 C 4.148438 -5.304688 4.925781 -5.6875 6 -5.8125 C 7.53125 -6 8.53125 -6.363281 9 -6.90625 C 9.476562 -7.445312 9.75 -8.160156 9.8125 -9.046875 C 9.875 -9.878906 9.921875 -10.945312 9.953125 -12.25 C 9.984375 -13.550781 10.03125 -15.265625 10.09375 -17.390625 C 10.15625 -19.515625 10.203125 -22.132812 10.234375 -25.25 C 10.273438 -28.363281 10.296875 -32.207031 10.296875 -36.78125 C 10.296875 -37.664062 9.816406 -38.109375 8.859375 -38.109375 L 4.1875 -38.109375 C 2.601562 -38.109375 1.410156 -38.347656 0.609375 -38.828125 C -0.179688 -39.304688 -0.578125 -39.796875 -0.578125 -40.296875 C -0.578125 -40.867188 -0.0859375 -41.328125 0.890625 -41.671875 C 1.878906 -42.023438 3.070312 -42.296875 4.46875 -42.484375 C 5.875 -42.679688 7.367188 -42.8125 8.953125 -42.875 C 10.546875 -42.9375 11.910156 -42.96875 13.046875 -42.96875 C 14.703125 -42.96875 15.816406 -42.773438 16.390625 -42.390625 C 16.960938 -42.015625 17.25 -41 17.25 -39.34375 L 17.25 -34.6875 C 18.769531 -36.90625 20.515625 -38.570312 22.484375 -39.6875 C 24.453125 -40.800781 26.550781 -41.359375 28.78125 -41.359375 C 30.363281 -41.359375 31.804688 -41.085938 33.109375 -40.546875 C 34.410156 -40.003906 35.535156 -39.300781 36.484375 -38.4375 C 37.441406 -37.582031 38.175781 -36.597656 38.6875 -35.484375 C 39.195312 -34.378906 39.453125 -33.222656 39.453125 -32.015625 Z M 39.453125 -32.015625 "/></g></g></g></g></g></g><g clip-path="url(#823000d34b)"><g transform="matrix(1, 0, 0, 1, 148, 99)"><g clip-path="url(#8a6cdc98d6)"><g fill="#ffffff" fill-opacity="1"><g transform="translate(1.514704, 18.158217)"><g><path d="M 4.046875 -8.703125 L 4.046875 0 L 1.40625 0 L 1.40625 -13.5625 L 3.515625 -13.5625 L 10.515625 -4.625 L 10.515625 -13.53125 L 13.15625 -13.53125 L 13.15625 0 L 10.953125 0 Z M 4.046875 -8.703125 "/></g></g></g><g fill="#ffffff" fill-opacity="1"><g transform="translate(18.371804, 18.158217)"><g><path d="M 7.203125 0.09375 C 6.203125 0.09375 5.296875 -0.09375 4.484375 -0.46875 C 3.679688 -0.851562 2.988281 -1.375 2.40625 -2.03125 C 1.832031 -2.6875 1.382812 -3.425781 1.0625 -4.25 C 0.75 -5.070312 0.59375 -5.914062 0.59375 -6.78125 C 0.59375 -7.6875 0.757812 -8.546875 1.09375 -9.359375 C 1.4375 -10.179688 1.898438 -10.914062 2.484375 -11.5625 C 3.078125 -12.207031 3.773438 -12.71875 4.578125 -13.09375 C 5.390625 -13.46875 6.28125 -13.65625 7.25 -13.65625 C 8.226562 -13.65625 9.125 -13.457031 9.9375 -13.0625 C 10.75 -12.664062 11.441406 -12.132812 12.015625 -11.46875 C 12.585938 -10.8125 13.03125 -10.070312 13.34375 -9.25 C 13.664062 -8.4375 13.828125 -7.597656 13.828125 -6.734375 C 13.828125 -5.847656 13.660156 -4.992188 13.328125 -4.171875 C 12.992188 -3.347656 12.53125 -2.613281 11.9375 -1.96875 C 11.351562 -1.332031 10.65625 -0.828125 9.84375 -0.453125 C 9.03125 -0.0859375 8.148438 0.09375 7.203125 0.09375 Z M 3.265625 -6.78125 C 3.265625 -6.195312 3.351562 -5.628906 3.53125 -5.078125 C 3.707031 -4.535156 3.960938 -4.050781 4.296875 -3.625 C 4.640625 -3.195312 5.054688 -2.859375 5.546875 -2.609375 C 6.035156 -2.359375 6.59375 -2.234375 7.21875 -2.234375 C 7.851562 -2.234375 8.414062 -2.363281 8.90625 -2.625 C 9.40625 -2.882812 9.820312 -3.234375 10.15625 -3.671875 C 10.488281 -4.109375 10.738281 -4.597656 10.90625 -5.140625 C 11.082031 -5.679688 11.171875 -6.226562 11.171875 -6.78125 C 11.171875 -7.363281 11.078125 -7.925781 10.890625 -8.46875 C 10.703125 -9.007812 10.441406 -9.492188 10.109375 -9.921875 C 9.773438 -10.347656 9.363281 -10.679688 8.875 -10.921875 C 8.382812 -11.171875 7.832031 -11.296875 7.21875 -11.296875 C 6.570312 -11.296875 6.003906 -11.164062 5.515625 -10.90625 C 5.023438 -10.644531 4.613281 -10.296875 4.28125 -9.859375 C 3.945312 -9.429688 3.691406 -8.953125 3.515625 -8.421875 C 3.347656 -7.890625 3.265625 -7.34375 3.265625 -6.78125 Z M 3.265625 -6.78125 "/></g></g></g><g fill="#ffffff" fill-opacity="1"><g transform="translate(35.095272, 18.158217)"><g><path d="M 1.109375 0 L 1.109375 -2.75 L 3.203125 -2.75 L 3.203125 0 Z M 1.109375 0 "/></g></g></g><g fill="#ffffff" fill-opacity="1"><g transform="translate(41.682044, 18.158217)"><g><path d="M 10.78125 -5.59375 C 10.78125 -4.476562 10.566406 -3.484375 10.140625 -2.609375 C 9.722656 -1.734375 9.140625 -1.046875 8.390625 -0.546875 C 7.648438 -0.0546875 6.804688 0.1875 5.859375 0.1875 C 4.921875 0.1875 4.078125 -0.0546875 3.328125 -0.546875 C 2.585938 -1.046875 2.003906 -1.734375 1.578125 -2.609375 C 1.148438 -3.484375 0.9375 -4.476562 0.9375 -5.59375 C 0.9375 -6.71875 1.148438 -7.710938 1.578125 -8.578125 C 2.003906 -9.453125 2.585938 -10.140625 3.328125 -10.640625 C 4.078125 -11.148438 4.921875 -11.40625 5.859375 -11.40625 C 6.804688 -11.40625 7.648438 -11.148438 8.390625 -10.640625 C 9.140625 -10.140625 9.722656 -9.453125 10.140625 -8.578125 C 10.566406 -7.710938 10.78125 -6.71875 10.78125 -5.59375 Z M 8.203125 -5.59375 C 8.203125 -6.28125 8.101562 -6.878906 7.90625 -7.390625 C 7.71875 -7.910156 7.441406 -8.316406 7.078125 -8.609375 C 6.722656 -8.898438 6.316406 -9.046875 5.859375 -9.046875 C 5.390625 -9.046875 4.976562 -8.898438 4.625 -8.609375 C 4.269531 -8.316406 3.992188 -7.910156 3.796875 -7.390625 C 3.597656 -6.878906 3.5 -6.28125 3.5 -5.59375 C 3.5 -4.90625 3.597656 -4.304688 3.796875 -3.796875 C 3.992188 -3.285156 4.269531 -2.882812 4.625 -2.59375 C 4.976562 -2.300781 5.390625 -2.15625 5.859375 -2.15625 C 6.316406 -2.15625 6.71875 -2.300781 7.0625 -2.59375 C 7.414062 -2.882812 7.691406 -3.285156 7.890625 -3.796875 C 8.097656 -4.316406 8.203125 -4.914062 8.203125 -5.59375 Z M 8.203125 -5.59375 "/></g></g></g><g fill="#ffffff" fill-opacity="1"><g transform="translate(55.694762, 18.158217)"><g><path d="M 0.71875 0 C 0.71875 -0.570312 0.765625 -1.085938 0.859375 -1.546875 C 0.953125 -2.003906 1.109375 -2.429688 1.328125 -2.828125 C 1.546875 -3.222656 1.847656 -3.59375 2.234375 -3.9375 C 2.628906 -4.289062 3.125 -4.632812 3.71875 -4.96875 C 4.238281 -5.25 4.695312 -5.492188 5.09375 -5.703125 C 5.488281 -5.910156 5.820312 -6.101562 6.09375 -6.28125 C 6.375 -6.457031 6.582031 -6.640625 6.71875 -6.828125 C 6.863281 -7.015625 6.9375 -7.226562 6.9375 -7.46875 C 6.9375 -7.71875 6.863281 -7.945312 6.71875 -8.15625 C 6.582031 -8.375 6.382812 -8.546875 6.125 -8.671875 C 5.875 -8.796875 5.554688 -8.859375 5.171875 -8.859375 C 4.867188 -8.859375 4.585938 -8.816406 4.328125 -8.734375 C 4.066406 -8.660156 3.820312 -8.550781 3.59375 -8.40625 C 3.375 -8.269531 3.164062 -8.113281 2.96875 -7.9375 C 2.78125 -7.769531 2.613281 -7.59375 2.46875 -7.40625 L 0.84375 -9.28125 C 1.019531 -9.457031 1.253906 -9.648438 1.546875 -9.859375 C 1.847656 -10.066406 2.207031 -10.265625 2.625 -10.453125 C 3.039062 -10.640625 3.5 -10.789062 4 -10.90625 C 4.5 -11.03125 5.035156 -11.09375 5.609375 -11.09375 C 6.472656 -11.09375 7.210938 -10.953125 7.828125 -10.671875 C 8.441406 -10.398438 8.910156 -10.023438 9.234375 -9.546875 C 9.554688 -9.066406 9.71875 -8.5 9.71875 -7.84375 C 9.71875 -7.394531 9.632812 -7 9.46875 -6.65625 C 9.300781 -6.3125 9.085938 -6.007812 8.828125 -5.75 C 8.578125 -5.488281 8.300781 -5.253906 8 -5.046875 C 7.707031 -4.847656 7.421875 -4.675781 7.140625 -4.53125 C 6.742188 -4.320312 6.382812 -4.128906 6.0625 -3.953125 C 5.75 -3.785156 5.472656 -3.613281 5.234375 -3.4375 C 4.992188 -3.269531 4.78125 -3.097656 4.59375 -2.921875 C 4.40625 -2.742188 4.242188 -2.539062 4.109375 -2.3125 L 9.921875 -2.3125 L 9.921875 0 Z M 0.71875 0 "/></g></g></g></g></g></g></g></g></svg>