<svg xmlns="http://www.w3.org/2000/svg" xmlns:xlink="http://www.w3.org/1999/xlink" width="256" zoomAndPan="magnify" viewBox="0 0 192 191.999996" height="256" preserveAspectRatio="xMidYMid meet" version="1.0"><defs><clipPath id="a4e3c79308"><path d="M 21 46 L 172.949219 46 L 172.949219 147 L 21 147 Z M 21 46 " clip-rule="nonzero"/></clipPath></defs><g clip-path="url(#a4e3c79308)"><path fill="#064088" d="M 155.421875 72.691406 C 155.191406 72.335938 154.890625 72.058594 154.519531 71.855469 C 154.148438 71.65625 153.75 71.554688 153.328125 71.558594 L 126.792969 71.558594 L 126.792969 64.824219 C 126.792969 64.488281 126.730469 64.167969 126.601562 63.859375 C 126.472656 63.550781 126.292969 63.277344 126.054688 63.039062 C 125.820312 62.804688 125.546875 62.621094 125.238281 62.492188 C 124.929688 62.367188 124.605469 62.300781 124.273438 62.300781 L 82.152344 62.300781 C 81.582031 61.308594 80.960938 60.351562 80.289062 59.421875 C 79.617188 58.496094 78.898438 57.609375 78.132812 56.757812 C 77.367188 55.90625 76.558594 55.101562 75.707031 54.335938 C 74.855469 53.570312 73.964844 52.851562 73.039062 52.179688 C 72.113281 51.511719 71.152344 50.890625 70.160156 50.320312 C 69.167969 49.75 68.148438 49.234375 67.101562 48.773438 C 66.054688 48.308594 64.984375 47.902344 63.894531 47.554688 C 62.804688 47.207031 61.699219 46.914062 60.578125 46.683594 C 59.457031 46.449219 58.328125 46.277344 57.191406 46.164062 C 56.050781 46.050781 54.910156 45.996094 53.765625 46.003906 C 52.621094 46.011719 51.480469 46.082031 50.34375 46.207031 C 49.203125 46.335938 48.078125 46.523438 46.960938 46.769531 C 45.84375 47.015625 44.742188 47.324219 43.65625 47.6875 C 42.570312 48.050781 41.507812 48.46875 40.464844 48.945312 C 39.425781 49.417969 38.414062 49.949219 37.425781 50.53125 C 36.441406 51.113281 35.492188 51.746094 34.570312 52.429688 C 33.652344 53.113281 32.773438 53.84375 31.933594 54.617188 C 31.09375 55.394531 30.292969 56.210938 29.539062 57.074219 C 28.785156 57.933594 28.078125 58.832031 27.417969 59.765625 C 26.757812 60.699219 26.148438 61.667969 25.589844 62.667969 C 25.03125 63.667969 24.527344 64.691406 24.078125 65.746094 C 23.628906 66.796875 23.238281 67.871094 22.902344 68.964844 C 22.566406 70.058594 22.289062 71.167969 22.066406 72.292969 C 21.847656 73.414062 21.691406 74.546875 21.589844 75.6875 C 21.492188 76.828125 21.453125 77.96875 21.472656 79.113281 C 21.492188 80.257812 21.574219 81.398438 21.71875 82.53125 C 21.859375 83.667969 22.058594 84.792969 22.320312 85.90625 C 22.582031 87.023438 22.898438 88.121094 23.273438 89.199219 C 23.652344 90.28125 24.082031 91.339844 24.570312 92.375 C 25.058594 93.410156 25.601562 94.417969 26.195312 95.394531 C 26.789062 96.371094 27.433594 97.316406 28.128906 98.226562 C 28.820312 99.136719 29.5625 100.007812 30.347656 100.839844 L 30.347656 133.855469 C 30.347656 134.1875 30.410156 134.511719 30.539062 134.820312 C 30.667969 135.128906 30.851562 135.402344 31.085938 135.636719 C 31.324219 135.875 31.597656 136.054688 31.90625 136.183594 C 32.214844 136.3125 32.535156 136.375 32.871094 136.375 L 41.167969 136.375 C 41.3125 137.101562 41.519531 137.808594 41.785156 138.5 C 42.054688 139.1875 42.378906 139.851562 42.757812 140.484375 C 43.140625 141.117188 43.574219 141.714844 44.058594 142.273438 C 44.539062 142.835938 45.070312 143.347656 45.640625 143.816406 C 46.210938 144.285156 46.820312 144.703125 47.464844 145.066406 C 48.109375 145.429688 48.777344 145.738281 49.476562 145.984375 C 50.171875 146.234375 50.882812 146.421875 51.613281 146.550781 C 52.34375 146.675781 53.078125 146.738281 53.816406 146.738281 C 54.554688 146.738281 55.289062 146.675781 56.019531 146.550781 C 56.746094 146.421875 57.460938 146.234375 58.15625 145.984375 C 58.855469 145.738281 59.523438 145.429688 60.167969 145.066406 C 60.8125 144.703125 61.417969 144.285156 61.992188 143.816406 C 62.5625 143.347656 63.09375 142.835938 63.574219 142.273438 C 64.058594 141.714844 64.492188 141.117188 64.871094 140.484375 C 65.253906 139.851562 65.578125 139.1875 65.84375 138.5 C 66.113281 137.808594 66.320312 137.101562 66.464844 136.375 L 69.769531 136.375 C 69.914062 137.101562 70.121094 137.808594 70.386719 138.5 C 70.65625 139.1875 70.980469 139.851562 71.359375 140.484375 C 71.742188 141.117188 72.175781 141.714844 72.65625 142.273438 C 73.140625 142.835938 73.667969 143.347656 74.242188 143.816406 C 74.8125 144.285156 75.421875 144.703125 76.066406 145.066406 C 76.710938 145.429688 77.378906 145.738281 78.078125 145.984375 C 78.773438 146.234375 79.484375 146.421875 80.214844 146.550781 C 80.941406 146.675781 81.675781 146.738281 82.417969 146.738281 C 83.15625 146.738281 83.890625 146.675781 84.621094 146.550781 C 85.347656 146.421875 86.0625 146.234375 86.757812 145.984375 C 87.453125 145.738281 88.125 145.429688 88.769531 145.066406 C 89.414062 144.703125 90.019531 144.285156 90.59375 143.816406 C 91.164062 143.347656 91.691406 142.835938 92.175781 142.273438 C 92.660156 141.714844 93.09375 141.117188 93.472656 140.484375 C 93.855469 139.851562 94.179688 139.1875 94.445312 138.5 C 94.714844 137.808594 94.921875 137.101562 95.066406 136.375 L 124.273438 136.375 C 124.292969 136.375 124.308594 136.363281 124.324219 136.351562 L 134.613281 136.351562 C 134.757812 137.078125 134.960938 137.785156 135.226562 138.476562 C 135.492188 139.171875 135.816406 139.832031 136.195312 140.46875 C 136.578125 141.105469 137.007812 141.703125 137.492188 142.265625 C 137.976562 142.828125 138.503906 143.34375 139.074219 143.8125 C 139.648438 144.28125 140.257812 144.699219 140.902344 145.066406 C 141.546875 145.433594 142.214844 145.738281 142.914062 145.988281 C 143.609375 146.238281 144.324219 146.425781 145.054688 146.554688 C 145.785156 146.679688 146.519531 146.746094 147.261719 146.746094 C 148 146.746094 148.738281 146.679688 149.46875 146.554688 C 150.195312 146.425781 150.910156 146.238281 151.609375 145.988281 C 152.304688 145.738281 152.976562 145.433594 153.621094 145.066406 C 154.265625 144.699219 154.875 144.28125 155.445312 143.8125 C 156.019531 143.34375 156.546875 142.828125 157.03125 142.265625 C 157.515625 141.703125 157.945312 141.105469 158.324219 140.46875 C 158.707031 139.832031 159.03125 139.171875 159.296875 138.476562 C 159.5625 137.785156 159.765625 137.078125 159.910156 136.351562 L 170.277344 136.351562 C 170.609375 136.351562 170.933594 136.285156 171.242188 136.160156 C 171.550781 136.03125 171.824219 135.847656 172.058594 135.613281 C 172.296875 135.375 172.476562 135.101562 172.605469 134.792969 C 172.734375 134.484375 172.796875 134.164062 172.796875 133.828125 L 172.796875 99.324219 C 172.796875 98.8125 172.652344 98.34375 172.367188 97.914062 Z M 109.820312 115.820312 L 109.820312 105.882812 C 109.820312 105.550781 109.882812 105.226562 110.011719 104.917969 C 110.140625 104.609375 110.324219 104.335938 110.558594 104.101562 C 110.796875 103.863281 111.066406 103.679688 111.378906 103.554688 C 111.6875 103.425781 112.007812 103.363281 112.34375 103.363281 C 112.675781 103.363281 113 103.425781 113.308594 103.554688 C 113.617188 103.679688 113.890625 103.863281 114.125 104.101562 C 114.363281 104.335938 114.542969 104.609375 114.671875 104.917969 C 114.800781 105.226562 114.863281 105.550781 114.863281 105.882812 L 114.863281 115.820312 C 114.863281 116.15625 114.800781 116.476562 114.671875 116.785156 C 114.542969 117.09375 114.363281 117.367188 114.125 117.605469 C 113.890625 117.839844 113.617188 118.023438 113.308594 118.152344 C 113 118.277344 112.675781 118.34375 112.34375 118.34375 C 112.007812 118.34375 111.6875 118.277344 111.378906 118.152344 C 111.066406 118.023438 110.796875 117.839844 110.558594 117.605469 C 110.324219 117.367188 110.140625 117.09375 110.011719 116.785156 C 109.882812 116.476562 109.820312 116.15625 109.820312 115.820312 Z M 114.863281 94.382812 C 114.863281 94.71875 114.800781 95.039062 114.671875 95.347656 C 114.542969 95.65625 114.363281 95.929688 114.125 96.167969 C 113.890625 96.402344 113.617188 96.585938 113.308594 96.710938 C 113 96.839844 112.675781 96.90625 112.34375 96.90625 C 112.007812 96.90625 111.6875 96.839844 111.378906 96.710938 C 111.066406 96.585938 110.796875 96.402344 110.558594 96.167969 C 110.324219 95.929688 110.140625 95.65625 110.011719 95.347656 C 109.882812 95.039062 109.820312 94.71875 109.820312 94.382812 L 109.820312 90.597656 C 109.820312 90.265625 109.882812 89.945312 110.011719 89.632812 C 110.140625 89.324219 110.324219 89.050781 110.558594 88.816406 C 110.796875 88.578125 111.066406 88.398438 111.378906 88.269531 C 111.6875 88.140625 112.007812 88.078125 112.34375 88.078125 C 112.675781 88.078125 113 88.140625 113.308594 88.269531 C 113.617188 88.398438 113.890625 88.578125 114.125 88.816406 C 114.363281 89.050781 114.542969 89.324219 114.671875 89.632812 C 114.800781 89.945312 114.863281 90.265625 114.863281 90.597656 Z M 26.515625 78.570312 C 26.515625 77.667969 26.558594 76.769531 26.644531 75.871094 C 26.734375 74.976562 26.863281 74.085938 27.039062 73.203125 C 27.214844 72.316406 27.433594 71.445312 27.695312 70.582031 C 27.957031 69.722656 28.257812 68.875 28.605469 68.039062 C 28.949219 67.207031 29.332031 66.394531 29.757812 65.601562 C 30.179688 64.804688 30.644531 64.035156 31.144531 63.285156 C 31.644531 62.535156 32.179688 61.8125 32.75 61.113281 C 33.324219 60.417969 33.925781 59.75 34.5625 59.113281 C 35.199219 58.476562 35.867188 57.871094 36.5625 57.300781 C 37.261719 56.730469 37.984375 56.191406 38.730469 55.691406 C 39.480469 55.191406 40.253906 54.726562 41.046875 54.304688 C 41.839844 53.878906 42.65625 53.492188 43.488281 53.148438 C 44.320312 52.804688 45.167969 52.5 46.027344 52.238281 C 46.890625 51.976562 47.761719 51.757812 48.648438 51.582031 C 49.53125 51.40625 50.421875 51.273438 51.316406 51.183594 C 52.214844 51.097656 53.113281 51.050781 54.015625 51.050781 C 54.914062 51.050781 55.8125 51.097656 56.710938 51.183594 C 57.605469 51.273438 58.496094 51.40625 59.378906 51.582031 C 60.265625 51.757812 61.136719 51.976562 62 52.234375 C 62.863281 52.496094 63.707031 52.800781 64.542969 53.144531 C 65.375 53.488281 66.1875 53.875 66.980469 54.300781 C 67.777344 54.722656 68.546875 55.1875 69.296875 55.6875 C 70.046875 56.1875 70.769531 56.722656 71.464844 57.296875 C 72.164062 57.867188 72.828125 58.472656 73.464844 59.109375 C 74.101562 59.746094 74.707031 60.414062 75.277344 61.109375 C 75.851562 61.804688 76.386719 62.527344 76.886719 63.277344 C 77.386719 64.027344 77.851562 64.796875 78.273438 65.59375 C 78.699219 66.386719 79.085938 67.199219 79.429688 68.03125 C 79.773438 68.867188 80.078125 69.710938 80.339844 70.574219 C 80.601562 71.4375 80.816406 72.308594 80.992188 73.195312 C 81.167969 74.078125 81.300781 74.96875 81.390625 75.863281 C 81.476562 76.761719 81.523438 77.660156 81.523438 78.5625 C 81.523438 79.460938 81.476562 80.359375 81.390625 81.257812 C 81.300781 82.152344 81.167969 83.042969 80.992188 83.925781 C 80.816406 84.8125 80.597656 85.683594 80.335938 86.546875 C 80.074219 87.40625 79.769531 88.253906 79.425781 89.085938 C 79.082031 89.917969 78.695312 90.734375 78.269531 91.527344 C 77.847656 92.320312 77.382812 93.09375 76.882812 93.84375 C 76.382812 94.59375 75.84375 95.3125 75.273438 96.011719 C 74.703125 96.707031 74.097656 97.375 73.460938 98.011719 C 72.824219 98.648438 72.15625 99.25 71.460938 99.824219 C 70.761719 100.394531 70.039062 100.929688 69.289062 101.429688 C 68.542969 101.929688 67.769531 102.394531 66.972656 102.816406 C 66.179688 103.242188 65.367188 103.625 64.535156 103.96875 C 63.699219 104.316406 62.855469 104.617188 61.992188 104.878906 C 61.128906 105.140625 60.257812 105.359375 59.371094 105.535156 C 58.488281 105.710938 57.597656 105.839844 56.703125 105.929688 C 55.804688 106.015625 54.90625 106.0625 54.003906 106.058594 C 53.105469 106.058594 52.207031 106.015625 51.3125 105.925781 C 50.417969 105.835938 49.527344 105.703125 48.644531 105.527344 C 47.761719 105.347656 46.890625 105.128906 46.03125 104.867188 C 45.167969 104.605469 44.320312 104.300781 43.492188 103.957031 C 42.660156 103.613281 41.847656 103.226562 41.054688 102.804688 C 40.261719 102.378906 39.488281 101.914062 38.742188 101.414062 C 37.992188 100.914062 37.269531 100.378906 36.574219 99.808594 C 35.878906 99.238281 35.214844 98.632812 34.578125 97.996094 C 33.941406 97.359375 33.335938 96.695312 32.765625 96 C 32.195312 95.304688 31.660156 94.582031 31.160156 93.832031 C 30.660156 93.085938 30.195312 92.3125 29.769531 91.519531 C 29.347656 90.726562 28.960938 89.914062 28.617188 89.082031 C 28.273438 88.253906 27.96875 87.40625 27.707031 86.546875 C 27.445312 85.683594 27.226562 84.8125 27.046875 83.929688 C 26.871094 83.046875 26.738281 82.15625 26.648438 81.261719 C 26.5625 80.367188 26.515625 79.46875 26.515625 78.570312 Z M 59.378906 139.402344 C 58.828125 139.953125 58.207031 140.410156 57.523438 140.773438 C 56.835938 141.140625 56.113281 141.398438 55.347656 141.550781 C 54.585938 141.699219 53.816406 141.738281 53.042969 141.660156 C 52.269531 141.582031 51.523438 141.394531 50.808594 141.097656 C 50.089844 140.800781 49.429688 140.402344 48.828125 139.910156 C 48.226562 139.414062 47.710938 138.84375 47.28125 138.199219 C 46.851562 137.550781 46.523438 136.855469 46.296875 136.113281 C 46.070312 135.367188 45.960938 134.605469 45.960938 133.828125 C 45.953125 132.769531 46.15625 131.753906 46.566406 130.777344 C 46.742188 130.363281 46.949219 129.964844 47.195312 129.585938 C 47.4375 129.210938 47.714844 128.855469 48.019531 128.523438 C 48.324219 128.191406 48.652344 127.890625 49.011719 127.613281 C 49.367188 127.339844 49.746094 127.097656 50.144531 126.890625 C 50.542969 126.679688 50.957031 126.503906 51.382812 126.367188 C 51.8125 126.226562 52.25 126.125 52.695312 126.0625 C 53.140625 126 53.589844 125.976562 54.039062 125.988281 C 54.488281 126 54.933594 126.054688 55.375 126.144531 C 55.816406 126.234375 56.246094 126.359375 56.667969 126.523438 C 57.085938 126.6875 57.488281 126.886719 57.875 127.117188 C 58.257812 127.351562 58.621094 127.613281 58.960938 127.910156 C 59.300781 128.203125 59.613281 128.527344 59.898438 128.875 C 60.183594 129.222656 60.4375 129.59375 60.660156 129.988281 C 60.878906 130.378906 61.066406 130.789062 61.214844 131.210938 C 61.367188 131.636719 61.480469 132.070312 61.558594 132.511719 C 61.632812 132.957031 61.671875 133.402344 61.671875 133.855469 C 61.671875 134.894531 61.476562 135.894531 61.078125 136.855469 C 60.679688 137.820312 60.113281 138.667969 59.378906 139.402344 Z M 90.273438 133.878906 C 90.273438 134.394531 90.222656 134.90625 90.121094 135.410156 C 90.023438 135.917969 89.871094 136.410156 89.675781 136.886719 C 89.476562 137.363281 89.234375 137.816406 88.949219 138.242188 C 88.664062 138.671875 88.335938 139.070312 87.972656 139.433594 C 87.609375 139.800781 87.210938 140.125 86.78125 140.410156 C 86.351562 140.699219 85.898438 140.941406 85.421875 141.136719 C 84.945312 141.335938 84.457031 141.484375 83.949219 141.585938 C 83.445312 141.683594 82.933594 141.734375 82.417969 141.734375 C 81.902344 141.734375 81.390625 141.683594 80.882812 141.585938 C 80.378906 141.484375 79.886719 141.335938 79.410156 141.136719 C 78.933594 140.941406 78.480469 140.699219 78.050781 140.410156 C 77.625 140.125 77.226562 139.800781 76.863281 139.433594 C 76.496094 139.070312 76.171875 138.671875 75.882812 138.242188 C 75.597656 137.816406 75.355469 137.363281 75.160156 136.886719 C 74.960938 136.410156 74.8125 135.917969 74.710938 135.410156 C 74.609375 134.90625 74.5625 134.394531 74.5625 133.878906 L 74.5625 133.855469 C 74.5625 133.339844 74.609375 132.828125 74.710938 132.320312 C 74.8125 131.816406 74.960938 131.324219 75.160156 130.847656 C 75.355469 130.371094 75.597656 129.917969 75.882812 129.488281 C 76.171875 129.058594 76.496094 128.664062 76.863281 128.296875 C 77.226562 127.933594 77.625 127.609375 78.050781 127.320312 C 78.480469 127.035156 78.933594 126.792969 79.410156 126.59375 C 79.886719 126.398438 80.378906 126.25 80.882812 126.148438 C 81.390625 126.046875 81.902344 125.996094 82.417969 125.996094 C 82.933594 125.996094 83.445312 126.046875 83.949219 126.148438 C 84.457031 126.25 84.945312 126.398438 85.421875 126.59375 C 85.898438 126.792969 86.351562 127.035156 86.78125 127.320312 C 87.210938 127.609375 87.609375 127.933594 87.972656 128.296875 C 88.335938 128.664062 88.664062 129.058594 88.949219 129.488281 C 89.234375 129.917969 89.476562 130.371094 89.675781 130.847656 C 89.871094 131.324219 90.023438 131.816406 90.121094 132.320312 C 90.222656 132.828125 90.273438 133.339844 90.273438 133.855469 Z M 147.273438 141.699219 C 146.757812 141.699219 146.246094 141.648438 145.742188 141.550781 C 145.234375 141.449219 144.742188 141.300781 144.265625 141.105469 C 143.789062 140.90625 143.335938 140.667969 142.90625 140.378906 C 142.476562 140.09375 142.078125 139.769531 141.714844 139.40625 C 141.347656 139.042969 141.023438 138.644531 140.734375 138.214844 C 140.449219 137.789062 140.207031 137.335938 140.007812 136.859375 C 139.808594 136.382812 139.660156 135.890625 139.558594 135.386719 C 139.457031 134.878906 139.40625 134.371094 139.40625 133.855469 C 139.402344 133.339844 139.453125 132.828125 139.554688 132.320312 C 139.652344 131.816406 139.800781 131.324219 139.996094 130.847656 C 140.195312 130.371094 140.4375 129.917969 140.722656 129.488281 C 141.007812 129.058594 141.332031 128.660156 141.695312 128.296875 C 142.0625 127.929688 142.457031 127.601562 142.886719 127.316406 C 143.3125 127.027344 143.765625 126.785156 144.242188 126.585938 C 144.71875 126.390625 145.210938 126.238281 145.714844 126.136719 C 146.222656 126.035156 146.734375 125.984375 147.25 125.984375 C 147.765625 125.984375 148.273438 126.035156 148.78125 126.132812 C 149.289062 126.234375 149.777344 126.382812 150.257812 126.578125 C 150.734375 126.773438 151.1875 127.015625 151.617188 127.300781 C 152.042969 127.589844 152.441406 127.914062 152.808594 128.277344 C 153.171875 128.640625 153.5 129.039062 153.785156 129.464844 C 154.074219 129.894531 154.316406 130.347656 154.515625 130.824219 C 154.710938 131.300781 154.863281 131.789062 154.964844 132.296875 C 155.066406 132.800781 155.117188 133.3125 155.117188 133.828125 C 155.117188 134.34375 155.066406 134.855469 154.964844 135.359375 C 154.863281 135.867188 154.714844 136.355469 154.519531 136.832031 C 154.320312 137.308594 154.078125 137.761719 153.792969 138.191406 C 153.507812 138.621094 153.183594 139.015625 152.820312 139.382812 C 152.453125 139.746094 152.058594 140.074219 151.632812 140.359375 C 151.203125 140.648438 150.75 140.890625 150.277344 141.089844 C 149.800781 141.289062 149.308594 141.4375 148.804688 141.539062 C 148.300781 141.644531 147.789062 141.695312 147.273438 141.699219 Z M 167.753906 131.308594 L 159.933594 131.308594 C 159.917969 131.308594 159.910156 131.296875 159.910156 131.28125 C 159.882812 131.15625 159.832031 131.027344 159.808594 130.902344 C 159.660156 130.246094 159.457031 129.609375 159.203125 128.988281 C 159.101562 128.734375 158.976562 128.507812 158.851562 128.253906 C 158.636719 127.785156 158.394531 127.332031 158.117188 126.894531 C 157.941406 126.640625 157.765625 126.414062 157.5625 126.160156 C 157.28125 125.773438 156.980469 125.40625 156.65625 125.050781 C 156.449219 124.820312 156.230469 124.601562 156 124.394531 C 155.648438 124.070312 155.277344 123.769531 154.890625 123.488281 L 154.132812 122.957031 C 153.707031 122.707031 153.277344 122.480469 152.847656 122.253906 C 152.570312 122.125 152.316406 122 152.015625 121.875 C 151.515625 121.671875 151.003906 121.511719 150.476562 121.394531 C 150.230469 121.3125 149.976562 121.246094 149.71875 121.191406 C 148.914062 121.03125 148.097656 120.945312 147.273438 120.941406 C 146.441406 120.949219 145.617188 121.03125 144.800781 121.191406 C 144.550781 121.242188 144.296875 121.320312 144.046875 121.394531 C 143.519531 121.515625 143.007812 121.675781 142.507812 121.875 L 141.675781 122.253906 C 141.246094 122.480469 140.816406 122.707031 140.414062 122.957031 C 140.136719 123.136719 139.882812 123.3125 139.632812 123.488281 C 139.246094 123.761719 138.886719 124.066406 138.546875 124.394531 C 138.308594 124.601562 138.082031 124.820312 137.867188 125.050781 C 137.542969 125.40625 137.238281 125.773438 136.957031 126.160156 C 136.765625 126.394531 136.589844 126.636719 136.429688 126.894531 C 136.140625 127.328125 135.890625 127.78125 135.671875 128.253906 C 135.546875 128.507812 135.417969 128.734375 135.320312 128.988281 C 135.0625 129.617188 134.863281 130.265625 134.714844 130.929688 C 134.6875 131.054688 134.636719 131.15625 134.613281 131.28125 C 134.613281 131.296875 134.605469 131.308594 134.585938 131.308594 L 126.792969 131.308594 L 126.792969 76.601562 L 151.988281 76.601562 L 167.753906 100.082031 Z M 167.753906 131.308594 " fill-opacity="1" fill-rule="nonzero"/></g><path fill="#064088" d="M 56.527344 96.695312 L 56.527344 95.273438 L 58.796875 98.449219 C 58.988281 98.726562 59.226562 98.957031 59.511719 99.140625 C 59.796875 99.324219 60.105469 99.441406 60.4375 99.5 C 60.769531 99.558594 61.101562 99.550781 61.429688 99.476562 C 61.757812 99.402344 62.058594 99.265625 62.335938 99.070312 C 62.609375 98.875 62.835938 98.632812 63.015625 98.347656 C 63.191406 98.0625 63.308594 97.75 63.363281 97.417969 C 63.414062 97.085938 63.402344 96.753906 63.324219 96.425781 C 63.246094 96.097656 63.105469 95.796875 62.90625 95.523438 L 56.527344 86.585938 L 56.527344 83.234375 L 59.328125 85.070312 L 63.304688 95.308594 C 63.429688 95.613281 63.609375 95.886719 63.839844 96.121094 C 64.070312 96.355469 64.339844 96.539062 64.644531 96.667969 C 64.945312 96.800781 65.261719 96.867188 65.59375 96.875 C 65.925781 96.878906 66.242188 96.824219 66.550781 96.703125 C 66.859375 96.582031 67.132812 96.410156 67.375 96.183594 C 67.613281 95.957031 67.800781 95.691406 67.9375 95.390625 C 68.074219 95.089844 68.148438 94.773438 68.160156 94.441406 C 68.171875 94.113281 68.121094 93.792969 68.003906 93.480469 L 66.589844 89.84375 L 67.777344 90.621094 C 68.058594 90.804688 68.363281 90.929688 68.691406 90.992188 C 69.019531 91.054688 69.347656 91.050781 69.675781 90.984375 C 70.003906 90.917969 70.304688 90.789062 70.582031 90.601562 C 70.859375 90.414062 71.089844 90.179688 71.273438 89.902344 C 71.457031 89.621094 71.582031 89.316406 71.644531 88.988281 C 71.707031 88.660156 71.703125 88.332031 71.636719 88.003906 C 71.570312 87.675781 71.441406 87.375 71.253906 87.097656 C 71.066406 86.820312 70.832031 86.589844 70.554688 86.40625 L 69.363281 85.625 L 73.265625 85.476562 C 73.601562 85.464844 73.917969 85.386719 74.222656 85.25 C 74.527344 85.109375 74.792969 84.917969 75.019531 84.671875 C 75.246094 84.425781 75.417969 84.148438 75.535156 83.832031 C 75.652344 83.519531 75.703125 83.195312 75.691406 82.863281 C 75.683594 82.527344 75.609375 82.207031 75.46875 81.898438 C 75.332031 81.59375 75.140625 81.324219 74.890625 81.097656 C 74.644531 80.871094 74.363281 80.699219 74.050781 80.585938 C 73.734375 80.46875 73.40625 80.421875 73.074219 80.4375 L 62.105469 80.855469 L 58.808594 78.695312 L 62.21875 76.71875 L 73.148438 77.75 C 73.226562 77.757812 73.308594 77.761719 73.386719 77.761719 C 73.722656 77.777344 74.046875 77.726562 74.363281 77.613281 C 74.675781 77.5 74.957031 77.332031 75.203125 77.105469 C 75.453125 76.878906 75.648438 76.617188 75.789062 76.3125 C 75.929688 76.011719 76.011719 75.691406 76.027344 75.355469 C 76.042969 75.023438 75.992188 74.699219 75.878906 74.382812 C 75.765625 74.070312 75.597656 73.789062 75.371094 73.539062 C 75.144531 73.292969 74.882812 73.097656 74.578125 72.953125 C 74.277344 72.8125 73.957031 72.734375 73.621094 72.71875 L 69.734375 72.347656 L 70.964844 71.636719 C 71.269531 71.480469 71.53125 71.265625 71.746094 71 C 71.964844 70.734375 72.121094 70.4375 72.21875 70.105469 C 72.3125 69.777344 72.339844 69.441406 72.296875 69.097656 C 72.257812 68.757812 72.152344 68.4375 71.980469 68.140625 C 71.808594 67.84375 71.582031 67.589844 71.308594 67.386719 C 71.035156 67.179688 70.730469 67.035156 70.394531 66.953125 C 70.0625 66.871094 69.726562 66.859375 69.386719 66.914062 C 69.046875 66.96875 68.730469 67.089844 68.441406 67.273438 L 67.214844 67.984375 L 68.828125 64.433594 C 68.964844 64.128906 69.039062 63.8125 69.050781 63.476562 C 69.0625 63.144531 69.007812 62.820312 68.890625 62.507812 C 68.773438 62.195312 68.601562 61.914062 68.375 61.671875 C 68.144531 61.425781 67.878906 61.234375 67.574219 61.097656 C 67.269531 60.957031 66.949219 60.882812 66.617188 60.871094 C 66.28125 60.859375 65.960938 60.914062 65.644531 61.03125 C 65.332031 61.148438 65.054688 61.320312 64.808594 61.546875 C 64.566406 61.777344 64.375 62.042969 64.234375 62.347656 L 59.695312 72.34375 L 56.527344 74.179688 L 56.527344 70.535156 L 62.902344 61.59375 C 63.113281 61.324219 63.261719 61.023438 63.351562 60.691406 C 63.4375 60.359375 63.457031 60.019531 63.40625 59.679688 C 63.359375 59.339844 63.242188 59.023438 63.0625 58.730469 C 62.886719 58.4375 62.65625 58.191406 62.375 57.992188 C 62.097656 57.792969 61.789062 57.65625 61.453125 57.582031 C 61.117188 57.507812 60.78125 57.503906 60.441406 57.566406 C 60.105469 57.628906 59.792969 57.757812 59.507812 57.949219 C 59.222656 58.140625 58.984375 58.382812 58.796875 58.667969 L 56.527344 61.847656 L 56.527344 60.425781 C 56.527344 60.089844 56.464844 59.769531 56.335938 59.460938 C 56.207031 59.152344 56.023438 58.878906 55.789062 58.640625 C 55.550781 58.40625 55.28125 58.222656 54.96875 58.09375 C 54.660156 57.964844 54.339844 57.902344 54.003906 57.902344 C 53.671875 57.902344 53.347656 57.964844 53.039062 58.09375 C 52.730469 58.222656 52.457031 58.40625 52.222656 58.640625 C 51.984375 58.878906 51.804688 59.152344 51.675781 59.460938 C 51.546875 59.769531 51.484375 60.089844 51.484375 60.425781 L 51.484375 61.847656 L 49.214844 58.667969 C 49.019531 58.390625 48.785156 58.160156 48.5 57.980469 C 48.214844 57.796875 47.90625 57.679688 47.574219 57.621094 C 47.242188 57.5625 46.910156 57.570312 46.582031 57.644531 C 46.253906 57.71875 45.949219 57.855469 45.675781 58.050781 C 45.402344 58.246094 45.175781 58.488281 44.996094 58.773438 C 44.820312 59.058594 44.703125 59.371094 44.648438 59.703125 C 44.59375 60.035156 44.609375 60.367188 44.6875 60.695312 C 44.765625 61.023438 44.90625 61.324219 45.105469 61.59375 L 51.484375 70.535156 L 51.484375 73.886719 L 48.683594 72.050781 L 44.714844 61.820312 C 44.589844 61.515625 44.414062 61.246094 44.179688 61.011719 C 43.949219 60.773438 43.683594 60.589844 43.378906 60.460938 C 43.074219 60.332031 42.757812 60.261719 42.425781 60.257812 C 42.097656 60.25 41.777344 60.308594 41.46875 60.425781 C 41.160156 60.546875 40.886719 60.71875 40.648438 60.949219 C 40.40625 61.175781 40.21875 61.4375 40.082031 61.738281 C 39.949219 62.042969 39.875 62.355469 39.863281 62.6875 C 39.851562 63.019531 39.902344 63.339844 40.015625 63.648438 L 41.425781 67.285156 L 40.238281 66.503906 C 39.960938 66.320312 39.65625 66.199219 39.328125 66.136719 C 39 66.074219 38.671875 66.074219 38.34375 66.140625 C 38.015625 66.210938 37.710938 66.335938 37.433594 66.527344 C 37.160156 66.714844 36.929688 66.949219 36.742188 67.226562 C 36.558594 67.507812 36.4375 67.8125 36.375 68.140625 C 36.3125 68.46875 36.3125 68.796875 36.378906 69.125 C 36.449219 69.453125 36.574219 69.753906 36.765625 70.03125 C 36.953125 70.308594 37.1875 70.539062 37.464844 70.722656 L 38.652344 71.503906 L 34.753906 71.652344 C 34.417969 71.65625 34.097656 71.726562 33.792969 71.859375 C 33.484375 71.996094 33.214844 72.183594 32.984375 72.421875 C 32.753906 72.664062 32.574219 72.941406 32.453125 73.25 C 32.332031 73.5625 32.273438 73.886719 32.277344 74.21875 C 32.285156 74.554688 32.355469 74.875 32.488281 75.179688 C 32.621094 75.488281 32.808594 75.757812 33.050781 75.988281 C 33.292969 76.222656 33.566406 76.398438 33.878906 76.519531 C 34.191406 76.644531 34.511719 76.703125 34.847656 76.695312 L 34.945312 76.695312 L 45.914062 76.277344 L 49.214844 78.429688 L 45.804688 80.402344 L 34.875 79.371094 C 34.539062 79.332031 34.210938 79.359375 33.890625 79.457031 C 33.566406 79.550781 33.277344 79.707031 33.019531 79.921875 C 32.757812 80.132812 32.550781 80.390625 32.398438 80.691406 C 32.242188 80.988281 32.152344 81.304688 32.128906 81.640625 C 32.097656 81.972656 32.128906 82.300781 32.230469 82.617188 C 32.328125 82.9375 32.484375 83.226562 32.695312 83.484375 C 32.90625 83.742188 33.160156 83.949219 33.457031 84.105469 C 33.753906 84.261719 34.066406 84.355469 34.398438 84.386719 L 38.289062 84.753906 L 37.054688 85.46875 C 36.8125 85.609375 36.601562 85.78125 36.421875 85.992188 C 36.238281 86.199219 36.09375 86.433594 35.988281 86.6875 C 35.882812 86.945312 35.820312 87.210938 35.804688 87.488281 C 35.785156 87.765625 35.8125 88.035156 35.882812 88.304688 C 35.957031 88.570312 36.066406 88.820312 36.222656 89.050781 C 36.375 89.28125 36.5625 89.480469 36.78125 89.652344 C 37.003906 89.820312 37.242188 89.949219 37.507812 90.039062 C 37.769531 90.128906 38.039062 90.171875 38.316406 90.171875 C 38.765625 90.175781 39.1875 90.058594 39.578125 89.832031 L 40.804688 89.121094 L 39.191406 92.675781 C 39.054688 92.980469 38.980469 93.300781 38.96875 93.632812 C 38.957031 93.96875 39.011719 94.292969 39.128906 94.605469 C 39.246094 94.917969 39.421875 95.195312 39.652344 95.441406 C 39.878906 95.683594 40.148438 95.875 40.453125 96.011719 C 40.78125 96.164062 41.128906 96.238281 41.492188 96.238281 C 41.988281 96.238281 42.445312 96.105469 42.863281 95.835938 C 43.277344 95.570312 43.589844 95.210938 43.792969 94.757812 L 48.332031 84.761719 L 51.488281 82.933594 L 51.488281 86.582031 L 45.113281 95.523438 C 44.914062 95.792969 44.777344 96.09375 44.695312 96.421875 C 44.617188 96.75 44.605469 97.082031 44.660156 97.414062 C 44.710938 97.75 44.828125 98.058594 45.007812 98.34375 C 45.183594 98.632812 45.410156 98.871094 45.6875 99.070312 C 45.960938 99.265625 46.261719 99.398438 46.59375 99.472656 C 46.921875 99.546875 47.253906 99.554688 47.585938 99.5 C 47.917969 99.441406 48.226562 99.320312 48.507812 99.136719 C 48.792969 98.957031 49.03125 98.726562 49.222656 98.449219 L 51.492188 95.269531 L 51.492188 96.691406 C 51.492188 97.027344 51.558594 97.347656 51.683594 97.65625 C 51.8125 97.96875 51.996094 98.238281 52.230469 98.476562 C 52.46875 98.714844 52.742188 98.894531 53.050781 99.023438 C 53.359375 99.152344 53.679688 99.214844 54.015625 99.214844 C 54.351562 99.214844 54.671875 99.152344 54.980469 99.023438 C 55.289062 98.894531 55.5625 98.714844 55.800781 98.476562 C 56.035156 98.238281 56.21875 97.96875 56.34375 97.65625 C 56.472656 97.347656 56.539062 97.027344 56.539062 96.691406 Z M 56.527344 96.695312 " fill-opacity="1" fill-rule="nonzero"/></svg>