<svg xmlns="http://www.w3.org/2000/svg" xmlns:xlink="http://www.w3.org/1999/xlink" width="256" zoomAndPan="magnify" viewBox="0 0 192 191.999996" height="256" preserveAspectRatio="xMidYMid meet" version="1.0"><defs><clipPath id="1766a4cae2"><path d="M 39.421875 39 L 87 39 L 87 152 L 39.421875 152 Z M 39.421875 39 " clip-rule="nonzero"/></clipPath><clipPath id="2d1fa30fe8"><path d="M 56 96 L 152.671875 96 L 152.671875 144 L 56 144 Z M 56 96 " clip-rule="nonzero"/></clipPath><clipPath id="23524edf42"><path d="M 97 37.292969 L 137 37.292969 L 137 78 L 97 78 Z M 97 37.292969 " clip-rule="nonzero"/></clipPath></defs><g clip-path="url(#1766a4cae2)"><path fill="#064088" d="M 85.070312 39.890625 L 41.371094 39.890625 C 41.160156 39.890625 40.957031 39.933594 40.765625 40.011719 C 40.570312 40.09375 40.398438 40.207031 40.246094 40.355469 C 40.097656 40.507812 39.984375 40.679688 39.902344 40.875 C 39.820312 41.066406 39.78125 41.269531 39.78125 41.480469 L 39.78125 149.8125 C 39.78125 150.089844 39.835938 150.359375 39.941406 150.613281 C 40.046875 150.871094 40.199219 151.097656 40.394531 151.296875 C 40.59375 151.492188 40.820312 151.644531 41.074219 151.75 C 41.332031 151.855469 41.601562 151.910156 41.878906 151.910156 L 51.980469 151.910156 C 52.261719 151.910156 52.527344 151.855469 52.785156 151.75 C 53.042969 151.644531 53.269531 151.492188 53.464844 151.296875 C 53.660156 151.097656 53.8125 150.871094 53.917969 150.613281 C 54.027344 150.359375 54.078125 150.089844 54.078125 149.8125 L 54.078125 57.113281 C 54.078125 56.96875 54.105469 56.832031 54.164062 56.699219 C 54.21875 56.566406 54.296875 56.449219 54.398438 56.347656 C 54.5 56.246094 54.617188 56.167969 54.75 56.113281 C 54.878906 56.058594 55.019531 56.03125 55.160156 56.03125 L 86.660156 56.03125 L 86.660156 41.480469 C 86.660156 41.269531 86.621094 41.066406 86.539062 40.875 C 86.457031 40.679688 86.34375 40.507812 86.195312 40.355469 C 86.042969 40.207031 85.871094 40.09375 85.675781 40.011719 C 85.484375 39.933594 85.28125 39.890625 85.070312 39.890625 Z M 85.070312 39.890625 " fill-opacity="1" fill-rule="nonzero"/></g><path fill="#064088" d="M 56.246094 58.195312 L 86.660156 58.195312 L 86.660156 94.828125 L 56.246094 94.828125 Z M 56.246094 58.195312 " fill-opacity="1" fill-rule="nonzero"/><path fill="#064088" d="M 79.988281 133.90625 C 66.242188 134.335938 66.246094 154.277344 79.988281 154.703125 C 93.726562 154.261719 93.726562 134.347656 79.988281 133.90625 Z M 79.988281 133.90625 " fill-opacity="1" fill-rule="nonzero"/><path fill="#064088" d="M 137.070312 133.90625 C 123.324219 134.335938 123.328125 154.277344 137.070312 154.703125 C 150.8125 154.277344 150.808594 134.332031 137.070312 133.90625 Z M 137.070312 133.90625 " fill-opacity="1" fill-rule="nonzero"/><g clip-path="url(#2d1fa30fe8)"><path fill="#064088" d="M 152.191406 124.289062 L 126.519531 124.289062 L 126.519531 122.125 L 151.605469 122.125 L 141.792969 105.421875 C 141.527344 104.976562 141.140625 104.75 140.621094 104.75 L 120.777344 104.75 L 120.777344 137.480469 L 118.613281 137.480469 L 118.613281 98.359375 C 118.613281 98.179688 118.578125 98.003906 118.507812 97.835938 C 118.4375 97.667969 118.339844 97.523438 118.210938 97.394531 C 118.085938 97.265625 117.9375 97.167969 117.769531 97.097656 C 117.601562 97.027344 117.429688 96.996094 117.246094 96.996094 L 56.246094 96.996094 L 56.246094 143.222656 L 67.488281 143.222656 C 69.113281 128.023438 90.867188 128.054688 92.488281 143.222656 L 124.570312 143.222656 C 124.636719 142.445312 124.773438 141.683594 124.980469 140.933594 C 125.1875 140.183594 125.464844 139.457031 125.808594 138.757812 C 126.152344 138.058594 126.554688 137.398438 127.023438 136.773438 C 127.488281 136.148438 128.007812 135.574219 128.582031 135.046875 C 129.15625 134.519531 129.773438 134.050781 130.433594 133.640625 C 131.097656 133.226562 131.789062 132.878906 132.515625 132.597656 C 133.242188 132.3125 133.988281 132.101562 134.753906 131.957031 C 135.519531 131.8125 136.289062 131.742188 137.070312 131.742188 C 137.847656 131.742188 138.621094 131.8125 139.386719 131.957031 C 140.152344 132.101562 140.898438 132.3125 141.621094 132.597656 C 142.347656 132.878906 143.042969 133.226562 143.703125 133.640625 C 144.363281 134.050781 144.980469 134.519531 145.554688 135.046875 C 146.128906 135.574219 146.648438 136.148438 147.113281 136.773438 C 147.582031 137.398438 147.988281 138.058594 148.328125 138.757812 C 148.671875 139.457031 148.949219 140.183594 149.15625 140.933594 C 149.363281 141.683594 149.503906 142.445312 149.566406 143.222656 L 151.0625 143.222656 C 151.242188 143.222656 151.417969 143.1875 151.585938 143.117188 C 151.75 143.046875 151.898438 142.949219 152.027344 142.820312 C 152.152344 142.691406 152.253906 142.546875 152.320312 142.378906 C 152.390625 142.210938 152.425781 142.039062 152.429688 141.859375 L 152.429688 124.527344 Z M 152.191406 124.289062 " fill-opacity="1" fill-rule="nonzero"/></g><path fill="#064088" d="M 138.511719 64.914062 C 138.507812 65.53125 138.476562 66.144531 138.417969 66.757812 C 138.355469 67.371094 138.265625 67.980469 138.144531 68.585938 C 138.023438 69.1875 137.875 69.785156 137.695312 70.375 C 137.515625 70.964844 137.308594 71.542969 137.070312 72.113281 C 136.835938 72.679688 136.574219 73.238281 136.28125 73.78125 C 135.992188 74.324219 135.675781 74.851562 135.332031 75.363281 C 134.988281 75.875 134.621094 76.371094 134.230469 76.847656 C 133.839844 77.320312 133.429688 77.777344 132.992188 78.214844 C 132.554688 78.648438 132.101562 79.0625 131.625 79.453125 C 131.148438 79.84375 130.652344 80.210938 130.140625 80.554688 C 129.628906 80.894531 129.101562 81.210938 128.558594 81.503906 C 128.015625 81.792969 127.460938 82.058594 126.890625 82.292969 C 126.320312 82.527344 125.742188 82.738281 125.152344 82.917969 C 124.5625 83.09375 123.964844 83.246094 123.363281 83.367188 C 122.757812 83.488281 122.148438 83.578125 121.535156 83.636719 C 120.921875 83.699219 120.308594 83.730469 119.691406 83.730469 C 118.277344 83.699219 116.046875 83.203125 115.984375 85.246094 L 115.984375 87.507812 L 106.863281 80.140625 L 115.984375 72.769531 L 115.984375 75.417969 C 116.035156 77.292969 118.296875 77.195312 119.691406 77.257812 C 120.503906 77.257812 121.304688 77.175781 122.097656 77.019531 C 122.894531 76.859375 123.664062 76.625 124.414062 76.3125 C 125.164062 76.003906 125.875 75.625 126.546875 75.171875 C 127.21875 74.722656 127.84375 74.210938 128.417969 73.636719 C 128.988281 73.066406 129.5 72.441406 129.953125 71.769531 C 130.402344 71.09375 130.78125 70.382812 131.09375 69.636719 C 131.402344 68.886719 131.636719 68.117188 131.796875 67.320312 C 131.957031 66.527344 132.035156 65.726562 132.035156 64.914062 L 128.789062 64.914062 C 128.785156 65.53125 128.722656 66.140625 128.597656 66.742188 C 128.472656 67.347656 128.289062 67.933594 128.046875 68.5 C 127.804688 69.066406 127.507812 69.601562 127.152344 70.105469 C 126.800781 70.613281 126.402344 71.078125 125.957031 71.5 C 125.507812 71.925781 125.023438 72.300781 124.5 72.628906 C 123.980469 72.953125 123.429688 73.222656 122.851562 73.4375 C 122.273438 73.652344 121.679688 73.808594 121.070312 73.902344 C 120.460938 73.996094 119.847656 74.027344 119.234375 73.996094 L 119.234375 69.367188 C 119.230469 69.054688 119.144531 68.769531 118.976562 68.507812 C 118.808594 68.246094 118.582031 68.046875 118.300781 67.914062 C 118.023438 67.78125 117.726562 67.730469 117.417969 67.765625 C 117.109375 67.796875 116.832031 67.910156 116.585938 68.105469 L 103.257812 78.875 C 103.070312 79.03125 102.921875 79.21875 102.816406 79.441406 C 102.714844 79.660156 102.660156 79.894531 102.660156 80.136719 C 102.660156 80.382812 102.714844 80.617188 102.816406 80.835938 C 102.921875 81.058594 103.070312 81.246094 103.257812 81.402344 L 116.585938 92.171875 C 116.832031 92.371094 117.109375 92.488281 117.417969 92.523438 C 117.730469 92.558594 118.027344 92.511719 118.308594 92.375 C 118.589844 92.242188 118.816406 92.042969 118.984375 91.777344 C 119.148438 91.511719 119.234375 91.222656 119.234375 90.910156 L 119.234375 86.976562 L 119.238281 86.96875 C 136.84375 87.554688 147.949219 67.128906 138.070312 52.710938 L 135.367188 54.511719 C 136.394531 56.050781 137.175781 57.707031 137.710938 59.480469 C 138.246094 61.25 138.511719 63.0625 138.511719 64.914062 Z M 138.511719 64.914062 " fill-opacity="1" fill-rule="nonzero"/><g clip-path="url(#23524edf42)"><path fill="#064088" d="M 103.984375 75.269531 C 95.671875 63.183594 105 45.820312 119.691406 46.097656 C 121.046875 46.109375 123.34375 46.664062 123.402344 44.582031 L 123.402344 42.320312 L 132.523438 49.691406 L 123.402344 57.058594 L 123.402344 54.410156 C 123.339844 52.519531 121.089844 52.636719 119.691406 52.570312 C 118.882812 52.574219 118.082031 52.652344 117.285156 52.8125 C 116.492188 52.96875 115.71875 53.203125 114.972656 53.515625 C 114.222656 53.824219 113.511719 54.207031 112.839844 54.65625 C 112.164062 55.105469 111.542969 55.617188 110.96875 56.191406 C 110.398438 56.765625 109.886719 57.386719 109.433594 58.0625 C 108.984375 58.734375 108.605469 59.445312 108.292969 60.195312 C 107.984375 60.941406 107.75 61.714844 107.589844 62.507812 C 107.429688 63.300781 107.351562 64.105469 107.351562 64.914062 L 110.601562 64.914062 C 110.601562 64.296875 110.664062 63.6875 110.789062 63.085938 C 110.914062 62.480469 111.097656 61.898438 111.339844 61.332031 C 111.585938 60.765625 111.882812 60.230469 112.234375 59.726562 C 112.585938 59.21875 112.984375 58.753906 113.433594 58.328125 C 113.878906 57.90625 114.363281 57.53125 114.886719 57.203125 C 115.410156 56.878906 115.957031 56.605469 116.535156 56.394531 C 117.113281 56.179688 117.707031 56.023438 118.316406 55.929688 C 118.925781 55.835938 119.535156 55.804688 120.152344 55.832031 L 120.152344 60.460938 C 120.15625 60.773438 120.242188 61.058594 120.410156 61.320312 C 120.578125 61.582031 120.800781 61.78125 121.082031 61.914062 C 121.363281 62.050781 121.65625 62.097656 121.96875 62.066406 C 122.277344 62.03125 122.554688 61.917969 122.796875 61.726562 L 136.128906 50.953125 C 136.320312 50.796875 136.464844 50.609375 136.570312 50.390625 C 136.675781 50.167969 136.726562 49.933594 136.726562 49.691406 C 136.726562 49.445312 136.675781 49.210938 136.570312 48.992188 C 136.464844 48.769531 136.320312 48.582031 136.128906 48.425781 L 122.796875 37.65625 C 122.554688 37.457031 122.277344 37.34375 121.964844 37.304688 C 121.65625 37.269531 121.359375 37.316406 121.078125 37.453125 C 120.792969 37.589844 120.570312 37.789062 120.402344 38.050781 C 120.234375 38.316406 120.152344 38.605469 120.152344 38.917969 L 120.152344 42.851562 L 120.144531 42.859375 C 102.574219 42.269531 91.460938 62.652344 101.273438 77.0625 Z M 103.984375 75.269531 " fill-opacity="1" fill-rule="nonzero"/></g></svg>