<svg xmlns="http://www.w3.org/2000/svg" xmlns:xlink="http://www.w3.org/1999/xlink" width="256" zoomAndPan="magnify" viewBox="0 0 192 191.999996" height="256" preserveAspectRatio="xMidYMid meet" version="1.0"><defs><clipPath id="a1b371f18e"><path d="M 9.601562 13.738281 L 182.101562 13.738281 L 182.101562 177.988281 L 9.601562 177.988281 Z M 9.601562 13.738281 " clip-rule="nonzero"/></clipPath><clipPath id="90536b5808"><path d="M 113.738281 49.632812 L 114.097656 49.632812 L 114.097656 49.914062 L 113.738281 49.914062 Z M 113.738281 49.632812 " clip-rule="nonzero"/></clipPath><clipPath id="e33b08601c"><path d="M 114.074219 49.800781 C 113.398438 50.101562 114 49.648438 114 49.648438 " clip-rule="nonzero"/></clipPath><clipPath id="3e54ffea54"><path d="M 0.738281 0.632812 L 1.097656 0.632812 L 1.097656 0.914062 L 0.738281 0.914062 Z M 0.738281 0.632812 " clip-rule="nonzero"/></clipPath><clipPath id="137990a8f0"><path d="M 1.074219 0.800781 C 0.398438 1.101562 1 0.648438 1 0.648438 " clip-rule="nonzero"/></clipPath><clipPath id="b7aebcc0cc"><rect x="0" width="2" y="0" height="1"/></clipPath></defs><g clip-path="url(#a1b371f18e)"><path fill="#000000" d="M 58.351562 61.515625 C 46.496094 71.957031 39.015625 87.246094 39.015625 104.289062 C 39.015625 114.660156 41.789062 124.386719 46.632812 132.765625 C 58.433594 153.179688 89.503906 146.640625 92.261719 123.21875 C 93.054688 116.496094 93.636719 110.507812 94.0625 105.539062 L 91.542969 107.410156 C 91.597656 106.316406 91.730469 105.09375 91.984375 103.742188 C 91.984375 103.742188 91.042969 105.613281 90.21875 108.398438 L 88.664062 109.558594 C 88.601562 108.039062 88.707031 106.21875 89.109375 104.0625 C 89.109375 104.0625 87.636719 106.988281 86.765625 110.972656 L 85.222656 112.121094 C 85.117188 110.519531 85.207031 108.5625 85.644531 106.199219 C 85.644531 106.199219 84.042969 109.386719 83.191406 113.632812 L 81.042969 115.234375 C 80.882812 113.542969 80.9375 111.417969 81.425781 108.800781 C 81.425781 108.800781 79.660156 112.304688 78.851562 116.867188 L 77.988281 117.507812 C 77.785156 115.761719 77.808594 113.519531 78.332031 110.703125 C 78.332031 110.703125 76.449219 114.445312 75.679688 119.226562 L 74.363281 120.207031 C 74.101562 118.402344 74.085938 116.023438 74.652344 112.972656 C 74.652344 112.972656 72.628906 116.996094 71.921875 122.027344 L 70.148438 123.34375 C 69.996094 121.664062 70.054688 119.554688 70.535156 116.957031 C 70.535156 116.957031 68.789062 120.433594 67.972656 124.96875 L 62.300781 129.191406 C 64.171875 111.109375 76.960938 104.367188 87.292969 101.894531 L 86.789062 101.9375 C 87.523438 100.859375 88.421875 99.710938 89.515625 98.5 C 89.515625 98.5 87.402344 99.804688 84.835938 102.109375 L 82.539062 102.308594 C 83.421875 100.738281 84.667969 98.964844 86.414062 97.035156 C 86.414062 97.035156 83.101562 99.074219 79.742188 102.558594 L 77.464844 102.757812 C 78.359375 101.074219 79.667969 99.152344 81.582031 97.035156 C 81.582031 97.035156 77.976562 99.257812 74.46875 103.023438 L 71.300781 103.300781 C 72.191406 101.492188 73.574219 99.382812 75.695312 97.035156 C 75.695312 97.035156 71.730469 99.480469 68.070312 103.585938 L 66.800781 103.699219 C 67.679688 101.804688 69.105469 99.554688 71.382812 97.035156 C 71.382812 97.035156 67.152344 99.644531 63.398438 103.996094 L 61.457031 104.167969 C 62.316406 102.183594 63.78125 99.769531 66.253906 97.035156 C 66.253906 97.035156 61.703125 99.839844 57.851562 104.488281 L 55.242188 104.71875 C 56.132812 102.921875 57.507812 100.824219 59.609375 98.5 C 59.609375 98.5 55.679688 100.925781 52.03125 105 L 43.667969 105.738281 C 57.832031 87.308594 76.601562 90.0625 88.597656 94.65625 L 88.578125 94.644531 C 89.773438 94.238281 91.132812 93.871094 92.683594 93.570312 C 92.683594 93.570312 90.289062 93.351562 86.964844 93.644531 L 85.070312 92.46875 C 86.667969 91.761719 88.660156 91.109375 91.132812 90.628906 C 91.132812 90.628906 87.382812 90.289062 82.757812 91.03125 L 80.878906 89.863281 C 82.546875 89.078125 84.679688 88.347656 87.390625 87.824219 C 87.390625 87.824219 83.308594 87.449219 78.40625 88.328125 L 75.789062 86.703125 C 77.53125 85.820312 79.824219 84.988281 82.832031 84.402344 C 82.832031 84.402344 78.339844 83.992188 73.121094 85.046875 L 72.070312 84.394531 C 73.855469 83.441406 76.261719 82.523438 79.492188 81.898438 C 79.492188 81.898438 74.699219 81.460938 69.261719 82.648438 L 67.660156 81.65625 C 69.480469 80.617188 72.015625 79.597656 75.519531 78.917969 C 75.519531 78.917969 70.363281 78.445312 64.683594 79.808594 L 62.527344 78.46875 C 64.261719 77.59375 66.542969 76.769531 69.523438 76.191406 C 69.523438 76.191406 65.066406 75.789062 59.878906 76.824219 L 52.96875 72.53125 C 74.128906 66.632812 86.960938 78.917969 93.722656 89.300781 L 93.167969 86.652344 C 94.066406 87.121094 95.035156 87.710938 96.070312 88.445312 C 96.070312 88.445312 94.871094 86.929688 92.855469 85.160156 L 92.488281 83.40625 C 93.785156 83.941406 95.269531 84.738281 96.921875 85.914062 C 96.921875 85.914062 95.039062 83.542969 92.042969 81.265625 L 91.679688 79.527344 C 93.0625 80.0625 94.667969 80.894531 96.476562 82.179688 C 96.476562 82.179688 94.429688 79.601562 91.199219 77.234375 L 90.695312 74.8125 C 92.171875 75.335938 93.929688 76.210938 95.9375 77.632812 C 95.9375 77.632812 93.683594 74.796875 90.179688 72.34375 L 89.976562 71.371094 C 91.519531 71.878906 93.386719 72.773438 95.542969 74.304688 C 95.542969 74.304688 93.140625 71.273438 89.433594 68.773438 L 89.121094 67.289062 C 90.738281 67.769531 92.734375 68.679688 95.074219 70.339844 C 95.074219 70.339844 92.488281 67.082031 88.546875 64.535156 L 88.128906 62.539062 C 89.601562 63.0625 91.34375 63.933594 93.332031 65.34375 C 93.332031 65.34375 91.097656 62.527344 87.617188 60.085938 L 86.28125 53.691406 C 102.613281 63.417969 101.320312 79.226562 98.566406 88.832031 C 105.402344 78.554688 118.164062 66.722656 139.007812 72.53125 L 132.101562 76.824219 C 126.910156 75.789062 122.457031 76.191406 122.457031 76.191406 C 125.4375 76.769531 127.714844 77.59375 129.449219 78.46875 L 127.296875 79.808594 C 121.613281 78.445312 116.460938 78.917969 116.460938 78.917969 C 119.960938 79.597656 122.5 80.617188 124.320312 81.65625 L 122.714844 82.648438 C 117.28125 81.460938 112.484375 81.898438 112.484375 81.898438 C 115.714844 82.523438 118.125 83.441406 119.90625 84.394531 L 118.859375 85.046875 C 113.636719 83.992188 109.144531 84.402344 109.144531 84.402344 C 112.152344 84.988281 114.449219 85.820312 116.1875 86.703125 L 113.574219 88.328125 C 108.671875 87.449219 104.585938 87.824219 104.585938 87.824219 C 107.296875 88.347656 109.429688 89.078125 111.101562 89.863281 L 109.222656 91.03125 C 104.59375 90.289062 100.847656 90.628906 100.847656 90.628906 C 103.320312 91.109375 105.3125 91.761719 106.910156 92.46875 L 105.015625 93.644531 C 101.691406 93.351562 99.292969 93.570312 99.292969 93.570312 C 100.84375 93.871094 102.207031 94.238281 103.402344 94.644531 L 103.382812 94.65625 C 115.378906 90.0625 134.148438 87.308594 148.3125 105.738281 L 139.945312 105 C 136.300781 100.925781 132.367188 98.5 132.367188 98.5 C 134.46875 100.824219 135.84375 102.921875 136.738281 104.71875 L 134.125 104.488281 C 130.277344 99.839844 125.726562 97.035156 125.726562 97.035156 C 128.199219 99.769531 129.664062 102.183594 130.523438 104.167969 L 128.582031 103.996094 C 124.828125 99.644531 120.59375 97.035156 120.59375 97.035156 C 122.875 99.554688 124.296875 101.804688 125.179688 103.699219 L 123.90625 103.585938 C 120.25 99.480469 116.28125 97.035156 116.28125 97.035156 C 118.40625 99.382812 119.785156 101.492188 120.675781 103.300781 L 117.507812 103.023438 C 114 99.257812 110.394531 97.035156 110.394531 97.035156 C 112.308594 99.152344 113.621094 101.074219 114.511719 102.757812 L 112.238281 102.558594 C 108.875 99.074219 105.566406 97.035156 105.566406 97.035156 C 107.3125 98.964844 108.554688 100.738281 109.4375 102.308594 L 107.144531 102.109375 C 104.578125 99.804688 102.460938 98.5 102.460938 98.5 C 103.558594 99.710938 104.453125 100.859375 105.1875 101.9375 L 104.6875 101.894531 C 115.015625 104.367188 127.808594 111.109375 129.675781 129.191406 L 124.003906 124.96875 C 123.191406 120.433594 121.441406 116.957031 121.441406 116.957031 C 121.921875 119.554688 121.984375 121.664062 121.828125 123.34375 L 120.058594 122.027344 C 119.351562 116.996094 117.328125 112.972656 117.328125 112.972656 C 117.894531 116.023438 117.875 118.402344 117.613281 120.207031 L 116.296875 119.226562 C 115.53125 114.445312 113.648438 110.703125 113.648438 110.703125 C 114.171875 113.519531 114.195312 115.761719 113.992188 117.507812 L 113.128906 116.867188 C 112.320312 112.304688 110.554688 108.800781 110.554688 108.800781 C 111.039062 111.417969 111.097656 113.542969 110.9375 115.234375 L 108.789062 113.632812 C 107.9375 109.386719 106.335938 106.199219 106.335938 106.199219 C 106.773438 108.5625 106.859375 110.519531 106.757812 112.121094 L 105.214844 110.972656 C 104.34375 106.988281 102.871094 104.0625 102.871094 104.0625 C 103.269531 106.21875 103.378906 108.039062 103.316406 109.558594 L 101.757812 108.398438 C 100.9375 105.613281 99.996094 103.742188 99.996094 103.742188 C 100.246094 105.09375 100.382812 106.316406 100.433594 107.410156 L 97.917969 105.539062 C 98.339844 110.507812 98.925781 116.496094 99.714844 123.21875 C 102.472656 146.640625 133.542969 153.179688 145.347656 132.765625 C 150.191406 124.386719 152.964844 114.660156 152.964844 104.289062 C 152.964844 87.246094 145.480469 71.957031 133.625 61.515625 C 148.492188 72.859375 158.082031 90.761719 158.082031 110.902344 C 158.082031 145.195312 130.28125 172.996094 95.988281 172.996094 C 61.695312 172.996094 33.898438 145.195312 33.898438 110.902344 C 33.898438 90.761719 43.488281 72.859375 58.351562 61.515625 Z M 55.640625 43.039062 L 63.085938 45.117188 C 66.101562 41.640625 69.636719 37.75 72.699219 34.484375 L 58.683594 26.054688 L 62.015625 22.722656 L 79.449219 27.582031 C 84.96875 22.335938 89.824219 18.960938 90.71875 19.855469 C 91.613281 20.75 88.238281 25.605469 82.992188 31.128906 L 83.667969 43.863281 L 80.335938 47.191406 L 76.089844 37.875 C 72.824219 40.9375 68.933594 44.476562 65.460938 47.488281 L 66.058594 54.929688 L 64.523438 56.460938 L 60.878906 51.347656 C 58.320312 53.414062 56.507812 54.664062 56.210938 54.367188 C 55.910156 54.066406 57.164062 52.257812 59.230469 49.695312 L 54.105469 44.574219 Z M 20.167969 116.769531 C 20.167969 92.171875 31.882812 70.3125 50.03125 56.460938 C 35.554688 69.210938 26.417969 87.882812 26.417969 108.691406 C 26.417969 147.113281 57.566406 178.261719 95.988281 178.261719 C 134.414062 178.261719 165.5625 147.113281 165.5625 108.691406 C 165.5625 87.882812 156.425781 69.210938 141.949219 56.460938 C 160.097656 70.3125 171.808594 92.171875 171.808594 116.769531 C 171.808594 132.730469 166.875 147.539062 158.449219 159.757812 C 173.261719 144.253906 182.359375 123.242188 182.359375 100.105469 C 182.359375 52.40625 143.691406 13.738281 95.988281 13.738281 C 48.289062 13.738281 9.621094 52.40625 9.621094 100.105469 C 9.621094 123.242188 18.714844 144.253906 33.527344 159.757812 C 25.101562 147.539062 20.167969 132.730469 20.167969 116.769531 " fill-opacity="1" fill-rule="nonzero"/></g><g clip-path="url(#90536b5808)"><g clip-path="url(#e33b08601c)"><g transform="matrix(1, 0, 0, 1, 113, 49)"><g clip-path="url(#b7aebcc0cc)"><g clip-path="url(#3e54ffea54)"><g clip-path="url(#137990a8f0)"><rect x="-155.24" width="276.48" fill="#0cc0df" height="276.479994" y="-91.239999" fill-opacity="1"/></g></g></g></g></g></g></svg>