<svg xmlns="http://www.w3.org/2000/svg" xmlns:xlink="http://www.w3.org/1999/xlink" width="400" zoomAndPan="magnify" viewBox="0 0 300 374.999991" height="500" preserveAspectRatio="xMidYMid meet" version="1.2"><defs><clipPath id="675d3a880e"><path d="M 210 41.6875 L 295.9375 41.6875 L 295.9375 128 L 210 128 Z M 210 41.6875 "/></clipPath><clipPath id="a641969e9f"><path d="M 4.1875 41.6875 L 90 41.6875 L 90 128 L 4.1875 128 Z M 4.1875 41.6875 "/></clipPath><clipPath id="64db0f6d66"><path d="M 210 247 L 295.9375 247 L 295.9375 333.4375 L 210 333.4375 Z M 210 247 "/></clipPath><clipPath id="7aeffd0c9b"><path d="M 4.1875 247 L 90 247 L 90 333.4375 L 4.1875 333.4375 Z M 4.1875 247 "/></clipPath><clipPath id="4074432c58"><path d="M 15.277344 121 L 87 121 L 87 254 L 15.277344 254 Z M 15.277344 121 "/></clipPath><clipPath id="c61ba075ce"><path d="M 213 121 L 284.527344 121 L 284.527344 254 L 213 254 Z M 213 121 "/></clipPath></defs><g id="7778474a73"><g clip-rule="nonzero" clip-path="url(#675d3a880e)"><path style=" stroke:none;fill-rule:nonzero;fill:#f4ce9e;fill-opacity:1;" d="M 255.21875 49.65625 C 273.234375 49.65625 287.839844 64.257812 287.839844 82.273438 L 287.839844 123.132812 C 287.839844 124.183594 288.257812 125.199219 289.007812 125.945312 C 291.507812 128.449219 295.792969 126.679688 295.792969 123.132812 L 295.792969 82.550781 C 295.792969 70.59375 290.679688 59.144531 281.597656 51.371094 C 274.28125 45.117188 265.078125 41.699219 255.347656 41.699219 L 214.367188 41.699219 C 210.820312 41.699219 209.054688 45.984375 211.554688 48.488281 C 212.300781 49.234375 213.308594 49.65625 214.367188 49.65625 L 255.226562 49.65625 Z M 255.21875 49.65625 "/></g><g clip-rule="nonzero" clip-path="url(#a641969e9f)"><path style=" stroke:none;fill-rule:nonzero;fill:#f4ce9e;fill-opacity:1;" d="M 12.15625 82.273438 C 12.15625 64.257812 26.757812 49.65625 44.773438 49.65625 L 85.632812 49.65625 C 86.683594 49.65625 87.699219 49.234375 88.445312 48.488281 C 90.949219 45.984375 89.179688 41.699219 85.632812 41.699219 L 45.050781 41.699219 C 33.09375 41.699219 21.644531 46.8125 13.871094 55.898438 C 7.617188 63.214844 4.199219 72.414062 4.199219 82.144531 L 4.199219 123.125 C 4.199219 126.671875 8.484375 128.441406 10.988281 125.9375 C 11.734375 125.191406 12.15625 124.183594 12.15625 123.125 L 12.15625 82.269531 Z M 12.15625 82.273438 "/></g><g clip-rule="nonzero" clip-path="url(#64db0f6d66)"><path style=" stroke:none;fill-rule:nonzero;fill:#f4ce9e;fill-opacity:1;" d="M 287.839844 251.859375 L 287.839844 292.71875 C 287.839844 310.734375 273.234375 325.339844 255.21875 325.339844 L 214.359375 325.339844 C 213.308594 325.339844 212.292969 325.757812 211.546875 326.507812 C 209.046875 329.007812 210.816406 333.292969 214.359375 333.292969 L 255.339844 333.292969 C 266.144531 333.292969 276.304688 329.085938 283.9375 321.445312 C 291.578125 313.804688 295.785156 303.652344 295.785156 292.847656 L 295.785156 251.867188 C 295.785156 248.320312 291.5 246.554688 289 249.054688 C 288.25 249.800781 287.832031 250.808594 287.832031 251.867188 Z M 287.839844 251.859375 "/></g><g clip-rule="nonzero" clip-path="url(#7aeffd0c9b)"><path style=" stroke:none;fill-rule:nonzero;fill:#f4ce9e;fill-opacity:1;" d="M 44.773438 325.339844 C 26.757812 325.339844 12.15625 310.734375 12.15625 292.71875 L 12.15625 251.859375 C 12.15625 250.808594 11.734375 249.792969 10.988281 249.046875 C 8.484375 246.546875 4.199219 248.316406 4.199219 251.859375 L 4.199219 292.839844 C 4.199219 303.644531 8.40625 313.804688 16.046875 321.4375 C 23.691406 329.078125 33.839844 333.285156 44.644531 333.285156 L 85.625 333.285156 C 89.171875 333.285156 90.941406 329 88.4375 326.5 C 87.691406 325.75 86.683594 325.332031 85.625 325.332031 L 44.769531 325.332031 Z M 44.773438 325.339844 "/></g><path style=" stroke:none;fill-rule:nonzero;fill:#f4ce9e;fill-opacity:1;" d="M 180.765625 64.453125 C 185.847656 65.722656 188.9375 70.875 187.667969 75.960938 L 130.734375 303.695312 C 129.464844 308.78125 124.3125 311.871094 119.226562 310.601562 C 114.144531 309.332031 111.050781 304.179688 112.324219 299.09375 L 169.257812 71.359375 C 170.527344 66.273438 175.679688 63.183594 180.765625 64.453125 Z M 180.765625 64.453125 "/><g clip-rule="nonzero" clip-path="url(#4074432c58)"><path style=" stroke:none;fill-rule:nonzero;fill:#f4ce9e;fill-opacity:1;" d="M 84.8125 125.335938 C 81.714844 120.691406 75.144531 120.042969 71.199219 123.988281 L 31.816406 163.371094 C 21.75 173.4375 16.71875 178.46875 15.753906 184.558594 C 15.441406 186.523438 15.441406 188.527344 15.753906 190.496094 C 16.71875 196.585938 21.75 201.617188 31.816406 211.683594 L 71.199219 251.066406 C 75.144531 255.011719 81.714844 254.363281 84.8125 249.71875 C 86.910156 246.574219 86.777344 242.445312 84.480469 239.441406 L 52.730469 197.898438 C 49.355469 193.484375 47.667969 191.273438 47.335938 188.761719 C 47.230469 187.941406 47.230469 187.113281 47.335938 186.292969 C 47.667969 183.777344 49.355469 181.570312 52.730469 177.15625 L 84.480469 135.613281 C 86.777344 132.609375 86.910156 128.480469 84.8125 125.335938 Z M 84.8125 125.335938 "/></g><g clip-rule="nonzero" clip-path="url(#c61ba075ce)"><path style=" stroke:none;fill-rule:nonzero;fill:#f4ce9e;fill-opacity:1;" d="M 228.792969 123.988281 C 224.847656 120.042969 218.273438 120.691406 215.179688 125.335938 C 213.082031 128.480469 213.214844 132.609375 215.511719 135.613281 L 247.261719 177.15625 C 250.636719 181.570312 252.324219 183.777344 252.65625 186.292969 C 252.761719 187.113281 252.761719 187.941406 252.65625 188.761719 C 252.324219 191.273438 250.636719 193.484375 247.261719 197.898438 L 215.511719 239.441406 C 213.214844 242.445312 213.082031 246.574219 215.179688 249.71875 C 218.273438 254.363281 224.847656 255.011719 228.792969 251.066406 L 268.175781 211.683594 C 278.238281 201.617188 283.273438 196.585938 284.238281 190.496094 C 284.546875 188.527344 284.546875 186.523438 284.238281 184.558594 C 283.273438 178.46875 278.238281 173.4375 268.175781 163.371094 Z M 228.792969 123.988281 "/></g></g></svg>