<svg xmlns="http://www.w3.org/2000/svg" xmlns:xlink="http://www.w3.org/1999/xlink" width="512" zoomAndPan="magnify" viewBox="0 0 384 383.999986" height="512" preserveAspectRatio="xMidYMid meet" version="1.0"><defs><clipPath id="9ada9859ab"><path d="M 19.199219 25.757812 L 364.800781 25.757812 L 364.800781 358.292969 L 19.199219 358.292969 Z M 19.199219 25.757812 " clip-rule="nonzero"/></clipPath><clipPath id="90bb154b88"><path d="M 364.800781 100.757812 L 364.800781 283.242188 C 364.800781 324.664062 331.222656 358.242188 289.800781 358.242188 L 94.199219 358.242188 C 52.777344 358.242188 19.199219 324.664062 19.199219 283.242188 L 19.199219 100.757812 C 19.199219 59.335938 52.777344 25.757812 94.199219 25.757812 L 289.800781 25.757812 C 331.222656 25.757812 364.800781 59.335938 364.800781 100.757812 Z M 364.800781 100.757812 " clip-rule="nonzero"/></clipPath><clipPath id="3a416c21ba"><path d="M 0.199219 0.757812 L 345.800781 0.757812 L 345.800781 333.234375 L 0.199219 333.234375 Z M 0.199219 0.757812 " clip-rule="nonzero"/></clipPath><clipPath id="b5beeb0995"><path d="M 345.800781 75.757812 L 345.800781 258.242188 C 345.800781 299.664062 312.222656 333.242188 270.800781 333.242188 L 75.199219 333.242188 C 33.777344 333.242188 0.199219 299.664062 0.199219 258.242188 L 0.199219 75.757812 C 0.199219 34.335938 33.777344 0.757812 75.199219 0.757812 L 270.800781 0.757812 C 312.222656 0.757812 345.800781 34.335938 345.800781 75.757812 Z M 345.800781 75.757812 " clip-rule="nonzero"/></clipPath><linearGradient x1="0" gradientTransform="matrix(0.0585862, 0, 0, 0.0585862, 0.200006, 0.757499)" y1="2837.571" x2="5899" gradientUnits="userSpaceOnUse" y2="2837.571" id="aea1807148"><stop stop-opacity="1" stop-color="rgb(11.369324%, 31.759644%, 89.408875%)" offset="0"/><stop stop-opacity="1" stop-color="rgb(11.376953%, 31.958008%, 89.424133%)" offset="0.00390625"/><stop stop-opacity="1" stop-color="rgb(11.384583%, 32.157898%, 89.439392%)" offset="0.0078125"/><stop stop-opacity="1" stop-color="rgb(11.392212%, 32.356262%, 89.454651%)" offset="0.0117188"/><stop stop-opacity="1" stop-color="rgb(11.399841%, 32.556152%, 89.46991%)" offset="0.015625"/><stop stop-opacity="1" stop-color="rgb(11.407471%, 32.754517%, 89.485168%)" offset="0.0195313"/><stop stop-opacity="1" stop-color="rgb(11.4151%, 32.954407%, 89.500427%)" offset="0.0234375"/><stop stop-opacity="1" stop-color="rgb(11.422729%, 33.152771%, 89.515686%)" offset="0.0273438"/><stop stop-opacity="1" stop-color="rgb(11.430359%, 33.352661%, 89.532471%)" offset="0.03125"/><stop stop-opacity="1" stop-color="rgb(11.437988%, 33.551025%, 89.547729%)" offset="0.0351563"/><stop stop-opacity="1" stop-color="rgb(11.445618%, 33.750916%, 89.562988%)" offset="0.0390625"/><stop stop-opacity="1" stop-color="rgb(11.453247%, 33.94928%, 89.578247%)" offset="0.0429688"/><stop stop-opacity="1" stop-color="rgb(11.460876%, 34.14917%, 89.593506%)" offset="0.046875"/><stop stop-opacity="1" stop-color="rgb(11.468506%, 34.347534%, 89.608765%)" offset="0.0507812"/><stop stop-opacity="1" stop-color="rgb(11.476135%, 34.547424%, 89.624023%)" offset="0.0546875"/><stop stop-opacity="1" stop-color="rgb(11.483765%, 34.745789%, 89.639282%)" offset="0.0585938"/><stop stop-opacity="1" stop-color="rgb(11.491394%, 34.945679%, 89.654541%)" offset="0.0625"/><stop stop-opacity="1" stop-color="rgb(11.499023%, 35.144043%, 89.6698%)" offset="0.0664063"/><stop stop-opacity="1" stop-color="rgb(11.506653%, 35.343933%, 89.685059%)" offset="0.0703125"/><stop stop-opacity="1" stop-color="rgb(11.514282%, 35.542297%, 89.700317%)" offset="0.0742188"/><stop stop-opacity="1" stop-color="rgb(11.521912%, 35.742188%, 89.715576%)" offset="0.078125"/><stop stop-opacity="1" stop-color="rgb(11.529541%, 35.940552%, 89.730835%)" offset="0.0820313"/><stop stop-opacity="1" stop-color="rgb(11.53717%, 36.140442%, 89.746094%)" offset="0.0859375"/><stop stop-opacity="1" stop-color="rgb(11.5448%, 36.340332%, 89.761353%)" offset="0.0898438"/><stop stop-opacity="1" stop-color="rgb(11.552429%, 36.540222%, 89.776611%)" offset="0.09375"/><stop stop-opacity="1" stop-color="rgb(11.560059%, 36.738586%, 89.79187%)" offset="0.0976562"/><stop stop-opacity="1" stop-color="rgb(11.567688%, 36.938477%, 89.807129%)" offset="0.101562"/><stop stop-opacity="1" stop-color="rgb(11.575317%, 37.136841%, 89.822388%)" offset="0.105469"/><stop stop-opacity="1" stop-color="rgb(11.582947%, 37.336731%, 89.837646%)" offset="0.109375"/><stop stop-opacity="1" stop-color="rgb(11.590576%, 37.535095%, 89.852905%)" offset="0.113281"/><stop stop-opacity="1" stop-color="rgb(11.598206%, 37.734985%, 89.868164%)" offset="0.117188"/><stop stop-opacity="1" stop-color="rgb(11.605835%, 37.93335%, 89.883423%)" offset="0.121094"/><stop stop-opacity="1" stop-color="rgb(11.61499%, 38.13324%, 89.898682%)" offset="0.125"/><stop stop-opacity="1" stop-color="rgb(11.62262%, 38.331604%, 89.91394%)" offset="0.128906"/><stop stop-opacity="1" stop-color="rgb(11.630249%, 38.531494%, 89.929199%)" offset="0.132813"/><stop stop-opacity="1" stop-color="rgb(11.637878%, 38.729858%, 89.944458%)" offset="0.136719"/><stop stop-opacity="1" stop-color="rgb(11.645508%, 38.929749%, 89.961243%)" offset="0.140625"/><stop stop-opacity="1" stop-color="rgb(11.653137%, 39.128113%, 89.976501%)" offset="0.144531"/><stop stop-opacity="1" stop-color="rgb(11.660767%, 39.328003%, 89.99176%)" offset="0.148438"/><stop stop-opacity="1" stop-color="rgb(11.668396%, 39.526367%, 90.007019%)" offset="0.152344"/><stop stop-opacity="1" stop-color="rgb(11.676025%, 39.726257%, 90.022278%)" offset="0.15625"/><stop stop-opacity="1" stop-color="rgb(11.683655%, 39.924622%, 90.037537%)" offset="0.160156"/><stop stop-opacity="1" stop-color="rgb(11.691284%, 40.124512%, 90.052795%)" offset="0.164063"/><stop stop-opacity="1" stop-color="rgb(11.698914%, 40.322876%, 90.068054%)" offset="0.167969"/><stop stop-opacity="1" stop-color="rgb(11.706543%, 40.522766%, 90.083313%)" offset="0.171875"/><stop stop-opacity="1" stop-color="rgb(11.714172%, 40.72113%, 90.098572%)" offset="0.175781"/><stop stop-opacity="1" stop-color="rgb(11.721802%, 40.921021%, 90.113831%)" offset="0.179688"/><stop stop-opacity="1" stop-color="rgb(11.729431%, 41.119385%, 90.129089%)" offset="0.183594"/><stop stop-opacity="1" stop-color="rgb(11.737061%, 41.319275%, 90.144348%)" offset="0.1875"/><stop stop-opacity="1" stop-color="rgb(11.74469%, 41.517639%, 90.159607%)" offset="0.191406"/><stop stop-opacity="1" stop-color="rgb(11.752319%, 41.717529%, 90.174866%)" offset="0.195312"/><stop stop-opacity="1" stop-color="rgb(11.759949%, 41.917419%, 90.190125%)" offset="0.199219"/><stop stop-opacity="1" stop-color="rgb(11.767578%, 42.11731%, 90.205383%)" offset="0.203125"/><stop stop-opacity="1" stop-color="rgb(11.775208%, 42.315674%, 90.220642%)" offset="0.207031"/><stop stop-opacity="1" stop-color="rgb(11.782837%, 42.515564%, 90.235901%)" offset="0.210938"/><stop stop-opacity="1" stop-color="rgb(11.790466%, 42.713928%, 90.25116%)" offset="0.214844"/><stop stop-opacity="1" stop-color="rgb(11.798096%, 42.913818%, 90.266418%)" offset="0.21875"/><stop stop-opacity="1" stop-color="rgb(11.805725%, 43.112183%, 90.281677%)" offset="0.222656"/><stop stop-opacity="1" stop-color="rgb(11.813354%, 43.312073%, 90.296936%)" offset="0.226562"/><stop stop-opacity="1" stop-color="rgb(11.820984%, 43.510437%, 90.312195%)" offset="0.230469"/><stop stop-opacity="1" stop-color="rgb(11.828613%, 43.710327%, 90.327454%)" offset="0.234375"/><stop stop-opacity="1" stop-color="rgb(11.836243%, 43.908691%, 90.342712%)" offset="0.238281"/><stop stop-opacity="1" stop-color="rgb(11.843872%, 44.108582%, 90.357971%)" offset="0.242188"/><stop stop-opacity="1" stop-color="rgb(11.851501%, 44.306946%, 90.37323%)" offset="0.246094"/><stop stop-opacity="1" stop-color="rgb(11.859131%, 44.506836%, 90.388489%)" offset="0.25"/><stop stop-opacity="1" stop-color="rgb(11.86676%, 44.7052%, 90.403748%)" offset="0.253906"/><stop stop-opacity="1" stop-color="rgb(11.87439%, 44.90509%, 90.420532%)" offset="0.257813"/><stop stop-opacity="1" stop-color="rgb(11.882019%, 45.103455%, 90.435791%)" offset="0.261719"/><stop stop-opacity="1" stop-color="rgb(11.889648%, 45.303345%, 90.45105%)" offset="0.265625"/><stop stop-opacity="1" stop-color="rgb(11.897278%, 45.501709%, 90.466309%)" offset="0.269531"/><stop stop-opacity="1" stop-color="rgb(11.904907%, 45.701599%, 90.481567%)" offset="0.273438"/><stop stop-opacity="1" stop-color="rgb(11.912537%, 45.899963%, 90.496826%)" offset="0.277344"/><stop stop-opacity="1" stop-color="rgb(11.920166%, 46.099854%, 90.512085%)" offset="0.28125"/><stop stop-opacity="1" stop-color="rgb(11.927795%, 46.298218%, 90.527344%)" offset="0.285156"/><stop stop-opacity="1" stop-color="rgb(11.935425%, 46.498108%, 90.542603%)" offset="0.289063"/><stop stop-opacity="1" stop-color="rgb(11.943054%, 46.696472%, 90.557861%)" offset="0.292969"/><stop stop-opacity="1" stop-color="rgb(11.950684%, 46.896362%, 90.57312%)" offset="0.296875"/><stop stop-opacity="1" stop-color="rgb(11.958313%, 47.094727%, 90.588379%)" offset="0.300781"/><stop stop-opacity="1" stop-color="rgb(11.965942%, 47.294617%, 90.603638%)" offset="0.304688"/><stop stop-opacity="1" stop-color="rgb(11.973572%, 47.492981%, 90.618896%)" offset="0.308594"/><stop stop-opacity="1" stop-color="rgb(11.981201%, 47.692871%, 90.634155%)" offset="0.3125"/><stop stop-opacity="1" stop-color="rgb(11.988831%, 47.892761%, 90.649414%)" offset="0.316406"/><stop stop-opacity="1" stop-color="rgb(11.99646%, 48.092651%, 90.664673%)" offset="0.320313"/><stop stop-opacity="1" stop-color="rgb(12.004089%, 48.291016%, 90.679932%)" offset="0.324219"/><stop stop-opacity="1" stop-color="rgb(12.011719%, 48.490906%, 90.69519%)" offset="0.328125"/><stop stop-opacity="1" stop-color="rgb(12.019348%, 48.68927%, 90.710449%)" offset="0.332031"/><stop stop-opacity="1" stop-color="rgb(12.026978%, 48.88916%, 90.725708%)" offset="0.335938"/><stop stop-opacity="1" stop-color="rgb(12.034607%, 49.087524%, 90.740967%)" offset="0.339844"/><stop stop-opacity="1" stop-color="rgb(12.042236%, 49.287415%, 90.756226%)" offset="0.34375"/><stop stop-opacity="1" stop-color="rgb(12.049866%, 49.485779%, 90.771484%)" offset="0.347656"/><stop stop-opacity="1" stop-color="rgb(12.059021%, 49.685669%, 90.786743%)" offset="0.351563"/><stop stop-opacity="1" stop-color="rgb(12.06665%, 49.884033%, 90.802002%)" offset="0.355469"/><stop stop-opacity="1" stop-color="rgb(12.07428%, 50.083923%, 90.817261%)" offset="0.359375"/><stop stop-opacity="1" stop-color="rgb(12.081909%, 50.282288%, 90.83252%)" offset="0.363281"/><stop stop-opacity="1" stop-color="rgb(12.089539%, 50.482178%, 90.849304%)" offset="0.367188"/><stop stop-opacity="1" stop-color="rgb(12.097168%, 50.680542%, 90.864563%)" offset="0.371094"/><stop stop-opacity="1" stop-color="rgb(12.104797%, 50.880432%, 90.879822%)" offset="0.375"/><stop stop-opacity="1" stop-color="rgb(12.112427%, 51.078796%, 90.895081%)" offset="0.378906"/><stop stop-opacity="1" stop-color="rgb(12.120056%, 51.278687%, 90.910339%)" offset="0.382812"/><stop stop-opacity="1" stop-color="rgb(12.127686%, 51.477051%, 90.925598%)" offset="0.386719"/><stop stop-opacity="1" stop-color="rgb(12.135315%, 51.676941%, 90.940857%)" offset="0.390625"/><stop stop-opacity="1" stop-color="rgb(12.142944%, 51.875305%, 90.956116%)" offset="0.394531"/><stop stop-opacity="1" stop-color="rgb(12.150574%, 52.075195%, 90.971375%)" offset="0.398438"/><stop stop-opacity="1" stop-color="rgb(12.158203%, 52.27356%, 90.986633%)" offset="0.402344"/><stop stop-opacity="1" stop-color="rgb(12.165833%, 52.47345%, 91.001892%)" offset="0.40625"/><stop stop-opacity="1" stop-color="rgb(12.173462%, 52.671814%, 91.017151%)" offset="0.410156"/><stop stop-opacity="1" stop-color="rgb(12.181091%, 52.871704%, 91.03241%)" offset="0.414062"/><stop stop-opacity="1" stop-color="rgb(12.188721%, 53.070068%, 91.047668%)" offset="0.417969"/><stop stop-opacity="1" stop-color="rgb(12.19635%, 53.269958%, 91.062927%)" offset="0.421875"/><stop stop-opacity="1" stop-color="rgb(12.203979%, 53.469849%, 91.078186%)" offset="0.425781"/><stop stop-opacity="1" stop-color="rgb(12.211609%, 53.669739%, 91.093445%)" offset="0.429688"/><stop stop-opacity="1" stop-color="rgb(12.219238%, 53.868103%, 91.108704%)" offset="0.433594"/><stop stop-opacity="1" stop-color="rgb(12.226868%, 54.067993%, 91.123962%)" offset="0.4375"/><stop stop-opacity="1" stop-color="rgb(12.234497%, 54.266357%, 91.139221%)" offset="0.441406"/><stop stop-opacity="1" stop-color="rgb(12.242126%, 54.466248%, 91.15448%)" offset="0.445312"/><stop stop-opacity="1" stop-color="rgb(12.249756%, 54.664612%, 91.169739%)" offset="0.449219"/><stop stop-opacity="1" stop-color="rgb(12.257385%, 54.864502%, 91.184998%)" offset="0.453125"/><stop stop-opacity="1" stop-color="rgb(12.265015%, 55.062866%, 91.200256%)" offset="0.457031"/><stop stop-opacity="1" stop-color="rgb(12.272644%, 55.262756%, 91.215515%)" offset="0.460938"/><stop stop-opacity="1" stop-color="rgb(12.280273%, 55.461121%, 91.230774%)" offset="0.464844"/><stop stop-opacity="1" stop-color="rgb(12.287903%, 55.661011%, 91.246033%)" offset="0.46875"/><stop stop-opacity="1" stop-color="rgb(12.295532%, 55.859375%, 91.261292%)" offset="0.472656"/><stop stop-opacity="1" stop-color="rgb(12.303162%, 56.059265%, 91.278076%)" offset="0.476562"/><stop stop-opacity="1" stop-color="rgb(12.310791%, 56.257629%, 91.293335%)" offset="0.480469"/><stop stop-opacity="1" stop-color="rgb(12.31842%, 56.45752%, 91.308594%)" offset="0.484375"/><stop stop-opacity="1" stop-color="rgb(12.32605%, 56.655884%, 91.323853%)" offset="0.488281"/><stop stop-opacity="1" stop-color="rgb(12.333679%, 56.855774%, 91.339111%)" offset="0.492188"/><stop stop-opacity="1" stop-color="rgb(12.341309%, 57.054138%, 91.35437%)" offset="0.496094"/><stop stop-opacity="1" stop-color="rgb(12.348938%, 57.254028%, 91.369629%)" offset="0.5"/><stop stop-opacity="1" stop-color="rgb(12.356567%, 57.452393%, 91.384888%)" offset="0.503906"/><stop stop-opacity="1" stop-color="rgb(12.364197%, 57.652283%, 91.400146%)" offset="0.507813"/><stop stop-opacity="1" stop-color="rgb(12.371826%, 57.850647%, 91.415405%)" offset="0.511719"/><stop stop-opacity="1" stop-color="rgb(12.379456%, 58.050537%, 91.430664%)" offset="0.515625"/><stop stop-opacity="1" stop-color="rgb(12.387085%, 58.248901%, 91.445923%)" offset="0.519531"/><stop stop-opacity="1" stop-color="rgb(12.394714%, 58.448792%, 91.461182%)" offset="0.523438"/><stop stop-opacity="1" stop-color="rgb(12.402344%, 58.647156%, 91.47644%)" offset="0.527344"/><stop stop-opacity="1" stop-color="rgb(12.409973%, 58.847046%, 91.491699%)" offset="0.53125"/><stop stop-opacity="1" stop-color="rgb(12.417603%, 59.04541%, 91.506958%)" offset="0.535156"/><stop stop-opacity="1" stop-color="rgb(12.425232%, 59.2453%, 91.522217%)" offset="0.539063"/><stop stop-opacity="1" stop-color="rgb(12.432861%, 59.44519%, 91.537476%)" offset="0.542969"/><stop stop-opacity="1" stop-color="rgb(12.440491%, 59.645081%, 91.552734%)" offset="0.546875"/><stop stop-opacity="1" stop-color="rgb(12.44812%, 59.843445%, 91.567993%)" offset="0.550781"/><stop stop-opacity="1" stop-color="rgb(12.45575%, 60.043335%, 91.583252%)" offset="0.554688"/><stop stop-opacity="1" stop-color="rgb(12.463379%, 60.241699%, 91.598511%)" offset="0.558594"/><stop stop-opacity="1" stop-color="rgb(12.471008%, 60.441589%, 91.61377%)" offset="0.5625"/><stop stop-opacity="1" stop-color="rgb(12.478638%, 60.639954%, 91.629028%)" offset="0.566406"/><stop stop-opacity="1" stop-color="rgb(12.487793%, 60.839844%, 91.644287%)" offset="0.570313"/><stop stop-opacity="1" stop-color="rgb(12.495422%, 61.038208%, 91.659546%)" offset="0.574219"/><stop stop-opacity="1" stop-color="rgb(12.503052%, 61.238098%, 91.674805%)" offset="0.578125"/><stop stop-opacity="1" stop-color="rgb(12.510681%, 61.436462%, 91.690063%)" offset="0.582031"/><stop stop-opacity="1" stop-color="rgb(12.518311%, 61.636353%, 91.706848%)" offset="0.585938"/><stop stop-opacity="1" stop-color="rgb(12.52594%, 61.834717%, 91.722107%)" offset="0.589844"/><stop stop-opacity="1" stop-color="rgb(12.533569%, 62.034607%, 91.737366%)" offset="0.59375"/><stop stop-opacity="1" stop-color="rgb(12.541199%, 62.232971%, 91.752625%)" offset="0.597656"/><stop stop-opacity="1" stop-color="rgb(12.548828%, 62.432861%, 91.767883%)" offset="0.601563"/><stop stop-opacity="1" stop-color="rgb(12.556458%, 62.631226%, 91.783142%)" offset="0.605469"/><stop stop-opacity="1" stop-color="rgb(12.564087%, 62.831116%, 91.798401%)" offset="0.609375"/><stop stop-opacity="1" stop-color="rgb(12.571716%, 63.02948%, 91.81366%)" offset="0.613281"/><stop stop-opacity="1" stop-color="rgb(12.579346%, 63.22937%, 91.828918%)" offset="0.617188"/><stop stop-opacity="1" stop-color="rgb(12.586975%, 63.427734%, 91.844177%)" offset="0.621094"/><stop stop-opacity="1" stop-color="rgb(12.594604%, 63.627625%, 91.859436%)" offset="0.625"/><stop stop-opacity="1" stop-color="rgb(12.602234%, 63.825989%, 91.874695%)" offset="0.628906"/><stop stop-opacity="1" stop-color="rgb(12.609863%, 64.025879%, 91.889954%)" offset="0.632813"/><stop stop-opacity="1" stop-color="rgb(12.617493%, 64.224243%, 91.905212%)" offset="0.636719"/><stop stop-opacity="1" stop-color="rgb(12.625122%, 64.424133%, 91.920471%)" offset="0.640625"/><stop stop-opacity="1" stop-color="rgb(12.632751%, 64.622498%, 91.93573%)" offset="0.644531"/><stop stop-opacity="1" stop-color="rgb(12.640381%, 64.822388%, 91.950989%)" offset="0.648438"/><stop stop-opacity="1" stop-color="rgb(12.64801%, 65.022278%, 91.966248%)" offset="0.652344"/><stop stop-opacity="1" stop-color="rgb(12.65564%, 65.222168%, 91.981506%)" offset="0.65625"/><stop stop-opacity="1" stop-color="rgb(12.663269%, 65.420532%, 91.996765%)" offset="0.660156"/><stop stop-opacity="1" stop-color="rgb(12.670898%, 65.620422%, 92.012024%)" offset="0.664063"/><stop stop-opacity="1" stop-color="rgb(12.678528%, 65.818787%, 92.027283%)" offset="0.667969"/><stop stop-opacity="1" stop-color="rgb(12.686157%, 66.018677%, 92.042542%)" offset="0.671875"/><stop stop-opacity="1" stop-color="rgb(12.693787%, 66.217041%, 92.0578%)" offset="0.675781"/><stop stop-opacity="1" stop-color="rgb(12.701416%, 66.416931%, 92.073059%)" offset="0.679688"/><stop stop-opacity="1" stop-color="rgb(12.709045%, 66.615295%, 92.088318%)" offset="0.683594"/><stop stop-opacity="1" stop-color="rgb(12.716675%, 66.815186%, 92.103577%)" offset="0.6875"/><stop stop-opacity="1" stop-color="rgb(12.724304%, 67.01355%, 92.118835%)" offset="0.691406"/><stop stop-opacity="1" stop-color="rgb(12.731934%, 67.21344%, 92.13562%)" offset="0.695313"/><stop stop-opacity="1" stop-color="rgb(12.739563%, 67.411804%, 92.150879%)" offset="0.699219"/><stop stop-opacity="1" stop-color="rgb(12.747192%, 67.611694%, 92.166138%)" offset="0.703125"/><stop stop-opacity="1" stop-color="rgb(12.754822%, 67.810059%, 92.181396%)" offset="0.707031"/><stop stop-opacity="1" stop-color="rgb(12.762451%, 68.009949%, 92.196655%)" offset="0.710938"/><stop stop-opacity="1" stop-color="rgb(12.770081%, 68.208313%, 92.211914%)" offset="0.714844"/><stop stop-opacity="1" stop-color="rgb(12.77771%, 68.408203%, 92.227173%)" offset="0.71875"/><stop stop-opacity="1" stop-color="rgb(12.785339%, 68.606567%, 92.242432%)" offset="0.722656"/><stop stop-opacity="1" stop-color="rgb(12.792969%, 68.806458%, 92.25769%)" offset="0.726563"/><stop stop-opacity="1" stop-color="rgb(12.800598%, 69.004822%, 92.272949%)" offset="0.730469"/><stop stop-opacity="1" stop-color="rgb(12.808228%, 69.204712%, 92.288208%)" offset="0.734375"/><stop stop-opacity="1" stop-color="rgb(12.815857%, 69.403076%, 92.303467%)" offset="0.738281"/><stop stop-opacity="1" stop-color="rgb(12.823486%, 69.602966%, 92.318726%)" offset="0.742188"/><stop stop-opacity="1" stop-color="rgb(12.831116%, 69.801331%, 92.333984%)" offset="0.746094"/><stop stop-opacity="1" stop-color="rgb(12.838745%, 70.001221%, 92.349243%)" offset="0.75"/><stop stop-opacity="1" stop-color="rgb(12.846375%, 70.199585%, 92.364502%)" offset="0.753906"/><stop stop-opacity="1" stop-color="rgb(12.854004%, 70.399475%, 92.379761%)" offset="0.757812"/><stop stop-opacity="1" stop-color="rgb(12.861633%, 70.597839%, 92.39502%)" offset="0.761719"/><stop stop-opacity="1" stop-color="rgb(12.869263%, 70.797729%, 92.410278%)" offset="0.765625"/><stop stop-opacity="1" stop-color="rgb(12.876892%, 70.99762%, 92.425537%)" offset="0.769531"/><stop stop-opacity="1" stop-color="rgb(12.884521%, 71.19751%, 92.440796%)" offset="0.773438"/><stop stop-opacity="1" stop-color="rgb(12.892151%, 71.395874%, 92.456055%)" offset="0.777344"/><stop stop-opacity="1" stop-color="rgb(12.89978%, 71.595764%, 92.471313%)" offset="0.78125"/><stop stop-opacity="1" stop-color="rgb(12.90741%, 71.794128%, 92.486572%)" offset="0.785156"/><stop stop-opacity="1" stop-color="rgb(12.915039%, 71.994019%, 92.501831%)" offset="0.789062"/><stop stop-opacity="1" stop-color="rgb(12.922668%, 72.192383%, 92.51709%)" offset="0.792969"/><stop stop-opacity="1" stop-color="rgb(12.931824%, 72.392273%, 92.532349%)" offset="0.796875"/><stop stop-opacity="1" stop-color="rgb(12.939453%, 72.590637%, 92.547607%)" offset="0.800781"/><stop stop-opacity="1" stop-color="rgb(12.947083%, 72.790527%, 92.562866%)" offset="0.804688"/><stop stop-opacity="1" stop-color="rgb(12.954712%, 72.988892%, 92.578125%)" offset="0.808594"/><stop stop-opacity="1" stop-color="rgb(12.962341%, 73.188782%, 92.59491%)" offset="0.8125"/><stop stop-opacity="1" stop-color="rgb(12.969971%, 73.387146%, 92.610168%)" offset="0.816406"/><stop stop-opacity="1" stop-color="rgb(12.9776%, 73.587036%, 92.625427%)" offset="0.820312"/><stop stop-opacity="1" stop-color="rgb(12.985229%, 73.7854%, 92.640686%)" offset="0.824219"/><stop stop-opacity="1" stop-color="rgb(12.992859%, 73.985291%, 92.655945%)" offset="0.828125"/><stop stop-opacity="1" stop-color="rgb(13.000488%, 74.183655%, 92.671204%)" offset="0.832031"/><stop stop-opacity="1" stop-color="rgb(13.008118%, 74.383545%, 92.686462%)" offset="0.835938"/><stop stop-opacity="1" stop-color="rgb(13.015747%, 74.581909%, 92.701721%)" offset="0.839844"/><stop stop-opacity="1" stop-color="rgb(13.023376%, 74.781799%, 92.71698%)" offset="0.84375"/><stop stop-opacity="1" stop-color="rgb(13.031006%, 74.980164%, 92.732239%)" offset="0.847656"/><stop stop-opacity="1" stop-color="rgb(13.038635%, 75.180054%, 92.747498%)" offset="0.851562"/><stop stop-opacity="1" stop-color="rgb(13.046265%, 75.378418%, 92.762756%)" offset="0.855469"/><stop stop-opacity="1" stop-color="rgb(13.053894%, 75.578308%, 92.778015%)" offset="0.859375"/><stop stop-opacity="1" stop-color="rgb(13.061523%, 75.776672%, 92.793274%)" offset="0.863281"/><stop stop-opacity="1" stop-color="rgb(13.069153%, 75.976562%, 92.808533%)" offset="0.867188"/><stop stop-opacity="1" stop-color="rgb(13.076782%, 76.174927%, 92.823792%)" offset="0.871094"/><stop stop-opacity="1" stop-color="rgb(13.084412%, 76.374817%, 92.83905%)" offset="0.875"/><stop stop-opacity="1" stop-color="rgb(13.092041%, 76.574707%, 92.854309%)" offset="0.878906"/><stop stop-opacity="1" stop-color="rgb(13.09967%, 76.774597%, 92.869568%)" offset="0.882812"/><stop stop-opacity="1" stop-color="rgb(13.1073%, 76.972961%, 92.884827%)" offset="0.886719"/><stop stop-opacity="1" stop-color="rgb(13.114929%, 77.172852%, 92.900085%)" offset="0.890625"/><stop stop-opacity="1" stop-color="rgb(13.122559%, 77.371216%, 92.915344%)" offset="0.894531"/><stop stop-opacity="1" stop-color="rgb(13.130188%, 77.571106%, 92.930603%)" offset="0.898438"/><stop stop-opacity="1" stop-color="rgb(13.137817%, 77.76947%, 92.945862%)" offset="0.902344"/><stop stop-opacity="1" stop-color="rgb(13.145447%, 77.96936%, 92.961121%)" offset="0.90625"/><stop stop-opacity="1" stop-color="rgb(13.153076%, 78.167725%, 92.976379%)" offset="0.910156"/><stop stop-opacity="1" stop-color="rgb(13.160706%, 78.367615%, 92.991638%)" offset="0.914062"/><stop stop-opacity="1" stop-color="rgb(13.168335%, 78.565979%, 93.006897%)" offset="0.917969"/><stop stop-opacity="1" stop-color="rgb(13.175964%, 78.765869%, 93.023682%)" offset="0.921875"/><stop stop-opacity="1" stop-color="rgb(13.183594%, 78.964233%, 93.03894%)" offset="0.925781"/><stop stop-opacity="1" stop-color="rgb(13.191223%, 79.164124%, 93.054199%)" offset="0.929688"/><stop stop-opacity="1" stop-color="rgb(13.198853%, 79.362488%, 93.069458%)" offset="0.933594"/><stop stop-opacity="1" stop-color="rgb(13.206482%, 79.562378%, 93.084717%)" offset="0.9375"/><stop stop-opacity="1" stop-color="rgb(13.214111%, 79.760742%, 93.099976%)" offset="0.941406"/><stop stop-opacity="1" stop-color="rgb(13.221741%, 79.960632%, 93.115234%)" offset="0.945312"/><stop stop-opacity="1" stop-color="rgb(13.22937%, 80.158997%, 93.130493%)" offset="0.949219"/><stop stop-opacity="1" stop-color="rgb(13.237%, 80.358887%, 93.145752%)" offset="0.953125"/><stop stop-opacity="1" stop-color="rgb(13.244629%, 80.557251%, 93.161011%)" offset="0.957031"/><stop stop-opacity="1" stop-color="rgb(13.252258%, 80.757141%, 93.17627%)" offset="0.960938"/><stop stop-opacity="1" stop-color="rgb(13.259888%, 80.955505%, 93.191528%)" offset="0.964844"/><stop stop-opacity="1" stop-color="rgb(13.267517%, 81.155396%, 93.206787%)" offset="0.96875"/><stop stop-opacity="1" stop-color="rgb(13.275146%, 81.35376%, 93.222046%)" offset="0.972656"/><stop stop-opacity="1" stop-color="rgb(13.282776%, 81.55365%, 93.237305%)" offset="0.976562"/><stop stop-opacity="1" stop-color="rgb(13.290405%, 81.752014%, 93.252563%)" offset="0.980469"/><stop stop-opacity="1" stop-color="rgb(13.298035%, 81.951904%, 93.267822%)" offset="0.984375"/><stop stop-opacity="1" stop-color="rgb(13.305664%, 82.150269%, 93.283081%)" offset="0.988281"/><stop stop-opacity="1" stop-color="rgb(13.313293%, 82.350159%, 93.29834%)" offset="0.992188"/><stop stop-opacity="1" stop-color="rgb(13.320923%, 82.550049%, 93.313599%)" offset="0.996094"/><stop stop-opacity="1" stop-color="rgb(13.328552%, 82.749939%, 93.328857%)" offset="1"/></linearGradient><clipPath id="2acb99b7c8"><rect x="0" width="346" y="0" height="334"/></clipPath><clipPath id="f09a4e6f34"><path d="M 171 54.382812 L 182 54.382812 L 182 56 L 171 56 Z M 171 54.382812 " clip-rule="nonzero"/></clipPath><clipPath id="d4f8029b7b"><path d="M 320 227 L 327.371094 227 L 327.371094 248 L 320 248 Z M 320 227 " clip-rule="nonzero"/></clipPath></defs><g clip-path="url(#9ada9859ab)"><g clip-path="url(#90bb154b88)"><g transform="matrix(1, 0, 0, 1, 19, 25)"><g clip-path="url(#2acb99b7c8)"><g clip-path="url(#3a416c21ba)"><g clip-path="url(#b5beeb0995)"><path fill="url(#aea1807148)" d="M 0.199219 0.757812 L 0.199219 333.234375 L 345.800781 333.234375 L 345.800781 0.757812 Z M 0.199219 0.757812 " fill-rule="nonzero"/></g></g></g></g></g></g><path fill="#ffffff" d="M 164.878906 58.914062 C 163.082031 59.128906 161.691406 59.3125 160.078125 59.535156 C 157.976562 59.820312 157.464844 59.871094 157.226562 59.828125 C 158.132812 58.691406 172.078125 57.054688 174.179688 57.839844 C 174.089844 57.925781 174.078125 57.9375 173.34375 58.03125 C 170.523438 58.34375 167.695312 58.574219 164.878906 58.914062 " fill-opacity="1" fill-rule="nonzero"/><path fill="#ffffff" d="M 153.871094 61.96875 C 145.902344 63.8125 145.902344 63.8125 145.695312 63.804688 L 145.714844 63.71875 C 148.601562 61.945312 161.878906 59.148438 163.558594 59.671875 C 163.464844 59.785156 163.449219 59.804688 162.683594 60.007812 C 159.757812 60.714844 156.804688 61.289062 153.871094 61.96875 " fill-opacity="1" fill-rule="nonzero"/><path fill="#ffffff" d="M 143.101562 66.507812 C 135.601562 69.0625 135.152344 69.214844 134.507812 69.234375 L 134.457031 69.136719 C 136.28125 67.324219 150.628906 62.503906 152.730469 62.996094 C 152.679688 63.144531 152.671875 63.167969 151.929688 63.480469 C 151.367188 63.695312 151.367188 63.695312 143.101562 66.507812 " fill-opacity="1" fill-rule="nonzero"/><path fill="#ffffff" d="M 133.308594 72.472656 C 127.125 75.277344 124.84375 76.175781 124.269531 76.03125 C 124.4375 73.988281 140.152344 67.421875 142.417969 67.792969 L 142.445312 67.941406 C 142.28125 68.109375 142.214844 68.160156 141.792969 68.417969 C 140.992188 68.871094 140 69.4375 133.308594 72.472656 " fill-opacity="1" fill-rule="nonzero"/><path fill="#ffffff" d="M 125.1875 79.792969 C 119.082031 83.332031 115.628906 84.851562 115.722656 83.960938 C 115.953125 81.660156 131.539062 72.96875 133.464844 74.070312 C 133.503906 74.257812 133.457031 74.335938 133.015625 74.761719 C 131.746094 75.824219 129.113281 77.515625 125.1875 79.792969 " fill-opacity="1" fill-rule="nonzero"/><path fill="#ffffff" d="M 119.449219 88.34375 C 113.722656 92.503906 109.453125 94.542969 109.515625 93.085938 C 109.648438 90.066406 124.339844 80.09375 126.421875 81.605469 C 126.65625 81.777344 126.492188 82.074219 126.296875 82.414062 C 124.972656 84.207031 121.4375 86.898438 119.449219 88.34375 " fill-opacity="1" fill-rule="nonzero"/><g clip-path="url(#f09a4e6f34)"><path fill="#ffffff" d="M 174.65625 55.601562 C 173.40625 55.683594 172.242188 55.8125 171.691406 55.933594 L 176.1875 55.246094 L 177.488281 55.078125 C 180.8125 54.664062 181.503906 55.222656 181.511719 55.230469 L 181.492188 55.308594 C 181.308594 55.390625 181.0625 55.414062 180.367188 55.441406 C 175.023438 55.574219 175.023438 55.574219 174.65625 55.601562 " fill-opacity="1" fill-rule="nonzero"/></g><path fill="#ffffff" d="M 163.691406 57.53125 C 162.03125 57.878906 161.121094 58.148438 160.734375 58.261719 C 163.003906 57.730469 166.027344 57.027344 168.308594 56.558594 C 170.988281 55.96875 171.761719 56.066406 171.839844 56.082031 C 171.742188 56.179688 171.722656 56.203125 170.519531 56.394531 C 166.324219 57.023438 165.570312 57.136719 163.691406 57.53125 " fill-opacity="1" fill-rule="nonzero"/><path fill="#ffffff" d="M 151.632812 60.878906 C 151.304688 60.984375 150.433594 61.273438 149.53125 61.601562 C 151.964844 60.816406 155.21875 59.785156 157.679688 59.078125 C 158.210938 58.914062 159.832031 58.414062 160.625 58.308594 C 160.425781 58.429688 160.425781 58.429688 159.257812 58.734375 C 156.324219 59.496094 154.199219 60.046875 151.632812 60.878906 " fill-opacity="1" fill-rule="nonzero"/><path fill="#ffffff" d="M 139.207031 65.660156 C 137.945312 66.199219 137.125 66.585938 136.582031 66.835938 L 142.363281 64.300781 L 146.46875 62.695312 C 147.558594 62.277344 148.332031 62.011719 148.640625 61.953125 C 148.4375 62.074219 148.425781 62.085938 147.265625 62.519531 C 144.03125 63.71875 141.894531 64.507812 139.207031 65.660156 " fill-opacity="1" fill-rule="nonzero"/><path fill="#ffffff" d="M 127.082031 71.875 C 125.789062 72.5625 123.34375 73.890625 121.457031 75.070312 C 124.644531 73.199219 128.90625 70.71875 132.167969 68.992188 C 134.566406 67.753906 135.976562 67.167969 136.453125 67.035156 C 136.382812 67.164062 136.375 67.175781 135.257812 67.742188 C 128.3125 71.21875 128.3125 71.21875 127.082031 71.875 " fill-opacity="1" fill-rule="nonzero"/><path fill="#ffffff" d="M 115.972656 79.46875 C 113.765625 80.886719 111.6875 82.511719 109.359375 83.746094 C 110.015625 82.351562 123.246094 73.667969 124.917969 73.539062 C 124.890625 73.683594 124.878906 73.726562 123.917969 74.390625 C 121.308594 76.144531 118.617188 77.773438 115.972656 79.46875 " fill-opacity="1" fill-rule="nonzero"/><path fill="#ffffff" d="M 106.546875 88.371094 C 100.683594 92.871094 99.792969 93.316406 99.414062 93.378906 C 99.011719 91.867188 113.128906 80.8125 114.667969 81.433594 C 114.695312 81.609375 114.554688 81.796875 113.957031 82.390625 C 113.308594 82.988281 112.101562 84.105469 106.546875 88.371094 " fill-opacity="1" fill-rule="nonzero"/><path fill="#ffffff" d="M 99.472656 98.453125 C 95.785156 101.824219 91.542969 105.257812 91.71875 103.832031 C 92.082031 100.816406 105.558594 88.753906 106.429688 90.660156 C 106.523438 90.871094 106.289062 91.246094 106.039062 91.644531 C 104.625 93.601562 101.6875 96.425781 99.472656 98.453125 " fill-opacity="1" fill-rule="nonzero"/><path fill="#ffffff" d="M 100.0625 91.65625 C 99.300781 92.378906 97.277344 94.304688 94.808594 96.902344 L 100.0625 91.65625 " fill-opacity="1" fill-rule="nonzero"/><path fill="#ffffff" d="M 84.867188 109.414062 C 83.210938 111.476562 81.660156 113.628906 79.917969 115.628906 C 79.960938 115.527344 80.039062 115.402344 80.097656 115.308594 C 81.945312 112.757812 84.316406 109.289062 86.253906 106.808594 L 88.71875 103.753906 C 89.546875 102.757812 91.03125 101.019531 91.675781 100.550781 L 91.757812 100.566406 C 91.667969 100.789062 91.507812 101.035156 90.941406 101.800781 C 90.367188 102.558594 90.367188 102.558594 84.867188 109.414062 " fill-opacity="1" fill-rule="nonzero"/><path fill="#ffffff" d="M 116.757812 98.003906 C 111.371094 102.890625 106.339844 105.351562 106.203125 103.164062 C 106.101562 101.546875 108.929688 97.980469 112.636719 95.046875 C 117.410156 91.261719 121.457031 89.625 122.242188 90.464844 C 122.429688 90.664062 122.378906 90.980469 122.34375 91.234375 C 121.621094 93.367188 118.535156 96.390625 116.757812 98.003906 " fill-opacity="1" fill-rule="nonzero"/><path fill="#ffffff" d="M 117.546875 108.480469 C 112.230469 114.566406 106.226562 117.269531 106.277344 113.5625 C 106.351562 107.691406 119.535156 97.949219 121.480469 100.414062 C 121.601562 100.570312 121.664062 100.839844 121.707031 101.035156 C 121.707031 103.371094 119.101562 106.703125 117.546875 108.480469 " fill-opacity="1" fill-rule="nonzero"/><path fill="#ffffff" d="M 121.730469 119.425781 C 117.246094 125.980469 110.804688 129.160156 109.847656 125.289062 C 108.4375 119.585938 119.902344 108.851562 123.621094 110.570312 C 124.054688 110.777344 124.25 111.128906 124.40625 111.414062 C 125.144531 113.898438 123.046875 117.5 121.730469 119.425781 " fill-opacity="1" fill-rule="nonzero"/><path fill="#ffffff" d="M 129.28125 130.605469 C 125.4375 137.925781 118.140625 141.445312 116.683594 136.683594 C 114.851562 130.675781 125.125 118.765625 129.769531 121.511719 C 130.015625 121.65625 130.28125 121.945312 130.46875 122.160156 C 131.945312 124.726562 130.359375 128.554688 129.28125 130.605469 " fill-opacity="1" fill-rule="nonzero"/><path fill="#ffffff" d="M 140.058594 141.832031 C 137.035156 149.578125 129.429688 153.519531 126.933594 148.644531 C 123.945312 142.804688 132.375 130.683594 138.347656 132.226562 C 139.015625 132.398438 139.445312 132.757812 139.792969 133.046875 C 141.988281 135.65625 140.898438 139.671875 140.058594 141.832031 " fill-opacity="1" fill-rule="nonzero"/><path fill="#ffffff" d="M 153.777344 152.898438 C 151.441406 161.296875 142.867188 165.554688 139.878906 159.808594 C 136.445312 153.203125 144.699219 140.992188 151.058594 143.277344 C 151.417969 143.40625 151.859375 143.683594 152.179688 143.894531 C 155.03125 146.492188 154.402344 150.652344 153.777344 152.898438 " fill-opacity="1" fill-rule="nonzero"/><path fill="#ffffff" d="M 170.078125 163.628906 C 168.472656 172.296875 159.65625 177.003906 155.789062 171.257812 C 151.609375 165.046875 158.28125 152.78125 165.308594 153.761719 C 166.160156 153.878906 166.785156 154.21875 167.289062 154.492188 C 170.84375 157.125 170.421875 161.757812 170.078125 163.628906 " fill-opacity="1" fill-rule="nonzero"/><path fill="#ffffff" d="M 188.464844 173.839844 C 187.464844 182.679688 178.507812 187.832031 173.945312 182.195312 C 168.992188 176.066406 175.007812 163.324219 182.527344 164.011719 C 183.453125 164.097656 184.152344 164.414062 184.714844 164.671875 C 188.605469 167.113281 188.734375 171.460938 188.464844 173.839844 " fill-opacity="1" fill-rule="nonzero"/><path fill="#ffffff" d="M 208.402344 183.382812 C 207.871094 192.371094 198.851562 197.96875 193.777344 192.460938 C 188.105469 186.300781 193.5 173.3125 201.582031 173.679688 C 202.554688 173.726562 203.308594 174.015625 203.914062 174.253906 C 208.308594 176.648438 208.515625 181.433594 208.402344 183.382812 " fill-opacity="1" fill-rule="nonzero"/><path fill="#ffffff" d="M 229.238281 192.117188 C 228.996094 201.171875 220.019531 207.230469 214.679688 201.933594 C 208.675781 195.976562 213.667969 182.625 221.902344 182.628906 C 222.902344 182.628906 223.6875 182.890625 224.316406 183.101562 C 228.75 185.238281 229.300781 189.667969 229.238281 192.117188 " fill-opacity="1" fill-rule="nonzero"/><path fill="#ffffff" d="M 250.316406 199.933594 C 250.203125 209.070312 241.34375 215.585938 235.957031 210.496094 C 229.914062 204.792969 234.664062 191.113281 242.820312 190.71875 C 243.820312 190.671875 244.609375 190.894531 245.246094 191.074219 C 249.730469 193.023438 250.347656 197.464844 250.316406 199.933594 " fill-opacity="1" fill-rule="nonzero"/><path fill="#ffffff" d="M 270.421875 206.828125 C 270.273438 216.085938 262.0625 222.917969 256.90625 218.074219 C 250.953125 212.476562 256.371094 197.546875 264.246094 197.847656 C 264.707031 197.863281 265.308594 198.011719 265.753906 198.125 C 269.910156 199.882812 270.460938 204.332031 270.421875 206.828125 " fill-opacity="1" fill-rule="nonzero"/><path fill="#ffffff" d="M 288.015625 212.980469 C 287.667969 222.03125 280.222656 229.289062 275.941406 224.746094 C 270.875 219.367188 275.925781 204.1875 282.789062 204.183594 C 283.1875 204.183594 283.714844 204.308594 284.101562 204.40625 C 287.867188 206.082031 288.09375 210.960938 288.015625 212.980469 " fill-opacity="1" fill-rule="nonzero"/><path fill="#ffffff" d="M 302.59375 218.492188 C 301.882812 227.324219 295.328125 234.71875 291.964844 230.488281 C 287.722656 225.140625 293.371094 208.976562 299.160156 209.898438 C 299.328125 209.921875 299.539062 209.996094 299.699219 210.042969 C 302.800781 211.59375 302.757812 216.46875 302.59375 218.492188 " fill-opacity="1" fill-rule="nonzero"/><path fill="#ffffff" d="M 313.796875 223.277344 C 312.6875 231.398438 307.453125 238.746094 304.90625 235.753906 C 301.515625 231.765625 307.210938 214.3125 311.683594 215.003906 C 311.8125 215.023438 311.972656 215.089844 312.097656 215.125 C 314.441406 216.558594 314.066406 221.300781 313.796875 223.277344 " fill-opacity="1" fill-rule="nonzero"/><path fill="#ffffff" d="M 321.355469 227.410156 C 319.871094 234.742188 315.691406 242.011719 314.019531 240.160156 C 311.464844 237.328125 317.386719 218.964844 320.691406 219.476562 C 320.777344 219.488281 320.882812 219.546875 320.96875 219.578125 C 322.488281 220.871094 321.746094 225.484375 321.355469 227.410156 " fill-opacity="1" fill-rule="nonzero"/><path fill="#ffffff" d="M 325.121094 231.074219 C 323.179688 238.242188 319.945312 244.738281 319.136719 243.90625 C 317.910156 242.632812 324.402344 223.089844 325.953125 223.402344 L 326.085938 223.488281 C 326.757812 224.742188 325.515625 229.613281 325.121094 231.074219 " fill-opacity="1" fill-rule="nonzero"/><g clip-path="url(#d4f8029b7b)"><path fill="#ffffff" d="M 323.839844 238.238281 L 320.441406 246.734375 C 320.382812 246.855469 320.308594 247.019531 320.25 247.140625 C 320.324219 246.648438 327.265625 227.144531 327.328125 227 L 327.347656 227.042969 C 327.324219 227.148438 327.285156 227.285156 327.261719 227.390625 C 326.242188 230.648438 325.050781 235.046875 323.839844 238.238281 " fill-opacity="1" fill-rule="nonzero"/></g><path fill="#ffffff" d="M 95.363281 109.589844 C 90.789062 114.605469 86.988281 117.1875 86.894531 115.332031 C 86.699219 111.636719 98.78125 99.128906 100.792969 100.941406 C 101.050781 101.171875 100.941406 101.582031 100.824219 102.015625 C 99.867188 104.445312 96.992188 107.804688 95.363281 109.589844 " fill-opacity="1" fill-rule="nonzero"/><path fill="#ffffff" d="M 94.808594 121.601562 C 90.503906 127.320312 85.925781 130.226562 85.390625 127.589844 C 84.492188 123.136719 95.183594 110.488281 98.390625 112.214844 C 98.839844 112.457031 98.875 112.878906 98.914062 113.367188 C 98.707031 116.066406 96.25 119.6875 94.808594 121.601562 " fill-opacity="1" fill-rule="nonzero"/><path fill="#ffffff" d="M 98.183594 134.242188 C 94.230469 140.734375 88.816406 143.890625 87.652344 140.390625 C 85.820312 134.875 96.074219 121.769531 100.121094 124.453125 C 100.511719 124.714844 100.683594 125.136719 100.824219 125.46875 C 101.441406 128.320312 99.433594 132.1875 98.183594 134.242188 " fill-opacity="1" fill-rule="nonzero"/><path fill="#ffffff" d="M 105.191406 147.039062 C 101.675781 154.308594 95.429688 157.746094 93.660156 153.382812 C 91.203125 147.304688 100.246094 134.507812 105.320312 136.886719 C 105.847656 137.132812 106.152344 137.554688 106.394531 137.894531 C 107.785156 140.808594 106.238281 144.875 105.191406 147.039062 " fill-opacity="1" fill-rule="nonzero"/><path fill="#ffffff" d="M 115.617188 159.792969 C 112.664062 167.691406 105.371094 171.414062 103.03125 166.21875 C 100.140625 159.820312 108.246094 147.394531 114.003906 149.390625 C 114.65625 149.617188 115.082031 150.035156 115.421875 150.367188 C 117.558594 153.300781 116.460938 157.53125 115.617188 159.792969 " fill-opacity="1" fill-rule="nonzero"/><path fill="#ffffff" d="M 129.152344 172.300781 C 126.847656 180.460938 119.144531 184.578125 115.859375 179.410156 C 111.800781 173.03125 119.25 160.011719 125.945312 161.777344 C 126.71875 161.980469 127.253906 162.390625 127.6875 162.714844 C 130.5 165.613281 129.816406 169.964844 129.152344 172.300781 " fill-opacity="1" fill-rule="nonzero"/><path fill="#ffffff" d="M 145.414062 184.394531 C 143.578125 193.285156 134.867188 197.597656 131.070312 191.503906 C 126.785156 184.621094 133.523438 172.421875 140.808594 173.863281 C 141.679688 174.03125 142.308594 174.421875 142.816406 174.734375 C 146.226562 177.5625 145.90625 182 145.414062 184.394531 " fill-opacity="1" fill-rule="nonzero"/><path fill="#ffffff" d="M 163.871094 195.90625 C 162.523438 204.914062 153.503906 209.636719 149.023438 203.683594 C 143.933594 196.921875 150.242188 184.328125 158.148438 185.46875 C 159.097656 185.609375 159.808594 185.976562 160.378906 186.269531 C 164.265625 188.984375 164.234375 193.472656 163.871094 195.90625 " fill-opacity="1" fill-rule="nonzero"/><path fill="#ffffff" d="M 183.96875 206.707031 C 182.96875 215.8125 173.734375 220.9375 168.761719 215.144531 C 163.132812 208.578125 169.121094 195.652344 177.425781 196.449219 C 178.429688 196.546875 179.195312 196.882812 179.8125 197.15625 C 184.058594 199.726562 184.238281 204.246094 183.96875 206.707031 " fill-opacity="1" fill-rule="nonzero"/><path fill="#ffffff" d="M 205.039062 216.660156 C 204.152344 226.371094 194.003906 231.71875 189.070312 225.078125 C 183.777344 217.957031 190.566406 205.285156 198.882812 206.757812 C 199.390625 206.847656 200.042969 207.085938 200.527344 207.269531 C 204.980469 209.667969 205.265625 214.183594 205.039062 216.660156 " fill-opacity="1" fill-rule="nonzero"/><path fill="#ffffff" d="M 226.402344 225.683594 C 225.519531 235.292969 215.335938 241.046875 210.378906 234.738281 C 204.984375 227.875 211.753906 214.957031 220.167969 216.054688 C 220.675781 216.117188 221.339844 216.328125 221.824219 216.492188 C 226.339844 218.695312 226.632812 223.195312 226.402344 225.683594 " fill-opacity="1" fill-rule="nonzero"/><path fill="#ffffff" d="M 247.324219 233.621094 C 246.230469 242.886719 236.121094 248.910156 231.421875 243.097656 C 226.332031 236.804688 233.324219 223.6875 241.398438 224.382812 C 241.898438 224.425781 242.550781 224.605469 243.03125 224.742188 C 247.609375 226.8125 247.558594 231.640625 247.324219 233.621094 " fill-opacity="1" fill-rule="nonzero"/><path fill="#ffffff" d="M 266.816406 240.253906 C 265.390625 249.136719 255.664062 255.402344 251.511719 250.113281 C 246.785156 244.09375 255.015625 230.328125 262.519531 231.703125 C 262.746094 231.742188 263.035156 231.835938 263.257812 231.894531 C 267.394531 233.683594 267.125 238.335938 266.816406 240.253906 " fill-opacity="1" fill-rule="nonzero"/><path fill="#ffffff" d="M 283.25 245.8125 C 281.367188 254.351562 272.578125 260.753906 269.421875 255.882812 C 265.804688 250.296875 273.847656 236.746094 280.183594 237.761719 C 280.371094 237.792969 280.617188 237.871094 280.800781 237.914062 C 284.242188 239.46875 283.660156 243.953125 283.25 245.8125 " fill-opacity="1" fill-rule="nonzero"/><path fill="#ffffff" d="M 296.21875 250.457031 C 293.90625 258.265625 286.570312 264.742188 284.140625 261.117188 C 280.996094 256.4375 289.160156 242.101562 294.539062 242.855469 C 294.6875 242.875 294.878906 242.941406 295.03125 242.976562 C 297.699219 244.332031 296.75 248.660156 296.21875 250.457031 " fill-opacity="1" fill-rule="nonzero"/><path fill="#ffffff" d="M 305.539062 254.375 C 302.699219 261.816406 296.09375 268.402344 294.828125 265.054688 C 293.355469 261.15625 301.339844 246.058594 305.699219 247.246094 C 307.550781 248.449219 306.203125 252.632812 305.539062 254.375 " fill-opacity="1" fill-rule="nonzero"/><path fill="#ffffff" d="M 311.105469 257.742188 C 307.917969 264.5 302.355469 271.046875 301.8125 268.6875 C 301.222656 266.136719 309.890625 249.902344 312.648438 250.902344 C 313.683594 252.023438 311.726562 256.421875 311.105469 257.742188 " fill-opacity="1" fill-rule="nonzero"/><path fill="#ffffff" d="M 312.929688 260.726562 C 309.75 266.398438 305.804688 271.730469 304.921875 271.960938 C 304.484375 270.773438 314.402344 254.371094 315.75 254.046875 L 315.828125 254.113281 C 315.972656 255.234375 313.4375 259.820312 312.929688 260.726562 " fill-opacity="1" fill-rule="nonzero"/><path fill="#ffffff" d="M 314.484375 258.664062 C 311.875 262.929688 308.324219 268.582031 305.457031 272.679688 C 308.777344 268.132812 312.621094 261.988281 314.703125 258.273438 L 314.484375 258.664062 " fill-opacity="1" fill-rule="nonzero"/><path fill="#ffffff" d="M 78.917969 121.785156 C 77.445312 123.925781 73.964844 128.859375 73.355469 128.519531 C 72.863281 126.539062 83.179688 111.089844 84.285156 112.152344 C 84.46875 112.328125 84.171875 113.050781 83.988281 113.484375 C 83.078125 115.421875 81.367188 118.214844 78.917969 121.785156 " fill-opacity="1" fill-rule="nonzero"/><path fill="#ffffff" d="M 76.417969 134.992188 C 73.695312 139.691406 70.558594 143.554688 70.015625 141.886719 C 68.929688 138.578125 77.574219 123.628906 79.960938 124.6875 C 80.382812 124.871094 80.308594 125.640625 80.257812 126.101562 C 79.707031 129.011719 77.613281 132.921875 76.414062 134.992188 " fill-opacity="1" fill-rule="nonzero"/><path fill="#ffffff" d="M 77.832031 148.851562 C 74.839844 155.128906 71.0625 158.414062 70.207031 155.480469 C 68.667969 150.21875 76.285156 136.097656 79.574219 138.113281 C 80.035156 138.398438 80.148438 138.914062 80.269531 139.460938 C 80.546875 142.59375 78.859375 146.691406 77.832031 148.851562 " fill-opacity="1" fill-rule="nonzero"/><path fill="#ffffff" d="M 83.476562 163.109375 C 80.773438 170.179688 76.109375 173.566406 74.402344 169.703125 C 71.851562 163.921875 78.632812 150.183594 83.144531 151.992188 C 83.847656 152.273438 84.132812 152.804688 84.433594 153.363281 C 85.609375 156.585938 84.335938 160.855469 83.476562 163.109375 " fill-opacity="1" fill-rule="nonzero"/><path fill="#ffffff" d="M 92.890625 177.277344 C 90.617188 184.980469 84.996094 188.570312 82.523438 183.902344 C 79.15625 177.546875 85.113281 164.503906 90.699219 166.011719 C 91.597656 166.253906 92.027344 166.773438 92.480469 167.324219 C 94.441406 170.542969 93.578125 174.941406 92.890625 177.277344 " fill-opacity="1" fill-rule="nonzero"/><path fill="#ffffff" d="M 105.636719 191.101562 C 103.789062 199.421875 97.128906 203.179688 93.953125 197.691406 C 90.09375 191.011719 95.488281 178.648438 101.753906 179.816406 C 102.824219 180.015625 103.390625 180.523438 103.984375 181.054688 C 106.660156 184.222656 106.167969 188.707031 105.636719 191.101562 " fill-opacity="1" fill-rule="nonzero"/><path fill="#ffffff" d="M 121.285156 204.417969 C 119.910156 212.890625 112.761719 216.988281 108.746094 211.601562 C 103.875 205.070312 108.847656 192.363281 115.933594 193.230469 C 117.15625 193.378906 117.832031 193.859375 118.550781 194.371094 C 121.847656 197.449219 121.675781 201.988281 121.285156 204.417969 " fill-opacity="1" fill-rule="nonzero"/><path fill="#ffffff" d="M 139.28125 217.082031 C 138.210938 226.105469 129.96875 230.335938 125.496094 224.15625 C 120.363281 217.050781 125.90625 204.625 133.515625 206.191406 C 134.4375 206.382812 135.132812 206.792969 135.695312 207.125 C 139.496094 210.074219 139.574219 214.632812 139.28125 217.085938 " fill-opacity="1" fill-rule="nonzero"/><path fill="#ffffff" d="M 159 228.953125 C 158.171875 237.777344 149.566406 242.257812 144.617188 236.445312 C 139.230469 230.125 143.90625 218.050781 151.664062 218.246094 C 153.101562 218.285156 153.9375 218.707031 154.828125 219.152344 C 158.996094 221.945312 159.230469 226.492188 159 228.953125 " fill-opacity="1" fill-rule="nonzero"/><path fill="#ffffff" d="M 179.78125 239.75 C 178.945312 248.757812 169.296875 253.207031 164.367188 246.847656 C 159.234375 240.226562 164.863281 228.796875 172.855469 229.625 C 173.890625 229.730469 174.683594 230.078125 175.324219 230.355469 C 179.882812 233.054688 179.957031 237.824219 179.78125 239.75 " fill-opacity="1" fill-rule="nonzero"/><path fill="#ffffff" d="M 200.878906 249.242188 C 199.890625 257.875 190.0625 262.523438 185.179688 256.671875 C 180.066406 250.539062 185.898438 239.367188 193.964844 239.828125 C 195.019531 239.890625 195.824219 240.1875 196.476562 240.429688 C 201.082031 242.824219 201.089844 247.390625 200.875 249.242188 " fill-opacity="1" fill-rule="nonzero"/><path fill="#ffffff" d="M 221.605469 257.414062 C 220.242188 265.980469 209.429688 270.714844 205.316406 264.546875 C 200.882812 257.902344 208.886719 246.953125 216.742188 248.925781 C 216.984375 248.988281 217.300781 249.101562 217.542969 249.179688 C 222.0625 251.277344 221.890625 255.636719 221.605469 257.414062 " fill-opacity="1" fill-rule="nonzero"/><path fill="#ffffff" d="M 241.257812 264.242188 C 239.375 272.417969 228.652344 277.40625 225.097656 271.761719 C 221.257812 265.660156 229.660156 254.882812 237.09375 256.390625 C 237.324219 256.433594 237.625 256.535156 237.855469 256.597656 C 242.105469 258.382812 241.652344 262.539062 241.257812 264.242188 " fill-opacity="1" fill-rule="nonzero"/><path fill="#ffffff" d="M 259.085938 269.792969 C 256.566406 277.601562 246.140625 282.828125 243.367188 277.667969 C 240.453125 272.230469 249.003906 260.902344 256.679688 262.683594 C 260.4375 264.175781 259.613281 268.152344 259.085938 269.792969 " fill-opacity="1" fill-rule="nonzero"/><path fill="#ffffff" d="M 273.566406 274.296875 C 270.382812 281.703125 260.898438 287.058594 259.273438 282.363281 C 257.585938 277.476562 266.492188 266.308594 272.535156 267.652344 C 275.496094 268.925781 274.242188 272.722656 273.566406 274.296875 " fill-opacity="1" fill-rule="nonzero"/><path fill="#ffffff" d="M 284.34375 277.976562 C 280.609375 284.742188 272.503906 290.191406 271.589844 286.550781 C 270.5625 282.460938 279.953125 270.652344 284.742188 271.734375 C 286.886719 272.835938 285.175781 276.464844 284.34375 277.976562 " fill-opacity="1" fill-rule="nonzero"/><path fill="#ffffff" d="M 291.359375 281.015625 C 287.296875 286.960938 280.132812 292.519531 279.921875 289.890625 C 279.667969 286.753906 289.929688 274.253906 293.21875 275.109375 C 294.519531 276.074219 292.351562 279.5625 291.359375 281.015625 " fill-opacity="1" fill-rule="nonzero"/><path fill="#ffffff" d="M 294.679688 283.589844 C 290.90625 288.214844 285.308594 293.25 284.347656 292.878906 C 283.710938 291.386719 296.039062 277.667969 297.808594 277.898438 L 297.953125 277.957031 C 298.441406 278.898438 295.308594 282.8125 294.679688 283.589844 " fill-opacity="1" fill-rule="nonzero"/><path fill="#ffffff" d="M 294.449219 285.875 C 293.96875 286.382812 293.484375 286.886719 292.996094 287.390625 L 289.222656 291.117188 C 286.96875 293.25 285.445312 294.570312 284.941406 294.929688 C 285.046875 294.367188 298.914062 280.453125 299.035156 280.402344 L 299.046875 280.453125 C 298.707031 281.167969 296.476562 283.722656 294.449219 285.875 " fill-opacity="1" fill-rule="nonzero"/><path fill="#ffffff" d="M 64.609375 148.953125 C 62.046875 155.835938 61.765625 156.351562 61.628906 156.597656 C 61.578125 156.421875 61.574219 156.410156 61.90625 155.179688 L 64.742188 146.070312 L 66.011719 142.601562 C 66.429688 141.515625 67.542969 138.636719 68.140625 137.921875 L 68.25 137.929688 C 68.265625 138.203125 68.203125 138.503906 67.9375 139.464844 C 67.613281 140.539062 67.074219 142.335938 64.609375 148.953125 " fill-opacity="1" fill-rule="nonzero"/><path fill="#ffffff" d="M 63.75 163.691406 C 62.34375 168.429688 60.59375 172.644531 59.972656 171.539062 C 58.535156 168.957031 63.121094 152.109375 65.25 152.152344 C 65.726562 152.164062 65.742188 153.140625 65.753906 153.785156 C 65.621094 156.84375 64.589844 160.859375 63.75 163.691406 " fill-opacity="1" fill-rule="nonzero"/><path fill="#ffffff" d="M 67.023438 178.839844 C 65.832031 184.117188 63.617188 188.5625 62.214844 186.753906 C 59.523438 183.285156 62.828125 167 66.238281 166.957031 C 67.054688 166.945312 67.375 167.953125 67.585938 168.617188 C 68.328125 172.035156 67.550781 176.488281 67.023438 178.839844 " fill-opacity="1" fill-rule="nonzero"/><path fill="#ffffff" d="M 74.625 194.144531 C 73.53125 201.050781 70.304688 204.738281 68.121094 201.589844 C 64.328125 196.121094 67.21875 181.207031 71.890625 182.121094 C 72.828125 182.304688 73.394531 183.207031 73.730469 183.746094 C 75.402344 187.203125 75.007812 191.746094 74.625 194.144531 " fill-opacity="1" fill-rule="nonzero"/><path fill="#ffffff" d="M 86.023438 209.121094 C 85.273438 216.683594 81.28125 220.386719 78.109375 216.464844 C 73.402344 210.644531 75.816406 196.597656 81.417969 197.195312 C 82.605469 197.320312 83.394531 198.191406 83.867188 198.707031 C 86.304688 202.101562 86.261719 206.691406 86.023438 209.121094 " fill-opacity="1" fill-rule="nonzero"/><path fill="#ffffff" d="M 100.519531 223.445312 C 100.109375 231.199219 95.132812 234.902344 91.167969 230.390625 C 85.894531 224.382812 88.085938 211.515625 94.339844 211.777344 C 95.738281 211.835938 96.726562 212.664062 97.316406 213.160156 C 100.398438 216.4375 100.644531 221.011719 100.519531 223.445312 " fill-opacity="1" fill-rule="nonzero"/><path fill="#ffffff" d="M 117.53125 236.742188 C 117.351562 244.613281 111.28125 248.238281 106.699219 243.203125 C 101.21875 237.171875 103.449219 225.703125 110.109375 225.671875 C 111.679688 225.664062 112.824219 226.433594 113.507812 226.894531 C 117.132812 229.992188 117.585938 234.390625 117.53125 236.742188 " fill-opacity="1" fill-rule="nonzero"/><path fill="#ffffff" d="M 136.351562 248.835938 C 136.257812 256.773438 129.054688 260.3125 124.117188 254.84375 C 118.621094 248.75 121.761719 237.917969 128.855469 238.519531 C 130.175781 238.632812 130.980469 239.078125 131.832031 239.550781 C 135.828125 242.382812 136.382812 246.582031 136.351562 248.835938 " fill-opacity="1" fill-rule="nonzero"/><path fill="#ffffff" d="M 156.300781 259.671875 C 156.121094 267.230469 148.496094 270.875 143.347656 265.851562 C 137.609375 260.253906 140.976562 249.804688 148.425781 250.101562 C 149.820312 250.15625 150.667969 250.554688 151.570312 250.972656 C 155.804688 253.535156 156.347656 257.519531 156.300781 259.671875 " fill-opacity="1" fill-rule="nonzero"/><path fill="#ffffff" d="M 176.621094 269.175781 C 176.164062 276.730469 167.496094 280.3125 162.574219 274.984375 C 157.539062 269.535156 161.4375 260.40625 168.800781 260.402344 C 170.242188 260.402344 171.105469 260.746094 172.023438 261.105469 C 176.3125 263.378906 176.746094 267.140625 176.621094 269.175781 " fill-opacity="1" fill-rule="nonzero"/><path fill="#ffffff" d="M 196.644531 277.363281 C 195.683594 284.917969 186.085938 288.445312 181.761719 282.832031 C 177.347656 277.101562 183.398438 268.234375 190.882812 269.472656 C 191.367188 269.554688 191.992188 269.753906 192.457031 269.914062 C 196.671875 271.894531 196.890625 275.429688 196.644531 277.363281 " fill-opacity="1" fill-rule="nonzero"/><path fill="#ffffff" d="M 215.667969 284.210938 C 214.007812 291.554688 203.546875 295.105469 200.332031 289.414062 C 197.105469 283.691406 204.488281 275.570312 211.464844 277.175781 C 211.691406 277.226562 211.988281 277.324219 212.207031 277.390625 C 216.179688 279.078125 216.082031 282.386719 215.667969 284.210938 " fill-opacity="1" fill-rule="nonzero"/><path fill="#ffffff" d="M 233.101562 289.777344 C 230.621094 296.6875 220.265625 300.449219 217.921875 295.289062 C 215.648438 290.289062 223.414062 281.78125 230.601562 283.554688 C 234.214844 284.960938 233.722656 288.058594 233.101562 289.777344 " fill-opacity="1" fill-rule="nonzero"/><path fill="#ffffff" d="M 248.335938 294.128906 C 244.921875 300.617188 234.839844 304.578125 233.554688 299.929688 C 232.304688 295.414062 240.800781 287.171875 247.070312 288.464844 C 250.28125 289.644531 249.023438 292.820312 248.335938 294.128906 " fill-opacity="1" fill-rule="nonzero"/><path fill="#ffffff" d="M 260.152344 297.507812 C 256.066406 303.246094 247.234375 307.382812 246.648438 303.832031 C 246.027344 300.0625 255.511719 291.328125 260.449219 292.304688 C 262.824219 293.285156 261.03125 296.269531 260.152344 297.507812 " fill-opacity="1" fill-rule="nonzero"/><path fill="#ffffff" d="M 268.15625 300.148438 C 263.839844 304.855469 256.25 309.085938 255.859375 307.015625 C 255.375 304.457031 266.246094 294.566406 270.03125 295.34375 C 271.5625 296.167969 269.230469 298.976562 268.15625 300.148438 " fill-opacity="1" fill-rule="nonzero"/><path fill="#ffffff" d="M 272.464844 302.242188 C 267.71875 306.421875 260.785156 310.386719 261.003906 309.125 C 261.28125 307.457031 273.617188 297.191406 275.855469 297.765625 C 276.59375 298.535156 273.160156 301.628906 272.464844 302.242188 " fill-opacity="1" fill-rule="nonzero"/><path fill="#ffffff" d="M 273.257812 303.964844 C 268.496094 307.472656 263.089844 310.617188 262.367188 310.808594 C 262.621094 309.996094 277.59375 299.457031 278.074219 299.753906 C 277.925781 300.382812 274.859375 302.78125 273.257812 303.964844 " fill-opacity="1" fill-rule="nonzero"/><path fill="#ffffff" d="M 267.640625 307.890625 L 267.144531 308.203125 C 270.664062 306.003906 273.757812 303.828125 275.734375 302.386719 C 273.3125 304.042969 270.128906 306.328125 267.640625 307.890625 " fill-opacity="1" fill-rule="nonzero"/><path fill="#ffffff" d="M 57.613281 179.136719 C 57.453125 180.8125 57.367188 182.109375 57.335938 182.535156 C 57.777344 178.328125 58.308594 172.707031 58.964844 168.527344 L 58.921875 168.78125 C 58.175781 173.472656 57.730469 177.894531 57.613281 179.136719 " fill-opacity="1" fill-rule="nonzero"/><path fill="#ffffff" d="M 58.507812 194.84375 C 58.421875 197.597656 58.222656 202.363281 57.878906 203.273438 L 57.765625 203.285156 C 57.066406 201.625 56.605469 184.71875 57.878906 182.570312 L 58.054688 182.558594 C 58.226562 182.839844 58.296875 183.175781 58.421875 184.242188 C 58.496094 185.152344 58.726562 187.90625 58.507812 194.84375 " fill-opacity="1" fill-rule="nonzero"/><path fill="#ffffff" d="M 63.574219 210.554688 C 63.703125 215.316406 63.179688 219.761719 61.960938 218.625 C 59.238281 216.089844 58.183594 198.367188 60.75 198.230469 C 61.347656 198.199219 61.792969 199.304688 62.058594 199.964844 C 63.226562 203.472656 63.511719 208.105469 63.574219 210.558594 " fill-opacity="1" fill-rule="nonzero"/><path fill="#ffffff" d="M 72.839844 225.859375 C 73.277344 231.546875 71.941406 235.007812 69.925781 233.414062 C 65.730469 230.101562 63.953125 214.039062 67.761719 213.882812 C 68.71875 213.84375 69.488281 214.921875 69.949219 215.566406 C 72.042969 219.066406 72.660156 223.519531 72.839844 225.859375 " fill-opacity="1" fill-rule="nonzero"/><path fill="#ffffff" d="M 85.667969 240.28125 C 86.363281 246.179688 84.371094 249.515625 81.402344 247.414062 C 76.089844 243.660156 73.910156 230.257812 78.410156 229.03125 C 79.851562 228.632812 81.132812 229.890625 81.75 230.496094 C 84.539062 233.769531 85.402344 238.03125 85.667969 240.28125 " fill-opacity="1" fill-rule="nonzero"/><path fill="#ffffff" d="M 101.144531 253.535156 C 102.066406 259.882812 98.894531 263.03125 94.855469 259.78125 C 89.007812 255.0625 87.730469 243.441406 93.007812 242.972656 C 94.507812 242.839844 95.734375 243.757812 96.464844 244.308594 C 99.8125 247.347656 100.835938 251.394531 101.144531 253.535156 " fill-opacity="1" fill-rule="nonzero"/><path fill="#ffffff" d="M 118.550781 265.515625 C 119.515625 271.890625 115.410156 274.898438 110.703125 271.257812 C 104.601562 266.539062 103.84375 256.417969 109.539062 255.785156 C 111.238281 255.59375 112.609375 256.425781 113.429688 256.921875 C 117.167969 259.6875 118.242188 263.492188 118.550781 265.515625 " fill-opacity="1" fill-rule="nonzero"/><path fill="#ffffff" d="M 137.160156 276.179688 C 138.011719 282.433594 132.847656 285.324219 127.792969 281.421875 C 121.972656 276.929688 121.921875 268.097656 127.714844 267.320312 C 129.558594 267.070312 131.023438 267.804688 131.894531 268.242188 C 135.878906 270.722656 136.90625 274.277344 137.160156 276.179688 " fill-opacity="1" fill-rule="nonzero"/><path fill="#ffffff" d="M 156.242188 285.480469 C 156.777344 291.550781 150.5625 294.332031 145.519531 290.277344 C 140.132812 285.953125 140.890625 278.441406 146.808594 277.523438 C 148.765625 277.21875 150.261719 277.855469 151.160156 278.234375 C 155.21875 280.417969 156.085938 283.710938 156.242188 285.480469 " fill-opacity="1" fill-rule="nonzero"/><path fill="#ffffff" d="M 175.089844 293.425781 C 175.125 299.628906 167.273438 302.121094 162.734375 297.347656 C 158.417969 292.808594 161.289062 286.171875 167.53125 286.253906 C 168.828125 286.273438 169.632812 286.558594 170.480469 286.867188 C 174.46875 288.757812 175.082031 291.789062 175.089844 293.425781 " fill-opacity="1" fill-rule="nonzero"/><path fill="#ffffff" d="M 193.023438 300.035156 C 192.285156 306.023438 183.628906 308.417969 179.976562 303.648438 C 176.476562 299.066406 181.433594 292.808594 187.777344 293.800781 C 188.210938 293.867188 188.773438 294.03125 189.191406 294.160156 C 192.960938 295.757812 193.210938 298.523438 193.023438 300.035156 " fill-opacity="1" fill-rule="nonzero"/><path fill="#ffffff" d="M 209.449219 305.355469 C 207.738281 311.015625 198.394531 313.378906 196.117188 308.730469 C 194.03125 304.46875 200.167969 298.441406 206.628906 300.140625 C 210.054688 301.457031 209.867188 303.972656 209.449219 305.355469 " fill-opacity="1" fill-rule="nonzero"/><path fill="#ffffff" d="M 223.796875 309.472656 C 221.011719 314.59375 211.84375 317.105469 210.726562 313.058594 C 209.691406 309.320312 216.628906 303.632812 222.238281 304.875 C 225.3125 305.96875 224.351562 308.453125 223.796875 309.472656 " fill-opacity="1" fill-rule="nonzero"/><path fill="#ffffff" d="M 235.636719 312.480469 C 232.289062 316.417969 223.386719 319.816406 223 316.5625 C 222.625 313.398438 230.625 307.570312 235.496094 308.449219 C 237.996094 309.296875 236.429688 311.550781 235.636719 312.480469 " fill-opacity="1" fill-rule="nonzero"/><path fill="#ffffff" d="M 244.097656 314.605469 C 239.988281 318 232.355469 320.925781 232.261719 319.140625 C 232.15625 317.167969 241.609375 310.375 245.671875 311.046875 C 247.386719 311.726562 244.898438 313.941406 244.097656 314.605469 " fill-opacity="1" fill-rule="nonzero"/><path fill="#ffffff" d="M 248.8125 316.097656 C 244.65625 318.65625 238.285156 321.203125 237.605469 320.777344 C 237.480469 319.953125 249.5 312.496094 252.039062 312.933594 C 252.921875 313.503906 249.503906 315.671875 248.8125 316.097656 " fill-opacity="1" fill-rule="nonzero"/><path fill="#ffffff" d="M 250.007812 317.136719 C 244.996094 319.542969 239.585938 321.390625 239.070312 321.519531 C 239.1875 321.4375 253.988281 314.09375 254.785156 314.308594 C 254.421875 314.980469 251.035156 316.644531 250.007812 317.136719 " fill-opacity="1" fill-rule="nonzero"/><path fill="#ffffff" d="M 246.960938 318.582031 C 248.464844 317.953125 250.421875 317.117188 253.554688 315.644531 L 246.960938 318.582031 " fill-opacity="1" fill-rule="nonzero"/><path fill="#ffffff" d="M 61.527344 225.929688 C 62.191406 228.699219 62.746094 230.820312 63.234375 232.414062 L 60.449219 222.050781 L 58.898438 214.140625 C 59.023438 214.703125 59.144531 215.269531 59.269531 215.839844 C 60.121094 219.753906 60.792969 222.847656 61.527344 225.929688 " fill-opacity="1" fill-rule="nonzero"/><path fill="#ffffff" d="M 68.109375 240.609375 C 68.558594 242.113281 70.003906 247.082031 69.730469 247.871094 C 68.996094 247.792969 66.597656 241.957031 65.152344 237.773438 C 63.671875 233.5 62.835938 229.683594 63.289062 229.273438 C 63.601562 228.992188 64.261719 230.28125 64.578125 230.898438 C 65.707031 233.285156 66.894531 236.550781 68.109375 240.609375 " fill-opacity="1" fill-rule="nonzero"/><path fill="#ffffff" d="M 78.421875 254.601562 C 79.734375 258.359375 80.351562 261.90625 78.996094 261.410156 C 75.746094 260.21875 69.21875 244.777344 71.5625 243.828125 C 72.253906 243.550781 73.324219 244.84375 73.78125 245.394531 C 76 248.375 77.53125 252.046875 78.421875 254.601562 " fill-opacity="1" fill-rule="nonzero"/><path fill="#ffffff" d="M 91.90625 267.589844 C 93.367188 271.355469 93.652344 274.851562 91.300781 273.910156 C 86.46875 271.976562 80.035156 258.574219 83.484375 257.617188 C 84.527344 257.324219 85.894531 258.511719 86.480469 259.015625 C 89.433594 261.925781 91.148438 265.636719 91.90625 267.589844 " fill-opacity="1" fill-rule="nonzero"/><path fill="#ffffff" d="M 107.46875 279.230469 C 109.011719 283.003906 108.738281 286.3125 105.613281 285.066406 C 100.160156 282.898438 94.320312 272.007812 97.703125 270.316406 C 99.050781 269.644531 100.847656 270.855469 101.617188 271.375 C 104.988281 274 106.730469 277.421875 107.46875 279.230469 " fill-opacity="1" fill-rule="nonzero"/><path fill="#ffffff" d="M 124.363281 289.480469 C 126.089844 293.734375 124.601562 296.164062 121.117188 294.789062 C 115.054688 292.398438 110.148438 283.238281 114.023438 281.539062 C 115.609375 280.847656 117.554688 281.910156 118.386719 282.363281 C 122.019531 284.699219 123.691406 287.828125 124.363281 289.480469 " fill-opacity="1" fill-rule="nonzero"/><path fill="#ffffff" d="M 141.820312 298.320312 C 143.261719 302.242188 141.265625 305.066406 136.527344 302.828125 C 130.566406 300.007812 127.394531 292.941406 131.382812 291.371094 C 133.171875 290.664062 135.191406 291.578125 136.054688 291.96875 C 139.785156 294 141.269531 296.820312 141.820312 298.320312 " fill-opacity="1" fill-rule="nonzero"/><path fill="#ffffff" d="M 159.128906 305.761719 C 160.25 309.667969 156.847656 312.199219 151.828125 309.433594 C 146.453125 306.472656 145.121094 300.707031 149.566406 299.648438 C 151.359375 299.21875 153.113281 299.886719 153.863281 300.171875 C 157.542969 301.902344 158.742188 304.417969 159.128906 305.761719 " fill-opacity="1" fill-rule="nonzero"/><path fill="#ffffff" d="M 175.59375 311.832031 C 176.214844 316.171875 170.492188 317.734375 166.171875 314.40625 C 162.347656 311.460938 163.023438 307.210938 167.417969 306.574219 C 169.070312 306.335938 170.367188 306.753906 171.140625 307.003906 C 174.621094 308.4375 175.421875 310.644531 175.59375 311.832031 " fill-opacity="1" fill-rule="nonzero"/><path fill="#ffffff" d="M 190.609375 316.605469 C 190.273438 320.664062 183.304688 321.972656 180.253906 318.550781 C 177.640625 315.621094 180.695312 311.867188 185.4375 312.167969 C 186.175781 312.21875 186.753906 312.375 187.21875 312.5 C 190.371094 313.652344 190.699219 315.566406 190.609375 316.605469 " fill-opacity="1" fill-rule="nonzero"/><path fill="#ffffff" d="M 203.628906 320.15625 C 201.980469 323.988281 194.203125 325.066406 193.089844 321.617188 C 192.21875 318.90625 196.875 315.691406 201.535156 316.746094 C 204.347656 317.667969 203.9375 319.4375 203.628906 320.15625 " fill-opacity="1" fill-rule="nonzero"/><path fill="#ffffff" d="M 214.195312 322.601562 C 211.710938 325.238281 204.265625 327.03125 204.175781 324.457031 C 204.105469 322.457031 209.441406 319.082031 213.574219 319.832031 C 215.851562 320.507812 214.765625 321.992188 214.195312 322.601562 " fill-opacity="1" fill-rule="nonzero"/><path fill="#ffffff" d="M 221.960938 324.082031 C 218.882812 325.894531 212.164062 327.496094 212.246094 326.394531 C 212.335938 325.203125 219.375 321.40625 222.957031 321.882812 C 224.71875 322.378906 222.4375 323.800781 221.960938 324.082031 " fill-opacity="1" fill-rule="nonzero"/><path fill="#ffffff" d="M 226.449219 324.789062 C 222.542969 326.195312 217.285156 327.09375 216.878906 327.058594 C 217.464844 326.554688 227.246094 322.894531 229.222656 323.078125 L 229.410156 323.191406 C 229.3125 323.707031 227.304688 324.480469 226.449219 324.789062 " fill-opacity="1" fill-rule="nonzero"/><path fill="#ffffff" d="M 222.917969 325.996094 C 224.714844 325.570312 226.167969 325.167969 228.351562 324.558594 C 230.328125 324.003906 231.554688 323.664062 231.859375 323.671875 C 231.753906 323.753906 231.695312 323.796875 230.835938 324.070312 C 228.46875 324.675781 225.304688 325.460938 222.917969 325.996094 " fill-opacity="1" fill-rule="nonzero"/><path fill="#ffffff" d="M 83.175781 271.523438 C 85.054688 274.347656 85.183594 274.527344 87.296875 277.527344 C 84.238281 273.417969 80.238281 267.875 77.4375 263.582031 L 77.234375 263.246094 C 76.53125 262.09375 76.476562 261.914062 76.429688 261.773438 C 76.542969 261.808594 76.609375 261.828125 77.628906 263.246094 C 78.363281 264.300781 78.363281 264.300781 83.175781 271.523438 " fill-opacity="1" fill-rule="nonzero"/><path fill="#ffffff" d="M 94.707031 283.324219 C 96.054688 285.136719 98.292969 288.25 98.136719 288.710938 C 96.617188 288.96875 85.78125 275.902344 86.3125 274.441406 C 86.488281 273.949219 87.796875 275.191406 88.355469 275.722656 C 90.210938 277.589844 92.347656 280.148438 94.707031 283.324219 " fill-opacity="1" fill-rule="nonzero"/><path fill="#ffffff" d="M 108.550781 293.882812 C 110.386719 296.148438 112.167969 298.78125 111.160156 298.730469 C 108.390625 298.605469 97.632812 287.277344 99.042969 285.976562 C 99.554688 285.503906 101.132812 286.621094 101.804688 287.101562 C 104.578125 289.234375 107.003906 291.96875 108.550781 293.882812 " fill-opacity="1" fill-rule="nonzero"/><path fill="#ffffff" d="M 123.648438 302.96875 C 125.34375 304.953125 126.855469 307.265625 125.515625 307.261719 C 122.691406 307.25 111.859375 298.402344 113.472656 296.269531 C 113.871094 295.746094 115.003906 296 116.84375 297.027344 C 119.863281 298.902344 122.210938 301.292969 123.648438 302.96875 " fill-opacity="1" fill-rule="nonzero"/><path fill="#ffffff" d="M 139.1875 310.578125 C 140.488281 312.054688 142.113281 314.5 140 314.273438 C 136.195312 313.867188 126.886719 306.757812 128.960938 304.933594 C 129.519531 304.441406 130.769531 304.628906 132.679688 305.496094 C 135.773438 307.085938 137.929688 309.136719 139.1875 310.578125 " fill-opacity="1" fill-rule="nonzero"/><path fill="#ffffff" d="M 154.460938 316.738281 C 155.496094 317.957031 156.65625 319.980469 154.414062 319.839844 C 150.511719 319.59375 142.671875 314.238281 144.453125 312.300781 C 144.867188 311.855469 145.910156 311.527344 148.542969 312.507812 C 151.722656 313.878906 153.613281 315.746094 154.460938 316.738281 " fill-opacity="1" fill-rule="nonzero"/><path fill="#ffffff" d="M 168.757812 321.5 C 169.84375 322.945312 169.789062 324.328125 167.109375 323.925781 C 162.933594 323.300781 157.574219 319.574219 159.578125 318.058594 C 160.101562 317.660156 161.25 317.347656 163.742188 318.109375 C 166.707031 319.191406 168.15625 320.699219 168.757812 321.5 " fill-opacity="1" fill-rule="nonzero"/><path fill="#ffffff" d="M 181.484375 324.949219 C 182.402344 326.765625 180.042969 327.398438 176.535156 326.273438 C 173.289062 325.226562 171.828125 323.367188 173.535156 322.441406 C 174.164062 322.101562 175.386719 321.808594 177.621094 322.363281 C 180.355469 323.199219 181.234375 324.449219 181.484375 324.949219 " fill-opacity="1" fill-rule="nonzero"/><path fill="#ffffff" d="M 192.101562 327.179688 C 191.992188 328.988281 186.195312 328.683594 184.855469 327.277344 C 183.902344 326.28125 185.515625 325.183594 187.941406 325.183594 C 188.679688 325.183594 189.140625 325.269531 189.628906 325.363281 C 191.988281 325.957031 192.117188 326.90625 192.101562 327.179688 " fill-opacity="1" fill-rule="nonzero"/><path fill="#ffffff" d="M 200.1875 328.328125 C 199.285156 328.910156 193.460938 329.390625 193.714844 328.507812 C 193.890625 327.886719 196.632812 326.878906 199.277344 327.21875 C 201.28125 327.605469 200.230469 328.300781 200.1875 328.328125 " fill-opacity="1" fill-rule="nonzero"/><path fill="#ffffff" d="M 205.410156 328.539062 C 205.308594 328.550781 205.171875 328.5625 205.070312 328.570312 C 203.496094 328.675781 201.394531 328.804688 199.820312 328.875 C 201.960938 328.730469 204.027344 327.972656 206.199219 328.074219 C 206.5 328.105469 206.570312 328.117188 206.640625 328.195312 C 206.601562 328.382812 205.851562 328.492188 205.410156 328.539062 " fill-opacity="1" fill-rule="nonzero"/><path fill="#ffffff" d="M 113.488281 302.425781 C 115.371094 303.863281 116.429688 304.597656 117.125 305.085938 C 114.101562 302.867188 110.046875 299.933594 107.121094 297.582031 L 104.832031 295.65625 C 104.726562 295.5625 104.617188 295.46875 104.519531 295.367188 C 104.628906 295.414062 104.691406 295.441406 106.027344 296.507812 C 112.175781 301.425781 112.175781 301.425781 113.488281 302.425781 " fill-opacity="1" fill-rule="nonzero"/><path fill="#ffffff" d="M 126.601562 310.488281 C 128.253906 311.585938 129.941406 312.628906 131.609375 313.695312 L 131.484375 313.652344 L 126.710938 311.0625 L 123.648438 309.269531 C 120.148438 307.152344 117.339844 305.167969 116.984375 304.554688 L 117.078125 304.496094 C 117.476562 304.609375 117.925781 304.855469 118.984375 305.484375 C 119.917969 306.058594 119.917969 306.058594 126.601562 310.488281 " fill-opacity="1" fill-rule="nonzero"/><path fill="#ffffff" d="M 140.292969 317.011719 C 141.746094 317.84375 143.308594 318.484375 144.652344 319.503906 C 142.753906 319.363281 130.675781 313.445312 130.59375 312.21875 C 130.796875 312.070312 131.402344 312.265625 132.90625 312.960938 C 135 313.980469 136.441406 314.804688 140.292969 317.011719 " fill-opacity="1" fill-rule="nonzero"/><path fill="#ffffff" d="M 153.753906 322.015625 C 154.949219 322.597656 156.195312 323.074219 157.34375 323.753906 C 157.148438 323.867188 152.351562 322.40625 148.925781 320.988281 C 146.378906 319.9375 144.414062 318.8125 144.449219 318.425781 C 144.476562 318.160156 145.3125 318.324219 146.933594 318.914062 C 149.042969 319.734375 150.617188 320.496094 153.753906 322.015625 " fill-opacity="1" fill-rule="nonzero"/><path fill="#ffffff" d="M 166.292969 325.574219 C 167.21875 325.933594 168.195312 326.160156 169.09375 326.597656 C 168.988281 326.582031 168.875 326.5625 168.769531 326.542969 L 167.089844 326.210938 C 159.367188 324.636719 157.425781 323.21875 157.898438 323.003906 C 158.289062 322.824219 159.839844 323.261719 160.347656 323.40625 C 161.917969 323.878906 162.082031 323.945312 166.292969 325.574219 " fill-opacity="1" fill-rule="nonzero"/><path fill="#ffffff" d="M 177.257812 327.765625 C 178.007812 327.957031 178.394531 328.019531 178.699219 328.0625 C 177.425781 327.898438 175.734375 327.6875 174.464844 327.503906 L 173.519531 327.359375 C 171.097656 326.976562 170.011719 326.554688 170.007812 326.308594 C 170.300781 326.050781 171.882812 326.375 172.476562 326.496094 C 174.085938 326.855469 175.660156 327.359375 177.257812 327.765625 " fill-opacity="1" fill-rule="nonzero"/><path fill="#ffffff" d="M 181.277344 328.335938 L 180.808594 328.289062 C 180.519531 328.253906 180.46875 328.238281 180.398438 328.203125 C 180.476562 328.136719 180.878906 328.0625 182.730469 328.292969 C 183.722656 328.425781 184.710938 328.625 185.714844 328.691406 C 184.382812 328.589844 182.605469 328.460938 181.277344 328.335938 " fill-opacity="1" fill-rule="nonzero"/></svg>