<svg xmlns="http://www.w3.org/2000/svg" xmlns:xlink="http://www.w3.org/1999/xlink" width="200" zoomAndPan="magnify" viewBox="0 0 150 149.999998" height="200" preserveAspectRatio="xMidYMid meet" version="1.0"><defs><clipPath id="1a48d84322"><path d="M 71.589844 9.507812 L 71.945312 9.507812 L 71.945312 9.839844 L 71.589844 9.839844 Z M 71.589844 9.507812 " clip-rule="nonzero"/></clipPath><clipPath id="3ad9a6f308"><path d="M 71.925781 9.75 C 71.25 9.976562 71.851562 9.523438 71.851562 9.523438 " clip-rule="nonzero"/></clipPath><clipPath id="d9d394a0b3"><path d="M 0.589844 0.507812 L 0.945312 0.507812 L 0.945312 0.839844 L 0.589844 0.839844 Z M 0.589844 0.507812 " clip-rule="nonzero"/></clipPath><clipPath id="fe16838f91"><path d="M 0.925781 0.75 C 0.25 0.976562 0.851562 0.523438 0.851562 0.523438 " clip-rule="nonzero"/></clipPath><clipPath id="0ab9fe0453"><rect x="0" width="1" y="0" height="1"/></clipPath><clipPath id="9e669c718e"><path d="M 25.238281 28.105469 L 25.597656 28.105469 L 25.597656 28.4375 L 25.238281 28.4375 Z M 25.238281 28.105469 " clip-rule="nonzero"/></clipPath><clipPath id="c582ae0061"><path d="M 25.574219 28.351562 C 24.898438 28.574219 25.5 28.125 25.5 28.125 " clip-rule="nonzero"/></clipPath><clipPath id="73c34ae8ef"><path d="M 0.238281 0.105469 L 0.597656 0.105469 L 0.597656 0.4375 L 0.238281 0.4375 Z M 0.238281 0.105469 " clip-rule="nonzero"/></clipPath><clipPath id="5c9c07afeb"><path d="M 0.574219 0.351562 C -0.101562 0.574219 0.5 0.125 0.5 0.125 " clip-rule="nonzero"/></clipPath><clipPath id="a9b39a6169"><rect x="0" width="1" y="0" height="1"/></clipPath><clipPath id="4d04d4f796"><path d="M 14.289062 32.007812 L 14.644531 32.007812 L 14.644531 32.339844 L 14.289062 32.339844 Z M 14.289062 32.007812 " clip-rule="nonzero"/></clipPath><clipPath id="9088e0303b"><path d="M 14.625 32.25 C 13.949219 32.476562 14.550781 32.023438 14.550781 32.023438 " clip-rule="nonzero"/></clipPath><clipPath id="69f29ea62a"><path d="M 0.289062 0.0078125 L 0.640625 0.0078125 L 0.640625 0.339844 L 0.289062 0.339844 Z M 0.289062 0.0078125 " clip-rule="nonzero"/></clipPath><clipPath id="311a29a9fe"><path d="M 0.625 0.25 C -0.0507812 0.476562 0.550781 0.0234375 0.550781 0.0234375 " clip-rule="nonzero"/></clipPath><clipPath id="c5eb22dec2"><rect x="0" width="1" y="0" height="1"/></clipPath><clipPath id="0ccefb5218"><path d="M 57.9375 75.207031 L 58.296875 75.207031 L 58.296875 75.539062 L 57.9375 75.539062 Z M 57.9375 75.207031 " clip-rule="nonzero"/></clipPath><clipPath id="c4851d9c49"><path d="M 58.273438 75.449219 C 57.601562 75.675781 58.199219 75.226562 58.199219 75.226562 " clip-rule="nonzero"/></clipPath><clipPath id="858edebd87"><path d="M 0.9375 0.207031 L 1.296875 0.207031 L 1.296875 0.539062 L 0.9375 0.539062 Z M 0.9375 0.207031 " clip-rule="nonzero"/></clipPath><clipPath id="3ffddd0b2c"><path d="M 1.273438 0.449219 C 0.601562 0.675781 1.199219 0.226562 1.199219 0.226562 " clip-rule="nonzero"/></clipPath><clipPath id="1c89d016b6"><rect x="0" width="2" y="0" height="1"/></clipPath><clipPath id="ced3d31f02"><path d="M 1.507812 14 L 121 14 L 121 131.65625 L 1.507812 131.65625 Z M 1.507812 14 " clip-rule="nonzero"/></clipPath><clipPath id="03eb3acae5"><path d="M 29 14 L 148.507812 14 L 148.507812 131.65625 L 29 131.65625 Z M 29 14 " clip-rule="nonzero"/></clipPath><clipPath id="0c50de309d"><path d="M 13.265625 52.941406 L 15.542969 52.941406 L 15.542969 55.378906 L 13.265625 55.378906 Z M 13.265625 52.941406 " clip-rule="nonzero"/></clipPath><clipPath id="70cf1e77fc"><path d="M 13.273438 54.074219 C 14.851562 53.023438 15.601562 54.226562 15.449219 54.523438 C 15.300781 54.898438 13.800781 55.125 13.574219 54.824219 C 13.351562 54.601562 13.648438 53.25 13.949219 53.023438 C 14.25 52.875 14.773438 52.949219 15 53.175781 C 15.300781 53.324219 15.601562 54 15.523438 54.375 C 15.449219 54.75 14.773438 55.351562 14.398438 55.351562 C 14.023438 55.351562 13.273438 54.375 13.273438 54.375 " clip-rule="nonzero"/></clipPath><clipPath id="5d69909586"><path d="M 0.265625 0.941406 L 2.542969 0.941406 L 2.542969 3.378906 L 0.265625 3.378906 Z M 0.265625 0.941406 " clip-rule="nonzero"/></clipPath><clipPath id="38f0e6b09e"><path d="M 0.273438 2.074219 C 1.851562 1.023438 2.601562 2.226562 2.449219 2.523438 C 2.300781 2.898438 0.800781 3.125 0.574219 2.824219 C 0.351562 2.601562 0.648438 1.25 0.949219 1.023438 C 1.25 0.875 1.773438 0.949219 2 1.175781 C 2.300781 1.324219 2.601562 2 2.523438 2.375 C 2.449219 2.75 1.773438 3.351562 1.398438 3.351562 C 1.023438 3.351562 0.273438 2.375 0.273438 2.375 " clip-rule="nonzero"/></clipPath><clipPath id="37ddc86d45"><rect x="0" width="3" y="0" height="4"/></clipPath></defs><g clip-path="url(#1a48d84322)"><g clip-path="url(#3ad9a6f308)"><g transform="matrix(1, 0, 0, 1, 71, 9)"><g clip-path="url(#0ab9fe0453)"><g clip-path="url(#d9d394a0b3)"><g clip-path="url(#fe16838f91)"><rect x="-104" width="216" fill="#000000" height="215.999996" y="-41.999999" fill-opacity="1"/></g></g></g></g></g></g><g clip-path="url(#9e669c718e)"><g clip-path="url(#c582ae0061)"><g transform="matrix(1, 0, 0, 1, 25, 28)"><g clip-path="url(#a9b39a6169)"><g clip-path="url(#73c34ae8ef)"><g clip-path="url(#5c9c07afeb)"><rect x="-58" width="216" fill="#ffffff" height="215.999996" y="-60.999999" fill-opacity="1"/></g></g></g></g></g></g><g clip-path="url(#4d04d4f796)"><g clip-path="url(#9088e0303b)"><g transform="matrix(1, 0, 0, 1, 14, 32)"><g clip-path="url(#c5eb22dec2)"><g clip-path="url(#69f29ea62a)"><g clip-path="url(#311a29a9fe)"><rect x="-47" width="216" fill="#0c3a61" height="215.999996" y="-64.999999" fill-opacity="1"/></g></g></g></g></g></g><g clip-path="url(#0ccefb5218)"><g clip-path="url(#c4851d9c49)"><g transform="matrix(1, 0, 0, 1, 57, 75)"><g clip-path="url(#1c89d016b6)"><g clip-path="url(#858edebd87)"><g clip-path="url(#3ffddd0b2c)"><rect x="-90" width="216" fill="#ff8c42" height="215.999996" y="-107.999999" fill-opacity="1"/></g></g></g></g></g></g><g clip-path="url(#ced3d31f02)"><path fill="#fbb03b" d="M 11.9375 131.59375 C 10.46875 131.59375 8.949219 131.289062 7.53125 130.578125 C 3.835938 128.851562 1.507812 125.246094 1.507812 121.132812 L 1.507812 66.691406 C 1.507812 63.644531 2.824219 60.75 5.152344 58.769531 L 54.117188 16.617188 C 58.066406 13.214844 63.738281 13.265625 67.6875 16.617188 L 118.882812 60.75 C 120.453125 62.121094 120.65625 64.507812 119.289062 66.132812 C 117.921875 67.757812 115.542969 67.910156 113.921875 66.539062 L 62.675781 22.40625 C 61.613281 21.492188 60.042969 21.492188 59.03125 22.40625 L 10.0625 64.558594 C 9.457031 65.117188 9.101562 65.878906 9.101562 66.691406 L 9.101562 121.132812 C 9.101562 122.757812 10.214844 123.46875 10.722656 123.671875 C 11.230469 123.875 12.496094 124.332031 13.710938 123.265625 L 68.804688 76.746094 C 70.472656 75.324219 72.550781 74.460938 74.726562 74.308594 C 76.804688 74.15625 78.625 75.730469 78.777344 77.863281 C 78.929688 79.996094 77.359375 81.773438 75.234375 81.925781 C 74.675781 81.976562 74.121094 82.179688 73.664062 82.585938 L 18.570312 129.105469 C 16.699219 130.78125 14.316406 131.59375 11.9375 131.59375 Z M 11.9375 131.59375 " fill-opacity="1" fill-rule="nonzero"/></g><g clip-path="url(#03eb3acae5)"><path fill="#000000" d="M 138.074219 131.59375 C 135.695312 131.59375 133.316406 130.730469 131.390625 129.105469 L 76.296875 82.585938 C 75.839844 82.179688 75.285156 81.976562 74.726562 81.925781 C 72.652344 81.773438 71.082031 79.945312 71.183594 77.863281 C 71.335938 75.78125 73.15625 74.15625 75.234375 74.308594 C 77.410156 74.460938 79.488281 75.324219 81.160156 76.746094 L 136.253906 123.265625 C 137.46875 124.332031 138.734375 123.875 139.238281 123.671875 C 139.746094 123.46875 140.859375 122.757812 140.859375 121.132812 L 140.859375 66.691406 C 140.859375 65.878906 140.503906 65.066406 139.898438 64.558594 L 90.929688 22.40625 C 89.867188 21.492188 88.296875 21.492188 87.285156 22.40625 L 36.039062 66.539062 C 34.472656 67.910156 32.039062 67.707031 30.671875 66.132812 C 29.304688 64.558594 29.507812 62.121094 31.078125 60.75 L 82.324219 16.617188 C 86.222656 13.265625 91.945312 13.214844 95.894531 16.617188 L 144.859375 58.769531 C 147.191406 60.75 148.507812 63.644531 148.507812 66.691406 L 148.507812 121.132812 C 148.507812 125.246094 146.175781 128.851562 142.480469 130.578125 C 141.0625 131.289062 139.542969 131.59375 138.074219 131.59375 Z M 138.074219 131.59375 " fill-opacity="1" fill-rule="nonzero"/></g><g clip-path="url(#0c50de309d)"><g clip-path="url(#70cf1e77fc)"><g transform="matrix(1, 0, 0, 1, 13, 52)"><g clip-path="url(#37ddc86d45)"><g clip-path="url(#5d69909586)"><g clip-path="url(#38f0e6b09e)"><rect x="-46" width="216" fill="#ffa629" height="215.999996" y="-84.999999" fill-opacity="1"/></g></g></g></g></g></g></svg>