<svg xmlns="http://www.w3.org/2000/svg" xmlns:xlink="http://www.w3.org/1999/xlink" width="200" zoomAndPan="magnify" viewBox="0 0 150 149.999998" height="200" preserveAspectRatio="xMidYMid meet" version="1.0"><defs><clipPath id="0de3c7b95b"><path d="M 0 0 L 24.75 0 L 24.75 24.75 L 0 24.75 Z M 0 0 " clip-rule="nonzero"/></clipPath><clipPath id="07ba38066a"><path d="M 0 125.246094 L 24.75 125.246094 L 24.75 149.996094 L 0 149.996094 Z M 0 125.246094 " clip-rule="nonzero"/></clipPath><clipPath id="c679021185"><path d="M 125.246094 0 L 149.996094 0 L 149.996094 24.75 L 125.246094 24.75 Z M 125.246094 0 " clip-rule="nonzero"/></clipPath><clipPath id="a2bda6485f"><path d="M 125.246094 125.246094 L 149.996094 125.246094 L 149.996094 149.996094 L 125.246094 149.996094 Z M 125.246094 125.246094 " clip-rule="nonzero"/></clipPath></defs><path fill="#000000" d="M 143.476562 57.292969 C 142.039062 51.847656 139.992188 46.644531 137.335938 41.679688 C 134.683594 36.710938 131.492188 32.117188 127.765625 27.898438 C 121.382812 20.699219 113.851562 15.023438 105.171875 10.875 C 93.753906 5.332031 80.777344 3.226562 68.15625 4.511719 C 50.914062 6.039062 34.441406 14.347656 22.832031 27.132812 C 20.414062 29.8125 18.207031 32.660156 16.21875 35.671875 C 14.226562 38.683594 12.472656 41.828125 10.957031 45.105469 C 9.441406 48.382812 8.179688 51.753906 7.167969 55.222656 C 6.160156 58.6875 5.414062 62.210938 4.9375 65.789062 C 4.113281 71.640625 4.027344 77.503906 4.675781 83.378906 C 5.324219 89.25 6.683594 94.953125 8.761719 100.484375 C 12.503906 110.402344 18.679688 119.308594 26.355469 126.605469 C 30.359375 130.410156 34.753906 133.707031 39.53125 136.484375 C 44.308594 139.261719 49.339844 141.453125 54.632812 143.050781 C 59.78125 144.554688 65.035156 145.480469 70.390625 145.835938 C 75.742188 146.191406 81.074219 145.964844 86.378906 145.152344 C 92.078125 144.277344 97.582031 142.71875 102.894531 140.476562 C 108.207031 138.234375 113.164062 135.375 117.769531 131.902344 C 131.5625 121.605469 141.425781 106.085938 144.679688 89.148438 C 146.699219 78.628906 146.152344 67.648438 143.476562 57.292969 Z M 93.972656 136.820312 C 93.589844 137.476562 92.769531 137.558594 92.085938 137.558594 C 80.367188 137.449219 68.644531 137.585938 56.953125 137.503906 C 55.175781 137.558594 54.769531 134.390625 56.625 134.171875 C 68.617188 134.0625 80.640625 134.144531 92.632812 134.117188 C 94 133.980469 94.683594 135.8125 93.972656 136.820312 Z M 101.648438 130.019531 C 83.890625 130.128906 66.132812 130.019531 48.402344 130.046875 C 46.84375 130.210938 46.054688 128.023438 47.0625 126.984375 C 47.390625 126.550781 47.992188 126.605469 48.484375 126.550781 C 63.921875 126.496094 79.382812 126.578125 94.820312 126.523438 C 97.140625 126.550781 99.464844 126.46875 101.785156 126.578125 C 103.5625 126.769531 103.507812 130.046875 101.621094 130.019531 Z M 110.363281 122.480469 C 87.140625 122.550781 63.921875 122.550781 40.699219 122.480469 C 40.070312 122.480469 39.386719 122.585938 38.8125 122.316406 C 37.554688 121.714844 37.773438 119.445312 39.195312 119.226562 C 42.773438 118.980469 46.378906 119.171875 49.988281 119.089844 C 69.847656 119.035156 89.683594 119.089844 109.542969 119.089844 C 110.253906 119.0625 111.15625 119.089844 111.484375 119.855469 C 111.8125 120.621094 111.648438 122.480469 110.363281 122.480469 Z M 116.730469 84.285156 C 116.730469 94.210938 116.71875 104.136719 116.703125 114.0625 C 109.953125 113.980469 103.207031 114.089844 96.457031 114.035156 C 93.617188 114.035156 90.777344 113.980469 87.933594 114.0625 C 87.933594 106.707031 87.933594 99.347656 87.933594 91.988281 C 87.949219 90.34375 87.675781 88.746094 87.109375 87.199219 C 86.546875 85.652344 85.726562 84.253906 84.65625 83 C 82.660156 80.652344 79.847656 78.957031 76.761719 78.546875 C 75.839844 78.40625 74.910156 78.363281 73.980469 78.425781 C 73.046875 78.488281 72.136719 78.652344 71.242188 78.917969 C 70.34375 79.183594 69.488281 79.542969 68.675781 79.996094 C 67.859375 80.449219 67.101562 80.988281 66.40625 81.609375 C 65.660156 82.269531 65 83.007812 64.417969 83.820312 C 63.835938 84.632812 63.351562 85.496094 62.964844 86.414062 C 62.578125 87.335938 62.296875 88.285156 62.121094 89.265625 C 61.945312 90.25 61.878906 91.238281 61.925781 92.234375 C 61.898438 99.503906 61.925781 106.769531 61.898438 114.035156 C 52.253906 114.035156 42.582031 114.007812 32.9375 114.0625 C 32.882812 104.148438 33.019531 94.230469 32.882812 84.3125 C 29.441406 84.285156 26 84.285156 22.53125 84.3125 C 40.042969 66.28125 57.417969 48.058594 74.847656 29.890625 C 81.078125 36.09375 87.003906 42.59375 93.152344 48.851562 C 93.015625 46.554688 93.125 44.289062 93.097656 41.992188 C 95.746094 42.046875 98.398438 41.992188 101.046875 42.019531 C 101.15625 47.101562 101.101562 52.183594 101.074219 57.265625 C 109.691406 66.300781 118.304688 75.332031 126.917969 84.367188 C 123.503906 84.285156 120.117188 84.367188 116.730469 84.3125 Z M 116.730469 84.285156 " fill-opacity="1" fill-rule="nonzero"/><path fill="#000000" d="M 73.074219 48.46875 C 69.519531 49.070312 66.625 52.566406 67.007812 56.226562 C 67.308594 60.351562 71.570312 63.714844 75.667969 62.894531 C 79.765625 62.074219 82.46875 58.441406 81.816406 54.617188 C 81.160156 50.792969 77.007812 47.59375 73.074219 48.46875 Z M 73.074219 48.46875 " fill-opacity="1" fill-rule="nonzero"/><path fill="#000000" d="M 53.539062 90.296875 C 50.804688 90.378906 48.074219 90.132812 45.34375 90.433594 C 45.230469 90.777344 45.175781 91.132812 45.179688 91.496094 C 45.207031 94.667969 45.234375 97.863281 45.179688 101.03125 C 45.125 101.496094 45.316406 102.125 45.890625 102.097656 C 48.429688 102.125 50.996094 102.125 53.539062 102.097656 C 54.003906 102.152344 54.277344 101.6875 54.222656 101.277344 C 54.25 98.027344 54.222656 94.75 54.25 91.496094 C 54.25 91.007812 54.222656 90.214844 53.539062 90.296875 Z M 53.539062 90.296875 " fill-opacity="1" fill-rule="nonzero"/><path fill="#000000" d="M 95.121094 90.378906 C 94.710938 90.570312 94.847656 91.117188 94.820312 91.46875 C 94.847656 94.75 94.820312 98.054688 94.820312 101.332031 C 94.738281 101.90625 95.449219 102.152344 95.910156 102.097656 C 98.289062 102.070312 100.664062 102.125 103.042969 102.070312 C 103.144531 102.082031 103.242188 102.066406 103.339844 102.03125 C 103.433594 101.996094 103.515625 101.9375 103.585938 101.863281 C 103.65625 101.789062 103.707031 101.703125 103.734375 101.605469 C 103.765625 101.507812 103.769531 101.40625 103.753906 101.304688 C 103.753906 97.863281 103.78125 94.421875 103.726562 90.980469 C 103.753906 90.296875 102.988281 90.296875 102.496094 90.324219 C 100.007812 90.351562 97.550781 90.214844 95.121094 90.378906 Z M 95.121094 90.378906 " fill-opacity="1" fill-rule="nonzero"/><g clip-path="url(#0de3c7b95b)"><path fill="#000000" d="M 0 0 L 24.753906 0 C 24.753906 0 10.320312 1.882812 5.625 6.75 C 1.261719 11.277344 0 24.753906 0 24.753906 Z M 0 0 " fill-opacity="1" fill-rule="nonzero"/></g><g clip-path="url(#07ba38066a)"><path fill="#000000" d="M 0 149.996094 L 0 125.242188 C 0 125.242188 1.882812 139.675781 6.75 144.367188 C 11.277344 148.734375 24.753906 149.996094 24.753906 149.996094 Z M 0 149.996094 " fill-opacity="1" fill-rule="nonzero"/></g><g clip-path="url(#c679021185)"><path fill="#000000" d="M 149.996094 0 L 149.996094 24.753906 C 149.996094 24.753906 148.113281 10.320312 143.246094 5.625 C 138.71875 1.261719 125.242188 0 125.242188 0 Z M 149.996094 0 " fill-opacity="1" fill-rule="nonzero"/></g><g clip-path="url(#a2bda6485f)"><path fill="#000000" d="M 149.996094 149.996094 L 125.242188 149.996094 C 125.242188 149.996094 139.675781 148.113281 144.367188 143.246094 C 148.734375 138.71875 149.996094 125.242188 149.996094 125.242188 Z M 149.996094 149.996094 " fill-opacity="1" fill-rule="nonzero"/></g></svg>