<svg xmlns="http://www.w3.org/2000/svg" xmlns:xlink="http://www.w3.org/1999/xlink" width="200" zoomAndPan="magnify" viewBox="0 0 150 149.999998" height="200" preserveAspectRatio="xMidYMid meet" version="1.0"><defs><clipPath id="306d5d1e5e"><path d="M 71.589844 9.507812 L 71.945312 9.507812 L 71.945312 9.839844 L 71.589844 9.839844 Z M 71.589844 9.507812 " clip-rule="nonzero"/></clipPath><clipPath id="705cc9a08c"><path d="M 71.925781 9.75 C 71.25 9.976562 71.851562 9.523438 71.851562 9.523438 " clip-rule="nonzero"/></clipPath><clipPath id="eb123bd951"><path d="M 0.589844 0.507812 L 0.945312 0.507812 L 0.945312 0.839844 L 0.589844 0.839844 Z M 0.589844 0.507812 " clip-rule="nonzero"/></clipPath><clipPath id="ea3ed23c78"><path d="M 0.925781 0.75 C 0.25 0.976562 0.851562 0.523438 0.851562 0.523438 " clip-rule="nonzero"/></clipPath><clipPath id="eb9ff727b6"><rect x="0" width="1" y="0" height="1"/></clipPath><clipPath id="68dde522bc"><path d="M 25.238281 28.105469 L 25.597656 28.105469 L 25.597656 28.4375 L 25.238281 28.4375 Z M 25.238281 28.105469 " clip-rule="nonzero"/></clipPath><clipPath id="278dedea59"><path d="M 25.574219 28.351562 C 24.898438 28.574219 25.5 28.125 25.5 28.125 " clip-rule="nonzero"/></clipPath><clipPath id="1656d4a244"><path d="M 0.238281 0.105469 L 0.597656 0.105469 L 0.597656 0.4375 L 0.238281 0.4375 Z M 0.238281 0.105469 " clip-rule="nonzero"/></clipPath><clipPath id="8e4daa42e8"><path d="M 0.574219 0.351562 C -0.101562 0.574219 0.5 0.125 0.5 0.125 " clip-rule="nonzero"/></clipPath><clipPath id="db35742f93"><rect x="0" width="1" y="0" height="1"/></clipPath><clipPath id="9e3603cbe7"><path d="M 14.289062 32.007812 L 14.644531 32.007812 L 14.644531 32.339844 L 14.289062 32.339844 Z M 14.289062 32.007812 " clip-rule="nonzero"/></clipPath><clipPath id="4327392b0a"><path d="M 14.625 32.25 C 13.949219 32.476562 14.550781 32.023438 14.550781 32.023438 " clip-rule="nonzero"/></clipPath><clipPath id="a1e9898e30"><path d="M 0.289062 0.0078125 L 0.640625 0.0078125 L 0.640625 0.339844 L 0.289062 0.339844 Z M 0.289062 0.0078125 " clip-rule="nonzero"/></clipPath><clipPath id="a6993cab3a"><path d="M 0.625 0.25 C -0.0507812 0.476562 0.550781 0.0234375 0.550781 0.0234375 " clip-rule="nonzero"/></clipPath><clipPath id="ef48203cce"><rect x="0" width="1" y="0" height="1"/></clipPath><clipPath id="5feae78f6f"><path d="M 57.9375 75.207031 L 58.296875 75.207031 L 58.296875 75.539062 L 57.9375 75.539062 Z M 57.9375 75.207031 " clip-rule="nonzero"/></clipPath><clipPath id="8a4e80db68"><path d="M 58.273438 75.449219 C 57.601562 75.675781 58.199219 75.226562 58.199219 75.226562 " clip-rule="nonzero"/></clipPath><clipPath id="1e763f051c"><path d="M 0.9375 0.207031 L 1.296875 0.207031 L 1.296875 0.539062 L 0.9375 0.539062 Z M 0.9375 0.207031 " clip-rule="nonzero"/></clipPath><clipPath id="ec0d0a94a7"><path d="M 1.273438 0.449219 C 0.601562 0.675781 1.199219 0.226562 1.199219 0.226562 " clip-rule="nonzero"/></clipPath><clipPath id="3cf6859b75"><rect x="0" width="2" y="0" height="1"/></clipPath><clipPath id="2d3fb30777"><path d="M 1.507812 14 L 121 14 L 121 131.65625 L 1.507812 131.65625 Z M 1.507812 14 " clip-rule="nonzero"/></clipPath><clipPath id="4cb671d719"><path d="M 29 14 L 148.507812 14 L 148.507812 131.65625 L 29 131.65625 Z M 29 14 " clip-rule="nonzero"/></clipPath><clipPath id="f5ea90aa10"><path d="M 13.265625 52.941406 L 15.542969 52.941406 L 15.542969 55.378906 L 13.265625 55.378906 Z M 13.265625 52.941406 " clip-rule="nonzero"/></clipPath><clipPath id="bfd2d2ec51"><path d="M 13.273438 54.074219 C 14.851562 53.023438 15.601562 54.226562 15.449219 54.523438 C 15.300781 54.898438 13.800781 55.125 13.574219 54.824219 C 13.351562 54.601562 13.648438 53.25 13.949219 53.023438 C 14.25 52.875 14.773438 52.949219 15 53.175781 C 15.300781 53.324219 15.601562 54 15.523438 54.375 C 15.449219 54.75 14.773438 55.351562 14.398438 55.351562 C 14.023438 55.351562 13.273438 54.375 13.273438 54.375 " clip-rule="nonzero"/></clipPath><clipPath id="f4e493a3cd"><path d="M 0.265625 0.941406 L 2.542969 0.941406 L 2.542969 3.378906 L 0.265625 3.378906 Z M 0.265625 0.941406 " clip-rule="nonzero"/></clipPath><clipPath id="0565d3ecc5"><path d="M 0.273438 2.074219 C 1.851562 1.023438 2.601562 2.226562 2.449219 2.523438 C 2.300781 2.898438 0.800781 3.125 0.574219 2.824219 C 0.351562 2.601562 0.648438 1.25 0.949219 1.023438 C 1.25 0.875 1.773438 0.949219 2 1.175781 C 2.300781 1.324219 2.601562 2 2.523438 2.375 C 2.449219 2.75 1.773438 3.351562 1.398438 3.351562 C 1.023438 3.351562 0.273438 2.375 0.273438 2.375 " clip-rule="nonzero"/></clipPath><clipPath id="38ecb24ac7"><rect x="0" width="3" y="0" height="4"/></clipPath><clipPath id="868665c04e"><path d="M 9.292969 58.3125 L 11.40625 58.3125 L 11.40625 60.175781 L 9.292969 60.175781 Z M 9.292969 58.3125 " clip-rule="nonzero"/></clipPath><clipPath id="6daafc4a9e"><path d="M 11.398438 59.023438 C 10.5 60.523438 9.601562 60.226562 9.375 59.925781 C 9.226562 59.625 9.375 58.648438 9.675781 58.425781 C 9.976562 58.199219 11.175781 58.5 11.175781 58.5 " clip-rule="nonzero"/></clipPath><clipPath id="0301c54434"><path d="M 0.292969 0.3125 L 2.40625 0.3125 L 2.40625 2.175781 L 0.292969 2.175781 Z M 0.292969 0.3125 " clip-rule="nonzero"/></clipPath><clipPath id="03e89e1490"><path d="M 2.398438 1.023438 C 1.5 2.523438 0.601562 2.226562 0.375 1.925781 C 0.226562 1.625 0.375 0.648438 0.675781 0.425781 C 0.976562 0.199219 2.175781 0.5 2.175781 0.5 " clip-rule="nonzero"/></clipPath><clipPath id="5482708d66"><rect x="0" width="3" y="0" height="3"/></clipPath></defs><g clip-path="url(#306d5d1e5e)"><g clip-path="url(#705cc9a08c)"><g transform="matrix(1, 0, 0, 1, 71, 9)"><g clip-path="url(#eb9ff727b6)"><g clip-path="url(#eb123bd951)"><g clip-path="url(#ea3ed23c78)"><rect x="-104" width="216" fill="#000000" height="215.999996" y="-41.999999" fill-opacity="1"/></g></g></g></g></g></g><g clip-path="url(#68dde522bc)"><g clip-path="url(#278dedea59)"><g transform="matrix(1, 0, 0, 1, 25, 28)"><g clip-path="url(#db35742f93)"><g clip-path="url(#1656d4a244)"><g clip-path="url(#8e4daa42e8)"><rect x="-58" width="216" fill="#ffffff" height="215.999996" y="-60.999999" fill-opacity="1"/></g></g></g></g></g></g><g clip-path="url(#9e3603cbe7)"><g clip-path="url(#4327392b0a)"><g transform="matrix(1, 0, 0, 1, 14, 32)"><g clip-path="url(#ef48203cce)"><g clip-path="url(#a1e9898e30)"><g clip-path="url(#a6993cab3a)"><rect x="-47" width="216" fill="#0c3a61" height="215.999996" y="-64.999999" fill-opacity="1"/></g></g></g></g></g></g><g clip-path="url(#5feae78f6f)"><g clip-path="url(#8a4e80db68)"><g transform="matrix(1, 0, 0, 1, 57, 75)"><g clip-path="url(#3cf6859b75)"><g clip-path="url(#1e763f051c)"><g clip-path="url(#ec0d0a94a7)"><rect x="-90" width="216" fill="#ff8c42" height="215.999996" y="-107.999999" fill-opacity="1"/></g></g></g></g></g></g><g clip-path="url(#2d3fb30777)"><path fill="#fbb03b" d="M 11.9375 131.230469 C 10.46875 131.230469 8.949219 130.925781 7.53125 130.21875 C 3.835938 128.496094 1.507812 124.902344 1.507812 120.800781 L 1.507812 66.527344 C 1.507812 63.488281 2.824219 60.601562 5.152344 58.628906 L 54.109375 16.605469 C 58.058594 13.214844 63.730469 13.265625 67.679688 16.605469 L 118.863281 60.601562 C 120.433594 61.96875 120.636719 64.351562 119.269531 65.96875 C 117.902344 67.589844 115.523438 67.742188 113.902344 66.375 L 62.667969 22.378906 C 61.601562 21.46875 60.035156 21.46875 59.019531 22.378906 L 10.0625 64.402344 C 9.453125 64.957031 9.101562 65.71875 9.101562 66.527344 L 9.101562 120.800781 C 9.101562 122.421875 10.214844 123.128906 10.71875 123.332031 C 11.226562 123.535156 12.492188 123.992188 13.707031 122.929688 L 68.792969 76.550781 C 70.464844 75.132812 72.539062 74.273438 74.714844 74.121094 C 76.792969 73.96875 78.613281 75.539062 78.765625 77.664062 C 78.917969 79.792969 77.347656 81.5625 75.222656 81.714844 C 74.664062 81.765625 74.109375 81.96875 73.652344 82.375 L 18.566406 128.75 C 16.695312 130.421875 14.316406 131.230469 11.9375 131.230469 Z M 11.9375 131.230469 " fill-opacity="1" fill-rule="nonzero"/></g><g clip-path="url(#4cb671d719)"><path fill="#ffffff" d="M 138.054688 131.230469 C 135.671875 131.230469 133.292969 130.371094 131.371094 128.75 L 76.285156 82.375 C 75.828125 81.96875 75.273438 81.765625 74.714844 81.714844 C 72.640625 81.5625 71.070312 79.742188 71.171875 77.664062 C 71.324219 75.589844 73.148438 73.96875 75.222656 74.121094 C 77.398438 74.273438 79.476562 75.132812 81.144531 76.550781 L 136.230469 122.929688 C 137.445312 123.992188 138.710938 123.535156 139.21875 123.332031 C 139.722656 123.128906 140.835938 122.421875 140.835938 120.800781 L 140.835938 66.527344 C 140.835938 65.71875 140.484375 64.90625 139.875 64.402344 L 90.917969 22.378906 C 89.855469 21.46875 88.285156 21.46875 87.273438 22.378906 L 36.035156 66.375 C 34.464844 67.742188 32.035156 67.539062 30.667969 65.96875 C 29.300781 64.402344 29.503906 61.96875 31.074219 60.601562 L 82.308594 16.605469 C 86.207031 13.265625 91.929688 13.214844 95.878906 16.605469 L 144.835938 58.628906 C 147.167969 60.601562 148.484375 63.488281 148.484375 66.527344 L 148.484375 120.800781 C 148.484375 124.902344 146.152344 128.496094 142.457031 130.21875 C 141.039062 130.925781 139.519531 131.230469 138.054688 131.230469 Z M 138.054688 131.230469 " fill-opacity="1" fill-rule="nonzero"/></g><g clip-path="url(#f5ea90aa10)"><g clip-path="url(#bfd2d2ec51)"><g transform="matrix(1, 0, 0, 1, 13, 52)"><g clip-path="url(#38ecb24ac7)"><g clip-path="url(#f4e493a3cd)"><g clip-path="url(#0565d3ecc5)"><rect x="-46" width="216" fill="#ffa629" height="215.999996" y="-84.999999" fill-opacity="1"/></g></g></g></g></g></g><g clip-path="url(#868665c04e)"><g clip-path="url(#6daafc4a9e)"><g transform="matrix(1, 0, 0, 1, 9, 58)"><g clip-path="url(#5482708d66)"><g clip-path="url(#0301c54434)"><g clip-path="url(#03e89e1490)"><rect x="-42" width="216" fill="#ffa629" height="215.999996" y="-90.999999" fill-opacity="1"/></g></g></g></g></g></g></svg>