<svg xmlns="http://www.w3.org/2000/svg" xmlns:xlink="http://www.w3.org/1999/xlink" width="512" zoomAndPan="magnify" viewBox="0 0 384 359.999987" height="480" preserveAspectRatio="xMidYMid meet" version="1.0"><defs><clipPath id="e5939ce35a"><path d="M 30 51 L 292 51 L 292 310.042969 L 30 310.042969 Z M 30 51 " clip-rule="nonzero"/></clipPath><clipPath id="8cc51d25d1"><path d="M 92 51 L 354 51 L 354 310.042969 L 92 310.042969 Z M 92 51 " clip-rule="nonzero"/></clipPath></defs><g clip-path="url(#e5939ce35a)"><path fill="#fbb03b" d="M 52.992188 310.078125 C 49.753906 310.078125 46.40625 309.410156 43.28125 307.847656 C 35.132812 304.050781 30 296.128906 30 287.089844 L 30 167.445312 C 30 160.746094 32.902344 154.386719 38.035156 150.03125 L 145.960938 57.398438 C 154.667969 49.917969 167.167969 50.03125 175.871094 57.398438 L 288.707031 154.386719 C 292.167969 157.398438 292.613281 162.644531 289.601562 166.214844 C 286.589844 169.789062 281.34375 170.121094 277.769531 167.109375 L 164.824219 70.121094 C 162.480469 68.113281 159.019531 68.113281 156.789062 70.121094 L 48.863281 162.757812 C 47.523438 163.984375 46.742188 165.65625 46.742188 167.445312 L 46.742188 287.089844 C 46.742188 290.660156 49.195312 292.222656 50.3125 292.667969 C 51.429688 293.113281 54.21875 294.121094 56.898438 291.777344 L 178.328125 189.542969 C 182.011719 186.417969 186.585938 184.519531 191.386719 184.183594 C 195.960938 183.851562 199.980469 187.308594 200.316406 191.996094 C 200.648438 196.683594 197.191406 200.589844 192.503906 200.925781 C 191.273438 201.039062 190.046875 201.484375 189.042969 202.378906 L 67.613281 304.609375 C 63.484375 308.292969 58.238281 310.078125 52.992188 310.078125 Z M 52.992188 310.078125 " fill-opacity="1" fill-rule="nonzero"/></g><g clip-path="url(#8cc51d25d1)"><path fill="#ffffff" d="M 331.007812 310.078125 C 325.761719 310.078125 320.515625 308.183594 316.277344 304.609375 L 194.847656 202.378906 C 193.839844 201.484375 192.613281 201.039062 191.386719 200.925781 C 186.808594 200.589844 183.351562 196.574219 183.574219 191.996094 C 183.910156 187.421875 187.925781 183.851562 192.503906 184.183594 C 197.300781 184.519531 201.878906 186.417969 205.558594 189.542969 L 326.992188 291.777344 C 329.667969 294.121094 332.460938 293.113281 333.574219 292.667969 C 334.691406 292.222656 337.148438 290.660156 337.148438 287.089844 L 337.148438 167.445312 C 337.148438 165.65625 336.367188 163.871094 335.027344 162.757812 L 227.101562 70.121094 C 224.757812 68.113281 221.296875 68.113281 219.066406 70.121094 L 106.117188 167.109375 C 102.65625 170.121094 97.300781 169.675781 94.285156 166.214844 C 91.273438 162.757812 91.71875 157.398438 95.179688 154.386719 L 208.128906 57.398438 C 216.722656 50.03125 229.332031 49.917969 238.039062 57.398438 L 345.964844 150.03125 C 351.097656 154.386719 354 160.746094 354 167.445312 L 354 287.089844 C 354 296.128906 348.867188 304.050781 340.71875 307.847656 C 337.59375 309.410156 334.246094 310.078125 331.007812 310.078125 Z M 331.007812 310.078125 " fill-opacity="1" fill-rule="nonzero"/></g></svg>