<svg width="512" height="446" viewBox="0 0 512 446" fill="none" xmlns="http://www.w3.org/2000/svg">
<g filter="url(#filter0_dif_1_7)">
<mask id="mask0_1_7" style="mask-type:luminance" maskUnits="userSpaceOnUse" x="0" y="8" width="512" height="414">
<path d="M0 8H512V422H0V8Z" fill="white"/>
</mask>
<g mask="url(#mask0_1_7)">
<path fill-rule="evenodd" clip-rule="evenodd" d="M511.782 154.498L233.794 421.829L0.0287456 197.031L196.602 8L361.893 166.954L222.899 300.62L106.016 188.224L204.3 93.7026L286.951 173.185L217.454 240.018L159.013 183.817L208.152 136.557L249.477 176.298L214.729 209.714L185.506 181.617L210.078 157.987L230.741 177.857L213.366 194.565L198.758 180.517L211.044 168.701L221.375 178.637L212.688 186.991L205.381 179.964L211.521 174.059L216.689 179.024L212.343 183.204L208.692 179.687L211.762 176.735" fill="black"/>
</g>
</g>
<defs>
<filter id="filter0_dif_1_7" x="-15.9713" y="0" width="543.753" height="445.829" filterUnits="userSpaceOnUse" color-interpolation-filters="sRGB">
<feFlood flood-opacity="0" result="BackgroundImageFix"/>
<feColorMatrix in="SourceAlpha" type="matrix" values="0 0 0 0 0 0 0 0 0 0 0 0 0 0 0 0 0 0 127 0" result="hardAlpha"/>
<feOffset dy="8"/>
<feGaussianBlur stdDeviation="8"/>
<feComposite in2="hardAlpha" operator="out"/>
<feColorMatrix type="matrix" values="0 0 0 0 0 0 0 0 0 0 0 0 0 0 0 0 0 0 0.16 0"/>
<feBlend mode="normal" in2="BackgroundImageFix" result="effect1_dropShadow_1_7"/>
<feBlend mode="normal" in="SourceGraphic" in2="effect1_dropShadow_1_7" result="shape"/>
<feColorMatrix in="SourceAlpha" type="matrix" values="0 0 0 0 0 0 0 0 0 0 0 0 0 0 0 0 0 0 127 0" result="hardAlpha"/>
<feOffset dy="8"/>
<feGaussianBlur stdDeviation="8"/>
<feComposite in2="hardAlpha" operator="arithmetic" k2="-1" k3="1"/>
<feColorMatrix type="matrix" values="0 0 0 0 0 0 0 0 0 0 0 0 0 0 0 0 0 0 0.26 0"/>
<feBlend mode="normal" in2="shape" result="effect2_innerShadow_1_7"/>
<feGaussianBlur stdDeviation="1.5" result="effect3_foregroundBlur_1_7"/>
</filter>
</defs>
</svg>
