<svg xmlns="http://www.w3.org/2000/svg" xmlns:xlink="http://www.w3.org/1999/xlink" width="96" zoomAndPan="magnify" viewBox="0 0 72 72" height="96" preserveAspectRatio="xMidYMid meet" version="1.0"><defs><clipPath id="2dbbeadc0b"><path d="M 3.644531 4.246094 L 68.050781 4.246094 L 68.050781 67.996094 L 3.644531 67.996094 Z M 3.644531 4.246094 " clip-rule="nonzero"/></clipPath><clipPath id="5b71779783"><path d="M 25.34375 17.363281 L 27.457031 17.363281 L 27.457031 19.226562 L 25.34375 19.226562 Z M 25.34375 17.363281 " clip-rule="nonzero"/></clipPath><clipPath id="ad36ca0724"><path d="M 27.449219 18.074219 C 26.550781 19.574219 25.648438 19.273438 25.425781 18.976562 C 25.273438 18.675781 25.425781 17.699219 25.726562 17.476562 C 26.023438 17.25 27.226562 17.550781 27.226562 17.550781 " clip-rule="nonzero"/></clipPath><clipPath id="f920169fb1"><path d="M 0.34375 0.363281 L 2.457031 0.363281 L 2.457031 2.226562 L 0.34375 2.226562 Z M 0.34375 0.363281 " clip-rule="nonzero"/></clipPath><clipPath id="ea7e397996"><path d="M 2.449219 1.074219 C 1.550781 2.574219 0.648438 2.273438 0.425781 1.976562 C 0.273438 1.675781 0.425781 0.699219 0.726562 0.476562 C 1.023438 0.25 2.226562 0.550781 2.226562 0.550781 " clip-rule="nonzero"/></clipPath><clipPath id="65fe80ea67"><rect x="0" width="3" y="0" height="3"/></clipPath></defs><g clip-path="url(#2dbbeadc0b)"><path fill="#fab204" d="M 68.042969 36.984375 C 67.691406 18.914062 52.863281 4.246094 34.941406 4.246094 C 19.273438 4.246094 6.414062 15.433594 3.644531 30.304688 C 4.621094 27.101562 6.535156 22.980469 10.257812 19.488281 C 17.546875 12.628906 23.074219 11.886719 23.074219 11.886719 C 6.46875 20.707031 2.203125 41.601562 8.191406 54.074219 C 11.683594 59.648438 16.773438 64.125 22.789062 66.847656 C 24.472656 67.261719 26.101562 67.328125 26.0625 65.042969 L 26.074219 65.042969 C 25.054688 61.125 22.800781 53.636719 21.6875 52.582031 C 20.234375 51.210938 16.949219 51.953125 15.632812 50.296875 C 14.316406 48.625 9.441406 27.578125 9.441406 27.578125 C 9.441406 27.578125 9.875 27.074219 10.324219 27.25 C 10.773438 27.457031 16.175781 46.214844 16.71875 46.640625 C 17.261719 47.0625 17.167969 46.816406 17.480469 46.832031 C 17.710938 46.761719 18.035156 46.722656 18.105469 45.84375 C 18.171875 44.953125 12.144531 27.441406 12.128906 27.15625 C 12.101562 26.855469 12.035156 25.9375 12.714844 26.058594 C 13.394531 26.167969 19.789062 44.394531 20.183594 44.84375 C 20.589844 45.296875 20.820312 45.1875 21.117188 45.160156 C 21.324219 44.996094 21.5 44.980469 21.5 44.40625 C 21.511719 43.847656 14.464844 25.828125 14.898438 25.304688 C 15.335938 24.773438 15.890625 25.511719 16.066406 25.757812 C 16.246094 26.003906 23.113281 43.230469 23.738281 43.847656 C 24.351562 44.460938 24.609375 44.296875 24.824219 44.214844 C 25.082031 43.996094 25.179688 44.230469 25.328125 43.558594 C 25.464844 42.875 17.304688 25.128906 17.507812 24.691406 C 17.722656 24.265625 18.402344 24.375 18.402344 24.375 C 18.402344 24.375 28.410156 43.558594 28.503906 45.652344 C 28.601562 47.761719 25.574219 49.527344 25.382812 51.5 C 25.21875 53.019531 28.777344 61.222656 30.8125 65.4375 C 31.246094 66.234375 31.980469 67.316406 32.945312 67.726562 C 34.5625 68.425781 35.210938 67.765625 35.226562 66.125 L 35.417969 47.609375 C 35.347656 46.980469 35.238281 46.367188 35.023438 45.914062 C 34.777344 45.433594 34.425781 45.066406 34.097656 44.816406 C 30.894531 43.738281 28.546875 40.601562 28.4375 35.027344 C 28.316406 27.964844 31.832031 19.636719 36.378906 19.636719 C 40.929688 19.636719 44.773438 27.964844 44.90625 35.027344 C 45.015625 40.285156 43.035156 43.367188 40.15625 44.613281 C 39.816406 44.914062 39.355469 45.378906 39.070312 45.941406 C 38.878906 46.339844 38.785156 47.035156 38.757812 47.722656 L 39.460938 65.753906 L 39.476562 65.753906 C 39.476562 65.753906 40.046875 67.546875 41.011719 67.492188 C 41.5 67.464844 41.824219 66.847656 42.027344 66.261719 L 42.015625 66.261719 C 42.015625 66.261719 42.082031 66.015625 42.21875 65.574219 C 42.273438 65.316406 42.300781 65.136719 42.300781 65.136719 L 42.339844 65.152344 C 44.011719 59.484375 51.519531 33.90625 52.089844 31.414062 C 52.742188 28.605469 54.480469 22.199219 56.367188 23.28125 C 58.253906 24.363281 59 32.453125 57.875 41.300781 C 56.734375 50.144531 54.667969 55.390625 52.550781 57.59375 C 50.421875 59.785156 47.949219 58.304688 46.957031 61.042969 C 46.292969 62.90625 45.832031 64.988281 45.601562 66.152344 C 45.667969 66.535156 45.925781 67.410156 46.820312 67.546875 C 47.285156 67.628906 47.8125 67.519531 48.273438 67.382812 C 48.640625 67.21875 49.019531 67.066406 49.386719 66.890625 C 60.617188 61.78125 68.300781 50.324219 68.042969 36.984375 " fill-opacity="1" fill-rule="evenodd"/></g><g clip-path="url(#5b71779783)"><g clip-path="url(#ad36ca0724)"><g transform="matrix(1, 0, 0, 1, 25, 17)"><g clip-path="url(#65fe80ea67)"><g clip-path="url(#f920169fb1)"><g clip-path="url(#ea7e397996)"><rect x="-40.84" width="103.68" fill="#fab204" height="103.68" y="-32.84" fill-opacity="1"/></g></g></g></g></g></g></svg>