<svg xmlns="http://www.w3.org/2000/svg" xmlns:xlink="http://www.w3.org/1999/xlink" width="512" zoomAndPan="magnify" viewBox="0 0 384 359.999987" height="480" preserveAspectRatio="xMidYMid meet" version="1.0"><path fill="#fbb03b" d="M 52.992188 309.914062 C 49.753906 309.914062 46.40625 309.246094 43.28125 307.683594 C 35.132812 303.890625 30 295.972656 30 286.9375 L 30 167.371094 C 30 160.675781 32.902344 154.320312 38.035156 149.96875 L 145.960938 57.394531 C 154.667969 49.917969 167.167969 50.03125 175.871094 57.394531 L 288.707031 154.320312 C 292.167969 157.332031 292.613281 162.574219 289.601562 166.140625 C 286.589844 169.710938 281.34375 170.046875 277.769531 167.035156 L 164.824219 70.109375 C 162.480469 68.101562 159.019531 68.101562 156.789062 70.109375 L 48.863281 162.683594 C 47.523438 163.910156 46.742188 165.585938 46.742188 167.371094 L 46.742188 286.9375 C 46.742188 290.507812 49.195312 292.070312 50.3125 292.515625 C 51.429688 292.960938 54.21875 293.964844 56.898438 291.625 L 178.328125 189.453125 C 182.011719 186.332031 186.585938 184.433594 191.386719 184.101562 C 195.960938 183.765625 199.980469 187.222656 200.316406 191.90625 C 200.648438 196.59375 197.191406 200.496094 192.503906 200.832031 C 191.273438 200.941406 190.046875 201.386719 189.042969 202.28125 L 67.613281 304.449219 C 63.484375 308.128906 58.238281 309.914062 52.992188 309.914062 Z M 52.992188 309.914062 " fill-opacity="1" fill-rule="nonzero"/><path fill="#000000" d="M 331.007812 309.914062 C 325.761719 309.914062 320.515625 308.019531 316.277344 304.449219 L 194.847656 202.28125 C 193.839844 201.386719 192.613281 200.941406 191.386719 200.832031 C 186.808594 200.496094 183.351562 196.480469 183.574219 191.90625 C 183.910156 187.335938 187.925781 183.765625 192.503906 184.101562 C 197.300781 184.433594 201.878906 186.332031 205.558594 189.453125 L 326.992188 291.625 C 329.667969 293.964844 332.460938 292.960938 333.574219 292.515625 C 334.691406 292.070312 337.148438 290.507812 337.148438 286.9375 L 337.148438 167.371094 C 337.148438 165.585938 336.367188 163.800781 335.027344 162.683594 L 227.101562 70.109375 C 224.757812 68.101562 221.296875 68.101562 219.066406 70.109375 L 106.117188 167.035156 C 102.65625 170.046875 97.300781 169.601562 94.285156 166.140625 C 91.273438 162.683594 91.71875 157.332031 95.179688 154.320312 L 208.128906 57.394531 C 216.722656 50.03125 229.332031 49.917969 238.039062 57.394531 L 345.964844 149.96875 C 351.097656 154.320312 354 160.675781 354 167.371094 L 354 286.9375 C 354 295.972656 348.867188 303.890625 340.71875 307.683594 C 337.59375 309.246094 334.246094 309.914062 331.007812 309.914062 Z M 331.007812 309.914062 " fill-opacity="1" fill-rule="nonzero"/></svg>