<svg xmlns="http://www.w3.org/2000/svg" xmlns:xlink="http://www.w3.org/1999/xlink" width="512" zoomAndPan="magnify" viewBox="0 0 384 383.999986" height="512" preserveAspectRatio="xMidYMid meet" version="1.0"><defs><clipPath id="9351fee59b"><path d="M 4.46875 10.328125 L 339 10.328125 L 339 365 L 4.46875 365 Z M 4.46875 10.328125 " clip-rule="nonzero"/></clipPath><clipPath id="390837548a"><path d="M 171 16 L 379.46875 16 L 379.46875 373.328125 L 171 373.328125 Z M 171 16 " clip-rule="nonzero"/></clipPath></defs><g clip-path="url(#9351fee59b)"><path fill="#000000" d="M 338.914062 156.324219 C 338.914062 156.183594 338.910156 156.039062 338.910156 155.894531 C 338.898438 155.179688 338.886719 154.460938 338.867188 153.746094 C 338.867188 153.679688 338.867188 153.609375 338.863281 153.539062 L 338.855469 153.269531 L 338.855469 153.261719 L 338.828125 152.175781 L 338.761719 149.765625 L 338.746094 149.292969 L 338.710938 148.820312 L 338.648438 147.878906 L 338.515625 145.992188 L 338.242188 142.234375 L 338.171875 141.296875 C 338.148438 140.984375 338.128906 140.671875 338.089844 140.359375 L 337.871094 138.488281 C 337.726562 137.238281 337.578125 135.996094 337.425781 134.753906 C 337.292969 133.722656 337.183594 132.691406 337.015625 131.660156 C 336.988281 131.453125 336.949219 131.246094 336.914062 131.039062 C 336.503906 128.566406 336.070312 126.109375 335.609375 123.664062 C 335.207031 126.132812 334.835938 128.59375 334.484375 131.035156 C 334.457031 131.246094 334.429688 131.453125 334.398438 131.660156 L 330.65625 131.660156 L 330.65625 112.964844 L 333.710938 112.964844 C 333.109375 109.949219 332.449219 106.878906 331.722656 103.753906 L 205.617188 103.753906 L 205.617188 76.746094 L 324.042969 76.746094 C 323.421875 74.898438 322.773438 73.039062 322.101562 71.167969 C 320.371094 66.363281 318.558594 61.730469 316.691406 57.273438 C 310.535156 51.195312 304.382812 45.113281 298.226562 39.03125 L 298.226562 20.683594 C 296.082031 17.078125 293.945312 13.671875 291.847656 10.464844 L 276.78125 10.464844 L 268.414062 23.515625 L 265.570312 27.949219 C 234.34375 36.046875 203.121094 44.144531 171.898438 52.242188 L 87.515625 74.121094 L 68.726562 74.121094 L 68.726562 77.675781 L 50.410156 77.675781 L 50.410156 101.183594 L 68.726562 101.183594 L 68.726562 106.378906 L 84.554688 106.378906 L 84.542969 113.574219 L 75.816406 113.574219 L 75.816406 137.082031 L 84.929688 137.082031 L 84.953125 142.488281 C 82.5625 143.921875 79.570312 146.511719 78.199219 150.902344 C 77.726562 152.40625 76.519531 157.417969 79.261719 162.390625 L 61.0625 180.738281 C 60.808594 180.875 60.5625 181.023438 60.320312 181.183594 L 54.296875 181.183594 C 50.273438 181.183594 46.6875 183.277344 44.109375 186.710938 C 41.527344 190.144531 39.949219 194.917969 39.949219 200.265625 C 39.949219 210.96875 46.25 219.351562 54.296875 219.351562 L 60.320312 219.351562 C 62.171875 220.558594 64.222656 221.199219 66.339844 221.199219 C 67.851562 221.199219 69.1875 220.472656 70.03125 219.351562 L 113.222656 219.351562 C 115.078125 220.558594 117.125 221.199219 119.242188 221.199219 C 120.753906 221.199219 122.089844 220.472656 122.933594 219.351562 L 132.582031 219.351562 L 132.582031 219.347656 C 132.683594 219.351562 132.777344 219.351562 132.882812 219.351562 C 140.925781 219.351562 147.226562 210.972656 147.226562 200.265625 C 147.226562 189.5625 140.925781 181.179688 132.882812 181.179688 C 132.78125 181.179688 132.683594 181.183594 132.582031 181.183594 L 132.582031 181.179688 L 123.046875 181.179688 L 104.917969 162.035156 C 105.769531 160.535156 106.394531 158.875 106.742188 157.105469 C 107.234375 154.609375 105.605469 152.1875 103.109375 151.699219 C 100.847656 151.257812 98.652344 152.546875 97.894531 154.648438 C 96.394531 153.25 94.503906 152.472656 92.515625 152.453125 C 90.378906 152.421875 88.34375 153.269531 86.765625 154.828125 C 86.828125 154.203125 86.957031 153.757812 86.988281 153.648438 C 87.882812 150.792969 90.84375 149.8125 90.96875 149.773438 L 94.195312 148.746094 L 94.140625 137.078125 L 102.730469 137.078125 L 102.730469 113.574219 L 93.753906 113.574219 L 93.769531 106.378906 L 195.308594 106.378906 L 195.308594 112.964844 L 237.75 112.964844 L 237.75 161.914062 L 237.589844 162.175781 C 237.644531 162.207031 237.695312 162.238281 237.75 162.265625 L 237.75 271.308594 L 223.84375 271.308594 L 223.84375 305.707031 C 222.820312 306.324219 221.792969 306.925781 220.757812 307.519531 L 214.828125 310.800781 L 208.792969 313.867188 L 208.414062 314.058594 L 208.03125 314.238281 L 205.722656 315.304688 L 202.652344 316.726562 C 201.636719 317.21875 200.589844 317.644531 199.558594 318.089844 L 198.003906 318.757812 L 197.226562 319.089844 L 196.441406 319.402344 L 193.304688 320.667969 C 192.257812 321.082031 191.195312 321.457031 190.144531 321.863281 L 188.5625 322.464844 L 186.96875 323.019531 L 185.375 323.578125 C 184.839844 323.765625 184.3125 323.964844 183.777344 324.132812 C 179.507812 325.570312 175.1875 326.847656 170.832031 328.027344 C 162.109375 330.320312 153.226562 332.113281 144.210938 333.285156 C 139.703125 333.886719 135.164062 334.359375 130.597656 334.675781 C 126.03125 334.996094 121.441406 335.175781 116.828125 335.242188 C 107.605469 335.367188 98.300781 334.953125 88.960938 334.066406 C 84.289062 333.625 79.609375 333.058594 74.917969 332.398438 C 73.746094 332.242188 72.574219 332.054688 71.402344 331.871094 C 70.230469 331.691406 69.058594 331.5 67.882812 331.308594 C 65.535156 330.925781 63.195312 330.488281 60.84375 330.054688 C 59.667969 329.839844 58.496094 329.597656 57.324219 329.367188 L 53.796875 328.644531 C 52.628906 328.386719 51.449219 328.140625 50.277344 327.871094 C 49.105469 327.609375 47.925781 327.355469 46.753906 327.074219 C 42.058594 325.972656 37.355469 324.789062 32.664062 323.488281 C 27.964844 322.195312 23.269531 320.804688 18.570312 319.316406 C 13.875 317.824219 9.1875 316.242188 4.46875 314.515625 C 6.265625 316.277344 8.15625 317.945312 10.089844 319.554688 C 12.027344 321.164062 14.007812 322.726562 16.027344 324.234375 C 18.050781 325.75 20.109375 327.210938 22.195312 328.636719 C 23.242188 329.347656 24.292969 330.046875 25.347656 330.742188 C 26.414062 331.425781 27.476562 332.117188 28.550781 332.785156 C 29.089844 333.117188 29.625 333.460938 30.164062 333.785156 L 31.796875 334.765625 C 32.339844 335.09375 32.886719 335.414062 33.433594 335.734375 C 33.980469 336.054688 34.523438 336.378906 35.078125 336.691406 C 36.183594 337.308594 37.289062 337.941406 38.402344 338.546875 L 40.078125 339.460938 L 41.765625 340.347656 C 42.894531 340.945312 44.027344 341.515625 45.164062 342.097656 C 46.300781 342.667969 47.453125 343.214844 48.601562 343.773438 C 49.75 344.316406 50.902344 344.867188 52.066406 345.394531 C 53.234375 345.910156 54.398438 346.445312 55.574219 346.949219 C 74.335938 355.082031 94.511719 360.671875 115.351562 362.972656 C 136.171875 365.316406 157.648438 364.300781 178.460938 359.722656 C 179.113281 359.59375 179.761719 359.433594 180.410156 359.28125 L 182.351562 358.820312 L 184.296875 358.351562 L 188.15625 357.320312 C 188.796875 357.148438 189.445312 356.984375 190.082031 356.785156 L 193.910156 355.640625 C 195.1875 355.257812 196.445312 354.828125 197.714844 354.414062 L 199.613281 353.789062 L 201.492188 353.117188 L 203.371094 352.441406 C 203.996094 352.210938 204.628906 352 205.25 351.75 L 208.964844 350.296875 L 209.894531 349.929688 L 212.652344 348.761719 C 213.875 348.238281 215.109375 347.742188 216.308594 347.160156 L 219.921875 345.472656 L 221.730469 344.628906 C 222.328125 344.339844 222.9375 344.078125 223.523438 343.757812 L 230.601562 340.078125 C 232.914062 338.769531 235.210938 337.433594 237.515625 336.109375 C 246.921875 330.472656 255.863281 324.089844 264.234375 317.0625 C 267.757812 314.105469 271.183594 311.03125 274.5 307.851562 C 278.574219 303.945312 282.484375 299.878906 286.21875 295.671875 C 290.542969 290.800781 294.628906 285.742188 298.46875 280.515625 C 300.6875 277.5 302.820312 274.425781 304.863281 271.304688 C 305.019531 271.074219 305.167969 270.847656 305.316406 270.617188 C 311.003906 261.816406 316.023438 252.628906 320.324219 243.160156 L 321.136719 241.390625 C 321.273438 241.09375 321.417969 240.804688 321.539062 240.503906 L 321.917969 239.605469 L 323.414062 236.007812 C 323.90625 234.808594 324.421875 233.621094 324.886719 232.410156 L 326.238281 228.765625 L 327.566406 225.117188 C 327.988281 223.894531 328.375 222.65625 328.777344 221.433594 C 329.175781 220.203125 329.582031 218.976562 329.964844 217.746094 L 330.261719 216.824219 C 330.351562 216.515625 330.433594 216.207031 330.523438 215.894531 L 331.046875 214.03125 C 332.496094 209.085938 333.671875 204.070312 334.75 199.054688 L 335.476562 195.277344 L 335.832031 193.394531 L 336.011719 192.449219 C 336.074219 192.136719 336.136719 191.824219 336.179688 191.503906 L 337.304688 183.921875 C 337.703125 180.796875 338.03125 177.667969 338.28125 174.535156 C 338.285156 174.488281 338.289062 174.4375 338.292969 174.390625 C 338.320312 174.050781 338.347656 173.710938 338.371094 173.375 C 338.386719 173.164062 338.402344 172.953125 338.414062 172.746094 C 338.425781 172.625 338.429688 172.503906 338.441406 172.382812 C 338.460938 172.058594 338.484375 171.738281 338.503906 171.414062 C 338.507812 171.351562 338.515625 171.289062 338.519531 171.222656 C 338.546875 170.804688 338.570312 170.390625 338.597656 169.972656 C 338.605469 169.820312 338.613281 169.671875 338.621094 169.523438 C 338.628906 169.359375 338.636719 169.191406 338.648438 169.027344 C 338.65625 168.835938 338.667969 168.640625 338.675781 168.449219 C 338.695312 168.105469 338.710938 167.757812 338.726562 167.414062 C 338.734375 167.214844 338.742188 167.011719 338.75 166.808594 C 338.753906 166.703125 338.761719 166.601562 338.765625 166.496094 C 338.777344 166.1875 338.789062 165.875 338.800781 165.566406 C 338.808594 165.363281 338.816406 165.15625 338.820312 164.953125 C 338.828125 164.722656 338.835938 164.496094 338.839844 164.265625 C 338.84375 164.15625 338.847656 164.046875 338.851562 163.9375 C 338.851562 163.914062 338.851562 163.894531 338.851562 163.871094 C 338.867188 163.441406 338.875 163.011719 338.882812 162.578125 C 338.886719 162.507812 338.886719 162.4375 338.886719 162.367188 C 338.894531 162.148438 338.894531 161.933594 338.898438 161.714844 C 338.902344 161.484375 338.90625 161.253906 338.90625 161.023438 C 338.90625 160.878906 338.910156 160.734375 338.910156 160.589844 C 338.917969 160.320312 338.917969 160.046875 338.917969 159.773438 C 338.921875 159.570312 338.921875 159.363281 338.921875 159.160156 C 338.921875 158.949219 338.921875 158.738281 338.921875 158.527344 C 338.925781 157.796875 338.921875 157.0625 338.914062 156.324219 Z M 298.226562 51.980469 C 303.476562 57.164062 308.726562 62.351562 313.972656 67.535156 L 298.226562 67.535156 Z M 68.109375 91.972656 L 59.621094 91.972656 L 59.621094 86.886719 L 68.109375 86.886719 Z M 53.574219 210.011719 C 51.398438 209.265625 49.160156 205.273438 49.160156 200.265625 C 49.160156 195.257812 51.398438 191.265625 53.574219 190.519531 C 52.542969 193.484375 51.992188 196.820312 51.992188 200.265625 C 51.992188 203.710938 52.542969 207.050781 53.574219 210.011719 Z M 132.878906 190.390625 C 135.253906 190.390625 138.015625 194.707031 138.015625 200.269531 C 138.015625 205.828125 135.253906 210.144531 132.878906 210.144531 C 130.503906 210.144531 127.742188 205.828125 127.742188 200.269531 C 127.742188 194.707031 130.503906 190.390625 132.878906 190.390625 Z M 116.308594 191.082031 C 116.453125 190.835938 116.605469 190.605469 116.757812 190.390625 L 120.539062 190.390625 C 119.257812 193.257812 118.53125 196.628906 118.53125 200.269531 C 118.53125 203.90625 119.257812 207.277344 120.539062 210.144531 L 116.757812 210.144531 C 116.605469 209.929688 116.453125 209.699219 116.308594 209.453125 C 114.90625 207.105469 114.105469 203.757812 114.105469 200.269531 C 114.105469 196.773438 114.90625 193.429688 116.308594 191.082031 Z M 251.125 67.535156 L 252.648438 65.164062 L 255.207031 66.699219 C 255.671875 66.976562 256.136719 67.257812 256.601562 67.535156 Z M 289.015625 67.535156 L 274.503906 67.535156 C 273.453125 66.90625 272.402344 66.277344 271.351562 65.644531 C 267.546875 63.363281 263.746094 61.082031 259.941406 58.800781 L 257.621094 57.40625 L 257.960938 56.871094 C 262.15625 56.535156 266.351562 56.199219 270.546875 55.863281 C 276.703125 55.371094 282.859375 54.875 289.015625 54.382812 Z M 281.816406 19.675781 L 289.019531 19.675781 L 289.019531 41.261719 C 283.953125 38.21875 278.886719 35.179688 273.824219 32.140625 Z M 268.847656 39.898438 C 269.039062 40.015625 269.234375 40.128906 269.425781 40.242188 C 272.597656 42.148438 275.765625 44.046875 278.933594 45.949219 C 275.910156 46.195312 272.886719 46.433594 269.863281 46.679688 C 267.980469 46.828125 266.09375 46.980469 264.210938 47.132812 Z M 77.9375 97.171875 L 77.9375 89.046875 L 87.050781 97.171875 Z M 106.527344 210.144531 L 63.859375 210.144531 C 63.703125 209.929688 63.550781 209.699219 63.40625 209.453125 C 62.003906 207.105469 61.203125 203.757812 61.203125 200.269531 C 61.203125 196.777344 62.003906 193.429688 63.40625 191.082031 C 63.550781 190.839844 63.703125 190.609375 63.859375 190.394531 L 106.523438 190.394531 C 105.460938 193.390625 104.894531 196.773438 104.894531 200.269531 C 104.894531 203.761719 105.460938 207.148438 106.527344 210.144531 Z M 92 169.832031 C 92.453125 169.832031 92.90625 169.8125 93.355469 169.769531 C 95.074219 169.605469 96.71875 169.121094 98.238281 168.378906 L 110.363281 181.179688 L 73.59375 181.179688 L 86.089844 168.585938 C 87.964844 169.410156 89.984375 169.832031 92 169.832031 Z M 93.515625 127.867188 L 85.027344 127.867188 L 85.027344 122.785156 L 93.515625 122.785156 Z M 103.835938 83.820312 C 101.195312 86.792969 98.558594 89.765625 95.921875 92.738281 L 91.910156 89.160156 L 85.367188 83.332031 L 104.269531 83.332031 Z M 104.304688 97.171875 C 106.445312 94.757812 108.585938 92.34375 110.722656 89.933594 L 112.3125 88.148438 C 115.371094 90.875 118.433594 93.605469 121.492188 96.332031 L 122.433594 97.171875 Z M 129.371094 91.011719 L 127.625 89.457031 C 125.332031 87.417969 123.042969 85.375 120.757812 83.335938 L 136.21875 83.335938 Z M 136.277344 97.171875 C 136.265625 97.160156 136.253906 97.148438 136.246094 97.140625 L 143.515625 88.988281 L 152.691406 97.171875 Z M 160.589844 91.871094 L 151.011719 83.335938 L 168.203125 83.335938 Z M 168.210938 97.171875 L 178.027344 86.15625 L 190.382812 97.171875 Z M 195.308594 89.222656 L 188.703125 83.335938 L 195.308594 83.335938 Z M 195.308594 74.121094 L 124.210938 74.121094 L 174.210938 61.15625 C 202.222656 53.890625 230.234375 46.625 258.25 39.363281 L 240.183594 67.535156 L 195.304688 67.535156 L 195.304688 74.121094 Z M 246.957031 112.964844 L 274.011719 112.964844 L 277.078125 114.808594 L 277.59375 115.117188 L 277.132812 115.15625 L 246.953125 117.574219 L 246.953125 112.964844 Z M 246.957031 129.664062 L 278.933594 148.855469 L 246.957031 151.417969 Z M 246.957031 167.796875 C 255.011719 172.628906 263.070312 177.464844 271.128906 182.300781 L 246.957031 184.238281 Z M 246.957031 199.636719 C 257.167969 205.765625 267.382812 211.890625 277.59375 218.019531 L 246.957031 220.476562 Z M 246.957031 234.617188 L 274.410156 251.09375 L 246.957031 253.296875 Z M 246.957031 267.777344 C 248.894531 268.945312 250.835938 270.109375 252.773438 271.269531 L 246.957031 271.269531 Z M 233.054688 299.871094 L 233.054688 280.519531 L 257.792969 280.519531 C 250 287.582031 241.734375 294.058594 233.054688 299.871094 Z M 277.628906 260.078125 C 274.714844 263.488281 271.703125 266.808594 268.601562 270.023438 C 264.082031 267.316406 259.558594 264.597656 255.039062 261.886719 Z M 289.015625 245.570312 C 288.421875 246.398438 287.824219 247.21875 287.214844 248.035156 L 255.539062 229.027344 L 289.015625 226.34375 Z M 289.015625 214.132812 C 277.246094 207.066406 265.46875 200.003906 253.695312 192.9375 L 284.710938 190.449219 C 286.09375 191.28125 287.476562 192.109375 288.855469 192.9375 L 289.015625 192.675781 Z M 289.015625 180.863281 L 286.917969 181.03125 C 275.363281 174.097656 263.808594 167.164062 252.253906 160.234375 L 286.464844 157.488281 L 289.015625 157.285156 Z M 289.015625 144.160156 L 281.730469 139.789062 L 258.554688 125.886719 L 278.644531 124.273438 L 289.015625 123.441406 Z M 322.472656 180.519531 L 320.066406 187.253906 C 319.222656 189.480469 318.335938 191.6875 317.476562 193.898438 C 317.0625 195.003906 316.574219 196.085938 316.113281 197.175781 L 314.71875 200.4375 L 314.023438 202.066406 L 313.277344 203.671875 L 311.789062 206.878906 L 311.046875 208.476562 C 310.921875 208.746094 310.804688 209.015625 310.671875 209.277344 L 310.273438 210.0625 C 309.738281 211.109375 309.214844 212.164062 308.6875 213.214844 C 308.160156 214.261719 307.648438 215.3125 307.105469 216.351562 L 305.421875 219.4375 L 303.753906 222.519531 C 303.484375 223.035156 303.164062 223.527344 302.875 224.035156 L 301.992188 225.550781 C 300.804688 227.5625 299.671875 229.589844 298.398438 231.542969 C 298.34375 231.636719 298.285156 231.726562 298.226562 231.816406 C 298.226562 231.816406 298.226562 231.816406 298.226562 231.820312 L 298.226562 112.964844 L 321.445312 112.964844 L 321.445312 131.660156 L 308.628906 131.660156 L 308.628906 174.539062 L 324.429688 174.539062 C 323.800781 176.546875 323.148438 178.539062 322.472656 180.519531 Z M 332.59375 141.957031 L 331.867188 145.558594 L 331.515625 147.355469 L 331.339844 148.25 L 331.253906 148.699219 L 331.148438 149.144531 L 330.328125 152.707031 C 329.359375 156.957031 328.296875 161.167969 327.144531 165.332031 L 317.835938 165.332031 L 317.835938 140.871094 L 332.808594 140.871094 C 332.738281 141.234375 332.660156 141.59375 332.59375 141.957031 Z M 332.59375 141.957031 " fill-opacity="1" fill-rule="nonzero"/></g><g clip-path="url(#390837548a)"><path fill="#f59e0b" d="M 378.128906 149.664062 C 377.011719 139.246094 375.125 128.945312 372.507812 118.882812 L 372.027344 116.992188 C 371.945312 116.679688 371.871094 116.363281 371.78125 116.050781 L 371.507812 115.113281 L 370.40625 111.378906 C 370.03125 110.140625 369.6875 108.890625 369.285156 107.65625 L 368.039062 103.972656 L 366.78125 100.304688 C 366.339844 99.089844 365.859375 97.886719 365.402344 96.679688 C 364.9375 95.472656 364.480469 94.265625 364.007812 93.066406 L 363.652344 92.164062 C 363.53125 91.867188 363.402344 91.574219 363.273438 91.277344 L 362.507812 89.5 C 360.542969 84.796875 358.328125 80.210938 356.039062 75.683594 C 356.011719 75.632812 355.984375 75.585938 355.960938 75.535156 L 354.144531 72.140625 L 353.238281 70.449219 L 352.785156 69.605469 C 352.632812 69.320312 352.484375 69.039062 352.320312 68.765625 L 351.59375 67.539062 L 348.421875 62.164062 C 343.050781 53.476562 337.0625 45.242188 330.503906 37.570312 L 328.050781 34.703125 L 327.742188 34.34375 L 327.417969 33.996094 L 326.777344 33.304688 L 325.488281 31.917969 L 322.910156 29.171875 L 322.265625 28.488281 C 322.050781 28.257812 321.839844 28.03125 321.609375 27.8125 L 320.261719 26.496094 C 319.367188 25.617188 318.46875 24.742188 317.566406 23.875 C 316.660156 23.011719 315.785156 22.125 314.832031 21.308594 C 312.957031 19.648438 311.074219 18.007812 309.175781 16.398438 C 310.421875 18.570312 311.675781 20.714844 312.941406 22.835938 C 313.261719 23.363281 313.582031 23.890625 313.871094 24.441406 L 314.773438 26.058594 C 315.371094 27.140625 315.972656 28.214844 316.574219 29.285156 L 317.476562 30.886719 C 317.78125 31.417969 318.054688 31.972656 318.339844 32.511719 L 320.046875 35.769531 L 320.902344 37.386719 L 321.332031 38.191406 L 321.542969 38.597656 L 321.746094 39.007812 L 323.351562 42.292969 C 327.425781 50.601562 331.074219 59.019531 334.261719 67.535156 C 334.425781 67.972656 334.589844 68.410156 334.75 68.851562 L 337.121094 75.601562 C 337.246094 75.984375 337.371094 76.363281 337.492188 76.746094 C 338.101562 78.628906 338.6875 80.511719 339.285156 82.386719 C 339.660156 83.511719 339.960938 84.660156 340.289062 85.796875 L 341.257812 89.210938 L 341.742188 90.914062 L 342.171875 92.632812 L 343.035156 96.058594 L 343.46875 97.769531 C 343.539062 98.054688 343.613281 98.339844 343.675781 98.625 L 343.863281 99.488281 C 344.105469 100.640625 344.363281 101.789062 344.613281 102.933594 C 344.671875 103.207031 344.734375 103.476562 344.792969 103.753906 C 344.984375 104.625 345.183594 105.496094 345.359375 106.367188 L 345.988281 109.828125 L 346.574219 112.964844 L 346.632812 113.273438 C 346.75 113.84375 346.8125 114.425781 346.90625 115.003906 L 347.171875 116.734375 C 347.515625 119.042969 347.914062 121.335938 348.152344 123.65625 C 349.324219 132.886719 349.964844 142.132812 350.046875 151.34375 C 350.109375 160.558594 349.613281 169.730469 348.5625 178.804688 C 346.472656 196.949219 342.144531 214.703125 335.632812 231.5625 L 333.089844 237.84375 L 330.328125 244.027344 L 330.15625 244.417969 L 329.59375 245.554688 L 328.847656 247.074219 L 327.359375 250.113281 C 326.878906 251.136719 326.332031 252.121094 325.8125 253.121094 L 325.023438 254.617188 L 324.628906 255.367188 L 324.214844 256.105469 L 322.574219 259.0625 C 322.023438 260.042969 321.433594 261.003906 320.871094 261.980469 L 320.019531 263.441406 L 319.128906 264.875 L 318.246094 266.316406 C 317.945312 266.792969 317.664062 267.28125 317.351562 267.75 C 315.671875 270.398438 313.921875 273.003906 312.125 275.574219 C 311.339844 276.695312 310.546875 277.8125 309.746094 278.921875 C 307.542969 281.921875 305.269531 284.875 302.914062 287.765625 C 299.5625 291.890625 296.050781 295.894531 292.367188 299.765625 C 289.757812 302.519531 287.074219 305.222656 284.3125 307.855469 C 283.765625 308.375 283.214844 308.894531 282.664062 309.410156 C 279.859375 312.023438 276.988281 314.574219 274.042969 317.0625 C 273.472656 317.550781 272.898438 318.035156 272.316406 318.515625 C 265.230469 324.417969 257.738281 329.953125 249.921875 335.144531 C 246.015625 337.738281 242.023438 340.246094 237.960938 342.683594 C 236.953125 343.296875 235.921875 343.890625 234.898438 344.484375 C 233.875 345.085938 232.839844 345.671875 231.808594 346.261719 C 229.742188 347.441406 227.648438 348.574219 225.546875 349.71875 C 224.5 350.292969 223.4375 350.839844 222.378906 351.402344 L 219.1875 353.054688 C 218.113281 353.59375 217.046875 354.144531 215.964844 354.671875 C 214.886719 355.207031 213.8125 355.75 212.722656 356.269531 C 208.382812 358.371094 203.984375 360.40625 199.515625 362.351562 C 195.050781 364.304688 190.53125 366.179688 185.941406 367.980469 C 181.351562 369.773438 176.710938 371.496094 171.960938 373.125 C 174.464844 373.363281 176.980469 373.46875 179.5 373.5 C 182.019531 373.535156 184.542969 373.5 187.0625 373.402344 C 189.582031 373.304688 192.105469 373.144531 194.621094 372.941406 C 195.882812 372.839844 197.140625 372.714844 198.402344 372.59375 C 199.65625 372.453125 200.917969 372.320312 202.171875 372.160156 C 202.800781 372.082031 203.433594 372.011719 204.058594 371.921875 L 205.941406 371.65625 C 206.570312 371.574219 207.195312 371.476562 207.824219 371.382812 C 208.449219 371.285156 209.078125 371.195312 209.703125 371.089844 C 210.953125 370.875 212.210938 370.671875 213.457031 370.4375 L 215.332031 370.09375 L 217.203125 369.71875 C 218.453125 369.476562 219.695312 369.203125 220.945312 368.9375 C 222.1875 368.667969 223.425781 368.367188 224.667969 368.082031 C 225.90625 367.777344 227.152344 367.480469 228.386719 367.160156 C 229.617188 366.828125 230.855469 366.507812 232.089844 366.164062 C 251.789062 360.671875 270.984375 352.320312 288.628906 340.992188 C 306.285156 329.710938 322.335938 315.402344 335.625 298.746094 C 336.050781 298.230469 336.453125 297.703125 336.859375 297.175781 L 338.082031 295.59375 L 339.292969 294.011719 L 340.472656 292.394531 L 341.644531 290.777344 C 342.039062 290.238281 342.4375 289.703125 342.804688 289.152344 L 345.0625 285.851562 C 345.8125 284.753906 346.519531 283.625 347.246094 282.507812 L 348.328125 280.824219 L 349.367188 279.117188 L 350.402344 277.410156 C 350.742188 276.839844 351.097656 276.277344 351.425781 275.691406 L 353.402344 272.222656 L 353.894531 271.355469 L 354.363281 270.472656 L 355.300781 268.710938 C 355.917969 267.535156 356.566406 266.371094 357.132812 265.167969 L 358.882812 261.582031 L 359.753906 259.785156 C 360.035156 259.183594 360.351562 258.597656 360.601562 257.984375 L 363.785156 250.667969 C 364.757812 248.195312 365.703125 245.710938 366.664062 243.230469 C 373.960938 223.261719 378.113281 202.214844 379.058594 181.152344 C 379.53125 170.625 379.21875 160.085938 378.128906 149.664062 Z M 378.128906 149.664062 " fill-opacity="1" fill-rule="nonzero"/></g></svg>