<svg xmlns="http://www.w3.org/2000/svg" xmlns:xlink="http://www.w3.org/1999/xlink" width="512" zoomAndPan="magnify" viewBox="0 0 384 383.999986" height="512" preserveAspectRatio="xMidYMid meet" version="1.0"><defs><g/><clipPath id="a49a8b0e96"><path d="M 0 5.761719 L 140 5.761719 L 140 362 L 0 362 Z M 0 5.761719 " clip-rule="nonzero"/></clipPath></defs><path fill="#ff921b" d="M 384 355.890625 L 190.394531 355.890625 C 184.601562 369.042969 171.371094 378.121094 156.027344 377.964844 C 144.207031 377.808594 133.792969 372.09375 127.140625 363.40625 C 126.121094 362.074219 127.058594 360.195312 128.78125 360.195312 L 154.460938 360.273438 L 166.28125 341.09375 L 154.460938 321.835938 L 128.78125 321.753906 C 127.140625 321.753906 126.199219 319.875 127.21875 318.546875 C 134.105469 309.621094 144.910156 303.90625 157.042969 304.0625 C 171.917969 304.296875 184.601562 313.300781 190.316406 326.0625 L 354.09375 326.0625 L 354.09375 163.695312 L 196.894531 59.882812 L 39.535156 163.695312 L 39.535156 327.707031 L 9.628906 327.707031 L 9.628906 147.566406 L 196.894531 24.027344 L 384 147.566406 Z M 384 355.890625 " fill-opacity="1" fill-rule="nonzero"/><path fill="#ff921b" d="M 276.433594 292.867188 L 320.898438 248.402344 L 320.898438 292.867188 Z M 276.433594 292.867188 " fill-opacity="1" fill-rule="nonzero"/><path fill="#000000" d="M 349.082031 184.910156 L 212.863281 321.128906 L 233.921875 321.128906 L 233.921875 310.402344 C 233.921875 309.464844 234.707031 308.683594 235.644531 308.683594 C 236.585938 308.683594 237.367188 309.464844 237.367188 310.402344 L 237.367188 321.128906 L 249.109375 321.128906 L 249.109375 310.402344 C 249.109375 309.464844 249.894531 308.683594 250.832031 308.683594 C 251.773438 308.683594 252.554688 309.464844 252.554688 310.402344 L 252.554688 321.128906 L 264.296875 321.128906 L 264.296875 310.402344 C 264.296875 309.464844 265.082031 308.683594 266.019531 308.683594 C 266.960938 308.683594 267.742188 309.464844 267.742188 310.402344 L 267.742188 321.128906 L 279.484375 321.128906 L 279.484375 310.402344 C 279.484375 309.464844 280.269531 308.683594 281.207031 308.683594 C 282.148438 308.683594 282.929688 309.464844 282.929688 310.402344 L 282.929688 321.128906 L 294.675781 321.128906 L 294.675781 310.402344 C 294.675781 309.464844 295.457031 308.683594 296.394531 308.683594 C 297.335938 308.683594 298.117188 309.464844 298.117188 310.402344 L 298.117188 321.128906 L 309.863281 321.128906 L 309.863281 310.402344 C 309.863281 309.464844 310.644531 308.683594 311.585938 308.683594 C 312.523438 308.683594 313.304688 309.464844 313.304688 310.402344 L 313.304688 321.128906 L 325.050781 321.128906 L 325.050781 310.402344 C 325.050781 309.464844 325.832031 308.683594 326.773438 308.683594 C 327.710938 308.683594 328.496094 309.464844 328.496094 310.402344 L 328.496094 321.128906 L 349.554688 321.128906 L 349.554688 300.070312 L 338.828125 300.070312 C 337.890625 300.070312 337.105469 299.289062 337.105469 298.347656 C 337.105469 297.410156 337.890625 296.625 338.828125 296.625 L 349.554688 296.625 L 349.554688 284.882812 L 338.828125 284.882812 C 337.890625 284.882812 337.105469 284.097656 337.105469 283.160156 C 337.105469 282.21875 337.890625 281.4375 338.828125 281.4375 L 349.554688 281.4375 L 349.554688 269.695312 L 338.828125 269.695312 C 337.890625 269.695312 337.105469 268.910156 337.105469 267.972656 C 337.105469 267.03125 337.890625 266.25 338.828125 266.25 L 349.554688 266.25 L 349.554688 254.507812 L 338.828125 254.507812 C 337.890625 254.507812 337.105469 253.722656 337.105469 252.785156 C 337.105469 251.84375 337.890625 251.0625 338.828125 251.0625 L 349.554688 251.0625 L 349.554688 239.320312 L 338.828125 239.320312 C 337.890625 239.320312 337.105469 238.535156 337.105469 237.597656 C 337.105469 236.65625 337.890625 235.875 338.828125 235.875 L 349.554688 235.875 L 349.554688 224.132812 L 338.828125 224.132812 C 337.890625 224.132812 337.105469 223.347656 337.105469 222.410156 C 337.105469 221.46875 337.890625 220.6875 338.828125 220.6875 L 349.554688 220.6875 L 349.554688 208.945312 L 338.828125 208.945312 C 337.890625 208.945312 337.105469 208.160156 337.105469 207.222656 C 337.105469 206.28125 337.890625 205.5 338.828125 205.5 L 349.554688 205.5 L 349.554688 184.910156 Z M 322.152344 245.347656 C 323.40625 245.894531 324.265625 247.070312 324.265625 248.480469 L 324.265625 292.945312 C 324.265625 294.824219 322.777344 296.3125 320.898438 296.3125 L 276.433594 296.3125 C 275.023438 296.3125 273.847656 295.453125 273.300781 294.199219 C 273.144531 293.808594 273.066406 293.335938 273.066406 292.867188 C 273.066406 292.007812 273.378906 291.144531 274.085938 290.441406 L 318.550781 245.972656 C 319.414062 245.113281 320.898438 244.800781 322.152344 245.347656 Z M 322.152344 245.347656 " fill-opacity="1" fill-rule="nonzero"/><g clip-path="url(#a49a8b0e96)"><path fill="#000000" d="M 93.632812 86.1875 L 63.726562 105.917969 L 63.726562 66.773438 L 93.632812 66.773438 Z M 133.089844 5.945312 C 127.6875 5.867188 122.363281 5.945312 116.960938 5.945312 C 115.550781 5.945312 114.535156 6.570312 113.910156 7.746094 C 112.34375 10.640625 108.191406 15.652344 103.730469 15.652344 C 97.9375 15.808594 94.101562 8.371094 88.699219 8.136719 C 77.582031 7.746094 66.464844 8.214844 55.347656 8.136719 C 33.273438 9.152344 15.34375 17.453125 0.78125 60.199219 C 0.546875 61.058594 0 62.3125 1.019531 62.78125 C 5.089844 64.582031 23.328125 33.578125 49.007812 39.292969 C 63.648438 42.503906 63.882812 57.300781 63.726562 63.09375 L 93.710938 63.09375 C 93.710938 58.710938 93.710938 54.324219 93.710938 49.941406 C 93.789062 45.402344 95.199219 41.488281 98.71875 38.433594 C 101.148438 36.320312 104.90625 36.007812 107.800781 37.335938 C 110.621094 38.667969 112.1875 41.09375 113.59375 43.601562 C 114.457031 45.167969 115.628906 45.871094 117.429688 45.792969 C 122.597656 45.714844 127.765625 45.792969 132.933594 45.792969 C 136.613281 45.792969 139.117188 43.289062 139.117188 39.609375 C 139.117188 30.449219 139.117188 21.289062 139.117188 12.207031 C 139.195312 8.605469 136.691406 6.023438 133.089844 5.945312 Z M 63.726562 155.472656 L 72.730469 155.472656 C 73.746094 155.472656 74.609375 156.335938 74.609375 157.351562 C 74.609375 158.371094 73.746094 159.230469 72.730469 159.230469 L 63.726562 159.230469 L 63.726562 167.292969 L 79.773438 167.292969 C 80.871094 167.292969 81.652344 168.15625 81.652344 169.171875 C 81.652344 170.191406 80.792969 171.050781 79.773438 171.050781 L 63.726562 171.050781 L 63.726562 179.117188 L 72.730469 179.117188 C 73.746094 179.117188 74.609375 179.976562 74.609375 180.996094 C 74.609375 182.011719 73.746094 182.875 72.730469 182.875 L 63.726562 182.875 L 63.726562 190.9375 L 79.773438 190.9375 C 80.871094 190.9375 81.652344 191.796875 81.652344 192.816406 C 81.652344 193.835938 80.792969 194.695312 79.773438 194.695312 L 63.726562 194.695312 L 63.726562 202.757812 L 72.730469 202.757812 C 73.746094 202.757812 74.609375 203.621094 74.609375 204.636719 C 74.609375 205.65625 73.746094 206.515625 72.730469 206.515625 L 63.726562 206.515625 L 63.726562 214.582031 L 79.773438 214.582031 C 80.871094 214.582031 81.652344 215.441406 81.652344 216.460938 C 81.652344 217.476562 80.792969 218.339844 79.773438 218.339844 L 63.726562 218.339844 L 63.726562 226.402344 L 72.730469 226.402344 C 73.746094 226.402344 74.609375 227.261719 74.609375 228.28125 C 74.609375 229.296875 73.746094 230.160156 72.730469 230.160156 L 63.726562 230.160156 L 63.726562 238.457031 L 79.773438 238.457031 C 80.871094 238.457031 81.652344 239.320312 81.652344 240.335938 C 81.652344 241.355469 80.792969 242.214844 79.773438 242.214844 L 63.726562 242.214844 L 63.726562 250.28125 L 72.730469 250.28125 C 73.746094 250.28125 74.609375 251.140625 74.609375 252.160156 C 74.609375 253.175781 73.746094 254.039062 72.730469 254.039062 L 63.726562 254.039062 L 63.726562 262.179688 L 79.773438 262.179688 C 80.871094 262.179688 81.652344 263.039062 81.652344 264.058594 C 81.652344 265.074219 80.792969 265.9375 79.773438 265.9375 L 63.726562 265.9375 L 63.726562 274 L 72.730469 274 C 73.746094 274 74.609375 274.863281 74.609375 275.878906 C 74.609375 276.898438 73.746094 277.757812 72.730469 277.757812 L 63.726562 277.757812 L 63.726562 285.898438 L 79.773438 285.898438 C 80.871094 285.898438 81.652344 286.761719 81.652344 287.777344 C 81.652344 288.796875 80.792969 289.65625 79.773438 289.65625 L 63.726562 289.65625 L 63.726562 297.800781 L 72.730469 297.800781 C 73.746094 297.800781 74.609375 298.660156 74.609375 299.679688 C 74.609375 300.695312 73.746094 301.558594 72.730469 301.558594 L 63.726562 301.558594 L 63.726562 309.699219 L 79.773438 309.699219 C 80.871094 309.699219 81.652344 310.5625 81.652344 311.578125 C 81.652344 312.597656 80.792969 313.457031 79.773438 313.457031 L 63.726562 313.457031 L 63.726562 321.441406 L 72.730469 321.441406 C 73.746094 321.441406 74.609375 322.304688 74.609375 323.320312 C 74.609375 324.339844 73.746094 325.199219 72.730469 325.199219 L 63.726562 325.199219 L 63.726562 332.011719 L 9.628906 332.011719 L 9.628906 361.917969 L 11.117188 361.917969 L 11.117188 352.914062 C 11.117188 351.816406 11.976562 351.035156 12.996094 351.035156 C 14.011719 351.035156 14.875 351.898438 14.875 352.914062 L 14.875 361.917969 L 23.015625 361.917969 L 23.015625 345.867188 C 23.015625 344.773438 23.878906 343.988281 24.894531 343.988281 C 25.914062 343.988281 26.773438 344.851562 26.773438 345.867188 L 26.773438 361.917969 L 34.839844 361.917969 L 34.839844 352.914062 C 34.839844 351.816406 35.699219 351.035156 36.71875 351.035156 C 37.734375 351.035156 38.597656 351.898438 38.597656 352.914062 L 38.597656 361.917969 L 46.738281 361.917969 L 46.738281 345.867188 C 46.738281 344.773438 47.597656 343.988281 48.617188 343.988281 C 49.632812 343.988281 50.496094 344.851562 50.496094 345.867188 L 50.496094 361.917969 L 58.636719 361.917969 L 58.636719 352.914062 C 58.636719 351.816406 59.5 351.035156 60.515625 351.035156 C 61.535156 351.035156 62.394531 351.898438 62.394531 352.914062 L 62.394531 361.917969 L 70.535156 361.917969 L 70.535156 345.867188 C 70.535156 344.773438 71.398438 343.988281 72.414062 343.988281 C 73.433594 343.988281 74.292969 344.851562 74.292969 345.867188 L 74.292969 361.917969 L 82.4375 361.917969 L 82.4375 352.914062 C 82.4375 351.816406 83.296875 351.035156 84.316406 351.035156 C 85.332031 351.035156 86.195312 351.898438 86.195312 352.914062 L 86.195312 361.917969 L 93.867188 361.917969 L 93.867188 135.351562 L 63.960938 155.082031 L 63.960938 155.472656 Z M 63.726562 155.472656 " fill-opacity="1" fill-rule="nonzero"/></g><path fill="#ff921b" d="M 154.148438 202.210938 L 193.996094 202.210938 L 193.996094 242.058594 L 159.863281 242.058594 C 156.730469 242.058594 154.148438 239.554688 154.148438 236.34375 Z M 199.632812 202.210938 L 199.632812 242.058594 L 233.765625 242.058594 C 236.898438 242.058594 239.480469 239.554688 239.480469 236.34375 L 239.480469 202.210938 Z M 154.148438 162.363281 L 154.148438 196.496094 L 193.996094 196.496094 L 193.996094 156.648438 L 159.863281 156.648438 C 156.652344 156.726562 154.148438 159.230469 154.148438 162.363281 Z M 233.765625 156.726562 L 199.632812 156.726562 L 199.632812 196.574219 L 239.480469 196.574219 L 239.480469 162.441406 C 239.480469 159.230469 236.976562 156.726562 233.765625 156.726562 Z M 233.765625 156.726562 " fill-opacity="1" fill-rule="nonzero"/><g fill="#000000" fill-opacity="1"><g transform="translate(129.386716, 141.147426)"><g><path d="M 26.46875 -10 C 26.832031 -9.519531 27.140625 -8.953125 27.390625 -8.296875 C 27.648438 -7.648438 27.78125 -6.941406 27.78125 -6.171875 C 27.78125 -4.546875 27.582031 -3.160156 27.1875 -2.015625 C 26.800781 -0.878906 26.257812 0.0507812 25.5625 0.78125 C 24.875 1.507812 24.054688 2.039062 23.109375 2.375 C 22.160156 2.707031 21.128906 2.875 20.015625 2.875 C 19.773438 2.875 19.53125 2.863281 19.28125 2.84375 C 19.03125 2.832031 18.773438 2.8125 18.515625 2.78125 L 18.53125 2.78125 C 17.84375 2.6875 17.082031 2.625 16.25 2.59375 C 15.414062 2.5625 14.609375 2.546875 13.828125 2.546875 C 13.128906 2.546875 12.503906 2.550781 11.953125 2.5625 C 11.410156 2.570312 10.992188 2.582031 10.703125 2.59375 L 10.25 2.59375 C 8.664062 2.59375 7.300781 2.550781 6.15625 2.46875 C 5.019531 2.394531 4.066406 2.242188 3.296875 2.015625 C 2.515625 1.796875 1.890625 1.476562 1.421875 1.0625 C 0.953125 0.644531 0.601562 0.09375 0.375 -0.59375 C 0.125 -1.269531 -0.0351562 -2.09375 -0.109375 -3.0625 C -0.191406 -4.039062 -0.234375 -5.203125 -0.234375 -6.546875 L -0.234375 -7.65625 C -0.234375 -7.851562 -0.234375 -8.050781 -0.234375 -8.25 C -0.234375 -8.457031 -0.226562 -8.664062 -0.21875 -8.875 L -0.21875 -8.828125 L -0.078125 -20.90625 C -0.265625 -20.882812 -0.441406 -20.875 -0.609375 -20.875 C -0.773438 -20.875 -0.9375 -20.867188 -1.09375 -20.859375 C -1.25 -20.847656 -1.378906 -20.84375 -1.484375 -20.84375 C -1.585938 -20.84375 -1.664062 -20.84375 -1.71875 -20.84375 L -1.34375 -30.46875 L 17.3125 -30.921875 C 17.1875 -29.941406 17.066406 -28.941406 16.953125 -27.921875 C 16.835938 -26.910156 16.726562 -25.882812 16.625 -24.84375 C 16.53125 -23.945312 16.429688 -22.992188 16.328125 -21.984375 C 16.234375 -20.972656 16.148438 -19.925781 16.078125 -18.84375 C 15.992188 -17.78125 15.921875 -16.691406 15.859375 -15.578125 C 15.796875 -14.460938 15.742188 -13.375 15.703125 -12.3125 C 16.285156 -12.375 16.878906 -12.421875 17.484375 -12.453125 C 18.097656 -12.484375 18.695312 -12.5 19.28125 -12.5 C 20.175781 -12.5 21.050781 -12.445312 21.90625 -12.34375 C 22.757812 -12.25 23.546875 -12.070312 24.265625 -11.8125 L 24.234375 -11.84375 C 24.546875 -11.738281 24.90625 -11.53125 25.3125 -11.21875 C 25.71875 -10.90625 26.101562 -10.5 26.46875 -10 Z M 23.609375 -1.328125 C 24.054688 -1.828125 24.40625 -2.472656 24.65625 -3.265625 C 24.914062 -4.066406 25.046875 -5.035156 25.046875 -6.171875 C 25.046875 -6.597656 24.984375 -6.988281 24.859375 -7.34375 C 24.742188 -7.695312 24.597656 -8.007812 24.421875 -8.28125 C 24.242188 -8.539062 24.054688 -8.75 23.859375 -8.90625 C 23.660156 -9.070312 23.488281 -9.179688 23.34375 -9.234375 C 22.769531 -9.429688 22.132812 -9.570312 21.4375 -9.65625 C 20.75 -9.738281 20.03125 -9.78125 19.28125 -9.78125 C 18 -9.78125 16.847656 -9.710938 15.828125 -9.578125 C 14.816406 -9.441406 13.828125 -9.300781 12.859375 -9.15625 C 12.890625 -10.164062 12.9375 -11.207031 13 -12.28125 C 13.0625 -13.363281 13.128906 -14.445312 13.203125 -15.53125 C 13.242188 -16.0625 13.28125 -16.597656 13.3125 -17.140625 C 13.351562 -17.679688 13.398438 -18.210938 13.453125 -18.734375 C 13.503906 -19.253906 13.550781 -19.757812 13.59375 -20.25 C 13.632812 -20.75 13.675781 -21.234375 13.71875 -21.703125 C 13.820312 -22.804688 13.925781 -23.898438 14.03125 -24.984375 C 14.132812 -26.066406 14.238281 -27.140625 14.34375 -28.203125 L 7.4375 -27.96875 L 7.4375 -27.984375 C 6.90625 -27.972656 6.382812 -27.960938 5.875 -27.953125 C 5.375 -27.941406 4.878906 -27.921875 4.390625 -27.890625 C 3.910156 -27.878906 3.410156 -27.863281 2.890625 -27.84375 C 2.367188 -27.820312 1.84375 -27.804688 1.3125 -27.796875 L 1.109375 -23.671875 L 2.71875 -23.671875 L 2.515625 -8.8125 C 2.503906 -8.601562 2.5 -8.394531 2.5 -8.1875 C 2.5 -7.988281 2.5 -7.800781 2.5 -7.625 L 2.5 -6.546875 C 2.5 -5.597656 2.53125 -4.785156 2.59375 -4.109375 C 2.664062 -3.429688 2.785156 -2.859375 2.953125 -2.390625 C 3.128906 -1.898438 3.382812 -1.507812 3.71875 -1.21875 C 4.0625 -0.925781 4.519531 -0.703125 5.09375 -0.546875 C 5.664062 -0.378906 6.375 -0.269531 7.21875 -0.21875 C 8.070312 -0.164062 9.082031 -0.140625 10.25 -0.140625 L 10.46875 -0.140625 L 10.46875 -0.0625 C 10.476562 -0.0820312 10.597656 -0.109375 10.828125 -0.140625 C 11.046875 -0.148438 11.304688 -0.160156 11.609375 -0.171875 C 11.921875 -0.191406 12.265625 -0.203125 12.640625 -0.203125 L 13.71875 -0.203125 C 14.570312 -0.203125 15.457031 -0.179688 16.375 -0.140625 C 17.289062 -0.109375 18.132812 -0.0390625 18.90625 0.0625 C 19.113281 0.0820312 19.304688 0.0976562 19.484375 0.109375 C 19.671875 0.128906 19.847656 0.140625 20.015625 0.140625 C 20.734375 0.140625 21.398438 0.0234375 22.015625 -0.203125 C 22.640625 -0.441406 23.171875 -0.816406 23.609375 -1.328125 Z M 7.4375 -27.96875 L 7.421875 -27.96875 Z M 7.4375 -27.96875 "/></g></g></g><g fill="#000000" fill-opacity="1"><g transform="translate(155.087317, 141.147426)"><g><path d="M 15.140625 3.140625 C 13.015625 3.140625 11.128906 2.914062 9.484375 2.46875 C 7.835938 2.03125 6.394531 1.414062 5.15625 0.625 C 3.914062 -0.164062 2.875 -1.117188 2.03125 -2.234375 C 1.1875 -3.359375 0.503906 -4.597656 -0.015625 -5.953125 C -0.535156 -7.304688 -0.910156 -8.757812 -1.140625 -10.3125 C -1.378906 -11.863281 -1.507812 -13.472656 -1.53125 -15.140625 C -1.445312 -17.804688 -0.960938 -20.1875 -0.078125 -22.28125 C 0.796875 -24.382812 2.019531 -26.144531 3.59375 -27.5625 C 5.164062 -28.988281 7.050781 -30.070312 9.25 -30.8125 C 11.445312 -31.5625 13.898438 -31.9375 16.609375 -31.9375 C 19.898438 -31.9375 22.820312 -31.316406 25.375 -30.078125 C 27.925781 -28.835938 30.171875 -26.976562 32.109375 -24.5 L 31.15625 -23.875 C 31.726562 -23.25 32.222656 -22.519531 32.640625 -21.6875 C 33.066406 -20.863281 33.425781 -19.984375 33.71875 -19.046875 C 34 -18.097656 34.21875 -17.101562 34.375 -16.0625 C 34.53125 -15.03125 34.632812 -13.992188 34.6875 -12.953125 C 34.71875 -11.640625 34.601562 -10.332031 34.34375 -9.03125 C 34.09375 -7.738281 33.660156 -6.492188 33.046875 -5.296875 C 32.453125 -4.109375 31.648438 -2.992188 30.640625 -1.953125 C 29.640625 -0.921875 28.410156 -0.03125 26.953125 0.71875 C 25.492188 1.476562 23.789062 2.070312 21.84375 2.5 C 19.894531 2.925781 17.660156 3.140625 15.140625 3.140625 Z M 15.140625 0.40625 C 17.273438 0.40625 19.171875 0.238281 20.828125 -0.09375 C 22.492188 -0.425781 23.953125 -0.890625 25.203125 -1.484375 C 26.429688 -2.066406 27.476562 -2.757812 28.34375 -3.5625 C 29.21875 -4.363281 29.921875 -5.238281 30.453125 -6.1875 C 30.984375 -7.125 31.363281 -8.117188 31.59375 -9.171875 C 31.832031 -10.222656 31.953125 -11.28125 31.953125 -12.34375 C 31.953125 -13.75 31.84375 -15.113281 31.625 -16.4375 C 31.40625 -17.769531 31.0625 -18.953125 30.59375 -19.984375 C 30.125 -21.023438 29.515625 -21.851562 28.765625 -22.46875 C 28.015625 -23.09375 27.113281 -23.40625 26.0625 -23.40625 C 25.832031 -23.40625 25.585938 -23.382812 25.328125 -23.34375 L 28.109375 -25.15625 C 26.953125 -26.5 25.421875 -27.507812 23.515625 -28.1875 C 21.617188 -28.863281 19.316406 -29.203125 16.609375 -29.203125 C 14.210938 -29.203125 12.0625 -28.890625 10.15625 -28.265625 C 8.257812 -27.640625 6.644531 -26.707031 5.3125 -25.46875 C 3.988281 -24.25 2.972656 -22.722656 2.265625 -20.890625 C 1.566406 -19.054688 1.21875 -16.953125 1.21875 -14.578125 C 1.21875 -12.441406 1.441406 -10.457031 1.890625 -8.625 C 2.335938 -6.789062 3.09375 -5.207031 4.15625 -3.875 C 5.238281 -2.53125 6.664062 -1.476562 8.4375 -0.71875 C 10.21875 0.03125 12.453125 0.40625 15.140625 0.40625 Z M 16.65625 -5.3125 C 15.875 -5.3125 15.242188 -5.507812 14.765625 -5.90625 C 14.285156 -6.300781 13.914062 -6.851562 13.65625 -7.5625 C 13.382812 -8.25 13.195312 -9.070312 13.09375 -10.03125 C 13 -10.988281 12.953125 -12.023438 12.953125 -13.140625 C 12.953125 -14.617188 13.054688 -15.894531 13.265625 -16.96875 C 13.472656 -18.050781 13.753906 -18.953125 14.109375 -19.671875 C 14.453125 -20.367188 14.847656 -20.890625 15.296875 -21.234375 C 15.753906 -21.585938 16.222656 -21.765625 16.703125 -21.765625 C 17.285156 -21.765625 17.742188 -21.710938 18.078125 -21.609375 C 18.410156 -21.515625 18.660156 -21.375 18.828125 -21.1875 C 19.015625 -21.007812 19.140625 -20.773438 19.203125 -20.484375 C 19.265625 -20.203125 19.328125 -19.878906 19.390625 -19.515625 L 19.421875 -19.46875 L 20.515625 -20.203125 C 20.441406 -19.972656 20.394531 -19.75 20.375 -19.53125 C 20.363281 -19.3125 20.359375 -19.078125 20.359375 -18.828125 C 20.359375 -18.503906 20.367188 -18.15625 20.390625 -17.78125 C 20.421875 -17.414062 20.460938 -17.023438 20.515625 -16.609375 C 20.566406 -16.191406 20.609375 -15.742188 20.640625 -15.265625 C 20.671875 -14.785156 20.691406 -14.285156 20.703125 -13.765625 L 20.703125 -13.25 C 20.703125 -12.257812 20.640625 -11.285156 20.515625 -10.328125 C 20.390625 -9.378906 20.171875 -8.535156 19.859375 -7.796875 C 19.546875 -7.054688 19.128906 -6.457031 18.609375 -6 C 18.085938 -5.539062 17.4375 -5.3125 16.65625 -5.3125 Z M 16.65625 -5.3125 "/></g></g></g><g fill="#000000" fill-opacity="1"><g transform="translate(189.029312, 141.147426)"><g><path d="M 16.734375 3.25 C 14.179688 3.25 11.957031 3.078125 10.0625 2.734375 C 8.175781 2.398438 6.5625 1.898438 5.21875 1.234375 C 3.875 0.578125 2.769531 -0.226562 1.90625 -1.1875 C 1.050781 -2.144531 0.375 -3.238281 -0.125 -4.46875 C -0.613281 -5.707031 -0.953125 -7.078125 -1.140625 -8.578125 C -1.328125 -10.085938 -1.421875 -11.707031 -1.421875 -13.4375 C -1.421875 -15.25 -1.296875 -16.953125 -1.046875 -18.546875 C -0.796875 -20.140625 -0.390625 -21.609375 0.171875 -22.953125 C 0.734375 -24.296875 1.460938 -25.492188 2.359375 -26.546875 C 3.265625 -27.609375 4.367188 -28.515625 5.671875 -29.265625 C 6.953125 -30.003906 8.453125 -30.566406 10.171875 -30.953125 C 11.890625 -31.347656 13.851562 -31.546875 16.0625 -31.546875 C 17.15625 -31.546875 18.242188 -31.503906 19.328125 -31.421875 C 20.410156 -31.335938 21.539062 -31.15625 22.71875 -30.875 C 23.882812 -30.59375 25.117188 -30.191406 26.421875 -29.671875 C 27.722656 -29.148438 29.128906 -28.457031 30.640625 -27.59375 L 26.15625 -17.671875 C 25.164062 -17.828125 24.289062 -17.957031 23.53125 -18.0625 C 22.78125 -18.164062 22.125 -18.257812 21.5625 -18.34375 C 21 -18.40625 20.519531 -18.445312 20.125 -18.46875 C 19.726562 -18.5 19.390625 -18.515625 19.109375 -18.515625 C 18.703125 -18.515625 18.34375 -18.507812 18.03125 -18.5 C 17.726562 -18.5 17.460938 -18.457031 17.234375 -18.375 C 16.992188 -18.300781 16.789062 -18.164062 16.625 -17.96875 C 16.457031 -17.769531 16.304688 -17.488281 16.171875 -17.125 C 16.390625 -17.195312 16.601562 -17.25 16.8125 -17.28125 C 17.019531 -17.320312 17.226562 -17.359375 17.4375 -17.390625 C 18.570312 -17.492188 19.566406 -17.570312 20.421875 -17.625 C 21.273438 -17.6875 22.070312 -17.71875 22.8125 -17.71875 C 23.488281 -17.71875 24.148438 -17.691406 24.796875 -17.640625 C 25.441406 -17.597656 26.113281 -17.523438 26.8125 -17.421875 L 26.796875 -17.421875 C 27.523438 -17.316406 28.175781 -17.164062 28.75 -16.96875 C 29.332031 -16.78125 29.828125 -16.488281 30.234375 -16.09375 C 30.628906 -15.6875 30.929688 -15.164062 31.140625 -14.53125 C 31.359375 -13.894531 31.46875 -13.085938 31.46875 -12.109375 L 31.46875 -11.765625 C 31.46875 -11.140625 31.46875 -10.550781 31.46875 -10 C 31.46875 -9.457031 31.472656 -8.957031 31.484375 -8.5 L 31.484375 -5.875 C 31.441406 -5.019531 31.351562 -4.296875 31.21875 -3.703125 C 31.082031 -3.117188 30.910156 -2.617188 30.703125 -2.203125 C 30.492188 -1.804688 30.257812 -1.46875 30 -1.1875 C 29.75 -0.90625 29.503906 -0.660156 29.265625 -0.453125 L 29.28125 -0.46875 C 28.726562 0 28.097656 0.414062 27.390625 0.78125 C 26.691406 1.144531 25.960938 1.460938 25.203125 1.734375 C 24.421875 2.015625 23.625 2.25 22.8125 2.4375 C 22.007812 2.625 21.234375 2.773438 20.484375 2.890625 C 19.734375 3.023438 19.035156 3.117188 18.390625 3.171875 C 17.742188 3.222656 17.191406 3.25 16.734375 3.25 Z M 16.734375 0.515625 C 17.140625 0.515625 17.625 0.488281 18.1875 0.4375 C 18.75 0.382812 19.351562 0.3125 20 0.21875 C 20.65625 0.113281 21.328125 -0.0078125 22.015625 -0.15625 C 22.703125 -0.3125 23.378906 -0.507812 24.046875 -0.75 C 24.710938 -0.96875 25.335938 -1.222656 25.921875 -1.515625 C 26.515625 -1.816406 27.039062 -2.160156 27.5 -2.546875 C 27.644531 -2.660156 27.796875 -2.804688 27.953125 -2.984375 C 28.109375 -3.160156 28.25 -3.382812 28.375 -3.65625 C 28.519531 -3.925781 28.632812 -4.265625 28.71875 -4.671875 C 28.800781 -5.078125 28.859375 -5.566406 28.890625 -6.140625 L 28.90625 -6.140625 C 28.863281 -6.535156 28.828125 -6.988281 28.796875 -7.5 C 28.773438 -8.007812 28.757812 -8.601562 28.75 -9.28125 C 28.738281 -9.613281 28.734375 -9.96875 28.734375 -10.34375 C 28.734375 -10.726562 28.734375 -11.140625 28.734375 -11.578125 L 28.734375 -12.109375 C 28.734375 -12.585938 28.679688 -12.976562 28.578125 -13.28125 C 28.472656 -13.59375 28.320312 -13.847656 28.125 -14.046875 C 27.914062 -14.242188 27.664062 -14.390625 27.375 -14.484375 C 27.09375 -14.578125 26.769531 -14.648438 26.40625 -14.703125 C 25.738281 -14.804688 25.117188 -14.878906 24.546875 -14.921875 C 23.972656 -14.960938 23.394531 -14.984375 22.8125 -14.984375 C 22.113281 -14.984375 21.347656 -14.957031 20.515625 -14.90625 C 19.691406 -14.851562 18.757812 -14.773438 17.71875 -14.671875 C 17.519531 -14.640625 17.3125 -14.59375 17.09375 -14.53125 C 16.882812 -14.476562 16.695312 -14.398438 16.53125 -14.296875 C 16.351562 -14.179688 16.207031 -14.035156 16.09375 -13.859375 C 15.988281 -13.691406 15.9375 -13.492188 15.9375 -13.265625 C 15.9375 -12.847656 16 -12.5 16.125 -12.21875 C 16.25 -11.945312 16.394531 -11.734375 16.5625 -11.578125 C 16.75 -11.421875 16.945312 -11.3125 17.15625 -11.25 C 17.363281 -11.195312 17.570312 -11.171875 17.78125 -11.171875 L 17.90625 -11.171875 C 17.957031 -11.171875 18.003906 -11.175781 18.046875 -11.1875 C 18.078125 -10.769531 18.097656 -10.375 18.109375 -10 C 18.117188 -9.632812 18.128906 -9.296875 18.140625 -8.984375 C 18.160156 -8.660156 18.175781 -8.359375 18.1875 -8.078125 C 18.195312 -7.804688 18.207031 -7.5625 18.21875 -7.34375 C 18.238281 -7.113281 18.25 -6.898438 18.25 -6.703125 C 18.25 -6.503906 18.253906 -6.328125 18.265625 -6.171875 C 18.273438 -6.003906 18.28125 -5.851562 18.28125 -5.71875 C 18.28125 -5.59375 18.285156 -5.476562 18.296875 -5.375 C 18.015625 -5.3125 17.726562 -5.257812 17.4375 -5.21875 C 17.144531 -5.175781 16.847656 -5.15625 16.546875 -5.15625 C 15.734375 -5.15625 15.09375 -5.347656 14.625 -5.734375 C 14.15625 -6.117188 13.804688 -6.628906 13.578125 -7.265625 C 13.328125 -7.890625 13.164062 -8.613281 13.09375 -9.4375 C 13.019531 -10.257812 12.984375 -11.101562 12.984375 -11.96875 C 12.984375 -13.414062 13.046875 -14.6875 13.171875 -15.78125 C 13.296875 -16.882812 13.507812 -17.816406 13.8125 -18.578125 C 14.113281 -19.328125 14.515625 -19.914062 15.015625 -20.34375 C 15.523438 -20.769531 16.171875 -21.023438 16.953125 -21.109375 C 17.316406 -21.148438 17.664062 -21.179688 18 -21.203125 C 18.34375 -21.234375 18.710938 -21.25 19.109375 -21.25 C 19.753906 -21.25 20.5 -21.207031 21.34375 -21.125 C 22.195312 -21.050781 23.265625 -20.914062 24.546875 -20.71875 L 27.125 -26.46875 C 26.1875 -26.988281 25.257812 -27.398438 24.34375 -27.703125 C 23.4375 -28.015625 22.53125 -28.253906 21.625 -28.421875 C 20.707031 -28.578125 19.789062 -28.679688 18.875 -28.734375 C 17.957031 -28.785156 17.019531 -28.8125 16.0625 -28.8125 C 13.269531 -28.8125 10.929688 -28.445312 9.046875 -27.71875 C 7.171875 -26.988281 5.660156 -25.945312 4.515625 -24.59375 C 3.367188 -23.25 2.546875 -21.628906 2.046875 -19.734375 C 1.554688 -17.835938 1.3125 -15.738281 1.3125 -13.4375 C 1.3125 -11.976562 1.390625 -10.625 1.546875 -9.375 C 1.703125 -8.132812 1.992188 -6.992188 2.421875 -5.953125 C 2.835938 -4.929688 3.410156 -4.015625 4.140625 -3.203125 C 4.867188 -2.398438 5.804688 -1.722656 6.953125 -1.171875 C 8.097656 -0.628906 9.472656 -0.210938 11.078125 0.078125 C 12.679688 0.367188 14.566406 0.515625 16.734375 0.515625 Z M 16.734375 0.515625 "/></g></g></g><g fill="#000000" fill-opacity="1"><g transform="translate(220.666845, 141.147426)"><g><path d="M 15.140625 3.140625 C 13.015625 3.140625 11.128906 2.914062 9.484375 2.46875 C 7.835938 2.03125 6.394531 1.414062 5.15625 0.625 C 3.914062 -0.164062 2.875 -1.117188 2.03125 -2.234375 C 1.1875 -3.359375 0.503906 -4.597656 -0.015625 -5.953125 C -0.535156 -7.304688 -0.910156 -8.757812 -1.140625 -10.3125 C -1.378906 -11.863281 -1.507812 -13.472656 -1.53125 -15.140625 C -1.445312 -17.804688 -0.960938 -20.1875 -0.078125 -22.28125 C 0.796875 -24.382812 2.019531 -26.144531 3.59375 -27.5625 C 5.164062 -28.988281 7.050781 -30.070312 9.25 -30.8125 C 11.445312 -31.5625 13.898438 -31.9375 16.609375 -31.9375 C 19.898438 -31.9375 22.820312 -31.316406 25.375 -30.078125 C 27.925781 -28.835938 30.171875 -26.976562 32.109375 -24.5 L 31.15625 -23.875 C 31.726562 -23.25 32.222656 -22.519531 32.640625 -21.6875 C 33.066406 -20.863281 33.425781 -19.984375 33.71875 -19.046875 C 34 -18.097656 34.21875 -17.101562 34.375 -16.0625 C 34.53125 -15.03125 34.632812 -13.992188 34.6875 -12.953125 C 34.71875 -11.640625 34.601562 -10.332031 34.34375 -9.03125 C 34.09375 -7.738281 33.660156 -6.492188 33.046875 -5.296875 C 32.453125 -4.109375 31.648438 -2.992188 30.640625 -1.953125 C 29.640625 -0.921875 28.410156 -0.03125 26.953125 0.71875 C 25.492188 1.476562 23.789062 2.070312 21.84375 2.5 C 19.894531 2.925781 17.660156 3.140625 15.140625 3.140625 Z M 15.140625 0.40625 C 17.273438 0.40625 19.171875 0.238281 20.828125 -0.09375 C 22.492188 -0.425781 23.953125 -0.890625 25.203125 -1.484375 C 26.429688 -2.066406 27.476562 -2.757812 28.34375 -3.5625 C 29.21875 -4.363281 29.921875 -5.238281 30.453125 -6.1875 C 30.984375 -7.125 31.363281 -8.117188 31.59375 -9.171875 C 31.832031 -10.222656 31.953125 -11.28125 31.953125 -12.34375 C 31.953125 -13.75 31.84375 -15.113281 31.625 -16.4375 C 31.40625 -17.769531 31.0625 -18.953125 30.59375 -19.984375 C 30.125 -21.023438 29.515625 -21.851562 28.765625 -22.46875 C 28.015625 -23.09375 27.113281 -23.40625 26.0625 -23.40625 C 25.832031 -23.40625 25.585938 -23.382812 25.328125 -23.34375 L 28.109375 -25.15625 C 26.953125 -26.5 25.421875 -27.507812 23.515625 -28.1875 C 21.617188 -28.863281 19.316406 -29.203125 16.609375 -29.203125 C 14.210938 -29.203125 12.0625 -28.890625 10.15625 -28.265625 C 8.257812 -27.640625 6.644531 -26.707031 5.3125 -25.46875 C 3.988281 -24.25 2.972656 -22.722656 2.265625 -20.890625 C 1.566406 -19.054688 1.21875 -16.953125 1.21875 -14.578125 C 1.21875 -12.441406 1.441406 -10.457031 1.890625 -8.625 C 2.335938 -6.789062 3.09375 -5.207031 4.15625 -3.875 C 5.238281 -2.53125 6.664062 -1.476562 8.4375 -0.71875 C 10.21875 0.03125 12.453125 0.40625 15.140625 0.40625 Z M 16.65625 -5.3125 C 15.875 -5.3125 15.242188 -5.507812 14.765625 -5.90625 C 14.285156 -6.300781 13.914062 -6.851562 13.65625 -7.5625 C 13.382812 -8.25 13.195312 -9.070312 13.09375 -10.03125 C 13 -10.988281 12.953125 -12.023438 12.953125 -13.140625 C 12.953125 -14.617188 13.054688 -15.894531 13.265625 -16.96875 C 13.472656 -18.050781 13.753906 -18.953125 14.109375 -19.671875 C 14.453125 -20.367188 14.847656 -20.890625 15.296875 -21.234375 C 15.753906 -21.585938 16.222656 -21.765625 16.703125 -21.765625 C 17.285156 -21.765625 17.742188 -21.710938 18.078125 -21.609375 C 18.410156 -21.515625 18.660156 -21.375 18.828125 -21.1875 C 19.015625 -21.007812 19.140625 -20.773438 19.203125 -20.484375 C 19.265625 -20.203125 19.328125 -19.878906 19.390625 -19.515625 L 19.421875 -19.46875 L 20.515625 -20.203125 C 20.441406 -19.972656 20.394531 -19.75 20.375 -19.53125 C 20.363281 -19.3125 20.359375 -19.078125 20.359375 -18.828125 C 20.359375 -18.503906 20.367188 -18.15625 20.390625 -17.78125 C 20.421875 -17.414062 20.460938 -17.023438 20.515625 -16.609375 C 20.566406 -16.191406 20.609375 -15.742188 20.640625 -15.265625 C 20.671875 -14.785156 20.691406 -14.285156 20.703125 -13.765625 L 20.703125 -13.25 C 20.703125 -12.257812 20.640625 -11.285156 20.515625 -10.328125 C 20.390625 -9.378906 20.171875 -8.535156 19.859375 -7.796875 C 19.546875 -7.054688 19.128906 -6.457031 18.609375 -6 C 18.085938 -5.539062 17.4375 -5.3125 16.65625 -5.3125 Z M 16.65625 -5.3125 "/></g></g></g></svg>