<svg xmlns="http://www.w3.org/2000/svg" xmlns:xlink="http://www.w3.org/1999/xlink" width="512" zoomAndPan="magnify" viewBox="0 0 384 383.999986" height="512" preserveAspectRatio="xMidYMid meet" version="1.0"><defs><g/><clipPath id="eeaefe915a"><path d="M 2 29 L 377.019531 29 L 377.019531 384 L 2 384 Z M 2 29 " clip-rule="nonzero"/></clipPath><clipPath id="1efabacc10"><path d="M 0 11.519531 L 133 11.519531 L 133 368 L 0 368 Z M 0 11.519531 " clip-rule="nonzero"/></clipPath></defs><g clip-path="url(#eeaefe915a)"><path fill="#ff921b" d="M 377.019531 361.648438 L 183.414062 361.648438 C 177.621094 374.800781 164.390625 383.882812 149.046875 383.726562 C 137.222656 383.570312 126.8125 377.855469 120.15625 369.164062 C 119.140625 367.832031 120.078125 365.953125 121.800781 365.953125 L 147.480469 366.035156 L 159.300781 346.851562 L 147.480469 327.59375 L 121.800781 327.515625 C 120.15625 327.515625 119.21875 325.636719 120.234375 324.304688 C 127.125 315.382812 137.929688 309.667969 150.0625 309.824219 C 164.9375 310.058594 177.621094 319.0625 183.335938 331.820312 L 347.113281 331.820312 L 347.113281 169.453125 L 189.910156 65.644531 L 32.554688 169.453125 L 32.554688 333.464844 L 2.648438 333.464844 L 2.648438 153.328125 L 189.910156 29.789062 L 377.019531 153.328125 Z M 377.019531 361.648438 " fill-opacity="1" fill-rule="nonzero"/></g><path fill="#ff921b" d="M 269.453125 298.628906 L 313.917969 254.160156 L 313.917969 298.628906 Z M 269.453125 298.628906 " fill-opacity="1" fill-rule="nonzero"/><path fill="#ffffff" d="M 342.101562 190.667969 L 205.882812 326.890625 L 226.941406 326.890625 L 226.941406 316.164062 C 226.941406 315.226562 227.722656 314.441406 228.664062 314.441406 C 229.601562 314.441406 230.386719 315.226562 230.386719 316.164062 L 230.386719 326.890625 L 242.128906 326.890625 L 242.128906 316.164062 C 242.128906 315.226562 242.910156 314.441406 243.851562 314.441406 C 244.789062 314.441406 245.574219 315.226562 245.574219 316.164062 L 245.574219 326.890625 L 257.316406 326.890625 L 257.316406 316.164062 C 257.316406 315.226562 258.097656 314.441406 259.039062 314.441406 C 259.976562 314.441406 260.761719 315.226562 260.761719 316.164062 L 260.761719 326.890625 L 272.503906 326.890625 L 272.503906 316.164062 C 272.503906 315.226562 273.289062 314.441406 274.226562 314.441406 C 275.167969 314.441406 275.949219 315.226562 275.949219 316.164062 L 275.949219 326.890625 L 287.691406 326.890625 L 287.691406 316.164062 C 287.691406 315.226562 288.476562 314.441406 289.414062 314.441406 C 290.355469 314.441406 291.136719 315.226562 291.136719 316.164062 L 291.136719 326.890625 L 302.878906 326.890625 L 302.878906 316.164062 C 302.878906 315.226562 303.664062 314.441406 304.601562 314.441406 C 305.542969 314.441406 306.324219 315.226562 306.324219 316.164062 L 306.324219 326.890625 L 318.066406 326.890625 L 318.066406 316.164062 C 318.066406 315.226562 318.851562 314.441406 319.789062 314.441406 C 320.730469 314.441406 321.511719 315.226562 321.511719 316.164062 L 321.511719 326.890625 L 342.570312 326.890625 L 342.570312 305.832031 L 331.847656 305.832031 C 330.90625 305.832031 330.125 305.046875 330.125 304.109375 C 330.125 303.167969 330.90625 302.386719 331.847656 302.386719 L 342.570312 302.386719 L 342.570312 290.640625 L 331.847656 290.640625 C 330.90625 290.640625 330.125 289.859375 330.125 288.921875 C 330.125 287.980469 330.90625 287.199219 331.847656 287.199219 L 342.570312 287.199219 L 342.570312 275.453125 L 331.847656 275.453125 C 330.90625 275.453125 330.125 274.671875 330.125 273.730469 C 330.125 272.792969 330.90625 272.011719 331.847656 272.011719 L 342.570312 272.011719 L 342.570312 260.265625 L 331.847656 260.265625 C 330.90625 260.265625 330.125 259.484375 330.125 258.542969 C 330.125 257.605469 330.90625 256.820312 331.847656 256.820312 L 342.570312 256.820312 L 342.570312 245.078125 L 331.847656 245.078125 C 330.90625 245.078125 330.125 244.296875 330.125 243.355469 C 330.125 242.417969 330.90625 241.632812 331.847656 241.632812 L 342.570312 241.632812 L 342.570312 229.890625 L 331.847656 229.890625 C 330.90625 229.890625 330.125 229.109375 330.125 228.167969 C 330.125 227.230469 330.90625 226.445312 331.847656 226.445312 L 342.570312 226.445312 L 342.570312 214.703125 L 331.847656 214.703125 C 330.90625 214.703125 330.125 213.921875 330.125 212.980469 C 330.125 212.042969 330.90625 211.257812 331.847656 211.257812 L 342.570312 211.257812 L 342.570312 190.667969 Z M 315.171875 251.105469 C 316.421875 251.65625 317.285156 252.828125 317.285156 254.238281 L 317.285156 298.707031 C 317.285156 300.585938 315.796875 302.074219 313.917969 302.074219 L 269.453125 302.074219 C 268.042969 302.074219 266.867188 301.210938 266.320312 299.957031 C 266.164062 299.566406 266.085938 299.097656 266.085938 298.628906 C 266.085938 297.765625 266.398438 296.90625 267.101562 296.199219 L 311.570312 251.734375 C 312.429688 250.871094 313.917969 250.558594 315.171875 251.105469 Z M 315.171875 251.105469 " fill-opacity="1" fill-rule="nonzero"/><g clip-path="url(#1efabacc10)"><path fill="#ffffff" d="M 86.648438 91.949219 L 56.746094 111.675781 L 56.746094 72.535156 L 86.648438 72.535156 Z M 126.105469 11.703125 C 120.703125 11.625 115.382812 11.703125 109.980469 11.703125 C 108.570312 11.703125 107.550781 12.332031 106.925781 13.503906 C 105.359375 16.402344 101.210938 21.410156 96.75 21.410156 C 90.957031 21.570312 87.121094 14.132812 81.71875 13.894531 C 70.601562 13.503906 59.484375 13.972656 48.367188 13.894531 C 26.289062 14.914062 8.363281 23.210938 -6.199219 65.957031 C -6.433594 66.820312 -6.980469 68.070312 -5.964844 68.539062 C -1.894531 70.339844 16.347656 39.339844 42.027344 45.054688 C 56.664062 48.265625 56.902344 63.0625 56.746094 68.855469 L 86.726562 68.855469 C 86.726562 64.46875 86.726562 60.085938 86.726562 55.703125 C 86.804688 51.160156 88.214844 47.246094 91.738281 44.195312 C 94.164062 42.078125 97.921875 41.765625 100.820312 43.097656 C 103.636719 44.429688 105.203125 46.855469 106.613281 49.359375 C 107.472656 50.925781 108.648438 51.628906 110.449219 51.550781 C 115.617188 51.472656 120.785156 51.550781 125.949219 51.550781 C 129.628906 51.550781 132.136719 49.046875 132.136719 45.367188 C 132.136719 36.207031 132.136719 27.046875 132.136719 17.96875 C 132.214844 14.367188 129.707031 11.78125 126.105469 11.703125 Z M 56.746094 161.234375 L 65.746094 161.234375 C 66.765625 161.234375 67.625 162.09375 67.625 163.113281 C 67.625 164.128906 66.765625 164.992188 65.746094 164.992188 L 56.746094 164.992188 L 56.746094 173.054688 L 72.792969 173.054688 C 73.890625 173.054688 74.671875 173.914062 74.671875 174.933594 C 74.671875 175.953125 73.8125 176.8125 72.792969 176.8125 L 56.746094 176.8125 L 56.746094 184.875 L 65.746094 184.875 C 66.765625 184.875 67.625 185.738281 67.625 186.753906 C 67.625 187.773438 66.765625 188.632812 65.746094 188.632812 L 56.746094 188.632812 L 56.746094 196.699219 L 72.792969 196.699219 C 73.890625 196.699219 74.671875 197.558594 74.671875 198.578125 C 74.671875 199.59375 73.8125 200.457031 72.792969 200.457031 L 56.746094 200.457031 L 56.746094 208.519531 L 65.746094 208.519531 C 66.765625 208.519531 67.625 209.378906 67.625 210.398438 C 67.625 211.414062 66.765625 212.277344 65.746094 212.277344 L 56.746094 212.277344 L 56.746094 220.339844 L 72.792969 220.339844 C 73.890625 220.339844 74.671875 221.203125 74.671875 222.21875 C 74.671875 223.238281 73.8125 224.097656 72.792969 224.097656 L 56.746094 224.097656 L 56.746094 232.160156 L 65.746094 232.160156 C 66.765625 232.160156 67.625 233.023438 67.625 234.039062 C 67.625 235.058594 66.765625 235.917969 65.746094 235.917969 L 56.746094 235.917969 L 56.746094 244.21875 L 72.792969 244.21875 C 73.890625 244.21875 74.671875 245.078125 74.671875 246.097656 C 74.671875 247.113281 73.8125 247.976562 72.792969 247.976562 L 56.746094 247.976562 L 56.746094 256.039062 L 65.746094 256.039062 C 66.765625 256.039062 67.625 256.902344 67.625 257.917969 C 67.625 258.9375 66.765625 259.796875 65.746094 259.796875 L 56.746094 259.796875 L 56.746094 267.9375 L 72.792969 267.9375 C 73.890625 267.9375 74.671875 268.800781 74.671875 269.816406 C 74.671875 270.835938 73.8125 271.695312 72.792969 271.695312 L 56.746094 271.695312 L 56.746094 279.761719 L 65.746094 279.761719 C 66.765625 279.761719 67.625 280.621094 67.625 281.640625 C 67.625 282.65625 66.765625 283.519531 65.746094 283.519531 L 56.746094 283.519531 L 56.746094 291.660156 L 72.792969 291.660156 C 73.890625 291.660156 74.671875 292.519531 74.671875 293.539062 C 74.671875 294.558594 73.8125 295.417969 72.792969 295.417969 L 56.746094 295.417969 L 56.746094 303.558594 L 65.746094 303.558594 C 66.765625 303.558594 67.625 304.421875 67.625 305.4375 C 67.625 306.457031 66.765625 307.316406 65.746094 307.316406 L 56.746094 307.316406 L 56.746094 315.460938 L 72.792969 315.460938 C 73.890625 315.460938 74.671875 316.320312 74.671875 317.339844 C 74.671875 318.355469 73.8125 319.21875 72.792969 319.21875 L 56.746094 319.21875 L 56.746094 327.203125 L 65.746094 327.203125 C 66.765625 327.203125 67.625 328.0625 67.625 329.082031 C 67.625 330.097656 66.765625 330.960938 65.746094 330.960938 L 56.746094 330.960938 L 56.746094 337.769531 L 2.648438 337.769531 L 2.648438 367.675781 L 4.136719 367.675781 L 4.136719 358.675781 C 4.136719 357.578125 4.996094 356.796875 6.015625 356.796875 C 7.03125 356.796875 7.894531 357.65625 7.894531 358.675781 L 7.894531 367.675781 L 16.035156 367.675781 L 16.035156 351.628906 C 16.035156 350.53125 16.894531 349.75 17.914062 349.75 C 18.929688 349.75 19.792969 350.609375 19.792969 351.628906 L 19.792969 367.675781 L 27.855469 367.675781 L 27.855469 358.675781 C 27.855469 357.578125 28.71875 356.796875 29.734375 356.796875 C 30.753906 356.796875 31.613281 357.65625 31.613281 358.675781 L 31.613281 367.675781 L 39.753906 367.675781 L 39.753906 351.628906 C 39.753906 350.53125 40.617188 349.75 41.632812 349.75 C 42.652344 349.75 43.511719 350.609375 43.511719 351.628906 L 43.511719 367.675781 L 51.65625 367.675781 L 51.65625 358.675781 C 51.65625 357.578125 52.515625 356.796875 53.535156 356.796875 C 54.550781 356.796875 55.414062 357.65625 55.414062 358.675781 L 55.414062 367.675781 L 63.554688 367.675781 L 63.554688 351.628906 C 63.554688 350.53125 64.417969 349.75 65.433594 349.75 C 66.453125 349.75 67.3125 350.609375 67.3125 351.628906 L 67.3125 367.675781 L 75.453125 367.675781 L 75.453125 358.675781 C 75.453125 357.578125 76.316406 356.796875 77.332031 356.796875 C 78.351562 356.796875 79.210938 357.65625 79.210938 358.675781 L 79.210938 367.675781 L 86.886719 367.675781 L 86.886719 141.113281 L 56.980469 160.84375 L 56.980469 161.234375 Z M 56.746094 161.234375 " fill-opacity="1" fill-rule="nonzero"/></g><path fill="#ff921b" d="M 147.167969 207.972656 L 187.015625 207.972656 L 187.015625 247.820312 L 152.882812 247.820312 C 149.75 247.820312 147.167969 245.3125 147.167969 242.105469 Z M 192.652344 207.972656 L 192.652344 247.820312 L 226.785156 247.820312 C 229.917969 247.820312 232.5 245.3125 232.5 242.105469 L 232.5 207.972656 Z M 147.167969 168.121094 L 147.167969 202.257812 L 187.015625 202.257812 L 187.015625 162.40625 L 152.882812 162.40625 C 149.671875 162.484375 147.167969 164.992188 147.167969 168.121094 Z M 226.785156 162.484375 L 192.652344 162.484375 L 192.652344 202.335938 L 232.5 202.335938 L 232.5 168.199219 C 232.5 164.992188 229.996094 162.484375 226.785156 162.484375 Z M 226.785156 162.484375 " fill-opacity="1" fill-rule="nonzero"/><g fill="#ffffff" fill-opacity="1"><g transform="translate(129.386716, 141.147426)"><g><path d="M 26.46875 -10 C 26.832031 -9.519531 27.140625 -8.953125 27.390625 -8.296875 C 27.648438 -7.648438 27.78125 -6.941406 27.78125 -6.171875 C 27.78125 -4.546875 27.582031 -3.160156 27.1875 -2.015625 C 26.800781 -0.878906 26.257812 0.0507812 25.5625 0.78125 C 24.875 1.507812 24.054688 2.039062 23.109375 2.375 C 22.160156 2.707031 21.128906 2.875 20.015625 2.875 C 19.773438 2.875 19.53125 2.863281 19.28125 2.84375 C 19.03125 2.832031 18.773438 2.8125 18.515625 2.78125 L 18.53125 2.78125 C 17.84375 2.6875 17.082031 2.625 16.25 2.59375 C 15.414062 2.5625 14.609375 2.546875 13.828125 2.546875 C 13.128906 2.546875 12.503906 2.550781 11.953125 2.5625 C 11.410156 2.570312 10.992188 2.582031 10.703125 2.59375 L 10.25 2.59375 C 8.664062 2.59375 7.300781 2.550781 6.15625 2.46875 C 5.019531 2.394531 4.066406 2.242188 3.296875 2.015625 C 2.515625 1.796875 1.890625 1.476562 1.421875 1.0625 C 0.953125 0.644531 0.601562 0.09375 0.375 -0.59375 C 0.125 -1.269531 -0.0351562 -2.09375 -0.109375 -3.0625 C -0.191406 -4.039062 -0.234375 -5.203125 -0.234375 -6.546875 L -0.234375 -7.65625 C -0.234375 -7.851562 -0.234375 -8.050781 -0.234375 -8.25 C -0.234375 -8.457031 -0.226562 -8.664062 -0.21875 -8.875 L -0.21875 -8.828125 L -0.078125 -20.90625 C -0.265625 -20.882812 -0.441406 -20.875 -0.609375 -20.875 C -0.773438 -20.875 -0.9375 -20.867188 -1.09375 -20.859375 C -1.25 -20.847656 -1.378906 -20.84375 -1.484375 -20.84375 C -1.585938 -20.84375 -1.664062 -20.84375 -1.71875 -20.84375 L -1.34375 -30.46875 L 17.3125 -30.921875 C 17.1875 -29.941406 17.066406 -28.941406 16.953125 -27.921875 C 16.835938 -26.910156 16.726562 -25.882812 16.625 -24.84375 C 16.53125 -23.945312 16.429688 -22.992188 16.328125 -21.984375 C 16.234375 -20.972656 16.148438 -19.925781 16.078125 -18.84375 C 15.992188 -17.78125 15.921875 -16.691406 15.859375 -15.578125 C 15.796875 -14.460938 15.742188 -13.375 15.703125 -12.3125 C 16.285156 -12.375 16.878906 -12.421875 17.484375 -12.453125 C 18.097656 -12.484375 18.695312 -12.5 19.28125 -12.5 C 20.175781 -12.5 21.050781 -12.445312 21.90625 -12.34375 C 22.757812 -12.25 23.546875 -12.070312 24.265625 -11.8125 L 24.234375 -11.84375 C 24.546875 -11.738281 24.90625 -11.53125 25.3125 -11.21875 C 25.71875 -10.90625 26.101562 -10.5 26.46875 -10 Z M 23.609375 -1.328125 C 24.054688 -1.828125 24.40625 -2.472656 24.65625 -3.265625 C 24.914062 -4.066406 25.046875 -5.035156 25.046875 -6.171875 C 25.046875 -6.597656 24.984375 -6.988281 24.859375 -7.34375 C 24.742188 -7.695312 24.597656 -8.007812 24.421875 -8.28125 C 24.242188 -8.539062 24.054688 -8.75 23.859375 -8.90625 C 23.660156 -9.070312 23.488281 -9.179688 23.34375 -9.234375 C 22.769531 -9.429688 22.132812 -9.570312 21.4375 -9.65625 C 20.75 -9.738281 20.03125 -9.78125 19.28125 -9.78125 C 18 -9.78125 16.847656 -9.710938 15.828125 -9.578125 C 14.816406 -9.441406 13.828125 -9.300781 12.859375 -9.15625 C 12.890625 -10.164062 12.9375 -11.207031 13 -12.28125 C 13.0625 -13.363281 13.128906 -14.445312 13.203125 -15.53125 C 13.242188 -16.0625 13.28125 -16.597656 13.3125 -17.140625 C 13.351562 -17.679688 13.398438 -18.210938 13.453125 -18.734375 C 13.503906 -19.253906 13.550781 -19.757812 13.59375 -20.25 C 13.632812 -20.75 13.675781 -21.234375 13.71875 -21.703125 C 13.820312 -22.804688 13.925781 -23.898438 14.03125 -24.984375 C 14.132812 -26.066406 14.238281 -27.140625 14.34375 -28.203125 L 7.4375 -27.96875 L 7.4375 -27.984375 C 6.90625 -27.972656 6.382812 -27.960938 5.875 -27.953125 C 5.375 -27.941406 4.878906 -27.921875 4.390625 -27.890625 C 3.910156 -27.878906 3.410156 -27.863281 2.890625 -27.84375 C 2.367188 -27.820312 1.84375 -27.804688 1.3125 -27.796875 L 1.109375 -23.671875 L 2.71875 -23.671875 L 2.515625 -8.8125 C 2.503906 -8.601562 2.5 -8.394531 2.5 -8.1875 C 2.5 -7.988281 2.5 -7.800781 2.5 -7.625 L 2.5 -6.546875 C 2.5 -5.597656 2.53125 -4.785156 2.59375 -4.109375 C 2.664062 -3.429688 2.785156 -2.859375 2.953125 -2.390625 C 3.128906 -1.898438 3.382812 -1.507812 3.71875 -1.21875 C 4.0625 -0.925781 4.519531 -0.703125 5.09375 -0.546875 C 5.664062 -0.378906 6.375 -0.269531 7.21875 -0.21875 C 8.070312 -0.164062 9.082031 -0.140625 10.25 -0.140625 L 10.46875 -0.140625 L 10.46875 -0.0625 C 10.476562 -0.0820312 10.597656 -0.109375 10.828125 -0.140625 C 11.046875 -0.148438 11.304688 -0.160156 11.609375 -0.171875 C 11.921875 -0.191406 12.265625 -0.203125 12.640625 -0.203125 L 13.71875 -0.203125 C 14.570312 -0.203125 15.457031 -0.179688 16.375 -0.140625 C 17.289062 -0.109375 18.132812 -0.0390625 18.90625 0.0625 C 19.113281 0.0820312 19.304688 0.0976562 19.484375 0.109375 C 19.671875 0.128906 19.847656 0.140625 20.015625 0.140625 C 20.734375 0.140625 21.398438 0.0234375 22.015625 -0.203125 C 22.640625 -0.441406 23.171875 -0.816406 23.609375 -1.328125 Z M 7.4375 -27.96875 L 7.421875 -27.96875 Z M 7.4375 -27.96875 "/></g></g></g><g fill="#ffffff" fill-opacity="1"><g transform="translate(155.087317, 141.147426)"><g><path d="M 15.140625 3.140625 C 13.015625 3.140625 11.128906 2.914062 9.484375 2.46875 C 7.835938 2.03125 6.394531 1.414062 5.15625 0.625 C 3.914062 -0.164062 2.875 -1.117188 2.03125 -2.234375 C 1.1875 -3.359375 0.503906 -4.597656 -0.015625 -5.953125 C -0.535156 -7.304688 -0.910156 -8.757812 -1.140625 -10.3125 C -1.378906 -11.863281 -1.507812 -13.472656 -1.53125 -15.140625 C -1.445312 -17.804688 -0.960938 -20.1875 -0.078125 -22.28125 C 0.796875 -24.382812 2.019531 -26.144531 3.59375 -27.5625 C 5.164062 -28.988281 7.050781 -30.070312 9.25 -30.8125 C 11.445312 -31.5625 13.898438 -31.9375 16.609375 -31.9375 C 19.898438 -31.9375 22.820312 -31.316406 25.375 -30.078125 C 27.925781 -28.835938 30.171875 -26.976562 32.109375 -24.5 L 31.15625 -23.875 C 31.726562 -23.25 32.222656 -22.519531 32.640625 -21.6875 C 33.066406 -20.863281 33.425781 -19.984375 33.71875 -19.046875 C 34 -18.097656 34.21875 -17.101562 34.375 -16.0625 C 34.53125 -15.03125 34.632812 -13.992188 34.6875 -12.953125 C 34.71875 -11.640625 34.601562 -10.332031 34.34375 -9.03125 C 34.09375 -7.738281 33.660156 -6.492188 33.046875 -5.296875 C 32.453125 -4.109375 31.648438 -2.992188 30.640625 -1.953125 C 29.640625 -0.921875 28.410156 -0.03125 26.953125 0.71875 C 25.492188 1.476562 23.789062 2.070312 21.84375 2.5 C 19.894531 2.925781 17.660156 3.140625 15.140625 3.140625 Z M 15.140625 0.40625 C 17.273438 0.40625 19.171875 0.238281 20.828125 -0.09375 C 22.492188 -0.425781 23.953125 -0.890625 25.203125 -1.484375 C 26.429688 -2.066406 27.476562 -2.757812 28.34375 -3.5625 C 29.21875 -4.363281 29.921875 -5.238281 30.453125 -6.1875 C 30.984375 -7.125 31.363281 -8.117188 31.59375 -9.171875 C 31.832031 -10.222656 31.953125 -11.28125 31.953125 -12.34375 C 31.953125 -13.75 31.84375 -15.113281 31.625 -16.4375 C 31.40625 -17.769531 31.0625 -18.953125 30.59375 -19.984375 C 30.125 -21.023438 29.515625 -21.851562 28.765625 -22.46875 C 28.015625 -23.09375 27.113281 -23.40625 26.0625 -23.40625 C 25.832031 -23.40625 25.585938 -23.382812 25.328125 -23.34375 L 28.109375 -25.15625 C 26.953125 -26.5 25.421875 -27.507812 23.515625 -28.1875 C 21.617188 -28.863281 19.316406 -29.203125 16.609375 -29.203125 C 14.210938 -29.203125 12.0625 -28.890625 10.15625 -28.265625 C 8.257812 -27.640625 6.644531 -26.707031 5.3125 -25.46875 C 3.988281 -24.25 2.972656 -22.722656 2.265625 -20.890625 C 1.566406 -19.054688 1.21875 -16.953125 1.21875 -14.578125 C 1.21875 -12.441406 1.441406 -10.457031 1.890625 -8.625 C 2.335938 -6.789062 3.09375 -5.207031 4.15625 -3.875 C 5.238281 -2.53125 6.664062 -1.476562 8.4375 -0.71875 C 10.21875 0.03125 12.453125 0.40625 15.140625 0.40625 Z M 16.65625 -5.3125 C 15.875 -5.3125 15.242188 -5.507812 14.765625 -5.90625 C 14.285156 -6.300781 13.914062 -6.851562 13.65625 -7.5625 C 13.382812 -8.25 13.195312 -9.070312 13.09375 -10.03125 C 13 -10.988281 12.953125 -12.023438 12.953125 -13.140625 C 12.953125 -14.617188 13.054688 -15.894531 13.265625 -16.96875 C 13.472656 -18.050781 13.753906 -18.953125 14.109375 -19.671875 C 14.453125 -20.367188 14.847656 -20.890625 15.296875 -21.234375 C 15.753906 -21.585938 16.222656 -21.765625 16.703125 -21.765625 C 17.285156 -21.765625 17.742188 -21.710938 18.078125 -21.609375 C 18.410156 -21.515625 18.660156 -21.375 18.828125 -21.1875 C 19.015625 -21.007812 19.140625 -20.773438 19.203125 -20.484375 C 19.265625 -20.203125 19.328125 -19.878906 19.390625 -19.515625 L 19.421875 -19.46875 L 20.515625 -20.203125 C 20.441406 -19.972656 20.394531 -19.75 20.375 -19.53125 C 20.363281 -19.3125 20.359375 -19.078125 20.359375 -18.828125 C 20.359375 -18.503906 20.367188 -18.15625 20.390625 -17.78125 C 20.421875 -17.414062 20.460938 -17.023438 20.515625 -16.609375 C 20.566406 -16.191406 20.609375 -15.742188 20.640625 -15.265625 C 20.671875 -14.785156 20.691406 -14.285156 20.703125 -13.765625 L 20.703125 -13.25 C 20.703125 -12.257812 20.640625 -11.285156 20.515625 -10.328125 C 20.390625 -9.378906 20.171875 -8.535156 19.859375 -7.796875 C 19.546875 -7.054688 19.128906 -6.457031 18.609375 -6 C 18.085938 -5.539062 17.4375 -5.3125 16.65625 -5.3125 Z M 16.65625 -5.3125 "/></g></g></g><g fill="#ffffff" fill-opacity="1"><g transform="translate(189.029312, 141.147426)"><g><path d="M 16.734375 3.25 C 14.179688 3.25 11.957031 3.078125 10.0625 2.734375 C 8.175781 2.398438 6.5625 1.898438 5.21875 1.234375 C 3.875 0.578125 2.769531 -0.226562 1.90625 -1.1875 C 1.050781 -2.144531 0.375 -3.238281 -0.125 -4.46875 C -0.613281 -5.707031 -0.953125 -7.078125 -1.140625 -8.578125 C -1.328125 -10.085938 -1.421875 -11.707031 -1.421875 -13.4375 C -1.421875 -15.25 -1.296875 -16.953125 -1.046875 -18.546875 C -0.796875 -20.140625 -0.390625 -21.609375 0.171875 -22.953125 C 0.734375 -24.296875 1.460938 -25.492188 2.359375 -26.546875 C 3.265625 -27.609375 4.367188 -28.515625 5.671875 -29.265625 C 6.953125 -30.003906 8.453125 -30.566406 10.171875 -30.953125 C 11.890625 -31.347656 13.851562 -31.546875 16.0625 -31.546875 C 17.15625 -31.546875 18.242188 -31.503906 19.328125 -31.421875 C 20.410156 -31.335938 21.539062 -31.15625 22.71875 -30.875 C 23.882812 -30.59375 25.117188 -30.191406 26.421875 -29.671875 C 27.722656 -29.148438 29.128906 -28.457031 30.640625 -27.59375 L 26.15625 -17.671875 C 25.164062 -17.828125 24.289062 -17.957031 23.53125 -18.0625 C 22.78125 -18.164062 22.125 -18.257812 21.5625 -18.34375 C 21 -18.40625 20.519531 -18.445312 20.125 -18.46875 C 19.726562 -18.5 19.390625 -18.515625 19.109375 -18.515625 C 18.703125 -18.515625 18.34375 -18.507812 18.03125 -18.5 C 17.726562 -18.5 17.460938 -18.457031 17.234375 -18.375 C 16.992188 -18.300781 16.789062 -18.164062 16.625 -17.96875 C 16.457031 -17.769531 16.304688 -17.488281 16.171875 -17.125 C 16.390625 -17.195312 16.601562 -17.25 16.8125 -17.28125 C 17.019531 -17.320312 17.226562 -17.359375 17.4375 -17.390625 C 18.570312 -17.492188 19.566406 -17.570312 20.421875 -17.625 C 21.273438 -17.6875 22.070312 -17.71875 22.8125 -17.71875 C 23.488281 -17.71875 24.148438 -17.691406 24.796875 -17.640625 C 25.441406 -17.597656 26.113281 -17.523438 26.8125 -17.421875 L 26.796875 -17.421875 C 27.523438 -17.316406 28.175781 -17.164062 28.75 -16.96875 C 29.332031 -16.78125 29.828125 -16.488281 30.234375 -16.09375 C 30.628906 -15.6875 30.929688 -15.164062 31.140625 -14.53125 C 31.359375 -13.894531 31.46875 -13.085938 31.46875 -12.109375 L 31.46875 -11.765625 C 31.46875 -11.140625 31.46875 -10.550781 31.46875 -10 C 31.46875 -9.457031 31.472656 -8.957031 31.484375 -8.5 L 31.484375 -5.875 C 31.441406 -5.019531 31.351562 -4.296875 31.21875 -3.703125 C 31.082031 -3.117188 30.910156 -2.617188 30.703125 -2.203125 C 30.492188 -1.804688 30.257812 -1.46875 30 -1.1875 C 29.75 -0.90625 29.503906 -0.660156 29.265625 -0.453125 L 29.28125 -0.46875 C 28.726562 0 28.097656 0.414062 27.390625 0.78125 C 26.691406 1.144531 25.960938 1.460938 25.203125 1.734375 C 24.421875 2.015625 23.625 2.25 22.8125 2.4375 C 22.007812 2.625 21.234375 2.773438 20.484375 2.890625 C 19.734375 3.023438 19.035156 3.117188 18.390625 3.171875 C 17.742188 3.222656 17.191406 3.25 16.734375 3.25 Z M 16.734375 0.515625 C 17.140625 0.515625 17.625 0.488281 18.1875 0.4375 C 18.75 0.382812 19.351562 0.3125 20 0.21875 C 20.65625 0.113281 21.328125 -0.0078125 22.015625 -0.15625 C 22.703125 -0.3125 23.378906 -0.507812 24.046875 -0.75 C 24.710938 -0.96875 25.335938 -1.222656 25.921875 -1.515625 C 26.515625 -1.816406 27.039062 -2.160156 27.5 -2.546875 C 27.644531 -2.660156 27.796875 -2.804688 27.953125 -2.984375 C 28.109375 -3.160156 28.25 -3.382812 28.375 -3.65625 C 28.519531 -3.925781 28.632812 -4.265625 28.71875 -4.671875 C 28.800781 -5.078125 28.859375 -5.566406 28.890625 -6.140625 L 28.90625 -6.140625 C 28.863281 -6.535156 28.828125 -6.988281 28.796875 -7.5 C 28.773438 -8.007812 28.757812 -8.601562 28.75 -9.28125 C 28.738281 -9.613281 28.734375 -9.96875 28.734375 -10.34375 C 28.734375 -10.726562 28.734375 -11.140625 28.734375 -11.578125 L 28.734375 -12.109375 C 28.734375 -12.585938 28.679688 -12.976562 28.578125 -13.28125 C 28.472656 -13.59375 28.320312 -13.847656 28.125 -14.046875 C 27.914062 -14.242188 27.664062 -14.390625 27.375 -14.484375 C 27.09375 -14.578125 26.769531 -14.648438 26.40625 -14.703125 C 25.738281 -14.804688 25.117188 -14.878906 24.546875 -14.921875 C 23.972656 -14.960938 23.394531 -14.984375 22.8125 -14.984375 C 22.113281 -14.984375 21.347656 -14.957031 20.515625 -14.90625 C 19.691406 -14.851562 18.757812 -14.773438 17.71875 -14.671875 C 17.519531 -14.640625 17.3125 -14.59375 17.09375 -14.53125 C 16.882812 -14.476562 16.695312 -14.398438 16.53125 -14.296875 C 16.351562 -14.179688 16.207031 -14.035156 16.09375 -13.859375 C 15.988281 -13.691406 15.9375 -13.492188 15.9375 -13.265625 C 15.9375 -12.847656 16 -12.5 16.125 -12.21875 C 16.25 -11.945312 16.394531 -11.734375 16.5625 -11.578125 C 16.75 -11.421875 16.945312 -11.3125 17.15625 -11.25 C 17.363281 -11.195312 17.570312 -11.171875 17.78125 -11.171875 L 17.90625 -11.171875 C 17.957031 -11.171875 18.003906 -11.175781 18.046875 -11.1875 C 18.078125 -10.769531 18.097656 -10.375 18.109375 -10 C 18.117188 -9.632812 18.128906 -9.296875 18.140625 -8.984375 C 18.160156 -8.660156 18.175781 -8.359375 18.1875 -8.078125 C 18.195312 -7.804688 18.207031 -7.5625 18.21875 -7.34375 C 18.238281 -7.113281 18.25 -6.898438 18.25 -6.703125 C 18.25 -6.503906 18.253906 -6.328125 18.265625 -6.171875 C 18.273438 -6.003906 18.28125 -5.851562 18.28125 -5.71875 C 18.28125 -5.59375 18.285156 -5.476562 18.296875 -5.375 C 18.015625 -5.3125 17.726562 -5.257812 17.4375 -5.21875 C 17.144531 -5.175781 16.847656 -5.15625 16.546875 -5.15625 C 15.734375 -5.15625 15.09375 -5.347656 14.625 -5.734375 C 14.15625 -6.117188 13.804688 -6.628906 13.578125 -7.265625 C 13.328125 -7.890625 13.164062 -8.613281 13.09375 -9.4375 C 13.019531 -10.257812 12.984375 -11.101562 12.984375 -11.96875 C 12.984375 -13.414062 13.046875 -14.6875 13.171875 -15.78125 C 13.296875 -16.882812 13.507812 -17.816406 13.8125 -18.578125 C 14.113281 -19.328125 14.515625 -19.914062 15.015625 -20.34375 C 15.523438 -20.769531 16.171875 -21.023438 16.953125 -21.109375 C 17.316406 -21.148438 17.664062 -21.179688 18 -21.203125 C 18.34375 -21.234375 18.710938 -21.25 19.109375 -21.25 C 19.753906 -21.25 20.5 -21.207031 21.34375 -21.125 C 22.195312 -21.050781 23.265625 -20.914062 24.546875 -20.71875 L 27.125 -26.46875 C 26.1875 -26.988281 25.257812 -27.398438 24.34375 -27.703125 C 23.4375 -28.015625 22.53125 -28.253906 21.625 -28.421875 C 20.707031 -28.578125 19.789062 -28.679688 18.875 -28.734375 C 17.957031 -28.785156 17.019531 -28.8125 16.0625 -28.8125 C 13.269531 -28.8125 10.929688 -28.445312 9.046875 -27.71875 C 7.171875 -26.988281 5.660156 -25.945312 4.515625 -24.59375 C 3.367188 -23.25 2.546875 -21.628906 2.046875 -19.734375 C 1.554688 -17.835938 1.3125 -15.738281 1.3125 -13.4375 C 1.3125 -11.976562 1.390625 -10.625 1.546875 -9.375 C 1.703125 -8.132812 1.992188 -6.992188 2.421875 -5.953125 C 2.835938 -4.929688 3.410156 -4.015625 4.140625 -3.203125 C 4.867188 -2.398438 5.804688 -1.722656 6.953125 -1.171875 C 8.097656 -0.628906 9.472656 -0.210938 11.078125 0.078125 C 12.679688 0.367188 14.566406 0.515625 16.734375 0.515625 Z M 16.734375 0.515625 "/></g></g></g><g fill="#ffffff" fill-opacity="1"><g transform="translate(220.666845, 141.147426)"><g><path d="M 15.140625 3.140625 C 13.015625 3.140625 11.128906 2.914062 9.484375 2.46875 C 7.835938 2.03125 6.394531 1.414062 5.15625 0.625 C 3.914062 -0.164062 2.875 -1.117188 2.03125 -2.234375 C 1.1875 -3.359375 0.503906 -4.597656 -0.015625 -5.953125 C -0.535156 -7.304688 -0.910156 -8.757812 -1.140625 -10.3125 C -1.378906 -11.863281 -1.507812 -13.472656 -1.53125 -15.140625 C -1.445312 -17.804688 -0.960938 -20.1875 -0.078125 -22.28125 C 0.796875 -24.382812 2.019531 -26.144531 3.59375 -27.5625 C 5.164062 -28.988281 7.050781 -30.070312 9.25 -30.8125 C 11.445312 -31.5625 13.898438 -31.9375 16.609375 -31.9375 C 19.898438 -31.9375 22.820312 -31.316406 25.375 -30.078125 C 27.925781 -28.835938 30.171875 -26.976562 32.109375 -24.5 L 31.15625 -23.875 C 31.726562 -23.25 32.222656 -22.519531 32.640625 -21.6875 C 33.066406 -20.863281 33.425781 -19.984375 33.71875 -19.046875 C 34 -18.097656 34.21875 -17.101562 34.375 -16.0625 C 34.53125 -15.03125 34.632812 -13.992188 34.6875 -12.953125 C 34.71875 -11.640625 34.601562 -10.332031 34.34375 -9.03125 C 34.09375 -7.738281 33.660156 -6.492188 33.046875 -5.296875 C 32.453125 -4.109375 31.648438 -2.992188 30.640625 -1.953125 C 29.640625 -0.921875 28.410156 -0.03125 26.953125 0.71875 C 25.492188 1.476562 23.789062 2.070312 21.84375 2.5 C 19.894531 2.925781 17.660156 3.140625 15.140625 3.140625 Z M 15.140625 0.40625 C 17.273438 0.40625 19.171875 0.238281 20.828125 -0.09375 C 22.492188 -0.425781 23.953125 -0.890625 25.203125 -1.484375 C 26.429688 -2.066406 27.476562 -2.757812 28.34375 -3.5625 C 29.21875 -4.363281 29.921875 -5.238281 30.453125 -6.1875 C 30.984375 -7.125 31.363281 -8.117188 31.59375 -9.171875 C 31.832031 -10.222656 31.953125 -11.28125 31.953125 -12.34375 C 31.953125 -13.75 31.84375 -15.113281 31.625 -16.4375 C 31.40625 -17.769531 31.0625 -18.953125 30.59375 -19.984375 C 30.125 -21.023438 29.515625 -21.851562 28.765625 -22.46875 C 28.015625 -23.09375 27.113281 -23.40625 26.0625 -23.40625 C 25.832031 -23.40625 25.585938 -23.382812 25.328125 -23.34375 L 28.109375 -25.15625 C 26.953125 -26.5 25.421875 -27.507812 23.515625 -28.1875 C 21.617188 -28.863281 19.316406 -29.203125 16.609375 -29.203125 C 14.210938 -29.203125 12.0625 -28.890625 10.15625 -28.265625 C 8.257812 -27.640625 6.644531 -26.707031 5.3125 -25.46875 C 3.988281 -24.25 2.972656 -22.722656 2.265625 -20.890625 C 1.566406 -19.054688 1.21875 -16.953125 1.21875 -14.578125 C 1.21875 -12.441406 1.441406 -10.457031 1.890625 -8.625 C 2.335938 -6.789062 3.09375 -5.207031 4.15625 -3.875 C 5.238281 -2.53125 6.664062 -1.476562 8.4375 -0.71875 C 10.21875 0.03125 12.453125 0.40625 15.140625 0.40625 Z M 16.65625 -5.3125 C 15.875 -5.3125 15.242188 -5.507812 14.765625 -5.90625 C 14.285156 -6.300781 13.914062 -6.851562 13.65625 -7.5625 C 13.382812 -8.25 13.195312 -9.070312 13.09375 -10.03125 C 13 -10.988281 12.953125 -12.023438 12.953125 -13.140625 C 12.953125 -14.617188 13.054688 -15.894531 13.265625 -16.96875 C 13.472656 -18.050781 13.753906 -18.953125 14.109375 -19.671875 C 14.453125 -20.367188 14.847656 -20.890625 15.296875 -21.234375 C 15.753906 -21.585938 16.222656 -21.765625 16.703125 -21.765625 C 17.285156 -21.765625 17.742188 -21.710938 18.078125 -21.609375 C 18.410156 -21.515625 18.660156 -21.375 18.828125 -21.1875 C 19.015625 -21.007812 19.140625 -20.773438 19.203125 -20.484375 C 19.265625 -20.203125 19.328125 -19.878906 19.390625 -19.515625 L 19.421875 -19.46875 L 20.515625 -20.203125 C 20.441406 -19.972656 20.394531 -19.75 20.375 -19.53125 C 20.363281 -19.3125 20.359375 -19.078125 20.359375 -18.828125 C 20.359375 -18.503906 20.367188 -18.15625 20.390625 -17.78125 C 20.421875 -17.414062 20.460938 -17.023438 20.515625 -16.609375 C 20.566406 -16.191406 20.609375 -15.742188 20.640625 -15.265625 C 20.671875 -14.785156 20.691406 -14.285156 20.703125 -13.765625 L 20.703125 -13.25 C 20.703125 -12.257812 20.640625 -11.285156 20.515625 -10.328125 C 20.390625 -9.378906 20.171875 -8.535156 19.859375 -7.796875 C 19.546875 -7.054688 19.128906 -6.457031 18.609375 -6 C 18.085938 -5.539062 17.4375 -5.3125 16.65625 -5.3125 Z M 16.65625 -5.3125 "/></g></g></g></svg>