<svg xmlns="http://www.w3.org/2000/svg" xmlns:xlink="http://www.w3.org/1999/xlink" width="100" zoomAndPan="magnify" viewBox="0 0 75 30.000001" height="40" preserveAspectRatio="xMidYMid meet" version="1.0"><defs><filter x="0%" y="0%" width="100%" height="100%" id="47681882fc"><feColorMatrix values="0 0 0 0 1 0 0 0 0 1 0 0 0 0 1 0 0 0 1 0" color-interpolation-filters="sRGB"/></filter><clipPath id="0c21f3b1e4"><path d="M 39 14 L 70.886719 14 L 70.886719 16 L 39 16 Z M 39 14 " clip-rule="nonzero"/></clipPath><clipPath id="a262e305d4"><path d="M 4.113281 14 L 36 14 L 36 16 L 4.113281 16 Z M 4.113281 14 " clip-rule="nonzero"/></clipPath><clipPath id="f037e32539"><path d="M 35 11.761719 L 38 11.761719 L 38 17.566406 L 35 17.566406 Z M 35 11.761719 " clip-rule="nonzero"/></clipPath><clipPath id="21a4fcd237"><path d="M 37 11.761719 L 40 11.761719 L 40 17.566406 L 37 17.566406 Z M 37 11.761719 " clip-rule="nonzero"/></clipPath><clipPath id="244a022cbd"><path d="M 40.441406 16.75 L 40.785156 16.75 L 40.785156 17.070312 L 40.441406 17.070312 Z M 40.441406 16.75 " clip-rule="nonzero"/></clipPath><clipPath id="314fd47b68"><path d="M 40.765625 16.984375 C 40.113281 17.203125 40.695312 16.765625 40.695312 16.765625 " clip-rule="nonzero"/></clipPath><mask id="949276e3c4"><g filter="url(#47681882fc)"><rect x="-7.5" width="90" fill="#000000" y="-3" height="36.000001" fill-opacity="0.01"/></g></mask><clipPath id="7d2adfa1b4"><path d="M 0.441406 0.75 L 0.785156 0.75 L 0.785156 1.070312 L 0.441406 1.070312 Z M 0.441406 0.75 " clip-rule="nonzero"/></clipPath><clipPath id="07592e34d8"><path d="M 0.765625 0.984375 C 0.113281 1.203125 0.695312 0.765625 0.695312 0.765625 " clip-rule="nonzero"/></clipPath><clipPath id="fff8cdd01f"><rect x="0" width="1" y="0" height="2"/></clipPath></defs><g clip-path="url(#0c21f3b1e4)"><path fill="#cda548" d="M 39.898438 15.234375 L 55.304688 15.234375 C 70.710938 15.007812 70.710938 14.78125 70.710938 14.78125 C 70.710938 14.558594 50.171875 14.339844 39.898438 14.339844 Z M 39.898438 15.234375 " fill-opacity="1" fill-rule="nonzero"/></g><g clip-path="url(#a262e305d4)"><path fill="#cda548" d="M 35.097656 15.234375 L 19.691406 15.234375 C 4.285156 15.007812 4.285156 14.78125 4.285156 14.78125 C 4.285156 14.558594 24.828125 14.339844 35.097656 14.339844 Z M 35.097656 15.234375 " fill-opacity="1" fill-rule="nonzero"/></g><g clip-path="url(#f037e32539)"><path fill="#cda548" d="M 37.511719 11.761719 L 37.496094 11.996094 C 37.46875 12.476562 37.421875 12.921875 37.351562 13.328125 C 37.28125 13.648438 37.230469 13.828125 37.207031 13.871094 C 37.164062 13.976562 37.117188 14.074219 37.066406 14.15625 C 37.011719 14.242188 36.949219 14.3125 36.882812 14.375 C 36.855469 14.414062 36.742188 14.488281 36.546875 14.589844 C 36.34375 14.679688 36.019531 14.746094 35.582031 14.785156 C 36.035156 14.804688 36.367188 14.851562 36.574219 14.929688 C 36.777344 15.015625 36.890625 15.078125 36.917969 15.117188 C 36.988281 15.171875 37.046875 15.238281 37.101562 15.316406 C 37.15625 15.394531 37.203125 15.480469 37.242188 15.582031 L 37.296875 15.738281 C 37.328125 15.847656 37.359375 15.964844 37.382812 16.089844 C 37.441406 16.394531 37.488281 16.890625 37.515625 17.566406 L 37.511719 11.761719 " fill-opacity="1" fill-rule="nonzero"/></g><g clip-path="url(#21a4fcd237)"><path fill="#cda548" d="M 37.488281 11.761719 L 37.503906 11.996094 C 37.527344 12.476562 37.578125 12.921875 37.648438 13.328125 C 37.71875 13.648438 37.765625 13.828125 37.792969 13.871094 C 37.832031 13.976562 37.878906 14.074219 37.933594 14.15625 C 37.988281 14.242188 38.046875 14.3125 38.113281 14.375 C 38.140625 14.414062 38.253906 14.488281 38.453125 14.589844 C 38.65625 14.679688 38.976562 14.746094 39.417969 14.785156 C 38.964844 14.804688 38.632812 14.851562 38.421875 14.929688 C 38.222656 15.015625 38.105469 15.078125 38.078125 15.117188 C 38.011719 15.171875 37.949219 15.238281 37.894531 15.316406 C 37.84375 15.394531 37.796875 15.480469 37.757812 15.582031 L 37.703125 15.738281 C 37.667969 15.847656 37.640625 15.964844 37.617188 16.089844 C 37.554688 16.394531 37.511719 16.890625 37.480469 17.566406 L 37.488281 11.761719 " fill-opacity="1" fill-rule="nonzero"/></g><g clip-path="url(#244a022cbd)"><g clip-path="url(#314fd47b68)"><g mask="url(#949276e3c4)"><g transform="matrix(1, 0, 0, 1, 40, 16)"><g clip-path="url(#fff8cdd01f)"><g clip-path="url(#7d2adfa1b4)"><g clip-path="url(#07592e34d8)"><rect x="-56.5" width="108" fill="#ffffff" height="43.200001" y="-22.6" fill-opacity="1"/></g></g></g></g></g></g></g></svg>