<svg xmlns="http://www.w3.org/2000/svg" xmlns:xlink="http://www.w3.org/1999/xlink" width="512" zoomAndPan="magnify" viewBox="0 0 384 383.999986" height="512" preserveAspectRatio="xMidYMid meet" version="1.0"><defs><clipPath id="c208438a0d"><path d="M 39 90 L 208 90 L 208 341.683594 L 39 341.683594 Z M 39 90 " clip-rule="nonzero"/></clipPath><clipPath id="f9207e2f44"><path d="M 116 42.433594 L 345 42.433594 L 345 329 L 116 329 Z M 116 42.433594 " clip-rule="nonzero"/></clipPath><clipPath id="555b94b812"><path d="M 13.015625 376.257812 L 13.371094 376.257812 L 13.371094 376.539062 L 13.015625 376.539062 Z M 13.015625 376.257812 " clip-rule="nonzero"/></clipPath><clipPath id="8d8cffa662"><path d="M 13.351562 376.425781 C 12.675781 376.726562 13.273438 376.273438 13.273438 376.273438 " clip-rule="nonzero"/></clipPath><clipPath id="b91bf06046"><path d="M 0.015625 0.257812 L 0.371094 0.257812 L 0.371094 0.539062 L 0.015625 0.539062 Z M 0.015625 0.257812 " clip-rule="nonzero"/></clipPath><clipPath id="d25146eb49"><path d="M 0.351562 0.425781 C -0.324219 0.726562 0.273438 0.273438 0.273438 0.273438 " clip-rule="nonzero"/></clipPath><clipPath id="c18ed45100"><rect x="0" width="1" y="0" height="1"/></clipPath></defs><path fill="#d9f0e9" d="M 241.070312 340.039062 C 207.953125 333.410156 180.714844 318.019531 158.972656 297.632812 C 157.644531 296.375 156.34375 295.121094 155.0625 293.839844 C 162.007812 272.585938 184.773438 247.441406 213.042969 237.695312 C 196.800781 251.234375 197.03125 281.796875 241.070312 340.039062 " fill-opacity="1" fill-rule="nonzero"/><path fill="#116254" d="M 298.453125 246.105469 C 286.757812 236.019531 262.824219 228.214844 241.894531 228.753906 L 241.738281 228.753906 C 207.34375 228.808594 160.714844 250.421875 143.6875 281.429688 C 132.136719 267.671875 122.542969 252.425781 114.855469 236.480469 C 114.792969 236.378906 114.769531 236.304688 114.722656 236.226562 C 84.300781 173.046875 83.339844 99.449219 106.097656 67.199219 C 111.558594 220.542969 262.347656 133.460938 298.453125 246.105469 " fill-opacity="1" fill-rule="nonzero"/><path fill="#116254" d="M 250.625 99.519531 L 231.707031 106.90625 L 228.90625 108.011719 L 214.496094 113.636719 C 214.566406 113.796875 214.664062 113.925781 214.734375 114.050781 C 223.007812 130.515625 216.378906 150.5625 199.910156 158.84375 C 183.457031 167.09375 163.410156 160.464844 155.132812 144.027344 C 149.609375 133.042969 150.761719 120.480469 156.984375 110.863281 L 123.394531 95.96875 L 191.253906 58.511719 C 191.253906 58.511719 247.960938 99.1875 250.625 99.519531 " fill-opacity="1" fill-rule="nonzero"/><path fill="#116254" d="M 239.128906 157.324219 L 227.324219 157.507812 L 227.09375 144.480469 C 227.054688 141.730469 228.882812 139.441406 231.402344 138.726562 L 230.792969 103.894531 L 233.8125 104.117188 L 234.398438 138.699219 C 236.945312 139.335938 238.859375 141.578125 238.90625 144.320312 L 239.128906 157.324219 " fill-opacity="1" fill-rule="nonzero"/><g clip-path="url(#c208438a0d)"><path fill="#116254" d="M 207.167969 339.164062 C 203.472656 339.902344 199.734375 340.414062 195.976562 340.847656 C 192.207031 341.253906 188.421875 341.335938 184.625 341.507812 C 177.023438 341.589844 169.386719 341.078125 161.796875 339.984375 C 154.226562 338.78125 146.722656 336.996094 139.378906 334.617188 L 133.910156 332.734375 C 132.097656 332.042969 130.324219 331.269531 128.527344 330.5625 C 127.636719 330.175781 126.722656 329.847656 125.859375 329.410156 L 123.226562 328.1875 C 121.46875 327.367188 119.707031 326.574219 118.019531 325.601562 C 116.3125 324.6875 114.585938 323.792969 112.902344 322.851562 L 107.910156 319.839844 C 107.058594 319.355469 106.273438 318.792969 105.460938 318.25 L 103.050781 316.621094 C 102.25 316.058594 101.421875 315.546875 100.644531 314.960938 L 98.316406 313.226562 C 95.160156 310.929688 92.1875 308.402344 89.222656 305.875 L 84.921875 301.914062 C 84.191406 301.28125 83.523438 300.5625 82.832031 299.871094 L 80.78125 297.78125 C 80.105469 297.089844 79.398438 296.398438 78.738281 295.683594 L 76.796875 293.488281 C 75.511719 292.035156 74.175781 290.605469 72.980469 289.046875 C 71.765625 287.511719 70.527344 286.011719 69.332031 284.476562 L 65.882812 279.730469 C 61.449219 273.292969 57.503906 266.527344 54.039062 259.507812 C 50.703125 252.410156 47.894531 245.113281 45.621094 237.625 L 44.078125 231.957031 C 43.601562 230.074219 43.214844 228.15625 42.785156 226.242188 C 42.585938 225.296875 42.339844 224.351562 42.1875 223.378906 L 41.695312 220.496094 C 41.386719 218.554688 41.003906 216.640625 40.835938 214.699219 C 38.898438 199.207031 39.390625 183.453125 42.410156 168.238281 C 42.816406 166.347656 43.171875 164.429688 43.617188 162.539062 L 45.113281 156.929688 C 45.242188 156.46875 45.359375 156.003906 45.496094 155.542969 L 45.941406 154.167969 L 46.820312 151.386719 L 47.710938 148.628906 L 48.746094 145.925781 L 49.777344 143.238281 L 50.296875 141.886719 L 50.875 140.5625 L 53.207031 135.273438 C 54.9375 131.832031 56.617188 128.382812 58.585938 125.09375 C 66.226562 111.785156 76.128906 99.941406 87.585938 90.1875 C 82.855469 96.0625 78.515625 102.136719 74.5625 108.414062 L 71.695312 113.167969 L 69.03125 118.042969 C 68.578125 118.835938 68.164062 119.65625 67.765625 120.5 L 66.542969 122.96875 C 66.136719 123.789062 65.714844 124.609375 65.328125 125.449219 L 64.222656 127.976562 C 62.679688 131.292969 61.410156 134.742188 60.097656 138.136719 L 58.347656 143.34375 L 57.910156 144.648438 L 57.539062 145.949219 L 56.78125 148.582031 C 54.84375 155.601562 53.269531 162.699219 52.402344 169.890625 C 52.101562 171.679688 51.972656 173.46875 51.796875 175.28125 C 51.632812 177.070312 51.417969 178.882812 51.375 180.671875 L 51.121094 186.085938 L 51.113281 191.496094 C 51.074219 193.308594 51.234375 195.097656 51.304688 196.910156 C 51.410156 198.691406 51.425781 200.503906 51.640625 202.292969 L 52.148438 207.65625 L 52.925781 212.992188 C 54.101562 220.066406 55.589844 227.109375 57.792969 233.929688 C 59.9375 240.773438 62.554688 247.457031 65.636719 253.921875 C 78.0625 279.753906 98.164062 301.835938 122.949219 316.828125 C 129.15625 320.523438 135.601562 323.894531 142.320312 326.730469 C 149.046875 329.515625 155.96875 331.914062 163.066406 333.832031 C 170.171875 335.644531 177.4375 336.996094 184.800781 337.941406 C 188.488281 338.265625 192.199219 338.757812 195.925781 338.910156 C 199.65625 339.140625 203.398438 339.164062 207.167969 339.164062 " fill-opacity="1" fill-rule="nonzero"/></g><g clip-path="url(#f9207e2f44)"><path fill="#116254" d="M 116.773438 67.207031 C 120.90625 64.316406 125.238281 61.707031 129.671875 59.25 C 134.132812 56.851562 138.757812 54.738281 143.464844 52.796875 C 152.898438 48.949219 162.820312 46.183594 172.957031 44.484375 C 178.019531 43.578125 183.136719 43.082031 188.28125 42.75 L 192.144531 42.542969 L 199.886719 42.496094 L 203.757812 42.671875 L 207.636719 42.828125 L 211.5 43.21875 L 215.371094 43.601562 L 219.210938 44.195312 C 220.488281 44.402344 221.777344 44.5625 223.058594 44.792969 L 226.871094 45.5625 C 228.144531 45.851562 229.433594 46.058594 230.6875 46.367188 L 234.464844 47.375 L 236.347656 47.859375 L 237.292969 48.097656 L 238.222656 48.378906 L 241.945312 49.570312 C 244.449219 50.292969 246.871094 51.246094 249.320312 52.152344 C 254.199219 53.980469 258.945312 56.152344 263.605469 58.503906 C 272.921875 63.226562 281.726562 68.988281 289.84375 75.59375 C 297.960938 82.207031 305.351562 89.695312 311.949219 97.859375 C 318.515625 106.015625 324.214844 114.878906 328.976562 124.25 C 333.683594 133.621094 337.425781 143.484375 340.097656 153.613281 C 342.726562 163.789062 344.324219 174.191406 344.777344 184.644531 C 345.230469 195.105469 344.613281 205.589844 342.902344 215.894531 C 341.152344 226.171875 338.410156 236.296875 334.515625 245.957031 C 330.710938 255.636719 325.78125 264.824219 320.050781 273.457031 C 318.554688 275.574219 317.125 277.71875 315.535156 279.753906 C 314.746094 280.765625 314 281.820312 313.183594 282.832031 L 310.726562 285.828125 C 309.914062 286.828125 309.03125 287.757812 308.191406 288.746094 C 307.339844 289.699219 306.496094 290.675781 305.589844 291.582031 L 302.9375 294.394531 L 300.175781 297.082031 C 296.464844 300.621094 292.609375 304.03125 288.539062 307.128906 C 286.535156 308.726562 284.429688 310.175781 282.363281 311.644531 C 281.308594 312.367188 280.242188 313.066406 279.175781 313.765625 L 277.570312 314.824219 L 275.933594 315.800781 C 271.609375 318.488281 267.101562 320.867188 262.539062 323.058594 L 259.082031 324.609375 C 257.921875 325.125 256.738281 325.59375 255.574219 326.082031 C 253.253906 327.066406 250.847656 327.859375 248.484375 328.71875 C 252.960938 326.390625 257.386719 324.046875 261.609375 321.359375 C 265.847656 318.695312 269.996094 315.9375 273.921875 312.859375 L 275.402344 311.726562 L 276.847656 310.5625 L 279.734375 308.210938 C 281.601562 306.589844 283.5 304.984375 285.28125 303.28125 L 286.640625 302.019531 C 287.09375 301.605469 287.539062 301.160156 287.976562 300.722656 L 290.597656 298.117188 C 291.472656 297.242188 292.292969 296.335938 293.140625 295.429688 L 294.40625 294.085938 C 294.820312 293.625 295.21875 293.15625 295.621094 292.695312 C 298.929688 289.054688 301.949219 285.152344 304.851562 281.226562 C 307.730469 277.25 310.390625 273.148438 312.886719 268.9375 L 314.675781 265.757812 L 315.558594 264.160156 L 316.402344 262.527344 C 316.957031 261.449219 317.539062 260.359375 318.0625 259.277344 L 319.628906 255.972656 C 321.632812 251.527344 323.476562 247.035156 325.027344 242.441406 C 325.867188 240.167969 326.503906 237.816406 327.242188 235.519531 L 328.179688 232.003906 L 328.640625 230.257812 L 329.046875 228.46875 C 330.207031 223.769531 330.996094 218.992188 331.671875 214.214844 C 331.941406 211.816406 332.273438 209.414062 332.410156 207.015625 C 332.488281 205.796875 332.625 204.613281 332.679688 203.398438 L 332.839844 199.78125 C 332.910156 198.5625 332.886719 197.355469 332.902344 196.164062 C 332.894531 194.957031 332.941406 193.738281 332.894531 192.554688 C 332.785156 190.121094 332.734375 187.722656 332.585938 185.320312 C 331.941406 175.6875 330.382812 166.15625 327.808594 156.886719 C 325.304688 147.621094 321.832031 138.605469 317.480469 130.035156 C 313.183594 121.4375 307.96875 113.296875 302.019531 105.761719 C 296.097656 98.167969 289.367188 91.222656 282.054688 84.941406 C 267.394531 72.421875 250.15625 62.917969 231.648438 57.058594 L 228.175781 55.96875 C 227.015625 55.609375 225.832031 55.355469 224.65625 55.046875 L 221.125 54.117188 C 219.941406 53.832031 218.75 53.601562 217.554688 53.335938 L 213.980469 52.613281 L 210.371094 52.050781 L 206.761719 51.453125 L 203.121094 51.066406 L 199.472656 50.652344 L 195.816406 50.445312 L 192.144531 50.238281 L 188.472656 50.167969 C 183.566406 50.132812 178.648438 50.269531 173.75 50.730469 C 163.941406 51.558594 154.1875 53.417969 144.625 56.152344 C 135.070312 58.917969 125.769531 62.660156 116.773438 67.207031 " fill-opacity="1" fill-rule="nonzero"/></g><g clip-path="url(#555b94b812)"><g clip-path="url(#8d8cffa662)"><g transform="matrix(1, 0, 0, 1, 13, 376)"><g clip-path="url(#c18ed45100)"><g clip-path="url(#b91bf06046)"><g clip-path="url(#d25146eb49)"><rect x="-97.48" width="552.96" fill="#ffffff" height="552.959979" y="-460.479997" fill-opacity="1"/></g></g></g></g></g></g></svg>