<svg xmlns="http://www.w3.org/2000/svg" xmlns:xlink="http://www.w3.org/1999/xlink" width="128" zoomAndPan="magnify" viewBox="0 0 96 95.999999" height="128" preserveAspectRatio="xMidYMid meet" version="1.0"><defs><clipPath id="a1967ffefb"><path d="M 26 40 L 93.898438 40 L 93.898438 88.9375 L 26 88.9375 Z M 26 40 " clip-rule="nonzero"/></clipPath></defs><g clip-path="url(#a1967ffefb)"><path fill="#f1f5f9" d="M 92.9375 67.628906 L 92.988281 62.59375 C 92.988281 62.59375 92.8125 61.9375 92.371094 61.621094 C 92.371094 61.621094 91.523438 54.972656 90.109375 49.953125 C 90.109375 49.953125 89.277344 45.410156 82.082031 43.90625 L 56.199219 43.640625 C 56.199219 43.640625 55.847656 43.585938 55.457031 43.78125 C 55.617188 43.429688 55.96875 43.164062 56.394531 43.164062 L 76.246094 42.917969 C 76.089844 41.609375 75.117188 41.164062 73.808594 41.148438 L 53.25 40.902344 C 52.453125 40.882812 51.65625 40.972656 50.898438 41.164062 L 26.253906 51.488281 L 48.652344 46.945312 L 48.6875 50.800781 L 27.171875 57.289062 L 48.722656 55.007812 L 48.757812 58.242188 L 26.359375 62.910156 L 48.792969 63.300781 L 48.828125 66.640625 L 26.925781 68.832031 L 48.863281 72.332031 L 48.898438 75.992188 L 27.066406 75.144531 L 51.425781 81.824219 C 51.425781 81.824219 51.144531 74.859375 53.917969 73.324219 C 53.917969 72.492188 53.9375 71.308594 53.992188 69.875 C 54.113281 69.910156 54.238281 69.945312 54.398438 69.964844 L 54.398438 71.464844 C 54.398438 71.464844 54.363281 71.679688 54.589844 71.765625 C 54.589844 71.765625 54.589844 71.765625 54.609375 71.765625 L 54.609375 74.03125 C 54.609375 74.03125 51.851562 75.285156 52.292969 82.796875 C 52.292969 82.796875 53.371094 83.0625 53.867188 83.132812 C 53.796875 82.019531 53.8125 80.445312 53.8125 80.445312 C 54.078125 76.824219 54.945312 75.957031 54.945312 75.957031 C 56.253906 74.046875 58.269531 74.773438 58.269531 74.773438 C 57.066406 74.84375 55.917969 75.796875 55.527344 76.347656 C 54.183594 78.308594 54.253906 81.402344 54.414062 83.132812 C 54.449219 83.539062 54.609375 84.140625 54.820312 84.761719 C 54.820312 84.761719 34.542969 80.960938 34.542969 80.960938 L 57.542969 88.808594 L 60.515625 88.808594 C 60.515625 88.792969 60.566406 88.792969 60.566406 88.792969 C 60.566406 88.792969 62.636719 88.773438 63.308594 86.050781 L 78.652344 86 C 78.652344 86 79.890625 87.960938 81.515625 87.941406 L 84.554688 87.941406 C 84.554688 87.960938 85.863281 87.890625 86.941406 86.050781 L 90.53125 85.820312 C 90.53125 85.820312 92.421875 85.664062 92.601562 84.476562 L 92.757812 73.605469 C 92.757812 73.605469 93.5 73.730469 93.519531 72.507812 C 93.519531 72.386719 93.554688 68.601562 93.554688 68.601562 C 93.554688 68.601562 93.324219 68.144531 92.972656 67.664062 Z M 89.046875 50.640625 C 89.046875 50.640625 90.035156 54.761719 90.65625 61.621094 C 90.65625 61.621094 74.019531 62.0625 68.34375 61.621094 C 68.34375 61.621094 68.007812 53.894531 67.671875 50.570312 Z M 89.71875 67.824219 L 74.480469 67.984375 L 72.289062 66.445312 L 74.65625 67.066406 L 89.753906 66.992188 L 90.496094 66.621094 L 89.699219 67.808594 Z M 90.109375 69.628906 L 89.3125 70.8125 L 75.238281 71.078125 L 73.332031 69.609375 L 75.523438 70.230469 L 89.363281 69.980469 L 90.109375 69.609375 Z M 70.414062 73.324219 L 69.847656 72.988281 C 69.671875 72.898438 69.566406 72.703125 69.566406 72.492188 L 69.496094 69.609375 C 69.496094 69.414062 69.671875 69.222656 69.832031 69.328125 L 70.324219 69.679688 C 70.324219 69.75 70.414062 73.324219 70.414062 73.324219 Z M 64.542969 46.574219 C 64.542969 46.574219 65.09375 46.523438 65.179688 47 L 65.144531 48.574219 C 65.144531 48.574219 64.808594 49.175781 64.03125 49.066406 L 59.417969 48.820312 L 64.542969 48.394531 L 64.578125 47.210938 L 57.808594 46.980469 L 64.542969 46.59375 Z M 58.621094 84.902344 C 58.355469 85.253906 58.058594 85.46875 57.703125 85.46875 C 56.695312 85.503906 55.828125 83.859375 55.742188 81.773438 C 55.671875 79.6875 56.414062 77.972656 57.402344 77.9375 C 57.878906 77.917969 58.320312 78.289062 58.675781 78.890625 C 58.605469 78.875 58.535156 78.855469 58.445312 78.855469 C 57.648438 78.890625 57.050781 80.253906 57.101562 81.933594 C 57.171875 83.539062 57.828125 84.832031 58.605469 84.882812 Z M 62.015625 75.886719 C 60.40625 71.925781 55.847656 72.722656 55.847656 72.722656 L 55.847656 71.519531 C 61.910156 71.078125 62.085938 76.082031 62.015625 75.902344 Z M 64.914062 69.34375 L 55.191406 68.742188 L 63.34375 68.285156 L 63.378906 65.722656 L 54.308594 63.351562 L 64.96875 65.207031 L 64.933594 69.363281 Z M 57.683594 58.863281 C 56.253906 58.632812 56.34375 56.707031 56.34375 56.707031 L 56.394531 50.765625 L 65.675781 50.695312 L 65.78125 61.285156 L 57.683594 58.878906 Z M 74.039062 79.917969 L 66.628906 79.847656 C 66.402344 79.847656 66.222656 79.652344 66.222656 79.441406 L 66.222656 77.316406 C 66.242188 77.105469 66.417969 76.929688 66.648438 76.929688 L 71.582031 76.980469 C 74.144531 77.125 74.019531 79.933594 74.019531 79.933594 Z M 89.066406 73.535156 L 76 73.925781 L 73.96875 72.507812 L 76.160156 73.128906 L 89.136719 72.84375 L 89.878906 72.472656 L 89.046875 73.535156 Z M 92.140625 79.085938 C 92.140625 79.28125 91.980469 79.421875 91.804688 79.421875 L 89.964844 79.421875 C 90 76.824219 91.628906 76.644531 91.628906 76.644531 L 92.230469 76.523438 L 92.160156 79.105469 Z M 92.601562 72.546875 C 92.601562 72.546875 92.546875 73.039062 91.609375 73.058594 L 91.644531 69.789062 C 91.644531 69.628906 91.734375 69.488281 91.875 69.398438 L 92.316406 69.132812 C 92.457031 69.042969 92.652344 69.152344 92.652344 69.328125 L 92.617188 72.546875 Z M 92.601562 72.546875 " fill-opacity="1" fill-rule="nonzero"/></g><path fill="#60a5fa" d="M 59.84375 15.054688 C 40.996094 7.1875 17.714844 17.195312 10.414062 36.199219 C 2.441406 54.390625 11.828125 78.113281 30.957031 84.355469 C 13.773438 75.144531 7.886719 56.933594 12.109375 41.644531 C 13.789062 41.308594 15.417969 40.671875 16.847656 39.714844 C 17.980469 38.972656 19.535156 38.019531 20.578125 38.921875 C 21.425781 39.628906 21.234375 41.007812 21.867188 41.910156 C 22.910156 43.339844 25.140625 42.617188 26.890625 42.898438 C 28.605469 43.214844 29.363281 43.941406 30.425781 45.320312 C 30.496094 45.410156 31.519531 46.238281 31.574219 46.308594 C 31.574219 46.308594 34.988281 47.160156 35.410156 44.472656 C 35.835938 41.890625 34.773438 39.238281 34.472656 36.605469 C 34.261719 34.890625 33.871094 32.910156 32.335938 32.097656 C 31.273438 31.546875 30 31.742188 28.851562 32.0625 C 26.269531 32.714844 23.761719 33.792969 21.496094 35.242188 C 20.261719 36.019531 19.09375 36.886719 17.855469 37.664062 C 17.058594 38.179688 16.210938 38.636719 15.382812 39.0625 C 14.585938 39.449219 13.59375 39.769531 12.800781 39.433594 C 13.3125 37.949219 13.929688 36.515625 14.636719 35.101562 C 14.867188 35.03125 15.082031 34.625 14.9375 34.5 C 19.675781 25.609375 28.375 18.660156 40.800781 16.679688 C 41.472656 16.574219 42.144531 16.539062 42.816406 16.488281 C 42.695312 17.160156 42.640625 17.832031 42.675781 18.503906 C 42.730469 20.039062 43.152344 21.84375 44.585938 22.390625 C 45.292969 22.675781 46.070312 22.550781 46.847656 22.425781 C 46.652344 23.453125 45.875 24.316406 44.902344 24.636719 C 44.410156 24.8125 43.859375 24.832031 43.382812 25.042969 C 42.90625 25.253906 42.480469 25.75 42.605469 26.28125 C 42.800781 26.933594 43.667969 27.039062 44.355469 27.023438 C 45.027344 26.96875 45.910156 27.023438 46.140625 27.675781 C 46.390625 28.296875 45.839844 29.125 46.335938 29.605469 C 46.601562 29.851562 47.042969 29.78125 47.324219 29.605469 C 47.609375 29.410156 47.820312 29.074219 47.996094 28.753906 C 49.21875 26.8125 50.773438 25.0625 52.613281 23.648438 C 53.195312 23.1875 53.832031 22.761719 54.554688 22.566406 C 55.28125 22.390625 56.113281 22.480469 56.660156 22.976562 C 56.164062 24.8125 54.378906 25.945312 52.699219 26.882812 C 51.039062 27.835938 49.234375 28.96875 48.777344 30.824219 C 48.421875 32.273438 48.988281 33.757812 49.625 35.121094 C 50.261719 36.480469 51.285156 38.019531 52.789062 38.035156 C 53.847656 38.054688 54.769531 37.292969 55.492188 36.480469 C 56.234375 35.6875 56.925781 34.785156 57.914062 34.414062 C 59.4375 33.8125 61.148438 34.589844 62.386719 35.578125 C 63.660156 36.585938 64.757812 37.878906 66.207031 38.550781 C 67.691406 39.238281 69.742188 39.078125 70.519531 37.664062 C 71.15625 36.535156 70.730469 35.15625 70.308594 33.953125 C 69.460938 31.585938 68.59375 29.199219 67.746094 26.828125 C 67.445312 25.945312 67.039062 24.972656 66.1875 24.582031 C 65.835938 24.40625 65.410156 24.371094 65.023438 24.355469 C 63.820312 24.246094 62.617188 24.140625 61.414062 24.054688 C 60.601562 24 59.578125 23.71875 59.453125 22.902344 C 59.363281 22.269531 59.984375 21.753906 60.601562 21.613281 C 61.222656 21.507812 61.859375 21.683594 62.457031 21.789062 C 62.9375 21.878906 63.449219 21.894531 63.871094 21.753906 C 70.609375 26.015625 75.910156 32.519531 78.421875 40.15625 C 78.742188 41.113281 79.589844 41.785156 80.597656 41.785156 L 82.984375 41.785156 C 80.121094 29.835938 71.351562 19.402344 59.808594 15.019531 Z M 59.84375 15.054688 " fill-opacity="1" fill-rule="nonzero"/></svg>