<svg xmlns="http://www.w3.org/2000/svg" xmlns:xlink="http://www.w3.org/1999/xlink" width="128" zoomAndPan="magnify" viewBox="0 0 96 95.999999" height="128" preserveAspectRatio="xMidYMid meet" version="1.0"><defs><clipPath id="5f054190c0"><path d="M 9 67 L 87 67 L 87 91.050781 L 9 91.050781 Z M 9 67 " clip-rule="nonzero"/></clipPath><clipPath id="7bcf04fc82"><path d="M 4.800781 4.800781 L 91.050781 4.800781 L 91.050781 67 L 4.800781 67 Z M 4.800781 4.800781 " clip-rule="nonzero"/></clipPath><clipPath id="0b810b0496"><path d="M 27.339844 45.957031 L 27.695312 45.957031 L 27.695312 46.289062 L 27.339844 46.289062 Z M 27.339844 45.957031 " clip-rule="nonzero"/></clipPath><clipPath id="c4db2f6bb7"><path d="M 27.675781 46.199219 C 27 46.425781 27.601562 45.976562 27.601562 45.976562 " clip-rule="nonzero"/></clipPath><clipPath id="8afadc3852"><path d="M 0.339844 0.957031 L 0.695312 0.957031 L 0.695312 1.289062 L 0.339844 1.289062 Z M 0.339844 0.957031 " clip-rule="nonzero"/></clipPath><clipPath id="2019498b31"><path d="M 0.675781 1.199219 C 0 1.425781 0.601562 0.976562 0.601562 0.976562 " clip-rule="nonzero"/></clipPath><clipPath id="c1f88630aa"><rect x="0" width="1" y="0" height="2"/></clipPath></defs><path fill="#f69d1f" d="M 41.914062 28.304688 C 41.707031 28.441406 41.503906 28.601562 41.304688 28.773438 C 34.628906 52.769531 45.789062 63.035156 50.023438 65.953125 C 52.273438 65.988281 54.523438 66.035156 56.777344 66.09375 C 58.046875 66.132812 59.316406 66.171875 60.585938 66.214844 C 63.40625 63.945312 68.621094 57.777344 65.015625 44.816406 C 64.898438 44.714844 64.78125 44.621094 64.660156 44.539062 C 63.5 45.175781 61.046875 46.949219 60.714844 50.734375 C 60.714844 50.734375 60.0625 47.347656 63.339844 44.019531 C 59.234375 43.394531 53.796875 50.417969 53.796875 50.417969 C 53.601562 42.550781 62.773438 41.796875 62.773438 41.796875 C 60.164062 39.585938 52.730469 39.859375 52.730469 39.859375 C 58.898438 35.628906 64.789062 41.402344 64.789062 41.402344 C 63.90625 37.992188 61.148438 35.40625 59.925781 34.394531 C 60.214844 35.558594 60.363281 36.847656 60.324219 38.273438 C 60.324219 38.273438 51.109375 26.363281 44.144531 27.425781 C 49.699219 33.0625 48.59375 38.808594 48.59375 38.808594 C 48.035156 32.390625 43.878906 29.378906 41.914062 28.304688 Z M 41.914062 28.304688 " fill-opacity="1" fill-rule="nonzero"/><g clip-path="url(#5f054190c0)"><path fill="#4181c3" d="M 49.21875 86.289062 L 69.765625 85.113281 C 70.949219 84.417969 72.089844 83.671875 73.195312 82.871094 L 61.402344 81.339844 L 75.859375 80.773438 C 78.652344 78.394531 81.136719 75.667969 83.246094 72.660156 L 65.019531 70.964844 L 85.429688 69.21875 C 85.785156 68.59375 86.125 67.957031 86.449219 67.316406 L 84.433594 67.316406 C 81.324219 67.546875 78.214844 67.671875 75.105469 67.761719 C 71.902344 67.847656 68.699219 67.886719 65.496094 67.886719 C 62.292969 67.886719 59.089844 67.84375 55.886719 67.757812 C 55.488281 67.75 55.085938 67.734375 54.683594 67.722656 C 49.949219 67.835938 45.214844 67.886719 40.484375 67.886719 C 35.050781 67.886719 29.621094 67.820312 24.191406 67.671875 C 21.0625 67.585938 17.933594 67.472656 14.808594 67.316406 L 9.394531 67.316406 C 10.035156 68.589844 10.742188 69.828125 11.503906 71.023438 L 30.824219 72.679688 L 13.78125 74.261719 C 16.207031 77.40625 19.0625 80.207031 22.25 82.574219 L 34.445312 83.050781 L 24.769531 84.308594 C 26.355469 85.320312 28.015625 86.234375 29.738281 87.035156 L 46.628906 88.003906 L 38.570312 90.03125 C 41.582031 90.695312 44.714844 91.046875 47.925781 91.046875 C 52.335938 91.046875 56.59375 90.386719 60.605469 89.152344 Z M 49.21875 86.289062 " fill-opacity="1" fill-rule="nonzero"/></g><g clip-path="url(#7bcf04fc82)"><path fill="#f69d1f" d="M 75.328125 56.777344 L 90.246094 56.238281 C 90.773438 53.546875 91.046875 50.769531 91.046875 47.925781 C 91.046875 37.15625 87.101562 27.308594 80.570312 19.75 L 66.242188 22.125 L 77.804688 16.832031 C 70.050781 9.378906 59.523438 4.800781 47.925781 4.800781 C 35.796875 4.800781 24.84375 9.804688 17.007812 17.863281 L 31.917969 17.367188 L 14.398438 20.804688 C 9.894531 26.363281 6.746094 33.058594 5.457031 40.398438 L 17.828125 41.546875 L 5.039062 43.375 C 4.882812 44.867188 4.800781 46.386719 4.800781 47.925781 C 4.800781 52.375 5.476562 56.671875 6.730469 60.710938 L 24.113281 61.730469 L 7.761719 63.65625 C 8.035156 64.363281 8.332031 65.058594 8.644531 65.746094 C 9.371094 65.328125 10.160156 64.886719 10.890625 64.519531 C 13.050781 63.441406 23.265625 66.804688 28.535156 64.902344 C 33.800781 62.996094 40.96875 65.878906 40.96875 65.878906 C 31.375 54.753906 36.613281 35.492188 38.554688 29.558594 L 38.539062 29.558594 C 38.539062 29.558594 31.703125 23.125 20.710938 38.273438 C 20.710938 38.273438 18.429688 25.535156 34.789062 24.933594 C 34.789062 24.933594 26.140625 19.167969 18.835938 23.054688 C 18.835938 23.054688 28.957031 13 38.875 23.726562 C 38.875 23.726562 34.585938 18.902344 36.0625 14.609375 C 36.0625 14.609375 37.335938 19.773438 39.546875 21.515625 C 39.546875 21.515625 40.082031 11.527344 50.941406 10.320312 C 50.941406 10.320312 43.636719 15.480469 41.691406 22.988281 C 41.691406 22.988281 51.679688 13.203125 62.136719 20.375 C 62.136719 20.375 49.535156 19.90625 45.109375 23.660156 C 45.109375 23.660156 57.171875 24.648438 59.820312 33.996094 C 65.753906 34.945312 66.054688 40.53125 66.054688 40.53125 C 67.359375 39.503906 68.109375 36.460938 68.109375 36.460938 C 68.980469 38.992188 66.449219 41.835938 66.449219 41.835938 C 72.300781 35.511719 78.269531 41.441406 78.269531 41.441406 C 73.960938 39.148438 68.859375 42.550781 68.859375 42.550781 C 78.507812 42.90625 77.164062 50.417969 77.164062 50.417969 C 70.679688 41.480469 66.644531 45.277344 66.644531 45.277344 L 66.640625 45.277344 C 67.769531 48.726562 70.785156 59.816406 65.453125 66.414062 C 68.988281 63.996094 75.117188 66.171875 78.292969 64.773438 C 80.757812 63.6875 84.945312 65.820312 86.691406 66.828125 C 87.816406 64.527344 88.742188 62.109375 89.445312 59.601562 Z M 75.328125 56.777344 " fill-opacity="1" fill-rule="nonzero"/></g><g clip-path="url(#0b810b0496)"><g clip-path="url(#c4db2f6bb7)"><g transform="matrix(1, 0, 0, 1, 27, 45)"><g clip-path="url(#c1f88630aa)"><g clip-path="url(#8afadc3852)"><g clip-path="url(#2019498b31)"><rect x="-48.12" width="138.24" fill="#f69d1f" height="138.239999" y="-66.12" fill-opacity="1"/></g></g></g></g></g></g></svg>