<svg xmlns="http://www.w3.org/2000/svg" xmlns:xlink="http://www.w3.org/1999/xlink" width="1024" zoomAndPan="magnify" viewBox="0 0 768 284.999983" height="380" preserveAspectRatio="xMidYMid meet" version="1.0"><defs><g/><clipPath id="51d944c712"><path d="M 408 0.078125 L 567 0.078125 L 567 171 L 408 171 Z M 408 0.078125 " clip-rule="nonzero"/></clipPath><clipPath id="40fa8ee87d"><rect x="0" width="714" y="0" height="221"/></clipPath></defs><g transform="matrix(1, 0, 0, 1, 28, 28)"><g clip-path="url(#40fa8ee87d)"><g fill="#000000" fill-opacity="1"><g transform="translate(11.084618, 166.126942)"><g><path d="M 29.929688 6.351562 C 21.773438 6.351562 14.714844 4.753906 8.761719 1.558594 C 2.738281 -1.671875 -1.863281 -6.097656 -5.042969 -11.710938 C -8.191406 -17.28125 -9.769531 -23.421875 -9.769531 -30.132812 C -9.769531 -38.449219 -7.625 -46.398438 -3.335938 -53.976562 C 0.878906 -61.417969 6.550781 -68.042969 13.6875 -73.847656 C 20.78125 -79.621094 28.777344 -84.175781 37.667969 -87.511719 C 46.59375 -90.855469 55.734375 -92.53125 65.085938 -92.53125 C 72.753906 -92.53125 80.351562 -91.417969 87.875 -89.1875 C 95.214844 -87.011719 102.453125 -84.429688 109.589844 -81.4375 C 116.5625 -78.515625 123.4375 -75.859375 130.210938 -73.46875 L 129.167969 -70.507812 L 126.871094 -72.648438 C 136.070312 -82.515625 144.769531 -92.382812 152.96875 -102.246094 C 161.179688 -112.125 168.484375 -121.234375 174.886719 -129.570312 C 181.304688 -137.925781 186.378906 -144.636719 190.117188 -149.710938 L 192.644531 -147.847656 L 192.6875 -144.710938 L 148.492188 -144.105469 C 143.753906 -143.988281 140.289062 -143.21875 138.109375 -141.800781 C 135.652344 -140.203125 132.972656 -137.828125 130.070312 -134.675781 L 128.253906 -132.699219 L 121.40625 -137.261719 L 123.46875 -139.925781 C 126.707031 -144.109375 129.714844 -147.855469 132.484375 -151.167969 C 135.339844 -154.582031 138.242188 -157.550781 141.183594 -160.074219 L 141.28125 -160.15625 L 141.382812 -160.230469 C 143.175781 -161.535156 145.167969 -162.472656 147.363281 -163.039062 C 149.429688 -163.574219 151.53125 -163.84375 153.675781 -163.84375 L 208.3125 -163.84375 C 210.523438 -163.84375 212.15625 -163.109375 213.21875 -161.636719 C 214.203125 -160.273438 214.460938 -158.53125 213.988281 -156.40625 C 208.773438 -132.730469 204.289062 -111.394531 200.546875 -92.402344 C 196.804688 -73.421875 193.964844 -57.792969 192.027344 -45.511719 C 190.113281 -33.355469 189.15625 -25.550781 189.15625 -22.097656 C 189.15625 -18.242188 189.691406 -15.859375 190.761719 -14.945312 C 191.984375 -13.902344 193.28125 -13.382812 194.652344 -13.382812 C 196.375 -13.382812 198.398438 -14.050781 200.730469 -15.378906 C 203.328125 -16.867188 206.617188 -19.46875 210.589844 -23.183594 L 212.941406 -25.382812 L 218.691406 -18.914062 L 216.515625 -16.820312 C 209.28125 -9.859375 202.933594 -4.582031 197.484375 -0.992188 C 191.671875 2.832031 186.308594 4.746094 181.394531 4.746094 C 177.222656 4.746094 173.550781 2.910156 170.382812 -0.761719 C 167.296875 -4.332031 165.90625 -9.878906 166.207031 -17.402344 C 166.480469 -22.214844 167.261719 -29.085938 168.546875 -38.011719 C 169.824219 -46.902344 171.675781 -57.597656 174.09375 -70.101562 L 177.175781 -69.503906 L 179.15625 -67.070312 C 174.660156 -63.414062 169.476562 -60.261719 163.605469 -57.605469 C 157.570312 -54.875 150.910156 -53.507812 143.628906 -53.507812 C 139.871094 -53.507812 136.214844 -53.753906 132.65625 -54.242188 C 129.179688 -54.71875 125.734375 -55.300781 122.324219 -55.980469 L 122.9375 -59.058594 L 125.214844 -56.894531 C 117.402344 -48.683594 109.457031 -40.804688 101.375 -33.261719 C 93.253906 -25.679688 85.191406 -18.9375 77.191406 -13.042969 C 69.105469 -7.078125 61.136719 -2.375 53.289062 1.066406 C 45.253906 4.589844 37.46875 6.351562 29.929688 6.351562 Z M 29.929688 0.0742188 C 36.589844 0.0742188 43.535156 -1.511719 50.765625 -4.683594 C 58.1875 -7.9375 65.753906 -12.40625 73.46875 -18.09375 C 81.273438 -23.847656 89.148438 -30.433594 97.09375 -37.851562 C 105.082031 -45.308594 112.941406 -53.097656 120.664062 -61.222656 L 121.855469 -62.476562 L 123.554688 -62.136719 C 126.839844 -61.480469 130.160156 -60.921875 133.511719 -60.460938 C 136.785156 -60.011719 140.15625 -59.789062 143.628906 -59.789062 C 150.007812 -59.789062 155.804688 -60.964844 161.019531 -63.324219 C 166.394531 -65.757812 171.121094 -68.628906 175.199219 -71.941406 L 181.898438 -77.386719 L 180.257812 -68.910156 C 177.859375 -56.503906 176.023438 -45.90625 174.757812 -37.117188 C 173.5 -28.367188 172.738281 -21.710938 172.480469 -17.148438 C 172.246094 -11.28125 173.128906 -7.183594 175.132812 -4.863281 C 177.050781 -2.640625 179.140625 -1.53125 181.394531 -1.53125 C 185.054688 -1.53125 189.265625 -3.101562 194.03125 -6.238281 C 199.160156 -9.613281 205.203125 -14.648438 212.164062 -21.34375 L 214.339844 -19.082031 L 211.992188 -17 L 210.386719 -18.804688 L 212.734375 -20.890625 L 214.878906 -18.597656 C 210.546875 -14.546875 206.871094 -11.660156 203.84375 -9.929688 C 200.550781 -8.046875 197.484375 -7.105469 194.652344 -7.105469 C 191.742188 -7.105469 189.085938 -8.125 186.691406 -10.164062 C 184.148438 -12.332031 182.878906 -16.308594 182.878906 -22.097656 C 182.878906 -25.875 183.859375 -34.007812 185.828125 -46.492188 C 187.777344 -58.851562 190.628906 -74.558594 194.386719 -93.613281 C 198.140625 -112.65625 202.632812 -134.039062 207.859375 -157.769531 C 207.921875 -158.050781 207.949219 -158.257812 207.9375 -158.382812 C 207.949219 -158.265625 208.011719 -158.125 208.128906 -157.964844 C 208.277344 -157.757812 208.445312 -157.621094 208.636719 -157.546875 C 208.601562 -157.558594 208.496094 -157.566406 208.3125 -157.566406 L 153.675781 -157.566406 C 152.066406 -157.566406 150.488281 -157.363281 148.9375 -156.964844 C 147.515625 -156.59375 146.226562 -155.992188 145.074219 -155.152344 L 143.226562 -157.691406 L 145.269531 -155.308594 C 142.589844 -153.011719 139.933594 -150.289062 137.300781 -147.140625 C 134.578125 -143.890625 131.625 -140.203125 128.433594 -136.082031 L 125.953125 -138.003906 L 127.695312 -140.617188 L 129.5 -139.410156 L 127.761719 -136.800781 L 125.449219 -138.925781 C 128.710938 -142.46875 131.789062 -145.179688 134.6875 -147.066406 C 137.863281 -149.128906 142.4375 -150.234375 148.410156 -150.382812 L 198.917969 -151.074219 L 195.171875 -145.988281 C 191.410156 -140.878906 186.308594 -134.132812 179.867188 -125.75 C 173.414062 -117.347656 166.058594 -108.175781 157.796875 -98.234375 C 149.519531 -88.277344 140.742188 -78.324219 131.460938 -68.367188 L 130.058594 -66.863281 L 128.121094 -67.550781 C 121.234375 -69.980469 114.25 -72.679688 107.164062 -75.648438 C 100.238281 -78.550781 93.210938 -81.058594 86.089844 -83.167969 C 79.148438 -85.226562 72.148438 -86.253906 65.085938 -86.253906 C 56.492188 -86.253906 48.085938 -84.710938 39.871094 -81.632812 C 31.621094 -78.539062 24.214844 -74.320312 17.648438 -68.980469 C 11.125 -63.667969 5.953125 -57.636719 2.128906 -50.882812 C -1.617188 -44.265625 -3.492188 -37.347656 -3.492188 -30.132812 C -3.492188 -24.523438 -2.1875 -19.414062 0.421875 -14.804688 C 3.003906 -10.242188 6.773438 -6.632812 11.730469 -3.972656 C 16.757812 -1.273438 22.824219 0.0742188 29.929688 0.0742188 Z M 9.769531 -38.167969 C 9.769531 -31.90625 11.0625 -26.578125 13.652344 -22.183594 C 16.238281 -17.796875 19.683594 -14.433594 23.992188 -12.101562 C 28.347656 -9.742188 33.140625 -8.5625 38.367188 -8.5625 C 46.242188 -8.6875 54.371094 -11.097656 62.746094 -15.796875 C 71.386719 -20.640625 80.242188 -27.101562 89.3125 -35.1875 C 98.492188 -43.367188 107.738281 -52.316406 117.058594 -62.035156 L 119.324219 -59.863281 L 118.484375 -56.835938 C 109.613281 -59.292969 101.28125 -62.332031 93.492188 -65.957031 C 85.925781 -69.472656 78.59375 -72.59375 71.496094 -75.3125 C 64.691406 -77.917969 57.734375 -79.222656 50.621094 -79.222656 C 42.394531 -79.222656 35.21875 -77.277344 29.105469 -73.386719 C 22.9375 -69.460938 18.179688 -64.359375 14.820312 -58.082031 C 11.453125 -51.78125 9.769531 -45.144531 9.769531 -38.167969 Z M 3.492188 -38.167969 C 3.492188 -46.191406 5.421875 -53.816406 9.285156 -61.042969 C 13.160156 -68.289062 18.644531 -74.167969 25.734375 -78.679688 C 32.878906 -83.226562 41.175781 -85.5 50.621094 -85.5 C 58.507812 -85.5 66.214844 -84.058594 73.742188 -81.175781 C 80.972656 -78.402344 88.441406 -75.226562 96.140625 -71.648438 C 103.617188 -68.171875 111.621094 -65.25 120.160156 -62.886719 L 125.226562 -61.484375 L 121.589844 -57.691406 C 112.15625 -47.855469 102.792969 -38.792969 93.488281 -30.5 C 84.078125 -22.113281 74.855469 -15.386719 65.816406 -10.320312 C 56.515625 -5.105469 47.367188 -2.425781 38.367188 -2.285156 C 32.078125 -2.285156 26.292969 -3.71875 21.003906 -6.582031 C 15.671875 -9.46875 11.417969 -13.609375 8.242188 -18.996094 C 5.074219 -24.375 3.492188 -30.765625 3.492188 -38.167969 Z M 133.546875 -72.292969 C 137.597656 -70.984375 141.582031 -69.90625 145.5 -69.058594 C 149.296875 -68.234375 153.09375 -67.824219 156.886719 -67.824219 C 161.082031 -67.824219 164.699219 -68.582031 167.738281 -70.101562 C 170.976562 -71.722656 173.632812 -73.445312 175.703125 -75.273438 L 177.78125 -72.917969 L 174.703125 -73.542969 C 176.714844 -83.464844 178.996094 -94.328125 181.542969 -106.125 C 184.089844 -117.921875 186.90625 -130.527344 189.988281 -143.933594 L 193.046875 -143.226562 L 195.589844 -141.386719 C 191.683594 -136.003906 186.644531 -129.316406 180.464844 -121.320312 C 174.28125 -113.320312 167.324219 -104.6875 159.601562 -95.417969 C 151.867188 -86.140625 143.632812 -76.730469 134.898438 -67.183594 L 132.582031 -69.304688 Z M 131.617188 -66.316406 L 126.964844 -67.816406 L 130.265625 -71.421875 C 138.9375 -80.894531 147.109375 -90.234375 154.777344 -99.4375 C 162.453125 -108.648438 169.359375 -117.222656 175.496094 -125.160156 C 181.636719 -133.101562 186.640625 -139.738281 190.503906 -145.070312 L 196.105469 -142.523438 C 193.027344 -129.144531 190.21875 -116.570312 187.679688 -104.800781 C 185.136719 -93.027344 182.863281 -82.195312 180.855469 -72.296875 L 180.648438 -71.261719 L 179.855469 -70.566406 C 177.375 -68.375 174.273438 -66.351562 170.546875 -64.488281 C 166.621094 -62.527344 162.070312 -61.542969 156.886719 -61.542969 C 152.644531 -61.542969 148.40625 -62.003906 144.171875 -62.921875 C 140.050781 -63.8125 135.867188 -64.945312 131.617188 -66.316406 Z M 131.617188 -66.316406 "/></g></g></g><g fill="#000000" fill-opacity="1"><g transform="translate(230.434754, 166.126942)"><g><path d="M 61.46875 3.140625 C 59.308594 3.140625 57.679688 2.359375 56.589844 0.796875 C 55.40625 -0.894531 55.359375 -2.832031 56.453125 -5.019531 L 56.476562 -5.066406 L 71.867188 -33.4375 C 76.878906 -42.65625 80.917969 -50.265625 83.984375 -56.269531 C 88.234375 -64.765625 91.417969 -71.496094 93.535156 -76.460938 C 95.511719 -81.089844 96.5 -84.328125 96.5 -86.179688 C 96.5 -86.953125 96.304688 -87.597656 95.921875 -88.113281 C 95.746094 -88.347656 95.242188 -88.464844 94.414062 -88.464844 C 91.605469 -88.464844 87.964844 -86.851562 83.492188 -83.628906 C 78.578125 -80.09375 72.960938 -75.359375 66.628906 -69.425781 C 59.902344 -63.09375 53.203125 -55.832031 46.527344 -47.636719 C 39.828125 -39.410156 33.558594 -30.917969 27.722656 -22.164062 L 25.109375 -23.90625 L 27.851562 -22.378906 C 21.921875 -11.730469 17.664062 -4.4375 15.082031 -0.488281 C 13.542969 1.929688 11.460938 3.140625 8.839844 3.140625 L -0.804688 3.140625 C -3.222656 3.140625 -4.878906 2.15625 -5.769531 0.195312 C -6.519531 -1.453125 -6.402344 -3.257812 -5.417969 -5.21875 L -5.367188 -5.320312 L -5.308594 -5.417969 C -2.78125 -9.679688 0.183594 -14.875 3.582031 -21.007812 L 14.222656 -40.382812 C 17.878906 -47.09375 21.234375 -53.609375 24.292969 -59.925781 C 27.339844 -66.21875 29.820312 -71.773438 31.734375 -76.589844 C 33.527344 -81.105469 34.425781 -84.234375 34.425781 -85.976562 C 34.425781 -86.851562 34.296875 -87.417969 34.039062 -87.675781 C 33.78125 -87.933594 33.214844 -88.0625 32.34375 -88.0625 C 30.746094 -88.0625 28.582031 -87.292969 25.84375 -85.753906 C 22.839844 -84.0625 19.148438 -81.21875 14.769531 -77.230469 L 12.296875 -74.972656 L 6.757812 -81.898438 L 8.9375 -83.878906 C 16.457031 -90.71875 23.21875 -95.929688 29.226562 -99.519531 C 35.546875 -103.296875 40.667969 -105.1875 44.59375 -105.1875 C 49.636719 -105.1875 53.199219 -103.523438 55.289062 -100.203125 C 57.082031 -97.347656 57.980469 -94.480469 57.980469 -91.601562 C 57.980469 -88.546875 56.910156 -84.132812 54.769531 -78.359375 C 52.730469 -72.851562 50.085938 -66.640625 46.832031 -59.730469 C 43.601562 -52.863281 40.167969 -45.929688 36.535156 -38.929688 L 33.746094 -40.378906 L 31.253906 -42.28125 C 40.851562 -54.851562 50.65625 -66.078125 60.671875 -75.957031 C 69.804688 -84.816406 78.371094 -91.847656 86.375 -97.046875 C 94.730469 -102.472656 101.628906 -105.1875 107.070312 -105.1875 C 111.652344 -105.1875 115.0625 -103.558594 117.292969 -100.308594 C 119.265625 -97.429688 120.253906 -94.324219 120.253906 -91 C 120.253906 -88.976562 119.847656 -86.488281 119.035156 -83.539062 C 118.253906 -80.703125 116.726562 -76.765625 114.449219 -71.726562 C 112.21875 -66.796875 108.886719 -59.957031 104.445312 -51.210938 L 104.425781 -51.175781 L 104.410156 -51.144531 C 103.480469 -49.417969 102.515625 -47.589844 101.519531 -45.664062 C 100.5 -43.691406 99.378906 -41.617188 98.152344 -39.441406 L 95.417969 -40.980469 L 92.929688 -42.890625 C 101.839844 -54.5 110.789062 -64.96875 119.773438 -74.292969 C 128.828125 -83.6875 137.324219 -91.121094 145.261719 -96.597656 C 153.566406 -102.324219 160.65625 -105.1875 166.53125 -105.1875 C 170.957031 -105.1875 174.316406 -103.578125 176.617188 -100.355469 C 178.679688 -97.46875 179.714844 -94.347656 179.714844 -91 C 179.714844 -86.800781 178.414062 -81.816406 175.820312 -76.050781 C 173.363281 -70.589844 170.332031 -64.796875 166.722656 -58.671875 L 156.175781 -40.792969 C 152.730469 -34.960938 149.820312 -29.667969 147.441406 -24.910156 C 145.253906 -20.53125 144.15625 -17.183594 144.15625 -14.863281 C 144.15625 -13.96875 144.308594 -13.378906 144.613281 -13.09375 C 144.980469 -12.75 145.726562 -12.582031 146.84375 -12.582031 C 148.324219 -12.582031 150.351562 -13.378906 152.925781 -14.972656 C 155.828125 -16.773438 159.25 -19.507812 163.183594 -23.183594 L 165.660156 -25.5 L 171.222656 -18.542969 L 169.042969 -16.558594 C 161.539062 -9.738281 154.929688 -4.535156 149.214844 -0.957031 C 143.144531 2.84375 138.273438 4.746094 134.589844 4.746094 C 129.121094 4.746094 125.277344 2.898438 123.058594 -0.796875 C 121.15625 -3.972656 120.203125 -7.054688 120.203125 -10.042969 C 120.203125 -14.632812 121.496094 -19.875 124.082031 -25.769531 C 126.546875 -31.378906 129.585938 -37.21875 133.199219 -43.289062 C 136.761719 -49.273438 140.363281 -55.125 143.992188 -60.84375 C 147.550781 -66.4375 150.472656 -71.5625 152.765625 -76.214844 C 154.894531 -80.53125 155.960938 -83.851562 155.960938 -86.179688 C 155.960938 -87.140625 155.816406 -87.773438 155.53125 -88.070312 C 155.277344 -88.332031 154.726562 -88.464844 153.875 -88.464844 C 151.34375 -88.464844 147.742188 -86.757812 143.070312 -83.34375 C 137.988281 -79.628906 132.359375 -74.617188 126.1875 -68.3125 C 119.960938 -61.957031 113.632812 -54.796875 107.199219 -46.839844 C 100.75 -38.863281 94.601562 -30.683594 88.75 -22.308594 L 86.179688 -24.105469 L 88.9375 -22.609375 C 87.207031 -19.414062 85.40625 -16.015625 83.539062 -12.414062 C 81.679688 -8.824219 79.75 -4.96875 77.753906 -0.84375 L 74.929688 -2.210938 L 77.785156 -0.910156 C 76.558594 1.789062 74.402344 3.140625 71.3125 3.140625 Z M 61.46875 -3.140625 L 71.3125 -3.140625 C 71.59375 -3.140625 71.785156 -3.167969 71.886719 -3.230469 C 71.941406 -3.265625 72.003906 -3.355469 72.070312 -3.507812 L 72.101562 -3.578125 C 74.125 -7.753906 76.078125 -11.664062 77.96875 -15.304688 C 79.851562 -18.9375 81.667969 -22.371094 83.417969 -25.601562 L 83.503906 -25.757812 L 83.605469 -25.902344 C 89.539062 -34.398438 95.777344 -42.695312 102.320312 -50.789062 C 108.875 -58.898438 115.335938 -66.207031 121.699219 -72.707031 C 128.117188 -79.257812 134.003906 -84.492188 139.367188 -88.410156 C 145.140625 -92.628906 149.976562 -94.742188 153.875 -94.742188 C 156.503906 -94.742188 158.566406 -93.96875 160.054688 -92.421875 C 161.507812 -90.910156 162.238281 -88.828125 162.238281 -86.179688 C 162.238281 -82.878906 160.957031 -78.632812 158.398438 -73.441406 C 156.003906 -68.585938 152.96875 -63.261719 149.292969 -57.476562 C 145.691406 -51.808594 142.125 -46.011719 138.59375 -40.078125 C 135.109375 -34.226562 132.191406 -28.617188 129.832031 -23.246094 C 127.597656 -18.15625 126.480469 -13.757812 126.480469 -10.042969 C 126.480469 -8.214844 127.132812 -6.207031 128.441406 -4.027344 C 129.441406 -2.363281 131.488281 -1.53125 134.589844 -1.53125 C 137.070312 -1.53125 140.832031 -3.113281 145.878906 -6.277344 C 151.28125 -9.660156 157.59375 -14.636719 164.820312 -21.207031 L 166.933594 -18.882812 L 164.480469 -16.921875 L 162.875 -18.929688 L 165.324219 -20.890625 L 167.46875 -18.597656 C 158.695312 -10.402344 151.820312 -6.300781 146.84375 -6.300781 C 144.078125 -6.300781 141.910156 -7.035156 140.335938 -8.5 C 138.699219 -10.023438 137.878906 -12.144531 137.878906 -14.863281 C 137.878906 -18.171875 139.195312 -22.457031 141.828125 -27.71875 C 144.269531 -32.605469 147.25 -38.027344 150.769531 -43.980469 L 161.316406 -61.855469 C 164.804688 -67.785156 167.734375 -73.375 170.097656 -78.628906 C 172.324219 -83.574219 173.4375 -87.699219 173.4375 -91 C 173.4375 -93.007812 172.792969 -94.910156 171.507812 -96.707031 C 170.460938 -98.175781 168.800781 -98.910156 166.53125 -98.910156 C 161.960938 -98.910156 156.058594 -96.414062 148.828125 -91.429688 C 141.234375 -86.191406 133.054688 -79.027344 124.296875 -69.9375 C 115.472656 -60.78125 106.675781 -50.492188 97.910156 -39.070312 L 92.683594 -42.519531 C 93.871094 -44.628906 94.957031 -46.640625 95.945312 -48.546875 C 96.957031 -50.507812 97.9375 -52.363281 98.882812 -54.117188 L 101.644531 -52.628906 L 98.847656 -54.050781 C 103.246094 -62.714844 106.539062 -69.46875 108.730469 -74.3125 C 110.871094 -79.050781 112.289062 -82.683594 112.980469 -85.203125 C 113.644531 -87.609375 113.976562 -89.539062 113.976562 -91 C 113.976562 -93.027344 113.355469 -94.949219 112.113281 -96.757812 C 111.128906 -98.191406 109.449219 -98.910156 107.070312 -98.910156 C 102.867188 -98.910156 97.109375 -96.53125 89.796875 -91.78125 C 82.132812 -86.804688 73.894531 -80.039062 65.082031 -71.488281 C 55.273438 -61.816406 45.664062 -50.808594 36.242188 -38.472656 L 30.960938 -41.824219 C 34.558594 -48.75 37.957031 -55.613281 41.152344 -62.40625 C 44.328125 -69.152344 46.90625 -75.199219 48.882812 -80.539062 C 50.761719 -85.609375 51.703125 -89.296875 51.703125 -91.601562 C 51.703125 -93.273438 51.125 -95.027344 49.972656 -96.863281 C 49.117188 -98.226562 47.324219 -98.910156 44.59375 -98.910156 C 41.824219 -98.910156 37.773438 -97.316406 32.445312 -94.128906 C 26.800781 -90.753906 20.371094 -85.789062 13.160156 -79.234375 L 11.046875 -81.558594 L 13.5 -83.519531 L 15.105469 -81.507812 L 12.65625 -79.550781 L 10.539062 -81.867188 C 15.269531 -86.179688 19.347656 -89.300781 22.769531 -91.222656 C 26.460938 -93.300781 29.652344 -94.339844 32.34375 -94.339844 C 34.949219 -94.339844 36.996094 -93.597656 38.480469 -92.113281 C 39.960938 -90.628906 40.703125 -88.585938 40.703125 -85.976562 C 40.703125 -83.433594 39.660156 -79.53125 37.570312 -74.273438 C 35.597656 -69.3125 33.058594 -63.617188 29.945312 -57.1875 C 26.84375 -50.78125 23.4375 -44.171875 19.726562 -37.359375 L 9.074219 -17.964844 C 5.644531 -11.777344 2.648438 -6.527344 0.0859375 -2.214844 L -2.613281 -3.816406 L 0.195312 -2.414062 C 0.09375 -2.210938 0.0390625 -2.070312 0.03125 -1.988281 C 0.0429688 -2.109375 0.015625 -2.246094 -0.0546875 -2.402344 C -0.183594 -2.691406 -0.394531 -2.90625 -0.679688 -3.058594 C -0.761719 -3.101562 -0.835938 -3.128906 -0.898438 -3.140625 C -0.890625 -3.140625 -0.855469 -3.140625 -0.804688 -3.140625 L 8.839844 -3.140625 C 9.164062 -3.140625 9.492188 -3.402344 9.828125 -3.929688 C 12.332031 -7.75 16.511719 -14.917969 22.367188 -25.433594 L 22.429688 -25.542969 L 22.5 -25.644531 C 28.445312 -34.566406 34.832031 -43.21875 41.660156 -51.601562 C 48.511719 -60.011719 55.402344 -67.480469 62.335938 -74.003906 C 68.863281 -80.125 74.691406 -85.03125 79.824219 -88.726562 C 85.394531 -92.734375 90.257812 -94.742188 94.414062 -94.742188 C 97.335938 -94.742188 99.511719 -93.785156 100.941406 -91.878906 C 102.164062 -90.25 102.777344 -88.347656 102.777344 -86.179688 C 102.777344 -83.472656 101.621094 -79.414062 99.308594 -74 C 97.140625 -68.917969 93.898438 -62.054688 89.574219 -53.410156 C 86.484375 -47.363281 82.421875 -39.707031 77.386719 -30.441406 L 62.019531 -2.117188 L 59.261719 -3.617188 L 62.066406 -2.210938 C 62.015625 -2.113281 61.984375 -2.03125 61.964844 -1.96875 C 61.964844 -1.972656 61.96875 -1.996094 61.96875 -2.039062 C 61.980469 -2.308594 61.898438 -2.5625 61.730469 -2.804688 C 61.625 -2.953125 61.496094 -3.0625 61.339844 -3.128906 C 61.3125 -3.140625 61.292969 -3.148438 61.285156 -3.152344 C 61.328125 -3.144531 61.390625 -3.140625 61.46875 -3.140625 Z M 61.46875 -3.140625 "/></g></g></g><g clip-path="url(#51d944c712)"><g fill="#000000" fill-opacity="1"><g transform="translate(408.40567, 166.126942)"><g><path d="M 28.925781 4.546875 C 20.621094 4.546875 13.988281 2.296875 9.039062 -2.195312 C 4.074219 -6.699219 1.292969 -12.613281 0.6875 -19.929688 C 0.101562 -27.027344 1.890625 -34.589844 6.050781 -42.625 L 34.792969 -96.691406 C 39.863281 -106.144531 45.988281 -115.011719 53.171875 -123.289062 C 60.371094 -131.582031 68.421875 -138.882812 77.332031 -145.1875 C 86.28125 -151.519531 95.816406 -156.441406 105.941406 -159.953125 C 116.117188 -163.484375 126.605469 -165.25 137.402344 -165.25 C 143.117188 -165.25 147.625 -164.890625 150.925781 -164.171875 C 155.652344 -163.144531 158.019531 -160.984375 158.019531 -157.691406 C 158.019531 -155.710938 157.136719 -153.417969 155.367188 -150.808594 C 153.726562 -148.382812 151.484375 -146.25 148.652344 -144.410156 C 145.65625 -142.46875 142.242188 -141.496094 138.40625 -141.496094 C 134.394531 -141.496094 129.515625 -142.230469 123.765625 -143.703125 C 118.265625 -145.113281 111.019531 -147.023438 102.035156 -149.4375 L 102.851562 -152.46875 L 103.980469 -149.539062 C 98.347656 -147.363281 93.296875 -144.648438 88.828125 -141.394531 C 84.394531 -138.164062 80.128906 -133.824219 76.03125 -128.382812 C 71.847656 -122.828125 67.453125 -115.640625 62.84375 -106.820312 L 28.296875 -40.535156 L 25.511719 -41.984375 L 23.101562 -43.992188 C 34.578125 -57.765625 46.261719 -70.054688 58.152344 -80.867188 C 65.613281 -87.921875 72.625 -93.671875 79.195312 -98.117188 C 86.183594 -102.847656 92.289062 -105.136719 97.519531 -104.984375 L 97.425781 -101.847656 L 97.425781 -104.984375 C 102.464844 -104.984375 106.328125 -102.859375 109.019531 -98.601562 C 111.417969 -94.808594 112.617188 -90.601562 112.617188 -85.976562 C 112.617188 -77.945312 110.9375 -69.691406 107.578125 -61.214844 C 104.269531 -52.878906 99.832031 -44.792969 94.261719 -36.953125 C 88.691406 -29.113281 82.328125 -22.097656 75.175781 -15.90625 C 67.992188 -9.691406 60.488281 -4.746094 52.65625 -1.074219 C 44.667969 2.671875 36.757812 4.546875 28.925781 4.546875 Z M 28.925781 -1.734375 C 35.824219 -1.734375 42.847656 -3.40625 49.992188 -6.757812 C 57.296875 -10.183594 64.320312 -14.816406 71.066406 -20.652344 C 77.839844 -26.515625 83.867188 -33.160156 89.144531 -40.589844 C 94.421875 -48.015625 98.621094 -55.664062 101.742188 -63.53125 C 104.808594 -71.261719 106.339844 -78.742188 106.339844 -85.976562 C 106.339844 -89.386719 105.464844 -92.476562 103.714844 -95.246094 C 102.253906 -97.554688 100.160156 -98.707031 97.425781 -98.707031 L 97.382812 -98.707031 L 97.335938 -98.710938 C 93.457031 -98.824219 88.582031 -96.894531 82.714844 -92.917969 C 76.425781 -88.664062 69.648438 -83.097656 62.375 -76.222656 C 50.699219 -65.605469 39.214844 -53.523438 27.921875 -39.976562 L 22.726562 -43.433594 L 57.28125 -109.726562 C 62.046875 -118.851562 66.625 -126.332031 71.015625 -132.160156 C 75.488281 -138.101562 80.195312 -142.871094 85.132812 -146.46875 C 90.042969 -150.042969 95.570312 -153.019531 101.71875 -155.398438 L 102.675781 -155.765625 L 103.664062 -155.5 C 112.625 -153.09375 119.847656 -151.1875 125.324219 -149.785156 C 130.558594 -148.445312 134.921875 -147.773438 138.40625 -147.773438 C 141 -147.773438 143.277344 -148.410156 145.238281 -149.679688 C 147.359375 -151.054688 149.003906 -152.605469 150.171875 -154.328125 C 151.21875 -155.875 151.742188 -156.996094 151.742188 -157.691406 C 151.742188 -157.546875 151.777344 -157.40625 151.851562 -157.273438 L 151.859375 -157.226562 C 151.449219 -157.527344 150.695312 -157.800781 149.59375 -158.039062 C 146.730469 -158.660156 142.667969 -158.972656 137.402344 -158.972656 C 127.308594 -158.972656 117.507812 -157.324219 107.996094 -154.023438 C 98.433594 -150.707031 89.421875 -146.050781 80.960938 -140.0625 C 72.460938 -134.050781 64.78125 -127.085938 57.914062 -119.175781 C 51.035156 -111.25 45.175781 -102.773438 40.335938 -93.746094 L 11.625 -39.738281 C 8.019531 -32.773438 6.457031 -26.34375 6.945312 -20.445312 C 7.414062 -14.773438 9.515625 -10.238281 13.257812 -6.84375 C 17.011719 -3.4375 22.234375 -1.734375 28.925781 -1.734375 Z M 23.984375 -31.816406 C 23.035156 -26.226562 23.429688 -21.804688 25.167969 -18.554688 C 26.921875 -15.273438 29.296875 -12.910156 32.296875 -11.464844 C 35.484375 -9.933594 38.578125 -9.164062 41.582031 -9.164062 C 47.011719 -9.164062 52.121094 -10.648438 56.902344 -13.617188 C 61.875 -16.699219 66.351562 -20.804688 70.339844 -25.933594 C 74.417969 -31.175781 77.949219 -36.941406 80.929688 -43.230469 C 83.921875 -49.535156 86.195312 -55.832031 87.75 -62.125 C 89.296875 -68.371094 90.070312 -73.976562 90.070312 -78.945312 C 90.070312 -82.855469 89.613281 -85.484375 88.703125 -86.824219 C 88.054688 -87.785156 87.144531 -88.261719 85.976562 -88.261719 C 84.152344 -88.261719 81.351562 -87.109375 77.566406 -84.804688 C 73.457031 -82.300781 68.933594 -78.773438 63.996094 -74.226562 C 57.625 -68.519531 50.859375 -61.75 43.695312 -53.925781 C 36.507812 -46.070312 29.714844 -38.214844 23.328125 -30.359375 L 20.890625 -32.34375 Z M 17.796875 -32.867188 L 17.9375 -33.683594 L 18.457031 -34.324219 C 24.921875 -42.269531 31.792969 -50.21875 39.066406 -58.164062 C 46.367188 -66.144531 53.261719 -73.035156 59.746094 -78.84375 C 64.984375 -83.671875 69.835938 -87.445312 74.300781 -90.164062 C 79.085938 -93.082031 82.980469 -94.539062 85.976562 -94.539062 C 89.363281 -94.539062 92.003906 -93.144531 93.898438 -90.351562 C 95.53125 -87.945312 96.347656 -84.140625 96.347656 -78.945312 C 96.347656 -73.46875 95.511719 -67.359375 93.84375 -60.617188 C 92.1875 -53.917969 89.773438 -47.222656 86.601562 -40.539062 C 83.425781 -33.835938 79.65625 -27.683594 75.296875 -22.078125 C 70.847656 -16.359375 65.820312 -11.757812 60.210938 -8.28125 C 54.414062 -4.683594 48.203125 -2.886719 41.582031 -2.886719 C 37.621094 -2.886719 33.621094 -3.863281 29.574219 -5.808594 C 25.34375 -7.847656 22.027344 -11.109375 19.628906 -15.59375 C 17.214844 -20.109375 16.605469 -25.867188 17.796875 -32.867188 Z M 17.796875 -32.867188 "/></g></g></g></g><g fill="#000000" fill-opacity="1"><g transform="translate(518.884222, 166.126942)"><g><path d="M -0.804688 3.140625 C -3.222656 3.140625 -4.878906 2.15625 -5.769531 0.195312 C -6.519531 -1.453125 -6.402344 -3.257812 -5.417969 -5.21875 L -5.367188 -5.320312 L -5.308594 -5.417969 C -2.78125 -9.679688 0.183594 -14.875 3.582031 -21.007812 L 14.222656 -40.382812 C 17.878906 -47.09375 21.234375 -53.609375 24.292969 -59.925781 C 27.339844 -66.21875 29.820312 -71.773438 31.734375 -76.589844 C 33.527344 -81.105469 34.425781 -84.234375 34.425781 -85.976562 C 34.425781 -86.851562 34.296875 -87.417969 34.039062 -87.675781 C 33.78125 -87.933594 33.214844 -88.0625 32.34375 -88.0625 C 30.746094 -88.0625 28.582031 -87.292969 25.84375 -85.753906 C 22.839844 -84.0625 19.148438 -81.21875 14.769531 -77.230469 L 12.296875 -74.972656 L 6.757812 -81.898438 L 8.9375 -83.878906 C 16.457031 -90.71875 23.21875 -95.929688 29.226562 -99.519531 C 35.546875 -103.296875 40.667969 -105.1875 44.59375 -105.1875 C 49.636719 -105.1875 53.199219 -103.523438 55.289062 -100.203125 C 57.082031 -97.347656 57.980469 -94.480469 57.980469 -91.601562 C 57.980469 -88.835938 57.117188 -84.980469 55.394531 -80.023438 C 53.757812 -75.3125 51.578125 -69.96875 48.859375 -63.988281 L 46 -65.285156 L 43.398438 -67.039062 C 48.1875 -74.15625 53.289062 -80.523438 58.707031 -86.144531 C 64.234375 -91.882812 70.296875 -96.46875 76.894531 -99.910156 C 83.640625 -103.425781 91.023438 -105.1875 99.035156 -105.1875 C 101.671875 -105.1875 104.472656 -104.859375 107.441406 -104.210938 C 109.292969 -103.800781 110.753906 -103.167969 111.824219 -102.308594 C 113.292969 -101.128906 114.023438 -99.632812 114.023438 -97.828125 C 114.023438 -95.578125 113.140625 -93.152344 111.375 -90.542969 C 109.761719 -88.160156 107.730469 -86.089844 105.285156 -84.332031 C 102.59375 -82.398438 99.640625 -81.433594 96.421875 -81.433594 C 93.03125 -81.433594 89.277344 -81.78125 85.152344 -82.480469 C 81.070312 -83.171875 76.089844 -84.40625 70.203125 -86.1875 L 71.113281 -89.191406 L 72.808594 -86.550781 C 67.5 -83.136719 61.8125 -77.394531 55.742188 -69.324219 C 49.53125 -61.070312 43.585938 -51.847656 37.894531 -41.660156 L 35.152344 -43.1875 L 37.949219 -41.761719 C 34.855469 -35.710938 31.796875 -29.898438 28.773438 -24.316406 C 25.746094 -18.734375 23.019531 -13.851562 20.59375 -9.671875 C 18.160156 -5.480469 16.324219 -2.425781 15.09375 -0.511719 C 13.546875 1.921875 11.460938 3.140625 8.839844 3.140625 Z M -0.804688 -3.140625 L 8.839844 -3.140625 C 9.164062 -3.140625 9.488281 -3.394531 9.8125 -3.90625 C 10.992188 -5.742188 12.777344 -8.714844 15.164062 -12.824219 C 17.558594 -16.949219 20.257812 -21.777344 23.253906 -27.308594 C 26.253906 -32.84375 29.289062 -38.613281 32.359375 -44.617188 L 32.414062 -44.71875 C 38.242188 -55.15625 44.34375 -64.617188 50.726562 -73.097656 C 57.246094 -81.769531 63.472656 -88.011719 69.414062 -91.832031 L 70.632812 -92.613281 L 72.019531 -92.195312 C 77.652344 -90.492188 82.378906 -89.316406 86.199219 -88.671875 C 89.976562 -88.03125 93.386719 -87.710938 96.421875 -87.710938 C 98.292969 -87.710938 100.027344 -88.28125 101.621094 -89.429688 C 103.460938 -90.753906 104.980469 -92.296875 106.179688 -94.066406 C 107.222656 -95.609375 107.746094 -96.863281 107.746094 -97.828125 C 107.746094 -97.628906 107.792969 -97.492188 107.890625 -97.417969 C 107.585938 -97.660156 106.988281 -97.882812 106.09375 -98.078125 C 103.570312 -98.632812 101.21875 -98.910156 99.035156 -98.910156 C 92.046875 -98.910156 85.632812 -97.386719 79.792969 -94.34375 C 73.804688 -91.21875 68.28125 -87.035156 63.226562 -81.789062 C 58.066406 -76.429688 53.191406 -70.347656 48.605469 -63.535156 L 43.144531 -66.585938 C 45.78125 -72.390625 47.890625 -77.558594 49.464844 -82.085938 C 50.957031 -86.371094 51.703125 -89.542969 51.703125 -91.601562 C 51.703125 -93.273438 51.125 -95.027344 49.972656 -96.863281 C 49.117188 -98.226562 47.324219 -98.910156 44.59375 -98.910156 C 41.824219 -98.910156 37.773438 -97.316406 32.445312 -94.128906 C 26.800781 -90.753906 20.371094 -85.789062 13.160156 -79.234375 L 11.046875 -81.558594 L 13.5 -83.519531 L 15.105469 -81.507812 L 12.65625 -79.550781 L 10.539062 -81.867188 C 15.269531 -86.179688 19.347656 -89.300781 22.769531 -91.222656 C 26.460938 -93.300781 29.652344 -94.339844 32.34375 -94.339844 C 34.949219 -94.339844 36.996094 -93.597656 38.480469 -92.113281 C 39.960938 -90.628906 40.703125 -88.585938 40.703125 -85.976562 C 40.703125 -83.433594 39.660156 -79.53125 37.570312 -74.273438 C 35.597656 -69.3125 33.058594 -63.617188 29.945312 -57.1875 C 26.84375 -50.78125 23.4375 -44.171875 19.726562 -37.359375 L 9.074219 -17.964844 C 5.644531 -11.777344 2.648438 -6.527344 0.0859375 -2.214844 L -2.613281 -3.816406 L 0.195312 -2.414062 C 0.09375 -2.210938 0.0390625 -2.070312 0.03125 -1.988281 C 0.0429688 -2.109375 0.015625 -2.246094 -0.0546875 -2.402344 C -0.183594 -2.691406 -0.394531 -2.90625 -0.679688 -3.058594 C -0.761719 -3.101562 -0.835938 -3.128906 -0.898438 -3.140625 C -0.890625 -3.140625 -0.855469 -3.140625 -0.804688 -3.140625 Z M -0.804688 -3.140625 "/></g></g></g><g fill="#000000" fill-opacity="1"><g transform="translate(612.891371, 166.126942)"><g><path d="M 26.113281 4.546875 C 20 4.546875 14.941406 3.234375 10.9375 0.617188 C 6.953125 -1.988281 4 -5.367188 2.074219 -9.527344 C 0.207031 -13.5625 -0.726562 -17.753906 -0.726562 -22.097656 C -0.726562 -29.632812 1 -37.351562 4.457031 -45.25 C 7.847656 -53 12.375 -60.433594 18.035156 -67.542969 C 23.667969 -74.617188 29.953125 -80.972656 36.890625 -86.605469 C 43.863281 -92.265625 51.023438 -96.761719 58.367188 -100.085938 C 65.875 -103.484375 73.003906 -105.1875 79.75 -105.1875 C 85.722656 -105.1875 90.300781 -103.878906 93.492188 -101.261719 C 96.867188 -98.488281 98.558594 -94.867188 98.558594 -90.394531 C 98.558594 -86.585938 97.261719 -82.589844 94.671875 -78.402344 C 92.230469 -74.445312 88.109375 -69.953125 82.308594 -64.925781 C 76.660156 -60.023438 68.898438 -54.191406 59.023438 -47.429688 C 49.21875 -40.710938 36.800781 -32.589844 21.769531 -23.0625 L 20.089844 -25.710938 L 23.195312 -26.15625 C 23.765625 -22.160156 25.3125 -18.902344 27.832031 -16.382812 C 30.230469 -13.980469 33.878906 -12.78125 38.769531 -12.78125 C 41.890625 -12.78125 45.828125 -13.625 50.574219 -15.3125 C 55.28125 -16.984375 60.964844 -20.765625 67.625 -26.65625 L 69.972656 -28.730469 L 75.703125 -22.28125 L 73.441406 -20.195312 C 64.371094 -11.808594 55.644531 -5.609375 47.257812 -1.589844 C 38.726562 2.5 31.679688 4.546875 26.113281 4.546875 Z M 26.113281 -1.734375 C 30.726562 -1.734375 36.871094 -3.570312 44.542969 -7.25 C 52.363281 -10.996094 60.574219 -16.847656 69.183594 -24.804688 L 71.3125 -22.5 L 68.964844 -20.414062 L 67.359375 -22.222656 L 69.707031 -24.304688 L 71.785156 -21.957031 C 64.519531 -15.527344 58.148438 -11.339844 52.675781 -9.394531 C 47.25 -7.46875 42.613281 -6.503906 38.769531 -6.503906 C 32.144531 -6.503906 27.019531 -8.316406 23.394531 -11.941406 C 19.886719 -15.449219 17.75 -19.890625 16.980469 -25.269531 L 16.695312 -27.277344 L 18.40625 -28.363281 C 33.375 -37.851562 45.730469 -45.933594 55.476562 -52.609375 C 65.15625 -59.238281 72.726562 -64.921875 78.195312 -69.667969 C 83.511719 -74.277344 87.226562 -78.289062 89.332031 -81.703125 C 91.296875 -84.878906 92.28125 -87.777344 92.28125 -90.394531 C 92.28125 -92.886719 91.355469 -94.890625 89.511719 -96.40625 C 87.476562 -98.074219 84.222656 -98.910156 79.75 -98.910156 C 73.90625 -98.910156 67.644531 -97.394531 60.957031 -94.367188 C 54.105469 -91.265625 47.402344 -87.054688 40.847656 -81.730469 C 34.261719 -76.386719 28.292969 -70.351562 22.945312 -63.632812 C 17.625 -56.949219 13.378906 -49.984375 10.207031 -42.734375 C 7.101562 -35.636719 5.550781 -28.757812 5.550781 -22.097656 C 5.550781 -18.675781 6.289062 -15.363281 7.769531 -12.167969 C 9.191406 -9.09375 11.394531 -6.585938 14.375 -4.636719 C 17.332031 -2.699219 21.246094 -1.734375 26.113281 -1.734375 Z M 18.226562 -31.191406 C 32.339844 -39.976562 43.605469 -47.585938 52.03125 -54.019531 C 60.308594 -60.339844 66.300781 -65.964844 70.011719 -70.890625 C 73.472656 -75.488281 75.203125 -79.847656 75.203125 -83.96875 C 75.203125 -86.324219 74.484375 -88.09375 73.042969 -89.273438 C 71.410156 -90.609375 69.292969 -91.273438 66.691406 -91.273438 C 62.175781 -91.273438 57.789062 -90.015625 53.527344 -87.492188 C 49.078125 -84.863281 44.992188 -81.339844 41.269531 -76.921875 C 37.480469 -72.425781 34.199219 -67.410156 31.433594 -61.875 C 28.652344 -56.3125 26.519531 -50.660156 25.035156 -44.914062 C 23.570312 -39.238281 22.898438 -33.867188 23.023438 -28.804688 L 23.027344 -28.765625 L 23.027344 -28.523438 L 19.886719 -28.523438 Z M 16.75 -22.875 L 16.75 -28.726562 L 19.886719 -28.726562 L 16.75 -28.648438 C 16.609375 -34.296875 17.34375 -40.242188 18.957031 -46.484375 C 20.554688 -52.660156 22.839844 -58.726562 25.816406 -64.679688 C 28.808594 -70.664062 32.359375 -76.089844 36.46875 -80.96875 C 40.648438 -85.929688 45.269531 -89.902344 50.328125 -92.898438 C 55.578125 -96 61.03125 -97.554688 66.691406 -97.554688 C 70.789062 -97.554688 74.230469 -96.414062 77.015625 -94.132812 C 79.992188 -91.695312 81.484375 -88.308594 81.484375 -83.96875 C 81.484375 -78.445312 79.328125 -72.828125 75.023438 -67.113281 C 70.96875 -61.730469 64.574219 -55.699219 55.839844 -49.03125 C 47.257812 -42.476562 35.828125 -34.753906 21.546875 -25.859375 Z M 16.75 -22.875 "/></g></g></g><g fill="#000000" fill-opacity="1"><g transform="translate(11.084618, 166.126942)"><g><path d="M 29.9375 3.21875 C 22.300781 3.21875 15.738281 1.742188 10.25 -1.203125 C 4.757812 -4.148438 0.578125 -8.164062 -2.296875 -13.25 C -5.179688 -18.34375 -6.625 -23.96875 -6.625 -30.125 C -6.625 -37.894531 -4.613281 -45.328125 -0.59375 -52.421875 C 3.414062 -59.523438 8.832031 -65.851562 15.65625 -71.40625 C 22.488281 -76.96875 30.191406 -81.351562 38.765625 -84.5625 C 47.335938 -87.78125 56.109375 -89.390625 65.078125 -89.390625 C 72.441406 -89.390625 79.738281 -88.316406 86.96875 -86.171875 C 94.207031 -84.035156 101.34375 -81.492188 108.375 -78.546875 C 115.40625 -75.597656 122.332031 -72.914062 129.15625 -70.5 C 138.394531 -80.414062 147.132812 -90.328125 155.375 -100.234375 C 163.613281 -110.140625 170.945312 -119.273438 177.375 -127.640625 C 183.800781 -136.015625 188.890625 -142.75 192.640625 -147.84375 L 148.453125 -147.234375 C 143.085938 -147.109375 139.066406 -146.171875 136.390625 -144.421875 C 133.710938 -142.679688 130.832031 -140.140625 127.75 -136.796875 L 125.953125 -138 C 129.160156 -142.15625 132.132812 -145.875 134.875 -149.15625 C 137.625 -152.4375 140.40625 -155.28125 143.21875 -157.6875 C 144.695312 -158.757812 146.335938 -159.53125 148.140625 -160 C 149.953125 -160.46875 151.796875 -160.703125 153.671875 -160.703125 L 208.3125 -160.703125 C 210.582031 -160.703125 211.453125 -159.492188 210.921875 -157.078125 C 205.691406 -133.378906 201.203125 -112.019531 197.453125 -93 C 193.703125 -73.988281 190.859375 -58.320312 188.921875 -46 C 186.984375 -33.675781 186.015625 -25.707031 186.015625 -22.09375 C 186.015625 -17.269531 186.914062 -14.085938 188.71875 -12.546875 C 190.53125 -11.015625 192.503906 -10.25 194.640625 -10.25 C 196.921875 -10.25 199.46875 -11.050781 202.28125 -12.65625 C 205.09375 -14.257812 208.578125 -17.003906 212.734375 -20.890625 L 214.328125 -19.078125 C 207.234375 -12.253906 201.039062 -7.097656 195.75 -3.609375 C 190.457031 -0.128906 185.671875 1.609375 181.390625 1.609375 C 178.171875 1.609375 175.289062 0.132812 172.75 -2.8125 C 170.207031 -5.757812 169.070312 -10.582031 169.34375 -17.28125 C 169.601562 -21.96875 170.367188 -28.726562 171.640625 -37.5625 C 172.921875 -46.40625 174.765625 -57.050781 177.171875 -69.5 C 172.890625 -66.019531 167.9375 -63.003906 162.3125 -60.453125 C 156.6875 -57.910156 150.457031 -56.640625 143.625 -56.640625 C 140.007812 -56.640625 136.492188 -56.875 133.078125 -57.34375 C 129.660156 -57.8125 126.28125 -58.382812 122.9375 -59.0625 C 115.164062 -50.882812 107.265625 -43.046875 99.234375 -35.546875 C 91.203125 -28.054688 83.234375 -21.394531 75.328125 -15.5625 C 67.421875 -9.738281 59.648438 -5.148438 52.015625 -1.796875 C 44.390625 1.546875 37.03125 3.21875 29.9375 3.21875 Z M 6.625 -38.171875 C 6.625 -31.335938 8.0625 -25.472656 10.9375 -20.578125 C 13.820312 -15.691406 17.675781 -11.941406 22.5 -9.328125 C 27.320312 -6.722656 32.609375 -5.421875 38.359375 -5.421875 C 46.796875 -5.554688 55.429688 -8.097656 64.265625 -13.046875 C 73.109375 -18.003906 82.148438 -24.601562 91.390625 -32.84375 C 100.640625 -41.082031 109.945312 -50.085938 119.3125 -59.859375 C 110.613281 -62.265625 102.445312 -65.242188 94.8125 -68.796875 C 87.175781 -72.347656 79.773438 -75.492188 72.609375 -78.234375 C 65.453125 -80.984375 58.125 -82.359375 50.625 -82.359375 C 41.78125 -82.359375 34.039062 -80.25 27.40625 -76.03125 C 20.78125 -71.8125 15.660156 -66.320312 12.046875 -59.5625 C 8.429688 -52.800781 6.625 -45.671875 6.625 -38.171875 Z M 132.578125 -69.296875 C 136.722656 -67.960938 140.804688 -66.859375 144.828125 -65.984375 C 148.847656 -65.117188 152.867188 -64.6875 156.890625 -64.6875 C 161.566406 -64.6875 165.644531 -65.554688 169.125 -67.296875 C 172.613281 -69.035156 175.5 -70.910156 177.78125 -72.921875 C 179.78125 -82.828125 182.050781 -93.671875 184.59375 -105.453125 C 187.144531 -117.242188 189.960938 -129.832031 193.046875 -143.21875 C 189.160156 -137.863281 184.132812 -131.203125 177.96875 -123.234375 C 171.8125 -115.265625 164.882812 -106.660156 157.1875 -97.421875 C 149.488281 -88.179688 141.285156 -78.804688 132.578125 -69.296875 Z M 132.578125 -69.296875 "/></g></g></g><g fill="#000000" fill-opacity="1"><g transform="translate(230.434754, 166.126942)"><g><path d="M 61.46875 0 C 60.394531 0 59.625 -0.332031 59.15625 -1 C 58.6875 -1.675781 58.722656 -2.546875 59.265625 -3.609375 C 64.484375 -13.253906 69.601562 -22.695312 74.625 -31.9375 C 79.644531 -41.175781 83.695312 -48.8125 86.78125 -54.84375 C 91.0625 -63.40625 94.273438 -70.195312 96.421875 -75.21875 C 98.566406 -80.25 99.640625 -83.898438 99.640625 -86.171875 C 99.640625 -87.648438 99.234375 -88.921875 98.421875 -89.984375 C 97.617188 -91.054688 96.28125 -91.59375 94.40625 -91.59375 C 90.925781 -91.59375 86.675781 -89.785156 81.65625 -86.171875 C 76.632812 -82.554688 70.910156 -77.738281 64.484375 -71.71875 C 57.648438 -65.289062 50.851562 -57.921875 44.09375 -49.609375 C 37.332031 -41.304688 31.003906 -32.738281 25.109375 -23.90625 C 19.210938 -13.320312 14.992188 -6.085938 12.453125 -2.203125 C 11.515625 -0.734375 10.3125 0 8.84375 0 L -0.796875 0 C -1.867188 0 -2.570312 -0.363281 -2.90625 -1.09375 C -3.25 -1.832031 -3.148438 -2.738281 -2.609375 -3.8125 C -0.0664062 -8.101562 2.910156 -13.328125 6.328125 -19.484375 C 9.742188 -25.640625 13.289062 -32.097656 16.96875 -38.859375 C 20.65625 -45.628906 24.035156 -52.191406 27.109375 -58.546875 C 30.191406 -64.910156 32.703125 -70.535156 34.640625 -75.421875 C 36.585938 -80.316406 37.5625 -83.832031 37.5625 -85.96875 C 37.5625 -89.457031 35.820312 -91.203125 32.34375 -91.203125 C 30.195312 -91.203125 27.515625 -90.296875 24.296875 -88.484375 C 21.085938 -86.679688 17.207031 -83.703125 12.65625 -79.546875 L 11.046875 -81.5625 C 18.410156 -88.25 25.003906 -93.332031 30.828125 -96.8125 C 36.660156 -100.300781 41.25 -102.046875 44.59375 -102.046875 C 48.476562 -102.046875 51.15625 -100.875 52.625 -98.53125 C 54.101562 -96.1875 54.84375 -93.875 54.84375 -91.59375 C 54.84375 -88.914062 53.835938 -84.863281 51.828125 -79.4375 C 49.816406 -74.019531 47.203125 -67.894531 43.984375 -61.0625 C 40.773438 -54.238281 37.363281 -47.34375 33.75 -40.375 C 43.257812 -52.832031 52.96875 -63.945312 62.875 -73.71875 C 71.84375 -82.425781 80.242188 -89.320312 88.078125 -94.40625 C 95.910156 -99.5 102.238281 -102.046875 107.0625 -102.046875 C 110.550781 -102.046875 113.097656 -100.875 114.703125 -98.53125 C 116.304688 -96.1875 117.109375 -93.675781 117.109375 -91 C 117.109375 -89.257812 116.738281 -87.046875 116 -84.359375 C 115.269531 -81.679688 113.796875 -77.898438 111.578125 -73.015625 C 109.367188 -68.128906 106.054688 -61.332031 101.640625 -52.625 C 100.703125 -50.882812 99.726562 -49.039062 98.71875 -47.09375 C 97.71875 -45.15625 96.617188 -43.117188 95.421875 -40.984375 C 104.253906 -52.492188 113.125 -62.867188 122.03125 -72.109375 C 130.9375 -81.347656 139.269531 -88.644531 147.03125 -94 C 154.800781 -99.363281 161.300781 -102.046875 166.53125 -102.046875 C 169.875 -102.046875 172.378906 -100.875 174.046875 -98.53125 C 175.722656 -96.1875 176.5625 -93.675781 176.5625 -91 C 176.5625 -87.25 175.359375 -82.691406 172.953125 -77.328125 C 170.546875 -71.972656 167.566406 -66.28125 164.015625 -60.25 C 160.460938 -54.226562 156.945312 -48.269531 153.46875 -42.375 C 149.988281 -36.488281 147.039062 -31.132812 144.625 -26.3125 C 142.21875 -21.488281 141.015625 -17.671875 141.015625 -14.859375 C 141.015625 -11.242188 142.957031 -9.4375 146.84375 -9.4375 C 150.988281 -9.4375 157.144531 -13.253906 165.3125 -20.890625 L 166.921875 -18.875 C 159.554688 -12.1875 153.09375 -7.097656 147.53125 -3.609375 C 141.976562 -0.128906 137.664062 1.609375 134.59375 1.609375 C 130.300781 1.609375 127.351562 0.269531 125.75 -2.40625 C 124.144531 -5.082031 123.34375 -7.628906 123.34375 -10.046875 C 123.34375 -14.191406 124.546875 -19.007812 126.953125 -24.5 C 129.359375 -30 132.335938 -35.726562 135.890625 -41.6875 C 139.441406 -47.644531 143.023438 -53.46875 146.640625 -59.15625 C 150.253906 -64.84375 153.234375 -70.0625 155.578125 -74.8125 C 157.921875 -79.570312 159.09375 -83.359375 159.09375 -86.171875 C 159.09375 -89.785156 157.351562 -91.59375 153.875 -91.59375 C 150.65625 -91.59375 146.429688 -89.6875 141.203125 -85.875 C 135.984375 -82.0625 130.226562 -76.9375 123.9375 -70.5 C 117.644531 -64.070312 111.25 -56.84375 104.75 -48.8125 C 98.257812 -40.78125 92.066406 -32.546875 86.171875 -24.109375 C 84.429688 -20.890625 82.625 -17.472656 80.75 -13.859375 C 78.875 -10.242188 76.929688 -6.359375 74.921875 -2.203125 C 74.253906 -0.734375 73.050781 0 71.3125 0 Z M 61.46875 0 "/></g></g></g><g fill="#000000" fill-opacity="1"><g transform="translate(408.40567, 166.126942)"><g><path d="M 28.921875 1.40625 C 21.421875 1.40625 15.492188 -0.566406 11.140625 -4.515625 C 6.796875 -8.472656 4.351562 -13.695312 3.8125 -20.1875 C 3.28125 -26.6875 4.957031 -33.679688 8.84375 -41.171875 L 37.5625 -95.21875 C 42.519531 -104.457031 48.515625 -113.125 55.546875 -121.21875 C 62.578125 -129.320312 70.441406 -136.453125 79.140625 -142.609375 C 87.847656 -148.773438 97.125 -153.566406 106.96875 -156.984375 C 116.8125 -160.398438 126.957031 -162.109375 137.40625 -162.109375 C 142.894531 -162.109375 147.175781 -161.769531 150.25 -161.09375 C 153.332031 -160.425781 154.875 -159.289062 154.875 -157.6875 C 154.875 -156.34375 154.171875 -154.632812 152.765625 -152.5625 C 151.359375 -150.488281 149.414062 -148.644531 146.9375 -147.03125 C 144.457031 -145.425781 141.613281 -144.625 138.40625 -144.625 C 134.65625 -144.625 130.035156 -145.328125 124.546875 -146.734375 C 119.054688 -148.140625 111.820312 -150.050781 102.84375 -152.46875 C 96.957031 -150.1875 91.671875 -147.335938 86.984375 -143.921875 C 82.296875 -140.503906 77.804688 -135.953125 73.515625 -130.265625 C 69.234375 -124.578125 64.75 -117.242188 60.0625 -108.265625 L 25.515625 -41.984375 C 36.890625 -55.640625 48.472656 -67.828125 60.265625 -78.546875 C 67.628906 -85.503906 74.523438 -91.160156 80.953125 -95.515625 C 87.378906 -99.867188 92.867188 -101.976562 97.421875 -101.84375 C 101.304688 -101.84375 104.285156 -100.203125 106.359375 -96.921875 C 108.441406 -93.640625 109.484375 -89.988281 109.484375 -85.96875 C 109.484375 -78.34375 107.875 -70.476562 104.65625 -62.375 C 101.4375 -54.269531 97.113281 -46.398438 91.6875 -38.765625 C 86.269531 -31.128906 80.078125 -24.296875 73.109375 -18.265625 C 66.148438 -12.242188 58.882812 -7.457031 51.3125 -3.90625 C 43.75 -0.363281 36.285156 1.40625 28.921875 1.40625 Z M 20.890625 -32.34375 C 19.816406 -26.050781 20.316406 -20.960938 22.390625 -17.078125 C 24.472656 -13.191406 27.320312 -10.378906 30.9375 -8.640625 C 34.550781 -6.898438 38.097656 -6.03125 41.578125 -6.03125 C 47.609375 -6.03125 53.265625 -7.671875 58.546875 -10.953125 C 63.835938 -14.234375 68.59375 -18.582031 72.8125 -24 C 77.03125 -29.425781 80.679688 -35.382812 83.765625 -41.875 C 86.847656 -48.375 89.191406 -54.867188 90.796875 -61.359375 C 92.398438 -67.859375 93.203125 -73.71875 93.203125 -78.9375 C 93.203125 -83.5 92.566406 -86.710938 91.296875 -88.578125 C 90.023438 -90.453125 88.25 -91.390625 85.96875 -91.390625 C 83.5625 -91.390625 80.210938 -90.082031 75.921875 -87.46875 C 71.640625 -84.863281 66.957031 -81.21875 61.875 -76.53125 C 55.445312 -70.769531 48.613281 -63.9375 41.375 -56.03125 C 34.144531 -48.132812 27.316406 -40.238281 20.890625 -32.34375 Z M 20.890625 -32.34375 "/></g></g></g><g fill="#000000" fill-opacity="1"><g transform="translate(518.884222, 166.126942)"><g><path d="M -0.796875 0 C -1.867188 0 -2.570312 -0.363281 -2.90625 -1.09375 C -3.25 -1.832031 -3.148438 -2.738281 -2.609375 -3.8125 C -0.0664062 -8.101562 2.910156 -13.328125 6.328125 -19.484375 C 9.742188 -25.640625 13.289062 -32.097656 16.96875 -38.859375 C 20.65625 -45.628906 24.035156 -52.191406 27.109375 -58.546875 C 30.191406 -64.910156 32.703125 -70.535156 34.640625 -75.421875 C 36.585938 -80.316406 37.5625 -83.832031 37.5625 -85.96875 C 37.5625 -89.457031 35.820312 -91.203125 32.34375 -91.203125 C 30.195312 -91.203125 27.515625 -90.296875 24.296875 -88.484375 C 21.085938 -86.679688 17.207031 -83.703125 12.65625 -79.546875 L 11.046875 -81.5625 C 18.410156 -88.25 25.003906 -93.332031 30.828125 -96.8125 C 36.660156 -100.300781 41.25 -102.046875 44.59375 -102.046875 C 48.476562 -102.046875 51.15625 -100.875 52.625 -98.53125 C 54.101562 -96.1875 54.84375 -93.875 54.84375 -91.59375 C 54.84375 -89.1875 54.035156 -85.671875 52.421875 -81.046875 C 50.816406 -76.429688 48.675781 -71.175781 46 -65.28125 C 50.6875 -72.25 55.675781 -78.476562 60.96875 -83.96875 C 66.257812 -89.457031 72.050781 -93.84375 78.34375 -97.125 C 84.632812 -100.40625 91.53125 -102.046875 99.03125 -102.046875 C 101.4375 -102.046875 104.015625 -101.742188 106.765625 -101.140625 C 109.515625 -100.535156 110.890625 -99.429688 110.890625 -97.828125 C 110.890625 -96.222656 110.1875 -94.378906 108.78125 -92.296875 C 107.375 -90.222656 105.597656 -88.414062 103.453125 -86.875 C 101.304688 -85.332031 98.960938 -84.5625 96.421875 -84.5625 C 93.203125 -84.5625 89.617188 -84.894531 85.671875 -85.5625 C 81.722656 -86.238281 76.867188 -87.445312 71.109375 -89.1875 C 65.484375 -85.570312 59.523438 -79.578125 53.234375 -71.203125 C 46.941406 -62.835938 40.914062 -53.5 35.15625 -43.1875 C 32.070312 -37.164062 29.023438 -31.375 26.015625 -25.8125 C 23.003906 -20.25 20.289062 -15.390625 17.875 -11.234375 C 15.46875 -7.085938 13.660156 -4.078125 12.453125 -2.203125 C 11.515625 -0.734375 10.3125 0 8.84375 0 Z M -0.796875 0 "/></g></g></g><g fill="#000000" fill-opacity="1"><g transform="translate(612.891371, 166.126942)"><g><path d="M 26.109375 1.40625 C 20.617188 1.40625 16.132812 0.269531 12.65625 -2 C 9.175781 -4.28125 6.597656 -7.226562 4.921875 -10.84375 C 3.242188 -14.457031 2.40625 -18.207031 2.40625 -22.09375 C 2.40625 -29.195312 4.046875 -36.492188 7.328125 -43.984375 C 10.609375 -51.484375 14.992188 -58.679688 20.484375 -65.578125 C 25.972656 -72.484375 32.097656 -78.679688 38.859375 -84.171875 C 45.628906 -89.660156 52.5625 -94.007812 59.65625 -97.21875 C 66.757812 -100.4375 73.457031 -102.046875 79.75 -102.046875 C 84.96875 -102.046875 88.882812 -100.972656 91.5 -98.828125 C 94.113281 -96.679688 95.421875 -93.867188 95.421875 -90.390625 C 95.421875 -87.179688 94.28125 -83.734375 92 -80.046875 C 89.71875 -76.367188 85.796875 -72.117188 80.234375 -67.296875 C 74.679688 -62.472656 67.015625 -56.710938 57.234375 -50.015625 C 47.460938 -43.316406 35.082031 -35.21875 20.09375 -25.71875 C 20.757812 -21.03125 22.597656 -17.175781 25.609375 -14.15625 C 28.617188 -11.144531 33.003906 -9.640625 38.765625 -9.640625 C 42.242188 -9.640625 46.53125 -10.539062 51.625 -12.34375 C 56.71875 -14.15625 62.742188 -18.144531 69.703125 -24.3125 L 71.3125 -22.5 C 62.46875 -14.332031 53.992188 -8.304688 45.890625 -4.421875 C 37.796875 -0.535156 31.203125 1.40625 26.109375 1.40625 Z M 19.890625 -28.53125 C 34.078125 -37.363281 45.421875 -45.023438 53.921875 -51.515625 C 62.429688 -58.015625 68.628906 -63.84375 72.515625 -69 C 76.398438 -74.15625 78.34375 -79.144531 78.34375 -83.96875 C 78.34375 -87.3125 77.238281 -89.882812 75.03125 -91.6875 C 72.820312 -93.5 70.039062 -94.40625 66.6875 -94.40625 C 61.601562 -94.40625 56.679688 -93 51.921875 -90.1875 C 47.171875 -87.375 42.816406 -83.625 38.859375 -78.9375 C 34.910156 -74.25 31.5 -69.023438 28.625 -63.265625 C 25.75 -57.515625 23.539062 -51.660156 22 -45.703125 C 20.457031 -39.742188 19.753906 -34.082031 19.890625 -28.71875 Z M 19.890625 -28.53125 "/></g></g></g></g></g></svg>