<svg xmlns="http://www.w3.org/2000/svg" xmlns:xlink="http://www.w3.org/1999/xlink" width="1024" zoomAndPan="magnify" viewBox="0 0 768 299.999988" height="400" preserveAspectRatio="xMidYMid meet" version="1.0"><defs><g/></defs><path fill="#ffffff" d="M 233 73.925781 C 259.492188 100.414062 270 136.828125 264.539062 171.195312 C 268.546875 139.328125 258.316406 106.011719 233.847656 81.542969 C 191.789062 39.484375 123.601562 39.484375 81.542969 81.542969 C 39.484375 123.601562 39.484375 191.789062 81.542969 233.847656 C 106.011719 258.316406 139.328125 268.546875 171.195312 264.539062 C 136.828125 270 100.414062 259.492188 73.925781 233 C 30 189.074219 30 117.855469 73.925781 73.925781 C 117.855469 30 189.074219 30 233 73.925781 Z M 233 73.925781 " fill-opacity="1" fill-rule="evenodd"/><path fill="#fab204" d="M 220.734375 95.644531 C 255.277344 130.1875 255.277344 186.191406 220.734375 220.734375 C 186.191406 255.277344 130.1875 255.277344 95.644531 220.734375 C 78.953125 204.042969 70.328125 182.34375 69.769531 160.472656 C 70.855469 180.746094 79.140625 200.703125 94.625 216.1875 C 127.9375 249.5 181.945312 249.5 215.257812 216.1875 C 248.570312 182.875 248.570312 128.863281 215.257812 95.550781 C 192.613281 72.90625 160.410156 65.664062 131.636719 73.804688 C 162.0625 64.257812 196.625 71.535156 220.734375 95.644531 Z M 220.734375 95.644531 " fill-opacity="1" fill-rule="evenodd"/><path fill="#fab204" d="M 185.851562 121.765625 C 185.0625 122.585938 183.746094 122.613281 182.925781 121.824219 L 166.019531 105.570312 L 158.707031 98.542969 C 157.414062 97.300781 155.53125 99.261719 156.824219 100.503906 L 164.132812 107.53125 L 181.039062 123.785156 C 181.859375 124.574219 181.886719 125.890625 181.097656 126.707031 C 180.308594 127.527344 178.996094 127.554688 178.175781 126.765625 L 161.265625 110.511719 L 153.957031 103.484375 C 152.734375 102.308594 151.0625 103.890625 151.855469 105.179688 L 177.511719 134.179688 C 181.0625 138.183594 186.5625 139.265625 191.507812 137.851562 C 195.683594 137.410156 200.023438 138.738281 203.269531 141.855469 C 216.792969 155.316406 228.578125 167.910156 240.164062 180.667969 C 241.128906 177.132812 241.855469 173.546875 242.355469 169.9375 C 230.671875 160.0625 219.007812 149.890625 206.609375 138.382812 C 203.367188 135.257812 201.871094 130.976562 202.148438 126.785156 C 203.363281 121.789062 202.066406 116.335938 197.925781 112.945312 L 167.9375 88.453125 C 166.617188 87.710938 165.101562 89.441406 166.324219 90.617188 L 173.636719 97.644531 L 190.542969 113.898438 C 191.363281 114.6875 191.390625 116.003906 190.601562 116.824219 C 189.8125 117.644531 188.496094 117.667969 187.675781 116.878906 L 170.769531 100.625 L 163.460938 93.597656 C 162.167969 92.355469 160.28125 94.316406 161.574219 95.558594 L 168.882812 102.585938 L 185.792969 118.84375 C 186.613281 119.628906 186.636719 120.945312 185.851562 121.765625 Z M 185.851562 121.765625 " fill-opacity="1" fill-rule="evenodd"/><path fill="#fab204" d="M 226.28125 209.128906 C 208.710938 194.609375 192.046875 180.585938 173.746094 163.597656 C 168.050781 158.117188 169.519531 148.546875 167.597656 140.042969 C 164.097656 124.539062 135.699219 108.980469 124.980469 120 C 114.390625 131.144531 131.058594 158.90625 146.6875 161.796875 C 155.261719 163.378906 164.765625 161.535156 170.46875 167.007812 C 188.332031 184.796875 203.109375 201.03125 218.46875 218.199219 C 221.320312 215.320312 223.925781 212.289062 226.28125 209.128906 Z M 226.28125 209.128906 " fill-opacity="1" fill-rule="evenodd"/><path fill="#fab204" d="M 193.855469 235.53125 C 189.238281 231.402344 184.523438 227.101562 179.339844 222.292969 C 171.296875 214.835938 177.28125 208.140625 169.753906 197.152344 C 164.964844 190.160156 113.300781 156.449219 107.980469 158.449219 C 106.808594 158.890625 105.3125 160.28125 107.667969 162.859375 C 127.472656 182.457031 159.195312 212.203125 185.449219 238.902344 C 188.296875 237.929688 191.105469 236.8125 193.855469 235.53125 Z M 193.855469 235.53125 " fill-opacity="1" fill-rule="evenodd"/><g fill="#fab204" fill-opacity="1"><g transform="translate(281.027336, 183.374985)"><g><path d="M 19.347656 4.105469 C 14.074219 4.105469 9.511719 3.074219 5.664062 1.007812 C 1.769531 -1.082031 -1.207031 -3.941406 -3.257812 -7.570312 C -5.296875 -11.171875 -6.316406 -15.140625 -6.316406 -19.480469 C -6.316406 -24.855469 -4.929688 -29.996094 -2.15625 -34.894531 C 0.566406 -39.703125 4.234375 -43.984375 8.847656 -47.738281 C 13.433594 -51.472656 18.601562 -54.417969 24.351562 -56.570312 C 30.121094 -58.734375 36.03125 -59.816406 42.074219 -59.816406 C 47.035156 -59.816406 51.945312 -59.097656 56.808594 -57.65625 C 61.550781 -56.25 66.230469 -54.582031 70.84375 -52.648438 C 75.355469 -50.757812 79.796875 -49.039062 84.175781 -47.496094 L 83.5 -45.582031 L 82.015625 -46.964844 C 87.964844 -53.34375 93.589844 -59.722656 98.886719 -66.097656 C 104.195312 -72.484375 108.917969 -78.375 113.058594 -83.761719 C 117.207031 -89.164062 120.488281 -93.503906 122.90625 -96.78125 L 124.539062 -95.578125 L 124.566406 -93.550781 L 95.996094 -93.160156 C 92.929688 -93.082031 90.691406 -92.585938 89.28125 -91.667969 C 87.695312 -90.636719 85.960938 -89.101562 84.085938 -87.0625 L 82.910156 -85.785156 L 78.484375 -88.734375 L 79.820312 -90.457031 C 81.914062 -93.160156 83.855469 -95.585938 85.644531 -97.726562 C 87.492188 -99.933594 89.367188 -101.851562 91.269531 -103.484375 L 91.332031 -103.535156 L 91.398438 -103.582031 C 92.558594 -104.425781 93.847656 -105.03125 95.265625 -105.398438 C 96.601562 -105.746094 97.960938 -105.917969 99.34375 -105.917969 L 134.667969 -105.917969 C 136.09375 -105.917969 137.152344 -105.445312 137.839844 -104.492188 C 138.476562 -103.613281 138.640625 -102.484375 138.335938 -101.113281 C 134.964844 -85.804688 132.066406 -72.011719 129.644531 -59.734375 C 127.226562 -47.464844 125.390625 -37.363281 124.140625 -29.421875 C 122.902344 -21.5625 122.28125 -16.515625 122.28125 -14.285156 C 122.28125 -11.792969 122.628906 -10.25 123.320312 -9.660156 C 124.109375 -8.988281 124.949219 -8.652344 125.835938 -8.652344 C 126.949219 -8.652344 128.257812 -9.082031 129.765625 -9.941406 C 131.445312 -10.902344 133.570312 -12.585938 136.136719 -14.988281 L 137.65625 -16.410156 L 141.375 -12.226562 L 139.96875 -10.875 C 135.292969 -6.371094 131.191406 -2.960938 127.667969 -0.644531 C 123.910156 1.832031 120.441406 3.066406 117.265625 3.066406 C 114.570312 3.066406 112.195312 1.882812 110.144531 -0.492188 C 108.152344 -2.800781 107.253906 -6.386719 107.445312 -11.25 C 107.625 -14.359375 108.128906 -18.800781 108.960938 -24.574219 C 109.785156 -30.320312 110.980469 -37.234375 112.546875 -45.316406 L 114.539062 -44.933594 L 115.816406 -43.359375 C 112.910156 -40.996094 109.5625 -38.957031 105.765625 -37.238281 C 101.863281 -35.476562 97.558594 -34.59375 92.851562 -34.59375 C 90.421875 -34.59375 88.058594 -34.75 85.757812 -35.066406 C 83.507812 -35.375 81.28125 -35.75 79.078125 -36.191406 L 79.476562 -38.179688 L 80.945312 -36.78125 C 75.898438 -31.472656 70.761719 -26.378906 65.535156 -21.503906 C 60.285156 -16.601562 55.074219 -12.242188 49.902344 -8.429688 C 44.671875 -4.574219 39.523438 -1.535156 34.449219 0.691406 C 29.253906 2.96875 24.222656 4.105469 19.347656 4.105469 Z M 19.347656 0.046875 C 23.65625 0.046875 28.144531 -0.976562 32.820312 -3.027344 C 37.617188 -5.128906 42.507812 -8.019531 47.496094 -11.699219 C 52.539062 -15.417969 57.628906 -19.675781 62.765625 -24.46875 C 67.933594 -29.289062 73.011719 -34.324219 78.003906 -39.578125 L 78.777344 -40.390625 L 79.875 -40.167969 C 81.996094 -39.746094 84.144531 -39.382812 86.308594 -39.085938 C 88.425781 -38.796875 90.605469 -38.648438 92.851562 -38.648438 C 96.976562 -38.648438 100.722656 -39.414062 104.09375 -40.9375 C 107.570312 -42.511719 110.625 -44.367188 113.257812 -46.507812 L 117.589844 -50.027344 L 116.53125 -44.546875 C 114.980469 -36.527344 113.792969 -29.675781 112.976562 -23.996094 C 112.160156 -18.339844 111.671875 -14.035156 111.5 -11.085938 C 111.351562 -7.292969 111.921875 -4.644531 113.21875 -3.144531 C 114.457031 -1.707031 115.808594 -0.992188 117.265625 -0.992188 C 119.632812 -0.992188 122.355469 -2.003906 125.433594 -4.03125 C 128.75 -6.214844 132.65625 -9.46875 137.15625 -13.800781 L 138.5625 -12.335938 L 137.046875 -10.988281 L 136.007812 -12.15625 L 137.523438 -13.503906 L 138.910156 -12.023438 C 136.109375 -9.40625 133.734375 -7.535156 131.777344 -6.417969 C 129.648438 -5.203125 127.667969 -4.59375 125.835938 -4.59375 C 123.953125 -4.59375 122.238281 -5.253906 120.691406 -6.570312 C 119.046875 -7.972656 118.222656 -10.542969 118.222656 -14.285156 C 118.222656 -16.726562 118.859375 -21.984375 120.132812 -30.054688 C 121.390625 -38.042969 123.234375 -48.199219 125.664062 -60.519531 C 128.089844 -72.828125 130.996094 -86.652344 134.375 -101.992188 C 134.414062 -102.175781 134.433594 -102.308594 134.425781 -102.386719 C 134.429688 -102.3125 134.472656 -102.222656 134.546875 -102.117188 C 134.644531 -101.984375 134.753906 -101.894531 134.875 -101.847656 C 134.855469 -101.855469 134.785156 -101.859375 134.667969 -101.859375 L 99.34375 -101.859375 C 98.304688 -101.859375 97.285156 -101.730469 96.28125 -101.472656 C 95.363281 -101.234375 94.53125 -100.84375 93.785156 -100.300781 L 92.59375 -101.941406 L 93.914062 -100.402344 C 92.179688 -98.917969 90.460938 -97.15625 88.757812 -95.121094 C 87 -93.019531 85.089844 -90.636719 83.027344 -87.972656 L 81.421875 -89.214844 L 82.550781 -90.902344 L 83.71875 -90.125 L 82.59375 -88.4375 L 81.097656 -89.808594 C 83.207031 -92.101562 85.195312 -93.855469 87.070312 -95.074219 C 89.125 -96.40625 92.078125 -97.121094 95.941406 -97.21875 L 128.59375 -97.664062 L 126.171875 -94.375 C 123.738281 -91.074219 120.441406 -86.714844 116.277344 -81.292969 C 112.105469 -75.859375 107.351562 -69.929688 102.007812 -63.503906 C 96.660156 -57.066406 90.984375 -50.632812 84.984375 -44.199219 L 84.078125 -43.226562 L 82.828125 -43.667969 C 78.375 -45.238281 73.859375 -46.984375 69.277344 -48.90625 C 64.800781 -50.78125 60.257812 -52.402344 55.652344 -53.765625 C 51.167969 -55.09375 46.640625 -55.757812 42.074219 -55.757812 C 36.519531 -55.757812 31.085938 -54.765625 25.777344 -52.773438 C 20.441406 -50.773438 15.652344 -48.046875 11.410156 -44.59375 C 7.191406 -41.160156 3.847656 -37.261719 1.375 -32.894531 C -1.046875 -28.617188 -2.257812 -24.144531 -2.257812 -19.480469 C -2.257812 -15.851562 -1.414062 -12.550781 0.273438 -9.570312 C 1.941406 -6.621094 4.378906 -4.285156 7.582031 -2.566406 C 10.832031 -0.824219 14.753906 0.046875 19.347656 0.046875 Z M 6.316406 -24.675781 C 6.316406 -20.628906 7.152344 -17.183594 8.824219 -14.339844 C 10.496094 -11.503906 12.726562 -9.332031 15.511719 -7.824219 C 18.328125 -6.296875 21.425781 -5.535156 24.804688 -5.535156 C 29.894531 -5.617188 35.148438 -7.175781 40.5625 -10.210938 C 46.148438 -13.34375 51.875 -17.519531 57.738281 -22.746094 C 63.671875 -28.035156 69.648438 -33.820312 75.671875 -40.101562 L 77.136719 -38.699219 L 76.597656 -36.742188 C 70.863281 -38.332031 65.476562 -40.296875 60.441406 -42.636719 C 55.546875 -44.914062 50.808594 -46.929688 46.21875 -48.6875 C 41.820312 -50.371094 37.324219 -51.214844 32.726562 -51.214844 C 27.40625 -51.214844 22.769531 -49.957031 18.816406 -47.441406 C 14.828125 -44.90625 11.75 -41.605469 9.582031 -37.546875 C 7.402344 -33.472656 6.316406 -29.183594 6.316406 -24.675781 Z M 2.257812 -24.675781 C 2.257812 -29.859375 3.503906 -34.789062 6.003906 -39.460938 C 8.507812 -44.144531 12.050781 -47.945312 16.636719 -50.863281 C 21.253906 -53.804688 26.617188 -55.273438 32.726562 -55.273438 C 37.824219 -55.273438 42.804688 -54.339844 47.671875 -52.476562 C 52.347656 -50.683594 57.171875 -48.632812 62.152344 -46.316406 C 66.984375 -44.070312 72.160156 -42.183594 77.679688 -40.65625 L 80.953125 -39.746094 L 78.601562 -37.292969 C 72.507812 -30.9375 66.449219 -25.078125 60.4375 -19.71875 C 54.355469 -14.296875 48.390625 -9.945312 42.546875 -6.671875 C 36.535156 -3.300781 30.621094 -1.570312 24.804688 -1.476562 C 20.738281 -1.476562 16.996094 -2.402344 13.578125 -4.253906 C 10.132812 -6.121094 7.382812 -8.796875 5.328125 -12.28125 C 3.28125 -15.757812 2.257812 -19.890625 2.257812 -24.675781 Z M 86.332031 -46.734375 C 88.953125 -45.886719 91.527344 -45.191406 94.058594 -44.644531 C 96.515625 -44.109375 98.96875 -43.84375 101.421875 -43.84375 C 104.132812 -43.84375 106.472656 -44.335938 108.4375 -45.320312 C 110.53125 -46.367188 112.246094 -47.480469 113.585938 -48.660156 L 114.929688 -47.140625 L 112.941406 -47.542969 C 114.238281 -53.957031 115.714844 -60.980469 117.359375 -68.605469 C 119.007812 -76.234375 120.828125 -84.378906 122.820312 -93.046875 L 124.796875 -92.59375 L 126.441406 -91.402344 C 123.917969 -87.921875 120.660156 -83.597656 116.664062 -78.429688 C 112.664062 -73.257812 108.171875 -67.675781 103.175781 -61.683594 C 98.179688 -55.6875 92.855469 -49.601562 87.207031 -43.433594 L 85.710938 -44.800781 Z M 85.085938 -42.871094 L 82.078125 -43.839844 L 84.210938 -46.171875 C 89.820312 -52.296875 95.101562 -58.332031 100.058594 -64.28125 C 105.019531 -70.238281 109.484375 -75.78125 113.453125 -80.910156 C 117.421875 -86.046875 120.65625 -90.335938 123.15625 -93.78125 L 126.773438 -92.136719 C 124.785156 -83.488281 122.96875 -75.359375 121.328125 -67.75 C 119.683594 -60.140625 118.214844 -53.136719 116.917969 -46.738281 L 116.78125 -46.070312 L 116.269531 -45.617188 C 114.667969 -44.203125 112.660156 -42.894531 110.25 -41.6875 C 107.714844 -40.421875 104.773438 -39.785156 101.421875 -39.785156 C 98.679688 -39.785156 95.941406 -40.082031 93.203125 -40.675781 C 90.539062 -41.253906 87.832031 -41.984375 85.085938 -42.871094 Z M 85.085938 -42.871094 "/></g></g></g><g fill="#fab204" fill-opacity="1"><g transform="translate(422.82942, 183.374985)"><g><path d="M 39.738281 2.027344 C 38.339844 2.027344 37.289062 1.523438 36.582031 0.515625 C 35.816406 -0.578125 35.789062 -1.832031 36.496094 -3.246094 L 36.507812 -3.273438 L 46.460938 -21.617188 C 49.699219 -27.574219 52.308594 -32.496094 54.292969 -36.375 C 57.039062 -41.871094 59.097656 -46.222656 60.46875 -49.429688 C 61.746094 -52.421875 62.382812 -54.515625 62.382812 -55.710938 C 62.382812 -56.210938 62.257812 -56.628906 62.007812 -56.960938 C 61.894531 -57.113281 61.570312 -57.1875 61.035156 -57.1875 C 59.222656 -57.1875 56.867188 -56.148438 53.976562 -54.0625 C 50.800781 -51.777344 47.164062 -48.714844 43.074219 -44.878906 C 38.726562 -40.789062 34.394531 -36.09375 30.078125 -30.792969 C 25.746094 -25.476562 21.695312 -19.988281 17.921875 -14.328125 L 16.234375 -15.453125 L 18.003906 -14.464844 C 14.171875 -7.585938 11.421875 -2.867188 9.75 -0.316406 C 8.753906 1.246094 7.410156 2.027344 5.714844 2.027344 L -0.519531 2.027344 C -2.082031 2.027344 -3.152344 1.394531 -3.730469 0.125 C -4.214844 -0.9375 -4.136719 -2.105469 -3.503906 -3.375 L -3.46875 -3.441406 L -3.433594 -3.503906 C -1.796875 -6.257812 0.117188 -9.617188 2.316406 -13.582031 L 9.195312 -26.105469 C 11.558594 -30.445312 13.726562 -34.65625 15.707031 -38.738281 C 17.675781 -42.808594 19.277344 -46.398438 20.515625 -49.511719 C 21.675781 -52.433594 22.253906 -54.453125 22.253906 -55.582031 C 22.253906 -56.144531 22.171875 -56.511719 22.003906 -56.679688 C 21.839844 -56.84375 21.472656 -56.929688 20.90625 -56.929688 C 19.878906 -56.929688 18.476562 -56.429688 16.707031 -55.4375 C 14.765625 -54.34375 12.378906 -52.507812 9.546875 -49.925781 L 7.949219 -48.46875 L 4.367188 -52.945312 L 5.777344 -54.226562 C 10.640625 -58.644531 15.011719 -62.015625 18.894531 -64.335938 C 22.980469 -66.777344 26.292969 -68 28.828125 -68 C 32.085938 -68 34.390625 -66.925781 35.742188 -64.777344 C 36.902344 -62.933594 37.480469 -61.078125 37.480469 -59.21875 C 37.480469 -57.242188 36.789062 -54.390625 35.40625 -50.65625 C 34.089844 -47.09375 32.378906 -43.082031 30.277344 -38.613281 C 28.1875 -34.175781 25.96875 -29.691406 23.617188 -25.167969 L 21.816406 -26.101562 L 20.203125 -27.332031 C 26.410156 -35.460938 32.746094 -42.71875 39.222656 -49.105469 C 45.125 -54.832031 50.664062 -59.375 55.839844 -62.738281 C 61.238281 -66.246094 65.699219 -68 69.214844 -68 C 72.179688 -68 74.382812 -66.949219 75.824219 -64.84375 C 77.101562 -62.984375 77.738281 -60.976562 77.738281 -58.828125 C 77.738281 -57.519531 77.476562 -55.910156 76.953125 -54.003906 C 76.449219 -52.171875 75.460938 -49.625 73.988281 -46.371094 C 72.546875 -43.179688 70.390625 -38.761719 67.519531 -33.105469 L 67.507812 -33.082031 L 67.496094 -33.0625 C 66.894531 -31.945312 66.273438 -30.765625 65.628906 -29.519531 C 64.96875 -28.242188 64.242188 -26.902344 63.453125 -25.496094 L 61.683594 -26.492188 L 60.074219 -27.726562 C 65.835938 -35.234375 71.621094 -42 77.429688 -48.027344 C 83.28125 -54.101562 88.773438 -58.90625 93.90625 -62.445312 C 99.277344 -66.148438 103.859375 -68 107.65625 -68 C 110.515625 -68 112.691406 -66.957031 114.175781 -64.878906 C 115.511719 -63.007812 116.179688 -60.992188 116.179688 -58.828125 C 116.179688 -56.113281 115.339844 -52.890625 113.660156 -49.164062 C 112.074219 -45.632812 110.113281 -41.890625 107.78125 -37.929688 L 100.960938 -26.371094 C 98.734375 -22.601562 96.851562 -19.179688 95.316406 -16.105469 C 93.898438 -13.273438 93.191406 -11.109375 93.191406 -9.609375 C 93.191406 -9.03125 93.289062 -8.648438 93.488281 -8.464844 C 93.726562 -8.242188 94.207031 -8.132812 94.929688 -8.132812 C 95.886719 -8.132812 97.195312 -8.648438 98.859375 -9.679688 C 100.738281 -10.84375 102.949219 -12.613281 105.492188 -14.988281 L 107.09375 -16.484375 L 110.691406 -11.988281 L 109.28125 -10.707031 C 104.429688 -6.296875 100.15625 -2.933594 96.460938 -0.617188 C 92.539062 1.839844 89.386719 3.066406 87.007812 3.066406 C 83.472656 3.066406 80.988281 1.875 79.554688 -0.515625 C 78.324219 -2.566406 77.707031 -4.558594 77.707031 -6.492188 C 77.707031 -9.460938 78.542969 -12.847656 80.214844 -16.660156 C 81.808594 -20.285156 83.773438 -24.058594 86.109375 -27.984375 C 88.414062 -31.855469 90.738281 -35.636719 93.085938 -39.332031 C 95.386719 -42.949219 97.277344 -46.261719 98.757812 -49.269531 C 100.132812 -52.0625 100.820312 -54.207031 100.820312 -55.710938 C 100.820312 -56.335938 100.730469 -56.742188 100.546875 -56.933594 C 100.382812 -57.101562 100.023438 -57.1875 99.476562 -57.1875 C 97.839844 -57.1875 95.511719 -56.085938 92.492188 -53.878906 C 89.203125 -51.476562 85.566406 -48.238281 81.574219 -44.160156 C 77.550781 -40.050781 73.460938 -35.425781 69.300781 -30.28125 C 65.132812 -25.125 61.15625 -19.835938 57.375 -14.421875 L 55.710938 -15.582031 L 57.496094 -14.617188 C 56.375 -12.550781 55.210938 -10.351562 54.007812 -8.027344 C 52.800781 -5.707031 51.554688 -3.210938 50.265625 -0.542969 L 48.4375 -1.429688 L 50.285156 -0.589844 C 49.492188 1.15625 48.097656 2.027344 46.101562 2.027344 Z M 39.738281 -2.027344 L 46.101562 -2.027344 C 46.285156 -2.027344 46.40625 -2.050781 46.472656 -2.089844 C 46.507812 -2.109375 46.546875 -2.171875 46.589844 -2.269531 L 46.601562 -2.289062 L 46.613281 -2.3125 C 47.917969 -5.011719 49.183594 -7.539062 50.402344 -9.894531 C 51.621094 -12.242188 52.796875 -14.460938 53.925781 -16.550781 L 53.980469 -16.652344 L 54.046875 -16.746094 C 57.882812 -22.238281 61.917969 -27.601562 66.144531 -32.832031 C 70.382812 -38.078125 74.5625 -42.800781 78.675781 -47 C 82.824219 -51.238281 86.628906 -54.621094 90.097656 -57.15625 C 93.828125 -59.882812 96.957031 -61.246094 99.476562 -61.246094 C 101.175781 -61.246094 102.507812 -60.746094 103.46875 -59.75 C 104.410156 -58.769531 104.878906 -57.425781 104.878906 -55.710938 C 104.878906 -53.578125 104.054688 -50.832031 102.398438 -47.476562 C 100.851562 -44.335938 98.890625 -40.898438 96.511719 -37.15625 C 94.183594 -33.492188 91.878906 -29.742188 89.59375 -25.910156 C 87.34375 -22.128906 85.457031 -18.5 83.929688 -15.027344 C 82.488281 -11.738281 81.765625 -8.894531 81.765625 -6.492188 C 81.765625 -5.308594 82.1875 -4.011719 83.035156 -2.601562 C 83.679688 -1.527344 85.003906 -0.992188 87.007812 -0.992188 C 88.609375 -0.992188 91.042969 -2.011719 94.308594 -4.058594 C 97.796875 -6.242188 101.878906 -9.460938 106.550781 -13.707031 L 107.914062 -12.207031 L 106.332031 -10.941406 L 105.292969 -12.238281 L 106.875 -13.503906 L 108.261719 -12.023438 C 102.589844 -6.722656 98.148438 -4.074219 94.929688 -4.074219 C 93.140625 -4.074219 91.738281 -4.546875 90.722656 -5.496094 C 89.664062 -6.480469 89.132812 -7.851562 89.132812 -9.609375 C 89.132812 -11.746094 89.984375 -14.515625 91.6875 -17.917969 C 93.265625 -21.078125 95.191406 -24.582031 97.46875 -28.433594 L 104.285156 -39.988281 C 106.539062 -43.820312 108.433594 -47.433594 109.960938 -50.828125 C 111.402344 -54.027344 112.121094 -56.695312 112.121094 -58.828125 C 112.121094 -60.125 111.703125 -61.355469 110.875 -62.519531 C 110.195312 -63.464844 109.125 -63.941406 107.65625 -63.941406 C 104.699219 -63.941406 100.886719 -62.328125 96.210938 -59.105469 C 91.300781 -55.71875 86.015625 -51.089844 80.351562 -45.210938 C 74.648438 -39.292969 68.960938 -32.640625 63.292969 -25.257812 L 59.917969 -27.488281 C 60.683594 -28.851562 61.386719 -30.152344 62.023438 -31.386719 C 62.679688 -32.648438 63.3125 -33.851562 63.921875 -34.984375 L 65.710938 -34.023438 L 63.902344 -34.941406 C 66.746094 -40.542969 68.875 -44.910156 70.289062 -48.039062 C 71.675781 -51.105469 72.589844 -53.449219 73.039062 -55.082031 C 73.46875 -56.636719 73.679688 -57.886719 73.679688 -58.828125 C 73.679688 -60.140625 73.28125 -61.378906 72.476562 -62.550781 C 71.84375 -63.476562 70.753906 -63.941406 69.214844 -63.941406 C 66.5 -63.941406 62.777344 -62.40625 58.050781 -59.332031 C 53.097656 -56.117188 47.769531 -51.742188 42.070312 -46.214844 C 35.734375 -39.960938 29.519531 -32.847656 23.429688 -24.871094 L 20.015625 -27.039062 C 22.339844 -31.515625 24.539062 -35.949219 26.605469 -40.34375 C 28.65625 -44.707031 30.324219 -48.613281 31.601562 -52.066406 C 32.816406 -55.34375 33.421875 -57.726562 33.421875 -59.21875 C 33.421875 -60.300781 33.050781 -61.433594 32.304688 -62.617188 C 31.75 -63.5 30.59375 -63.941406 28.828125 -63.941406 C 27.039062 -63.941406 24.421875 -62.910156 20.976562 -60.851562 C 17.324219 -58.671875 13.167969 -55.460938 8.507812 -51.222656 L 7.140625 -52.722656 L 8.726562 -53.992188 L 9.765625 -52.691406 L 8.179688 -51.425781 L 6.8125 -52.925781 C 9.871094 -55.710938 12.507812 -57.730469 14.71875 -58.972656 C 17.105469 -60.316406 19.167969 -60.988281 20.90625 -60.988281 C 22.59375 -60.988281 23.917969 -60.507812 24.875 -59.546875 C 25.832031 -58.589844 26.3125 -57.265625 26.3125 -55.582031 C 26.3125 -53.9375 25.636719 -51.414062 24.285156 -48.015625 C 23.011719 -44.808594 21.371094 -41.128906 19.359375 -36.96875 C 17.351562 -32.828125 15.152344 -28.554688 12.75 -24.152344 L 5.867188 -11.613281 C 3.648438 -7.613281 1.710938 -4.21875 0.0546875 -1.429688 L -1.6875 -2.46875 L 0.125 -1.558594 C 0.0625 -1.429688 0.0273438 -1.339844 0.0195312 -1.285156 C 0.0273438 -1.363281 0.0117188 -1.453125 -0.0351562 -1.554688 C -0.121094 -1.738281 -0.253906 -1.878906 -0.4375 -1.976562 C -0.492188 -2.003906 -0.539062 -2.023438 -0.582031 -2.03125 C -0.574219 -2.03125 -0.554688 -2.027344 -0.519531 -2.027344 L 5.714844 -2.027344 C 5.921875 -2.027344 6.136719 -2.199219 6.355469 -2.539062 C 7.972656 -5.011719 10.675781 -9.644531 14.460938 -16.441406 L 14.5 -16.511719 L 14.542969 -16.578125 C 18.390625 -22.347656 22.519531 -27.941406 26.929688 -33.359375 C 31.359375 -38.792969 35.816406 -43.621094 40.296875 -47.839844 C 44.515625 -51.796875 48.285156 -54.96875 51.601562 -57.359375 C 55.203125 -59.949219 58.347656 -61.246094 61.035156 -61.246094 C 62.921875 -61.246094 64.332031 -60.628906 65.257812 -59.394531 C 66.046875 -58.34375 66.441406 -57.113281 66.441406 -55.710938 C 66.441406 -53.960938 65.695312 -51.339844 64.199219 -47.835938 C 62.800781 -44.554688 60.703125 -40.117188 57.90625 -34.527344 C 55.910156 -30.617188 53.28125 -25.667969 50.027344 -19.679688 L 40.09375 -1.371094 L 38.308594 -2.335938 L 40.125 -1.429688 C 40.09375 -1.363281 40.070312 -1.3125 40.058594 -1.273438 C 40.058594 -1.277344 40.058594 -1.292969 40.0625 -1.316406 C 40.066406 -1.492188 40.015625 -1.65625 39.90625 -1.8125 C 39.839844 -1.910156 39.753906 -1.980469 39.652344 -2.023438 C 39.636719 -2.03125 39.625 -2.035156 39.617188 -2.035156 C 39.648438 -2.03125 39.6875 -2.027344 39.738281 -2.027344 Z M 39.738281 -2.027344 "/></g></g></g><g fill="#fab204" fill-opacity="1"><g transform="translate(537.881305, 183.374985)"><g><path d="M 18.699219 2.9375 C 13.328125 2.9375 9.042969 1.484375 5.84375 -1.417969 C 2.632812 -4.332031 0.835938 -8.152344 0.445312 -12.882812 C 0.0664062 -17.472656 1.222656 -22.359375 3.910156 -27.554688 L 22.492188 -62.507812 C 25.769531 -68.617188 29.730469 -74.351562 34.375 -79.703125 C 39.027344 -85.0625 44.234375 -89.78125 49.992188 -93.859375 C 55.777344 -97.953125 61.941406 -101.132812 68.488281 -103.40625 C 75.066406 -105.6875 81.84375 -106.828125 88.824219 -106.828125 C 92.519531 -106.828125 95.433594 -106.597656 97.566406 -106.132812 C 100.625 -105.46875 102.152344 -104.070312 102.152344 -101.941406 C 102.152344 -100.660156 101.582031 -99.179688 100.441406 -97.492188 C 99.378906 -95.921875 97.929688 -94.546875 96.097656 -93.355469 C 94.160156 -92.101562 91.953125 -91.472656 89.476562 -91.472656 C 86.878906 -91.472656 83.726562 -91.949219 80.011719 -92.898438 C 76.453125 -93.808594 71.769531 -95.046875 65.964844 -96.605469 L 66.488281 -98.566406 L 67.222656 -96.671875 C 63.578125 -95.265625 60.3125 -93.507812 57.425781 -91.40625 C 54.558594 -89.316406 51.800781 -86.515625 49.152344 -82.996094 C 46.445312 -79.40625 43.605469 -74.757812 40.628906 -69.054688 L 18.292969 -26.203125 L 16.492188 -27.140625 L 14.933594 -28.441406 C 22.351562 -37.34375 29.90625 -45.289062 37.59375 -52.277344 C 42.414062 -56.835938 46.949219 -60.554688 51.195312 -63.429688 C 55.714844 -66.488281 59.664062 -67.96875 63.042969 -67.867188 L 62.984375 -65.839844 L 62.984375 -67.871094 C 66.238281 -67.871094 68.738281 -66.492188 70.476562 -63.742188 C 72.027344 -61.292969 72.804688 -58.570312 72.804688 -55.582031 C 72.804688 -50.386719 71.71875 -45.050781 69.542969 -39.574219 C 67.40625 -34.183594 64.539062 -28.957031 60.9375 -23.886719 C 57.335938 -18.820312 53.222656 -14.285156 48.597656 -10.28125 C 43.953125 -6.265625 39.101562 -3.070312 34.042969 -0.695312 C 28.878906 1.726562 23.761719 2.9375 18.699219 2.9375 Z M 18.699219 -1.121094 C 23.160156 -1.121094 27.699219 -2.203125 32.316406 -4.371094 C 37.039062 -6.585938 41.582031 -9.578125 45.941406 -13.351562 C 50.320312 -17.140625 54.214844 -21.4375 57.628906 -26.238281 C 61.039062 -31.039062 63.753906 -35.984375 65.773438 -41.070312 C 67.753906 -46.066406 68.746094 -50.90625 68.746094 -55.582031 C 68.746094 -57.785156 68.179688 -59.785156 67.046875 -61.574219 C 66.105469 -63.066406 64.75 -63.8125 62.984375 -63.8125 L 62.921875 -63.8125 C 60.417969 -63.886719 57.265625 -62.636719 53.472656 -60.070312 C 49.40625 -57.316406 45.023438 -53.71875 40.324219 -49.273438 C 32.773438 -42.410156 25.351562 -34.601562 18.050781 -25.84375 L 14.691406 -28.078125 L 37.03125 -70.933594 C 40.113281 -76.835938 43.070312 -81.667969 45.910156 -85.4375 C 48.800781 -89.277344 51.84375 -92.359375 55.035156 -94.6875 C 58.210938 -97 61.785156 -98.921875 65.757812 -100.457031 L 66.375 -100.695312 L 67.015625 -100.523438 C 72.808594 -98.96875 77.476562 -97.738281 81.019531 -96.832031 C 84.402344 -95.964844 87.222656 -95.53125 89.476562 -95.53125 C 91.152344 -95.53125 92.625 -95.941406 93.890625 -96.761719 C 95.261719 -97.652344 96.324219 -98.652344 97.082031 -99.769531 C 97.757812 -100.765625 98.09375 -101.492188 98.09375 -101.941406 C 98.09375 -101.847656 98.117188 -101.757812 98.167969 -101.671875 L 98.171875 -101.640625 C 97.90625 -101.835938 97.417969 -102.011719 96.707031 -102.167969 C 94.855469 -102.570312 92.230469 -102.769531 88.824219 -102.769531 C 82.300781 -102.769531 75.964844 -101.703125 69.816406 -99.570312 C 63.636719 -97.425781 57.808594 -94.417969 52.339844 -90.546875 C 46.84375 -86.65625 41.878906 -82.15625 37.441406 -77.042969 C 32.992188 -71.917969 29.207031 -66.4375 26.074219 -60.601562 L 7.515625 -25.6875 C 5.183594 -21.1875 4.175781 -17.027344 4.488281 -13.21875 C 4.792969 -9.550781 6.152344 -6.621094 8.570312 -4.425781 C 10.996094 -2.222656 14.375 -1.121094 18.699219 -1.121094 Z M 15.507812 -20.566406 C 14.890625 -16.953125 15.144531 -14.097656 16.269531 -11.996094 C 17.402344 -9.875 18.941406 -8.347656 20.878906 -7.414062 C 22.9375 -6.421875 24.9375 -5.925781 26.882812 -5.925781 C 30.390625 -5.925781 33.691406 -6.882812 36.785156 -8.800781 C 40 -10.796875 42.894531 -13.449219 45.472656 -16.765625 C 48.109375 -20.152344 50.390625 -23.878906 52.320312 -27.945312 C 54.253906 -32.023438 55.722656 -36.09375 56.726562 -40.160156 C 57.726562 -44.199219 58.226562 -47.824219 58.226562 -51.035156 C 58.226562 -53.5625 57.933594 -55.261719 57.34375 -56.128906 C 56.921875 -56.75 56.335938 -57.058594 55.582031 -57.058594 C 54.402344 -57.058594 52.589844 -56.3125 50.144531 -54.824219 C 47.488281 -53.203125 44.5625 -50.925781 41.371094 -47.984375 C 37.253906 -44.292969 32.878906 -39.921875 28.25 -34.863281 C 23.601562 -29.78125 19.210938 -24.703125 15.078125 -19.628906 L 13.503906 -20.90625 Z M 11.503906 -21.25 L 11.59375 -21.773438 L 11.933594 -22.1875 C 16.113281 -27.328125 20.554688 -32.464844 25.253906 -37.601562 C 29.976562 -42.757812 34.429688 -47.214844 38.621094 -50.96875 C 42.011719 -54.089844 45.148438 -56.53125 48.03125 -58.289062 C 51.125 -60.171875 53.644531 -61.117188 55.582031 -61.117188 C 57.769531 -61.117188 59.476562 -60.214844 60.703125 -58.410156 C 61.757812 -56.851562 62.285156 -54.394531 62.285156 -51.035156 C 62.285156 -47.496094 61.746094 -43.542969 60.667969 -39.1875 C 59.597656 -34.855469 58.035156 -30.527344 55.984375 -26.207031 C 53.929688 -21.875 51.496094 -17.894531 48.675781 -14.273438 C 45.800781 -10.574219 42.550781 -7.601562 38.925781 -5.351562 C 35.175781 -3.027344 31.164062 -1.867188 26.882812 -1.867188 C 24.320312 -1.867188 21.734375 -2.496094 19.117188 -3.753906 C 16.382812 -5.074219 14.238281 -7.179688 12.691406 -10.082031 C 11.128906 -13 10.734375 -16.722656 11.503906 -21.25 Z M 11.503906 -21.25 "/></g></g></g><g fill="#fab204" fill-opacity="1"><g transform="translate(609.301771, 183.374985)"><g><path d="M -0.519531 2.027344 C -2.082031 2.027344 -3.152344 1.394531 -3.730469 0.125 C -4.214844 -0.9375 -4.136719 -2.105469 -3.503906 -3.375 L -3.46875 -3.441406 L -3.433594 -3.503906 C -1.796875 -6.257812 0.117188 -9.617188 2.316406 -13.582031 L 9.195312 -26.105469 C 11.558594 -30.445312 13.726562 -34.65625 15.707031 -38.738281 C 17.675781 -42.808594 19.277344 -46.398438 20.515625 -49.511719 C 21.675781 -52.433594 22.253906 -54.453125 22.253906 -55.582031 C 22.253906 -56.144531 22.171875 -56.511719 22.003906 -56.679688 C 21.839844 -56.84375 21.472656 -56.929688 20.90625 -56.929688 C 19.878906 -56.929688 18.476562 -56.429688 16.707031 -55.4375 C 14.765625 -54.34375 12.378906 -52.507812 9.546875 -49.925781 L 7.949219 -48.46875 L 4.367188 -52.945312 L 5.777344 -54.226562 C 10.640625 -58.644531 15.011719 -62.015625 18.894531 -64.335938 C 22.980469 -66.777344 26.292969 -68 28.828125 -68 C 32.085938 -68 34.390625 -66.925781 35.742188 -64.777344 C 36.902344 -62.933594 37.480469 -61.078125 37.480469 -59.21875 C 37.480469 -57.429688 36.925781 -54.9375 35.8125 -51.734375 C 34.75 -48.6875 33.34375 -45.230469 31.585938 -41.367188 L 29.738281 -42.207031 L 28.054688 -43.339844 C 31.152344 -47.9375 34.449219 -52.054688 37.953125 -55.691406 C 41.523438 -59.398438 45.445312 -62.363281 49.707031 -64.585938 C 54.070312 -66.863281 58.84375 -68 64.023438 -68 C 65.726562 -68 67.539062 -67.789062 69.457031 -67.367188 C 70.65625 -67.105469 71.597656 -66.695312 72.289062 -66.136719 C 73.238281 -65.375 73.714844 -64.410156 73.714844 -63.242188 C 73.714844 -61.789062 73.140625 -60.21875 72 -58.535156 C 70.957031 -56.992188 69.644531 -55.652344 68.0625 -54.519531 C 66.324219 -53.269531 64.414062 -52.644531 62.335938 -52.644531 C 60.140625 -52.644531 57.714844 -52.867188 55.046875 -53.320312 C 52.410156 -53.769531 49.1875 -54.566406 45.382812 -55.714844 L 45.972656 -57.660156 L 47.070312 -55.953125 C 43.636719 -53.746094 39.957031 -50.035156 36.035156 -44.816406 C 32.019531 -39.480469 28.175781 -33.515625 24.496094 -26.929688 L 22.726562 -27.921875 L 24.53125 -26.996094 C 22.535156 -23.085938 20.558594 -19.328125 18.601562 -15.71875 C 16.644531 -12.109375 14.878906 -8.953125 13.3125 -6.253906 C 11.738281 -3.542969 10.554688 -1.570312 9.757812 -0.332031 C 8.757812 1.242188 7.410156 2.027344 5.714844 2.027344 Z M -0.519531 -2.027344 L 5.714844 -2.027344 C 5.921875 -2.027344 6.132812 -2.195312 6.34375 -2.527344 C 7.105469 -3.710938 8.261719 -5.632812 9.804688 -8.292969 C 11.351562 -10.957031 13.09375 -14.078125 15.035156 -17.65625 C 16.972656 -21.234375 18.933594 -24.960938 20.917969 -28.84375 L 20.9375 -28.878906 L 20.953125 -28.910156 C 24.722656 -35.65625 28.667969 -41.773438 32.792969 -47.253906 C 37.007812 -52.859375 41.035156 -56.898438 44.875 -59.367188 L 45.660156 -59.871094 L 46.558594 -59.601562 C 50.199219 -58.5 53.253906 -57.742188 55.726562 -57.320312 C 58.167969 -56.90625 60.371094 -56.703125 62.335938 -56.703125 C 63.542969 -56.703125 64.664062 -57.070312 65.695312 -57.8125 C 66.882812 -58.667969 67.867188 -59.667969 68.640625 -60.808594 C 69.316406 -61.808594 69.65625 -62.621094 69.65625 -63.242188 C 69.65625 -63.113281 69.683594 -63.027344 69.746094 -62.976562 C 69.550781 -63.136719 69.164062 -63.277344 68.585938 -63.402344 C 66.957031 -63.761719 65.433594 -63.941406 64.023438 -63.941406 C 59.503906 -63.941406 55.359375 -62.957031 51.585938 -60.988281 C 47.710938 -58.96875 44.140625 -56.265625 40.875 -52.875 C 37.535156 -49.410156 34.386719 -45.476562 31.421875 -41.074219 L 27.890625 -43.046875 C 29.597656 -46.796875 30.960938 -50.136719 31.976562 -53.066406 C 32.941406 -55.835938 33.421875 -57.886719 33.421875 -59.21875 C 33.421875 -60.300781 33.050781 -61.433594 32.304688 -62.617188 C 31.75 -63.5 30.59375 -63.941406 28.828125 -63.941406 C 27.039062 -63.941406 24.421875 -62.910156 20.976562 -60.851562 C 17.324219 -58.671875 13.167969 -55.460938 8.507812 -51.222656 L 7.140625 -52.722656 L 8.726562 -53.992188 L 9.765625 -52.691406 L 8.179688 -51.425781 L 6.8125 -52.925781 C 9.871094 -55.710938 12.507812 -57.730469 14.71875 -58.972656 C 17.105469 -60.316406 19.167969 -60.988281 20.90625 -60.988281 C 22.59375 -60.988281 23.917969 -60.507812 24.875 -59.546875 C 25.832031 -58.589844 26.3125 -57.265625 26.3125 -55.582031 C 26.3125 -53.9375 25.636719 -51.414062 24.285156 -48.015625 C 23.011719 -44.808594 21.371094 -41.128906 19.359375 -36.96875 C 17.351562 -32.828125 15.152344 -28.554688 12.75 -24.152344 L 5.867188 -11.613281 C 3.648438 -7.613281 1.710938 -4.21875 0.0546875 -1.429688 L -1.6875 -2.46875 L 0.125 -1.558594 C 0.0625 -1.429688 0.0273438 -1.339844 0.0195312 -1.285156 C 0.0273438 -1.363281 0.0117188 -1.453125 -0.0351562 -1.554688 C -0.121094 -1.738281 -0.253906 -1.878906 -0.4375 -1.976562 C -0.492188 -2.003906 -0.539062 -2.023438 -0.582031 -2.03125 C -0.574219 -2.03125 -0.554688 -2.027344 -0.519531 -2.027344 Z M -0.519531 -2.027344 "/></g></g></g><g fill="#fab204" fill-opacity="1"><g transform="translate(670.074059, 183.374985)"><g><path d="M 16.882812 2.9375 C 12.929688 2.9375 9.660156 2.09375 7.070312 0.398438 C 4.496094 -1.285156 2.585938 -3.472656 1.339844 -6.160156 C 0.132812 -8.769531 -0.472656 -11.476562 -0.472656 -14.285156 C -0.472656 -19.15625 0.644531 -24.144531 2.882812 -29.253906 C 5.074219 -34.261719 8 -39.066406 11.660156 -43.664062 C 15.300781 -48.238281 19.363281 -52.34375 23.847656 -55.988281 C 28.355469 -59.648438 32.984375 -62.550781 37.730469 -64.703125 C 42.585938 -66.898438 47.195312 -68 51.554688 -68 C 55.414062 -68 58.378906 -67.152344 60.441406 -65.460938 C 62.621094 -63.671875 63.714844 -61.328125 63.714844 -58.4375 C 63.714844 -55.976562 62.875 -53.390625 61.203125 -50.683594 C 59.621094 -48.128906 56.957031 -45.222656 53.210938 -41.972656 C 49.558594 -38.804688 44.542969 -35.035156 38.15625 -30.660156 C 31.816406 -26.320312 23.789062 -21.066406 14.074219 -14.910156 L 12.984375 -16.621094 L 14.996094 -16.910156 C 15.363281 -14.324219 16.363281 -12.21875 17.992188 -10.589844 C 19.542969 -9.039062 21.902344 -8.261719 25.0625 -8.261719 C 27.082031 -8.261719 29.625 -8.808594 32.695312 -9.898438 C 35.738281 -10.980469 39.414062 -13.425781 43.71875 -17.234375 L 45.234375 -18.574219 L 48.941406 -14.40625 L 47.476562 -13.054688 C 41.613281 -7.636719 35.972656 -3.625 30.550781 -1.027344 C 25.035156 1.617188 20.480469 2.9375 16.882812 2.9375 Z M 16.882812 -1.121094 C 19.863281 -1.121094 23.835938 -2.308594 28.796875 -4.6875 C 33.851562 -7.109375 39.160156 -10.890625 44.722656 -16.035156 L 46.101562 -14.542969 L 44.585938 -13.195312 L 43.546875 -14.367188 L 45.0625 -15.714844 L 46.40625 -14.195312 C 41.707031 -10.039062 37.589844 -7.332031 34.054688 -6.074219 C 30.542969 -4.828125 27.546875 -4.203125 25.0625 -4.203125 C 20.78125 -4.203125 17.46875 -5.375 15.121094 -7.71875 C 12.855469 -9.988281 11.472656 -12.859375 10.976562 -16.335938 L 10.792969 -17.632812 L 11.898438 -18.335938 C 21.574219 -24.46875 29.5625 -29.695312 35.863281 -34.011719 C 42.121094 -38.296875 47.015625 -41.96875 50.550781 -45.035156 C 53.988281 -48.019531 56.386719 -50.613281 57.75 -52.816406 C 59.019531 -54.871094 59.65625 -56.746094 59.65625 -58.4375 C 59.65625 -60.050781 59.058594 -61.34375 57.867188 -62.324219 C 56.550781 -63.402344 54.449219 -63.941406 51.554688 -63.941406 C 47.777344 -63.941406 43.730469 -62.960938 39.40625 -61.003906 C 34.976562 -59 30.644531 -56.277344 26.40625 -52.835938 C 22.148438 -49.378906 18.292969 -45.480469 14.832031 -41.136719 C 11.394531 -36.816406 8.648438 -32.3125 6.597656 -27.625 C 4.589844 -23.039062 3.585938 -18.589844 3.585938 -14.285156 C 3.585938 -12.070312 4.066406 -9.933594 5.023438 -7.863281 C 5.941406 -5.878906 7.367188 -4.257812 9.292969 -2.996094 C 11.207031 -1.746094 13.734375 -1.121094 16.882812 -1.121094 Z M 11.785156 -20.164062 C 20.90625 -25.84375 28.191406 -30.761719 33.636719 -34.921875 C 38.984375 -39.007812 42.859375 -42.644531 45.257812 -45.828125 C 47.496094 -48.800781 48.617188 -51.617188 48.617188 -54.28125 C 48.617188 -55.804688 48.152344 -56.949219 47.21875 -57.710938 C 46.164062 -58.574219 44.796875 -59.007812 43.113281 -59.007812 C 40.195312 -59.007812 37.355469 -58.191406 34.601562 -56.5625 C 31.726562 -54.859375 29.085938 -52.582031 26.679688 -49.726562 C 24.230469 -46.820312 22.109375 -43.578125 20.320312 -40 C 18.523438 -36.40625 17.144531 -32.75 16.183594 -29.035156 C 15.234375 -25.367188 14.804688 -21.894531 14.886719 -18.621094 L 14.886719 -18.441406 L 12.855469 -18.441406 Z M 10.828125 -14.785156 L 10.828125 -18.570312 L 12.855469 -18.570312 L 10.828125 -18.519531 C 10.738281 -22.171875 11.210938 -26.015625 12.253906 -30.050781 C 13.285156 -34.042969 14.765625 -37.964844 16.691406 -41.8125 C 18.625 -45.679688 20.917969 -49.191406 23.578125 -52.34375 C 26.277344 -55.550781 29.265625 -58.121094 32.535156 -60.054688 C 35.929688 -62.0625 39.453125 -63.066406 43.113281 -63.066406 C 45.761719 -63.066406 47.988281 -62.328125 49.789062 -60.851562 C 51.714844 -59.277344 52.675781 -57.089844 52.675781 -54.28125 C 52.675781 -50.714844 51.285156 -47.082031 48.5 -43.386719 C 45.878906 -39.90625 41.746094 -36.007812 36.101562 -31.695312 C 30.550781 -27.460938 23.160156 -22.464844 13.929688 -16.71875 Z M 10.828125 -14.785156 "/></g></g></g><g fill="#fab204" fill-opacity="1"><g transform="translate(281.027336, 183.374985)"><g><path d="M 19.34375 2.078125 C 14.414062 2.078125 10.175781 1.125 6.625 -0.78125 C 3.070312 -2.6875 0.367188 -5.28125 -1.484375 -8.5625 C -3.347656 -11.851562 -4.28125 -15.492188 -4.28125 -19.484375 C -4.28125 -24.503906 -2.984375 -29.304688 -0.390625 -33.890625 C 2.203125 -38.484375 5.707031 -42.570312 10.125 -46.15625 C 14.539062 -49.75 19.519531 -52.582031 25.0625 -54.65625 C 30.601562 -56.738281 36.273438 -57.78125 42.078125 -57.78125 C 46.835938 -57.78125 51.550781 -57.085938 56.21875 -55.703125 C 60.894531 -54.316406 65.503906 -52.671875 70.046875 -50.765625 C 74.597656 -48.867188 79.082031 -47.140625 83.5 -45.578125 C 89.46875 -51.984375 95.113281 -58.390625 100.4375 -64.796875 C 105.769531 -71.203125 110.515625 -77.109375 114.671875 -82.515625 C 118.828125 -87.929688 122.113281 -92.285156 124.53125 -95.578125 L 95.96875 -95.1875 C 92.5 -95.101562 89.898438 -94.5 88.171875 -93.375 C 86.441406 -92.25 84.582031 -90.601562 82.59375 -88.4375 L 81.421875 -89.21875 C 83.492188 -91.894531 85.414062 -94.296875 87.1875 -96.421875 C 88.96875 -98.546875 90.769531 -100.382812 92.59375 -101.9375 C 93.539062 -102.632812 94.597656 -103.132812 95.765625 -103.4375 C 96.941406 -103.738281 98.132812 -103.890625 99.34375 -103.890625 L 134.671875 -103.890625 C 136.140625 -103.890625 136.703125 -103.109375 136.359375 -101.546875 C 132.972656 -86.222656 130.066406 -72.414062 127.640625 -60.125 C 125.222656 -47.832031 123.382812 -37.703125 122.125 -29.734375 C 120.875 -21.773438 120.25 -16.625 120.25 -14.28125 C 120.25 -11.164062 120.832031 -9.109375 122 -8.109375 C 123.164062 -7.117188 124.441406 -6.625 125.828125 -6.625 C 127.304688 -6.625 128.953125 -7.140625 130.765625 -8.171875 C 132.585938 -9.210938 134.835938 -10.988281 137.515625 -13.5 L 138.5625 -12.34375 C 133.96875 -7.925781 129.960938 -4.59375 126.546875 -2.34375 C 123.128906 -0.09375 120.035156 1.03125 117.265625 1.03125 C 115.179688 1.03125 113.316406 0.0820312 111.671875 -1.8125 C 110.035156 -3.71875 109.300781 -6.835938 109.46875 -11.171875 C 109.644531 -14.203125 110.144531 -18.570312 110.96875 -24.28125 C 111.789062 -30 112.976562 -36.882812 114.53125 -44.9375 C 111.757812 -42.6875 108.554688 -40.738281 104.921875 -39.09375 C 101.285156 -37.445312 97.257812 -36.625 92.84375 -36.625 C 90.507812 -36.625 88.238281 -36.773438 86.03125 -37.078125 C 83.820312 -37.378906 81.632812 -37.742188 79.46875 -38.171875 C 74.445312 -32.890625 69.335938 -27.828125 64.140625 -22.984375 C 58.953125 -18.140625 53.800781 -13.832031 48.6875 -10.0625 C 43.582031 -6.300781 38.5625 -3.335938 33.625 -1.171875 C 28.695312 0.992188 23.9375 2.078125 19.34375 2.078125 Z M 4.28125 -24.671875 C 4.28125 -20.253906 5.210938 -16.46875 7.078125 -13.3125 C 8.941406 -10.15625 11.429688 -7.726562 14.546875 -6.03125 C 17.660156 -4.34375 21.078125 -3.5 24.796875 -3.5 C 30.253906 -3.59375 35.835938 -5.238281 41.546875 -8.4375 C 47.265625 -11.644531 53.109375 -15.910156 59.078125 -21.234375 C 65.054688 -26.554688 71.078125 -32.378906 77.140625 -38.703125 C 71.515625 -40.253906 66.234375 -42.175781 61.296875 -44.46875 C 56.359375 -46.769531 51.570312 -48.804688 46.9375 -50.578125 C 42.3125 -52.359375 37.570312 -53.25 32.71875 -53.25 C 27.007812 -53.25 22.007812 -51.882812 17.71875 -49.15625 C 13.4375 -46.425781 10.125 -42.875 7.78125 -38.5 C 5.445312 -34.132812 4.28125 -29.523438 4.28125 -24.671875 Z M 85.703125 -44.796875 C 88.390625 -43.929688 91.03125 -43.21875 93.625 -42.65625 C 96.226562 -42.09375 98.828125 -41.8125 101.421875 -41.8125 C 104.453125 -41.8125 107.09375 -42.375 109.34375 -43.5 C 111.59375 -44.625 113.453125 -45.835938 114.921875 -47.140625 C 116.222656 -53.546875 117.695312 -60.554688 119.34375 -68.171875 C 120.988281 -75.796875 122.804688 -83.9375 124.796875 -92.59375 C 122.285156 -89.125 119.035156 -84.8125 115.046875 -79.65625 C 111.066406 -74.507812 106.585938 -68.945312 101.609375 -62.96875 C 96.628906 -57 91.328125 -50.941406 85.703125 -44.796875 Z M 85.703125 -44.796875 "/></g></g></g><g fill="#fab204" fill-opacity="1"><g transform="translate(422.82942, 183.374985)"><g><path d="M 39.734375 0 C 39.046875 0 38.550781 -0.210938 38.25 -0.640625 C 37.945312 -1.078125 37.96875 -1.644531 38.3125 -2.34375 C 41.6875 -8.570312 44.992188 -14.671875 48.234375 -20.640625 C 51.484375 -26.617188 54.101562 -31.554688 56.09375 -35.453125 C 58.863281 -40.992188 60.941406 -45.382812 62.328125 -48.625 C 63.710938 -51.875 64.40625 -54.234375 64.40625 -55.703125 C 64.40625 -56.660156 64.144531 -57.484375 63.625 -58.171875 C 63.113281 -58.867188 62.25 -59.21875 61.03125 -59.21875 C 58.78125 -59.21875 56.03125 -58.046875 52.78125 -55.703125 C 49.539062 -53.367188 45.84375 -50.253906 41.6875 -46.359375 C 37.269531 -42.203125 32.875 -37.441406 28.5 -32.078125 C 24.132812 -26.710938 20.046875 -21.171875 16.234375 -15.453125 C 12.421875 -8.609375 9.691406 -3.929688 8.046875 -1.421875 C 7.441406 -0.472656 6.664062 0 5.71875 0 L -0.515625 0 C -1.210938 0 -1.664062 -0.234375 -1.875 -0.703125 C -2.09375 -1.179688 -2.03125 -1.769531 -1.6875 -2.46875 C -0.0390625 -5.238281 1.882812 -8.613281 4.09375 -12.59375 C 6.300781 -16.570312 8.59375 -20.75 10.96875 -25.125 C 13.351562 -29.5 15.539062 -33.738281 17.53125 -37.84375 C 19.519531 -41.957031 21.140625 -45.59375 22.390625 -48.75 C 23.648438 -51.914062 24.28125 -54.191406 24.28125 -55.578125 C 24.28125 -57.828125 23.15625 -58.953125 20.90625 -58.953125 C 19.519531 -58.953125 17.785156 -58.367188 15.703125 -57.203125 C 13.628906 -56.035156 11.125 -54.109375 8.1875 -51.421875 L 7.140625 -52.71875 C 11.898438 -57.050781 16.160156 -60.34375 19.921875 -62.59375 C 23.691406 -64.84375 26.660156 -65.96875 28.828125 -65.96875 C 31.335938 -65.96875 33.066406 -65.207031 34.015625 -63.6875 C 34.972656 -62.175781 35.453125 -60.6875 35.453125 -59.21875 C 35.453125 -57.488281 34.800781 -54.867188 33.5 -51.359375 C 32.207031 -47.847656 30.519531 -43.882812 28.4375 -39.46875 C 26.363281 -35.0625 24.15625 -30.609375 21.8125 -26.109375 C 27.957031 -34.148438 34.234375 -41.332031 40.640625 -47.65625 C 46.441406 -53.28125 51.875 -57.738281 56.9375 -61.03125 C 62.007812 -64.320312 66.101562 -65.96875 69.21875 -65.96875 C 71.46875 -65.96875 73.109375 -65.207031 74.140625 -63.6875 C 75.179688 -62.175781 75.703125 -60.554688 75.703125 -58.828125 C 75.703125 -57.703125 75.460938 -56.269531 74.984375 -54.53125 C 74.515625 -52.800781 73.566406 -50.359375 72.140625 -47.203125 C 70.710938 -44.046875 68.566406 -39.648438 65.703125 -34.015625 C 65.097656 -32.890625 64.472656 -31.695312 63.828125 -30.4375 C 63.179688 -29.1875 62.46875 -27.867188 61.6875 -26.484375 C 67.394531 -33.929688 73.128906 -40.640625 78.890625 -46.609375 C 84.648438 -52.585938 90.039062 -57.304688 95.0625 -60.765625 C 100.082031 -64.234375 104.28125 -65.96875 107.65625 -65.96875 C 109.820312 -65.96875 111.441406 -65.207031 112.515625 -63.6875 C 113.597656 -62.175781 114.140625 -60.554688 114.140625 -58.828125 C 114.140625 -56.398438 113.359375 -53.453125 111.796875 -49.984375 C 110.242188 -46.523438 108.320312 -42.847656 106.03125 -38.953125 C 103.738281 -35.054688 101.46875 -31.203125 99.21875 -27.390625 C 96.96875 -23.585938 95.0625 -20.128906 93.5 -17.015625 C 91.9375 -13.898438 91.15625 -11.429688 91.15625 -9.609375 C 91.15625 -7.273438 92.410156 -6.109375 94.921875 -6.109375 C 97.609375 -6.109375 101.59375 -8.570312 106.875 -13.5 L 107.90625 -12.203125 C 103.144531 -7.878906 98.96875 -4.59375 95.375 -2.34375 C 91.789062 -0.09375 89 1.03125 87 1.03125 C 84.226562 1.03125 82.320312 0.164062 81.28125 -1.5625 C 80.25 -3.289062 79.734375 -4.9375 79.734375 -6.5 C 79.734375 -9.175781 80.507812 -12.289062 82.0625 -15.84375 C 83.625 -19.394531 85.550781 -23.09375 87.84375 -26.9375 C 90.144531 -30.789062 92.460938 -34.554688 94.796875 -38.234375 C 97.128906 -41.921875 99.050781 -45.300781 100.5625 -48.375 C 102.082031 -51.445312 102.84375 -53.890625 102.84375 -55.703125 C 102.84375 -58.046875 101.71875 -59.21875 99.46875 -59.21875 C 97.394531 -59.21875 94.671875 -57.984375 91.296875 -55.515625 C 87.921875 -53.046875 84.195312 -49.734375 80.125 -45.578125 C 76.050781 -41.421875 71.914062 -36.742188 67.71875 -31.546875 C 63.519531 -26.359375 59.515625 -21.035156 55.703125 -15.578125 C 54.578125 -13.503906 53.410156 -11.296875 52.203125 -8.953125 C 50.992188 -6.617188 49.738281 -4.109375 48.4375 -1.421875 C 48 -0.472656 47.21875 0 46.09375 0 Z M 39.734375 0 "/></g></g></g><g fill="#fab204" fill-opacity="1"><g transform="translate(537.881305, 183.374985)"><g><path d="M 18.703125 0.90625 C 13.847656 0.90625 10.015625 -0.367188 7.203125 -2.921875 C 4.390625 -5.472656 2.8125 -8.847656 2.46875 -13.046875 C 2.125 -17.242188 3.207031 -21.769531 5.71875 -26.625 L 24.28125 -61.546875 C 27.488281 -67.523438 31.363281 -73.132812 35.90625 -78.375 C 40.445312 -83.613281 45.53125 -88.222656 51.15625 -92.203125 C 56.789062 -96.179688 62.785156 -99.273438 69.140625 -101.484375 C 75.503906 -103.691406 82.066406 -104.796875 88.828125 -104.796875 C 92.367188 -104.796875 95.132812 -104.578125 97.125 -104.140625 C 99.125 -103.710938 100.125 -102.976562 100.125 -101.9375 C 100.125 -101.070312 99.664062 -99.96875 98.75 -98.625 C 97.84375 -97.28125 96.585938 -96.085938 94.984375 -95.046875 C 93.390625 -94.015625 91.550781 -93.5 89.46875 -93.5 C 87.050781 -93.5 84.066406 -93.953125 80.515625 -94.859375 C 76.960938 -95.765625 72.285156 -97 66.484375 -98.5625 C 62.679688 -97.09375 59.265625 -95.253906 56.234375 -93.046875 C 53.203125 -90.835938 50.300781 -87.890625 47.53125 -84.203125 C 44.757812 -80.523438 41.859375 -75.789062 38.828125 -70 L 16.484375 -27.140625 C 23.847656 -35.972656 31.335938 -43.851562 38.953125 -50.78125 C 43.710938 -55.28125 48.171875 -58.9375 52.328125 -61.75 C 56.484375 -64.5625 60.035156 -65.925781 62.984375 -65.84375 C 65.492188 -65.84375 67.414062 -64.78125 68.75 -62.65625 C 70.09375 -60.53125 70.765625 -58.171875 70.765625 -55.578125 C 70.765625 -50.640625 69.726562 -45.550781 67.65625 -40.3125 C 65.582031 -35.082031 62.789062 -30 59.28125 -25.0625 C 55.769531 -20.125 51.765625 -15.707031 47.265625 -11.8125 C 42.765625 -7.914062 38.066406 -4.820312 33.171875 -2.53125 C 28.285156 -0.238281 23.460938 0.90625 18.703125 0.90625 Z M 13.5 -20.90625 C 12.8125 -16.832031 13.132812 -13.539062 14.46875 -11.03125 C 15.8125 -8.519531 17.648438 -6.703125 19.984375 -5.578125 C 22.328125 -4.453125 24.625 -3.890625 26.875 -3.890625 C 30.769531 -3.890625 34.425781 -4.953125 37.84375 -7.078125 C 41.269531 -9.203125 44.347656 -12.015625 47.078125 -15.515625 C 49.804688 -19.023438 52.164062 -22.878906 54.15625 -27.078125 C 56.144531 -31.273438 57.65625 -35.472656 58.6875 -39.671875 C 59.726562 -43.867188 60.25 -47.65625 60.25 -51.03125 C 60.25 -53.976562 59.835938 -56.054688 59.015625 -57.265625 C 58.191406 -58.484375 57.046875 -59.09375 55.578125 -59.09375 C 54.023438 -59.09375 51.863281 -58.242188 49.09375 -56.546875 C 46.320312 -54.859375 43.289062 -52.5 40 -49.46875 C 35.84375 -45.75 31.425781 -41.332031 26.75 -36.21875 C 22.070312 -31.113281 17.65625 -26.007812 13.5 -20.90625 Z M 13.5 -20.90625 "/></g></g></g><g fill="#fab204" fill-opacity="1"><g transform="translate(609.301771, 183.374985)"><g><path d="M -0.515625 0 C -1.210938 0 -1.664062 -0.234375 -1.875 -0.703125 C -2.09375 -1.179688 -2.03125 -1.769531 -1.6875 -2.46875 C -0.0390625 -5.238281 1.882812 -8.613281 4.09375 -12.59375 C 6.300781 -16.570312 8.59375 -20.75 10.96875 -25.125 C 13.351562 -29.5 15.539062 -33.738281 17.53125 -37.84375 C 19.519531 -41.957031 21.140625 -45.59375 22.390625 -48.75 C 23.648438 -51.914062 24.28125 -54.191406 24.28125 -55.578125 C 24.28125 -57.828125 23.15625 -58.953125 20.90625 -58.953125 C 19.519531 -58.953125 17.785156 -58.367188 15.703125 -57.203125 C 13.628906 -56.035156 11.125 -54.109375 8.1875 -51.421875 L 7.140625 -52.71875 C 11.898438 -57.050781 16.160156 -60.34375 19.921875 -62.59375 C 23.691406 -64.84375 26.660156 -65.96875 28.828125 -65.96875 C 31.335938 -65.96875 33.066406 -65.207031 34.015625 -63.6875 C 34.972656 -62.175781 35.453125 -60.6875 35.453125 -59.21875 C 35.453125 -57.65625 34.929688 -55.378906 33.890625 -52.390625 C 32.847656 -49.410156 31.460938 -46.015625 29.734375 -42.203125 C 32.765625 -46.703125 35.988281 -50.726562 39.40625 -54.28125 C 42.832031 -57.832031 46.578125 -60.664062 50.640625 -62.78125 C 54.710938 -64.90625 59.171875 -65.96875 64.015625 -65.96875 C 65.578125 -65.96875 67.242188 -65.769531 69.015625 -65.375 C 70.796875 -64.988281 71.6875 -64.273438 71.6875 -63.234375 C 71.6875 -62.203125 71.226562 -61.015625 70.3125 -59.671875 C 69.40625 -58.328125 68.257812 -57.15625 66.875 -56.15625 C 65.488281 -55.164062 63.972656 -54.671875 62.328125 -54.671875 C 60.253906 -54.671875 57.9375 -54.882812 55.375 -55.3125 C 52.820312 -55.75 49.6875 -56.53125 45.96875 -57.65625 C 42.332031 -55.320312 38.476562 -51.445312 34.40625 -46.03125 C 30.34375 -40.625 26.445312 -34.585938 22.71875 -27.921875 C 20.726562 -24.023438 18.757812 -20.28125 16.8125 -16.6875 C 14.863281 -13.09375 13.109375 -9.953125 11.546875 -7.265625 C 9.992188 -4.585938 8.828125 -2.640625 8.046875 -1.421875 C 7.441406 -0.472656 6.664062 0 5.71875 0 Z M -0.515625 0 "/></g></g></g><g fill="#fab204" fill-opacity="1"><g transform="translate(670.074059, 183.374985)"><g><path d="M 16.875 0.90625 C 13.332031 0.90625 10.4375 0.171875 8.1875 -1.296875 C 5.9375 -2.765625 4.269531 -4.664062 3.1875 -7 C 2.101562 -9.34375 1.5625 -11.769531 1.5625 -14.28125 C 1.5625 -18.875 2.617188 -23.59375 4.734375 -28.4375 C 6.859375 -33.289062 9.691406 -37.945312 13.234375 -42.40625 C 16.785156 -46.863281 20.75 -50.863281 25.125 -54.40625 C 29.5 -57.957031 33.976562 -60.769531 38.5625 -62.84375 C 43.15625 -64.925781 47.484375 -65.96875 51.546875 -65.96875 C 54.929688 -65.96875 57.46875 -65.273438 59.15625 -63.890625 C 60.84375 -62.503906 61.6875 -60.6875 61.6875 -58.4375 C 61.6875 -56.351562 60.945312 -54.117188 59.46875 -51.734375 C 58 -49.359375 55.46875 -46.613281 51.875 -43.5 C 48.28125 -40.382812 43.320312 -36.660156 37 -32.328125 C 30.6875 -28.003906 22.679688 -22.769531 12.984375 -16.625 C 13.421875 -13.59375 14.613281 -11.101562 16.5625 -9.15625 C 18.507812 -7.207031 21.34375 -6.234375 25.0625 -6.234375 C 27.3125 -6.234375 30.082031 -6.816406 33.375 -7.984375 C 36.664062 -9.148438 40.5625 -11.726562 45.0625 -15.71875 L 46.09375 -14.546875 C 40.382812 -9.265625 34.910156 -5.367188 29.671875 -2.859375 C 24.429688 -0.347656 20.164062 0.90625 16.875 0.90625 Z M 12.859375 -18.4375 C 22.035156 -24.15625 29.367188 -29.113281 34.859375 -33.3125 C 40.359375 -37.507812 44.363281 -41.273438 46.875 -44.609375 C 49.382812 -47.941406 50.640625 -51.164062 50.640625 -54.28125 C 50.640625 -56.445312 49.925781 -58.113281 48.5 -59.28125 C 47.070312 -60.445312 45.273438 -61.03125 43.109375 -61.03125 C 39.816406 -61.03125 36.632812 -60.117188 33.5625 -58.296875 C 30.488281 -56.484375 27.675781 -54.0625 25.125 -51.03125 C 22.570312 -48 20.363281 -44.625 18.5 -40.90625 C 16.644531 -37.1875 15.21875 -33.398438 14.21875 -29.546875 C 13.21875 -25.691406 12.765625 -22.03125 12.859375 -18.5625 Z M 12.859375 -18.4375 "/></g></g></g></svg>