<svg xmlns="http://www.w3.org/2000/svg" xmlns:xlink="http://www.w3.org/1999/xlink" width="512" zoomAndPan="magnify" viewBox="0 0 384 383.999986" height="512" preserveAspectRatio="xMidYMid meet" version="1.0"><path fill="#000000" d="M 311.519531 82.453125 C 349.664062 120.597656 364.796875 173.03125 356.9375 222.523438 C 362.703125 176.632812 347.976562 128.65625 312.738281 93.417969 C 252.175781 32.855469 153.984375 32.855469 93.421875 93.417969 C 32.855469 153.984375 32.855469 252.175781 93.421875 312.738281 C 128.65625 347.976562 176.632812 362.703125 222.523438 356.9375 C 173.03125 364.796875 120.597656 349.664062 82.453125 311.519531 C 19.199219 248.265625 19.199219 145.707031 82.453125 82.453125 C 145.707031 19.199219 248.265625 19.199219 311.519531 82.453125 Z M 311.519531 82.453125 " fill-opacity="1" fill-rule="evenodd"/><path fill="#fab204" d="M 293.855469 113.726562 C 343.597656 163.46875 343.597656 244.113281 293.855469 293.855469 C 244.113281 343.597656 163.46875 343.597656 113.726562 293.855469 C 89.695312 269.820312 77.273438 238.574219 76.464844 207.082031 C 78.035156 236.269531 89.960938 265.007812 112.257812 287.308594 C 160.226562 335.277344 238.003906 335.277344 285.972656 287.308594 C 333.941406 239.339844 333.941406 161.5625 285.972656 113.59375 C 253.363281 80.988281 206.988281 70.554688 165.558594 82.277344 C 209.371094 68.53125 259.140625 79.011719 293.855469 113.726562 Z M 293.855469 113.726562 " fill-opacity="1" fill-rule="evenodd"/><path fill="#fab204" d="M 243.621094 151.34375 C 242.488281 152.523438 240.59375 152.5625 239.410156 151.425781 L 215.066406 128.019531 L 204.539062 117.898438 C 202.675781 116.109375 199.960938 118.933594 201.824219 120.722656 L 212.351562 130.84375 L 236.695312 154.25 C 237.878906 155.382812 237.914062 157.277344 236.78125 158.460938 C 235.644531 159.640625 233.75 159.675781 232.570312 158.542969 L 208.222656 135.136719 L 197.695312 125.015625 C 195.933594 123.324219 193.53125 125.605469 194.671875 127.457031 L 231.613281 169.214844 C 236.730469 174.984375 244.648438 176.539062 251.769531 174.507812 C 257.78125 173.871094 264.027344 175.78125 268.707031 180.269531 C 288.179688 199.65625 305.152344 217.789062 321.832031 236.160156 C 323.222656 231.070312 324.269531 225.90625 324.992188 220.707031 C 308.164062 206.488281 291.371094 191.839844 273.515625 175.269531 C 268.84375 170.769531 266.691406 164.601562 267.089844 158.570312 C 268.84375 151.375 266.972656 143.523438 261.007812 138.636719 L 217.828125 103.371094 C 215.929688 102.300781 213.746094 104.796875 215.507812 106.488281 L 226.035156 116.609375 L 250.378906 140.015625 C 251.5625 141.148438 251.597656 143.042969 250.464844 144.222656 C 249.328125 145.40625 247.433594 145.441406 246.253906 144.308594 L 221.90625 120.902344 L 211.378906 110.78125 C 209.519531 108.992188 206.804688 111.816406 208.664062 113.605469 L 219.191406 123.726562 L 243.539062 147.132812 C 244.71875 148.265625 244.757812 150.160156 243.621094 151.339844 Z M 243.621094 151.34375 " fill-opacity="1" fill-rule="evenodd"/><path fill="#fab204" d="M 301.84375 277.144531 C 276.539062 256.234375 252.546875 236.042969 226.191406 211.582031 C 217.992188 203.6875 220.105469 189.910156 217.339844 177.660156 C 212.296875 155.335938 171.40625 132.929688 155.96875 148.796875 C 140.722656 164.847656 164.722656 204.824219 187.230469 208.984375 C 199.574219 211.265625 213.261719 208.613281 221.472656 216.492188 C 247.195312 242.105469 268.476562 265.484375 290.589844 290.203125 C 294.699219 286.058594 298.449219 281.691406 301.84375 277.144531 Z M 301.84375 277.144531 " fill-opacity="1" fill-rule="evenodd"/><path fill="#fab204" d="M 255.148438 315.164062 C 248.503906 309.214844 241.714844 303.023438 234.25 296.101562 C 222.664062 285.359375 231.285156 275.722656 220.445312 259.898438 C 213.546875 249.828125 139.148438 201.289062 131.488281 204.167969 C 129.800781 204.800781 127.648438 206.804688 131.042969 210.515625 C 159.5625 238.738281 205.238281 281.570312 243.046875 320.015625 C 247.148438 318.621094 251.1875 317.007812 255.152344 315.164062 Z M 255.148438 315.164062 " fill-opacity="1" fill-rule="evenodd"/></svg>