<svg xmlns="http://www.w3.org/2000/svg" xmlns:xlink="http://www.w3.org/1999/xlink" width="200" zoomAndPan="magnify" viewBox="0 0 150 149.999998" height="200" preserveAspectRatio="xMidYMid meet" version="1.0"><defs><clipPath id="a327e23fb5"><path d="M 71.589844 9.507812 L 71.945312 9.507812 L 71.945312 9.839844 L 71.589844 9.839844 Z M 71.589844 9.507812 " clip-rule="nonzero"/></clipPath><clipPath id="744d24a254"><path d="M 71.925781 9.75 C 71.25 9.976562 71.851562 9.523438 71.851562 9.523438 " clip-rule="nonzero"/></clipPath><clipPath id="b19628a001"><path d="M 0.589844 0.507812 L 0.945312 0.507812 L 0.945312 0.839844 L 0.589844 0.839844 Z M 0.589844 0.507812 " clip-rule="nonzero"/></clipPath><clipPath id="ac8e84932b"><path d="M 0.925781 0.75 C 0.25 0.976562 0.851562 0.523438 0.851562 0.523438 " clip-rule="nonzero"/></clipPath><clipPath id="31f82886be"><rect x="0" width="1" y="0" height="1"/></clipPath><clipPath id="570a2b0c60"><path d="M 25.238281 28.105469 L 25.597656 28.105469 L 25.597656 28.4375 L 25.238281 28.4375 Z M 25.238281 28.105469 " clip-rule="nonzero"/></clipPath><clipPath id="65edcb7b78"><path d="M 25.574219 28.351562 C 24.898438 28.574219 25.5 28.125 25.5 28.125 " clip-rule="nonzero"/></clipPath><clipPath id="239577a35f"><path d="M 0.238281 0.105469 L 0.597656 0.105469 L 0.597656 0.4375 L 0.238281 0.4375 Z M 0.238281 0.105469 " clip-rule="nonzero"/></clipPath><clipPath id="b4f471f366"><path d="M 0.574219 0.351562 C -0.101562 0.574219 0.5 0.125 0.5 0.125 " clip-rule="nonzero"/></clipPath><clipPath id="28ce439db6"><rect x="0" width="1" y="0" height="1"/></clipPath><clipPath id="4fd021d301"><path d="M 37 109 L 144.910156 109 L 144.910156 126 L 37 126 Z M 37 109 " clip-rule="nonzero"/></clipPath><clipPath id="2e32d37197"><path d="M 5.410156 107 L 27.402344 107 L 27.402344 128.179688 L 5.410156 128.179688 Z M 5.410156 107 " clip-rule="nonzero"/></clipPath><clipPath id="fa56401895"><path d="M 37 67 L 144.910156 67 L 144.910156 84 L 37 84 Z M 37 67 " clip-rule="nonzero"/></clipPath><clipPath id="358b621756"><path d="M 5.410156 64 L 28 64 L 28 86 L 5.410156 86 Z M 5.410156 64 " clip-rule="nonzero"/></clipPath><clipPath id="a94ce0476d"><path d="M 37 24 L 144.910156 24 L 144.910156 41 L 37 41 Z M 37 24 " clip-rule="nonzero"/></clipPath><clipPath id="c01485779b"><path d="M 5.410156 21.679688 L 28 21.679688 L 28 43 L 5.410156 43 Z M 5.410156 21.679688 " clip-rule="nonzero"/></clipPath><clipPath id="ca6adc1e7f"><path d="M 14.289062 32.007812 L 14.644531 32.007812 L 14.644531 32.339844 L 14.289062 32.339844 Z M 14.289062 32.007812 " clip-rule="nonzero"/></clipPath><clipPath id="e4c8a18c38"><path d="M 14.625 32.25 C 13.949219 32.476562 14.550781 32.023438 14.550781 32.023438 " clip-rule="nonzero"/></clipPath><clipPath id="cd08ff11a1"><path d="M 0.289062 0.0078125 L 0.640625 0.0078125 L 0.640625 0.339844 L 0.289062 0.339844 Z M 0.289062 0.0078125 " clip-rule="nonzero"/></clipPath><clipPath id="2435cac2fc"><path d="M 0.625 0.25 C -0.0507812 0.476562 0.550781 0.0234375 0.550781 0.0234375 " clip-rule="nonzero"/></clipPath><clipPath id="c12c2d7683"><rect x="0" width="1" y="0" height="1"/></clipPath><clipPath id="95bf468b66"><path d="M 57.9375 75.207031 L 58.296875 75.207031 L 58.296875 75.539062 L 57.9375 75.539062 Z M 57.9375 75.207031 " clip-rule="nonzero"/></clipPath><clipPath id="919b3cc5a7"><path d="M 58.273438 75.449219 C 57.601562 75.675781 58.199219 75.226562 58.199219 75.226562 " clip-rule="nonzero"/></clipPath><clipPath id="d0c0c4cea3"><path d="M 0.9375 0.207031 L 1.296875 0.207031 L 1.296875 0.539062 L 0.9375 0.539062 Z M 0.9375 0.207031 " clip-rule="nonzero"/></clipPath><clipPath id="3d24be01a1"><path d="M 1.273438 0.449219 C 0.601562 0.675781 1.199219 0.226562 1.199219 0.226562 " clip-rule="nonzero"/></clipPath><clipPath id="4561b3eb9b"><rect x="0" width="2" y="0" height="1"/></clipPath></defs><g clip-path="url(#a327e23fb5)"><g clip-path="url(#744d24a254)"><g transform="matrix(1, 0, 0, 1, 71, 9)"><g clip-path="url(#31f82886be)"><g clip-path="url(#b19628a001)"><g clip-path="url(#ac8e84932b)"><rect x="-104" width="216" fill="#000000" height="215.999996" y="-41.999999" fill-opacity="1"/></g></g></g></g></g></g><g clip-path="url(#570a2b0c60)"><g clip-path="url(#65edcb7b78)"><g transform="matrix(1, 0, 0, 1, 25, 28)"><g clip-path="url(#28ce439db6)"><g clip-path="url(#239577a35f)"><g clip-path="url(#b4f471f366)"><rect x="-58" width="216" fill="#ffffff" height="215.999996" y="-60.999999" fill-opacity="1"/></g></g></g></g></g></g><g clip-path="url(#4fd021d301)"><path fill="#ff8c42" d="M 144.582031 117.855469 C 144.582031 113.453125 141.015625 109.886719 136.617188 109.886719 L 45.78125 109.886719 C 41.382812 109.886719 37.8125 113.453125 37.8125 117.855469 C 37.8125 122.253906 41.382812 125.824219 45.78125 125.824219 L 136.617188 125.824219 C 141.015625 125.824219 144.582031 122.253906 144.582031 117.855469 " fill-opacity="1" fill-rule="nonzero"/></g><g clip-path="url(#2e32d37197)"><path fill="#ff8c42" d="M 16.035156 128.300781 L 16.566406 128.300781 C 22.433594 128.300781 27.191406 123.542969 27.191406 117.675781 C 27.191406 111.808594 22.433594 107.054688 16.566406 107.054688 L 16.035156 107.054688 C 10.167969 107.054688 5.410156 111.808594 5.410156 117.675781 C 5.410156 123.542969 10.167969 128.300781 16.035156 128.300781 " fill-opacity="1" fill-rule="nonzero"/></g><g clip-path="url(#fa56401895)"><path fill="#ff8c42" d="M 136.617188 67.125 L 45.78125 67.125 C 41.382812 67.125 37.8125 70.691406 37.8125 75.09375 C 37.8125 79.496094 41.382812 83.0625 45.78125 83.0625 L 136.617188 83.0625 C 141.015625 83.0625 144.582031 79.496094 144.582031 75.09375 C 144.582031 70.691406 141.015625 67.125 136.617188 67.125 " fill-opacity="1" fill-rule="nonzero"/></g><g clip-path="url(#358b621756)"><path fill="#ff8c42" d="M 16.566406 64.46875 L 16.035156 64.46875 C 10.167969 64.46875 5.410156 69.226562 5.410156 75.09375 C 5.410156 80.960938 10.167969 85.71875 16.035156 85.71875 L 16.566406 85.71875 C 22.433594 85.71875 27.191406 80.960938 27.191406 75.09375 C 27.191406 69.226562 22.433594 64.46875 16.566406 64.46875 " fill-opacity="1" fill-rule="nonzero"/></g><g clip-path="url(#a94ce0476d)"><path fill="#ff8c42" d="M 37.8125 32.332031 C 37.8125 36.734375 41.382812 40.300781 45.78125 40.300781 L 136.617188 40.300781 C 141.015625 40.300781 144.582031 36.734375 144.582031 32.332031 C 144.582031 27.933594 141.015625 24.367188 136.617188 24.367188 L 45.78125 24.367188 C 41.382812 24.367188 37.8125 27.933594 37.8125 32.332031 " fill-opacity="1" fill-rule="nonzero"/></g><g clip-path="url(#c01485779b)"><path fill="#ff8c42" d="M 16.566406 21.710938 L 16.035156 21.710938 C 10.167969 21.710938 5.410156 26.464844 5.410156 32.332031 C 5.410156 38.199219 10.167969 42.957031 16.035156 42.957031 L 16.566406 42.957031 C 22.433594 42.957031 27.191406 38.199219 27.191406 32.332031 C 27.191406 26.464844 22.433594 21.710938 16.566406 21.710938 " fill-opacity="1" fill-rule="nonzero"/></g><g clip-path="url(#ca6adc1e7f)"><g clip-path="url(#e4c8a18c38)"><g transform="matrix(1, 0, 0, 1, 14, 32)"><g clip-path="url(#c12c2d7683)"><g clip-path="url(#cd08ff11a1)"><g clip-path="url(#2435cac2fc)"><rect x="-47" width="216" fill="#0c3a61" height="215.999996" y="-64.999999" fill-opacity="1"/></g></g></g></g></g></g><g clip-path="url(#95bf468b66)"><g clip-path="url(#919b3cc5a7)"><g transform="matrix(1, 0, 0, 1, 57, 75)"><g clip-path="url(#4561b3eb9b)"><g clip-path="url(#d0c0c4cea3)"><g clip-path="url(#3d24be01a1)"><rect x="-90" width="216" fill="#ff8c42" height="215.999996" y="-107.999999" fill-opacity="1"/></g></g></g></g></g></g></svg>