<svg xmlns="http://www.w3.org/2000/svg" xmlns:xlink="http://www.w3.org/1999/xlink" width="600" zoomAndPan="magnify" viewBox="0 0 450 449.999984" height="600" preserveAspectRatio="xMidYMid meet" version="1.0"><defs><g/></defs><path fill="#000000" d="M 393.800781 71.25 L 396.015625 73.464844 C 399.117188 76.566406 398.75 82.328125 395.128906 87.425781 L 385.832031 100.507812 C 385.007812 101.667969 384.269531 102.882812 383.621094 104.152344 C 382.96875 105.417969 382.414062 106.726562 381.949219 108.074219 C 381.488281 109.421875 381.125 110.792969 380.859375 112.191406 C 380.589844 113.59375 380.425781 115.003906 380.363281 116.425781 C 380.296875 117.847656 380.335938 119.269531 380.476562 120.6875 C 380.613281 122.105469 380.855469 123.503906 381.195312 124.886719 C 381.535156 126.269531 381.972656 127.621094 382.503906 128.945312 C 383.039062 130.265625 383.664062 131.539062 384.378906 132.769531 L 384.570312 133.101562 C 385.277344 134.335938 386.070312 135.511719 386.949219 136.636719 C 387.828125 137.757812 388.78125 138.8125 389.808594 139.796875 C 390.835938 140.78125 391.929688 141.6875 393.085938 142.519531 C 394.246094 143.347656 395.457031 144.089844 396.71875 144.746094 C 397.984375 145.402344 399.289062 145.964844 400.632812 146.433594 C 401.976562 146.902344 403.347656 147.273438 404.746094 147.546875 C 406.144531 147.820312 407.554688 147.992188 408.976562 148.066406 C 410.398438 148.136719 411.820312 148.105469 413.238281 147.976562 L 429.21875 146.460938 C 435.4375 145.875 440.613281 148.441406 441.746094 152.671875 L 448.871094 179.269531 C 450.003906 183.507812 446.808594 188.316406 441.125 190.914062 L 426.472656 197.625 C 425.179688 198.21875 423.933594 198.902344 422.742188 199.675781 C 421.546875 200.445312 420.410156 201.300781 419.339844 202.234375 C 418.265625 203.167969 417.265625 204.171875 416.335938 205.25 C 415.40625 206.328125 414.558594 207.464844 413.792969 208.664062 C 413.027344 209.863281 412.351562 211.109375 411.761719 212.40625 C 411.175781 213.699219 410.683594 215.03125 410.285156 216.398438 C 409.890625 217.765625 409.589844 219.152344 409.390625 220.558594 C 409.195312 221.96875 409.097656 223.382812 409.101562 224.804688 L 409.101562 225.183594 C 409.097656 226.605469 409.195312 228.023438 409.390625 229.429688 C 409.589844 230.839844 409.890625 232.226562 410.285156 233.59375 C 410.683594 234.957031 411.175781 236.289062 411.761719 237.585938 C 412.351562 238.878906 413.027344 240.128906 413.792969 241.324219 C 414.558594 242.523438 415.40625 243.664062 416.335938 244.738281 C 417.265625 245.816406 418.265625 246.824219 419.339844 247.757812 C 420.410156 248.691406 421.546875 249.542969 422.742188 250.316406 C 423.933594 251.085938 425.179688 251.769531 426.472656 252.363281 L 441.125 259.074219 C 446.796875 261.675781 450.003906 266.484375 448.871094 270.71875 L 441.742188 297.316406 C 440.609375 301.550781 435.433594 304.117188 429.214844 303.527344 L 413.234375 302.015625 C 411.816406 301.882812 410.394531 301.855469 408.972656 301.925781 C 407.550781 301.996094 406.140625 302.167969 404.742188 302.441406 C 403.347656 302.714844 401.976562 303.085938 400.628906 303.554688 C 399.285156 304.027344 397.980469 304.589844 396.71875 305.242188 C 395.453125 305.898438 394.242188 306.644531 393.085938 307.472656 C 391.925781 308.300781 390.832031 309.207031 389.804688 310.195312 C 388.777344 311.179688 387.824219 312.234375 386.945312 313.355469 C 386.070312 314.476562 385.277344 315.65625 384.566406 316.890625 L 384.375 317.21875 C 383.660156 318.449219 383.035156 319.726562 382.503906 321.046875 C 381.96875 322.367188 381.53125 323.71875 381.191406 325.101562 C 380.851562 326.484375 380.613281 327.886719 380.472656 329.304688 C 380.335938 330.722656 380.296875 332.140625 380.359375 333.5625 C 380.425781 334.988281 380.589844 336.398438 380.855469 337.796875 C 381.121094 339.195312 381.484375 340.570312 381.949219 341.917969 C 382.410156 343.265625 382.96875 344.570312 383.617188 345.839844 C 384.265625 347.105469 385.003906 348.320312 385.828125 349.484375 L 395.128906 362.566406 C 398.75 367.660156 399.113281 373.425781 396.015625 376.523438 L 376.542969 395.996094 C 373.441406 399.097656 367.679688 398.730469 362.585938 395.109375 L 349.5 385.808594 C 348.339844 384.984375 347.125 384.25 345.859375 383.597656 C 344.589844 382.949219 343.28125 382.390625 341.9375 381.929688 C 340.589844 381.46875 339.214844 381.101562 337.816406 380.835938 C 336.417969 380.570312 335.007812 380.40625 333.582031 380.339844 C 332.160156 380.277344 330.738281 380.316406 329.324219 380.453125 C 327.90625 380.59375 326.503906 380.832031 325.121094 381.171875 C 323.738281 381.511719 322.386719 381.949219 321.066406 382.484375 C 319.746094 383.015625 318.46875 383.640625 317.238281 384.359375 L 316.910156 384.550781 C 315.675781 385.257812 314.496094 386.050781 313.375 386.929688 C 312.253906 387.804688 311.199219 388.757812 310.214844 389.785156 C 309.226562 390.8125 308.320312 391.90625 307.492188 393.066406 C 306.660156 394.222656 305.917969 395.433594 305.261719 396.699219 C 304.605469 397.960938 304.042969 399.265625 303.574219 400.609375 C 303.105469 401.957031 302.734375 403.328125 302.460938 404.722656 C 302.1875 406.121094 302.015625 407.53125 301.945312 408.953125 C 301.871094 410.378906 301.902344 411.796875 302.035156 413.214844 L 303.546875 429.195312 C 304.136719 435.417969 301.570312 440.59375 297.335938 441.722656 L 270.738281 448.851562 C 266.503906 449.984375 261.695312 446.789062 259.09375 441.105469 L 252.382812 426.453125 C 251.789062 425.160156 251.105469 423.917969 250.335938 422.722656 C 249.5625 421.527344 248.710938 420.394531 247.777344 419.320312 C 246.84375 418.246094 245.835938 417.246094 244.757812 416.316406 C 243.679688 415.386719 242.542969 414.539062 241.34375 413.773438 C 240.144531 413.007812 238.898438 412.332031 237.605469 411.746094 C 236.308594 411.15625 234.976562 410.664062 233.613281 410.265625 C 232.246094 409.871094 230.859375 409.570312 229.449219 409.375 C 228.042969 409.175781 226.625 409.078125 225.203125 409.082031 L 224.824219 409.082031 C 223.402344 409.078125 221.988281 409.175781 220.578125 409.375 C 219.171875 409.570312 217.78125 409.871094 216.417969 410.265625 C 215.050781 410.664062 213.71875 411.15625 212.425781 411.746094 C 211.128906 412.332031 209.882812 413.007812 208.683594 413.773438 C 207.484375 414.539062 206.347656 415.386719 205.269531 416.316406 C 204.191406 417.246094 203.1875 418.246094 202.253906 419.320312 C 201.320312 420.394531 200.464844 421.527344 199.695312 422.722656 C 198.921875 423.917969 198.238281 425.160156 197.644531 426.453125 L 190.933594 441.105469 C 188.332031 446.777344 183.523438 449.984375 179.289062 448.851562 L 152.691406 441.726562 C 148.460938 440.589844 145.894531 435.417969 146.480469 429.199219 L 147.996094 413.21875 C 148.125 411.800781 148.15625 410.378906 148.085938 408.957031 C 148.011719 407.535156 147.839844 406.125 147.566406 404.726562 C 147.292969 403.328125 146.921875 401.957031 146.453125 400.613281 C 145.984375 399.269531 145.421875 397.964844 144.765625 396.699219 C 144.109375 395.4375 143.367188 394.226562 142.539062 393.066406 C 141.707031 391.910156 140.800781 390.816406 139.816406 389.789062 C 138.828125 388.761719 137.777344 387.808594 136.65625 386.929688 C 135.53125 386.054688 134.355469 385.261719 133.117188 384.550781 L 132.789062 384.359375 C 131.558594 383.644531 130.28125 383.019531 128.960938 382.484375 C 127.640625 381.953125 126.289062 381.515625 124.90625 381.175781 C 123.523438 380.835938 122.125 380.597656 120.707031 380.457031 C 119.289062 380.316406 117.867188 380.28125 116.445312 380.34375 C 115.023438 380.40625 113.613281 380.574219 112.210938 380.839844 C 110.8125 381.105469 109.441406 381.46875 108.09375 381.933594 C 106.746094 382.394531 105.4375 382.949219 104.171875 383.601562 C 102.902344 384.25 101.6875 384.988281 100.527344 385.8125 L 87.441406 395.113281 C 86.96875 395.445312 86.496094 395.75 86.023438 396.027344 L 18.949219 446.101562 L 139.980469 325.070312 C 193.144531 370.261719 274.472656 366.195312 322.578125 312.890625 C 366.722656 263.96875 367.558594 189.84375 325.082031 139.96875 Z M 393.800781 71.25 " fill-opacity="1" fill-rule="nonzero"/><path fill="#f7931e" d="M 431.570312 3.402344 L 310.035156 124.933594 C 256.875 79.742188 175.542969 83.808594 127.441406 137.113281 C 83.292969 186.035156 82.460938 260.160156 124.9375 310.035156 L 56.21875 378.753906 L 54.003906 376.539062 C 50.902344 373.4375 51.269531 367.675781 54.886719 362.582031 L 64.191406 349.496094 C 65.015625 348.335938 65.75 347.121094 66.402344 345.851562 C 67.050781 344.585938 67.609375 343.277344 68.070312 341.929688 C 68.53125 340.585938 68.898438 339.210938 69.164062 337.8125 C 69.429688 336.414062 69.59375 335 69.65625 333.578125 C 69.722656 332.15625 69.683594 330.734375 69.546875 329.316406 C 69.40625 327.902344 69.167969 326.5 68.828125 325.117188 C 68.488281 323.734375 68.050781 322.382812 67.515625 321.0625 C 66.984375 319.742188 66.359375 318.464844 65.640625 317.234375 L 65.449219 316.90625 C 64.742188 315.667969 63.949219 314.492188 63.070312 313.371094 C 62.191406 312.246094 61.238281 311.195312 60.210938 310.207031 C 59.183594 309.222656 58.089844 308.316406 56.929688 307.488281 C 55.773438 306.65625 54.5625 305.914062 53.296875 305.257812 C 52.03125 304.605469 50.726562 304.042969 49.382812 303.574219 C 48.039062 303.105469 46.664062 302.734375 45.269531 302.460938 C 43.871094 302.1875 42.460938 302.015625 41.035156 301.945312 C 39.613281 301.875 38.195312 301.902344 36.773438 302.035156 L 20.792969 303.550781 C 14.574219 304.136719 9.398438 301.570312 8.265625 297.339844 L 1.140625 270.738281 C 0.0078125 266.503906 3.203125 261.695312 8.882812 259.097656 L 23.539062 252.386719 C 24.832031 251.792969 26.074219 251.109375 27.269531 250.335938 C 28.464844 249.566406 29.597656 248.710938 30.671875 247.777344 C 31.742188 246.84375 32.746094 245.839844 33.671875 244.761719 C 34.601562 243.683594 35.449219 242.546875 36.214844 241.347656 C 36.980469 240.148438 37.660156 238.902344 38.246094 237.605469 C 38.832031 236.3125 39.328125 234.980469 39.722656 233.613281 C 40.121094 232.246094 40.417969 230.859375 40.617188 229.453125 C 40.816406 228.042969 40.914062 226.628906 40.910156 225.207031 L 40.910156 224.828125 C 40.914062 223.40625 40.816406 221.988281 40.617188 220.582031 C 40.417969 219.171875 40.121094 217.785156 39.722656 216.417969 C 39.328125 215.054688 38.832031 213.722656 38.246094 212.425781 C 37.660156 211.132812 36.980469 209.882812 36.214844 208.6875 C 35.449219 207.488281 34.601562 206.347656 33.671875 205.273438 C 32.746094 204.195312 31.742188 203.1875 30.671875 202.253906 C 29.597656 201.320312 28.464844 200.46875 27.269531 199.695312 C 26.074219 198.925781 24.832031 198.242188 23.539062 197.648438 L 8.882812 190.9375 C 3.210938 188.335938 0.00390625 183.527344 1.140625 179.292969 L 8.273438 152.667969 C 9.40625 148.433594 14.582031 145.867188 20.796875 146.457031 L 36.78125 147.96875 C 38.199219 148.101562 39.617188 148.128906 41.039062 148.058594 C 42.464844 147.988281 43.871094 147.816406 45.269531 147.542969 C 46.667969 147.269531 48.039062 146.898438 49.382812 146.425781 C 50.730469 145.957031 52.03125 145.394531 53.296875 144.738281 C 54.5625 144.082031 55.773438 143.339844 56.929688 142.511719 C 58.089844 141.683594 59.179688 140.773438 60.207031 139.789062 C 61.238281 138.804688 62.191406 137.75 63.066406 136.628906 C 63.945312 135.507812 64.738281 134.328125 65.445312 133.09375 L 65.636719 132.765625 C 66.355469 131.535156 66.976562 130.257812 67.511719 128.9375 C 68.042969 127.617188 68.480469 126.265625 68.820312 124.882812 C 69.160156 123.5 69.402344 122.101562 69.539062 120.683594 C 69.679688 119.265625 69.71875 117.847656 69.652344 116.421875 C 69.589844 115 69.425781 113.589844 69.160156 112.191406 C 68.894531 110.792969 68.53125 109.417969 68.066406 108.074219 C 67.605469 106.726562 67.050781 105.417969 66.398438 104.152344 C 65.75 102.882812 65.015625 101.667969 64.191406 100.507812 L 54.890625 87.425781 C 51.269531 82.332031 50.90625 76.566406 54.003906 73.464844 L 73.476562 53.996094 C 76.574219 50.894531 82.335938 51.261719 87.433594 54.882812 L 100.515625 64.183594 C 101.679688 65.003906 102.894531 65.742188 104.160156 66.390625 C 105.429688 67.042969 106.734375 67.597656 108.082031 68.0625 C 109.429688 68.523438 110.804688 68.886719 112.203125 69.152344 C 113.601562 69.417969 115.011719 69.585938 116.4375 69.648438 C 117.859375 69.710938 119.277344 69.675781 120.695312 69.535156 C 122.113281 69.394531 123.515625 69.15625 124.898438 68.816406 C 126.28125 68.476562 127.632812 68.039062 128.953125 67.507812 C 130.273438 66.972656 131.550781 66.347656 132.78125 65.632812 L 133.109375 65.441406 C 134.34375 64.734375 135.523438 63.941406 136.644531 63.0625 C 137.765625 62.183594 138.820312 61.230469 139.804688 60.203125 C 140.792969 59.175781 141.699219 58.082031 142.527344 56.925781 C 143.355469 55.765625 144.101562 54.554688 144.753906 53.292969 C 145.410156 52.027344 145.972656 50.722656 146.445312 49.378906 C 146.914062 48.035156 147.285156 46.664062 147.558594 45.265625 C 147.832031 43.867188 148.003906 42.457031 148.074219 41.035156 C 148.144531 39.613281 148.117188 38.191406 147.984375 36.773438 L 146.472656 20.792969 C 145.882812 14.574219 148.449219 9.398438 152.683594 8.265625 L 179.28125 1.140625 C 183.515625 0.0078125 188.324219 3.203125 190.925781 8.882812 L 197.636719 23.539062 C 198.230469 24.832031 198.914062 26.074219 199.683594 27.269531 C 200.457031 28.464844 201.308594 29.597656 202.242188 30.671875 C 203.175781 31.742188 204.183594 32.746094 205.261719 33.671875 C 206.335938 34.601562 207.476562 35.449219 208.675781 36.214844 C 209.871094 36.980469 211.121094 37.660156 212.414062 38.246094 C 213.710938 38.832031 215.042969 39.328125 216.40625 39.722656 C 217.773438 40.121094 219.160156 40.417969 220.570312 40.617188 C 221.976562 40.816406 223.394531 40.914062 224.816406 40.910156 L 225.195312 40.910156 C 226.617188 40.914062 228.03125 40.816406 229.441406 40.617188 C 230.847656 40.417969 232.234375 40.121094 233.601562 39.722656 C 234.96875 39.328125 236.300781 38.832031 237.59375 38.246094 C 238.890625 37.660156 240.136719 36.980469 241.335938 36.214844 C 242.535156 35.449219 243.671875 34.601562 244.75 33.671875 C 245.828125 32.746094 246.832031 31.742188 247.765625 30.671875 C 248.699219 29.597656 249.554688 28.464844 250.324219 27.269531 C 251.097656 26.074219 251.78125 24.832031 252.375 23.539062 L 259.085938 8.882812 C 261.683594 3.210938 266.496094 0.00390625 270.726562 1.140625 L 297.339844 8.261719 C 301.574219 9.390625 304.136719 14.566406 303.550781 20.785156 L 302.035156 36.769531 C 301.90625 38.1875 301.875 39.605469 301.945312 41.027344 C 302.019531 42.449219 302.191406 43.859375 302.464844 45.257812 C 302.738281 46.65625 303.109375 48.027344 303.578125 49.371094 C 304.046875 50.71875 304.609375 52.019531 305.265625 53.285156 C 305.921875 54.550781 306.664062 55.761719 307.492188 56.917969 C 308.324219 58.074219 309.230469 59.167969 310.214844 60.195312 C 311.199219 61.226562 312.253906 62.179688 313.375 63.054688 C 314.5 63.933594 315.675781 64.726562 316.910156 65.433594 L 317.242188 65.625 C 318.472656 66.34375 319.746094 66.964844 321.066406 67.5 C 322.390625 68.035156 323.742188 68.46875 325.125 68.808594 C 326.507812 69.148438 327.90625 69.390625 329.324219 69.527344 C 330.742188 69.667969 332.164062 69.707031 333.585938 69.640625 C 335.007812 69.578125 336.417969 69.414062 337.820312 69.148438 C 339.21875 68.878906 340.589844 68.515625 341.9375 68.054688 C 343.285156 67.589844 344.59375 67.035156 345.859375 66.386719 C 347.128906 65.734375 348.34375 65 349.503906 64.175781 L 362.589844 54.875 C 362.679688 54.808594 362.773438 54.746094 362.867188 54.683594 Z M 431.570312 3.402344 " fill-opacity="1" fill-rule="nonzero"/><g fill="#000000" fill-opacity="1"><g transform="translate(108.603127, 260.747807)"><g><path d="M 8.59375 0 L 8.59375 -61.75 L 14.453125 -61.75 L 14.453125 -2.328125 L 45.234375 -2.328125 L 45.234375 0 Z M 8.59375 0 "/></g></g></g><g fill="#000000" fill-opacity="1"><g transform="translate(153.834706, 260.747807)"><g><path d="M 32.765625 0.953125 C 29.097656 0.953125 25.6875 0.132812 22.53125 -1.5 C 19.375 -3.132812 16.617188 -5.398438 14.265625 -8.296875 C 11.921875 -11.191406 10.101562 -14.53125 8.8125 -18.3125 C 7.519531 -22.101562 6.875 -26.175781 6.875 -30.53125 C 6.875 -34.882812 7.519531 -38.953125 8.8125 -42.734375 C 10.101562 -46.523438 11.921875 -49.867188 14.265625 -52.765625 C 16.617188 -55.660156 19.375 -57.921875 22.53125 -59.546875 C 25.6875 -61.179688 29.097656 -62 32.765625 -62 C 36.429688 -62 39.84375 -61.179688 43 -59.546875 C 46.15625 -57.921875 48.894531 -55.660156 51.21875 -52.765625 C 53.539062 -49.867188 55.359375 -46.523438 56.671875 -42.734375 C 57.992188 -38.953125 58.65625 -34.882812 58.65625 -30.53125 C 58.65625 -26.175781 57.992188 -22.101562 56.671875 -18.3125 C 55.359375 -14.53125 53.539062 -11.191406 51.21875 -8.296875 C 48.894531 -5.398438 46.15625 -3.132812 43 -1.5 C 39.84375 0.132812 36.429688 0.953125 32.765625 0.953125 Z M 32.765625 -1.375 C 35.628906 -1.375 38.28125 -2.21875 40.71875 -3.90625 C 43.15625 -5.601562 45.273438 -7.851562 47.078125 -10.65625 C 48.890625 -13.46875 50.296875 -16.609375 51.296875 -20.078125 C 52.296875 -23.546875 52.796875 -27.03125 52.796875 -30.53125 C 52.796875 -34.082031 52.296875 -37.578125 51.296875 -41.015625 C 50.296875 -44.460938 48.890625 -47.585938 47.078125 -50.390625 C 45.273438 -53.203125 43.15625 -55.453125 40.71875 -57.140625 C 38.28125 -58.835938 35.628906 -59.6875 32.765625 -59.6875 C 29.835938 -59.6875 27.15625 -58.835938 24.71875 -57.140625 C 22.28125 -55.453125 20.160156 -53.203125 18.359375 -50.390625 C 16.554688 -47.585938 15.148438 -44.460938 14.140625 -41.015625 C 13.140625 -37.578125 12.640625 -34.082031 12.640625 -30.53125 C 12.640625 -27.03125 13.140625 -23.546875 14.140625 -20.078125 C 15.148438 -16.609375 16.554688 -13.46875 18.359375 -10.65625 C 20.160156 -7.851562 22.28125 -5.601562 24.71875 -3.90625 C 27.15625 -2.21875 29.835938 -1.375 32.765625 -1.375 Z M 32.765625 -1.375 "/></g></g></g><g fill="#000000" fill-opacity="1"><g transform="translate(217.640823, 260.747807)"><g><path d="M 33.625 1.03125 C 29.957031 1.03125 26.503906 0.210938 23.265625 -1.421875 C 20.023438 -3.054688 17.1875 -5.320312 14.75 -8.21875 C 12.3125 -11.113281 10.390625 -14.453125 8.984375 -18.234375 C 7.578125 -22.015625 6.875 -26.082031 6.875 -30.4375 C 6.875 -34.800781 7.578125 -38.875 8.984375 -42.65625 C 10.390625 -46.4375 12.3125 -49.773438 14.75 -52.671875 C 17.1875 -55.566406 20.023438 -57.832031 23.265625 -59.46875 C 26.503906 -61.101562 29.957031 -61.921875 33.625 -61.921875 C 36.78125 -61.921875 39.875 -61.144531 42.90625 -59.59375 C 45.945312 -58.050781 48.644531 -55.84375 51 -52.96875 L 49.1875 -51.515625 C 47.070312 -54.035156 44.679688 -56.007812 42.015625 -57.4375 C 39.347656 -58.875 36.550781 -59.59375 33.625 -59.59375 C 30.757812 -59.59375 28.066406 -58.75 25.546875 -57.0625 C 23.023438 -55.375 20.800781 -53.125 18.875 -50.3125 C 16.957031 -47.5 15.453125 -44.375 14.359375 -40.9375 C 13.273438 -37.5 12.734375 -34 12.734375 -30.4375 C 12.734375 -26.769531 13.304688 -23.144531 14.453125 -19.5625 C 15.597656 -15.976562 17.21875 -12.765625 19.3125 -9.921875 C 21.40625 -7.085938 23.894531 -4.894531 26.78125 -3.34375 C 29.675781 -1.800781 32.90625 -1.234375 36.46875 -1.640625 C 38.53125 -1.921875 40.273438 -2.519531 41.703125 -3.4375 C 43.140625 -4.351562 44.300781 -5.34375 45.1875 -6.40625 C 46.082031 -7.46875 46.742188 -8.367188 47.171875 -9.109375 C 47.597656 -9.859375 47.8125 -10.234375 47.8125 -10.234375 L 47.8125 -29.234375 L 39.984375 -29.234375 L 39.984375 -31.5625 L 53.65625 -31.5625 L 53.65625 -12.21875 C 52.6875 -9.457031 51.171875 -7.085938 49.109375 -5.109375 C 47.046875 -3.140625 44.664062 -1.632812 41.96875 -0.59375 C 39.269531 0.4375 36.488281 0.976562 33.625 1.03125 Z M 33.625 1.03125 "/></g></g></g><g fill="#000000" fill-opacity="1"><g transform="translate(278.17924, 260.747807)"><g><path d="M 32.765625 0.953125 C 29.097656 0.953125 25.6875 0.132812 22.53125 -1.5 C 19.375 -3.132812 16.617188 -5.398438 14.265625 -8.296875 C 11.921875 -11.191406 10.101562 -14.53125 8.8125 -18.3125 C 7.519531 -22.101562 6.875 -26.175781 6.875 -30.53125 C 6.875 -34.882812 7.519531 -38.953125 8.8125 -42.734375 C 10.101562 -46.523438 11.921875 -49.867188 14.265625 -52.765625 C 16.617188 -55.660156 19.375 -57.921875 22.53125 -59.546875 C 25.6875 -61.179688 29.097656 -62 32.765625 -62 C 36.429688 -62 39.84375 -61.179688 43 -59.546875 C 46.15625 -57.921875 48.894531 -55.660156 51.21875 -52.765625 C 53.539062 -49.867188 55.359375 -46.523438 56.671875 -42.734375 C 57.992188 -38.953125 58.65625 -34.882812 58.65625 -30.53125 C 58.65625 -26.175781 57.992188 -22.101562 56.671875 -18.3125 C 55.359375 -14.53125 53.539062 -11.191406 51.21875 -8.296875 C 48.894531 -5.398438 46.15625 -3.132812 43 -1.5 C 39.84375 0.132812 36.429688 0.953125 32.765625 0.953125 Z M 32.765625 -1.375 C 35.628906 -1.375 38.28125 -2.21875 40.71875 -3.90625 C 43.15625 -5.601562 45.273438 -7.851562 47.078125 -10.65625 C 48.890625 -13.46875 50.296875 -16.609375 51.296875 -20.078125 C 52.296875 -23.546875 52.796875 -27.03125 52.796875 -30.53125 C 52.796875 -34.082031 52.296875 -37.578125 51.296875 -41.015625 C 50.296875 -44.460938 48.890625 -47.585938 47.078125 -50.390625 C 45.273438 -53.203125 43.15625 -55.453125 40.71875 -57.140625 C 38.28125 -58.835938 35.628906 -59.6875 32.765625 -59.6875 C 29.835938 -59.6875 27.15625 -58.835938 24.71875 -57.140625 C 22.28125 -55.453125 20.160156 -53.203125 18.359375 -50.390625 C 16.554688 -47.585938 15.148438 -44.460938 14.140625 -41.015625 C 13.140625 -37.578125 12.640625 -34.082031 12.640625 -30.53125 C 12.640625 -27.03125 13.140625 -23.546875 14.140625 -20.078125 C 15.148438 -16.609375 16.554688 -13.46875 18.359375 -10.65625 C 20.160156 -7.851562 22.28125 -5.601562 24.71875 -3.90625 C 27.15625 -2.21875 29.835938 -1.375 32.765625 -1.375 Z M 32.765625 -1.375 "/></g></g></g></svg>