<svg xmlns="http://www.w3.org/2000/svg" xmlns:xlink="http://www.w3.org/1999/xlink" width="200" zoomAndPan="magnify" viewBox="0 0 150 60" height="80" preserveAspectRatio="xMidYMid meet" version="1.0"><defs><g/><clipPath id="e16bc5fe6c"><path d="M 48 10 L 103.953125 10 L 103.953125 58.964844 L 48 58.964844 Z M 48 10 " clip-rule="nonzero"/></clipPath><clipPath id="a1274c4954"><path d="M 46.203125 1.214844 L 102 1.214844 L 102 50 L 46.203125 50 Z M 46.203125 1.214844 " clip-rule="nonzero"/></clipPath><clipPath id="476eab12a4"><rect x="0" width="32" y="0" height="14"/></clipPath></defs><g clip-path="url(#e16bc5fe6c)"><path fill="#d9d9d9" d="M 96.867188 10.382812 L 97.152344 10.667969 C 97.550781 11.066406 97.503906 11.808594 97.035156 12.464844 L 95.839844 14.144531 C 95.40625 14.761719 95.171875 15.441406 95.136719 16.195312 C 95.101562 16.945312 95.273438 17.648438 95.652344 18.296875 L 95.679688 18.339844 C 96.050781 18.992188 96.574219 19.492188 97.242188 19.835938 C 97.910156 20.183594 98.617188 20.324219 99.367188 20.253906 L 101.421875 20.058594 C 102.222656 19.984375 102.886719 20.3125 103.035156 20.855469 L 103.949219 24.277344 C 104.097656 24.824219 103.683594 25.441406 102.953125 25.777344 L 101.070312 26.640625 C 100.386719 26.953125 99.84375 27.425781 99.4375 28.058594 C 99.03125 28.691406 98.832031 29.386719 98.832031 30.136719 L 98.832031 30.183594 C 98.832031 30.9375 99.03125 31.628906 99.4375 32.261719 C 99.84375 32.894531 100.386719 33.367188 101.070312 33.683594 L 102.953125 34.546875 C 103.683594 34.878906 104.097656 35.5 103.949219 36.042969 L 103.03125 39.464844 C 102.886719 40.011719 102.222656 40.339844 101.421875 40.265625 L 99.367188 40.070312 C 98.617188 40 97.910156 40.136719 97.242188 40.484375 C 96.574219 40.832031 96.050781 41.332031 95.675781 41.984375 L 95.652344 42.023438 C 95.273438 42.675781 95.101562 43.375 95.136719 44.128906 C 95.171875 44.878906 95.40625 45.5625 95.839844 46.175781 L 97.035156 47.859375 C 97.503906 48.515625 97.546875 49.257812 97.148438 49.65625 L 94.644531 52.160156 C 94.246094 52.558594 93.503906 52.511719 92.851562 52.046875 L 91.167969 50.847656 C 90.554688 50.414062 89.871094 50.179688 89.117188 50.144531 C 88.367188 50.113281 87.667969 50.285156 87.015625 50.664062 L 86.972656 50.6875 C 86.320312 51.0625 85.820312 51.582031 85.476562 52.25 C 85.128906 52.917969 84.992188 53.625 85.058594 54.375 L 85.253906 56.429688 C 85.332031 57.230469 85 57.898438 84.457031 58.042969 L 81.035156 58.960938 C 80.488281 59.105469 79.871094 58.695312 79.535156 57.960938 L 78.671875 56.078125 C 78.359375 55.394531 77.886719 54.851562 77.253906 54.445312 C 76.621094 54.042969 75.925781 53.839844 75.175781 53.84375 L 75.128906 53.84375 C 74.375 53.839844 73.683594 54.042969 73.050781 54.445312 C 72.417969 54.851562 71.945312 55.394531 71.632812 56.078125 L 70.765625 57.960938 C 70.433594 58.691406 69.8125 59.105469 69.269531 58.960938 L 65.847656 58.042969 C 65.304688 57.898438 64.972656 57.230469 65.050781 56.429688 L 65.242188 54.375 C 65.3125 53.625 65.175781 52.917969 64.828125 52.25 C 64.480469 51.582031 63.980469 51.0625 63.328125 50.6875 L 63.289062 50.664062 C 62.636719 50.285156 61.9375 50.113281 61.183594 50.144531 C 60.433594 50.179688 59.75 50.414062 59.136719 50.847656 L 57.453125 52.046875 C 57.394531 52.089844 57.332031 52.128906 57.269531 52.164062 L 48.640625 58.605469 L 64.210938 43.035156 C 71.050781 48.847656 81.515625 48.324219 87.703125 41.46875 C 93.382812 35.175781 93.488281 25.640625 88.023438 19.222656 Z M 96.867188 10.382812 " fill-opacity="1" fill-rule="nonzero"/></g><g clip-path="url(#a1274c4954)"><path fill="#f7931e" d="M 101.722656 1.652344 L 86.089844 17.289062 C 79.25 11.476562 68.789062 12 62.597656 18.855469 C 56.921875 25.148438 56.8125 34.683594 62.277344 41.101562 L 53.4375 49.941406 L 53.152344 49.65625 C 52.753906 49.257812 52.800781 48.515625 53.265625 47.859375 L 54.460938 46.175781 C 54.898438 45.5625 55.132812 44.882812 55.164062 44.128906 C 55.199219 43.378906 55.027344 42.675781 54.648438 42.027344 L 54.625 41.984375 C 54.25 41.332031 53.730469 40.832031 53.0625 40.488281 C 52.394531 40.140625 51.683594 40.003906 50.9375 40.070312 L 48.878906 40.265625 C 48.078125 40.34375 47.414062 40.011719 47.269531 39.46875 L 46.351562 36.046875 C 46.207031 35.5 46.617188 34.882812 47.347656 34.546875 L 49.234375 33.683594 C 49.914062 33.371094 50.460938 32.898438 50.863281 32.265625 C 51.269531 31.632812 51.46875 30.9375 51.46875 30.1875 L 51.46875 30.140625 C 51.46875 29.386719 51.269531 28.695312 50.863281 28.0625 C 50.460938 27.429688 49.914062 26.957031 49.234375 26.644531 L 47.347656 25.78125 C 46.617188 25.445312 46.207031 24.828125 46.351562 24.28125 L 47.269531 20.855469 C 47.414062 20.3125 48.082031 19.980469 48.878906 20.058594 L 50.9375 20.25 C 51.683594 20.320312 52.394531 20.183594 53.0625 19.835938 C 53.730469 19.488281 54.25 18.992188 54.625 18.339844 L 54.648438 18.296875 C 55.027344 17.644531 55.199219 16.945312 55.164062 16.195312 C 55.132812 15.441406 54.898438 14.761719 54.460938 14.144531 L 53.265625 12.464844 C 52.800781 11.808594 52.753906 11.066406 53.152344 10.667969 L 55.65625 8.164062 C 56.054688 7.765625 56.796875 7.8125 57.453125 8.277344 L 59.136719 9.472656 C 59.75 9.90625 60.433594 10.144531 61.183594 10.175781 C 61.933594 10.210938 62.636719 10.039062 63.285156 9.660156 L 63.328125 9.636719 C 63.980469 9.261719 64.480469 8.738281 64.828125 8.070312 C 65.171875 7.40625 65.3125 6.695312 65.242188 5.949219 L 65.046875 3.890625 C 64.972656 3.089844 65.300781 2.425781 65.847656 2.28125 L 69.269531 1.363281 C 69.8125 1.21875 70.433594 1.628906 70.765625 2.359375 L 71.628906 4.246094 C 71.941406 4.925781 72.417969 5.472656 73.050781 5.875 C 73.683594 6.28125 74.375 6.480469 75.125 6.480469 L 75.175781 6.480469 C 75.925781 6.480469 76.617188 6.28125 77.25 5.875 C 77.882812 5.472656 78.359375 4.925781 78.671875 4.246094 L 79.535156 2.359375 C 79.871094 1.628906 80.488281 1.21875 81.03125 1.363281 L 84.457031 2.277344 C 85 2.425781 85.332031 3.089844 85.253906 3.890625 L 85.058594 5.945312 C 84.992188 6.695312 85.128906 7.402344 85.476562 8.070312 C 85.820312 8.738281 86.320312 9.261719 86.972656 9.632812 L 87.015625 9.660156 C 87.667969 10.035156 88.367188 10.210938 89.117188 10.175781 C 89.871094 10.140625 90.554688 9.90625 91.167969 9.472656 L 92.851562 8.277344 C 92.863281 8.265625 92.875 8.257812 92.886719 8.25 Z M 101.722656 1.652344 " fill-opacity="1" fill-rule="nonzero"/></g><g transform="matrix(1, 0, 0, 1, 59, 23)"><g clip-path="url(#476eab12a4)"><g fill="#d9d9d9" fill-opacity="1"><g transform="translate(0.480414, 11.600001)"><g><path d="M 1.140625 0 L 1.140625 -8.234375 L 1.921875 -8.234375 L 1.921875 -0.3125 L 6.03125 -0.3125 L 6.03125 0 Z M 1.140625 0 "/></g></g></g><g fill="#d9d9d9" fill-opacity="1"><g transform="translate(6.511292, 11.600001)"><g><path d="M 4.375 0.125 C 3.882812 0.125 3.425781 0.015625 3 -0.203125 C 2.582031 -0.421875 2.21875 -0.722656 1.90625 -1.109375 C 1.59375 -1.492188 1.347656 -1.9375 1.171875 -2.4375 C 1.003906 -2.945312 0.921875 -3.492188 0.921875 -4.078125 C 0.921875 -4.648438 1.003906 -5.1875 1.171875 -5.6875 C 1.347656 -6.195312 1.59375 -6.644531 1.90625 -7.03125 C 2.21875 -7.414062 2.582031 -7.71875 3 -7.9375 C 3.425781 -8.15625 3.882812 -8.265625 4.375 -8.265625 C 4.863281 -8.265625 5.316406 -8.15625 5.734375 -7.9375 C 6.148438 -7.71875 6.515625 -7.414062 6.828125 -7.03125 C 7.140625 -6.644531 7.382812 -6.195312 7.5625 -5.6875 C 7.738281 -5.1875 7.828125 -4.648438 7.828125 -4.078125 C 7.828125 -3.492188 7.738281 -2.945312 7.5625 -2.4375 C 7.382812 -1.9375 7.140625 -1.492188 6.828125 -1.109375 C 6.515625 -0.722656 6.148438 -0.421875 5.734375 -0.203125 C 5.316406 0.015625 4.863281 0.125 4.375 0.125 Z M 4.375 -0.1875 C 4.75 -0.1875 5.097656 -0.296875 5.421875 -0.515625 C 5.753906 -0.742188 6.039062 -1.046875 6.28125 -1.421875 C 6.519531 -1.796875 6.707031 -2.210938 6.84375 -2.671875 C 6.976562 -3.140625 7.046875 -3.609375 7.046875 -4.078125 C 7.046875 -4.546875 6.976562 -5.007812 6.84375 -5.46875 C 6.707031 -5.925781 6.519531 -6.34375 6.28125 -6.71875 C 6.039062 -7.09375 5.753906 -7.390625 5.421875 -7.609375 C 5.097656 -7.835938 4.75 -7.953125 4.375 -7.953125 C 3.976562 -7.953125 3.617188 -7.835938 3.296875 -7.609375 C 2.972656 -7.390625 2.691406 -7.09375 2.453125 -6.71875 C 2.210938 -6.34375 2.023438 -5.925781 1.890625 -5.46875 C 1.753906 -5.007812 1.6875 -4.546875 1.6875 -4.078125 C 1.6875 -3.609375 1.753906 -3.140625 1.890625 -2.671875 C 2.023438 -2.210938 2.210938 -1.796875 2.453125 -1.421875 C 2.691406 -1.046875 2.972656 -0.742188 3.296875 -0.515625 C 3.617188 -0.296875 3.976562 -0.1875 4.375 -0.1875 Z M 4.375 -0.1875 "/></g></g></g><g fill="#d9d9d9" fill-opacity="1"><g transform="translate(15.018775, 11.600001)"><g><path d="M 4.484375 0.140625 C 3.992188 0.140625 3.53125 0.03125 3.09375 -0.1875 C 2.664062 -0.40625 2.289062 -0.707031 1.96875 -1.09375 C 1.644531 -1.476562 1.390625 -1.921875 1.203125 -2.421875 C 1.015625 -2.929688 0.921875 -3.476562 0.921875 -4.0625 C 0.921875 -4.644531 1.015625 -5.1875 1.203125 -5.6875 C 1.390625 -6.195312 1.644531 -6.644531 1.96875 -7.03125 C 2.289062 -7.414062 2.664062 -7.710938 3.09375 -7.921875 C 3.53125 -8.140625 3.992188 -8.25 4.484375 -8.25 C 4.898438 -8.25 5.3125 -8.144531 5.71875 -7.9375 C 6.125 -7.738281 6.484375 -7.445312 6.796875 -7.0625 L 6.5625 -6.875 C 6.28125 -7.207031 5.957031 -7.46875 5.59375 -7.65625 C 5.238281 -7.851562 4.867188 -7.953125 4.484375 -7.953125 C 4.097656 -7.953125 3.738281 -7.835938 3.40625 -7.609375 C 3.070312 -7.378906 2.773438 -7.078125 2.515625 -6.703125 C 2.265625 -6.328125 2.066406 -5.910156 1.921875 -5.453125 C 1.773438 -4.992188 1.703125 -4.53125 1.703125 -4.0625 C 1.703125 -3.570312 1.773438 -3.085938 1.921875 -2.609375 C 2.078125 -2.128906 2.296875 -1.695312 2.578125 -1.3125 C 2.859375 -0.9375 3.191406 -0.644531 3.578125 -0.4375 C 3.960938 -0.238281 4.390625 -0.164062 4.859375 -0.21875 C 5.140625 -0.257812 5.375 -0.335938 5.5625 -0.453125 C 5.75 -0.578125 5.898438 -0.707031 6.015625 -0.84375 C 6.140625 -0.988281 6.226562 -1.109375 6.28125 -1.203125 C 6.34375 -1.304688 6.375 -1.359375 6.375 -1.359375 L 6.375 -3.90625 L 5.328125 -3.90625 L 5.328125 -4.203125 L 7.15625 -4.203125 L 7.15625 -1.625 C 7.03125 -1.257812 6.828125 -0.941406 6.546875 -0.671875 C 6.273438 -0.410156 5.957031 -0.210938 5.59375 -0.078125 C 5.238281 0.0546875 4.867188 0.128906 4.484375 0.140625 Z M 4.484375 0.140625 "/></g></g></g><g fill="#d9d9d9" fill-opacity="1"><g transform="translate(23.090564, 11.600001)"><g><path d="M 4.375 0.125 C 3.882812 0.125 3.425781 0.015625 3 -0.203125 C 2.582031 -0.421875 2.21875 -0.722656 1.90625 -1.109375 C 1.59375 -1.492188 1.347656 -1.9375 1.171875 -2.4375 C 1.003906 -2.945312 0.921875 -3.492188 0.921875 -4.078125 C 0.921875 -4.648438 1.003906 -5.1875 1.171875 -5.6875 C 1.347656 -6.195312 1.59375 -6.644531 1.90625 -7.03125 C 2.21875 -7.414062 2.582031 -7.71875 3 -7.9375 C 3.425781 -8.15625 3.882812 -8.265625 4.375 -8.265625 C 4.863281 -8.265625 5.316406 -8.15625 5.734375 -7.9375 C 6.148438 -7.71875 6.515625 -7.414062 6.828125 -7.03125 C 7.140625 -6.644531 7.382812 -6.195312 7.5625 -5.6875 C 7.738281 -5.1875 7.828125 -4.648438 7.828125 -4.078125 C 7.828125 -3.492188 7.738281 -2.945312 7.5625 -2.4375 C 7.382812 -1.9375 7.140625 -1.492188 6.828125 -1.109375 C 6.515625 -0.722656 6.148438 -0.421875 5.734375 -0.203125 C 5.316406 0.015625 4.863281 0.125 4.375 0.125 Z M 4.375 -0.1875 C 4.75 -0.1875 5.097656 -0.296875 5.421875 -0.515625 C 5.753906 -0.742188 6.039062 -1.046875 6.28125 -1.421875 C 6.519531 -1.796875 6.707031 -2.210938 6.84375 -2.671875 C 6.976562 -3.140625 7.046875 -3.609375 7.046875 -4.078125 C 7.046875 -4.546875 6.976562 -5.007812 6.84375 -5.46875 C 6.707031 -5.925781 6.519531 -6.34375 6.28125 -6.71875 C 6.039062 -7.09375 5.753906 -7.390625 5.421875 -7.609375 C 5.097656 -7.835938 4.75 -7.953125 4.375 -7.953125 C 3.976562 -7.953125 3.617188 -7.835938 3.296875 -7.609375 C 2.972656 -7.390625 2.691406 -7.09375 2.453125 -6.71875 C 2.210938 -6.34375 2.023438 -5.925781 1.890625 -5.46875 C 1.753906 -5.007812 1.6875 -4.546875 1.6875 -4.078125 C 1.6875 -3.609375 1.753906 -3.140625 1.890625 -2.671875 C 2.023438 -2.210938 2.210938 -1.796875 2.453125 -1.421875 C 2.691406 -1.046875 2.972656 -0.742188 3.296875 -0.515625 C 3.617188 -0.296875 3.976562 -0.1875 4.375 -0.1875 Z M 4.375 -0.1875 "/></g></g></g></g></g></svg>