<svg xmlns="http://www.w3.org/2000/svg" xmlns:xlink="http://www.w3.org/1999/xlink" width="512" zoomAndPan="magnify" viewBox="0 0 384 383.999986" height="512" preserveAspectRatio="xMidYMid meet" version="1.0"><defs><clipPath id="a99346416a"><path d="M 0 264 L 384 264 L 384 359.21875 L 0 359.21875 Z M 0 264 " clip-rule="nonzero"/></clipPath><clipPath id="334f9bff9a"><path d="M 12 24.71875 L 372 24.71875 L 372 141 L 12 141 Z M 12 24.71875 " clip-rule="nonzero"/></clipPath></defs><path fill="#ffffff" d="M 63.980469 195.390625 C 63.980469 195.390625 120.398438 192.800781 131.816406 192.539062 C 143.234375 192.273438 182.242188 193.722656 192.921875 194.21875 C 203.601562 194.714844 258.980469 197.8125 276.71875 198.46875 C 294.457031 199.128906 323.03125 197.613281 342.554688 201.644531 C 362.078125 205.675781 345.476562 207.980469 296.414062 209.972656 C 247.351562 211.960938 131.222656 203.761719 116.90625 203.453125 C 102.59375 203.144531 27.824219 201.40625 25.609375 198.09375 C 23.398438 194.78125 58.796875 195.082031 63.980469 195.390625 Z M 63.980469 195.390625 " fill-opacity="1" fill-rule="evenodd"/><path fill="#ffffff" d="M 15.722656 156.285156 C 15.722656 156.285156 17.382812 153.125 18.503906 152.003906 C 19.628906 150.882812 18.105469 139.335938 17.792969 137.421875 C 17.5 135.621094 17.285156 126.792969 18.855469 125.707031 C 20.507812 124.5625 31.304688 119.277344 39.390625 118.078125 C 39.390625 118.078125 70.664062 99.363281 95.335938 95.164062 C 116.832031 91.503906 150.195312 86.921875 185.324219 90.972656 C 210.101562 93.832031 226.230469 102.472656 252.898438 120.019531 C 252.898438 120.019531 300.054688 122.1875 322.464844 128.632812 C 334.496094 132.089844 349.078125 140.191406 356.742188 150.820312 C 360.902344 156.585938 353.996094 175.117188 355.902344 179.128906 C 356.433594 180.238281 359.0625 184.753906 357.554688 185.871094 C 356.660156 186.53125 354.160156 186.75 353.09375 186.878906 C 352.03125 187.011719 356.511719 189.3125 354.445312 189.839844 C 353.816406 190 344.179688 190.816406 331.015625 191.878906 C 330.121094 193.140625 327.207031 196.660156 321.605469 198.285156 C 314.714844 200.285156 302.132812 199.910156 297.84375 198.96875 C 294.523438 198.242188 291.253906 196.0625 289.9375 195.109375 C 269.332031 196.703125 251.527344 198.039062 250.597656 198.0625 C 250.597656 198.0625 248.863281 202.292969 244.195312 204.667969 C 239.523438 207.046875 217.394531 207.371094 217.394531 207.371094 C 217.394531 207.371094 205.21875 207.117188 196.84375 191.191406 L 156.246094 189.894531 C 153.269531 191.316406 147.289062 193.5625 141.671875 193.964844 C 135.035156 194.4375 129.089844 193.429688 126.089844 191.976562 C 123.9375 190.933594 122.53125 189.511719 121.914062 188.796875 L 76.757812 187.351562 C 76.757812 187.351562 72.59375 196.628906 63.144531 198.824219 C 63.144531 198.824219 44.800781 199.730469 41.488281 199.59375 C 38.175781 199.457031 27.582031 193.722656 24.089844 181.3125 C 24.089844 181.3125 18.210938 179.847656 17.839844 178.789062 C 17.46875 177.730469 19.039062 177.558594 19.453125 177.015625 C 19.578125 176.851562 15.121094 161.609375 15.722656 156.285156 Z M 15.722656 156.285156 " fill-opacity="1" fill-rule="evenodd"/><path fill="#fe0000" d="M 222.101562 140.238281 C 192.746094 137.332031 187.972656 167.722656 193.933594 188.445312 L 70.332031 184.644531 C 70.328125 184.644531 70.671875 173.433594 67.179688 161.824219 C 63.414062 149.316406 53.675781 138.246094 42.617188 138.152344 C 24.820312 138.003906 20.832031 159.808594 22.0625 173.800781 C 20.410156 171.816406 18.367188 161.34375 18.34375 158.460938 C 18.320312 155.097656 20.691406 153.683594 21.144531 150.253906 C 21.601562 146.828125 21.542969 141.972656 20.761719 135.90625 C 19.976562 129.835938 22.484375 127.378906 22.484375 127.378906 C 22.484375 127.378906 35.832031 115.9375 76.558594 118.199219 C 76.558594 118.199219 61.789062 114.324219 45.132812 116.628906 C 45.132812 116.628906 73.859375 99.0625 105.472656 94.46875 C 131.746094 90.652344 162.535156 89.761719 187.179688 92.441406 C 210.785156 95.011719 231.675781 108.089844 251.855469 120.4375 C 251.855469 120.4375 296.71875 122.519531 322.289062 130.0625 C 332.410156 133.050781 349.257812 141.910156 356.164062 152.644531 C 360.503906 159.386719 349.699219 175.414062 353.335938 175.664062 C 353.335938 175.664062 353.324219 178.570312 349.496094 180.449219 C 345.671875 182.324219 356.886719 183.429688 356.578125 184.246094 C 357.09375 184.550781 356.558594 185.125 356.5 185.632812 C 356.4375 186.140625 335.542969 188.019531 333.578125 188.339844 C 333.21875 188.398438 351.085938 187.757812 352.035156 187.777344 C 352.804688 187.792969 353.335938 188.238281 353.410156 188.90625 C 353.519531 189.957031 250.753906 194.433594 250.753906 194.433594 C 250.769531 189.632812 250.546875 185.441406 249.894531 180.085938 C 248.039062 164.855469 239.976562 142.007812 222.101562 140.234375 Z M 222.101562 140.238281 " fill-opacity="1" fill-rule="evenodd"/><path fill="#ba0000" d="M 302.132812 192.066406 C 276.453125 193.316406 250.753906 194.433594 250.753906 194.433594 C 250.765625 190.945312 250.652344 187.773438 250.335938 184.246094 C 251.234375 186.574219 252.527344 189.003906 252.785156 191.417969 C 252.785156 191.417969 287.722656 191.835938 302.132812 192.066406 Z M 302.132812 192.066406 " fill-opacity="1" fill-rule="evenodd"/><path fill="#ba0000" d="M 19.808594 167.414062 C 18.980469 163.914062 18.359375 160.042969 18.34375 158.460938 C 18.320312 155.097656 20.691406 153.679688 21.144531 150.253906 C 21.601562 146.828125 21.542969 141.972656 20.761719 135.902344 C 19.976562 129.835938 22.484375 127.375 22.484375 127.375 C 22.484375 127.375 35.832031 115.9375 76.558594 118.199219 C 43.101562 118.007812 24.132812 130.199219 24.632812 133.285156 C 25.128906 136.367188 25.089844 148.484375 22.039062 155.015625 C 20.195312 158.960938 19.820312 164.023438 19.808594 167.414062 Z M 19.808594 167.414062 " fill-opacity="1" fill-rule="evenodd"/><path fill="#ba0000" d="M 193.933594 188.445312 L 70.332031 184.644531 C 70.328125 184.644531 70.585938 176.28125 68.402344 166.519531 C 71.023438 170.125 74.21875 174.984375 76.648438 180.175781 Z M 193.933594 188.445312 " fill-opacity="1" fill-rule="evenodd"/><path fill="#e8e7ec" d="M 217.300781 149.832031 C 228.71875 149.566406 238.246094 161.074219 238.578125 175.527344 C 238.914062 189.984375 229.929688 201.917969 218.511719 202.183594 C 207.09375 202.445312 197.566406 190.941406 197.234375 176.484375 C 196.898438 162.03125 205.882812 150.097656 217.300781 149.832031 Z M 218.5625 170.886719 C 219.144531 171.015625 219.691406 171.296875 220.164062 171.699219 C 221.335938 168.921875 223.71875 163.640625 227.242188 157.511719 C 224.976562 155.65625 222.355469 154.441406 219.550781 154.070312 C 219.3125 156.898438 218.539062 166.417969 218.5625 170.886719 Z M 220.785156 172.34375 C 221.089844 172.726562 221.34375 173.164062 221.542969 173.648438 C 223.34375 172.15625 227.082031 169.316406 233.261719 165.789062 C 232.230469 163.351562 230.855469 161.183594 229.21875 159.390625 C 226.871094 162.796875 222.492188 169.238281 220.785156 172.34375 Z M 221.828125 174.519531 C 221.921875 174.914062 221.984375 175.324219 222.003906 175.75 C 224.082031 175.296875 228.414062 174.589844 235.28125 174.566406 C 235.152344 172.398438 234.773438 170.316406 234.191406 168.371094 C 231.128906 169.757812 224.445312 172.851562 221.828125 174.523438 Z M 221.984375 176.675781 C 221.941406 177.128906 221.851562 177.5625 221.726562 177.96875 C 223.957031 178.789062 228.394531 180.605469 234.246094 183.914062 C 234.859375 181.832031 235.230469 179.601562 235.3125 177.277344 C 231.941406 177.007812 224.949219 176.496094 221.984375 176.675781 Z M 221.398438 178.785156 C 221.15625 179.28125 220.84375 179.722656 220.484375 180.085938 C 222.269531 182.449219 225.597656 187.058594 229.097656 193.070312 C 230.828125 191.257812 232.269531 189.019531 233.332031 186.492188 C 230.335938 184.425781 224.304688 180.324219 221.398438 178.785156 Z M 219.816406 180.632812 C 219.3125 180.960938 218.746094 181.160156 218.140625 181.195312 C 218.539062 184.46875 219.125 190.609375 219.0625 198.027344 C 221.976562 197.828125 224.6875 196.722656 227.027344 194.929688 C 225.457031 191.605469 221.839844 184.0625 219.816406 180.632812 Z M 217.25 181.125 C 216.664062 181 216.121094 180.71875 215.644531 180.3125 C 214.472656 183.089844 212.09375 188.371094 208.570312 194.5 C 210.835938 196.359375 213.457031 197.574219 216.261719 197.945312 C 216.5 195.117188 217.273438 185.597656 217.25 181.125 Z M 215.027344 179.667969 C 214.726562 179.289062 214.46875 178.851562 214.273438 178.375 C 212.414062 179.945312 208.550781 182.96875 202.640625 186.433594 C 203.65625 188.789062 205.003906 190.882812 206.59375 192.625 C 208.941406 189.214844 213.320312 182.773438 215.027344 179.667969 Z M 213.984375 177.496094 C 213.882812 177.078125 213.820312 176.640625 213.804688 176.183594 C 211.679688 176.554688 207.25 177.144531 200.519531 177.179688 C 200.636719 179.542969 201.046875 181.804688 201.703125 183.910156 C 205.222656 182.210938 211.492188 179.125 213.988281 177.496094 Z M 213.832031 175.328125 C 213.875 174.859375 213.96875 174.414062 214.105469 173.992188 C 211.910156 173.109375 207.539062 171.1875 201.652344 167.8125 C 201.003906 169.917969 200.609375 172.183594 200.507812 174.546875 C 204.164062 174.890625 210.941406 175.472656 213.832031 175.328125 Z M 214.417969 173.21875 C 214.664062 172.726562 214.972656 172.289062 215.328125 171.925781 C 213.542969 169.566406 210.21875 164.953125 206.714844 158.945312 C 205.042969 160.695312 203.640625 162.84375 202.589844 165.265625 C 205.464844 167.335938 211.503906 171.621094 214.417969 173.21875 Z M 215.996094 171.378906 C 216.5 171.050781 217.066406 170.851562 217.667969 170.816406 C 217.269531 167.542969 216.683594 161.402344 216.75 153.984375 C 213.835938 154.1875 211.125 155.292969 208.785156 157.082031 C 210.355469 160.410156 213.972656 167.953125 215.996094 171.378906 Z M 215.996094 171.378906 " fill-opacity="1" fill-rule="evenodd"/><path fill="#e8e7ec" d="M 41.503906 146.238281 C 51.382812 146.011719 59.636719 156.621094 59.945312 169.941406 C 60.253906 183.257812 52.496094 194.242188 42.621094 194.46875 C 32.746094 194.699219 24.488281 184.085938 24.179688 170.769531 C 23.871094 157.449219 31.628906 146.46875 41.503906 146.242188 Z M 42.625 165.640625 C 43.128906 165.757812 43.601562 166.019531 44.011719 166.390625 C 45.023438 163.832031 47.074219 158.972656 50.117188 153.328125 C 48.152344 151.617188 45.882812 150.496094 43.457031 150.148438 C 43.253906 152.753906 42.601562 161.523438 42.625 165.640625 Z M 44.550781 166.984375 C 44.8125 167.335938 45.035156 167.742188 45.207031 168.1875 C 46.761719 166.816406 49.992188 164.203125 55.335938 160.960938 C 54.441406 158.714844 53.246094 156.714844 51.828125 155.0625 C 49.800781 158.195312 46.019531 164.125 44.550781 166.984375 Z M 45.453125 168.992188 C 45.535156 169.351562 45.589844 169.730469 45.605469 170.125 C 47.40625 169.710938 51.152344 169.066406 57.089844 169.050781 C 56.976562 167.050781 56.648438 165.136719 56.140625 163.339844 C 53.492188 164.617188 47.714844 167.457031 45.453125 168.992188 Z M 45.589844 170.976562 C 45.554688 171.390625 45.480469 171.792969 45.367188 172.167969 C 47.300781 172.925781 51.144531 174.605469 56.207031 177.660156 C 56.738281 175.742188 57.054688 173.691406 57.125 171.550781 C 54.207031 171.292969 48.15625 170.816406 45.589844 170.976562 Z M 45.089844 172.917969 C 44.878906 173.375 44.609375 173.78125 44.296875 174.117188 C 45.847656 176.292969 48.730469 180.546875 51.765625 186.089844 C 53.261719 184.421875 54.507812 182.363281 55.421875 180.03125 C 52.828125 178.125 47.605469 174.34375 45.089844 172.917969 Z M 43.722656 174.621094 C 43.285156 174.921875 42.796875 175.105469 42.273438 175.136719 C 42.621094 178.152344 43.136719 183.808594 43.089844 190.644531 C 45.613281 190.460938 47.957031 189.445312 49.976562 187.800781 C 48.613281 184.734375 45.476562 177.78125 43.722656 174.621094 Z M 41.5 175.070312 C 40.996094 174.953125 40.527344 174.691406 40.113281 174.320312 C 39.105469 176.875 37.050781 181.738281 34.011719 187.378906 C 35.972656 189.09375 38.242188 190.214844 40.667969 190.5625 C 40.871094 187.957031 41.527344 179.1875 41.5 175.070312 Z M 39.578125 173.722656 C 39.316406 173.375 39.09375 172.972656 38.921875 172.527344 C 37.316406 173.976562 33.980469 176.753906 28.871094 179.941406 C 29.753906 182.109375 30.921875 184.042969 32.296875 185.648438 C 34.324219 182.511719 38.105469 176.582031 39.578125 173.722656 Z M 38.675781 171.722656 C 38.585938 171.339844 38.53125 170.933594 38.515625 170.511719 C 36.679688 170.851562 32.847656 171.386719 27.023438 171.414062 C 27.128906 173.589844 27.488281 175.671875 28.058594 177.613281 C 31.101562 176.050781 36.519531 173.21875 38.675781 171.722656 Z M 38.535156 169.726562 C 38.574219 169.292969 38.65625 168.878906 38.773438 168.492188 C 36.875 167.675781 33.089844 165.902344 27.992188 162.785156 C 27.4375 164.722656 27.097656 166.808594 27.011719 168.988281 C 30.171875 169.308594 36.039062 169.851562 38.535156 169.726562 Z M 39.042969 167.78125 C 39.253906 167.328125 39.519531 166.925781 39.828125 166.59375 C 38.28125 164.417969 35.398438 160.164062 32.359375 154.621094 C 30.917969 156.234375 29.707031 158.207031 28.800781 160.4375 C 31.289062 162.347656 36.519531 166.308594 39.042969 167.78125 Z M 40.40625 166.089844 C 40.839844 165.789062 41.332031 165.605469 41.851562 165.574219 C 41.503906 162.558594 40.988281 156.902344 41.035156 150.066406 C 38.515625 150.246094 36.171875 151.261719 34.148438 152.910156 C 35.511719 155.976562 38.648438 162.929688 40.40625 166.089844 Z M 40.40625 166.089844 " fill-opacity="1" fill-rule="evenodd"/><path fill="#ba0000" d="M 239.238281 143.492188 C 242.214844 144.484375 247.847656 149.046875 250.097656 151.71875 C 252.347656 154.386719 282.140625 160.398438 291.945312 159.582031 C 301.746094 158.769531 301.886719 152.996094 305.386719 151.597656 L 242.570312 143.484375 Z M 239.238281 143.492188 " fill-opacity="1" fill-rule="evenodd"/><path fill="#ffffff" d="M 307.707031 152.003906 C 307.707031 152.003906 304.582031 151.863281 303.304688 151.921875 C 302.023438 151.976562 301.359375 155.542969 294.796875 155.746094 C 288.234375 155.953125 271.640625 156.097656 258.425781 152.613281 C 245.214844 149.128906 244.808594 143.214844 236.699219 143.292969 C 249.429688 141.417969 295.972656 147.953125 307.707031 152.003906 Z M 307.707031 152.003906 " fill-opacity="1" fill-rule="evenodd"/><path fill="#ba0000" d="M 260.296875 165.675781 L 258.632812 162.640625 C 258.632812 162.640625 253.910156 173.351562 259.789062 180.636719 C 265.667969 187.917969 290.625 189.15625 298.734375 186.566406 C 306.839844 183.976562 305.757812 180.960938 301.796875 178.167969 C 297.832031 175.378906 260.296875 165.675781 260.296875 165.675781 Z M 260.296875 165.675781 " fill-opacity="1" fill-rule="evenodd"/><path fill="#ffffff" d="M 258.632812 162.640625 C 258.632812 162.640625 256.640625 168.878906 260.101562 175.3125 C 263.558594 181.746094 269.183594 184.925781 284.453125 185.105469 C 299.726562 185.285156 305.867188 183.113281 304.304688 180.160156 C 302.742188 177.207031 296.277344 165.507812 282.476562 164.226562 C 268.675781 162.941406 265.121094 161.636719 258.632812 162.640625 Z M 258.632812 162.640625 " fill-opacity="1" fill-rule="evenodd"/><path fill="#ba0000" d="M 321.226562 152.949219 C 321.226562 152.949219 309.335938 151.089844 308.371094 155.597656 C 307.40625 160.101562 306.550781 175.621094 310.308594 179.359375 C 314.066406 183.097656 341.613281 180.34375 346.289062 179.378906 C 350.960938 178.417969 354.148438 176.882812 354.585938 173.117188 C 355.023438 169.355469 321.226562 152.949219 321.226562 152.949219 Z M 321.226562 152.949219 " fill-opacity="1" fill-rule="evenodd"/><path fill="#ffffff" d="M 309.707031 154.148438 C 309.707031 154.148438 306.636719 173.648438 312.605469 177.886719 C 318.574219 182.125 351.65625 176.875 353.335938 175.664062 C 355.015625 174.449219 359.390625 155.824219 356.703125 152.683594 C 354.011719 149.542969 332.214844 148.714844 313.296875 152.410156 C 313.296875 152.410156 310.421875 152.742188 309.707031 154.148438 Z M 309.707031 154.148438 " fill-opacity="1" fill-rule="evenodd"/><path fill="#ba0000" d="M 313.25 184.09375 C 313.25 184.09375 308.570312 184.898438 304.40625 189.53125 C 317.722656 191.136719 346.488281 187.28125 356.636719 183.394531 L 344.964844 183.359375 Z M 313.25 184.09375 " fill-opacity="1" fill-rule="evenodd"/><path fill="#ffffff" d="M 306.65625 188.328125 C 306.65625 188.328125 310.5 183.859375 312.941406 183.269531 C 315.382812 182.679688 351.082031 179.824219 353.019531 180.527344 C 354.960938 181.230469 357.007812 183.292969 356.839844 184.121094 C 356.671875 184.953125 307.949219 190.003906 306.65625 188.328125 Z M 306.65625 188.328125 " fill-opacity="1" fill-rule="evenodd"/><path fill="#ba0000" d="M 248.191406 119.21875 L 233.765625 118.488281 L 194.089844 115.5625 L 165.835938 121.769531 L 154.335938 118.40625 L 110.089844 102.5625 C 110.089844 102.5625 74.515625 106.160156 82.128906 116.875 C 89.742188 127.585938 157.589844 125.269531 173.308594 126.292969 C 182.902344 125.597656 200.367188 123.851562 200.367188 123.851562 C 249.335938 126.988281 292.109375 139.265625 292.109375 139.265625 C 282.179688 130.019531 220.222656 121.363281 220.222656 121.363281 C 224.480469 120.839844 232.753906 120.808594 232.753906 120.808594 C 294.691406 126.101562 332.664062 138.539062 332.664062 138.539062 C 321.542969 130.976562 277.835938 122.867188 267.417969 122.414062 C 267.417969 122.414062 320.519531 124.179688 347.542969 143.460938 C 339.605469 137.054688 329.324219 132.140625 322.289062 130.0625 C 296.722656 122.523438 251.855469 120.4375 251.855469 120.4375 C 249.246094 119.71875 249.816406 119.574219 248.191406 119.21875 Z M 248.191406 119.21875 " fill-opacity="1" fill-rule="evenodd"/><path fill="#ffffff" d="M 165.785156 119.664062 C 165.785156 119.664062 155.835938 104.949219 142.285156 95.972656 C 142.285156 95.972656 186.441406 91.121094 205.316406 97.824219 C 224.1875 104.527344 251.855469 120.4375 251.855469 120.4375 C 249.480469 120 242.164062 119.363281 236.558594 119.199219 C 236.558594 119.199219 310.160156 125.820312 332.660156 138.539062 C 332.660156 138.539062 312.960938 127.996094 232.097656 119.730469 C 232.097656 119.730469 219.707031 120.015625 211.402344 120.847656 C 211.402344 120.847656 282.070312 129.886719 292.109375 139.265625 C 292.109375 139.265625 273.570312 129.203125 201.003906 121.417969 C 201.003906 121.417969 185.957031 121.703125 174.34375 122.722656 C 162.730469 123.738281 100.8125 121.648438 92.566406 120.449219 C 92.566406 120.449219 91.921875 111.070312 95.863281 106.070312 C 95.863281 106.070312 91.570312 109.796875 90.210938 120.183594 C 90.210938 120.183594 70.25 115.683594 65.945312 111.992188 C 63.371094 109.785156 69.117188 106.769531 75.339844 104.40625 C 86.660156 100.101562 99.5 96.804688 112.214844 95.75 C 142.320312 93.253906 151.757812 105.507812 165.785156 119.664062 Z M 165.785156 119.664062 " fill-opacity="1" fill-rule="evenodd"/><path fill="#ba0000" d="M 191.121094 144.273438 L 204.582031 144.515625 C 204.582031 144.515625 185.511719 150.285156 183.285156 151.554688 C 178.808594 154.101562 183.886719 170.515625 188.199219 180.0625 C 168.402344 175.109375 106.941406 170.535156 91.808594 171.511719 C 79.394531 164.214844 77.804688 144.347656 68.421875 138.253906 C 63.980469 135.367188 51.640625 128.777344 51.640625 128.777344 L 66.546875 131.035156 L 91.976562 136.425781 L 154.324219 155.050781 L 179.460938 143.152344 Z M 191.121094 144.273438 " fill-opacity="1" fill-rule="evenodd"/><path fill="#ffffff" d="M 206.800781 144.402344 C 206.800781 144.402344 180.355469 145.65625 179.324219 147.171875 C 178.289062 148.691406 178.660156 164.695312 181.320312 168.90625 C 183.980469 173.113281 188.199219 180.0625 188.199219 180.0625 C 188.199219 180.0625 94.742188 173.683594 91.808594 171.511719 C 88.875 169.335938 79.570312 150.125 79.003906 148.640625 L 109.558594 154.230469 L 77.085938 144.308594 C 77.085938 144.308594 71.824219 133.648438 69.679688 133.269531 C 67.535156 132.890625 51.640625 128.777344 51.640625 128.777344 Z M 206.800781 144.402344 " fill-opacity="1" fill-rule="evenodd"/><g clip-path="url(#a99346416a)"><path fill="#ffffff" d="M 100.4375 271.347656 C 124.054688 300.699219 153.992188 330.65625 191.964844 359.269531 C 229.933594 330.660156 259.867188 300.703125 283.484375 271.355469 L 383.996094 264.367188 L 259.214844 264.367188 C 239.066406 288.234375 216.410156 310.066406 191.964844 329.777344 C 167.542969 310.089844 144.914062 288.28125 124.78125 264.445312 L 124.777344 264.363281 L -0.00390625 264.363281 Z M 100.4375 271.347656 " fill-opacity="1" fill-rule="evenodd"/></g><g clip-path="url(#334f9bff9a)"><path fill="#fe0000" d="M 12.386719 69.503906 C 12.386719 69.503906 13.089844 87.984375 20.886719 117.523438 L 21.027344 117.460938 C 24.039062 116.085938 27.152344 114.84375 30.296875 113.816406 C 32.535156 113.082031 34.847656 112.441406 37.175781 112.011719 C 38.941406 110.976562 40.742188 109.964844 42.558594 108.984375 C 41.183594 103.539062 39.960938 98.066406 38.902344 92.578125 C 38.308594 89.488281 37.691406 86.15625 37.160156 82.773438 C 85.828125 58.648438 137.148438 48.035156 191.964844 48.035156 C 246.777344 48.035156 298.101562 58.648438 346.769531 82.773438 C 346.234375 86.15625 345.617188 89.488281 345.023438 92.578125 C 342.789062 104.1875 339.804688 115.734375 336.230469 127.09375 C 343.464844 130.511719 350.515625 135.09375 356.136719 140.523438 C 370.464844 97.882812 371.539062 69.503906 371.539062 69.503906 C 308.390625 34.558594 246.535156 24.726562 191.964844 24.773438 C 137.390625 24.726562 75.535156 34.558594 12.386719 69.503906 Z M 12.386719 69.503906 " fill-opacity="1" fill-rule="evenodd"/></g></svg>