<svg xmlns="http://www.w3.org/2000/svg" xmlns:xlink="http://www.w3.org/1999/xlink" width="512" zoomAndPan="magnify" viewBox="0 0 384 383.999986" height="512" preserveAspectRatio="xMidYMid meet" version="1.0"><defs><clipPath id="743b5c2bda"><path d="M 0 264 L 384 264 L 384 359.21875 L 0 359.21875 Z M 0 264 " clip-rule="nonzero"/></clipPath><clipPath id="b16fc74aab"><path d="M 12 24.71875 L 372 24.71875 L 372 141 L 12 141 Z M 12 24.71875 " clip-rule="nonzero"/></clipPath></defs><path fill="#000000" d="M 63.980469 195.359375 C 63.980469 195.359375 120.398438 192.773438 131.816406 192.507812 C 143.234375 192.242188 182.242188 193.695312 192.921875 194.1875 C 203.601562 194.683594 258.980469 197.78125 276.71875 198.441406 C 294.457031 199.097656 323.03125 197.582031 342.554688 201.613281 C 362.078125 205.644531 345.476562 207.949219 296.414062 209.9375 C 247.351562 211.929688 131.222656 203.730469 116.90625 203.421875 C 102.59375 203.113281 27.824219 201.375 25.609375 198.0625 C 23.398438 194.75 58.796875 195.054688 63.980469 195.359375 Z M 63.980469 195.359375 " fill-opacity="1" fill-rule="evenodd"/><path fill="#000000" d="M 15.722656 156.261719 C 15.722656 156.261719 17.382812 153.101562 18.503906 151.980469 C 19.628906 150.859375 18.105469 139.316406 17.792969 137.398438 C 17.5 135.601562 17.285156 126.777344 18.855469 125.6875 C 20.507812 124.546875 31.304688 119.261719 39.390625 118.0625 C 39.390625 118.0625 70.664062 99.351562 95.335938 95.152344 C 116.832031 91.492188 150.195312 86.910156 185.324219 90.960938 C 210.101562 93.820312 226.230469 102.460938 252.898438 120.003906 C 252.898438 120.003906 300.054688 122.171875 322.464844 128.613281 C 334.496094 132.074219 349.078125 140.167969 356.742188 150.796875 C 360.902344 156.5625 353.996094 175.089844 355.902344 179.101562 C 356.433594 180.214844 359.0625 184.722656 357.554688 185.839844 C 356.660156 186.503906 354.160156 186.71875 353.09375 186.851562 C 352.03125 186.984375 356.511719 189.28125 354.445312 189.808594 C 353.816406 189.96875 344.179688 190.789062 331.015625 191.847656 C 330.121094 193.113281 327.207031 196.628906 321.605469 198.253906 C 314.714844 200.257812 302.132812 199.878906 297.84375 198.9375 C 294.523438 198.210938 291.253906 196.035156 289.9375 195.082031 C 269.332031 196.671875 251.527344 198.007812 250.597656 198.03125 C 250.597656 198.03125 248.863281 202.261719 244.195312 204.636719 C 239.523438 207.015625 217.394531 207.339844 217.394531 207.339844 C 217.394531 207.339844 205.21875 207.085938 196.84375 191.164062 L 156.246094 189.863281 C 153.269531 191.285156 147.289062 193.535156 141.671875 193.933594 C 135.035156 194.410156 129.089844 193.398438 126.089844 191.949219 C 123.9375 190.902344 122.53125 189.484375 121.914062 188.769531 L 76.757812 187.324219 C 76.757812 187.324219 72.59375 196.601562 63.144531 198.792969 C 63.144531 198.792969 44.800781 199.699219 41.488281 199.5625 C 38.175781 199.425781 27.582031 193.691406 24.089844 181.285156 C 24.089844 181.285156 18.210938 179.820312 17.839844 178.761719 C 17.46875 177.703125 19.039062 177.53125 19.453125 176.988281 C 19.578125 176.824219 15.121094 161.585938 15.722656 156.261719 Z M 15.722656 156.261719 " fill-opacity="1" fill-rule="evenodd"/><path fill="#fe0000" d="M 222.101562 140.214844 C 192.746094 137.308594 187.972656 167.699219 193.933594 188.417969 L 70.332031 184.617188 C 70.328125 184.617188 70.671875 173.410156 67.179688 161.800781 C 63.414062 149.296875 53.675781 138.222656 42.617188 138.132812 C 24.820312 137.984375 20.832031 159.785156 22.0625 173.773438 C 20.410156 171.789062 18.367188 161.320312 18.34375 158.4375 C 18.320312 155.074219 20.691406 153.660156 21.144531 150.234375 C 21.601562 146.804688 21.542969 141.953125 20.761719 135.886719 C 19.976562 129.820312 22.484375 127.359375 22.484375 127.359375 C 22.484375 127.359375 35.832031 115.921875 76.558594 118.183594 C 76.558594 118.183594 61.789062 114.308594 45.132812 116.613281 C 45.132812 116.613281 73.859375 99.046875 105.472656 94.457031 C 131.746094 90.640625 162.535156 89.75 187.179688 92.429688 C 210.785156 95 231.675781 108.078125 251.855469 120.421875 C 251.855469 120.421875 296.71875 122.503906 322.289062 130.046875 C 332.410156 133.03125 349.257812 141.890625 356.164062 152.621094 C 360.503906 159.363281 349.699219 175.386719 353.335938 175.636719 C 353.335938 175.636719 353.324219 178.542969 349.496094 180.421875 C 345.671875 182.296875 356.886719 183.398438 356.578125 184.21875 C 357.09375 184.523438 356.558594 185.097656 356.5 185.605469 C 356.4375 186.113281 335.542969 187.988281 333.578125 188.308594 C 333.21875 188.367188 351.085938 187.726562 352.035156 187.75 C 352.804688 187.765625 353.335938 188.207031 353.410156 188.878906 C 353.519531 189.929688 250.753906 194.402344 250.753906 194.402344 C 250.769531 189.605469 250.546875 185.410156 249.894531 180.058594 C 248.039062 164.832031 239.976562 141.984375 222.101562 140.214844 Z M 222.101562 140.214844 " fill-opacity="1" fill-rule="evenodd"/><path fill="#ba0000" d="M 302.132812 192.035156 C 276.453125 193.285156 250.753906 194.40625 250.753906 194.40625 C 250.765625 190.914062 250.652344 187.746094 250.335938 184.214844 C 251.234375 186.546875 252.527344 188.972656 252.785156 191.386719 C 252.785156 191.386719 287.722656 191.808594 302.132812 192.035156 Z M 302.132812 192.035156 " fill-opacity="1" fill-rule="evenodd"/><path fill="#ba0000" d="M 19.808594 167.386719 C 18.980469 163.890625 18.359375 160.019531 18.34375 158.4375 C 18.320312 155.074219 20.691406 153.660156 21.144531 150.230469 C 21.601562 146.804688 21.542969 141.949219 20.761719 135.882812 C 19.976562 129.820312 22.484375 127.359375 22.484375 127.359375 C 22.484375 127.359375 35.832031 115.921875 76.558594 118.179688 C 43.101562 117.988281 24.132812 130.179688 24.632812 133.265625 C 25.128906 136.347656 25.089844 148.464844 22.039062 154.992188 C 20.195312 158.9375 19.820312 164 19.808594 167.386719 Z M 19.808594 167.386719 " fill-opacity="1" fill-rule="evenodd"/><path fill="#ba0000" d="M 193.933594 188.417969 L 70.332031 184.617188 C 70.328125 184.617188 70.585938 176.253906 68.402344 166.496094 C 71.023438 170.097656 74.21875 174.960938 76.648438 180.148438 Z M 193.933594 188.417969 " fill-opacity="1" fill-rule="evenodd"/><path fill="#e8e7ec" d="M 217.300781 149.808594 C 228.71875 149.546875 238.246094 161.046875 238.578125 175.5 C 238.914062 189.957031 229.929688 201.886719 218.511719 202.152344 C 207.09375 202.414062 197.566406 190.914062 197.234375 176.460938 C 196.898438 162.003906 205.882812 150.074219 217.300781 149.808594 Z M 218.5625 170.863281 C 219.144531 170.988281 219.691406 171.269531 220.164062 171.675781 C 221.335938 168.898438 223.71875 163.617188 227.242188 157.488281 C 224.976562 155.632812 222.355469 154.417969 219.550781 154.046875 C 219.3125 156.875 218.539062 166.394531 218.5625 170.863281 Z M 220.785156 172.320312 C 221.089844 172.699219 221.34375 173.140625 221.542969 173.621094 C 223.34375 172.128906 227.082031 169.292969 233.261719 165.761719 C 232.230469 163.324219 230.855469 161.15625 229.21875 159.367188 C 226.871094 162.773438 222.492188 169.214844 220.785156 172.320312 Z M 221.828125 174.496094 C 221.921875 174.886719 221.984375 175.296875 222.003906 175.722656 C 224.082031 175.269531 228.414062 174.566406 235.28125 174.539062 C 235.152344 172.371094 234.773438 170.292969 234.191406 168.34375 C 231.128906 169.734375 224.445312 172.824219 221.828125 174.496094 Z M 221.984375 176.648438 C 221.941406 177.101562 221.851562 177.535156 221.726562 177.941406 C 223.957031 178.761719 228.394531 180.578125 234.246094 183.886719 C 234.859375 181.804688 235.230469 179.574219 235.3125 177.253906 C 231.941406 176.980469 224.949219 176.46875 221.984375 176.648438 Z M 221.398438 178.757812 C 221.15625 179.253906 220.84375 179.695312 220.484375 180.0625 C 222.269531 182.417969 225.597656 187.03125 229.097656 193.042969 C 230.828125 191.226562 232.269531 188.992188 233.332031 186.460938 C 230.335938 184.398438 224.304688 180.296875 221.398438 178.757812 Z M 219.816406 180.605469 C 219.3125 180.933594 218.746094 181.132812 218.140625 181.167969 C 218.539062 184.441406 219.125 190.582031 219.0625 198 C 221.976562 197.796875 224.6875 196.691406 227.027344 194.902344 C 225.457031 191.578125 221.839844 184.035156 219.816406 180.605469 Z M 217.25 181.097656 C 216.664062 180.972656 216.121094 180.691406 215.644531 180.285156 C 214.472656 183.0625 212.09375 188.34375 208.570312 194.472656 C 210.835938 196.328125 213.457031 197.542969 216.261719 197.914062 C 216.5 195.085938 217.273438 185.566406 217.25 181.097656 Z M 215.027344 179.640625 C 214.726562 179.261719 214.46875 178.828125 214.273438 178.347656 C 212.414062 179.917969 208.550781 182.9375 202.640625 186.40625 C 203.65625 188.757812 205.003906 190.855469 206.59375 192.59375 C 208.941406 189.1875 213.320312 182.746094 215.027344 179.640625 Z M 213.984375 177.472656 C 213.882812 177.054688 213.820312 176.613281 213.804688 176.15625 C 211.679688 176.527344 207.25 177.117188 200.519531 177.152344 C 200.636719 179.515625 201.046875 181.777344 201.703125 183.882812 C 205.222656 182.183594 211.492188 179.097656 213.988281 177.472656 Z M 213.832031 175.304688 C 213.875 174.835938 213.96875 174.386719 214.105469 173.964844 C 211.910156 173.082031 207.539062 171.160156 201.652344 167.785156 C 201.003906 169.890625 200.609375 172.15625 200.507812 174.519531 C 204.164062 174.863281 210.941406 175.445312 213.832031 175.304688 Z M 214.417969 173.191406 C 214.664062 172.699219 214.972656 172.261719 215.328125 171.902344 C 213.542969 169.542969 210.21875 164.929688 206.714844 158.921875 C 205.042969 160.671875 203.640625 162.816406 202.589844 165.242188 C 205.464844 167.308594 211.503906 171.597656 214.417969 173.191406 Z M 215.996094 171.355469 C 216.5 171.027344 217.066406 170.824219 217.667969 170.789062 C 217.269531 167.519531 216.683594 161.378906 216.75 153.960938 C 213.835938 154.164062 211.125 155.269531 208.785156 157.058594 C 210.355469 160.382812 213.972656 167.925781 215.996094 171.355469 Z M 215.996094 171.355469 " fill-opacity="1" fill-rule="evenodd"/><path fill="#e8e7ec" d="M 41.503906 146.21875 C 51.382812 145.988281 59.636719 156.597656 59.945312 169.914062 C 60.253906 183.230469 52.496094 194.210938 42.621094 194.441406 C 32.746094 194.667969 24.488281 184.058594 24.179688 170.742188 C 23.871094 157.425781 31.628906 146.445312 41.503906 146.21875 Z M 42.625 165.613281 C 43.128906 165.730469 43.601562 165.992188 44.011719 166.367188 C 45.023438 163.808594 47.074219 158.945312 50.117188 153.308594 C 48.152344 151.59375 45.882812 150.472656 43.457031 150.125 C 43.253906 152.730469 42.601562 161.5 42.625 165.613281 Z M 44.550781 166.960938 C 44.8125 167.3125 45.035156 167.714844 45.207031 168.160156 C 46.761719 166.789062 49.992188 164.179688 55.335938 160.9375 C 54.441406 158.691406 53.246094 156.691406 51.828125 155.039062 C 49.800781 158.171875 46.019531 164.101562 44.550781 166.960938 Z M 45.453125 168.964844 C 45.535156 169.328125 45.589844 169.707031 45.605469 170.097656 C 47.40625 169.683594 51.152344 169.039062 57.089844 169.023438 C 56.976562 167.027344 56.648438 165.113281 56.140625 163.316406 C 53.492188 164.59375 47.714844 167.429688 45.453125 168.964844 Z M 45.589844 170.949219 C 45.554688 171.367188 45.480469 171.765625 45.367188 172.140625 C 47.300781 172.898438 51.144531 174.578125 56.207031 177.632812 C 56.738281 175.71875 57.054688 173.664062 57.125 171.523438 C 54.207031 171.269531 48.15625 170.789062 45.589844 170.949219 Z M 45.089844 172.894531 C 44.878906 173.351562 44.609375 173.757812 44.296875 174.089844 C 45.847656 176.265625 48.730469 180.519531 51.765625 186.0625 C 53.261719 184.390625 54.507812 182.335938 55.421875 180.003906 C 52.828125 178.097656 47.605469 174.316406 45.089844 172.890625 Z M 43.722656 174.59375 C 43.285156 174.894531 42.796875 175.078125 42.273438 175.109375 C 42.621094 178.125 43.136719 183.78125 43.089844 190.613281 C 45.613281 190.433594 47.957031 189.417969 49.976562 187.773438 C 48.613281 184.707031 45.476562 177.753906 43.722656 174.59375 Z M 41.5 175.042969 C 40.996094 174.925781 40.527344 174.664062 40.113281 174.292969 C 39.105469 176.851562 37.050781 181.710938 34.011719 187.351562 C 35.972656 189.066406 38.242188 190.1875 40.667969 190.53125 C 40.871094 187.929688 41.527344 179.160156 41.5 175.042969 Z M 39.578125 173.699219 C 39.316406 173.347656 39.09375 172.945312 38.921875 172.503906 C 37.316406 173.949219 33.980469 176.726562 28.871094 179.914062 C 29.753906 182.082031 30.921875 184.015625 32.296875 185.621094 C 34.324219 182.484375 38.105469 176.554688 39.578125 173.695312 Z M 38.675781 171.699219 C 38.585938 171.3125 38.53125 170.90625 38.515625 170.488281 C 36.679688 170.824219 32.847656 171.363281 27.023438 171.386719 C 27.128906 173.5625 27.488281 175.648438 28.058594 177.585938 C 31.101562 176.027344 36.519531 173.191406 38.675781 171.699219 Z M 38.535156 169.699219 C 38.574219 169.269531 38.65625 168.855469 38.773438 168.46875 C 36.875 167.652344 33.089844 165.875 27.992188 162.761719 C 27.4375 164.699219 27.097656 166.785156 27.011719 168.960938 C 30.171875 169.285156 36.039062 169.828125 38.535156 169.699219 Z M 39.042969 167.753906 C 39.253906 167.300781 39.519531 166.898438 39.828125 166.566406 C 38.28125 164.390625 35.398438 160.140625 32.359375 154.597656 C 30.917969 156.210938 29.707031 158.183594 28.800781 160.414062 C 31.289062 162.324219 36.519531 166.28125 39.042969 167.753906 Z M 40.40625 166.066406 C 40.839844 165.761719 41.332031 165.582031 41.851562 165.546875 C 41.503906 162.535156 40.988281 156.878906 41.035156 150.042969 C 38.515625 150.226562 36.171875 151.242188 34.148438 152.886719 C 35.511719 155.953125 38.648438 162.90625 40.40625 166.066406 Z M 40.40625 166.066406 " fill-opacity="1" fill-rule="evenodd"/><path fill="#ba0000" d="M 239.238281 143.472656 C 242.214844 144.460938 247.847656 149.027344 250.097656 151.695312 C 252.347656 154.363281 282.140625 160.375 291.945312 159.558594 C 301.746094 158.746094 301.886719 152.972656 305.386719 151.574219 L 242.570312 143.464844 Z M 239.238281 143.472656 " fill-opacity="1" fill-rule="evenodd"/><path fill="#000000" d="M 307.707031 151.984375 C 307.707031 151.984375 304.582031 151.839844 303.304688 151.898438 C 302.023438 151.953125 301.359375 155.519531 294.796875 155.722656 C 288.234375 155.929688 271.640625 156.074219 258.425781 152.589844 C 245.214844 149.105469 244.808594 143.191406 236.699219 143.273438 C 249.429688 141.398438 295.972656 147.929688 307.707031 151.984375 Z M 307.707031 151.984375 " fill-opacity="1" fill-rule="evenodd"/><path fill="#ba0000" d="M 260.296875 165.652344 L 258.632812 162.617188 C 258.632812 162.617188 253.910156 173.324219 259.789062 180.609375 C 265.667969 187.890625 290.625 189.128906 298.734375 186.539062 C 306.839844 183.949219 305.757812 180.933594 301.796875 178.140625 C 297.832031 175.351562 260.296875 165.652344 260.296875 165.652344 Z M 260.296875 165.652344 " fill-opacity="1" fill-rule="evenodd"/><path fill="#000000" d="M 258.632812 162.617188 C 258.632812 162.617188 256.640625 168.855469 260.101562 175.285156 C 263.558594 181.71875 269.183594 184.894531 284.453125 185.078125 C 299.726562 185.257812 305.867188 183.085938 304.304688 180.132812 C 302.742188 177.179688 296.277344 165.484375 282.476562 164.199219 C 268.675781 162.917969 265.121094 161.613281 258.632812 162.617188 Z M 258.632812 162.617188 " fill-opacity="1" fill-rule="evenodd"/><path fill="#ba0000" d="M 321.226562 152.925781 C 321.226562 152.925781 309.335938 151.066406 308.371094 155.574219 C 307.40625 160.078125 306.550781 175.59375 310.308594 179.332031 C 314.066406 183.070312 341.613281 180.316406 346.289062 179.351562 C 350.960938 178.390625 354.148438 176.855469 354.585938 173.09375 C 355.023438 169.332031 321.226562 152.925781 321.226562 152.925781 Z M 321.226562 152.925781 " fill-opacity="1" fill-rule="evenodd"/><path fill="#000000" d="M 309.707031 154.125 C 309.707031 154.125 306.636719 173.621094 312.605469 177.859375 C 318.574219 182.097656 351.65625 176.851562 353.335938 175.636719 C 355.015625 174.421875 359.390625 155.804688 356.703125 152.664062 C 354.011719 149.523438 332.214844 148.691406 313.296875 152.386719 C 313.296875 152.386719 310.421875 152.71875 309.707031 154.125 Z M 309.707031 154.125 " fill-opacity="1" fill-rule="evenodd"/><path fill="#ba0000" d="M 313.25 184.066406 C 313.25 184.066406 308.570312 184.867188 304.40625 189.5 C 317.722656 191.105469 346.488281 187.25 356.636719 183.367188 L 344.964844 183.332031 Z M 313.25 184.066406 " fill-opacity="1" fill-rule="evenodd"/><path fill="#000000" d="M 306.65625 188.296875 C 306.65625 188.296875 310.5 183.832031 312.941406 183.242188 C 315.382812 182.652344 351.082031 179.796875 353.019531 180.5 C 354.960938 181.203125 357.007812 183.265625 356.839844 184.09375 C 356.671875 184.925781 307.949219 189.976562 306.65625 188.296875 Z M 306.65625 188.296875 " fill-opacity="1" fill-rule="evenodd"/><path fill="#ba0000" d="M 248.191406 119.203125 L 233.765625 118.472656 L 194.089844 115.546875 L 165.835938 121.75 L 154.335938 118.386719 L 110.089844 102.546875 C 110.089844 102.546875 74.515625 106.144531 82.128906 116.859375 C 89.742188 127.570312 157.589844 125.253906 173.308594 126.277344 C 182.902344 125.582031 200.367188 123.835938 200.367188 123.835938 C 249.335938 126.972656 292.109375 139.246094 292.109375 139.246094 C 282.179688 130.003906 220.222656 121.347656 220.222656 121.347656 C 224.480469 120.820312 232.753906 120.792969 232.753906 120.792969 C 294.691406 126.082031 332.664062 138.519531 332.664062 138.519531 C 321.542969 130.957031 277.835938 122.847656 267.417969 122.394531 C 267.417969 122.394531 320.519531 124.164062 347.542969 143.4375 C 339.605469 137.035156 329.324219 132.121094 322.289062 130.046875 C 296.722656 122.503906 251.855469 120.421875 251.855469 120.421875 C 249.246094 119.699219 249.816406 119.558594 248.191406 119.203125 Z M 248.191406 119.203125 " fill-opacity="1" fill-rule="evenodd"/><path fill="#000000" d="M 165.785156 119.648438 C 165.785156 119.648438 155.835938 104.933594 142.285156 95.960938 C 142.285156 95.960938 186.441406 91.109375 205.316406 97.808594 C 224.1875 104.511719 251.855469 120.421875 251.855469 120.421875 C 249.480469 119.984375 242.164062 119.347656 236.558594 119.183594 C 236.558594 119.183594 310.160156 125.804688 332.660156 138.519531 C 332.660156 138.519531 312.960938 127.976562 232.097656 119.714844 C 232.097656 119.714844 219.707031 120 211.402344 120.832031 C 211.402344 120.832031 282.070312 129.871094 292.109375 139.242188 C 292.109375 139.242188 273.570312 129.1875 201.003906 121.402344 C 201.003906 121.402344 185.957031 121.6875 174.34375 122.703125 C 162.730469 123.71875 100.8125 121.628906 92.566406 120.433594 C 92.566406 120.433594 91.921875 111.054688 95.863281 106.054688 C 95.863281 106.054688 91.570312 109.78125 90.210938 120.167969 C 90.210938 120.167969 70.25 115.667969 65.945312 111.976562 C 63.371094 109.769531 69.117188 106.757812 75.339844 104.390625 C 86.660156 100.085938 99.5 96.789062 112.214844 95.738281 C 142.320312 93.242188 151.757812 105.496094 165.785156 119.648438 Z M 165.785156 119.648438 " fill-opacity="1" fill-rule="evenodd"/><path fill="#ba0000" d="M 191.121094 144.25 L 204.582031 144.492188 C 204.582031 144.492188 185.511719 150.261719 183.285156 151.53125 C 178.808594 154.078125 183.886719 170.492188 188.199219 180.035156 C 168.402344 175.082031 106.941406 170.507812 91.808594 171.484375 C 79.394531 164.191406 77.804688 144.324219 68.421875 138.234375 C 63.980469 135.347656 51.640625 128.757812 51.640625 128.757812 L 66.546875 131.019531 L 91.976562 136.40625 L 154.324219 155.03125 L 179.460938 143.132812 Z M 191.121094 144.25 " fill-opacity="1" fill-rule="evenodd"/><path fill="#000000" d="M 206.800781 144.378906 C 206.800781 144.378906 180.355469 145.632812 179.324219 147.152344 C 178.289062 148.667969 178.660156 164.671875 181.320312 168.878906 C 183.980469 173.089844 188.199219 180.035156 188.199219 180.035156 C 188.199219 180.035156 94.742188 173.660156 91.808594 171.484375 C 88.875 169.3125 79.570312 150.101562 79.003906 148.621094 L 109.558594 154.210938 L 77.085938 144.285156 C 77.085938 144.285156 71.824219 133.628906 69.679688 133.25 C 67.535156 132.875 51.640625 128.757812 51.640625 128.757812 Z M 206.800781 144.378906 " fill-opacity="1" fill-rule="evenodd"/><g clip-path="url(#743b5c2bda)"><path fill="#000000" d="M 100.4375 271.304688 C 124.054688 300.652344 153.992188 330.605469 191.964844 359.210938 C 229.933594 330.605469 259.867188 300.65625 283.484375 271.3125 L 383.996094 264.324219 L 259.214844 264.324219 C 239.066406 288.1875 216.410156 310.015625 191.964844 329.726562 C 167.542969 310.039062 144.914062 288.234375 124.78125 264.40625 L 124.777344 264.324219 L -0.00390625 264.324219 Z M 100.4375 271.304688 " fill-opacity="1" fill-rule="evenodd"/></g><g clip-path="url(#b16fc74aab)"><path fill="#fe0000" d="M 12.386719 69.496094 C 12.386719 69.496094 13.089844 87.972656 20.886719 117.507812 L 21.027344 117.441406 C 24.039062 116.070312 27.152344 114.828125 30.296875 113.800781 C 32.535156 113.066406 34.847656 112.425781 37.175781 111.996094 C 38.941406 110.960938 40.742188 109.953125 42.558594 108.96875 C 41.183594 103.523438 39.960938 98.050781 38.902344 92.566406 C 38.308594 89.476562 37.691406 86.148438 37.160156 82.761719 C 85.828125 58.644531 137.148438 48.03125 191.964844 48.03125 C 246.777344 48.03125 298.101562 58.644531 346.769531 82.761719 C 346.234375 86.148438 345.617188 89.476562 345.023438 92.566406 C 342.789062 104.171875 339.804688 115.71875 336.230469 127.078125 C 343.464844 130.496094 350.515625 135.074219 356.136719 140.5 C 370.464844 97.867188 371.539062 69.496094 371.539062 69.496094 C 308.390625 34.554688 246.535156 24.726562 191.964844 24.773438 C 137.390625 24.726562 75.535156 34.554688 12.386719 69.496094 Z M 12.386719 69.496094 " fill-opacity="1" fill-rule="evenodd"/></g></svg>