<svg xmlns="http://www.w3.org/2000/svg" xmlns:xlink="http://www.w3.org/1999/xlink" width="256" zoomAndPan="magnify" viewBox="0 0 192 191.999996" height="256" preserveAspectRatio="xMidYMid meet" version="1.0"><defs><clipPath id="50fda91076"><path d="M 19.199219 56.929688 L 128 56.929688 L 128 117 L 19.199219 117 Z M 19.199219 56.929688 " clip-rule="nonzero"/></clipPath><clipPath id="5ccd5228c3"><path d="M 63 114 L 84 114 L 84 134.929688 L 63 134.929688 Z M 63 114 " clip-rule="nonzero"/></clipPath><clipPath id="a7543b3adf"><path d="M 131 64 L 172.949219 64 L 172.949219 124 L 131 124 Z M 131 64 " clip-rule="nonzero"/></clipPath><clipPath id="32c18d21ac"><path d="M 140 114 L 162 114 L 162 134.929688 L 140 134.929688 Z M 140 114 " clip-rule="nonzero"/></clipPath><clipPath id="5cd8f2501f"><path d="M 168 108 L 172.949219 108 L 172.949219 114 L 168 114 Z M 168 108 " clip-rule="nonzero"/></clipPath></defs><path fill="#064088" d="M 30.535156 86.261719 C 29.523438 86.261719 28.707031 85.441406 28.707031 84.433594 C 28.707031 83.425781 29.523438 82.609375 30.535156 82.609375 L 30.769531 82.609375 C 31.78125 82.609375 32.601562 83.425781 32.601562 84.433594 C 32.601562 85.441406 31.78125 86.261719 30.769531 86.261719 Z M 30.535156 86.261719 " fill-opacity="1" fill-rule="evenodd"/><path fill="#064088" d="M 86.855469 123.21875 L 127.394531 123.21875 L 127.394531 120.132812 L 86.109375 120.132812 C 86.472656 121.113281 86.726562 122.148438 86.855469 123.21875 Z M 86.855469 123.21875 " fill-opacity="1" fill-rule="evenodd"/><g clip-path="url(#50fda91076)"><path fill="#064088" d="M 84.074219 116.484375 L 127.394531 116.484375 L 127.394531 56.933594 L 50.085938 56.933594 L 50.085938 66.253906 L 64.859375 66.253906 C 65.871094 66.253906 66.6875 67.074219 66.6875 68.082031 C 66.6875 69.089844 65.871094 69.90625 64.859375 69.90625 L 27.917969 69.90625 C 26.90625 69.90625 26.089844 70.722656 26.089844 71.730469 C 26.089844 72.738281 26.90625 73.554688 27.917969 73.554688 L 50.085938 73.554688 L 50.085938 78.960938 L 60.042969 78.960938 C 61.054688 78.960938 61.875 79.777344 61.875 80.785156 C 61.875 81.792969 61.054688 82.609375 60.042969 82.609375 L 38.84375 82.609375 C 37.832031 82.609375 37.011719 83.425781 37.011719 84.433594 C 37.011719 85.441406 37.832031 86.257812 38.84375 86.257812 L 50.085938 86.257812 L 50.085938 91.667969 L 54.367188 91.667969 C 55.378906 91.667969 56.195312 92.484375 56.195312 93.492188 C 56.195312 94.5 55.378906 95.316406 54.367188 95.316406 L 21.023438 95.316406 C 20.015625 95.316406 19.195312 96.132812 19.195312 97.140625 C 19.195312 98.148438 20.015625 98.964844 21.023438 98.964844 L 50.085938 98.964844 L 50.085938 104.371094 L 59.296875 104.371094 C 60.308594 104.371094 61.125 105.1875 61.125 106.195312 C 61.125 107.203125 60.308594 108.023438 59.296875 108.023438 L 25.953125 108.023438 C 24.945312 108.023438 24.125 108.839844 24.125 109.847656 C 24.125 110.855469 24.945312 111.671875 25.953125 111.671875 L 50.085938 111.671875 L 50.085938 116.484375 L 62.421875 116.484375 C 62.773438 116.03125 63.148438 115.605469 63.554688 115.203125 C 66.035156 112.726562 69.460938 111.199219 73.246094 111.199219 C 77.03125 111.199219 80.460938 112.726562 82.941406 115.203125 C 83.34375 115.605469 83.722656 116.03125 84.074219 116.484375 Z M 67.238281 98.964844 C 66.226562 98.964844 65.40625 98.148438 65.40625 97.140625 C 65.40625 96.132812 66.226562 95.316406 67.238281 95.316406 L 67.257812 95.316406 C 68.265625 95.316406 69.085938 96.132812 69.085938 97.140625 C 69.085938 98.148438 68.265625 98.964844 67.257812 98.964844 Z M 67.238281 98.964844 " fill-opacity="1" fill-rule="evenodd"/></g><path fill="#064088" d="M 60.382812 120.132812 L 50.085938 120.132812 L 50.085938 123.21875 L 59.636719 123.21875 C 59.765625 122.148438 60.019531 121.113281 60.382812 120.132812 Z M 60.382812 120.132812 " fill-opacity="1" fill-rule="evenodd"/><g clip-path="url(#5ccd5228c3)"><path fill="#064088" d="M 80.351562 117.78125 C 78.535156 115.96875 76.023438 114.847656 73.246094 114.847656 C 70.472656 114.847656 67.960938 115.96875 66.140625 117.78125 C 64.324219 119.597656 63.199219 122.101562 63.199219 124.867188 C 63.199219 127.636719 64.324219 130.140625 66.140625 131.953125 C 67.960938 133.769531 70.472656 134.890625 73.246094 134.890625 C 76.023438 134.890625 78.535156 133.769531 80.351562 131.953125 C 82.171875 130.140625 83.296875 127.636719 83.296875 124.867188 C 83.296875 122.101562 82.171875 119.597656 80.351562 117.78125 Z M 80.351562 117.78125 " fill-opacity="1" fill-rule="evenodd"/></g><g clip-path="url(#a7543b3adf)"><path fill="#064088" d="M 164.578125 123.21875 L 168.078125 123.21875 C 169.421875 123.21875 170.640625 122.675781 171.523438 121.792969 C 172.40625 120.910156 172.953125 119.695312 172.953125 118.359375 L 172.953125 116.984375 L 169.503906 116.984375 C 168.308594 116.984375 167.222656 116.496094 166.4375 115.714844 C 165.652344 114.929688 165.164062 113.847656 165.164062 112.65625 L 165.164062 108.949219 C 165.164062 107.757812 165.652344 106.675781 166.4375 105.890625 C 167.222656 105.109375 168.308594 104.621094 169.503906 104.621094 L 172.953125 104.621094 L 172.953125 94.503906 C 172.953125 93.363281 172.816406 92.3125 172.53125 91.316406 C 172.242188 90.316406 171.804688 89.351562 171.203125 88.386719 L 159.648438 69.921875 C 158.554688 68.167969 157.125 66.808594 155.464844 65.886719 C 153.808594 64.972656 151.894531 64.488281 149.820312 64.488281 L 131.054688 64.488281 L 131.054688 123.21875 L 137.359375 123.21875 C 137.734375 120.105469 139.160156 117.3125 141.273438 115.203125 C 143.757812 112.730469 147.183594 111.199219 150.96875 111.199219 C 154.753906 111.199219 158.179688 112.730469 160.660156 115.203125 C 162.777344 117.3125 164.203125 120.105469 164.578125 123.21875 Z M 134.949219 93.265625 L 134.949219 70.195312 C 134.949219 69.1875 135.769531 68.371094 136.777344 68.371094 L 149.820312 68.371094 C 151.207031 68.371094 152.460938 68.679688 153.574219 69.296875 C 154.679688 69.910156 155.605469 70.804688 156.339844 71.984375 L 167.894531 90.453125 C 168.144531 90.847656 168.347656 91.238281 168.515625 91.640625 C 168.660156 91.980469 168.773438 92.332031 168.859375 92.710938 C 168.917969 92.886719 168.945312 93.074219 168.945312 93.265625 C 168.945312 94.273438 168.128906 95.089844 167.117188 95.089844 L 136.777344 95.089844 C 135.769531 95.089844 134.949219 94.273438 134.949219 93.265625 Z M 138.242188 102.925781 C 137.234375 102.925781 136.414062 102.109375 136.414062 101.101562 C 136.414062 100.09375 137.234375 99.277344 138.242188 99.277344 L 142.28125 99.277344 C 143.289062 99.277344 144.109375 100.09375 144.109375 101.101562 C 144.109375 102.109375 143.289062 102.925781 142.28125 102.925781 Z M 138.242188 102.925781 " fill-opacity="1" fill-rule="evenodd"/></g><g clip-path="url(#32c18d21ac)"><path fill="#064088" d="M 158.074219 117.78125 C 156.257812 115.96875 153.742188 114.847656 150.96875 114.847656 C 148.191406 114.847656 145.679688 115.96875 143.863281 117.78125 C 142.042969 119.597656 140.917969 122.101562 140.917969 124.867188 C 140.917969 127.636719 142.042969 130.140625 143.863281 131.953125 C 145.679688 133.769531 148.195312 134.890625 150.96875 134.890625 C 153.742188 134.890625 156.257812 133.769531 158.074219 131.953125 C 159.894531 130.140625 161.019531 127.636719 161.019531 124.867188 C 161.019531 122.101562 159.894531 119.597656 158.074219 117.78125 Z M 158.074219 117.78125 " fill-opacity="1" fill-rule="evenodd"/></g><g clip-path="url(#5cd8f2501f)"><path fill="#3b9fef" d="M 172.953125 113.332031 L 172.953125 108.273438 L 169.503906 108.273438 C 169.316406 108.273438 169.148438 108.347656 169.023438 108.472656 C 168.902344 108.59375 168.824219 108.765625 168.824219 108.949219 L 168.824219 112.65625 C 168.824219 112.839844 168.902344 113.011719 169.023438 113.132812 C 169.148438 113.257812 169.316406 113.332031 169.503906 113.332031 Z M 172.953125 113.332031 " fill-opacity="1" fill-rule="evenodd"/></g><path fill="#3b9fef" d="M 138.609375 72.019531 L 138.609375 91.441406 L 164.207031 91.441406 L 153.238281 73.90625 C 152.835938 73.261719 152.351562 72.78125 151.800781 72.476562 C 151.253906 72.171875 150.589844 72.019531 149.820312 72.019531 Z M 138.609375 72.019531 " fill-opacity="1" fill-rule="evenodd"/></svg>