<svg xmlns="http://www.w3.org/2000/svg" xmlns:xlink="http://www.w3.org/1999/xlink" width="256" zoomAndPan="magnify" viewBox="0 0 192 191.999996" height="256" preserveAspectRatio="xMidYMid meet" version="1.0"><defs><clipPath id="d0f9d780c8"><path d="M 19.199219 49.152344 L 172.949219 49.152344 L 172.949219 142.902344 L 19.199219 142.902344 Z M 19.199219 49.152344 " clip-rule="nonzero"/></clipPath></defs><g clip-path="url(#d0f9d780c8)"><path fill="#064088" d="M 125.480469 128.929688 L 69.503906 128.929688 C 68.984375 131.398438 67.949219 133.691406 66.507812 135.65625 L 128.476562 135.65625 C 127.039062 133.683594 126 131.398438 125.480469 128.929688 Z M 38.207031 135.65625 C 36.765625 133.683594 35.730469 131.398438 35.210938 128.929688 L 29.175781 128.929688 C 26.46875 128.929688 24 127.820312 22.21875 126.042969 C 20.433594 124.257812 19.332031 121.800781 19.332031 119.085938 C 19.332031 116.378906 20.441406 113.90625 22.21875 112.128906 C 23.164062 111.1875 24.308594 110.421875 25.574219 109.925781 L 25.574219 95.960938 C 25.574219 93.972656 27.1875 92.359375 29.175781 92.359375 L 36.910156 92.359375 L 46.554688 72.476562 C 47.171875 71.195312 48.449219 70.453125 49.78125 70.445312 L 73.039062 70.445312 L 73.039062 52.773438 C 73.039062 50.785156 74.652344 49.179688 76.640625 49.179688 L 169.160156 49.179688 C 171.144531 49.179688 172.753906 50.792969 172.753906 52.773438 L 172.753906 125.351562 C 172.753906 127.339844 171.144531 128.953125 169.160156 128.953125 L 159.773438 128.953125 C 159.257812 131.429688 158.21875 133.710938 156.78125 135.679688 L 161.292969 135.679688 C 163.28125 135.679688 164.886719 137.292969 164.886719 139.277344 C 164.886719 141.265625 163.273438 142.871094 161.292969 142.871094 L 33.691406 142.871094 C 31.703125 142.871094 30.097656 141.257812 30.097656 139.277344 C 30.097656 137.292969 31.710938 135.679688 33.691406 135.679688 L 38.199219 135.679688 Z M 92.664062 71.476562 L 92.664062 78.792969 L 165.566406 78.792969 L 165.566406 71.476562 Z M 92.664062 100.5 L 92.664062 107.816406 L 165.566406 107.816406 L 165.566406 100.5 Z M 85.476562 121.734375 L 85.476562 56.351562 L 80.242188 56.351562 L 80.242188 121.730469 L 85.476562 121.730469 Z M 59.667969 118.027344 C 57.800781 116.160156 55.214844 115.003906 52.363281 115.003906 C 49.511719 115.003906 46.929688 116.160156 45.0625 118.027344 C 43.199219 119.890625 42.039062 122.476562 42.039062 125.328125 C 42.039062 128.179688 43.199219 130.765625 45.0625 132.632812 C 46.929688 134.496094 49.511719 135.65625 52.363281 135.65625 C 55.214844 135.65625 57.792969 134.503906 59.667969 132.632812 C 61.53125 130.765625 62.691406 128.179688 62.691406 125.328125 C 62.691406 122.476562 61.539062 119.898438 59.667969 118.027344 Z M 149.9375 118.027344 C 148.074219 116.160156 145.488281 115.003906 142.636719 115.003906 C 139.785156 115.003906 137.207031 116.160156 135.332031 118.027344 C 133.46875 119.890625 132.308594 122.476562 132.308594 125.328125 C 132.308594 128.179688 133.46875 130.765625 135.332031 132.632812 C 137.199219 134.496094 139.785156 135.65625 142.636719 135.65625 C 145.488281 135.65625 148.074219 134.496094 149.9375 132.632812 C 151.804688 130.765625 152.960938 128.179688 152.960938 125.328125 C 152.960938 122.476562 151.808594 119.898438 149.9375 118.027344 Z M 62.085938 77.621094 L 52.035156 77.621094 L 44.890625 92.355469 L 62.09375 92.355469 L 62.09375 77.621094 Z M 62.085938 77.621094 " fill-opacity="1" fill-rule="evenodd"/></g></svg>