<svg xmlns="http://www.w3.org/2000/svg" xmlns:xlink="http://www.w3.org/1999/xlink" width="256" zoomAndPan="magnify" viewBox="0 0 192 191.999996" height="256" preserveAspectRatio="xMidYMid meet" version="1.0"><defs><clipPath id="c019bab94e"><path d="M 27.527344 116 L 53 116 L 53 122 L 27.527344 122 Z M 27.527344 116 " clip-rule="nonzero"/></clipPath><clipPath id="00c96961d1"><path d="M 34 25.230469 L 67 25.230469 L 67 71 L 34 71 Z M 34 25.230469 " clip-rule="nonzero"/></clipPath><clipPath id="3901efac6b"><path d="M 73 148 L 92 148 L 92 166.980469 L 73 166.980469 Z M 73 148 " clip-rule="nonzero"/></clipPath><clipPath id="01cb110f63"><path d="M 132 148 L 151 148 L 151 166.980469 L 132 166.980469 Z M 132 148 " clip-rule="nonzero"/></clipPath><clipPath id="bf87459008"><path d="M 123 108 L 164.777344 108 L 164.777344 158 L 123 158 Z M 123 108 " clip-rule="nonzero"/></clipPath></defs><path fill="#064088" d="M 57.199219 103.6875 L 57.199219 155.335938 C 57.199219 155.640625 57.253906 155.929688 57.371094 156.210938 C 57.488281 156.488281 57.652344 156.734375 57.867188 156.949219 C 58.082031 157.164062 58.328125 157.328125 58.605469 157.445312 C 58.886719 157.558594 59.175781 157.617188 59.480469 157.617188 L 69.75 157.617188 C 69.75 156.792969 69.832031 155.976562 69.992188 155.167969 C 70.152344 154.359375 70.390625 153.578125 70.707031 152.816406 C 71.019531 152.054688 71.40625 151.328125 71.867188 150.644531 C 72.324219 149.960938 72.84375 149.324219 73.425781 148.742188 C 74.007812 148.160156 74.644531 147.640625 75.328125 147.179688 C 76.015625 146.722656 76.738281 146.335938 77.5 146.023438 C 78.261719 145.707031 79.046875 145.46875 79.851562 145.308594 C 80.660156 145.148438 81.476562 145.066406 82.300781 145.066406 C 83.125 145.066406 83.941406 145.148438 84.75 145.308594 C 85.558594 145.46875 86.34375 145.707031 87.105469 146.023438 C 87.867188 146.335938 88.589844 146.722656 89.277344 147.179688 C 89.960938 147.640625 90.59375 148.160156 91.179688 148.742188 C 91.761719 149.324219 92.28125 149.960938 92.738281 150.644531 C 93.195312 151.328125 93.582031 152.054688 93.898438 152.816406 C 94.214844 153.578125 94.453125 154.359375 94.613281 155.167969 C 94.773438 155.976562 94.855469 156.792969 94.855469 157.617188 L 121.101562 157.617188 L 121.101562 103.6875 C 121.101562 103.386719 121.042969 103.09375 120.925781 102.816406 C 120.8125 102.535156 120.644531 102.289062 120.433594 102.074219 C 120.21875 101.863281 119.972656 101.695312 119.691406 101.582031 C 119.410156 101.464844 119.121094 101.40625 118.816406 101.40625 L 59.480469 101.40625 C 59.175781 101.40625 58.886719 101.464844 58.605469 101.582031 C 58.328125 101.695312 58.082031 101.863281 57.867188 102.074219 C 57.652344 102.289062 57.488281 102.535156 57.371094 102.816406 C 57.253906 103.09375 57.199219 103.386719 57.199219 103.6875 Z M 57.199219 103.6875 " fill-opacity="1" fill-rule="nonzero"/><g clip-path="url(#c019bab94e)"><path fill="#064088" d="M 27.527344 116.539062 L 52.632812 116.539062 L 52.632812 121.101562 L 27.527344 121.101562 Z M 27.527344 116.539062 " fill-opacity="1" fill-rule="nonzero"/></g><path fill="#064088" d="M 32.09375 130.230469 L 52.632812 130.230469 L 52.632812 134.796875 L 32.09375 134.796875 Z M 32.09375 130.230469 " fill-opacity="1" fill-rule="nonzero"/><path fill="#064088" d="M 36.65625 143.925781 L 52.632812 143.925781 L 52.632812 148.488281 L 36.65625 148.488281 Z M 36.65625 143.925781 " fill-opacity="1" fill-rule="nonzero"/><g clip-path="url(#00c96961d1)"><path fill="#064088" d="M 66.328125 41.226562 C 66.328125 40.703125 66.300781 40.179688 66.25 39.660156 C 66.199219 39.136719 66.121094 38.621094 66.019531 38.109375 C 65.917969 37.59375 65.789062 37.089844 65.640625 36.585938 C 65.488281 36.085938 65.3125 35.59375 65.109375 35.109375 C 64.910156 34.628906 64.6875 34.15625 64.441406 33.695312 C 64.195312 33.234375 63.925781 32.785156 63.632812 32.347656 C 63.34375 31.914062 63.03125 31.496094 62.699219 31.089844 C 62.367188 30.683594 62.015625 30.296875 61.648438 29.929688 C 61.277344 29.558594 60.890625 29.207031 60.484375 28.875 C 60.082031 28.542969 59.660156 28.230469 59.226562 27.941406 C 58.792969 27.652344 58.34375 27.382812 57.882812 27.136719 C 57.421875 26.890625 56.949219 26.664062 56.464844 26.464844 C 55.980469 26.265625 55.488281 26.089844 54.988281 25.9375 C 54.488281 25.785156 53.980469 25.660156 53.46875 25.554688 C 52.953125 25.453125 52.4375 25.378906 51.917969 25.324219 C 51.394531 25.273438 50.875 25.25 50.351562 25.25 C 49.828125 25.25 49.304688 25.273438 48.785156 25.324219 C 48.265625 25.378906 47.746094 25.453125 47.234375 25.554688 C 46.722656 25.660156 46.214844 25.785156 45.714844 25.9375 C 45.214844 26.089844 44.722656 26.265625 44.238281 26.464844 C 43.753906 26.664062 43.28125 26.890625 42.820312 27.136719 C 42.359375 27.382812 41.910156 27.652344 41.476562 27.941406 C 41.039062 28.230469 40.621094 28.542969 40.214844 28.875 C 39.8125 29.207031 39.425781 29.558594 39.054688 29.929688 C 38.683594 30.296875 38.332031 30.683594 38 31.089844 C 37.667969 31.496094 37.359375 31.914062 37.066406 32.347656 C 36.777344 32.785156 36.507812 33.234375 36.261719 33.695312 C 36.015625 34.15625 35.792969 34.628906 35.589844 35.109375 C 35.390625 35.59375 35.214844 36.085938 35.0625 36.585938 C 34.910156 37.089844 34.785156 37.59375 34.683594 38.109375 C 34.582031 38.621094 34.503906 39.136719 34.453125 39.660156 C 34.402344 40.179688 34.375 40.703125 34.375 41.226562 C 34.375 50.046875 50.351562 70.894531 50.351562 70.894531 C 50.351562 70.894531 66.328125 50.046875 66.328125 41.226562 Z M 42.363281 41.226562 C 42.363281 40.699219 42.414062 40.179688 42.515625 39.667969 C 42.617188 39.152344 42.769531 38.652344 42.972656 38.167969 C 43.171875 37.683594 43.417969 37.222656 43.710938 36.785156 C 44 36.351562 44.332031 35.949219 44.703125 35.578125 C 45.074219 35.207031 45.476562 34.875 45.914062 34.582031 C 46.347656 34.292969 46.808594 34.046875 47.292969 33.84375 C 47.777344 33.644531 48.277344 33.492188 48.792969 33.390625 C 49.308594 33.289062 49.828125 33.238281 50.351562 33.238281 C 50.875 33.238281 51.394531 33.289062 51.910156 33.390625 C 52.425781 33.492188 52.921875 33.644531 53.40625 33.84375 C 53.890625 34.046875 54.351562 34.292969 54.789062 34.582031 C 55.226562 34.875 55.628906 35.207031 56 35.578125 C 56.371094 35.949219 56.703125 36.351562 56.992188 36.785156 C 57.285156 37.222656 57.53125 37.683594 57.730469 38.167969 C 57.929688 38.652344 58.082031 39.152344 58.183594 39.667969 C 58.289062 40.179688 58.339844 40.699219 58.339844 41.226562 C 58.339844 41.75 58.289062 42.269531 58.183594 42.78125 C 58.082031 43.296875 57.929688 43.796875 57.730469 44.28125 C 57.53125 44.765625 57.285156 45.226562 56.992188 45.664062 C 56.703125 46.097656 56.371094 46.503906 56 46.871094 C 55.628906 47.242188 55.226562 47.574219 54.789062 47.867188 C 54.351562 48.15625 53.890625 48.402344 53.40625 48.605469 C 52.921875 48.804688 52.425781 48.957031 51.910156 49.058594 C 51.394531 49.160156 50.875 49.210938 50.351562 49.210938 C 49.828125 49.210938 49.308594 49.160156 48.792969 49.058594 C 48.277344 48.957031 47.777344 48.804688 47.292969 48.605469 C 46.808594 48.402344 46.347656 48.15625 45.914062 47.867188 C 45.476562 47.574219 45.074219 47.242188 44.703125 46.871094 C 44.332031 46.503906 44 46.097656 43.710938 45.664062 C 43.417969 45.226562 43.171875 44.765625 42.972656 44.28125 C 42.769531 43.796875 42.617188 43.296875 42.515625 42.78125 C 42.414062 42.269531 42.363281 41.75 42.363281 41.226562 Z M 42.363281 41.226562 " fill-opacity="1" fill-rule="nonzero"/></g><path fill="#064088" d="M 157.617188 45.789062 C 157.617188 45.265625 157.589844 44.742188 157.539062 44.222656 C 157.488281 43.703125 157.410156 43.1875 157.308594 42.671875 C 157.207031 42.160156 157.078125 41.652344 156.929688 41.152344 C 156.777344 40.652344 156.601562 40.160156 156.398438 39.675781 C 156.199219 39.191406 155.976562 38.71875 155.730469 38.257812 C 155.484375 37.796875 155.214844 37.347656 154.921875 36.914062 C 154.632812 36.480469 154.320312 36.058594 153.988281 35.65625 C 153.65625 35.25 153.304688 34.863281 152.9375 34.492188 C 152.566406 34.121094 152.179688 33.773438 151.773438 33.441406 C 151.371094 33.109375 150.949219 32.796875 150.515625 32.507812 C 150.082031 32.214844 149.632812 31.945312 149.171875 31.699219 C 148.710938 31.453125 148.238281 31.230469 147.753906 31.03125 C 147.269531 30.828125 146.777344 30.652344 146.277344 30.5 C 145.777344 30.351562 145.269531 30.222656 144.757812 30.121094 C 144.242188 30.019531 143.726562 29.941406 143.207031 29.890625 C 142.683594 29.839844 142.164062 29.8125 141.640625 29.8125 C 141.117188 29.8125 140.59375 29.839844 140.074219 29.890625 C 139.554688 29.941406 139.035156 30.019531 138.523438 30.121094 C 138.011719 30.222656 137.503906 30.351562 137.003906 30.5 C 136.503906 30.652344 136.011719 30.828125 135.527344 31.03125 C 135.042969 31.230469 134.570312 31.453125 134.109375 31.699219 C 133.648438 31.945312 133.199219 32.214844 132.765625 32.507812 C 132.328125 32.796875 131.910156 33.109375 131.503906 33.441406 C 131.101562 33.773438 130.714844 34.121094 130.34375 34.492188 C 129.972656 34.863281 129.621094 35.25 129.289062 35.65625 C 128.957031 36.058594 128.648438 36.480469 128.355469 36.914062 C 128.066406 37.347656 127.796875 37.796875 127.550781 38.257812 C 127.304688 38.71875 127.082031 39.191406 126.878906 39.675781 C 126.679688 40.160156 126.503906 40.652344 126.351562 41.152344 C 126.199219 41.652344 126.074219 42.160156 125.972656 42.671875 C 125.871094 43.1875 125.792969 43.703125 125.742188 44.222656 C 125.691406 44.742188 125.664062 45.265625 125.664062 45.789062 C 125.664062 54.613281 141.640625 75.457031 141.640625 75.457031 C 141.640625 75.457031 157.617188 54.613281 157.617188 45.789062 Z M 133.652344 45.789062 C 133.652344 45.265625 133.703125 44.746094 133.804688 44.230469 C 133.90625 43.714844 134.058594 43.21875 134.261719 42.734375 C 134.460938 42.246094 134.707031 41.789062 135 41.351562 C 135.289062 40.914062 135.621094 40.511719 135.992188 40.140625 C 136.363281 39.769531 136.765625 39.4375 137.203125 39.148438 C 137.636719 38.855469 138.097656 38.609375 138.582031 38.410156 C 139.066406 38.207031 139.566406 38.058594 140.082031 37.953125 C 140.597656 37.851562 141.117188 37.800781 141.640625 37.800781 C 142.164062 37.800781 142.683594 37.851562 143.199219 37.953125 C 143.710938 38.058594 144.210938 38.207031 144.695312 38.410156 C 145.179688 38.609375 145.640625 38.855469 146.078125 39.148438 C 146.515625 39.4375 146.917969 39.769531 147.289062 40.140625 C 147.660156 40.511719 147.992188 40.914062 148.28125 41.351562 C 148.574219 41.789062 148.820312 42.246094 149.019531 42.734375 C 149.21875 43.21875 149.371094 43.714844 149.472656 44.230469 C 149.578125 44.746094 149.628906 45.265625 149.628906 45.789062 C 149.628906 46.3125 149.578125 46.832031 149.472656 47.347656 C 149.371094 47.863281 149.21875 48.363281 149.019531 48.847656 C 148.820312 49.332031 148.574219 49.789062 148.28125 50.226562 C 147.992188 50.664062 147.660156 51.066406 147.289062 51.4375 C 146.917969 51.808594 146.515625 52.140625 146.078125 52.429688 C 145.640625 52.722656 145.179688 52.96875 144.695312 53.167969 C 144.210938 53.371094 143.710938 53.519531 143.199219 53.625 C 142.683594 53.726562 142.164062 53.777344 141.640625 53.777344 C 141.117188 53.777344 140.597656 53.726562 140.082031 53.625 C 139.566406 53.519531 139.066406 53.371094 138.582031 53.167969 C 138.097656 52.96875 137.636719 52.722656 137.203125 52.429688 C 136.765625 52.140625 136.363281 51.808594 135.992188 51.4375 C 135.621094 51.066406 135.289062 50.664062 135 50.226562 C 134.707031 49.789062 134.460938 49.332031 134.261719 48.847656 C 134.058594 48.363281 133.90625 47.863281 133.804688 47.347656 C 133.703125 46.832031 133.652344 46.3125 133.652344 45.789062 Z M 133.652344 45.789062 " fill-opacity="1" fill-rule="nonzero"/><path fill="#064088" d="M 133.789062 79.769531 C 132.359375 79.933594 130.925781 80.015625 129.488281 80.023438 L 129.496094 84.585938 C 131.101562 84.582031 132.703125 84.488281 134.300781 84.304688 Z M 133.789062 79.769531 " fill-opacity="1" fill-rule="nonzero"/><path fill="#064088" d="M 125.234375 79.761719 C 123.835938 79.582031 122.457031 79.300781 121.097656 78.917969 L 119.847656 83.304688 C 121.421875 83.753906 123.019531 84.078125 124.644531 84.289062 Z M 125.234375 79.761719 " fill-opacity="1" fill-rule="nonzero"/><path fill="#064088" d="M 117.167969 77.449219 C 115.898438 76.851562 114.6875 76.15625 113.527344 75.363281 L 110.96875 79.144531 C 112.324219 80.070312 113.746094 80.882812 115.234375 81.582031 Z M 117.167969 77.449219 " fill-opacity="1" fill-rule="nonzero"/><path fill="#064088" d="M 63.933594 70.25 C 62.488281 70.667969 61.003906 71.136719 59.480469 71.65625 L 60.960938 75.976562 C 62.414062 75.476562 63.828125 75.03125 65.210938 74.628906 Z M 63.933594 70.25 " fill-opacity="1" fill-rule="nonzero"/><path fill="#064088" d="M 109.917969 72.730469 C 108.621094 71.75 107.261719 70.867188 105.839844 70.078125 L 103.65625 74.085938 C 104.894531 74.777344 106.082031 75.550781 107.214844 76.40625 Z M 109.917969 72.730469 " fill-opacity="1" fill-rule="nonzero"/><path fill="#064088" d="M 73.867188 72.570312 L 73.035156 68.085938 C 71.574219 68.355469 70.046875 68.679688 68.457031 69.054688 L 69.511719 73.496094 C 71.023438 73.136719 72.476562 72.832031 73.867188 72.570312 Z M 73.867188 72.570312 " fill-opacity="1" fill-rule="nonzero"/><path fill="#064088" d="M 82.679688 71.402344 L 82.316406 66.851562 C 80.898438 66.964844 79.339844 67.125 77.65625 67.347656 L 78.257812 71.875 C 79.855469 71.660156 81.335938 71.511719 82.679688 71.402344 Z M 82.679688 71.402344 " fill-opacity="1" fill-rule="nonzero"/><path fill="#064088" d="M 99.84375 72.433594 L 101.296875 68.105469 C 100.847656 67.957031 100.378906 67.808594 99.894531 67.671875 C 98.789062 67.351562 97.671875 67.09375 96.539062 66.898438 L 95.761719 71.394531 C 96.734375 71.5625 97.691406 71.785156 98.636719 72.058594 C 99.054688 72.175781 99.457031 72.300781 99.84375 72.433594 Z M 99.84375 72.433594 " fill-opacity="1" fill-rule="nonzero"/><path fill="#064088" d="M 91.558594 71.003906 L 91.667969 66.4375 C 90.292969 66.40625 88.832031 66.4375 86.925781 66.542969 L 87.171875 71.097656 C 88.953125 71.003906 90.308594 70.972656 91.558594 71.003906 Z M 91.558594 71.003906 " fill-opacity="1" fill-rule="nonzero"/><g clip-path="url(#3901efac6b)"><path fill="#064088" d="M 91.429688 157.617188 C 91.429688 158.21875 91.371094 158.8125 91.253906 159.398438 C 91.140625 159.988281 90.964844 160.558594 90.734375 161.113281 C 90.507812 161.664062 90.226562 162.191406 89.894531 162.691406 C 89.558594 163.1875 89.179688 163.648438 88.757812 164.074219 C 88.332031 164.496094 87.871094 164.875 87.375 165.207031 C 86.875 165.542969 86.347656 165.824219 85.796875 166.050781 C 85.242188 166.28125 84.671875 166.453125 84.082031 166.570312 C 83.496094 166.6875 82.902344 166.746094 82.300781 166.746094 C 81.703125 166.746094 81.109375 166.6875 80.519531 166.570312 C 79.933594 166.453125 79.363281 166.28125 78.808594 166.050781 C 78.253906 165.824219 77.730469 165.542969 77.230469 165.207031 C 76.730469 164.875 76.269531 164.496094 75.847656 164.074219 C 75.421875 163.648438 75.042969 163.1875 74.710938 162.691406 C 74.378906 162.191406 74.097656 161.664062 73.867188 161.113281 C 73.640625 160.558594 73.464844 159.988281 73.347656 159.398438 C 73.230469 158.8125 73.171875 158.21875 73.171875 157.617188 C 73.171875 157.019531 73.230469 156.425781 73.347656 155.835938 C 73.464844 155.25 73.640625 154.679688 73.867188 154.125 C 74.097656 153.570312 74.378906 153.046875 74.710938 152.546875 C 75.042969 152.046875 75.421875 151.585938 75.847656 151.164062 C 76.269531 150.738281 76.730469 150.359375 77.230469 150.027344 C 77.730469 149.695312 78.253906 149.414062 78.808594 149.183594 C 79.363281 148.953125 79.933594 148.78125 80.519531 148.664062 C 81.109375 148.546875 81.703125 148.488281 82.300781 148.488281 C 82.902344 148.488281 83.496094 148.546875 84.082031 148.664062 C 84.671875 148.78125 85.242188 148.953125 85.796875 149.183594 C 86.347656 149.414062 86.875 149.695312 87.375 150.027344 C 87.871094 150.359375 88.332031 150.738281 88.757812 151.164062 C 89.179688 151.585938 89.558594 152.046875 89.894531 152.546875 C 90.226562 153.046875 90.507812 153.570312 90.734375 154.125 C 90.964844 154.679688 91.140625 155.25 91.253906 155.835938 C 91.371094 156.425781 91.429688 157.019531 91.429688 157.617188 Z M 91.429688 157.617188 " fill-opacity="1" fill-rule="nonzero"/></g><g clip-path="url(#01cb110f63)"><path fill="#064088" d="M 150.769531 157.617188 C 150.769531 158.21875 150.710938 158.8125 150.59375 159.398438 C 150.476562 159.988281 150.304688 160.558594 150.074219 161.113281 C 149.84375 161.664062 149.5625 162.191406 149.230469 162.691406 C 148.898438 163.1875 148.519531 163.648438 148.09375 164.074219 C 147.671875 164.496094 147.210938 164.875 146.710938 165.207031 C 146.214844 165.542969 145.6875 165.824219 145.132812 166.050781 C 144.578125 166.28125 144.007812 166.453125 143.421875 166.570312 C 142.832031 166.6875 142.238281 166.746094 141.640625 166.746094 C 141.039062 166.746094 140.445312 166.6875 139.859375 166.570312 C 139.269531 166.453125 138.699219 166.28125 138.148438 166.050781 C 137.59375 165.824219 137.066406 165.542969 136.570312 165.207031 C 136.070312 164.875 135.609375 164.496094 135.183594 164.074219 C 134.761719 163.648438 134.382812 163.1875 134.050781 162.691406 C 133.714844 162.191406 133.433594 161.664062 133.207031 161.113281 C 132.976562 160.558594 132.804688 159.988281 132.6875 159.398438 C 132.570312 158.8125 132.511719 158.21875 132.511719 157.617188 C 132.511719 157.019531 132.570312 156.425781 132.6875 155.835938 C 132.804688 155.25 132.976562 154.679688 133.207031 154.125 C 133.433594 153.570312 133.714844 153.046875 134.050781 152.546875 C 134.382812 152.046875 134.761719 151.585938 135.183594 151.164062 C 135.609375 150.738281 136.070312 150.359375 136.570312 150.027344 C 137.066406 149.695312 137.59375 149.414062 138.148438 149.183594 C 138.699219 148.953125 139.269531 148.78125 139.859375 148.664062 C 140.445312 148.546875 141.039062 148.488281 141.640625 148.488281 C 142.238281 148.488281 142.832031 148.546875 143.421875 148.664062 C 144.007812 148.78125 144.578125 148.953125 145.132812 149.183594 C 145.6875 149.414062 146.214844 149.695312 146.710938 150.027344 C 147.210938 150.359375 147.671875 150.738281 148.09375 151.164062 C 148.519531 151.585938 148.898438 152.046875 149.230469 152.546875 C 149.5625 153.046875 149.84375 153.570312 150.074219 154.125 C 150.304688 154.679688 150.476562 155.25 150.59375 155.835938 C 150.710938 156.425781 150.769531 157.019531 150.769531 157.617188 Z M 150.769531 157.617188 " fill-opacity="1" fill-rule="nonzero"/></g><g clip-path="url(#bf87459008)"><path fill="#064088" d="M 146.113281 108.253906 L 123.382812 108.253906 L 123.382812 157.617188 L 129.089844 157.617188 C 129.089844 156.792969 129.167969 155.976562 129.328125 155.167969 C 129.488281 154.359375 129.726562 153.578125 130.042969 152.816406 C 130.359375 152.054688 130.746094 151.328125 131.203125 150.644531 C 131.660156 149.960938 132.179688 149.324219 132.765625 148.742188 C 133.347656 148.160156 133.980469 147.640625 134.667969 147.179688 C 135.351562 146.722656 136.074219 146.335938 136.835938 146.023438 C 137.597656 145.707031 138.382812 145.46875 139.191406 145.308594 C 140 145.148438 140.816406 145.066406 141.640625 145.066406 C 142.464844 145.066406 143.28125 145.148438 144.089844 145.308594 C 144.898438 145.46875 145.683594 145.707031 146.445312 146.023438 C 147.207031 146.335938 147.929688 146.722656 148.613281 147.179688 C 149.300781 147.640625 149.933594 148.160156 150.515625 148.742188 C 151.097656 149.324219 151.617188 149.960938 152.078125 150.644531 C 152.535156 151.328125 152.921875 152.054688 153.238281 152.816406 C 153.550781 153.578125 153.789062 154.359375 153.953125 155.167969 C 154.113281 155.976562 154.191406 156.792969 154.191406 157.617188 L 159.898438 157.617188 C 160.199219 157.617188 160.492188 157.585938 160.789062 157.527344 C 161.082031 157.46875 161.367188 157.382812 161.644531 157.265625 C 161.917969 157.152344 162.183594 157.011719 162.429688 156.84375 C 162.679688 156.679688 162.910156 156.488281 163.121094 156.277344 C 163.332031 156.066406 163.523438 155.835938 163.6875 155.585938 C 163.855469 155.335938 163.996094 155.074219 164.113281 154.796875 C 164.226562 154.523438 164.3125 154.238281 164.371094 153.945312 C 164.429688 153.648438 164.460938 153.351562 164.460938 153.054688 L 164.460938 132.515625 C 164.457031 131.554688 164.183594 130.679688 163.640625 129.890625 L 149.855469 110.195312 C 149.425781 109.589844 148.878906 109.113281 148.21875 108.773438 C 147.558594 108.429688 146.855469 108.257812 146.113281 108.253906 Z M 132.511719 126.511719 L 132.511719 112.816406 L 146.203125 112.816406 L 155.332031 126.511719 Z M 132.511719 126.511719 " fill-opacity="1" fill-rule="nonzero"/></g></svg>