<svg xmlns="http://www.w3.org/2000/svg" xmlns:xlink="http://www.w3.org/1999/xlink" width="256" zoomAndPan="magnify" viewBox="0 0 192 191.999996" height="256" preserveAspectRatio="xMidYMid meet" version="1.0"><defs><clipPath id="613b80c1d3"><path d="M 23.949219 36.199219 L 81 36.199219 L 81 107 L 23.949219 107 Z M 23.949219 36.199219 " clip-rule="nonzero"/></clipPath><clipPath id="b398fc7be3"><path d="M 125 84 L 167.949219 84 L 167.949219 142 L 125 142 Z M 125 84 " clip-rule="nonzero"/></clipPath></defs><g clip-path="url(#613b80c1d3)"><path fill="#064088" d="M 70.949219 94.023438 C 76.144531 90.488281 80.425781 82.464844 80.425781 76.148438 L 80.425781 50 L 52.199219 36.199219 L 23.972656 49.957031 L 23.972656 76.148438 C 23.972656 82.425781 28.214844 90.449219 33.453125 94.023438 L 52.199219 106.785156 Z M 48.417969 81.550781 C 47.835938 81.550781 47.253906 81.304688 46.878906 80.84375 L 39.148438 72.945312 C 38.316406 72.117188 38.316406 70.703125 39.148438 69.871094 C 39.976562 69.039062 41.390625 69.039062 42.222656 69.871094 L 48.457031 76.148438 L 62.261719 62.347656 C 63.09375 61.515625 64.503906 61.515625 65.335938 62.347656 C 66.167969 63.175781 66.167969 64.589844 65.335938 65.421875 L 49.957031 80.804688 C 49.582031 81.304688 49 81.550781 48.417969 81.550781 Z M 48.417969 81.550781 " fill-opacity="1" fill-rule="nonzero"/></g><path fill="#064088" d="M 144.945312 105.871094 L 164.359375 105.871094 C 163.945312 105.582031 163.527344 104.957031 163.070312 104.542969 L 145.527344 88.328125 C 145.113281 87.871094 144.613281 87.539062 144.113281 87.246094 L 144.113281 105.207031 C 144.113281 105.582031 144.488281 105.871094 144.945312 105.871094 Z M 144.945312 105.871094 " fill-opacity="1" fill-rule="nonzero"/><path fill="#064088" d="M 59.683594 133.390625 C 54.609375 133.144531 50.121094 136.550781 48.914062 141.457031 C 47.710938 146.402344 50.121094 151.476562 54.695312 153.636719 C 59.265625 155.800781 64.753906 154.386719 67.746094 150.3125 C 70.742188 146.238281 70.449219 140.582031 67.042969 136.84375 C 65.171875 134.722656 62.550781 133.476562 59.683594 133.390625 Z M 59.683594 133.390625 " fill-opacity="1" fill-rule="nonzero"/><g clip-path="url(#b398fc7be3)"><path fill="#064088" d="M 144.945312 110.238281 C 142.121094 110.238281 139.75 107.992188 139.707031 105.164062 L 139.707031 84.960938 C 138.171875 84.421875 136.507812 84.128906 134.886719 84.046875 L 125.074219 84.046875 L 125.074219 141.414062 L 130.8125 141.414062 C 132.015625 134.515625 138.210938 128.945312 145.570312 128.945312 C 152.96875 128.945312 159.121094 134.597656 160.328125 141.414062 L 168.019531 141.414062 L 168.019531 116.015625 C 168.019531 114.019531 167.601562 112.066406 166.855469 110.238281 Z M 144.945312 110.238281 " fill-opacity="1" fill-rule="nonzero"/></g><path fill="#064088" d="M 36.484375 141.414062 L 44.425781 141.414062 C 45.007812 138.132812 46.671875 135.136719 49.125 132.894531 C 53.15625 129.191406 58.894531 127.988281 64.089844 129.816406 C 69.285156 131.605469 73.070312 136.050781 74.023438 141.457031 L 120.710938 141.457031 L 120.710938 116.804688 L 36.484375 116.804688 Z M 36.484375 141.414062 " fill-opacity="1" fill-rule="nonzero"/><path fill="#064088" d="M 145.613281 133.390625 C 139.707031 133.390625 134.96875 138.132812 134.96875 144.035156 C 134.96875 149.9375 139.707031 154.675781 145.613281 154.675781 C 151.515625 154.675781 156.253906 149.9375 156.253906 144.035156 C 156.210938 138.132812 151.472656 133.390625 145.613281 133.390625 Z M 145.613281 133.390625 " fill-opacity="1" fill-rule="nonzero"/><path fill="#064088" d="M 111.066406 67.542969 L 84.832031 67.542969 L 84.832031 76.191406 C 84.832031 84.003906 79.886719 93.234375 73.402344 97.640625 L 53.40625 111.277344 C 53.074219 111.523438 52.617188 111.691406 52.160156 111.691406 C 51.703125 111.691406 51.242188 111.523438 50.910156 111.277344 L 36.484375 101.464844 L 36.484375 112.480469 L 120.710938 112.480469 L 120.710938 77.1875 C 120.710938 74.652344 119.710938 72.15625 117.925781 70.371094 C 116.09375 68.582031 113.683594 67.542969 111.066406 67.542969 Z M 111.066406 67.542969 " fill-opacity="1" fill-rule="nonzero"/></svg>