<svg xmlns="http://www.w3.org/2000/svg" xmlns:xlink="http://www.w3.org/1999/xlink" width="256" zoomAndPan="magnify" viewBox="0 0 192 191.999996" height="256" preserveAspectRatio="xMidYMid meet" version="1.0"><defs><clipPath id="8eb5469235"><path d="M 121.113281 127.320312 L 143.28125 127.320312 L 143.28125 149.125 L 121.113281 149.125 Z M 121.113281 127.320312 " clip-rule="nonzero"/></clipPath><clipPath id="39a878d8af"><path d="M 67.105469 127.320312 L 89.125 127.320312 L 89.125 149.125 L 67.105469 149.125 Z M 67.105469 127.320312 " clip-rule="nonzero"/></clipPath><clipPath id="b3162acd90"><path d="M 19.199219 86 L 29 86 L 29 93 L 19.199219 93 Z M 19.199219 86 " clip-rule="nonzero"/></clipPath><clipPath id="76650ac551"><path d="M 95.078125 42.667969 L 172.804688 42.667969 L 172.804688 116.460938 L 95.078125 116.460938 Z M 95.078125 42.667969 " clip-rule="nonzero"/></clipPath><clipPath id="f02af9930f"><path d="M 63.535156 147.257812 L 78.710938 147.257812 L 78.710938 149.125 L 63.535156 149.125 Z M 63.535156 147.257812 " clip-rule="nonzero"/></clipPath><clipPath id="06318a10a5"><path d="M 118.582031 147.257812 L 131.527344 147.257812 L 131.527344 149.125 L 118.582031 149.125 Z M 118.582031 147.257812 " clip-rule="nonzero"/></clipPath></defs><path fill="#064088" d="M 144.808594 114.878906 L 124.054688 114.878906 C 123.015625 114.878906 122.207031 113.980469 122.316406 112.949219 L 123.675781 100.023438 C 123.714844 99.632812 124.066406 99.3125 124.460938 99.3125 L 132.644531 99.3125 C 133.726562 99.3125 134.722656 99.742188 135.40625 100.507812 L 146.078125 112.433594 C 146.886719 113.335938 146.085938 114.878906 144.808594 114.878906 Z M 154.730469 116.605469 L 138.496094 98.460938 C 137.070312 96.867188 135 95.972656 132.746094 95.972656 L 121.246094 95.972656 C 120.269531 95.972656 119.339844 96.300781 118.566406 96.855469 L 119.152344 91.277344 C 119.417969 88.726562 117.417969 86.503906 114.855469 86.503906 L 33.828125 86.503906 C 32.269531 86.503906 31.007812 87.769531 31.007812 89.328125 C 31.007812 90.882812 32.269531 92.148438 33.828125 92.148438 L 74.433594 92.148438 C 75.992188 92.148438 77.253906 93.410156 77.253906 94.96875 C 77.253906 96.527344 75.992188 97.789062 74.433594 97.789062 L 39.546875 97.789062 C 37.988281 97.789062 36.726562 99.054688 36.726562 100.613281 C 36.726562 102.171875 37.988281 103.433594 39.546875 103.433594 L 71.636719 103.433594 C 73.195312 103.433594 74.460938 104.699219 74.460938 106.257812 C 74.460938 107.8125 73.195312 109.078125 71.636719 109.078125 L 26.488281 109.078125 C 24.929688 109.078125 23.664062 110.339844 23.664062 111.898438 C 23.664062 113.457031 24.929688 114.722656 26.488281 114.722656 L 58.453125 114.722656 C 60.011719 114.722656 61.277344 115.984375 61.277344 117.542969 C 61.277344 119.101562 60.011719 120.363281 58.453125 120.363281 L 38.6875 120.363281 C 37.128906 120.363281 35.867188 121.628906 35.867188 123.1875 C 35.867188 124.746094 37.128906 126.007812 38.6875 126.007812 L 46.8125 126.007812 L 46.015625 133.582031 C 45.746094 136.132812 47.746094 138.355469 50.3125 138.355469 L 64.890625 138.355469 C 64.890625 131.078125 70.808594 125.15625 78.085938 125.15625 C 85.363281 125.15625 91.285156 131.078125 91.285156 138.355469 L 119.027344 138.355469 C 119.027344 131.078125 124.945312 125.15625 132.222656 125.15625 C 139.5 125.15625 145.421875 131.078125 145.421875 138.355469 L 148.847656 138.355469 C 152.210938 138.355469 155.222656 135.628906 155.574219 132.269531 L 156.589844 122.617188 C 156.824219 120.359375 156.15625 118.199219 154.730469 116.605469 " fill-opacity="1" fill-rule="nonzero"/><g clip-path="url(#8eb5469235)"><path fill="#064088" d="M 132.222656 143.078125 C 129.617188 143.078125 127.5 140.960938 127.5 138.355469 C 127.5 135.75 129.617188 133.628906 132.222656 133.628906 C 134.828125 133.628906 136.949219 135.75 136.949219 138.355469 C 136.949219 140.960938 134.828125 143.078125 132.222656 143.078125 Z M 132.222656 127.382812 C 126.175781 127.382812 121.253906 132.304688 121.253906 138.355469 C 121.253906 144.402344 126.175781 149.324219 132.222656 149.324219 C 138.273438 149.324219 143.195312 144.402344 143.195312 138.355469 C 143.195312 132.304688 138.273438 127.382812 132.222656 127.382812 " fill-opacity="1" fill-rule="nonzero"/></g><g clip-path="url(#39a878d8af)"><path fill="#064088" d="M 78.085938 143.078125 C 75.484375 143.078125 73.363281 140.960938 73.363281 138.355469 C 73.363281 135.75 75.484375 133.628906 78.085938 133.628906 C 80.691406 133.628906 82.8125 135.75 82.8125 138.355469 C 82.8125 140.960938 80.691406 143.078125 78.085938 143.078125 Z M 78.085938 127.382812 C 72.039062 127.382812 67.117188 132.304688 67.117188 138.355469 C 67.117188 144.402344 72.039062 149.324219 78.085938 149.324219 C 84.136719 149.324219 89.058594 144.402344 89.058594 138.355469 C 89.058594 132.304688 84.136719 127.382812 78.085938 127.382812 " fill-opacity="1" fill-rule="nonzero"/></g><g clip-path="url(#b3162acd90)"><path fill="#064088" d="M 28.132812 89.328125 C 28.132812 87.769531 26.867188 86.503906 25.308594 86.503906 L 22.023438 86.503906 C 20.464844 86.503906 19.199219 87.769531 19.199219 89.328125 C 19.199219 90.882812 20.464844 92.148438 22.023438 92.148438 L 25.308594 92.148438 C 26.867188 92.148438 28.132812 90.882812 28.132812 89.328125 " fill-opacity="1" fill-rule="nonzero"/></g><path fill="#064088" d="M 25.128906 100.613281 C 25.128906 102.171875 26.394531 103.433594 27.953125 103.433594 L 31.238281 103.433594 C 32.796875 103.433594 34.0625 102.171875 34.0625 100.613281 C 34.0625 99.054688 32.796875 97.789062 31.238281 97.789062 L 27.953125 97.789062 C 26.394531 97.789062 25.128906 99.054688 25.128906 100.613281 " fill-opacity="1" fill-rule="nonzero"/><g clip-path="url(#76650ac551)"><path fill="#064088" d="M 129.851562 42.667969 C 115.582031 42.667969 102.941406 49.621094 95.128906 60.324219 C 102.875 52.746094 113.476562 48.074219 125.171875 48.074219 C 148.894531 48.074219 168.125 67.304688 168.125 91.027344 C 168.125 100.484375 165.070312 109.226562 159.890625 116.320312 C 167.859375 108.523438 172.804688 97.648438 172.804688 85.621094 C 172.804688 61.898438 153.574219 42.667969 129.851562 42.667969 " fill-opacity="1" fill-rule="nonzero"/></g><path fill="#064088" d="M 130.0625 89.597656 C 130.0625 91.15625 128.796875 92.417969 127.238281 92.417969 C 125.679688 92.417969 124.417969 91.15625 124.417969 89.597656 C 124.417969 88.039062 125.679688 86.773438 127.238281 86.773438 C 128.796875 86.773438 130.0625 88.039062 130.0625 89.597656 " fill-opacity="1" fill-rule="nonzero"/><path fill="#064088" d="M 152.734375 76.261719 C 152.273438 75.382812 151.191406 75.042969 150.3125 75.503906 L 129.300781 86.492188 C 130.304688 87.160156 130.964844 88.300781 130.964844 89.597656 C 130.964844 89.621094 130.964844 89.648438 130.964844 89.671875 L 151.976562 78.683594 C 152.855469 78.222656 153.191406 77.140625 152.734375 76.261719 Z M 123.449219 71.734375 C 122.480469 71.941406 121.863281 72.894531 122.066406 73.863281 L 124.804688 86.773438 C 125.457031 86.210938 126.308594 85.867188 127.238281 85.867188 C 127.613281 85.867188 127.976562 85.925781 128.316406 86.027344 L 125.578125 73.117188 C 125.371094 72.148438 124.417969 71.53125 123.449219 71.734375 " fill-opacity="1" fill-rule="nonzero"/><g clip-path="url(#f02af9930f)"><path fill="#064088" d="M 78.570312 147.332031 L 78.570312 149.324219 L 63.632812 149.324219 Z M 78.570312 147.332031 " fill-opacity="1" fill-rule="nonzero"/></g><g clip-path="url(#06318a10a5)"><path fill="#064088" d="M 131.480469 147.332031 L 131.480469 149.324219 L 118.582031 149.324219 Z M 131.480469 147.332031 " fill-opacity="1" fill-rule="nonzero"/></g></svg>