<svg xmlns="http://www.w3.org/2000/svg" xmlns:xlink="http://www.w3.org/1999/xlink" width="256" zoomAndPan="magnify" viewBox="0 0 192 191.999996" height="256" preserveAspectRatio="xMidYMid meet" version="1.0"><defs><clipPath id="1a12670bbe"><path d="M 19.199219 34.847656 L 172.949219 34.847656 L 172.949219 157.097656 L 19.199219 157.097656 Z M 19.199219 34.847656 " clip-rule="nonzero"/></clipPath></defs><g clip-path="url(#1a12670bbe)"><path fill="#064088" d="M 159.128906 86.03125 C 158.875 85.691406 158.449219 85.492188 158.023438 85.492188 L 122.523438 85.492188 L 122.523438 59.050781 C 122.523438 58.261719 121.902344 57.636719 121.109375 57.636719 L 96.988281 57.636719 C 95.234375 44.785156 84.222656 34.847656 70.917969 34.847656 C 57.609375 34.847656 46.597656 44.785156 44.84375 57.636719 L 20.722656 57.636719 C 19.929688 57.636719 19.308594 58.261719 19.308594 59.050781 L 19.308594 134.609375 C 19.308594 135.402344 19.960938 136.027344 20.722656 136.027344 L 27.007812 136.027344 C 26.328125 137.78125 25.933594 139.679688 25.933594 141.660156 C 25.933594 150.210938 32.867188 157.144531 41.417969 157.144531 C 49.96875 157.144531 56.875 150.210938 56.875 141.660156 C 56.875 139.679688 56.507812 137.78125 55.800781 136.027344 L 79.042969 136.027344 C 78.363281 137.78125 77.964844 139.679688 77.964844 141.660156 C 77.964844 150.210938 84.902344 157.144531 93.449219 157.144531 C 102 157.144531 108.9375 150.210938 108.9375 141.660156 C 108.9375 139.679688 108.539062 137.78125 107.859375 136.027344 L 131.78125 136.027344 C 131.101562 137.78125 130.707031 139.679688 130.707031 141.660156 C 130.707031 150.210938 137.640625 157.144531 146.191406 157.144531 C 154.742188 157.144531 161.675781 150.210938 161.675781 141.660156 C 161.675781 139.679688 161.28125 137.78125 160.574219 136.027344 L 171.273438 136.027344 C 172.066406 136.027344 172.6875 135.402344 172.6875 134.609375 L 172.6875 103.101562 C 172.6875 102.789062 172.574219 102.480469 172.378906 102.222656 Z M 52.882812 59.816406 C 52.289062 59.308594 52.230469 58.402344 52.742188 57.808594 C 53.25 57.242188 54.15625 57.15625 54.722656 57.664062 L 57.160156 59.761719 L 59.988281 59.761719 C 59.453125 59.25 59.394531 58.402344 59.875 57.808594 C 60.386719 57.242188 61.292969 57.15625 61.886719 57.664062 L 64.292969 59.761719 L 67.492188 59.761719 L 65.226562 57.496094 L 62.054688 57.269531 C 61.261719 57.210938 60.667969 56.53125 60.726562 55.769531 C 60.78125 55.003906 61.460938 54.4375 62.199219 54.464844 L 60.1875 52.457031 L 56.988281 52.230469 C 56.222656 52.171875 55.628906 51.492188 55.6875 50.703125 C 55.742188 49.9375 56.421875 49.34375 57.1875 49.398438 L 59.28125 49.539062 L 59.140625 47.472656 C 59.082031 46.679688 59.679688 46 60.441406 45.945312 C 61.207031 45.890625 61.914062 46.484375 61.972656 47.277344 L 62.199219 50.445312 L 64.207031 52.457031 C 64.179688 51.691406 64.746094 51.070312 65.507812 51.011719 C 66.273438 50.929688 66.953125 51.523438 67.011719 52.316406 L 67.238281 55.515625 L 69.5 57.777344 L 69.5 54.578125 L 67.40625 52.144531 C 66.898438 51.550781 66.953125 50.671875 67.546875 50.164062 C 68.113281 49.652344 68.992188 49.710938 69.5 50.25 L 69.5 47.417969 L 67.40625 45.011719 C 66.898438 44.417969 66.953125 43.511719 67.546875 43 C 68.140625 42.492188 69.046875 42.546875 69.558594 43.144531 L 70.917969 44.726562 L 72.277344 43.144531 C 72.785156 42.546875 73.691406 42.492188 74.285156 43 C 74.878906 43.511719 74.9375 44.417969 74.425781 45.011719 L 72.332031 47.417969 L 72.332031 50.25 C 72.839844 49.710938 73.71875 49.652344 74.285156 50.164062 C 74.878906 50.671875 74.9375 51.550781 74.425781 52.144531 L 72.332031 54.578125 L 72.332031 57.777344 L 74.597656 55.515625 L 74.824219 52.316406 C 74.878906 51.523438 75.558594 50.929688 76.351562 51.011719 C 77.089844 51.070312 77.652344 51.691406 77.625 52.457031 L 79.636719 50.445312 L 79.863281 47.277344 C 79.917969 46.484375 80.597656 45.890625 81.390625 45.945312 C 82.15625 46 82.75 46.679688 82.695312 47.472656 L 82.550781 49.539062 L 84.648438 49.398438 C 85.410156 49.34375 86.089844 49.9375 86.148438 50.703125 C 86.203125 51.492188 85.609375 52.171875 84.84375 52.230469 L 81.644531 52.457031 L 79.636719 54.464844 C 80.398438 54.4375 81.050781 55.003906 81.109375 55.769531 C 81.164062 56.53125 80.570312 57.210938 79.777344 57.269531 L 76.605469 57.496094 L 74.34375 59.761719 L 77.542969 59.761719 L 79.949219 57.664062 C 80.542969 57.15625 81.449219 57.242188 81.957031 57.808594 C 82.4375 58.402344 82.382812 59.25 81.84375 59.761719 L 84.675781 59.761719 L 87.109375 57.664062 C 87.675781 57.15625 88.582031 57.242188 89.089844 57.808594 C 89.601562 58.402344 89.542969 59.308594 88.949219 59.816406 L 87.363281 61.175781 L 88.949219 62.5625 C 89.542969 63.074219 89.601562 63.949219 89.089844 64.542969 C 88.808594 64.882812 88.410156 65.027344 88.015625 65.027344 C 87.703125 65.027344 87.363281 64.914062 87.109375 64.6875 L 84.675781 62.589844 L 81.84375 62.589844 C 82.382812 63.128906 82.4375 63.976562 81.957031 64.542969 C 81.675781 64.882812 81.277344 65.027344 80.882812 65.027344 C 80.542969 65.027344 80.230469 64.914062 79.949219 64.6875 L 77.542969 62.589844 L 74.34375 62.589844 L 76.605469 64.855469 L 79.777344 65.082031 C 80.570312 65.140625 81.164062 65.820312 81.109375 66.609375 C 81.050781 67.375 80.398438 67.941406 79.636719 67.914062 L 81.644531 69.921875 L 84.84375 70.148438 C 85.609375 70.207031 86.203125 70.886719 86.148438 71.648438 C 86.089844 72.441406 85.410156 73.007812 84.648438 72.953125 L 82.550781 72.8125 L 82.695312 74.90625 C 82.75 75.671875 82.15625 76.351562 81.390625 76.40625 L 81.277344 76.40625 C 80.542969 76.40625 79.917969 75.839844 79.863281 75.105469 L 79.636719 71.90625 L 77.625 69.921875 C 77.652344 70.660156 77.089844 71.3125 76.351562 71.367188 L 76.238281 71.367188 C 75.503906 71.367188 74.878906 70.800781 74.824219 70.066406 L 74.597656 66.867188 L 72.332031 64.601562 L 72.332031 67.800781 L 74.425781 70.234375 C 74.9375 70.800781 74.878906 71.707031 74.285156 72.214844 C 74.003906 72.441406 73.691406 72.554688 73.351562 72.554688 C 72.984375 72.554688 72.613281 72.414062 72.332031 72.101562 L 72.332031 74.933594 L 74.425781 77.367188 C 74.9375 77.964844 74.878906 78.839844 74.285156 79.351562 C 74.003906 79.605469 73.691406 79.71875 73.351562 79.71875 C 72.953125 79.71875 72.558594 79.546875 72.277344 79.207031 L 70.917969 77.625 L 69.558594 79.207031 C 69.046875 79.804688 68.140625 79.859375 67.546875 79.351562 C 66.953125 78.839844 66.898438 77.964844 67.40625 77.367188 L 69.5 74.933594 L 69.5 72.101562 C 68.992188 72.667969 68.113281 72.726562 67.546875 72.214844 C 66.953125 71.707031 66.898438 70.800781 67.40625 70.234375 L 69.5 67.800781 L 69.5 64.601562 L 67.238281 66.867188 L 67.011719 70.066406 C 66.953125 70.800781 66.332031 71.367188 65.59375 71.367188 L 65.507812 71.367188 C 64.746094 71.3125 64.179688 70.660156 64.207031 69.921875 L 62.199219 71.90625 L 61.972656 75.105469 C 61.914062 75.839844 61.292969 76.40625 60.554688 76.40625 L 60.441406 76.40625 C 59.679688 76.351562 59.082031 75.671875 59.140625 74.90625 L 59.28125 72.8125 L 57.1875 72.953125 C 56.421875 73.007812 55.742188 72.441406 55.6875 71.648438 C 55.628906 70.886719 56.222656 70.207031 56.988281 70.148438 L 60.1875 69.921875 L 62.199219 67.914062 C 61.460938 67.941406 60.78125 67.375 60.726562 66.609375 C 60.667969 65.820312 61.261719 65.140625 62.054688 65.082031 L 65.226562 64.855469 L 67.492188 62.589844 L 64.292969 62.589844 L 61.886719 64.6875 C 61.601562 64.914062 61.292969 65.027344 60.953125 65.027344 C 60.554688 65.027344 60.160156 64.882812 59.875 64.542969 C 59.394531 63.976562 59.453125 63.128906 59.988281 62.589844 L 57.160156 62.589844 L 54.722656 64.6875 C 54.46875 64.914062 54.128906 65.027344 53.816406 65.027344 C 53.421875 65.027344 53.023438 64.882812 52.742188 64.542969 C 52.230469 63.949219 52.289062 63.074219 52.882812 62.5625 L 54.46875 61.175781 Z M 41.417969 154.3125 C 34.425781 154.3125 28.765625 148.652344 28.765625 141.660156 C 28.765625 134.667969 34.425781 129.035156 41.417969 129.035156 C 48.410156 129.035156 54.042969 134.695312 54.042969 141.660156 C 54.042969 148.625 48.382812 154.3125 41.417969 154.3125 Z M 93.449219 154.3125 C 86.457031 154.3125 80.796875 148.652344 80.796875 141.660156 C 80.796875 134.667969 86.457031 129.035156 93.449219 129.035156 C 100.445312 129.035156 106.105469 134.695312 106.105469 141.660156 C 106.105469 148.625 100.414062 154.3125 93.449219 154.3125 Z M 119.695312 133.195312 L 106.386719 133.195312 C 103.613281 128.976562 98.859375 126.203125 93.449219 126.203125 C 88.042969 126.203125 83.289062 128.976562 80.511719 133.195312 L 54.355469 133.195312 C 51.582031 128.976562 46.824219 126.203125 41.417969 126.203125 C 35.984375 126.203125 31.226562 128.976562 28.453125 133.195312 L 22.140625 133.195312 L 22.140625 119.125 L 119.695312 119.125 Z M 119.695312 116.292969 L 22.140625 116.292969 L 22.140625 99.167969 L 28.054688 99.167969 C 28.679688 101.207031 30.519531 102.675781 32.726562 102.675781 L 38.925781 102.675781 C 41.136719 102.675781 42.976562 101.207031 43.597656 99.167969 L 50.535156 99.167969 C 51.128906 101.207031 52.996094 102.675781 55.203125 102.675781 L 61.40625 102.675781 C 63.613281 102.675781 65.453125 101.207031 66.074219 99.167969 L 73.011719 99.167969 C 73.605469 101.207031 75.472656 102.675781 77.683594 102.675781 L 83.882812 102.675781 C 86.089844 102.675781 87.929688 101.207031 88.554688 99.167969 L 95.488281 99.167969 C 96.082031 101.207031 97.953125 102.675781 100.160156 102.675781 L 106.359375 102.675781 C 108.566406 102.675781 110.410156 101.207031 111.03125 99.167969 L 119.695312 99.167969 Z M 119.695312 86.851562 L 119.695312 96.363281 L 111.003906 96.363281 C 110.410156 94.355469 108.539062 92.882812 106.359375 92.882812 L 100.160156 92.882812 C 97.953125 92.882812 96.113281 94.355469 95.488281 96.363281 L 88.523438 96.363281 C 87.929688 94.355469 86.089844 92.882812 83.882812 92.882812 L 77.683594 92.882812 C 75.472656 92.882812 73.632812 94.355469 73.011719 96.363281 L 66.074219 96.363281 C 65.453125 94.355469 63.613281 92.882812 61.40625 92.882812 L 55.203125 92.882812 C 52.996094 92.882812 51.15625 94.355469 50.535156 96.363281 L 43.597656 96.363281 C 42.976562 94.355469 41.136719 92.882812 38.925781 92.882812 L 32.726562 92.882812 C 30.519531 92.882812 28.679688 94.355469 28.054688 96.363281 L 22.140625 96.363281 L 22.140625 60.46875 L 44.617188 60.46875 C 44.589844 60.695312 44.558594 60.949219 44.558594 61.175781 C 44.558594 75.699219 56.394531 87.53125 70.917969 87.53125 C 85.4375 87.53125 97.273438 75.699219 97.273438 61.175781 C 97.273438 60.949219 97.246094 60.695312 97.214844 60.46875 L 119.695312 60.46875 Z M 146.191406 154.3125 C 139.199219 154.3125 133.539062 148.652344 133.539062 141.660156 C 133.539062 134.667969 139.199219 129.035156 146.191406 129.035156 C 153.183594 129.035156 158.847656 134.695312 158.847656 141.660156 C 158.847656 148.625 153.15625 154.3125 146.191406 154.3125 Z M 169.859375 133.195312 L 159.128906 133.195312 C 156.355469 128.976562 151.597656 126.203125 146.191406 126.203125 C 140.785156 126.203125 136 128.976562 133.226562 133.195312 L 122.523438 133.195312 L 122.523438 88.324219 L 138.972656 88.324219 L 138.972656 110.773438 C 138.972656 111.539062 139.59375 112.1875 140.386719 112.1875 L 169.859375 112.1875 Z M 169.859375 133.195312 " fill-opacity="1" fill-rule="nonzero"/></g><path fill="#064088" d="M 41.417969 134.695312 C 37.539062 134.695312 34.425781 137.808594 34.425781 141.660156 C 34.425781 145.539062 37.539062 148.652344 41.417969 148.652344 C 45.269531 148.652344 48.382812 145.539062 48.382812 141.660156 C 48.382812 137.808594 45.269531 134.695312 41.417969 134.695312 Z M 41.417969 145.820312 C 39.125 145.820312 37.257812 143.953125 37.257812 141.660156 C 37.257812 139.394531 39.125 137.527344 41.417969 137.527344 C 43.710938 137.527344 45.550781 139.394531 45.550781 141.660156 C 45.550781 143.953125 43.710938 145.820312 41.417969 145.820312 Z M 41.417969 145.820312 " fill-opacity="1" fill-rule="nonzero"/><path fill="#064088" d="M 93.449219 134.695312 C 89.601562 134.695312 86.457031 137.808594 86.457031 141.660156 C 86.457031 145.539062 89.601562 148.652344 93.449219 148.652344 C 97.300781 148.652344 100.445312 145.539062 100.445312 141.660156 C 100.445312 137.808594 97.300781 134.695312 93.449219 134.695312 Z M 93.449219 145.820312 C 91.15625 145.820312 89.289062 143.953125 89.289062 141.660156 C 89.289062 139.394531 91.15625 137.527344 93.449219 137.527344 C 95.742188 137.527344 97.613281 139.394531 97.613281 141.660156 C 97.613281 143.953125 95.742188 145.820312 93.449219 145.820312 Z M 93.449219 145.820312 " fill-opacity="1" fill-rule="nonzero"/><path fill="#064088" d="M 146.191406 134.695312 C 142.339844 134.695312 139.199219 137.808594 139.199219 141.660156 C 139.199219 145.539062 142.339844 148.652344 146.191406 148.652344 C 150.042969 148.652344 153.183594 145.539062 153.183594 141.660156 C 153.183594 137.808594 150.042969 134.695312 146.191406 134.695312 Z M 146.191406 145.820312 C 143.898438 145.820312 142.03125 143.953125 142.03125 141.660156 C 142.03125 139.394531 143.898438 137.527344 146.191406 137.527344 C 148.484375 137.527344 150.351562 139.394531 150.351562 141.660156 C 150.351562 143.953125 148.484375 145.820312 146.191406 145.820312 Z M 146.191406 145.820312 " fill-opacity="1" fill-rule="nonzero"/><path fill="#064088" d="M 136.871094 119.488281 C 136.871094 120.269531 137.503906 120.902344 138.285156 120.902344 L 142.722656 120.902344 C 143.503906 120.902344 144.136719 120.269531 144.136719 119.488281 C 144.136719 118.707031 143.503906 118.070312 142.722656 118.070312 L 138.285156 118.070312 C 137.503906 118.070312 136.871094 118.707031 136.871094 119.488281 Z M 136.871094 119.488281 " fill-opacity="1" fill-rule="nonzero"/></svg>