<svg xmlns="http://www.w3.org/2000/svg" xmlns:xlink="http://www.w3.org/1999/xlink" width="512" zoomAndPan="magnify" viewBox="0 0 384 383.999986" height="512" preserveAspectRatio="xMidYMid meet" version="1.0"><defs><clipPath id="dc2fbb74ce"><path d="M 18.128906 45.804688 L 366 45.804688 L 366 338.304688 L 18.128906 338.304688 Z M 18.128906 45.804688 " clip-rule="nonzero"/></clipPath></defs><g clip-path="url(#dc2fbb74ce)"><path fill="#3f5efb" d="M 365.851562 149.308594 L 176.976562 338.183594 L 18.148438 179.359375 L 151.707031 45.804688 L 264.011719 158.109375 L 169.574219 252.546875 L 90.160156 173.136719 L 156.9375 106.355469 L 213.09375 162.511719 L 165.875 209.730469 L 126.167969 170.023438 L 159.554688 136.632812 L 187.632812 164.710938 L 164.023438 188.320312 L 144.167969 168.46875 L 160.863281 151.773438 L 174.902344 165.8125 L 163.097656 177.617188 L 153.171875 167.691406 L 161.519531 159.34375 L 168.539062 166.363281 L 162.636719 172.265625 L 157.671875 167.300781 L 161.84375 163.128906 L 165.355469 166.636719 L 162.402344 169.589844 L 159.921875 167.105469 L 162.007812 165.019531 " fill-opacity="1" fill-rule="evenodd"/></g></svg>