
<svg xmlns="http://www.w3.org/2000/svg">

<!-- facebook -->
        <symbol  id="icon-facebook"   viewBox="0 0 48 48">
              <path fill-rule="evenodd" clip-rule="evenodd" d="M24 0C10.7452 0 0 10.7452 0 24C0 37.2548 10.7452 48 24 48C37.2548 48 48 37.2548 48 24C48 10.7452 37.2548 0 24 0ZM26.5016 25.0542V38.1115H21.0991V25.0547H18.4V20.5551H21.0991V17.8536C21.0991 14.1828 22.6231 12 26.9532 12H30.5581V16.5001H28.3048C26.6192 16.5001 26.5077 17.1289 26.5077 18.3025L26.5016 20.5546H30.5836L30.1059 25.0542H26.5016Z" fill="currentColor"/>
        </symbol>

<!-- github -->
        <symbol id="icon-github" viewBox="0 0 48 48">
              <path d="M24.0432 0.179932C10.8147 0.179932 0.0876465 11.0878 0.0876465 24.5445C0.0876465 35.3096 6.95165 44.4426 16.4699 47.6643C17.6672 47.8899 18.1067 47.1358 18.1067 46.4922C18.1067 45.9112 18.0845 43.9919 18.0742 41.956C11.4097 43.4299 10.0034 39.0812 10.0034 39.0812C8.9137 36.265 7.34358 35.5161 7.34358 35.5161C5.17009 34.0039 7.50742 34.035 7.50742 34.035C9.91297 34.2065 11.1796 36.5458 11.1796 36.5458C13.3162 40.2707 16.7837 39.1938 18.1507 38.5712C18.3657 36.9969 18.9866 35.9212 19.6716 35.3132C14.3508 34.6971 8.7574 32.6079 8.7574 23.2719C8.7574 20.6118 9.6932 18.4383 11.2256 16.732C10.9769 16.1179 10.1569 13.6402 11.4577 10.2841C11.4577 10.2841 13.4693 9.62928 18.0472 12.7816C19.9581 12.2418 22.0074 11.971 24.0432 11.9618C26.0791 11.971 28.13 12.2418 30.0444 12.7816C34.6167 9.62928 36.6256 10.2841 36.6256 10.2841C37.9295 13.6402 37.1091 16.1179 36.8604 16.732C38.3964 18.4383 39.3259 20.6118 39.3259 23.2719C39.3259 32.6301 33.7218 34.6906 28.3874 35.2938C29.2467 36.0499 30.0123 37.5327 30.0123 39.8059C30.0123 43.0655 29.9845 45.6893 29.9845 46.4922C29.9845 47.1406 30.4157 47.9003 31.63 47.6611C41.1431 44.4357 47.9984 35.3059 47.9984 24.5445C47.9984 11.0878 37.273 0.179932 24.0432 0.179932Z" fill="currentColor"/>
              <path d="M9.16085 35.1623C9.10809 35.2838 8.92085 35.3197 8.75027 35.2366C8.57652 35.1571 8.47893 34.9921 8.53526 34.8706C8.58683 34.746 8.77447 34.7117 8.94782 34.7944C9.12197 34.8743 9.22115 35.0409 9.16085 35.1623Z" fill="currentColor"/>
              <path d="M10.131 36.263C10.0168 36.3707 9.79346 36.3207 9.64192 36.1504C9.48523 35.9806 9.45587 35.7534 9.57171 35.6441C9.68953 35.5363 9.90612 35.5868 10.0632 35.7566C10.2199 35.9285 10.2505 36.1541 10.131 36.263Z" fill="currentColor"/>
              <path d="M11.0757 37.6662C10.929 37.7699 10.689 37.6726 10.5406 37.456C10.3938 37.2393 10.3938 36.9795 10.5438 36.8754C10.6925 36.7713 10.929 36.8649 11.0793 37.0799C11.2257 37.2998 11.2257 37.5601 11.0757 37.6662Z" fill="currentColor"/>
              <path d="M12.3698 39.0219C12.2385 39.1692 11.9588 39.1297 11.7541 38.9287C11.5446 38.7322 11.4863 38.4534 11.618 38.3062C11.7509 38.1585 12.0322 38.2001 12.2385 38.3994C12.4463 38.5955 12.5098 38.8763 12.3698 39.0219Z" fill="currentColor"/>
              <path d="M14.1549 39.8091C14.097 40 13.8276 40.0867 13.5563 40.0056C13.2853 39.9221 13.108 39.6986 13.1628 39.5057C13.2191 39.3137 13.4896 39.2233 13.763 39.31C14.0335 39.3932 14.2112 39.6151 14.1549 39.8091Z" fill="currentColor"/>
              <path d="M16.1154 39.9551C16.1221 40.156 15.892 40.3227 15.6072 40.3259C15.3208 40.3327 15.0891 40.1701 15.0859 39.9724C15.0859 39.7695 15.3109 39.6045 15.5973 39.5996C15.8821 39.594 16.1154 39.7554 16.1154 39.9551Z" fill="currentColor"/>
              <path d="M17.9396 39.6392C17.9737 39.8353 17.7757 40.0366 17.4929 40.0899C17.2148 40.1419 16.9574 40.0209 16.9221 39.8264C16.8876 39.6255 17.0891 39.4241 17.3668 39.3721C17.65 39.3221 17.9035 39.4399 17.9396 39.6392Z" fill="currentColor"/>
        </symbol>

<!-- instagram -->
        <symbol id="icon-instagram" viewBox="0 0 48 48">
              <path fill-rule="evenodd" clip-rule="evenodd" d="M24 0C10.7452 0 0 10.7452 0 24C0 37.2548 10.7452 48 24 48C37.2548 48 48 37.2548 48 24C48 10.7452 37.2548 0 24 0ZM18.7233 11.2773C20.0886 11.2152 20.5249 11.2 24.0012 11.2H23.9972C27.4746 11.2 27.9092 11.2152 29.2746 11.2773C30.6373 11.3397 31.5679 11.5555 32.384 11.872C33.2266 12.1987 33.9386 12.636 34.6506 13.348C35.3627 14.0595 35.8 14.7736 36.128 15.6155C36.4427 16.4294 36.6587 17.3595 36.7227 18.7222C36.784 20.0876 36.8 20.5238 36.8 24.0001C36.8 27.4764 36.784 27.9116 36.7227 29.277C36.6587 30.6391 36.4427 31.5695 36.128 32.3837C35.8 33.2253 35.3627 33.9394 34.6506 34.6509C33.9394 35.3629 33.2264 35.8013 32.3848 36.1283C31.5703 36.4448 30.6391 36.6605 29.2765 36.7229C27.9111 36.7851 27.4762 36.8003 23.9996 36.8003C20.5236 36.8003 20.0876 36.7851 18.7222 36.7229C17.3598 36.6605 16.4294 36.4448 15.615 36.1283C14.7736 35.8013 14.0595 35.3629 13.3483 34.6509C12.6365 33.9394 12.1992 33.2253 11.872 32.3834C11.5557 31.5695 11.34 30.6394 11.2773 29.2767C11.2155 27.9114 11.2 27.4764 11.2 24.0001C11.2 20.5238 11.216 20.0873 11.2771 18.7219C11.3384 17.3598 11.5544 16.4294 11.8717 15.6152C12.1997 14.7736 12.6371 14.0595 13.3491 13.348C14.0606 12.6363 14.7747 12.1989 15.6166 11.872C16.4305 11.5555 17.3606 11.3397 18.7233 11.2773Z" fill="currentColor"/>
              <path fill-rule="evenodd" clip-rule="evenodd" d="M22.853 13.5067C23.0759 13.5064 23.3158 13.5065 23.5746 13.5066L24.0013 13.5067C27.4189 13.5067 27.824 13.519 29.1736 13.5803C30.4216 13.6374 31.0989 13.8459 31.5501 14.0211C32.1475 14.2531 32.5733 14.5305 33.0211 14.9785C33.4691 15.4265 33.7464 15.8532 33.979 16.4505C34.1542 16.9012 34.363 17.5785 34.4198 18.8265C34.4811 20.1759 34.4944 20.5812 34.4944 23.9972C34.4944 27.4133 34.4811 27.8186 34.4198 29.168C34.3627 30.416 34.1542 31.0933 33.979 31.544C33.747 32.1413 33.4691 32.5667 33.0211 33.0144C32.5731 33.4624 32.1477 33.7398 31.5501 33.9718C31.0995 34.1478 30.4216 34.3558 29.1736 34.4128C27.8242 34.4742 27.4189 34.4875 24.0013 34.4875C20.5834 34.4875 20.1783 34.4742 18.8289 34.4128C17.5809 34.3552 16.9036 34.1467 16.4521 33.9715C15.8548 33.7395 15.4281 33.4621 14.9801 33.0141C14.5321 32.5661 14.2548 32.1405 14.0222 31.5429C13.847 31.0923 13.6382 30.4149 13.5814 29.1669C13.5201 27.8176 13.5078 27.4122 13.5078 23.994C13.5078 20.5759 13.5201 20.1727 13.5814 18.8233C13.6385 17.5753 13.847 16.898 14.0222 16.4468C14.2542 15.8494 14.5321 15.4228 14.9801 14.9748C15.4281 14.5268 15.8548 14.2494 16.4521 14.0169C16.9033 13.8409 17.5809 13.6329 18.8289 13.5755C20.0097 13.5222 20.4674 13.5062 22.853 13.5035V13.5067ZM30.8339 15.6321C29.9859 15.6321 29.2978 16.3193 29.2978 17.1676C29.2978 18.0156 29.9859 18.7036 30.8339 18.7036C31.6819 18.7036 32.3699 18.0156 32.3699 17.1676C32.3699 16.3196 31.6819 15.6316 30.8339 15.6316V15.6321ZM17.4279 24.0002C17.4279 20.3701 20.3709 17.4269 24.001 17.4268C27.6312 17.4268 30.5736 20.37 30.5736 24.0002C30.5736 27.6304 27.6314 30.5723 24.0013 30.5723C20.3711 30.5723 17.4279 27.6304 17.4279 24.0002Z" fill="currentColor"/>
              <path d="M24.0011 19.7334C26.3574 19.7334 28.2678 21.6436 28.2678 24.0001C28.2678 26.3564 26.3574 28.2668 24.0011 28.2668C21.6445 28.2668 19.7344 26.3564 19.7344 24.0001C19.7344 21.6436 21.6445 19.7334 24.0011 19.7334Z" fill="currentColor"/>
        </symbol>

<!-- linkedin -->
        <symbol id="icon-linkedin" viewBox="0 0 48 48">
              <path fill-rule="evenodd" clip-rule="evenodd" d="M24 0C10.7452 0 0 10.7452 0 24C0 37.2548 10.7452 48 24 48C37.2548 48 48 37.2548 48 24C48 10.7452 37.2548 0 24 0ZM11.5216 19.8778H16.9605V36.2196H11.5216V19.8778ZM17.3188 14.8227C17.2835 13.2204 16.1377 12 14.277 12C12.4164 12 11.2 13.2204 11.2 14.8227C11.2 16.3918 12.3805 17.6473 14.2064 17.6473H14.2412C16.1377 17.6473 17.3188 16.3918 17.3188 14.8227ZM30.3131 19.4941C33.8922 19.4941 36.5754 21.8303 36.5754 26.8497L36.5752 36.2196H31.1365V27.4767C31.1365 25.2807 30.3494 23.7822 28.3805 23.7822C26.8779 23.7822 25.9829 24.7924 25.5898 25.7682C25.446 26.1178 25.4107 26.605 25.4107 27.0934V36.22H19.9711C19.9711 36.22 20.0428 21.4117 19.9711 19.8783H25.4107V22.1929C26.1325 21.0802 27.4254 19.4941 30.3131 19.4941Z" fill="currentColor"/>
        </symbol>

<!-- youtube -->
        <symbol id="icon-youtube" viewBox="0 0 48 48">
              <path fill-rule="evenodd" clip-rule="evenodd" d="M24 0C10.7452 0 0 10.7452 0 24C0 37.2548 10.7452 48 24 48C37.2548 48 48 37.2548 48 24C48 10.7452 37.2548 0 24 0ZM34.0016 15.7493C35.1031 16.0516 35.9706 16.9422 36.265 18.0732C36.8 20.123 36.8 24.4 36.8 24.4C36.8 24.4 36.8 28.6768 36.265 30.7268C35.9706 31.8578 35.1031 32.7484 34.0016 33.0508C32.0054 33.6 24 33.6 24 33.6C24 33.6 15.9946 33.6 13.9983 33.0508C12.8967 32.7484 12.0292 31.8578 11.7348 30.7268C11.2 28.6768 11.2 24.4 11.2 24.4C11.2 24.4 11.2 20.123 11.7348 18.0732C12.0292 16.9422 12.8967 16.0516 13.9983 15.7493C15.9946 15.2 24 15.2 24 15.2C24 15.2 32.0054 15.2 34.0016 15.7493Z" fill="currentColor"/>
              <path d="M21.6001 28.8V20.8L28.0001 24.8001L21.6001 28.8Z" fill="currentColor"/>
        </symbol>

<!-- phone -->
        <symbol id="icon-phone" viewBox="0 0 48 48">
            <path fill-rule="evenodd" clip-rule="evenodd" d="M24 0C10.7452 0 0 10.7452 0 24C0 37.2548 10.7452 48 24 48C37.2548 48 48 37.2548 48 24C48 10.7452 37.2548 0 24 0ZM16.7878 12C16.8588 12.0563 16.9151 12.0563 16.9714 12.049C17.2629 12.0245 17.5127 12.0955 17.6743 12.3625C17.7029 12.4088 17.7314 12.4551 17.76 12.5014C18.0941 13.0429 18.4289 13.5854 18.747 14.1404C18.9773 14.5417 19.197 14.9495 19.4169 15.3577C19.5782 15.657 19.7396 15.9566 19.9054 16.254C19.9695 16.3745 20.0497 16.488 20.1299 16.6016C20.1752 16.6657 20.2205 16.7298 20.2629 16.7952C20.3652 16.9579 20.463 17.125 20.5586 17.2881L20.5739 17.3144C20.7797 17.7038 20.7699 18.0956 20.4637 18.4066C20.1415 18.7361 19.7951 19.0482 19.4495 19.3597C19.3275 19.4696 19.2056 19.5794 19.0849 19.6899C18.9349 19.8276 18.7826 19.9632 18.6304 20.0986C18.3901 20.3124 18.1501 20.526 17.9192 20.7479C17.6253 21.032 17.5494 21.3871 17.7478 21.7618C17.7661 21.7961 17.7844 21.8305 17.8028 21.8648C18.0904 22.4035 18.3777 22.9415 18.6931 23.4688C19.9372 25.5431 21.5266 27.3064 23.5348 28.6656C24.3087 29.1921 25.1144 29.6746 25.9275 30.135C26.694 30.5685 26.9928 30.495 27.5879 29.8313C27.9023 29.4822 28.2103 29.13 28.5187 28.7773C28.7533 28.5089 28.9882 28.2402 29.2263 27.9725C29.3586 27.8231 29.5178 27.6909 29.6721 27.5635C29.9855 27.299 30.3284 27.2696 30.6884 27.4509C30.711 27.4619 30.7339 27.4726 30.7569 27.4834C30.8363 27.5207 30.9164 27.5582 30.9847 27.6076C31.6233 28.0645 32.3123 28.4315 33.0004 28.7981C33.3414 28.9798 33.6823 29.1614 34.0166 29.3538C34.3613 29.5519 34.7001 29.7589 35.0379 29.9654C35.2305 30.0831 35.4229 30.2006 35.6158 30.3162C35.9024 30.4852 36.0175 30.7326 35.9979 31.073C35.944 32.0305 35.7848 32.971 35.2289 33.7791C34.9962 34.1147 34.6656 34.4085 34.3325 34.6461C33.4093 35.2926 32.3782 35.6918 31.2811 35.9367C30.2843 36.1596 29.29 36.0788 28.3349 35.78C26.4908 35.2118 24.6736 34.5604 23.0009 33.5734C21.4825 32.6746 20.1013 31.5897 18.8229 30.3775C17.2041 28.837 15.7592 27.157 14.591 25.2443C13.8293 24.0027 13.2857 22.6655 12.7934 21.3014C12.4946 20.4785 12.2007 19.663 12.0685 18.7911C11.9167 17.8042 12.022 16.854 12.3379 15.9184C12.622 15.0735 12.9771 14.2653 13.5134 13.5429C13.9346 12.9821 14.4612 12.5706 15.142 12.3869C15.5267 12.2852 15.9138 12.198 16.3008 12.1108C16.4632 12.0742 16.6256 12.0376 16.7878 12Z" fill="currentColor"/>
        </symbol>

<!-- e-mail -->
        <symbol id="icon-email"  viewBox="0 0 48 48">
            <path fill-rule="evenodd" clip-rule="evenodd" d="M24 48C10.7452 48 0 37.2548 0 24C0 10.7452 10.7452 0 24 0C37.2548 0 48 10.7452 48 24C48 37.2548 37.2548 48 24 48ZM24.3344 22.653C26.2995 22.653 35.8544 17.28 35.8544 17.28L35.8698 16.32C35.8698 15.2602 35.0096 14.4 33.9469 14.4H14.7219C13.6602 14.4 12.8 15.2602 12.8 16.32V17.1754C12.8 17.1754 22.4595 22.653 24.3344 22.653ZM12.8154 20.16C12.8144 20.16 22.4595 25.293 24.3344 25.293C26.3898 25.293 35.8544 20.16 35.8544 20.16L35.8698 31.68C35.8698 32.7398 35.0096 33.6 33.9469 33.6H14.7219C13.6611 33.6 12.8 32.7398 12.8 31.68L12.8154 20.16Z" fill="currentColor"/>
        </symbol>

<!-- sun -->
        <symbol id="icon-sun" viewBox="0 0 24 24">
            <circle cx="12" cy="12" r="4"/><path d="M12 2v2"/><path d="M12 20v2"/><path d="m4.93 4.93 1.41 1.41"/><path d="m17.66 17.66 1.41 1.41"/><path d="M2 12h2"/><path d="M20 12h2"/><path d="m6.34 17.66-1.41 1.41"/><path d="m19.07 4.93-1.41 1.41"/>
        </symbol>

<!-- moon -->
        <symbol id="icon-moon" viewBox="0 0 24 24">
            <path d="M20.985 12.486a9 9 0 1 1-9.473-9.472c.405-.022.617.46.402.803a6 6 0 0 0 8.268 8.268c.344-.215.825-.004.803.401"/>
        </symbol>

</svg>
