
<svg xmlns="http://www.w3.org/2000/svg">

<!-- facebook -->
          <symbol  id="icon-facebook"   viewBox="0 0 48 48">
              <path fill-rule="evenodd" clip-rule="evenodd" d="M24 0C10.7452 0 0 10.7452 0 24C0 37.2548 10.7452 48 24 48C37.2548 48 48 37.2548 48 24C48 10.7452 37.2548 0 24 0ZM26.5016 25.0542V38.1115H21.0991V25.0547H18.4V20.5551H21.0991V17.8536C21.0991 14.1828 22.6231 12 26.9532 12H30.5581V16.5001H28.3048C26.6192 16.5001 26.5077 17.1289 26.5077 18.3025L26.5016 20.5546H30.5836L30.1059 25.0542H26.5016Z" fill="currentColor"/>
          </symbol>

<!-- github -->
          <symbol id="icon-github" viewBox="0 0 48 48">
              <path d="M24.0432 0.179932C10.8147 0.179932 0.0876465 11.0878 0.0876465 24.5445C0.0876465 35.3096 6.95165 44.4426 16.4699 47.6643C17.6672 47.8899 18.1067 47.1358 18.1067 46.4922C18.1067 45.9112 18.0845 43.9919 18.0742 41.956C11.4097 43.4299 10.0034 39.0812 10.0034 39.0812C8.9137 36.265 7.34358 35.5161 7.34358 35.5161C5.17009 34.0039 7.50742 34.035 7.50742 34.035C9.91297 34.2065 11.1796 36.5458 11.1796 36.5458C13.3162 40.2707 16.7837 39.1938 18.1507 38.5712C18.3657 36.9969 18.9866 35.9212 19.6716 35.3132C14.3508 34.6971 8.7574 32.6079 8.7574 23.2719C8.7574 20.6118 9.6932 18.4383 11.2256 16.732C10.9769 16.1179 10.1569 13.6402 11.4577 10.2841C11.4577 10.2841 13.4693 9.62928 18.0472 12.7816C19.9581 12.2418 22.0074 11.971 24.0432 11.9618C26.0791 11.971 28.13 12.2418 30.0444 12.7816C34.6167 9.62928 36.6256 10.2841 36.6256 10.2841C37.9295 13.6402 37.1091 16.1179 36.8604 16.732C38.3964 18.4383 39.3259 20.6118 39.3259 23.2719C39.3259 32.6301 33.7218 34.6906 28.3874 35.2938C29.2467 36.0499 30.0123 37.5327 30.0123 39.8059C30.0123 43.0655 29.9845 45.6893 29.9845 46.4922C29.9845 47.1406 30.4157 47.9003 31.63 47.6611C41.1431 44.4357 47.9984 35.3059 47.9984 24.5445C47.9984 11.0878 37.273 0.179932 24.0432 0.179932Z" fill="currentColor"/>
              <path d="M9.16085 35.1623C9.10809 35.2838 8.92085 35.3197 8.75027 35.2366C8.57652 35.1571 8.47893 34.9921 8.53526 34.8706C8.58683 34.746 8.77447 34.7117 8.94782 34.7944C9.12197 34.8743 9.22115 35.0409 9.16085 35.1623Z" fill="currentColor"/>
              <path d="M10.131 36.263C10.0168 36.3707 9.79346 36.3207 9.64192 36.1504C9.48523 35.9806 9.45587 35.7534 9.57171 35.6441C9.68953 35.5363 9.90612 35.5868 10.0632 35.7566C10.2199 35.9285 10.2505 36.1541 10.131 36.263Z" fill="currentColor"/>
              <path d="M11.0757 37.6662C10.929 37.7699 10.689 37.6726 10.5406 37.456C10.3938 37.2393 10.3938 36.9795 10.5438 36.8754C10.6925 36.7713 10.929 36.8649 11.0793 37.0799C11.2257 37.2998 11.2257 37.5601 11.0757 37.6662Z" fill="currentColor"/>
              <path d="M12.3698 39.0219C12.2385 39.1692 11.9588 39.1297 11.7541 38.9287C11.5446 38.7322 11.4863 38.4534 11.618 38.3062C11.7509 38.1585 12.0322 38.2001 12.2385 38.3994C12.4463 38.5955 12.5098 38.8763 12.3698 39.0219Z" fill="currentColor"/>
              <path d="M14.1549 39.8091C14.097 40 13.8276 40.0867 13.5563 40.0056C13.2853 39.9221 13.108 39.6986 13.1628 39.5057C13.2191 39.3137 13.4896 39.2233 13.763 39.31C14.0335 39.3932 14.2112 39.6151 14.1549 39.8091Z" fill="currentColor"/>
              <path d="M16.1154 39.9551C16.1221 40.156 15.892 40.3227 15.6072 40.3259C15.3208 40.3327 15.0891 40.1701 15.0859 39.9724C15.0859 39.7695 15.3109 39.6045 15.5973 39.5996C15.8821 39.594 16.1154 39.7554 16.1154 39.9551Z" fill="currentColor"/>
              <path d="M17.9396 39.6392C17.9737 39.8353 17.7757 40.0366 17.4929 40.0899C17.2148 40.1419 16.9574 40.0209 16.9221 39.8264C16.8876 39.6255 17.0891 39.4241 17.3668 39.3721C17.65 39.3221 17.9035 39.4399 17.9396 39.6392Z" fill="currentColor"/>
          </symbol>

<!-- instagram -->
          <symbol id="icon-instagram" viewBox="0 0 48 48">
              <path fill-rule="evenodd" clip-rule="evenodd" d="M24 0C10.7452 0 0 10.7452 0 24C0 37.2548 10.7452 48 24 48C37.2548 48 48 37.2548 48 24C48 10.7452 37.2548 0 24 0ZM18.7233 11.2773C20.0886 11.2152 20.5249 11.2 24.0012 11.2H23.9972C27.4746 11.2 27.9092 11.2152 29.2746 11.2773C30.6373 11.3397 31.5679 11.5555 32.384 11.872C33.2266 12.1987 33.9386 12.636 34.6506 13.348C35.3627 14.0595 35.8 14.7736 36.128 15.6155C36.4427 16.4294 36.6587 17.3595 36.7227 18.7222C36.784 20.0876 36.8 20.5238 36.8 24.0001C36.8 27.4764 36.784 27.9116 36.7227 29.277C36.6587 30.6391 36.4427 31.5695 36.128 32.3837C35.8 33.2253 35.3627 33.9394 34.6506 34.6509C33.9394 35.3629 33.2264 35.8013 32.3848 36.1283C31.5703 36.4448 30.6391 36.6605 29.2765 36.7229C27.9111 36.7851 27.4762 36.8003 23.9996 36.8003C20.5236 36.8003 20.0876 36.7851 18.7222 36.7229C17.3598 36.6605 16.4294 36.4448 15.615 36.1283C14.7736 35.8013 14.0595 35.3629 13.3483 34.6509C12.6365 33.9394 12.1992 33.2253 11.872 32.3834C11.5557 31.5695 11.34 30.6394 11.2773 29.2767C11.2155 27.9114 11.2 27.4764 11.2 24.0001C11.2 20.5238 11.216 20.0873 11.2771 18.7219C11.3384 17.3598 11.5544 16.4294 11.8717 15.6152C12.1997 14.7736 12.6371 14.0595 13.3491 13.348C14.0606 12.6363 14.7747 12.1989 15.6166 11.872C16.4305 11.5555 17.3606 11.3397 18.7233 11.2773Z" fill="currentColor"/>
              <path fill-rule="evenodd" clip-rule="evenodd" d="M22.853 13.5067C23.0759 13.5064 23.3158 13.5065 23.5746 13.5066L24.0013 13.5067C27.4189 13.5067 27.824 13.519 29.1736 13.5803C30.4216 13.6374 31.0989 13.8459 31.5501 14.0211C32.1475 14.2531 32.5733 14.5305 33.0211 14.9785C33.4691 15.4265 33.7464 15.8532 33.979 16.4505C34.1542 16.9012 34.363 17.5785 34.4198 18.8265C34.4811 20.1759 34.4944 20.5812 34.4944 23.9972C34.4944 27.4133 34.4811 27.8186 34.4198 29.168C34.3627 30.416 34.1542 31.0933 33.979 31.544C33.747 32.1413 33.4691 32.5667 33.0211 33.0144C32.5731 33.4624 32.1477 33.7398 31.5501 33.9718C31.0995 34.1478 30.4216 34.3558 29.1736 34.4128C27.8242 34.4742 27.4189 34.4875 24.0013 34.4875C20.5834 34.4875 20.1783 34.4742 18.8289 34.4128C17.5809 34.3552 16.9036 34.1467 16.4521 33.9715C15.8548 33.7395 15.4281 33.4621 14.9801 33.0141C14.5321 32.5661 14.2548 32.1405 14.0222 31.5429C13.847 31.0923 13.6382 30.4149 13.5814 29.1669C13.5201 27.8176 13.5078 27.4122 13.5078 23.994C13.5078 20.5759 13.5201 20.1727 13.5814 18.8233C13.6385 17.5753 13.847 16.898 14.0222 16.4468C14.2542 15.8494 14.5321 15.4228 14.9801 14.9748C15.4281 14.5268 15.8548 14.2494 16.4521 14.0169C16.9033 13.8409 17.5809 13.6329 18.8289 13.5755C20.0097 13.5222 20.4674 13.5062 22.853 13.5035V13.5067ZM30.8339 15.6321C29.9859 15.6321 29.2978 16.3193 29.2978 17.1676C29.2978 18.0156 29.9859 18.7036 30.8339 18.7036C31.6819 18.7036 32.3699 18.0156 32.3699 17.1676C32.3699 16.3196 31.6819 15.6316 30.8339 15.6316V15.6321ZM17.4279 24.0002C17.4279 20.3701 20.3709 17.4269 24.001 17.4268C27.6312 17.4268 30.5736 20.37 30.5736 24.0002C30.5736 27.6304 27.6314 30.5723 24.0013 30.5723C20.3711 30.5723 17.4279 27.6304 17.4279 24.0002Z" fill="currentColor"/>
              <path d="M24.0011 19.7334C26.3574 19.7334 28.2678 21.6436 28.2678 24.0001C28.2678 26.3564 26.3574 28.2668 24.0011 28.2668C21.6445 28.2668 19.7344 26.3564 19.7344 24.0001C19.7344 21.6436 21.6445 19.7334 24.0011 19.7334Z" fill="currentColor"/>
          </symbol>

<!-- linkedin -->
          <symbol id="icon-linkedin" viewBox="0 0 48 48">
              <path fill-rule="evenodd" clip-rule="evenodd" d="M24 0C10.7452 0 0 10.7452 0 24C0 37.2548 10.7452 48 24 48C37.2548 48 48 37.2548 48 24C48 10.7452 37.2548 0 24 0ZM11.5216 19.8778H16.9605V36.2196H11.5216V19.8778ZM17.3188 14.8227C17.2835 13.2204 16.1377 12 14.277 12C12.4164 12 11.2 13.2204 11.2 14.8227C11.2 16.3918 12.3805 17.6473 14.2064 17.6473H14.2412C16.1377 17.6473 17.3188 16.3918 17.3188 14.8227ZM30.3131 19.4941C33.8922 19.4941 36.5754 21.8303 36.5754 26.8497L36.5752 36.2196H31.1365V27.4767C31.1365 25.2807 30.3494 23.7822 28.3805 23.7822C26.8779 23.7822 25.9829 24.7924 25.5898 25.7682C25.446 26.1178 25.4107 26.605 25.4107 27.0934V36.22H19.9711C19.9711 36.22 20.0428 21.4117 19.9711 19.8783H25.4107V22.1929C26.1325 21.0802 27.4254 19.4941 30.3131 19.4941Z" fill="currentColor"/>
          </symbol>

<!-- youtube -->
          <symbol id="icon-youtube" viewBox="0 0 48 48">
              <path fill-rule="evenodd" clip-rule="evenodd" d="M24 0C10.7452 0 0 10.7452 0 24C0 37.2548 10.7452 48 24 48C37.2548 48 48 37.2548 48 24C48 10.7452 37.2548 0 24 0ZM34.0016 15.7493C35.1031 16.0516 35.9706 16.9422 36.265 18.0732C36.8 20.123 36.8 24.4 36.8 24.4C36.8 24.4 36.8 28.6768 36.265 30.7268C35.9706 31.8578 35.1031 32.7484 34.0016 33.0508C32.0054 33.6 24 33.6 24 33.6C24 33.6 15.9946 33.6 13.9983 33.0508C12.8967 32.7484 12.0292 31.8578 11.7348 30.7268C11.2 28.6768 11.2 24.4 11.2 24.4C11.2 24.4 11.2 20.123 11.7348 18.0732C12.0292 16.9422 12.8967 16.0516 13.9983 15.7493C15.9946 15.2 24 15.2 24 15.2C24 15.2 32.0054 15.2 34.0016 15.7493Z" fill="currentColor"/>
              <path d="M21.6001 28.8V20.8L28.0001 24.8001L21.6001 28.8Z" fill="currentColor"/>
          </symbol>

<!-- amazon -->
          <symbol id="icon-amazon" viewBox="0 0 48 48">
              <path fill-rule="evenodd" clip-rule="evenodd" d="M24 0C10.7452 0 0 10.7452 0 24C0 37.2548 10.7452 48 24 48C37.2548 48 48 37.2548 48 24C48 10.7452 37.2548 0 24 0ZM33.0317 31.9692V31.9656C33.0677 31.8936 33.1217 31.8252 33.1883 31.755C33.6258 31.4597 34.0453 31.2581 34.4485 31.1537C35.1092 30.9809 35.7555 30.8837 36.3837 30.8657C36.5584 30.8477 36.7258 30.8585 36.8806 30.8927C37.6673 30.9647 38.1408 31.0943 38.2956 31.2887C38.3676 31.3913 38.4 31.5479 38.4 31.7568V31.9404C38.4 32.5525 38.2344 33.2726 37.9031 34.1007C37.5701 34.9288 37.1074 35.5984 36.517 36.1043C36.427 36.1763 36.3495 36.2087 36.2793 36.2087C36.2433 36.2087 36.2073 36.1997 36.1749 36.1835C36.0669 36.1295 36.0435 36.0341 36.0957 35.8955C36.7438 34.3761 37.0642 33.3212 37.0642 32.7271C37.0642 32.5345 37.0282 32.3941 36.9598 32.3076C36.7852 32.1006 36.2973 31.9944 35.4926 31.9944C35.1974 31.9944 34.8482 32.0124 34.4485 32.0484C34.0093 32.1024 33.6078 32.1528 33.2424 32.205C33.1343 32.205 33.0677 32.187 33.0317 32.151C32.9957 32.115 32.9885 32.0826 33.0065 32.0466C33.0065 32.0286 33.0137 32.0034 33.0317 31.9692ZM9.65401 31.5209C9.618 31.5731 9.6 31.6236 9.6 31.6776C9.6 31.764 9.65401 31.854 9.76022 31.9386C11.6811 33.6668 13.8521 35.008 16.2824 35.9585C18.7073 36.909 21.2817 37.3861 24.0054 37.3861C25.7696 37.3861 27.5752 37.1394 29.4241 36.6534C31.2747 36.1637 32.9507 35.4742 34.4503 34.5831C34.94 34.2879 35.3414 34.0251 35.6565 33.7982C35.8995 33.6236 35.9481 33.431 35.8005 33.2222C35.6511 33.0115 35.4458 32.9611 35.183 33.0655C35.1202 33.0961 35.0199 33.1397 34.8808 33.2001L34.8808 33.2002L34.8302 33.2222L34.4521 33.3788C31.1163 34.6533 27.7373 35.2924 24.3168 35.2924C19.1844 35.2924 14.4354 34.0251 10.0717 31.4939C9.87903 31.3715 9.74042 31.3805 9.65401 31.5209ZM17.5282 24.059H17.5318C17.5318 22.8529 17.8288 21.8231 18.4229 20.968C19.017 20.1129 19.8271 19.4666 20.8586 19.0292C21.8001 18.6277 22.9613 18.3397 24.3402 18.1651C24.8083 18.1111 25.5788 18.0427 26.6445 17.9562V17.5116C26.6445 16.3954 26.5185 15.643 26.2755 15.2613C25.91 14.7356 25.334 14.4728 24.5473 14.4728H24.3438C23.7678 14.5268 23.2691 14.7068 22.8497 15.0237C22.4302 15.3387 22.1602 15.7762 22.0396 16.3342C21.9675 16.6835 21.7929 16.8851 21.5139 16.9373L18.5021 16.5701C18.2069 16.4981 18.0575 16.3414 18.0575 16.0966C18.0575 16.0426 18.0665 15.9832 18.0845 15.913C18.3815 14.3594 19.1106 13.2073 20.2699 12.4566C21.4311 11.7059 22.7902 11.2864 24.342 11.2H24.9955C26.9848 11.2 28.5384 11.7149 29.6581 12.7446C29.8309 12.9192 29.9911 13.1082 30.1406 13.3081C30.29 13.5097 30.4106 13.6861 30.4952 13.8445C30.5852 14.003 30.6608 14.2298 30.7292 14.5286C30.8013 14.8221 30.8553 15.0273 30.8877 15.1407C30.9237 15.2541 30.9489 15.5007 30.9669 15.8752C30.9849 16.2496 30.9921 16.4729 30.9921 16.5413V22.8781C30.9921 23.3335 31.0569 23.7476 31.1901 24.1202C31.3161 24.4983 31.4457 24.7683 31.5681 24.9339L32.1694 25.7332C32.2738 25.8898 32.326 26.0303 32.326 26.1527C32.326 26.2913 32.2576 26.4137 32.1172 26.5181C30.6662 27.7783 29.8813 28.457 29.7589 28.5614C29.5501 28.7198 29.2963 28.7378 28.9992 28.6154C28.7544 28.4066 28.542 28.2049 28.3583 28.0123C28.1747 27.8215 28.0433 27.6811 27.9659 27.5947C27.8867 27.5046 27.7607 27.3372 27.5878 27.0834C27.4114 26.8278 27.289 26.6585 27.2188 26.5703C26.2395 27.6361 25.28 28.2985 24.3384 28.5614C23.7444 28.7378 23.0099 28.8242 22.1368 28.8242C20.7938 28.8242 19.6885 28.4102 18.8244 27.582C17.9602 26.7539 17.5282 25.5784 17.5282 24.059Z" fill="currentColor"/>
              <path d="M22.036 23.5333C22.036 24.2138 22.2052 24.7575 22.5454 25.1715C22.8875 25.5802 23.3429 25.7836 23.919 25.7836C23.973 25.7836 24.045 25.7764 24.1422 25.7602C24.2377 25.7422 24.3043 25.7332 24.3403 25.7332C25.0712 25.5406 25.64 25.0707 26.0415 24.32C26.2323 23.987 26.3763 23.6251 26.4735 23.2327C26.5689 22.842 26.6212 22.5234 26.6302 22.2786C26.6392 22.0337 26.6428 21.6305 26.6428 21.0724V20.4189C25.6292 20.4189 24.8605 20.491 24.3385 20.6296C22.8011 21.0652 22.0342 22.0337 22.0342 23.5351L22.036 23.5333Z" fill="currentColor"/>
          </symbol>

</svg>
