<svg xmlns="http://www.w3.org/2000/svg" xmlns:xlink="http://www.w3.org/1999/xlink" width="40" zoomAndPan="magnify" viewBox="0 0 30 30.000001" height="40" preserveAspectRatio="xMidYMid meet" version="1.0"><defs><clipPath id="1b8e3a111e"><path d="M 9.511719 2.902344 L 20.398438 2.902344 L 20.398438 26.128906 L 9.511719 26.128906 Z M 9.511719 2.902344 " clip-rule="nonzero"/></clipPath></defs><g clip-path="url(#1b8e3a111e)"><path fill="#000000" d="M 17.957031 6.753906 L 20.488281 6.753906 L 20.488281 2.933594 L 17.253906 2.933594 L 17.253906 2.949219 C 13.003906 3.105469 12.125 5.488281 12.050781 8.003906 L 12.042969 8.003906 L 12.042969 10.652344 L 9.511719 10.652344 L 9.511719 14.476562 L 12.042969 14.476562 L 12.042969 26.097656 L 16.585938 26.097656 L 16.585938 14.476562 L 19.84375 14.476562 L 20.488281 10.652344 L 16.585938 10.652344 L 16.585938 8.28125 C 16.585938 7.441406 17.152344 6.753906 17.957031 6.753906 Z M 17.957031 6.753906 " fill-opacity="1" fill-rule="nonzero"/></g></svg>