<svg xmlns="http://www.w3.org/2000/svg" xmlns:xlink="http://www.w3.org/1999/xlink" width="40" zoomAndPan="magnify" viewBox="0 0 30 30.000001" height="40" preserveAspectRatio="xMidYMid meet" version="1.0"><defs><clipPath id="a0040da58c"><path d="M 5 1.453125 L 25.179688 1.453125 L 25.179688 27 L 5 27 Z M 5 1.453125 " clip-rule="nonzero"/></clipPath></defs><g clip-path="url(#a0040da58c)"><path fill="#000000" d="M 22.59375 3.898438 C 21.839844 3.40625 21.023438 3.039062 20.152344 2.800781 L 17.570312 1.457031 L 16.769531 1.457031 L 16.769531 12.960938 C 16.296875 12.691406 15.796875 12.476562 15.273438 12.3125 C 14.75 12.152344 14.21875 12.046875 13.671875 12.003906 C 13.125 11.957031 12.582031 11.972656 12.039062 12.046875 C 11.5 12.121094 10.972656 12.25 10.457031 12.4375 C 9.945312 12.628906 9.457031 12.871094 8.996094 13.164062 C 8.535156 13.460938 8.113281 13.800781 7.726562 14.1875 C 7.34375 14.578125 7.003906 15 6.710938 15.460938 C 6.417969 15.925781 6.179688 16.410156 5.992188 16.925781 C 5.808594 17.4375 5.679688 17.964844 5.609375 18.507812 C 5.539062 19.050781 5.53125 19.59375 5.578125 20.136719 C 5.628906 20.679688 5.738281 21.210938 5.902344 21.730469 C 6.070312 22.253906 6.289062 22.75 6.5625 23.222656 C 6.839844 23.691406 7.160156 24.128906 7.53125 24.53125 C 7.902344 24.933594 8.3125 25.289062 8.761719 25.601562 C 9.210938 25.914062 9.6875 26.175781 10.191406 26.382812 C 10.699219 26.589844 11.222656 26.742188 11.761719 26.835938 C 12.300781 26.929688 12.84375 26.964844 13.390625 26.941406 C 13.9375 26.914062 14.472656 26.832031 15 26.691406 C 15.53125 26.546875 16.035156 26.351562 16.523438 26.097656 C 17.007812 25.847656 17.460938 25.542969 17.878906 25.191406 C 18.296875 24.839844 18.671875 24.449219 19.007812 24.015625 C 19.339844 23.582031 19.621094 23.117188 19.851562 22.625 C 20.082031 22.128906 20.257812 21.613281 20.375 21.082031 C 20.492188 20.546875 20.554688 20.007812 20.554688 19.460938 L 20.554688 6.964844 C 23.222656 8.109375 23.921875 8.691406 24.039062 8.800781 L 25.132812 10.835938 L 25.164062 8.429688 C 25.1875 6.585938 24.300781 5.019531 22.59375 3.898438 Z M 20.167969 5.445312 L 19.304688 5.09375 L 19.304688 19.460938 C 19.304688 19.933594 19.253906 20.394531 19.148438 20.851562 C 19.042969 21.3125 18.886719 21.75 18.683594 22.175781 C 18.480469 22.597656 18.230469 22.992188 17.9375 23.359375 C 17.644531 23.726562 17.3125 24.054688 16.941406 24.347656 C 16.574219 24.640625 16.179688 24.886719 15.753906 25.089844 C 15.328125 25.292969 14.886719 25.445312 14.429688 25.546875 C 13.96875 25.652344 13.503906 25.703125 13.035156 25.699219 C 12.5625 25.699219 12.097656 25.644531 11.640625 25.539062 C 11.183594 25.433594 10.742188 25.277344 10.320312 25.070312 C 9.894531 24.867188 9.5 24.617188 9.132812 24.324219 C 8.765625 24.027344 8.4375 23.695312 8.148438 23.328125 C 7.855469 22.960938 7.609375 22.5625 7.40625 22.140625 C 7.203125 21.714844 7.054688 21.273438 6.949219 20.816406 C 6.847656 20.355469 6.800781 19.894531 6.800781 19.421875 C 6.804688 18.953125 6.859375 18.492188 6.96875 18.035156 C 7.078125 17.578125 7.234375 17.136719 7.441406 16.714844 C 7.648438 16.292969 7.902344 15.902344 8.199219 15.535156 C 8.492188 15.171875 8.828125 14.84375 9.195312 14.554688 C 9.566406 14.265625 9.964844 14.019531 10.390625 13.820312 C 10.816406 13.621094 11.261719 13.46875 11.71875 13.371094 C 12.179688 13.269531 12.644531 13.222656 13.113281 13.226562 C 13.585938 13.230469 14.050781 13.289062 14.507812 13.398438 C 14.964844 13.507812 15.40625 13.664062 15.828125 13.875 C 16.25 14.082031 16.640625 14.335938 17.007812 14.628906 L 18.027344 15.464844 L 18.027344 3.101562 L 19.640625 3.9375 L 19.710938 3.976562 L 19.789062 3.992188 C 20.558594 4.199219 21.273438 4.519531 21.9375 4.957031 C 22.824219 5.546875 23.414062 6.261719 23.703125 7.085938 C 22.558594 6.46875 21.375 5.921875 20.164062 5.445312 Z M 20.167969 5.445312 " fill-opacity="1" fill-rule="nonzero"/></g><path fill="#000000" d="M 13.050781 14.5 C 12.722656 14.5 12.398438 14.53125 12.078125 14.59375 C 11.757812 14.660156 11.449219 14.753906 11.148438 14.878906 C 10.84375 15.003906 10.558594 15.15625 10.285156 15.335938 C 10.015625 15.515625 9.765625 15.722656 9.53125 15.953125 C 9.300781 16.183594 9.097656 16.433594 8.914062 16.707031 C 8.734375 16.976562 8.578125 17.261719 8.453125 17.5625 C 8.328125 17.863281 8.234375 18.175781 8.171875 18.496094 C 8.109375 18.8125 8.074219 19.136719 8.074219 19.460938 C 8.074219 19.789062 8.109375 20.109375 8.171875 20.429688 C 8.234375 20.75 8.328125 21.0625 8.453125 21.363281 C 8.578125 21.664062 8.734375 21.949219 8.914062 22.21875 C 9.097656 22.492188 9.300781 22.742188 9.53125 22.972656 C 9.765625 23.203125 10.015625 23.40625 10.285156 23.589844 C 10.558594 23.769531 10.84375 23.921875 11.148438 24.046875 C 11.449219 24.171875 11.757812 24.265625 12.078125 24.328125 C 12.398438 24.394531 12.722656 24.425781 13.050781 24.425781 C 13.375 24.425781 13.699219 24.394531 14.019531 24.328125 C 14.339844 24.265625 14.652344 24.171875 14.953125 24.046875 C 15.253906 23.921875 15.542969 23.769531 15.8125 23.589844 C 16.085938 23.40625 16.335938 23.203125 16.566406 22.972656 C 16.796875 22.742188 17.003906 22.492188 17.1875 22.21875 C 17.367188 21.949219 17.519531 21.664062 17.644531 21.363281 C 17.769531 21.0625 17.863281 20.75 17.929688 20.429688 C 17.992188 20.109375 18.023438 19.789062 18.023438 19.460938 C 18.023438 19.136719 17.992188 18.8125 17.925781 18.496094 C 17.863281 18.175781 17.769531 17.867188 17.644531 17.5625 C 17.519531 17.261719 17.363281 16.976562 17.183594 16.707031 C 17.003906 16.4375 16.796875 16.1875 16.566406 15.957031 C 16.335938 15.726562 16.082031 15.519531 15.8125 15.339844 C 15.539062 15.15625 15.253906 15.003906 14.953125 14.878906 C 14.652344 14.753906 14.339844 14.660156 14.019531 14.597656 C 13.699219 14.53125 13.375 14.5 13.050781 14.5 Z M 13.050781 23.175781 C 12.558594 23.175781 12.082031 23.082031 11.625 22.890625 C 11.171875 22.703125 10.769531 22.4375 10.417969 22.085938 C 10.070312 21.738281 9.800781 21.339844 9.613281 20.882812 C 9.421875 20.429688 9.328125 19.953125 9.328125 19.460938 C 9.328125 18.96875 9.421875 18.496094 9.613281 18.042969 C 9.800781 17.585938 10.070312 17.183594 10.417969 16.835938 C 10.769531 16.488281 11.171875 16.222656 11.625 16.03125 C 12.082031 15.84375 12.558594 15.75 13.050781 15.75 C 13.542969 15.75 14.019531 15.84375 14.472656 16.03125 C 14.929688 16.222656 15.332031 16.488281 15.679688 16.835938 C 16.03125 17.183594 16.300781 17.585938 16.488281 18.042969 C 16.675781 18.496094 16.769531 18.96875 16.769531 19.460938 C 16.769531 19.953125 16.675781 20.429688 16.488281 20.882812 C 16.296875 21.335938 16.027344 21.738281 15.679688 22.085938 C 15.332031 22.433594 14.929688 22.703125 14.472656 22.890625 C 14.019531 23.078125 13.542969 23.175781 13.050781 23.175781 Z M 13.050781 23.175781 " fill-opacity="1" fill-rule="nonzero"/></svg>