<svg xmlns="http://www.w3.org/2000/svg" xmlns:xlink="http://www.w3.org/1999/xlink" width="40" zoomAndPan="magnify" viewBox="0 0 30 30.000001" height="40" preserveAspectRatio="xMidYMid meet" version="1.0"><defs><clipPath id="b0e05ac573"><path d="M 1.933594 1.453125 L 28.066406 1.453125 L 28.066406 27.582031 L 1.933594 27.582031 Z M 1.933594 1.453125 " clip-rule="nonzero"/></clipPath></defs><path fill="#000000" d="M 6.164062 9.105469 L 23.835938 9.105469 C 23.992188 9.105469 24.121094 9.234375 24.121094 9.390625 L 24.121094 19.640625 C 24.121094 19.796875 23.992188 19.925781 23.835938 19.925781 L 6.164062 19.925781 C 6.007812 19.925781 5.878906 19.796875 5.878906 19.640625 L 5.878906 9.390625 C 5.878906 9.234375 6.007812 9.105469 6.164062 9.105469 Z M 23.550781 9.675781 L 6.449219 9.675781 L 6.449219 19.355469 L 23.550781 19.355469 L 23.550781 9.675781 " fill-opacity="1" fill-rule="nonzero"/><path fill="#000000" d="M 6.304688 9.144531 C 6.171875 9.066406 5.996094 9.113281 5.917969 9.25 C 5.839844 9.386719 5.886719 9.558594 6.019531 9.636719 L 14.855469 14.761719 C 14.953125 14.820312 15.074219 14.8125 15.160156 14.75 L 23.980469 9.636719 C 24.113281 9.558594 24.160156 9.386719 24.082031 9.25 C 24.003906 9.113281 23.828125 9.066406 23.695312 9.144531 L 15 14.1875 L 6.304688 9.144531 " fill-opacity="1" fill-rule="nonzero"/><path fill="#000000" d="M 17.132812 15.359375 C 17 15.28125 16.824219 15.328125 16.746094 15.464844 C 16.667969 15.601562 16.714844 15.773438 16.851562 15.851562 L 20.882812 18.179688 C 21.019531 18.257812 21.191406 18.210938 21.269531 18.074219 C 21.347656 17.9375 21.300781 17.765625 21.164062 17.6875 L 17.132812 15.359375 " fill-opacity="1" fill-rule="nonzero"/><path fill="#000000" d="M 13.148438 15.84375 C 13.285156 15.761719 13.328125 15.585938 13.246094 15.453125 C 13.164062 15.316406 12.988281 15.273438 12.855469 15.355469 L 8.828125 17.789062 C 8.695312 17.871094 8.652344 18.046875 8.730469 18.179688 C 8.8125 18.316406 8.988281 18.359375 9.121094 18.277344 L 13.148438 15.84375 " fill-opacity="1" fill-rule="nonzero"/><g clip-path="url(#b0e05ac573)"><path fill="#000000" d="M 6.511719 1.453125 L 23.488281 1.453125 C 26.003906 1.453125 28.066406 3.511719 28.066406 6.03125 L 28.066406 23.003906 C 28.066406 25.519531 26.003906 27.582031 23.488281 27.582031 L 6.511719 27.582031 C 3.996094 27.582031 1.933594 25.519531 1.933594 23.003906 L 1.933594 6.03125 C 1.933594 3.511719 3.996094 1.453125 6.511719 1.453125 Z M 6.511719 2.597656 C 4.625 2.597656 3.078125 4.140625 3.078125 6.03125 L 3.078125 23.003906 C 3.078125 24.890625 4.625 26.4375 6.511719 26.4375 L 23.488281 26.4375 C 25.375 26.4375 26.921875 24.890625 26.921875 23.003906 L 26.921875 6.03125 C 26.921875 4.140625 25.375 2.597656 23.488281 2.597656 L 6.511719 2.597656 " fill-opacity="1" fill-rule="evenodd"/></g></svg>