<svg xmlns="http://www.w3.org/2000/svg" xmlns:xlink="http://www.w3.org/1999/xlink" width="40" zoomAndPan="magnify" viewBox="0 0 30 30.000001" height="40" preserveAspectRatio="xMidYMid meet" version="1.0"><defs><clipPath id="6bfc0fae7e"><path d="M 1.933594 1.453125 L 28.066406 1.453125 L 28.066406 27.582031 L 1.933594 27.582031 Z M 1.933594 1.453125 " clip-rule="nonzero"/></clipPath></defs><g clip-path="url(#6bfc0fae7e)"><path fill="#000000" d="M 9.585938 1.542969 C 8.195312 1.605469 7.246094 1.828125 6.417969 2.15625 C 5.558594 2.488281 4.832031 2.9375 4.109375 3.664062 C 3.382812 4.390625 2.9375 5.121094 2.605469 5.980469 C 2.285156 6.8125 2.066406 7.761719 2.003906 9.152344 C 1.945312 10.542969 1.929688 10.988281 1.9375 14.535156 C 1.941406 18.082031 1.957031 18.527344 2.023438 19.921875 C 2.089844 21.308594 2.3125 22.257812 2.636719 23.089844 C 2.972656 23.949219 3.421875 24.671875 4.148438 25.398438 C 4.875 26.125 5.605469 26.566406 6.464844 26.898438 C 7.296875 27.222656 8.246094 27.441406 9.636719 27.5 C 11.027344 27.5625 11.472656 27.574219 15.019531 27.566406 C 18.566406 27.5625 19.011719 27.546875 20.402344 27.480469 C 21.792969 27.414062 22.742188 27.191406 23.570312 26.867188 C 24.429688 26.53125 25.15625 26.085938 25.882812 25.355469 C 26.605469 24.628906 27.050781 23.902344 27.382812 23.039062 C 27.703125 22.210938 27.921875 21.257812 27.984375 19.871094 C 28.042969 18.476562 28.058594 18.03125 28.050781 14.488281 C 28.046875 10.941406 28.027344 10.496094 27.964844 9.101562 C 27.898438 7.710938 27.675781 6.765625 27.351562 5.933594 C 27.015625 5.074219 26.566406 4.347656 25.839844 3.625 C 25.113281 2.898438 24.382812 2.453125 23.523438 2.121094 C 22.695312 1.800781 21.742188 1.582031 20.355469 1.523438 C 18.960938 1.460938 18.515625 1.445312 14.96875 1.453125 C 11.421875 1.460938 10.980469 1.476562 9.585938 1.542969 M 9.738281 25.148438 C 8.464844 25.09375 7.773438 24.882812 7.3125 24.703125 C 6.703125 24.46875 6.269531 24.183594 5.808594 23.730469 C 5.351562 23.273438 5.066406 22.839844 4.828125 22.230469 C 4.652344 21.769531 4.433594 21.082031 4.375 19.808594 C 4.308594 18.429688 4.292969 18.019531 4.289062 14.53125 C 4.28125 11.046875 4.292969 10.632812 4.355469 9.253906 C 4.410156 7.980469 4.621094 7.289062 4.800781 6.828125 C 5.035156 6.21875 5.316406 5.785156 5.773438 5.324219 C 6.230469 4.867188 6.664062 4.585938 7.273438 4.347656 C 7.734375 4.167969 8.425781 3.953125 9.695312 3.890625 C 11.074219 3.828125 11.484375 3.8125 14.972656 3.804688 C 18.460938 3.796875 18.875 3.8125 20.25 3.871094 C 21.523438 3.929688 22.214844 4.136719 22.675781 4.316406 C 23.285156 4.554688 23.722656 4.832031 24.179688 5.289062 C 24.636719 5.746094 24.921875 6.179688 25.160156 6.789062 C 25.339844 7.25 25.550781 7.941406 25.613281 9.210938 C 25.679688 10.589844 25.691406 11.003906 25.699219 14.488281 C 25.707031 17.976562 25.691406 18.390625 25.632812 19.765625 C 25.578125 21.039062 25.367188 21.730469 25.1875 22.191406 C 24.953125 22.800781 24.671875 23.234375 24.214844 23.695312 C 23.757812 24.152344 23.324219 24.433594 22.714844 24.671875 C 22.253906 24.851562 21.5625 25.066406 20.292969 25.128906 C 18.914062 25.191406 18.5 25.207031 15.011719 25.214844 C 11.527344 25.21875 11.113281 25.207031 9.738281 25.148438 M 20.382812 7.53125 C 20.386719 8.394531 21.089844 9.097656 21.953125 9.09375 C 22.820312 9.09375 23.519531 8.390625 23.519531 7.523438 C 23.515625 6.660156 22.8125 5.957031 21.949219 5.960938 C 21.082031 5.960938 20.382812 6.664062 20.382812 7.527344 M 8.289062 14.523438 C 8.296875 18.226562 11.304688 21.222656 15.007812 21.214844 C 18.710938 21.207031 21.707031 18.199219 21.699219 14.496094 C 21.691406 10.796875 18.683594 7.796875 14.980469 7.804688 C 11.277344 7.8125 8.28125 10.820312 8.289062 14.523438 M 10.640625 14.519531 C 10.636719 12.113281 12.582031 10.160156 14.984375 10.15625 C 17.390625 10.152344 19.34375 12.097656 19.347656 14.503906 C 19.351562 16.90625 17.40625 18.859375 15.003906 18.863281 C 12.597656 18.867188 10.644531 16.921875 10.640625 14.519531 " fill-opacity="1" fill-rule="nonzero"/></g></svg>