<svg xmlns="http://www.w3.org/2000/svg" xmlns:xlink="http://www.w3.org/1999/xlink" width="40" zoomAndPan="magnify" viewBox="0 0 30 30.000001" height="40" preserveAspectRatio="xMidYMid meet" version="1.0"><defs><clipPath id="b8db716a49"><path d="M 1.933594 1.453125 L 28.066406 1.453125 L 28.066406 27.582031 L 1.933594 27.582031 Z M 1.933594 1.453125 " clip-rule="nonzero"/></clipPath></defs><g clip-path="url(#b8db716a49)"><path fill="#000000" d="M 15 1.453125 C 7.785156 1.453125 1.933594 7.300781 1.933594 14.515625 C 1.933594 21.730469 7.785156 27.582031 15 27.582031 C 22.214844 27.582031 28.066406 21.730469 28.066406 14.515625 C 28.066406 7.300781 22.214844 1.453125 15 1.453125 Z M 15 26.589844 C 8.332031 26.589844 2.925781 21.183594 2.925781 14.515625 C 2.925781 7.847656 8.332031 2.441406 15 2.441406 C 21.667969 2.441406 27.074219 7.847656 27.074219 14.515625 C 27.074219 21.183594 21.667969 26.589844 15 26.589844 Z M 15 26.589844 " fill-opacity="1" fill-rule="nonzero"/></g><path fill="#000000" d="M 13.464844 20.921875 C 13.140625 20.953125 12.878906 20.988281 12.613281 21 C 11.125 21.070312 10.019531 20.484375 9.351562 19.113281 C 9.136719 18.675781 8.863281 18.265625 8.582031 17.867188 C 8.410156 17.632812 8.171875 17.441406 7.949219 17.242188 C 7.8125 17.121094 7.871094 16.894531 8.050781 16.863281 C 8.261719 16.828125 8.457031 16.867188 8.648438 16.917969 C 9.25 17.070312 9.632812 17.492188 9.9375 18.003906 C 10.632812 19.152344 11.828125 19.632812 13.117188 19.289062 C 13.335938 19.230469 13.433594 19.136719 13.480469 18.898438 C 13.535156 18.617188 13.613281 18.34375 13.695312 18.0625 C 13.742188 17.890625 13.722656 17.722656 13.632812 17.566406 C 13.539062 17.410156 13.40625 17.3125 13.230469 17.269531 L 13.222656 17.269531 C 11.882812 16.949219 10.726562 16.351562 9.980469 15.128906 C 9.582031 14.472656 9.386719 13.75 9.394531 13 C 9.40625 12.148438 9.480469 11.292969 9.578125 10.445312 C 9.648438 9.851562 9.925781 9.320312 10.355469 8.890625 C 10.503906 8.742188 10.515625 8.617188 10.445312 8.421875 C 10.148438 7.632812 10.199219 6.835938 10.460938 6.042969 C 10.535156 5.816406 10.640625 5.785156 10.855469 5.851562 C 11.519531 6.0625 12.015625 6.492188 12.449219 7.011719 L 12.453125 7.015625 C 12.566406 7.152344 12.707031 7.242188 12.875 7.289062 C 13.042969 7.339844 13.210938 7.335938 13.375 7.28125 C 14.753906 6.832031 16.84375 6.824219 18.140625 7.273438 C 18.308594 7.328125 18.476562 7.332031 18.648438 7.285156 C 18.816406 7.238281 18.957031 7.144531 19.070312 7.011719 L 19.074219 7.003906 C 19.511719 6.488281 20.007812 6.058594 20.671875 5.851562 C 20.894531 5.78125 20.988281 5.832031 21.058594 6.050781 C 21.316406 6.84375 21.363281 7.636719 21.082031 8.4375 C 21.042969 8.546875 21.042969 8.746094 21.113281 8.816406 C 21.710938 9.417969 21.96875 10.167969 22.035156 10.980469 C 22.101562 11.761719 22.167969 12.558594 22.097656 13.339844 C 21.90625 15.363281 20.675781 16.542969 18.804688 17.128906 C 18.644531 17.179688 18.480469 17.21875 18.316406 17.257812 C 18.132812 17.304688 17.996094 17.40625 17.90625 17.570312 C 17.816406 17.738281 17.800781 17.90625 17.863281 18.085938 C 18.117188 18.824219 18.078125 19.613281 18.074219 20.398438 C 18.074219 20.578125 18.074219 20.757812 18.070312 20.9375 C 18.070312 21.242188 18.011719 21.53125 17.898438 21.808594 C 17.78125 22.085938 17.617188 22.332031 17.402344 22.546875 C 17.191406 22.757812 16.945312 22.921875 16.664062 23.039062 C 16.386719 23.152344 16.097656 23.210938 15.796875 23.210938 L 15.742188 23.210938 C 15.441406 23.210938 15.152344 23.152344 14.871094 23.039062 C 14.59375 22.921875 14.347656 22.757812 14.132812 22.542969 C 13.921875 22.332031 13.753906 22.085938 13.640625 21.804688 C 13.523438 21.527344 13.464844 21.234375 13.464844 20.933594 Z M 13.464844 20.921875 " fill-opacity="1" fill-rule="nonzero"/></svg>