<svg xmlns="http://www.w3.org/2000/svg" xmlns:xlink="http://www.w3.org/1999/xlink" width="40" zoomAndPan="magnify" viewBox="0 0 30 30.000001" height="40" preserveAspectRatio="xMidYMid meet" version="1.0"><defs><clipPath id="81d51e76bb"><path d="M 1.933594 1.453125 L 28.066406 1.453125 L 28.066406 27.582031 L 1.933594 27.582031 Z M 1.933594 1.453125 " clip-rule="nonzero"/></clipPath></defs><path fill="#000000" d="M 14.742188 23.476562 L 9.769531 15.128906 L 9.761719 15.117188 L 9.761719 15.113281 C 9.050781 14.035156 8.71875 12.832031 8.71875 11.65625 C 8.71875 10.621094 8.972656 9.605469 9.445312 8.699219 C 9.921875 7.792969 10.613281 7 11.488281 6.421875 C 12.457031 5.78125 13.640625 5.394531 15 5.394531 C 16.359375 5.394531 17.542969 5.78125 18.511719 6.421875 C 19.386719 7 20.078125 7.792969 20.554688 8.699219 C 21.027344 9.605469 21.28125 10.621094 21.28125 11.65625 C 21.28125 12.839844 20.949219 14.046875 20.230469 15.128906 C 20.226562 15.132812 20.226562 15.132812 20.222656 15.136719 L 15.246094 23.496094 L 15.246094 23.5 C 15.164062 23.632812 14.988281 23.679688 14.855469 23.597656 C 14.804688 23.566406 14.769531 23.527344 14.742188 23.476562 Z M 10.253906 14.828125 L 15 22.796875 L 19.734375 14.847656 C 19.742188 14.835938 19.746094 14.824219 19.753906 14.816406 C 20.40625 13.832031 20.710938 12.734375 20.710938 11.65625 C 20.710938 10.710938 20.480469 9.785156 20.050781 8.960938 C 19.621094 8.140625 18.992188 7.421875 18.195312 6.894531 C 17.320312 6.3125 16.242188 5.964844 15 5.964844 C 13.757812 5.964844 12.679688 6.3125 11.804688 6.894531 C 11.007812 7.421875 10.378906 8.140625 9.949219 8.960938 C 9.519531 9.785156 9.289062 10.710938 9.289062 11.65625 C 9.289062 12.726562 9.589844 13.820312 10.234375 14.800781 C 10.242188 14.808594 10.246094 14.816406 10.253906 14.828125 " fill-opacity="1" fill-rule="nonzero"/><path fill="#000000" d="M 15 8.265625 C 15.660156 8.265625 16.261719 8.53125 16.695312 8.964844 C 17.128906 9.402344 17.398438 10 17.398438 10.664062 C 17.398438 11.324219 17.128906 11.925781 16.695312 12.359375 C 16.261719 12.792969 15.660156 13.058594 15 13.058594 C 14.335938 13.058594 13.738281 12.792969 13.304688 12.359375 C 12.871094 11.925781 12.601562 11.324219 12.601562 10.664062 C 12.601562 10 12.871094 9.402344 13.304688 8.964844 C 13.738281 8.53125 14.335938 8.265625 15 8.265625 Z M 16.292969 9.371094 C 15.960938 9.039062 15.503906 8.835938 15 8.835938 C 14.496094 8.835938 14.039062 9.039062 13.707031 9.371094 C 13.375 9.699219 13.171875 10.15625 13.171875 10.664062 C 13.171875 11.167969 13.375 11.625 13.707031 11.953125 C 14.039062 12.285156 14.496094 12.492188 15 12.492188 C 15.503906 12.492188 15.960938 12.285156 16.292969 11.953125 C 16.625 11.625 16.828125 11.167969 16.828125 10.664062 C 16.828125 10.15625 16.625 9.699219 16.292969 9.371094 " fill-opacity="1" fill-rule="nonzero"/><g clip-path="url(#81d51e76bb)"><path fill="#000000" d="M 6.511719 1.453125 L 23.488281 1.453125 C 26.003906 1.453125 28.066406 3.511719 28.066406 6.03125 L 28.066406 23.003906 C 28.066406 25.519531 26.003906 27.582031 23.488281 27.582031 L 6.511719 27.582031 C 3.996094 27.582031 1.933594 25.519531 1.933594 23.003906 L 1.933594 6.03125 C 1.933594 3.511719 3.996094 1.453125 6.511719 1.453125 Z M 6.511719 2.597656 C 4.625 2.597656 3.078125 4.140625 3.078125 6.03125 L 3.078125 23.003906 C 3.078125 24.890625 4.625 26.4375 6.511719 26.4375 L 23.488281 26.4375 C 25.375 26.4375 26.921875 24.890625 26.921875 23.003906 L 26.921875 6.03125 C 26.921875 4.140625 25.375 2.597656 23.488281 2.597656 L 6.511719 2.597656 " fill-opacity="1" fill-rule="evenodd"/></g></svg>