<svg xmlns="http://www.w3.org/2000/svg" xmlns:xlink="http://www.w3.org/1999/xlink" width="40" zoomAndPan="magnify" viewBox="0 0 30 30.000001" height="40" preserveAspectRatio="xMidYMid meet" version="1.0"><defs><clipPath id="2485c8df7a"><path d="M 0.484375 0 L 29.515625 0 L 29.515625 29.03125 L 0.484375 29.03125 Z M 0.484375 0 " clip-rule="nonzero"/></clipPath><clipPath id="3afcd323eb"><path d="M 3.386719 6.363281 L 26.613281 6.363281 L 26.613281 22.332031 L 3.386719 22.332031 Z M 3.386719 6.363281 " clip-rule="nonzero"/></clipPath></defs><g clip-path="url(#2485c8df7a)"><path fill="#ffffff" d="M 0.484375 0 L 29.515625 0 L 29.515625 29.03125 L 0.484375 29.03125 Z M 0.484375 0 " fill-opacity="1" fill-rule="nonzero"/><path fill="#ffffff" d="M 0.484375 0 L 29.515625 0 L 29.515625 29.03125 L 0.484375 29.03125 Z M 0.484375 0 " fill-opacity="1" fill-rule="nonzero"/></g><g clip-path="url(#3afcd323eb)"><path fill="#252323" d="M 26.082031 8.855469 C 25.816406 7.875 25.03125 7.101562 24.035156 6.839844 C 22.234375 6.363281 15 6.363281 15 6.363281 C 15 6.363281 7.765625 6.363281 5.964844 6.839844 C 4.96875 7.101562 4.183594 7.875 3.917969 8.855469 C 3.433594 10.632812 3.433594 14.347656 3.433594 14.347656 C 3.433594 14.347656 3.433594 18.058594 3.917969 19.835938 C 4.183594 20.816406 4.96875 21.589844 5.964844 21.855469 C 7.765625 22.332031 15 22.332031 15 22.332031 C 15 22.332031 22.234375 22.332031 24.035156 21.855469 C 25.03125 21.589844 25.816406 20.816406 26.082031 19.835938 C 26.566406 18.058594 26.566406 14.347656 26.566406 14.347656 C 26.566406 14.347656 26.566406 10.632812 26.082031 8.855469 " fill-opacity="1" fill-rule="nonzero"/></g><path fill="#ffffff" d="M 12.632812 17.714844 L 18.679688 14.347656 L 12.632812 10.976562 Z M 12.632812 17.714844 " fill-opacity="1" fill-rule="nonzero"/></svg>