<svg xmlns="http://www.w3.org/2000/svg" xmlns:xlink="http://www.w3.org/1999/xlink" width="40" zoomAndPan="magnify" viewBox="0 0 30 30.000001" height="40" preserveAspectRatio="xMidYMid meet" version="1.0"><defs><clipPath id="e8b2a3b985"><path d="M 1.933594 1.453125 L 28.066406 1.453125 L 28.066406 27.582031 L 1.933594 27.582031 Z M 1.933594 1.453125 " clip-rule="nonzero"/></clipPath></defs><g clip-path="url(#e8b2a3b985)"><path fill="#000000" d="M 8.300781 1.453125 L 21.699219 1.453125 C 23.449219 1.453125 25.042969 2.167969 26.195312 3.320312 C 27.347656 4.476562 28.066406 6.066406 28.066406 7.816406 L 28.066406 21.214844 C 28.066406 22.964844 27.347656 24.558594 26.195312 25.710938 C 25.042969 26.863281 23.449219 27.582031 21.699219 27.582031 L 8.300781 27.582031 C 6.550781 27.582031 4.957031 26.863281 3.804688 25.710938 C 2.652344 24.558594 1.933594 22.964844 1.933594 21.214844 L 1.933594 7.816406 C 1.933594 6.066406 2.652344 4.476562 3.804688 3.320312 C 4.957031 2.167969 6.550781 1.453125 8.300781 1.453125 Z M 21.699219 2.296875 L 8.300781 2.296875 C 6.785156 2.296875 5.402344 2.917969 4.402344 3.917969 C 3.402344 4.917969 2.78125 6.300781 2.78125 7.816406 L 2.78125 21.214844 C 2.78125 22.734375 3.402344 24.113281 4.402344 25.113281 C 5.402344 26.113281 6.785156 26.734375 8.300781 26.734375 L 21.699219 26.734375 C 23.214844 26.734375 24.597656 26.113281 25.597656 25.113281 C 26.597656 24.113281 27.21875 22.734375 27.21875 21.214844 L 27.21875 7.816406 C 27.21875 6.300781 26.597656 4.917969 25.597656 3.917969 C 24.597656 2.917969 23.214844 2.296875 21.699219 2.296875 Z M 21.699219 2.296875 " fill-opacity="1" fill-rule="nonzero"/></g><path fill="#000000" d="M 9.894531 17.882812 C 9.171875 16.632812 8.675781 15.335938 8.402344 14.066406 C 8.113281 12.742188 8.066406 11.441406 8.25 10.253906 C 8.34375 9.648438 8.6875 8.980469 9.109375 8.367188 C 9.726562 7.472656 10.519531 6.675781 10.875 6.402344 C 12.996094 4.765625 13.496094 6.488281 13.558594 6.738281 L 14.199219 9.015625 L 14.210938 9.0625 C 14.246094 9.273438 14.289062 9.46875 14.328125 9.652344 C 14.398438 9.972656 14.464844 10.261719 14.46875 10.53125 C 14.480469 11.195312 14.214844 11.621094 13.230469 11.636719 C 12.976562 11.640625 12.574219 11.660156 12.226562 11.75 C 11.988281 11.8125 11.785156 11.894531 11.765625 12 C 11.664062 12.523438 11.730469 13.160156 11.902344 13.828125 C 12.105469 14.617188 12.460938 15.4375 12.871094 16.160156 C 13.292969 16.878906 13.828125 17.589844 14.410156 18.160156 C 14.902344 18.640625 15.421875 19.015625 15.925781 19.1875 C 16.027344 19.222656 16.199219 19.089844 16.375 18.914062 C 16.621094 18.660156 16.839844 18.320312 16.972656 18.097656 C 17.476562 17.253906 17.976562 17.234375 18.546875 17.578125 C 18.78125 17.71875 19 17.914062 19.238281 18.136719 C 19.386719 18.269531 19.539062 18.410156 19.691406 18.53125 L 19.726562 18.566406 L 21.363281 20.238281 C 21.445312 20.3125 22.929688 21.675781 20.335938 22.75 C 19.917969 22.921875 18.832031 23.214844 17.75 23.300781 C 17.015625 23.363281 16.265625 23.328125 15.6875 23.105469 C 14.570312 22.675781 13.464844 21.984375 12.457031 21.074219 C 11.492188 20.203125 10.613281 19.128906 9.894531 17.882812 Z M 9.226562 13.890625 C 9.484375 15.078125 9.949219 16.292969 10.625 17.460938 C 11.300781 18.628906 12.121094 19.636719 13.023438 20.449219 C 13.953125 21.289062 14.964844 21.925781 15.992188 22.320312 C 16.429688 22.488281 17.054688 22.511719 17.683594 22.460938 C 18.675781 22.378906 19.648438 22.121094 20.015625 21.972656 C 21.410156 21.390625 20.804688 20.871094 20.800781 20.871094 L 20.777344 20.847656 L 19.140625 19.171875 C 18.960938 19.027344 18.8125 18.890625 18.671875 18.757812 C 18.460938 18.566406 18.269531 18.394531 18.117188 18.300781 C 17.988281 18.222656 17.859375 18.253906 17.695312 18.53125 C 17.539062 18.789062 17.28125 19.1875 16.976562 19.5 C 16.597656 19.890625 16.140625 20.15625 15.648438 19.988281 C 15.023438 19.773438 14.394531 19.328125 13.816406 18.761719 C 13.183594 18.136719 12.601562 17.363281 12.144531 16.582031 L 12.140625 16.578125 C 11.695312 15.792969 11.308594 14.902344 11.085938 14.042969 C 10.882812 13.257812 10.808594 12.492188 10.9375 11.84375 C 11.035156 11.332031 11.492188 11.066406 12.019531 10.929688 C 12.4375 10.824219 12.914062 10.800781 13.21875 10.796875 C 13.542969 10.789062 13.628906 10.691406 13.625 10.542969 C 13.621094 10.359375 13.566406 10.109375 13.507812 9.835938 C 13.460938 9.640625 13.417969 9.433594 13.382812 9.226562 L 12.746094 6.964844 L 12.738281 6.9375 C 12.738281 6.933594 12.589844 6.144531 11.390625 7.070312 C 11.078125 7.3125 10.367188 8.027344 9.804688 8.847656 C 9.449219 9.363281 9.15625 9.914062 9.085938 10.382812 C 8.917969 11.46875 8.960938 12.664062 9.226562 13.890625 Z M 9.226562 13.890625 " fill-opacity="1" fill-rule="nonzero"/><path fill="#000000" d="M 18.035156 11.761719 C 18.621094 11.835938 19.039062 12.371094 18.96875 12.957031 L 18.949219 13.085938 L 17.757812 12.9375 L 17.90625 11.746094 Z M 18.449219 8.421875 C 18.269531 8.398438 18.136719 8.230469 18.160156 8.050781 C 18.183594 7.867188 18.351562 7.738281 18.53125 7.761719 C 19.878906 7.929688 21.09375 8.617188 21.929688 9.6875 C 22.332031 10.207031 22.632812 10.800781 22.8125 11.433594 C 23 12.089844 23.050781 12.773438 22.96875 13.453125 C 22.945312 13.632812 22.777344 13.765625 22.597656 13.742188 C 22.414062 13.71875 22.285156 13.550781 22.308594 13.371094 C 22.378906 12.78125 22.335938 12.183594 22.175781 11.613281 C 22.019531 11.0625 21.753906 10.546875 21.402344 10.097656 C 20.679688 9.164062 19.621094 8.566406 18.449219 8.421875 Z M 18.292969 9.6875 C 18.109375 9.664062 17.980469 9.5 18.003906 9.316406 C 18.027344 9.136719 18.191406 9.003906 18.375 9.027344 C 19.386719 9.152344 20.296875 9.671875 20.921875 10.472656 C 21.222656 10.863281 21.449219 11.304688 21.585938 11.78125 C 21.726562 12.273438 21.761719 12.789062 21.699219 13.296875 C 21.679688 13.476562 21.511719 13.605469 21.328125 13.585938 C 21.148438 13.5625 21.019531 13.394531 21.039062 13.214844 C 21.09375 12.792969 21.0625 12.371094 20.945312 11.960938 C 20.835938 11.570312 20.648438 11.203125 20.398438 10.882812 C 19.878906 10.21875 19.128906 9.792969 18.292969 9.6875 Z M 18.136719 10.953125 C 17.953125 10.933594 17.824219 10.765625 17.847656 10.585938 C 17.871094 10.402344 18.035156 10.273438 18.21875 10.296875 C 18.890625 10.378906 19.496094 10.722656 19.914062 11.257812 C 20.328125 11.789062 20.515625 12.46875 20.433594 13.136719 C 20.410156 13.320312 20.246094 13.449219 20.0625 13.425781 C 19.878906 13.40625 19.75 13.238281 19.773438 13.054688 C 19.835938 12.5625 19.695312 12.058594 19.390625 11.667969 C 19.082031 11.269531 18.632812 11.015625 18.136719 10.953125 Z M 18.136719 10.953125 " fill-opacity="1" fill-rule="evenodd"/></svg>