<svg xmlns="http://www.w3.org/2000/svg" xmlns:xlink="http://www.w3.org/1999/xlink" width="80" zoomAndPan="magnify" viewBox="0 0 60 44.999999" height="60" preserveAspectRatio="xMidYMid meet" version="1.0"><defs><clipPath id="32956a8166"><path d="M 26 0.453125 L 28 0.453125 L 28 5 L 26 5 Z M 26 0.453125 " clip-rule="nonzero"/></clipPath><clipPath id="18bdabafaa"><path d="M 14 35 L 25 35 L 25 44.703125 L 14 44.703125 Z M 14 35 " clip-rule="nonzero"/></clipPath><clipPath id="99d9a84bb3"><path d="M 40 35 L 51 35 L 51 44.703125 L 40 44.703125 Z M 40 35 " clip-rule="nonzero"/></clipPath><clipPath id="0570cda42c"><path d="M 30 35 L 40 35 L 40 44.703125 L 30 44.703125 Z M 30 35 " clip-rule="nonzero"/></clipPath><clipPath id="4ffb6ab5fc"><path d="M 5 35 L 15 35 L 15 44.703125 L 5 44.703125 Z M 5 35 " clip-rule="nonzero"/></clipPath><clipPath id="af55d14c87"><path d="M 51 35 L 55 35 L 55 44.703125 L 51 44.703125 Z M 51 35 " clip-rule="nonzero"/></clipPath><clipPath id="70f474faff"><path d="M 25 35 L 30 35 L 30 44.703125 L 25 44.703125 Z M 25 35 " clip-rule="nonzero"/></clipPath><clipPath id="1857dcc6b6"><path d="M 12.8125 1.035156 L 47.3125 1.035156 L 47.3125 24 L 12.8125 24 Z M 12.8125 1.035156 " clip-rule="nonzero"/></clipPath><clipPath id="406d0cb614"><path d="M 29 26 L 31 26 L 31 31.785156 L 29 31.785156 Z M 29 26 " clip-rule="nonzero"/></clipPath><clipPath id="e19d10a83d"><path d="M 0.652344 31.527344 L 30.113281 31.527344 L 30.113281 40.492188 L 0.652344 40.492188 Z M 0.652344 31.527344 " clip-rule="nonzero"/></clipPath><clipPath id="cc1ee12f7f"><path d="M 29.875 31.527344 L 59.117188 31.527344 L 59.117188 40.492188 L 29.875 40.492188 Z M 29.875 31.527344 " clip-rule="nonzero"/></clipPath></defs><path fill="#ffffff" d="M 17.875 34.585938 C 16.871094 34.585938 15.960938 34.570312 15.046875 34.585938 C 14.53125 34.597656 14.578125 34.25 14.578125 33.914062 C 14.578125 31.757812 14.578125 29.613281 14.578125 27.457031 C 14.578125 24.765625 14.578125 22.09375 14.578125 19.402344 C 14.578125 16.726562 15.792969 15.527344 18.484375 15.527344 C 19.089844 15.527344 19.699219 15.511719 20.304688 15.527344 C 22.222656 15.601562 23.589844 16.972656 23.589844 18.902344 C 23.605469 23.886719 23.589844 28.871094 23.605469 33.855469 C 23.605469 34.433594 23.4375 34.613281 22.875 34.585938 C 22.25 34.539062 21.613281 34.554688 20.976562 34.585938 C 20.457031 34.613281 20.304688 34.402344 20.320312 33.914062 C 20.351562 33.261719 20.335938 32.59375 20.320312 31.941406 C 20.292969 30.96875 19.851562 30.480469 19.046875 30.496094 C 18.269531 30.511719 17.875 30.984375 17.875 31.925781 C 17.875 32.792969 17.875 33.625 17.875 34.585938 Z M 17.921875 29.464844 C 18.621094 29.464844 19.210938 29.449219 19.820312 29.464844 C 20.246094 29.476562 20.320312 29.265625 20.320312 28.902344 C 20.320312 25.253906 20.320312 21.605469 20.304688 17.972656 C 20.304688 17.03125 19.867188 16.589844 19.058594 16.605469 C 18.226562 16.621094 17.875 17.03125 17.875 17.988281 C 17.875 21.5625 17.875 25.132812 17.875 28.6875 C 17.875 28.929688 17.90625 29.144531 17.921875 29.464844 Z M 17.921875 29.464844 " fill-opacity="1" fill-rule="nonzero"/><path fill="#ffffff" d="M 46.382812 27.046875 C 47.523438 27.046875 48.527344 27.046875 49.574219 27.046875 C 49.574219 29.554688 49.574219 32.03125 49.574219 34.628906 C 49.210938 34.628906 48.832031 34.628906 48.464844 34.628906 C 46.992188 34.628906 45.535156 34.644531 44.058594 34.628906 C 42.070312 34.613281 40.699219 33.214844 40.6875 31.210938 C 40.6875 27.109375 40.6875 23.003906 40.6875 18.917969 C 40.6875 17.214844 41.78125 15.785156 43.464844 15.664062 C 45.472656 15.511719 47.492188 15.632812 49.558594 15.632812 C 49.558594 17.503906 49.558594 19.34375 49.558594 21.226562 C 48.542969 21.226562 47.554688 21.226562 46.445312 21.226562 C 46.445312 19.765625 46.445312 18.292969 46.445312 16.726562 C 45.808594 16.726562 45.246094 16.652344 44.726562 16.742188 C 44.136719 16.863281 43.90625 17.367188 43.890625 17.960938 C 43.890625 19.480469 43.90625 21 43.875 22.519531 C 43.863281 23.035156 44.074219 23.171875 44.5625 23.15625 C 45.699219 23.125 46.824219 23.15625 48.011719 23.15625 C 48.011719 23.917969 48.011719 24.585938 48.011719 25.3125 C 47.539062 24.996094 47.097656 24.660156 46.628906 24.402344 C 46.246094 24.203125 45.820312 24.082031 45.398438 24.023438 C 44.410156 23.886719 43.90625 24.328125 43.890625 25.328125 C 43.875 27.503906 43.890625 29.675781 43.890625 31.863281 C 43.890625 33.214844 44.257812 33.566406 45.609375 33.550781 C 45.835938 33.550781 46.066406 33.535156 46.371094 33.519531 C 46.382812 31.363281 46.382812 29.25 46.382812 27.046875 Z M 46.382812 27.046875 " fill-opacity="1" fill-rule="nonzero"/><path fill="#ffffff" d="M 30.320312 34.628906 C 30.320312 28.261719 30.320312 21.972656 30.320312 15.574219 C 31.171875 15.574219 31.992188 15.574219 32.828125 15.574219 C 33.847656 15.574219 34.851562 15.574219 35.867188 15.574219 C 37.691406 15.558594 39.273438 17.109375 39.195312 18.945312 C 39.105469 21.726562 39.105469 24.507812 39.195312 27.289062 C 39.257812 28.914062 37.78125 30.601562 35.945312 30.574219 C 35.167969 30.558594 34.378906 30.574219 33.480469 30.574219 C 33.480469 31.710938 33.453125 32.792969 33.496094 33.871094 C 33.527344 34.476562 33.316406 34.675781 32.722656 34.628906 C 31.933594 34.585938 31.15625 34.628906 30.320312 34.628906 Z M 33.496094 29.492188 C 34.015625 29.492188 34.441406 29.523438 34.863281 29.492188 C 35.550781 29.449219 35.945312 29.039062 35.945312 28.367188 C 35.960938 24.84375 35.960938 21.332031 35.945312 17.808594 C 35.945312 17.230469 35.625 16.820312 35.0625 16.726562 C 34.5625 16.652344 34.03125 16.710938 33.480469 16.710938 C 33.496094 21 33.496094 25.191406 33.496094 29.492188 Z M 33.496094 29.492188 " fill-opacity="1" fill-rule="nonzero"/><path fill="#ffffff" d="M 13.878906 15.574219 C 13.878906 16.4375 13.878906 17.167969 13.878906 17.882812 C 13.363281 17.535156 12.890625 17.09375 12.328125 16.851562 C 11.292969 16.410156 11.097656 16.574219 11.097656 17.683594 C 11.097656 23.003906 11.097656 28.308594 11.097656 33.625 C 11.097656 33.929688 11.097656 34.21875 11.097656 34.570312 C 9.988281 34.570312 8.96875 34.570312 7.875 34.570312 C 7.875 28.613281 7.875 22.683594 7.875 16.710938 C 6.644531 16.5625 5.824219 17.109375 5.035156 17.988281 C 5.035156 17.273438 5.019531 16.574219 5.050781 15.863281 C 5.050781 15.753906 5.292969 15.589844 5.414062 15.589844 C 8.210938 15.574219 11.007812 15.574219 13.878906 15.574219 Z M 13.878906 15.574219 " fill-opacity="1" fill-rule="nonzero"/><path fill="#ffffff" d="M 54.5 15.574219 C 54.5 21.957031 54.5 28.246094 54.5 34.613281 C 53.558594 34.613281 52.644531 34.628906 51.75 34.597656 C 51.613281 34.597656 51.382812 34.3125 51.355469 34.128906 C 51.292969 33.703125 51.339844 33.277344 51.339844 32.835938 C 51.339844 27.351562 51.355469 21.863281 51.324219 16.363281 C 51.324219 15.742188 51.492188 15.511719 52.128906 15.558594 C 52.902344 15.617188 53.679688 15.574219 54.5 15.574219 Z M 54.5 15.574219 " fill-opacity="1" fill-rule="nonzero"/><path fill="#ffffff" d="M 24.867188 32.503906 L 24.867188 34.644531 L 26.292969 34.644531 L 26.292969 32.804688 L 27.648438 32.804688 L 27.648438 34.628906 C 28.132812 34.613281 28.632812 34.613281 29.121094 34.613281 C 29.089844 33.902344 29.042969 33.203125 29.015625 32.488281 C 29.195312 32.441406 29.332031 32.410156 29.457031 32.378906 L 29.457031 31.089844 C 29.273438 31.074219 29.136719 31.074219 29.015625 31.074219 C 28.453125 31.058594 27.90625 31.132812 27.386719 30.738281 C 27.191406 30.585938 26.675781 30.617188 26.476562 30.769531 C 26.050781 31.105469 25.609375 31.058594 25.140625 31.074219 C 24.925781 31.074219 24.730469 31.074219 24.425781 31.074219 C 24.667969 31.558594 24.121094 32.183594 24.867188 32.503906 Z M 28.953125 31.957031 C 28.679688 31.847656 28.179688 32.242188 28.117188 31.574219 C 28.9375 31.421875 29.03125 31.46875 28.953125 31.957031 Z M 27.007812 31.058594 C 27.34375 31.074219 27.648438 31.378906 27.648438 31.710938 C 27.648438 32.09375 27.34375 32.394531 26.976562 32.394531 C 26.628906 32.394531 26.292969 32.078125 26.292969 31.710938 C 26.292969 31.394531 26.660156 31.042969 27.007812 31.058594 Z M 24.972656 31.546875 L 25.792969 31.546875 C 25.929688 31.96875 25.671875 31.96875 25.398438 31.96875 C 25.140625 31.957031 24.851562 32 24.972656 31.546875 Z M 24.972656 31.546875 " fill-opacity="1" fill-rule="nonzero"/><path fill="#ffffff" d="M 29.457031 9.207031 C 29.273438 9.996094 29.121094 10.726562 28.953125 11.453125 C 28.332031 11.667969 27.523438 11.167969 26.976562 11.941406 C 26.445312 11.179688 25.671875 11.652344 25.019531 11.46875 C 24.851562 10.753906 24.683594 10.027344 24.515625 9.296875 C 26.019531 9.128906 26.6875 9.070312 26.8125 10.238281 C 26.976562 10.070312 27.144531 9.996094 27.175781 9.875 C 27.28125 9.433594 27.539062 9.207031 27.996094 9.222656 C 28.46875 9.207031 28.9375 9.207031 29.457031 9.207031 Z M 29.457031 9.207031 " fill-opacity="1" fill-rule="nonzero"/><path fill="#ffffff" d="M 26.976562 28.292969 C 26.429688 27.519531 25.65625 27.988281 25.019531 27.792969 C 24.851562 27.0625 24.683594 26.347656 24.515625 25.617188 C 26.050781 25.464844 26.660156 25.390625 26.824219 26.574219 C 26.992188 26.410156 27.144531 26.316406 27.191406 26.195312 C 27.3125 25.769531 27.554688 25.527344 28.027344 25.542969 C 28.484375 25.558594 28.9375 25.542969 29.46875 25.542969 C 29.304688 26.316406 29.136719 27.03125 28.96875 27.792969 C 28.359375 28.035156 27.539062 27.488281 26.976562 28.292969 Z M 26.976562 28.292969 " fill-opacity="1" fill-rule="nonzero"/><path fill="#ffffff" d="M 26.976562 14.675781 C 26.429688 13.871094 25.625 14.371094 25.003906 14.160156 C 24.835938 13.429688 24.667969 12.714844 24.5 11.988281 C 26.019531 11.851562 26.644531 11.789062 26.796875 12.914062 C 26.960938 12.777344 27.128906 12.699219 27.175781 12.59375 C 27.328125 12.136719 27.585938 11.894531 28.085938 11.925781 C 28.527344 11.957031 28.953125 11.925781 29.457031 11.925781 C 29.363281 12.335938 29.273438 12.699219 29.195312 13.066406 C 29.121094 13.429688 29.042969 13.796875 28.953125 14.175781 C 28.332031 14.371094 27.511719 13.855469 26.976562 14.675781 Z M 26.976562 14.675781 " fill-opacity="1" fill-rule="nonzero"/><path fill="#ffffff" d="M 26.902344 15.617188 C 26.992188 15.511719 27.144531 15.4375 27.175781 15.316406 C 27.3125 14.875 27.554688 14.632812 28.042969 14.644531 C 28.484375 14.660156 28.921875 14.644531 29.441406 14.644531 C 29.273438 15.40625 29.105469 16.121094 28.9375 16.894531 C 28.621094 16.894531 28.253906 16.851562 27.90625 16.910156 C 27.585938 16.972656 27.265625 17.125 26.902344 17.261719 C 26.476562 16.574219 25.671875 17.03125 25.003906 16.863281 C 24.835938 16.136719 24.667969 15.421875 24.484375 14.644531 C 25.0625 14.644531 25.59375 14.632812 26.128906 14.644531 C 26.476562 14.675781 26.71875 15.027344 26.902344 15.617188 Z M 26.902344 15.617188 " fill-opacity="1" fill-rule="nonzero"/><path fill="#ffffff" d="M 24.484375 17.382812 C 25.0625 17.382812 25.578125 17.335938 26.097656 17.398438 C 26.550781 17.441406 26.78125 17.761719 26.871094 18.324219 C 26.976562 18.21875 27.128906 18.140625 27.175781 18.019531 C 27.3125 17.609375 27.554688 17.367188 28.011719 17.382812 C 28.46875 17.398438 28.921875 17.382812 29.441406 17.382812 C 29.273438 18.125 29.105469 18.839844 28.9375 19.601562 C 28.347656 19.8125 27.523438 19.296875 26.976562 20.101562 C 26.460938 19.34375 25.671875 19.753906 24.988281 19.601562 C 24.851562 18.902344 24.683594 18.171875 24.484375 17.382812 Z M 24.484375 17.382812 " fill-opacity="1" fill-rule="nonzero"/><path fill="#ffffff" d="M 24.5 22.851562 C 25.078125 22.851562 25.609375 22.820312 26.128906 22.867188 C 26.597656 22.914062 26.796875 23.261719 26.78125 23.734375 C 26.824219 23.75 26.871094 23.78125 26.917969 23.792969 C 27.007812 23.671875 27.144531 23.566406 27.191406 23.429688 C 27.3125 23.082031 27.496094 22.835938 27.90625 22.835938 C 28.40625 22.835938 28.90625 22.835938 29.457031 22.835938 C 29.289062 23.597656 29.121094 24.3125 28.953125 25.054688 C 28.375 25.285156 27.554688 24.753906 27.007812 25.527344 C 26.476562 24.78125 25.6875 25.222656 25.019531 25.054688 C 24.851562 24.355469 24.683594 23.644531 24.5 22.851562 Z M 24.5 22.851562 " fill-opacity="1" fill-rule="nonzero"/><path fill="#ffffff" d="M 26.886719 21.058594 C 26.992188 20.953125 27.144531 20.875 27.191406 20.753906 C 27.34375 20.359375 27.554688 20.085938 28.027344 20.117188 C 28.484375 20.132812 28.9375 20.117188 29.457031 20.117188 C 29.289062 20.875 29.121094 21.589844 28.953125 22.351562 C 28.332031 22.546875 27.511719 22.046875 26.960938 22.835938 C 26.429688 22.0625 25.65625 22.546875 25.019531 22.351562 C 24.851562 21.636719 24.683594 20.921875 24.5 20.132812 C 25.078125 20.132812 25.625 20.085938 26.171875 20.148438 C 26.597656 20.207031 26.8125 20.542969 26.78125 21.011719 C 26.8125 21.011719 26.839844 21.027344 26.886719 21.058594 Z M 26.886719 21.058594 " fill-opacity="1" fill-rule="nonzero"/><path fill="#ffffff" d="M 25.019531 30.617188 C 24.820312 29.75 24.667969 29.039062 24.484375 28.261719 C 25.078125 28.261719 25.640625 28.21875 26.171875 28.277344 C 26.628906 28.339844 26.75 28.734375 26.765625 29.160156 C 27.023438 29.25 27.175781 29.234375 27.222656 28.902344 C 27.265625 28.492188 27.511719 28.230469 27.980469 28.261719 C 28.453125 28.277344 28.921875 28.261719 29.457031 28.261719 C 29.289062 29.023438 29.121094 29.75 28.953125 30.511719 C 28.574219 30.558594 28.195312 30.617188 27.796875 30.34375 C 27.28125 29.996094 26.734375 30.070312 26.171875 30.3125 C 25.808594 30.464844 25.398438 30.527344 25.019531 30.617188 Z M 25.019531 30.617188 " fill-opacity="1" fill-rule="nonzero"/><path fill="#ffffff" d="M 27.675781 5.164062 C 27.632812 6.042969 27.585938 6.910156 27.539062 7.808594 C 27.160156 7.808594 26.824219 7.808594 26.429688 7.808594 C 26.371094 6.941406 26.324219 6.074219 26.265625 5.164062 C 26.75 5.164062 27.175781 5.164062 27.675781 5.164062 Z M 27.675781 5.164062 " fill-opacity="1" fill-rule="nonzero"/><g clip-path="url(#32956a8166)"><path fill="#ffffff" d="M 26.234375 4.511719 C 26.371094 4.375 26.523438 4.222656 26.765625 3.976562 C 26.765625 2.960938 26.765625 1.773438 26.765625 0.589844 C 27.144531 0.453125 27.222656 0.621094 27.222656 0.921875 C 27.207031 1.820312 27.207031 2.714844 27.222656 3.613281 C 27.222656 3.871094 27.097656 4.191406 27.554688 4.234375 C 27.601562 4.234375 27.632812 4.449219 27.691406 4.601562 C 27.207031 4.601562 26.765625 4.601562 26.339844 4.601562 C 26.292969 4.585938 26.265625 4.554688 26.234375 4.511719 Z M 26.234375 4.511719 " fill-opacity="1" fill-rule="nonzero"/></g><path fill="#ffffff" d="M 28.101562 8.308594 C 28.101562 8.460938 28.101562 8.582031 28.101562 8.628906 C 27.691406 8.78125 27.3125 8.933594 26.960938 9.070312 C 26.660156 8.949219 26.324219 8.796875 25.898438 8.628906 C 25.898438 8.613281 25.882812 8.492188 25.882812 8.324219 C 26.628906 8.308594 27.359375 8.308594 28.101562 8.308594 Z M 28.101562 8.308594 " fill-opacity="1" fill-rule="nonzero"/><g clip-path="url(#18bdabafaa)"><path fill="#ffffff" d="M 23.359375 44.460938 C 23.316406 44.460938 23.269531 44.460938 23.222656 44.460938 C 22.648438 44.445312 22.023438 44.445312 21.339844 44.460938 C 20.976562 44.476562 20.761719 44.433594 20.65625 44.308594 C 20.59375 44.234375 20.566406 44.144531 20.582031 44.035156 C 20.609375 43.71875 20.59375 43.398438 20.582031 43.140625 C 20.550781 42.761719 20.167969 42.578125 19.425781 42.59375 C 18.375 42.609375 18.363281 43.003906 18.363281 43.140625 C 18.363281 43.398438 18.363281 43.671875 18.363281 43.945312 L 18.363281 44.460938 L 17.359375 44.460938 C 16.691406 44.460938 16.066406 44.460938 15.429688 44.460938 C 15.15625 44.460938 15.003906 44.433594 14.925781 44.339844 C 14.835938 44.25 14.851562 44.144531 14.851562 44.066406 L 14.851562 39.980469 C 14.851562 39.113281 14.851562 38.230469 14.851562 37.367188 C 14.851562 36.058594 16.097656 35.464844 18.863281 35.464844 L 19.363281 35.464844 C 19.804688 35.464844 20.246094 35.464844 20.6875 35.464844 C 22.675781 35.496094 24.074219 36.179688 24.074219 37.121094 C 24.074219 38.078125 24.074219 39.035156 24.074219 39.996094 C 24.074219 41.300781 24.074219 42.652344 24.089844 43.992188 C 24.089844 44.128906 24.058594 44.21875 23.984375 44.296875 C 23.863281 44.417969 23.679688 44.460938 23.359375 44.460938 Z M 22.3125 44.21875 C 22.632812 44.21875 22.9375 44.21875 23.238281 44.234375 C 23.558594 44.25 23.757812 44.21875 23.816406 44.144531 C 23.832031 44.128906 23.863281 44.097656 23.863281 44.007812 C 23.847656 42.667969 23.847656 41.316406 23.847656 40.007812 C 23.847656 39.050781 23.847656 38.09375 23.847656 37.136719 C 23.847656 36.332031 22.511719 35.738281 20.6875 35.707031 C 20.246094 35.707031 19.804688 35.707031 19.363281 35.707031 L 18.863281 35.707031 C 16.25 35.707031 15.078125 36.226562 15.078125 37.378906 C 15.078125 38.246094 15.078125 39.128906 15.078125 39.996094 L 15.078125 44.082031 C 15.078125 44.144531 15.078125 44.171875 15.09375 44.1875 C 15.109375 44.203125 15.183594 44.25 15.445312 44.25 C 16.082031 44.25 16.703125 44.25 17.375 44.25 L 18.148438 44.25 L 18.148438 43.960938 C 18.148438 43.671875 18.148438 43.414062 18.148438 43.15625 C 18.148438 42.652344 18.589844 42.394531 19.441406 42.378906 C 19.457031 42.378906 19.472656 42.378906 19.484375 42.378906 C 20.550781 42.378906 20.808594 42.789062 20.824219 43.15625 C 20.839844 43.414062 20.855469 43.746094 20.824219 44.082031 C 20.824219 44.144531 20.839844 44.171875 20.839844 44.1875 C 20.882812 44.234375 20.992188 44.28125 21.339844 44.265625 C 21.675781 44.21875 22.007812 44.21875 22.3125 44.21875 Z M 20.230469 42.089844 C 20.214844 42.089844 20.199219 42.089844 20.183594 42.089844 C 19.773438 42.089844 19.347656 42.089844 18.910156 42.089844 C 18.710938 42.089844 18.5 42.089844 18.285156 42.089844 L 18.179688 42.089844 L 18.164062 41.984375 C 18.164062 41.941406 18.148438 41.894531 18.148438 41.847656 C 18.132812 41.757812 18.117188 41.695312 18.117188 41.621094 C 18.117188 39.980469 18.117188 38.339844 18.117188 36.695312 C 18.117188 36.042969 18.816406 35.953125 19.425781 35.953125 C 20.320312 35.953125 20.777344 36.195312 20.792969 36.695312 C 20.808594 37.761719 20.808594 38.855469 20.808594 39.902344 C 20.808594 40.511719 20.808594 41.117188 20.808594 41.726562 C 20.808594 41.832031 20.777344 41.910156 20.71875 41.96875 C 20.640625 42.0625 20.472656 42.089844 20.230469 42.089844 Z M 19.457031 41.863281 C 19.699219 41.863281 19.941406 41.863281 20.183594 41.863281 C 20.445312 41.863281 20.535156 41.832031 20.550781 41.804688 C 20.566406 41.789062 20.566406 41.773438 20.566406 41.726562 C 20.566406 41.117188 20.566406 40.511719 20.566406 39.902344 C 20.566406 38.855469 20.566406 37.777344 20.550781 36.710938 C 20.550781 36.363281 20.167969 36.195312 19.441406 36.195312 C 19.441406 36.195312 19.425781 36.195312 19.425781 36.195312 C 18.484375 36.195312 18.347656 36.453125 18.347656 36.710938 C 18.347656 38.351562 18.347656 39.996094 18.347656 41.636719 C 18.347656 41.695312 18.363281 41.757812 18.363281 41.832031 C 18.363281 41.847656 18.363281 41.863281 18.363281 41.878906 C 18.542969 41.878906 18.710938 41.878906 18.878906 41.878906 C 19.089844 41.863281 19.273438 41.863281 19.457031 41.863281 Z M 19.457031 41.863281 " fill-opacity="1" fill-rule="nonzero"/></g><g clip-path="url(#99d9a84bb3)"><path fill="#ffffff" d="M 46.21875 44.460938 C 45.625 44.460938 45.03125 44.460938 44.4375 44.460938 C 42.355469 44.445312 40.960938 43.777344 40.960938 42.773438 C 40.960938 40.753906 40.960938 38.898438 40.960938 37.121094 C 40.960938 36.242188 42.144531 35.570312 43.847656 35.511719 C 45.246094 35.464844 46.6875 35.480469 48.070312 35.480469 C 48.695312 35.480469 49.316406 35.496094 49.941406 35.496094 L 50.0625 35.496094 L 50.0625 38.292969 L 46.71875 38.292969 L 46.71875 36.226562 C 46.550781 36.226562 46.398438 36.226562 46.246094 36.226562 C 45.851562 36.210938 45.472656 36.210938 45.121094 36.242188 C 44.667969 36.285156 44.394531 36.4375 44.394531 36.679688 C 44.394531 36.941406 44.394531 37.199219 44.394531 37.457031 C 44.394531 37.882812 44.394531 38.339844 44.378906 38.777344 C 44.378906 38.839844 44.394531 38.855469 44.410156 38.871094 C 44.5 38.960938 44.835938 38.960938 44.941406 38.960938 C 45.746094 38.960938 46.535156 38.960938 47.371094 38.960938 C 47.707031 38.960938 48.039062 38.960938 48.390625 38.960938 L 48.511719 38.960938 L 48.511719 40.222656 L 48.359375 40.175781 C 48.207031 40.132812 48.070312 40.085938 47.933594 40.039062 C 47.617188 39.933594 47.3125 39.84375 46.976562 39.765625 C 46.628906 39.691406 46.203125 39.628906 45.777344 39.597656 C 44.972656 39.554688 44.652344 39.691406 44.515625 39.8125 C 44.4375 39.886719 44.394531 39.980469 44.394531 40.085938 C 44.378906 40.890625 44.378906 41.695312 44.394531 42.488281 L 44.394531 43.09375 C 44.394531 43.382812 44.46875 43.519531 44.683594 43.609375 C 44.910156 43.71875 45.304688 43.746094 46.003906 43.746094 C 46.15625 43.746094 46.292969 43.746094 46.476562 43.734375 L 46.65625 43.734375 L 46.65625 40.769531 L 50.078125 40.769531 L 50.078125 44.476562 L 47.507812 44.476562 C 47.066406 44.460938 46.644531 44.460938 46.21875 44.460938 Z M 46.21875 35.707031 C 45.425781 35.707031 44.636719 35.722656 43.847656 35.738281 C 42.296875 35.785156 41.1875 36.378906 41.171875 37.121094 C 41.171875 38.898438 41.171875 40.753906 41.171875 42.773438 C 41.171875 43.625 42.507812 44.21875 44.425781 44.234375 C 45.441406 44.234375 46.460938 44.234375 47.476562 44.234375 L 49.820312 44.234375 L 49.820312 40.980469 L 46.855469 40.980469 L 46.855469 43.945312 L 46.460938 43.960938 C 46.277344 43.960938 46.140625 43.976562 45.988281 43.976562 C 45.246094 43.976562 44.835938 43.929688 44.574219 43.808594 C 44.289062 43.671875 44.164062 43.460938 44.164062 43.078125 L 44.164062 42.472656 C 44.164062 41.679688 44.164062 40.875 44.164062 40.070312 C 44.164062 39.886719 44.226562 39.75 44.363281 39.628906 C 44.605469 39.402344 45.078125 39.308594 45.792969 39.355469 C 46.230469 39.386719 46.671875 39.449219 47.039062 39.539062 C 47.371094 39.613281 47.675781 39.722656 48.011719 39.828125 C 48.101562 39.859375 48.191406 39.886719 48.285156 39.917969 L 48.285156 39.203125 C 47.980469 39.203125 47.675781 39.203125 47.386719 39.203125 C 46.550781 39.203125 45.761719 39.203125 44.957031 39.203125 C 44.621094 39.203125 44.378906 39.1875 44.257812 39.050781 C 44.195312 38.992188 44.164062 38.898438 44.164062 38.792969 C 44.179688 38.351562 44.179688 37.914062 44.179688 37.488281 C 44.179688 37.230469 44.179688 36.96875 44.179688 36.695312 C 44.179688 36.515625 44.273438 36.105469 45.109375 36.027344 C 45.472656 35.996094 45.851562 35.996094 46.246094 36.011719 C 46.429688 36.011719 46.628906 36.011719 46.824219 36.011719 L 46.945312 36.011719 L 46.945312 38.078125 L 49.835938 38.078125 L 49.835938 35.738281 C 49.242188 35.738281 48.664062 35.738281 48.070312 35.722656 C 47.433594 35.707031 46.824219 35.707031 46.21875 35.707031 Z M 46.21875 35.707031 " fill-opacity="1" fill-rule="nonzero"/></g><g clip-path="url(#0570cda42c)"><path fill="#ffffff" d="M 33.207031 44.476562 C 33.164062 44.476562 33.117188 44.476562 33.070312 44.476562 C 32.539062 44.460938 32.007812 44.460938 31.429688 44.460938 C 31.1875 44.460938 30.929688 44.460938 30.6875 44.460938 L 30.566406 44.460938 L 30.566406 35.480469 L 34.179688 35.480469 C 34.863281 35.480469 35.535156 35.480469 36.21875 35.480469 C 36.21875 35.480469 36.234375 35.480469 36.234375 35.480469 C 37.570312 35.480469 38.832031 35.875 39.378906 36.453125 C 39.589844 36.679688 39.683594 36.910156 39.667969 37.152344 C 39.578125 38.398438 39.578125 39.675781 39.667969 40.96875 C 39.683594 41.195312 39.589844 41.421875 39.394531 41.621094 C 38.847656 42.199219 37.632812 42.59375 36.339844 42.59375 C 36.324219 42.59375 36.308594 42.59375 36.292969 42.59375 C 35.761719 42.59375 35.230469 42.59375 34.667969 42.59375 L 33.953125 42.59375 C 33.953125 42.714844 33.953125 42.835938 33.953125 42.941406 C 33.953125 43.308594 33.9375 43.640625 33.96875 43.976562 C 33.984375 44.113281 33.953125 44.203125 33.878906 44.28125 C 33.769531 44.417969 33.574219 44.476562 33.207031 44.476562 Z M 32.144531 44.234375 C 32.464844 44.234375 32.769531 44.234375 33.070312 44.25 C 33.207031 44.25 33.605469 44.265625 33.695312 44.160156 C 33.710938 44.144531 33.726562 44.113281 33.726562 44.023438 C 33.695312 43.671875 33.695312 43.324219 33.710938 42.957031 C 33.710938 42.804688 33.710938 42.652344 33.710938 42.5 L 33.710938 42.378906 L 34.652344 42.378906 C 35.230469 42.378906 35.746094 42.378906 36.277344 42.378906 C 36.292969 42.378906 36.308594 42.378906 36.324219 42.378906 C 37.738281 42.378906 38.785156 41.925781 39.210938 41.484375 C 39.363281 41.316406 39.4375 41.148438 39.425781 40.996094 C 39.332031 39.691406 39.332031 38.398438 39.425781 37.136719 C 39.4375 36.953125 39.363281 36.773438 39.195312 36.605469 C 38.695312 36.074219 37.507812 35.707031 36.21875 35.707031 C 36.21875 35.707031 36.203125 35.707031 36.203125 35.707031 C 35.519531 35.707031 34.835938 35.707031 34.167969 35.707031 L 30.777344 35.707031 L 30.777344 44.234375 C 30.988281 44.234375 31.203125 44.234375 31.414062 44.234375 C 31.675781 44.234375 31.917969 44.234375 32.144531 44.234375 Z M 34.726562 42.105469 C 34.589844 42.105469 34.46875 42.105469 34.332031 42.105469 C 34.179688 42.105469 34.03125 42.105469 33.863281 42.105469 L 33.742188 42.105469 L 33.742188 35.996094 L 33.863281 35.996094 C 34.03125 35.996094 34.195312 35.996094 34.363281 35.996094 C 34.742188 35.996094 35.09375 35.980469 35.457031 36.011719 C 36.082031 36.058594 36.429688 36.285156 36.445312 36.621094 C 36.445312 38.261719 36.460938 39.859375 36.445312 41.46875 C 36.445312 41.695312 36.277344 42.0625 35.246094 42.105469 C 35.0625 42.105469 34.910156 42.105469 34.726562 42.105469 Z M 33.984375 41.878906 C 34.105469 41.878906 34.226562 41.878906 34.332031 41.878906 C 34.636719 41.878906 34.941406 41.878906 35.214844 41.878906 C 35.824219 41.863281 36.1875 41.710938 36.1875 41.46875 C 36.203125 39.859375 36.203125 38.261719 36.1875 36.621094 C 36.1875 36.421875 35.898438 36.269531 35.414062 36.242188 C 35.0625 36.210938 34.714844 36.226562 34.347656 36.226562 C 34.226562 36.226562 34.089844 36.226562 33.96875 36.226562 L 33.96875 41.878906 Z M 33.984375 41.878906 " fill-opacity="1" fill-rule="nonzero"/></g><g clip-path="url(#4ffb6ab5fc)"><path fill="#ffffff" d="M 11.582031 44.433594 L 8.117188 44.433594 L 8.117188 36.226562 C 6.871094 36.179688 6.097656 36.46875 5.429688 36.804688 L 5.261719 36.878906 L 5.261719 36.695312 C 5.261719 36.621094 5.261719 36.542969 5.261719 36.453125 C 5.261719 36.210938 5.261719 35.953125 5.277344 35.707031 C 5.292969 35.527344 5.703125 35.480469 5.75 35.480469 C 8.089844 35.480469 10.445312 35.480469 12.828125 35.480469 L 14.335938 35.480469 L 14.335938 36.816406 L 14.183594 36.773438 C 14.03125 36.726562 13.863281 36.667969 13.710938 36.621094 C 13.375 36.5 13.027344 36.378906 12.648438 36.300781 C 12.207031 36.210938 11.78125 36.148438 11.644531 36.257812 C 11.582031 36.300781 11.570312 36.394531 11.570312 36.574219 Z M 8.347656 44.203125 L 11.339844 44.203125 L 11.339844 36.558594 C 11.339844 36.378906 11.355469 36.179688 11.507812 36.074219 C 11.707031 35.90625 12.085938 35.953125 12.707031 36.074219 C 13.101562 36.148438 13.46875 36.269531 13.800781 36.394531 C 13.910156 36.421875 14.015625 36.46875 14.121094 36.5 L 14.121094 35.707031 L 12.84375 35.707031 C 10.460938 35.707031 8.105469 35.707031 5.761719 35.707031 C 5.6875 35.707031 5.566406 35.753906 5.503906 35.769531 C 5.488281 35.996094 5.488281 36.226562 5.488281 36.453125 C 5.488281 36.46875 5.488281 36.484375 5.488281 36.515625 C 6.160156 36.195312 6.980469 35.921875 8.226562 35.996094 L 8.332031 35.996094 L 8.332031 44.203125 Z M 8.347656 44.203125 " fill-opacity="1" fill-rule="nonzero"/></g><g clip-path="url(#af55d14c87)"><path fill="#ffffff" d="M 53.464844 44.460938 C 53.011719 44.460938 52.554688 44.460938 52.097656 44.445312 C 51.914062 44.445312 51.640625 44.296875 51.597656 44.144531 C 51.550781 43.992188 51.550781 43.824219 51.566406 43.6875 C 51.566406 43.625 51.566406 43.582031 51.566406 43.519531 C 51.566406 42.925781 51.566406 42.351562 51.566406 41.757812 C 51.566406 39.859375 51.566406 37.882812 51.550781 35.953125 C 51.550781 35.816406 51.582031 35.695312 51.671875 35.617188 C 51.792969 35.496094 52.039062 35.449219 52.476562 35.464844 C 53.011719 35.480469 53.542969 35.480469 54.105469 35.480469 C 54.347656 35.480469 54.589844 35.480469 54.847656 35.480469 L 54.96875 35.480469 L 54.96875 44.460938 L 54.863281 44.460938 C 54.621094 44.460938 54.394531 44.460938 54.148438 44.460938 C 53.921875 44.460938 53.695312 44.460938 53.464844 44.460938 Z M 52.355469 35.695312 C 52.082031 35.695312 51.914062 35.722656 51.855469 35.785156 C 51.839844 35.800781 51.808594 35.84375 51.808594 35.953125 C 51.824219 37.882812 51.824219 39.859375 51.824219 41.757812 C 51.824219 42.351562 51.824219 42.925781 51.824219 43.519531 C 51.824219 43.582031 51.824219 43.640625 51.824219 43.703125 C 51.824219 43.839844 51.808594 43.960938 51.839844 44.082031 C 51.855469 44.113281 52.023438 44.21875 52.128906 44.21875 C 52.796875 44.234375 53.464844 44.234375 54.179688 44.234375 C 54.378906 44.234375 54.574219 44.234375 54.773438 44.234375 L 54.773438 35.707031 C 54.558594 35.707031 54.347656 35.707031 54.148438 35.707031 C 53.585938 35.707031 53.054688 35.707031 52.507812 35.695312 C 52.433594 35.695312 52.386719 35.695312 52.355469 35.695312 Z M 52.355469 35.695312 " fill-opacity="1" fill-rule="nonzero"/></g><g clip-path="url(#70f474faff)"><path fill="#ffffff" d="M 27.523438 44.539062 C 27.070312 44.539062 26.613281 44.539062 26.15625 44.523438 C 25.976562 44.523438 25.703125 44.371094 25.65625 44.21875 C 25.609375 44.066406 25.609375 43.898438 25.625 43.761719 C 25.625 43.703125 25.625 43.65625 25.625 43.597656 L 25.625 41.847656 C 25.625 39.933594 25.625 37.972656 25.609375 36.027344 C 25.609375 35.890625 25.640625 35.769531 25.730469 35.695312 C 25.851562 35.570312 26.097656 35.527344 26.539062 35.542969 C 27.070312 35.558594 27.601562 35.558594 28.164062 35.558594 C 28.40625 35.558594 28.648438 35.558594 28.90625 35.558594 L 29.03125 35.558594 L 29.03125 44.539062 L 28.90625 44.539062 C 28.664062 44.539062 28.4375 44.539062 28.195312 44.539062 C 27.980469 44.539062 27.753906 44.539062 27.523438 44.539062 Z M 26.402344 35.769531 C 26.128906 35.769531 25.960938 35.800781 25.898438 35.859375 C 25.882812 35.875 25.851562 35.921875 25.851562 36.027344 C 25.867188 37.972656 25.867188 39.949219 25.867188 41.847656 L 25.867188 43.597656 C 25.867188 43.65625 25.867188 43.71875 25.867188 43.777344 C 25.867188 43.914062 25.851562 44.035156 25.882812 44.160156 C 25.898438 44.1875 26.066406 44.296875 26.171875 44.296875 C 26.839844 44.308594 27.511719 44.308594 28.222656 44.308594 C 28.421875 44.308594 28.621094 44.308594 28.816406 44.308594 L 28.816406 35.785156 C 28.605469 35.785156 28.390625 35.785156 28.195312 35.785156 C 27.632812 35.785156 27.097656 35.785156 26.550781 35.769531 C 26.492188 35.769531 26.445312 35.769531 26.402344 35.769531 Z M 26.402344 35.769531 " fill-opacity="1" fill-rule="nonzero"/></g><g clip-path="url(#1857dcc6b6)"><path fill="#ffffff" d="M 12.8125 1.058594 C 12.941406 1.5625 13.046875 2.078125 13.210938 2.578125 C 13.535156 3.554688 13.839844 4.542969 14.25 5.484375 C 14.675781 6.457031 15.433594 7.148438 16.367188 7.675781 C 19.75 9.59375 23.121094 11.53125 26.496094 13.464844 C 26.59375 13.519531 26.6875 13.582031 26.773438 13.667969 C 22.742188 11.832031 18.816406 9.792969 14.972656 7.425781 C 15.027344 7.570312 15.042969 7.644531 15.078125 7.707031 C 15.695312 8.816406 16.320312 9.917969 16.925781 11.03125 C 17.484375 12.054688 18.375 12.488281 19.484375 12.65625 C 21.347656 12.941406 23.199219 13.277344 25.058594 13.59375 C 25.640625 13.691406 26.222656 13.792969 26.804688 13.917969 C 23.894531 13.796875 21.015625 13.429688 18.117188 13.003906 C 18.28125 13.140625 18.449219 13.277344 18.613281 13.417969 C 19.304688 14.007812 20.011719 14.574219 20.675781 15.191406 C 21.207031 15.683594 21.753906 15.773438 22.429688 15.542969 C 23.839844 15.0625 25.265625 14.632812 26.683594 14.179688 C 26.730469 14.164062 26.78125 14.15625 26.835938 14.171875 C 26.304688 14.417969 25.769531 14.652344 25.25 14.914062 C 24.507812 15.285156 23.847656 15.773438 23.289062 16.386719 C 22.710938 17.015625 22.625 17.707031 23.109375 18.398438 C 23.761719 19.328125 24.472656 20.21875 25.199219 21.121094 C 24.558594 18.417969 25.171875 16.089844 27.222656 14.179688 C 27.167969 14.28125 27.113281 14.386719 27.058594 14.488281 C 26.410156 15.679688 25.847656 16.90625 25.65625 18.265625 C 25.519531 19.234375 25.664062 20.121094 26.414062 20.824219 C 27.214844 21.574219 28.027344 22.3125 28.832031 23.054688 C 29.132812 23.335938 29.433594 23.617188 29.757812 23.890625 C 28.058594 20.875 27.328125 17.625 27.414062 14.167969 C 27.835938 15.546875 28.257812 16.925781 28.675781 18.304688 C 29.097656 19.683594 29.511719 21.0625 30.007812 22.441406 C 30.84375 19.683594 31.683594 16.925781 32.519531 14.167969 C 32.609375 17.617188 31.882812 20.859375 30.203125 23.894531 C 30.257812 23.847656 30.3125 23.800781 30.363281 23.753906 C 30.417969 23.703125 30.46875 23.648438 30.523438 23.597656 C 31.359375 22.835938 32.171875 22.046875 33.039062 21.328125 C 34.28125 20.300781 34.554688 19.039062 34.148438 17.539062 C 33.855469 16.460938 33.410156 15.457031 32.875 14.484375 C 32.832031 14.398438 32.78125 14.316406 32.738281 14.230469 C 32.730469 14.214844 32.738281 14.191406 32.742188 14.132812 C 33.710938 15.039062 34.386719 16.089844 34.734375 17.351562 C 35.078125 18.601562 35.035156 19.851562 34.75 21.125 C 35.203125 20.554688 35.65625 19.980469 36.101562 19.40625 C 36.324219 19.117188 36.539062 18.824219 36.746094 18.53125 C 37.308594 17.734375 37.253906 17.019531 36.578125 16.3125 C 35.78125 15.464844 34.789062 14.910156 33.734375 14.460938 C 33.519531 14.367188 33.308594 14.277344 33.113281 14.132812 C 33.945312 14.378906 34.78125 14.613281 35.609375 14.875 C 36.214844 15.0625 36.828125 15.257812 37.414062 15.503906 C 38.140625 15.804688 38.730469 15.691406 39.308594 15.148438 C 40.03125 14.472656 40.8125 13.855469 41.566406 13.214844 C 41.648438 13.148438 41.726562 13.078125 41.796875 12.976562 C 38.921875 13.425781 36.042969 13.800781 33.132812 13.902344 C 34.226562 13.703125 35.320312 13.496094 36.421875 13.308594 C 37.878906 13.0625 39.339844 12.835938 40.800781 12.59375 C 41.683594 12.445312 42.414062 12.035156 42.871094 11.246094 C 43.566406 10.046875 44.226562 8.832031 44.902344 7.621094 C 44.921875 7.589844 44.925781 7.546875 44.96875 7.425781 C 41.121094 9.789062 37.195312 11.832031 33.144531 13.632812 C 34.199219 13.015625 35.25 12.382812 36.3125 11.777344 C 38.671875 10.433594 41.027344 9.074219 43.410156 7.773438 C 44.617188 7.109375 45.5 6.179688 45.960938 4.90625 C 46.417969 3.648438 46.78125 2.359375 47.183594 1.085938 C 47.152344 1.070312 47.117188 1.054688 47.085938 1.042969 C 47.046875 1.078125 47 1.109375 46.96875 1.152344 C 45.15625 3.796875 42.769531 5.808594 40.019531 7.417969 C 38.210938 8.476562 36.410156 9.558594 34.597656 10.613281 C 33.707031 11.132812 33.285156 11.984375 32.917969 12.878906 C 32.785156 13.210938 32.683594 13.5625 32.554688 13.941406 C 32.074219 13.308594 31.828125 12.632812 31.867188 11.855469 C 31.882812 11.558594 31.917969 11.242188 31.839844 10.964844 C 31.585938 10.058594 30.871094 9.660156 30.019531 9.464844 C 29.535156 9.351562 29.074219 9.398438 28.671875 9.753906 C 28.578125 9.839844 28.394531 9.832031 28.25 9.847656 C 27.628906 9.914062 27.351562 10.210938 27.429688 10.730469 C 28.351562 10.484375 28.992188 11.003906 28.957031 11.976562 C 28.921875 12.960938 28.238281 13.820312 27.382812 13.945312 C 27.257812 13.582031 27.144531 13.207031 27.007812 12.84375 C 26.597656 11.777344 25.96875 10.925781 24.933594 10.347656 C 23.0625 9.304688 21.230469 8.195312 19.394531 7.09375 C 16.847656 5.566406 14.679688 3.625 12.980469 1.175781 C 12.949219 1.125 12.90625 1.078125 12.8125 1.058594 Z M 29.171875 10.238281 L 29.179688 9.992188 L 29.847656 10.15625 L 29.839844 10.226562 Z M 29.171875 10.238281 " fill-opacity="1" fill-rule="nonzero"/></g><path fill="#ffffff" d="M 24.40625 28.761719 C 25.089844 28.761719 25.703125 28.792969 26.3125 28.75 C 26.808594 28.714844 27.21875 28.449219 27.546875 28.074219 C 28.359375 27.136719 28.835938 26.027344 29.113281 24.832031 C 29.257812 24.199219 28.839844 23.316406 28.15625 22.738281 C 28.273438 23.015625 28.363281 23.230469 28.453125 23.449219 C 28.730469 24.101562 28.683594 24.710938 28.300781 25.332031 C 27.4375 26.71875 26.226562 27.714844 24.832031 28.519531 C 24.710938 28.589844 24.585938 28.660156 24.40625 28.761719 Z M 24.40625 28.761719 " fill-opacity="1" fill-rule="nonzero"/><path fill="#ffffff" d="M 35.46875 28.738281 C 35.136719 28.535156 34.796875 28.34375 34.46875 28.132812 C 33.339844 27.398438 32.375 26.503906 31.648438 25.351562 C 31.246094 24.714844 31.203125 24.085938 31.496094 23.414062 C 31.582031 23.210938 31.667969 23.011719 31.765625 22.785156 C 31.101562 23.214844 30.675781 24.238281 30.855469 24.960938 C 31.101562 25.972656 31.515625 26.910156 32.128906 27.761719 C 32.632812 28.460938 33.292969 28.824219 34.167969 28.792969 C 34.597656 28.777344 35.03125 28.792969 35.460938 28.792969 C 35.460938 28.773438 35.464844 28.753906 35.46875 28.738281 Z M 35.46875 28.738281 " fill-opacity="1" fill-rule="nonzero"/><g clip-path="url(#406d0cb614)"><path fill="#ffffff" d="M 29.984375 31.519531 C 30.519531 30.746094 30.746094 29.933594 30.550781 29.023438 C 30.375 28.183594 30.195312 27.34375 30.015625 26.507812 C 29.988281 26.503906 29.964844 26.5 29.9375 26.496094 C 29.898438 26.660156 29.859375 26.824219 29.824219 26.988281 C 29.671875 27.695312 29.511719 28.398438 29.367188 29.105469 C 29.199219 29.925781 29.445312 30.882812 29.984375 31.519531 Z M 29.984375 31.519531 " fill-opacity="1" fill-rule="nonzero"/></g><path fill="#ffffff" d="M 29.523438 25.160156 C 29.160156 25.972656 28.800781 26.867188 28.367188 27.726562 C 27.925781 28.59375 27.296875 29.332031 26.566406 30.007812 C 27.453125 30.179688 28.414062 29.675781 28.820312 28.816406 C 29.378906 27.625 29.585938 26.367188 29.523438 25.160156 Z M 29.523438 25.160156 " fill-opacity="1" fill-rule="nonzero"/><path fill="#ffffff" d="M 30.441406 25.058594 C 30.347656 26.34375 30.558594 27.574219 31.078125 28.738281 C 31.480469 29.644531 32.328125 30.121094 33.390625 30.03125 C 31.898438 28.644531 30.992188 26.957031 30.441406 25.058594 Z M 30.441406 25.058594 " fill-opacity="1" fill-rule="nonzero"/><path fill="#ffffff" d="M 37.4375 24.453125 C 37.105469 24.25 36.765625 24.058594 36.441406 23.847656 C 35.308594 23.113281 34.34375 22.21875 33.617188 21.066406 C 33.214844 20.429688 33.175781 19.800781 33.464844 19.128906 C 33.550781 18.925781 33.636719 18.722656 33.734375 18.5 C 33.074219 18.929688 32.644531 19.953125 32.824219 20.675781 C 33.070312 21.6875 33.484375 22.625 34.097656 23.476562 C 34.605469 24.175781 35.261719 24.539062 36.136719 24.507812 C 36.566406 24.492188 37 24.507812 37.429688 24.507812 C 37.433594 24.488281 37.433594 24.46875 37.4375 24.453125 Z M 37.4375 24.453125 " fill-opacity="1" fill-rule="nonzero"/><path fill="#ffffff" d="M 32.410156 20.773438 C 32.316406 22.058594 32.527344 23.289062 33.046875 24.453125 C 33.449219 25.359375 34.296875 25.835938 35.359375 25.746094 C 33.867188 24.359375 32.960938 22.671875 32.410156 20.773438 Z M 32.410156 20.773438 " fill-opacity="1" fill-rule="nonzero"/><path fill="#ffffff" d="M 22.777344 24.453125 C 23.109375 24.25 23.449219 24.058594 23.773438 23.847656 C 24.902344 23.113281 25.867188 22.21875 26.59375 21.066406 C 26.996094 20.429688 27.039062 19.800781 26.75 19.128906 C 26.664062 18.925781 26.574219 18.722656 26.480469 18.5 C 27.140625 18.929688 27.566406 19.953125 27.390625 20.675781 C 27.144531 21.6875 26.726562 22.625 26.113281 23.476562 C 25.609375 24.175781 24.949219 24.539062 24.074219 24.507812 C 23.644531 24.492188 23.214844 24.507812 22.785156 24.507812 C 22.78125 24.488281 22.777344 24.46875 22.777344 24.453125 Z M 22.777344 24.453125 " fill-opacity="1" fill-rule="nonzero"/><path fill="#ffffff" d="M 27.800781 20.773438 C 27.898438 22.058594 27.683594 23.289062 27.167969 24.453125 C 26.765625 25.359375 25.914062 25.835938 24.855469 25.746094 C 26.34375 24.359375 27.253906 22.671875 27.800781 20.773438 Z M 27.800781 20.773438 " fill-opacity="1" fill-rule="nonzero"/><path fill="#ffffff" d="M 29.179688 10.226562 C 29.402344 10.226562 29.621094 10.226562 29.84375 10.226562 C 29.84375 10.203125 29.847656 10.179688 29.847656 10.15625 C 29.628906 10.136719 29.40625 10.121094 29.1875 10.101562 C 29.183594 10.144531 29.183594 10.1875 29.179688 10.226562 Z M 29.179688 10.226562 " fill-opacity="1" fill-rule="nonzero"/><g clip-path="url(#e19d10a83d)"><path fill="#ffffff" d="M 1.359375 32.289062 C 1.371094 32.382812 1.316406 32.425781 1.273438 32.238281 C 1.246094 32.132812 1.183594 31.988281 1.078125 31.863281 C 1.027344 31.800781 0.976562 31.75 0.929688 31.707031 C 0.878906 31.667969 0.832031 31.632812 0.789062 31.609375 C 0.84375 31.625 0.902344 31.65625 0.964844 31.699219 C 1.027344 31.746094 1.089844 31.808594 1.152344 31.886719 C 1.210938 31.953125 1.257812 32.027344 1.292969 32.101562 C 1.328125 32.167969 1.351562 32.234375 1.359375 32.289062 Z M 2.207031 32.847656 C 2.171875 32.921875 2.097656 32.921875 2.160156 32.761719 C 2.199219 32.667969 2.214844 32.527344 2.195312 32.378906 C 2.171875 32.234375 2.128906 32.128906 2.074219 32.046875 C 2.152344 32.125 2.21875 32.25 2.246094 32.433594 C 2.277344 32.597656 2.25 32.757812 2.207031 32.847656 Z M 2 31.925781 C 2.113281 32 2.226562 32.117188 2.304688 32.25 C 2.34375 32.316406 2.378906 32.386719 2.398438 32.460938 C 2.417969 32.535156 2.425781 32.613281 2.417969 32.6875 C 2.382812 32.957031 2.207031 33.0625 2.054688 33.003906 C 1.90625 32.949219 1.785156 32.734375 1.910156 32.417969 C 1.957031 32.296875 2.078125 32.171875 2 31.925781 Z M 3.351562 34.015625 C 3.3125 34.113281 3.222656 34.121094 3.285156 33.914062 C 3.304688 33.851562 3.316406 33.773438 3.316406 33.691406 C 3.320312 33.605469 3.308594 33.515625 3.289062 33.421875 C 3.265625 33.332031 3.238281 33.253906 3.207031 33.1875 C 3.175781 33.121094 3.136719 33.066406 3.097656 33.019531 C 3.207031 33.105469 3.304688 33.261719 3.363281 33.488281 C 3.414062 33.695312 3.402344 33.890625 3.351562 34.015625 Z M 2.992188 32.871094 C 3.070312 32.910156 3.144531 32.964844 3.214844 33.03125 C 3.289062 33.09375 3.355469 33.167969 3.414062 33.246094 C 3.53125 33.40625 3.613281 33.59375 3.605469 33.789062 C 3.59375 34.132812 3.378906 34.285156 3.175781 34.230469 C 2.976562 34.175781 2.800781 33.917969 2.925781 33.503906 C 2.976562 33.34375 3.113281 33.175781 2.992188 32.871094 Z M 4.757812 35.03125 C 4.726562 35.15625 4.613281 35.179688 4.660156 34.917969 C 4.6875 34.765625 4.675781 34.542969 4.597656 34.328125 C 4.558594 34.222656 4.515625 34.132812 4.46875 34.058594 C 4.425781 33.980469 4.375 33.917969 4.320312 33.871094 C 4.390625 33.914062 4.460938 33.980469 4.523438 34.066406 C 4.589844 34.152344 4.644531 34.265625 4.695312 34.394531 C 4.78125 34.636719 4.796875 34.878906 4.757812 35.03125 Z M 4.179688 33.703125 C 4.273438 33.742188 4.371094 33.800781 4.464844 33.863281 C 4.558594 33.933594 4.648438 34.007812 4.730469 34.097656 C 4.808594 34.1875 4.878906 34.28125 4.929688 34.386719 C 4.984375 34.488281 5.019531 34.601562 5.027344 34.722656 C 5.042969 34.929688 4.996094 35.085938 4.910156 35.191406 C 4.824219 35.292969 4.699219 35.339844 4.574219 35.320312 C 4.320312 35.285156 4.070312 34.988281 4.171875 34.480469 C 4.191406 34.378906 4.238281 34.269531 4.257812 34.144531 C 4.277344 34.019531 4.265625 33.878906 4.179688 33.703125 Z M 6.421875 35.804688 C 6.414062 35.957031 6.285156 36.007812 6.289062 35.695312 C 6.289062 35.605469 6.273438 35.496094 6.246094 35.378906 C 6.214844 35.261719 6.167969 35.144531 6.105469 35.023438 C 5.988281 34.796875 5.855469 34.640625 5.722656 34.542969 C 5.808594 34.585938 5.894531 34.644531 5.980469 34.734375 C 6.023438 34.78125 6.066406 34.828125 6.109375 34.886719 C 6.148438 34.945312 6.1875 35.011719 6.230469 35.082031 C 6.371094 35.34375 6.4375 35.617188 6.421875 35.804688 Z M 5.53125 34.378906 C 5.761719 34.4375 6.007812 34.5625 6.21875 34.730469 C 6.269531 34.773438 6.320312 34.816406 6.367188 34.867188 C 6.414062 34.914062 6.453125 34.964844 6.492188 35.019531 C 6.574219 35.125 6.632812 35.253906 6.667969 35.386719 C 6.730469 35.621094 6.714844 35.816406 6.636719 35.953125 C 6.5625 36.089844 6.425781 36.175781 6.269531 36.179688 C 5.964844 36.195312 5.605469 35.894531 5.640625 35.28125 C 5.65625 35.035156 5.785156 34.75 5.53125 34.378906 Z M 8.339844 36.128906 C 8.359375 36.214844 8.339844 36.28125 8.300781 36.285156 C 8.261719 36.289062 8.203125 36.226562 8.15625 36.054688 C 8.128906 35.949219 8.082031 35.832031 8.015625 35.714844 C 7.980469 35.65625 7.945312 35.597656 7.902344 35.539062 C 7.863281 35.476562 7.816406 35.417969 7.769531 35.359375 C 7.722656 35.308594 7.679688 35.257812 7.632812 35.210938 C 7.589844 35.167969 7.546875 35.128906 7.503906 35.09375 C 7.417969 35.019531 7.335938 34.972656 7.257812 34.933594 C 7.457031 34.972656 7.671875 35.121094 7.914062 35.390625 C 7.96875 35.453125 8.019531 35.511719 8.066406 35.578125 C 8.113281 35.644531 8.15625 35.710938 8.191406 35.773438 C 8.265625 35.898438 8.316406 36.023438 8.339844 36.128906 Z M 7.023438 34.792969 C 7.28125 34.804688 7.558594 34.875 7.8125 35 C 7.875 35.03125 7.9375 35.070312 7.996094 35.109375 C 8.058594 35.144531 8.113281 35.1875 8.171875 35.238281 C 8.226562 35.285156 8.277344 35.335938 8.328125 35.394531 C 8.378906 35.449219 8.417969 35.515625 8.46875 35.582031 C 8.632812 35.824219 8.667969 36.046875 8.628906 36.222656 C 8.605469 36.3125 8.566406 36.390625 8.511719 36.453125 C 8.480469 36.484375 8.449219 36.515625 8.414062 36.539062 C 8.378906 36.5625 8.339844 36.578125 8.296875 36.59375 C 8.210938 36.621094 8.113281 36.632812 8.015625 36.617188 C 7.917969 36.601562 7.820312 36.566406 7.726562 36.496094 C 7.542969 36.367188 7.390625 36.128906 7.332031 35.78125 C 7.3125 35.640625 7.324219 35.480469 7.292969 35.316406 C 7.261719 35.148438 7.191406 34.972656 7.023438 34.792969 Z M 10.484375 36.085938 C 10.527344 36.277344 10.394531 36.394531 10.269531 36 C 10.199219 35.769531 10.007812 35.480469 9.714844 35.253906 C 9.4375 35.03125 9.164062 34.917969 8.925781 34.875 C 9.203125 34.871094 9.554688 34.984375 9.910156 35.265625 C 10.234375 35.523438 10.433594 35.847656 10.484375 36.085938 Z M 12.8125 36.027344 C 12.859375 36.246094 12.707031 36.371094 12.574219 35.929688 C 12.496094 35.671875 12.289062 35.347656 11.964844 35.085938 C 11.65625 34.835938 11.355469 34.699219 11.089844 34.652344 C 11.402344 34.652344 11.789062 34.785156 12.1875 35.105469 C 12.542969 35.394531 12.761719 35.761719 12.8125 36.027344 Z M 15.359375 35.960938 C 15.402344 36.203125 15.234375 36.339844 15.09375 35.851562 C 15.011719 35.5625 14.785156 35.199219 14.433594 34.90625 C 14.097656 34.625 13.761719 34.472656 13.46875 34.417969 C 13.8125 34.421875 14.242188 34.570312 14.675781 34.929688 C 15.066406 35.257812 15.300781 35.664062 15.359375 35.960938 Z M 18.164062 35.882812 C 18.210938 36.148438 18.023438 36.292969 17.875 35.757812 C 17.789062 35.441406 17.546875 35.042969 17.164062 34.714844 C 16.796875 34.40625 16.433594 34.234375 16.109375 34.167969 C 16.488281 34.175781 16.957031 34.34375 17.429688 34.746094 C 17.855469 35.105469 18.105469 35.554688 18.164062 35.882812 Z M 21.292969 35.785156 C 21.34375 36.074219 21.136719 36.234375 20.984375 35.644531 C 20.890625 35.300781 20.632812 34.863281 20.214844 34.507812 C 19.820312 34.164062 19.425781 33.976562 19.074219 33.90625 C 19.488281 33.914062 19.996094 34.101562 20.507812 34.542969 C 20.964844 34.9375 21.234375 35.429688 21.292969 35.785156 Z M 18.554688 33.757812 C 19.570312 33.597656 21.019531 33.925781 21.574219 34.875 C 22.554688 36.550781 20.25 37.554688 19.496094 35.285156 C 19.347656 34.839844 19.394531 34.222656 18.554688 33.757812 Z M 24.898438 35.710938 C 24.910156 35.867188 24.851562 35.984375 24.777344 35.976562 C 24.703125 35.972656 24.613281 35.851562 24.542969 35.527344 C 24.5 35.339844 24.40625 35.121094 24.25 34.90625 C 24.074219 34.6875 23.90625 34.472656 23.679688 34.277344 C 23.253906 33.90625 22.828125 33.699219 22.453125 33.617188 C 22.898438 33.632812 23.445312 33.839844 23.992188 34.316406 C 24.023438 34.34375 24.054688 34.371094 24.085938 34.398438 C 24.121094 34.425781 24.15625 34.457031 24.1875 34.484375 C 24.257812 34.542969 24.320312 34.601562 24.375 34.660156 C 24.492188 34.78125 24.585938 34.90625 24.660156 35.03125 C 24.8125 35.273438 24.886719 35.515625 24.898438 35.710938 Z M 21.890625 33.453125 C 22.4375 33.371094 23.105469 33.421875 23.707031 33.621094 C 23.785156 33.644531 23.859375 33.671875 23.933594 33.703125 C 24.007812 33.734375 24.066406 33.765625 24.167969 33.800781 C 24.355469 33.871094 24.527344 33.957031 24.683594 34.054688 C 25 34.25 25.246094 34.5 25.390625 34.785156 C 25.515625 35.035156 25.5625 35.265625 25.558594 35.464844 C 25.554688 35.667969 25.5 35.839844 25.417969 35.988281 C 25.25 36.277344 24.984375 36.464844 24.691406 36.53125 C 24.617188 36.546875 24.542969 36.558594 24.464844 36.558594 C 24.386719 36.5625 24.308594 36.554688 24.226562 36.539062 C 24.070312 36.511719 23.894531 36.449219 23.730469 36.339844 C 23.398438 36.121094 23.09375 35.726562 22.894531 35.113281 C 22.738281 34.628906 22.792969 33.964844 21.890625 33.453125 Z M 1.601562 33.308594 C 1.671875 33.292969 1.683594 33.234375 1.535156 33.25 C 1.445312 33.257812 1.3125 33.238281 1.183594 33.167969 C 1.058594 33.097656 0.96875 33.015625 0.914062 32.933594 C 0.9375 32.984375 0.976562 33.039062 1.027344 33.089844 C 1.078125 33.140625 1.140625 33.191406 1.222656 33.234375 C 1.367188 33.3125 1.511719 33.332031 1.601562 33.308594 Z M 0.824219 32.8125 C 0.890625 33.082031 1.140625 33.417969 1.429688 33.460938 C 1.679688 33.5 1.789062 33.351562 1.765625 33.210938 C 1.753906 33.140625 1.710938 33.066406 1.628906 33.015625 C 1.550781 32.960938 1.4375 32.925781 1.285156 32.925781 C 1.164062 32.929688 1.023438 32.992188 0.824219 32.8125 Z M 2.816406 34.597656 C 2.894531 34.558594 2.894531 34.480469 2.71875 34.546875 C 2.613281 34.585938 2.449219 34.597656 2.277344 34.546875 C 2.109375 34.503906 1.980469 34.425781 1.894531 34.34375 C 1.9375 34.398438 1.996094 34.453125 2.070312 34.5 C 2.144531 34.550781 2.238281 34.589844 2.34375 34.617188 C 2.539062 34.671875 2.714844 34.648438 2.816406 34.597656 Z M 1.753906 34.222656 C 1.792969 34.300781 1.84375 34.378906 1.910156 34.453125 C 1.972656 34.527344 2.046875 34.597656 2.128906 34.65625 C 2.289062 34.777344 2.476562 34.851562 2.652344 34.835938 C 2.941406 34.808594 3.027344 34.601562 2.964844 34.4375 C 2.933594 34.351562 2.863281 34.277344 2.757812 34.234375 C 2.652344 34.191406 2.507812 34.183594 2.328125 34.226562 C 2.257812 34.246094 2.1875 34.285156 2.09375 34.296875 C 2.003906 34.3125 1.894531 34.304688 1.753906 34.222656 Z M 4.308594 35.742188 C 4.390625 35.671875 4.367188 35.578125 4.179688 35.703125 C 4.070312 35.777344 3.886719 35.828125 3.667969 35.8125 C 3.5625 35.808594 3.46875 35.789062 3.386719 35.761719 C 3.300781 35.738281 3.226562 35.703125 3.167969 35.660156 C 3.230469 35.71875 3.3125 35.769531 3.414062 35.808594 C 3.464844 35.828125 3.515625 35.84375 3.574219 35.855469 C 3.632812 35.867188 3.699219 35.875 3.765625 35.878906 C 4.003906 35.894531 4.207031 35.824219 4.308594 35.742188 Z M 2.972656 35.554688 C 3.035156 35.632812 3.117188 35.714844 3.210938 35.789062 C 3.304688 35.863281 3.410156 35.929688 3.519531 35.980469 C 3.632812 36.03125 3.746094 36.070312 3.859375 36.085938 C 3.972656 36.097656 4.082031 36.09375 4.183594 36.0625 C 4.339844 36.015625 4.433594 35.921875 4.46875 35.820312 C 4.503906 35.71875 4.484375 35.609375 4.429688 35.515625 C 4.398438 35.472656 4.359375 35.429688 4.3125 35.398438 C 4.261719 35.367188 4.207031 35.34375 4.140625 35.328125 C 4.007812 35.304688 3.84375 35.324219 3.644531 35.421875 C 3.570312 35.460938 3.492188 35.519531 3.390625 35.558594 C 3.289062 35.597656 3.160156 35.613281 2.972656 35.554688 Z M 6.128906 36.648438 C 6.203125 36.550781 6.148438 36.449219 5.972656 36.640625 C 5.917969 36.695312 5.84375 36.753906 5.75 36.800781 C 5.65625 36.847656 5.542969 36.886719 5.414062 36.90625 C 5.167969 36.9375 4.953125 36.910156 4.789062 36.847656 C 4.878906 36.898438 4.988281 36.9375 5.117188 36.957031 C 5.179688 36.96875 5.246094 36.976562 5.320312 36.976562 C 5.390625 36.976562 5.46875 36.96875 5.546875 36.957031 C 5.617188 36.945312 5.683594 36.925781 5.742188 36.90625 C 5.804688 36.886719 5.859375 36.859375 5.910156 36.832031 C 6.011719 36.777344 6.085938 36.710938 6.128906 36.648438 Z M 4.53125 36.765625 C 4.628906 36.847656 4.75 36.921875 4.875 36.984375 C 5.007812 37.050781 5.148438 37.097656 5.292969 37.132812 C 5.4375 37.160156 5.582031 37.175781 5.71875 37.164062 C 5.855469 37.148438 5.980469 37.117188 6.085938 37.050781 C 6.253906 36.953125 6.320312 36.824219 6.328125 36.699219 C 6.335938 36.574219 6.28125 36.457031 6.1875 36.367188 C 6.003906 36.195312 5.671875 36.144531 5.277344 36.457031 C 5.195312 36.519531 5.125 36.609375 5.019531 36.679688 C 4.964844 36.710938 4.902344 36.742188 4.824219 36.757812 C 4.742188 36.773438 4.648438 36.78125 4.53125 36.765625 Z M 8.34375 37.089844 C 8.378906 36.953125 8.28125 36.867188 8.160156 37.140625 C 8.140625 37.179688 8.117188 37.222656 8.085938 37.265625 C 8.054688 37.308594 8.015625 37.351562 7.972656 37.394531 C 7.925781 37.4375 7.875 37.476562 7.816406 37.519531 C 7.757812 37.558594 7.695312 37.59375 7.625 37.625 C 7.355469 37.746094 7.09375 37.78125 6.875 37.757812 C 6.996094 37.792969 7.144531 37.796875 7.300781 37.78125 C 7.378906 37.773438 7.460938 37.757812 7.542969 37.734375 C 7.628906 37.710938 7.710938 37.679688 7.800781 37.636719 C 8.109375 37.488281 8.292969 37.253906 8.34375 37.089844 Z M 6.546875 37.738281 C 6.832031 37.863281 7.207031 37.945312 7.574219 37.914062 C 7.664062 37.910156 7.753906 37.894531 7.839844 37.875 C 7.925781 37.855469 8.007812 37.832031 8.085938 37.800781 C 8.164062 37.769531 8.234375 37.730469 8.296875 37.6875 C 8.328125 37.664062 8.359375 37.640625 8.386719 37.617188 C 8.402344 37.605469 8.414062 37.59375 8.425781 37.578125 C 8.4375 37.566406 8.445312 37.550781 8.457031 37.539062 C 8.570312 37.375 8.59375 37.210938 8.558594 37.078125 C 8.539062 37.007812 8.503906 36.949219 8.460938 36.894531 C 8.449219 36.882812 8.4375 36.871094 8.425781 36.859375 C 8.410156 36.847656 8.394531 36.835938 8.378906 36.824219 C 8.351562 36.804688 8.320312 36.785156 8.285156 36.769531 C 8.21875 36.738281 8.140625 36.726562 8.0625 36.71875 C 7.984375 36.714844 7.902344 36.726562 7.816406 36.757812 C 7.734375 36.785156 7.644531 36.832031 7.558594 36.898438 C 7.472656 36.96875 7.382812 37.058594 7.300781 37.175781 C 7.230469 37.269531 7.183594 37.390625 7.082031 37.5 C 7.03125 37.554688 6.96875 37.609375 6.882812 37.648438 C 6.800781 37.691406 6.6875 37.722656 6.546875 37.738281 Z M 10.515625 37.125 C 10.550781 36.96875 10.441406 36.875 10.339844 37.191406 C 10.28125 37.375 10.125 37.609375 9.890625 37.792969 C 9.664062 37.96875 9.445312 38.0625 9.25 38.089844 C 9.476562 38.097656 9.757812 38.007812 10.050781 37.78125 C 10.308594 37.578125 10.472656 37.316406 10.515625 37.125 Z M 8.964844 38.160156 C 9.511719 38.273438 10.3125 38.128906 10.640625 37.625 C 11.132812 36.898438 9.980469 36.183594 9.519531 37.351562 C 9.425781 37.589844 9.433594 37.929688 8.964844 38.160156 Z M 12.859375 37.164062 C 12.894531 36.992188 12.773438 36.890625 12.667969 37.242188 C 12.605469 37.449219 12.4375 37.710938 12.179688 37.917969 C 11.929688 38.117188 11.6875 38.222656 11.472656 38.261719 C 11.722656 38.261719 12.035156 38.160156 12.355469 37.902344 C 12.640625 37.671875 12.8125 37.378906 12.859375 37.164062 Z M 11.152344 38.34375 C 11.765625 38.457031 12.652344 38.289062 13.007812 37.722656 C 13.53125 36.914062 12.246094 36.132812 11.757812 37.433594 C 11.65625 37.703125 11.671875 38.074219 11.152344 38.34375 Z M 15.421875 37.214844 C 15.460938 37.023438 15.324219 36.914062 15.210938 37.304688 C 15.144531 37.53125 14.964844 37.820312 14.683594 38.054688 C 14.414062 38.277344 14.148438 38.398438 13.914062 38.441406 C 14.191406 38.4375 14.53125 38.320312 14.878906 38.035156 C 15.191406 37.777344 15.375 37.453125 15.421875 37.214844 Z M 13.566406 38.535156 C 14.238281 38.652344 15.210938 38.453125 15.597656 37.828125 C 16.148438 36.941406 14.730469 36.085938 14.214844 37.527344 C 14.109375 37.820312 14.128906 38.234375 13.566406 38.535156 Z M 18.253906 37.277344 C 18.289062 37.066406 18.140625 36.949219 18.023438 37.375 C 17.953125 37.625 17.761719 37.941406 17.457031 38.199219 C 17.164062 38.445312 16.875 38.578125 16.621094 38.628906 C 16.921875 38.625 17.292969 38.492188 17.667969 38.175781 C 18.003906 37.890625 18.207031 37.535156 18.253906 37.277344 Z M 16.242188 38.734375 C 16.976562 38.855469 18.039062 38.628906 18.449219 37.941406 C 19.03125 36.980469 17.480469 36.054688 16.9375 37.628906 C 16.824219 37.953125 16.855469 38.402344 16.242188 38.734375 Z M 21.410156 37.351562 C 21.449219 37.125 21.285156 36.996094 21.164062 37.460938 C 21.089844 37.730469 20.886719 38.078125 20.558594 38.359375 C 20.242188 38.628906 19.933594 38.777344 19.65625 38.832031 C 19.980469 38.824219 20.382812 38.679688 20.785156 38.332031 C 21.148438 38.019531 21.363281 37.632812 21.410156 37.351562 Z M 19.246094 38.949219 C 20.046875 39.078125 21.191406 38.820312 21.632812 38.070312 C 22.246094 37.03125 20.558594 36.035156 19.988281 37.742188 C 19.871094 38.097656 19.90625 38.585938 19.246094 38.949219 Z M 24.835938 37.492188 C 24.867188 37.371094 24.851562 37.273438 24.804688 37.265625 C 24.757812 37.253906 24.679688 37.339844 24.609375 37.585938 C 24.519531 37.871094 24.324219 38.230469 24.074219 38.535156 C 23.742188 38.828125 23.40625 38.988281 23.109375 39.054688 C 23.285156 39.046875 23.480469 39.003906 23.6875 38.914062 C 23.789062 38.871094 23.894531 38.816406 24 38.746094 C 24.027344 38.730469 24.054688 38.710938 24.078125 38.695312 C 24.097656 38.675781 24.117188 38.65625 24.136719 38.636719 C 24.171875 38.597656 24.210938 38.550781 24.25 38.507812 C 24.320312 38.425781 24.386719 38.339844 24.449219 38.25 C 24.511719 38.164062 24.566406 38.074219 24.617188 37.984375 C 24.71875 37.808594 24.796875 37.636719 24.835938 37.492188 Z M 22.667969 39.183594 C 22.882812 39.214844 23.121094 39.222656 23.367188 39.199219 C 23.488281 39.191406 23.613281 39.171875 23.734375 39.148438 C 23.796875 39.136719 23.859375 39.121094 23.917969 39.105469 C 23.949219 39.097656 23.980469 39.089844 24.007812 39.082031 L 24.054688 39.066406 L 24.074219 39.058594 L 24.089844 39.050781 C 24.394531 38.898438 24.675781 38.65625 24.90625 38.28125 C 25.058594 38.027344 25.128906 37.757812 25.097656 37.519531 C 25.070312 37.28125 24.9375 37.078125 24.742188 36.972656 C 24.550781 36.863281 24.300781 36.855469 24.078125 36.996094 C 23.835938 37.136719 23.609375 37.417969 23.457031 37.875 C 23.335938 38.257812 23.378906 38.78125 22.667969 39.183594 Z M 0.652344 31.527344 C 0.792969 31.539062 0.953125 31.59375 1.09375 31.675781 C 1.167969 31.71875 1.234375 31.769531 1.292969 31.828125 C 1.351562 31.882812 1.398438 31.949219 1.433594 32.027344 C 1.484375 32.132812 1.5 32.226562 1.492188 32.304688 C 1.488281 32.382812 1.457031 32.445312 1.410156 32.484375 C 1.410156 32.484375 1.433594 32.519531 1.476562 32.582031 C 1.519531 32.640625 1.585938 32.730469 1.667969 32.84375 C 1.835938 33.066406 2.085938 33.378906 2.417969 33.722656 C 2.746094 34.066406 3.15625 34.445312 3.628906 34.808594 C 3.863281 34.992188 4.117188 35.167969 4.378906 35.339844 C 4.640625 35.507812 4.917969 35.664062 5.203125 35.8125 C 5.773438 36.101562 6.375 36.332031 6.96875 36.472656 C 7.261719 36.546875 7.554688 36.589844 7.832031 36.625 C 7.972656 36.632812 8.109375 36.648438 8.242188 36.648438 C 8.308594 36.648438 8.371094 36.652344 8.4375 36.652344 C 8.496094 36.652344 8.554688 36.652344 8.613281 36.652344 C 9.53125 36.648438 10.144531 36.648438 10.144531 36.648438 C 9.828125 36.617188 9.472656 36.367188 9.253906 35.796875 C 9.140625 35.5 9.148438 35.082031 8.566406 34.789062 C 9.246094 34.65625 10.238281 34.835938 10.644531 35.464844 C 11.050781 36.089844 10.738281 36.601562 10.28125 36.648438 L 12.347656 36.640625 C 12.015625 36.574219 11.660156 36.285156 11.441406 35.6875 C 11.316406 35.355469 11.335938 34.886719 10.691406 34.550781 C 11.453125 34.410156 12.5625 34.628906 13.003906 35.335938 C 13.421875 36 13.128906 36.539062 12.667969 36.640625 L 14.835938 36.636719 C 14.464844 36.558594 14.078125 36.234375 13.84375 35.566406 C 13.710938 35.195312 13.738281 34.679688 13.027344 34.300781 C 13.875 34.152344 15.097656 34.40625 15.578125 35.195312 C 16.027344 35.929688 15.703125 36.519531 15.203125 36.636719 L 17.652344 36.628906 C 17.230469 36.5625 16.769531 36.210938 16.503906 35.433594 C 16.367188 35.023438 16.402344 34.460938 15.628906 34.035156 C 16.558594 33.882812 17.898438 34.171875 18.414062 35.042969 C 18.910156 35.878906 18.515625 36.535156 17.933594 36.628906 C 17.933594 36.628906 18.792969 36.625 20.085938 36.621094 C 20.730469 36.621094 21.484375 36.617188 22.289062 36.617188 C 22.691406 36.613281 23.109375 36.613281 23.53125 36.613281 C 23.636719 36.613281 23.746094 36.613281 23.851562 36.613281 C 23.957031 36.613281 24.066406 36.609375 24.167969 36.613281 C 24.371094 36.613281 24.578125 36.625 24.78125 36.644531 C 25.1875 36.683594 25.585938 36.765625 25.964844 36.886719 C 26.34375 37.011719 26.699219 37.175781 27.023438 37.375 C 27.34375 37.574219 27.636719 37.800781 27.890625 38.042969 C 28.148438 38.28125 28.371094 38.53125 28.570312 38.773438 C 28.96875 39.261719 29.265625 39.707031 29.5625 40.011719 C 29.707031 40.160156 29.84375 40.253906 29.945312 40.296875 C 29.996094 40.316406 30.039062 40.324219 30.066406 40.332031 C 30.09375 40.335938 30.105469 40.335938 30.105469 40.335938 L 29.996094 40.492188 C 29.996094 40.492188 29.988281 40.492188 29.972656 40.488281 C 29.957031 40.484375 29.929688 40.480469 29.898438 40.46875 C 29.835938 40.449219 29.746094 40.40625 29.636719 40.324219 C 29.535156 40.246094 29.414062 40.128906 29.289062 39.980469 C 29.167969 39.839844 29.042969 39.679688 28.914062 39.507812 C 28.652344 39.164062 28.359375 38.761719 27.972656 38.359375 C 27.585938 37.960938 27.105469 37.566406 26.503906 37.277344 C 25.90625 36.984375 25.191406 36.800781 24.402344 36.765625 C 24.304688 36.761719 24.207031 36.757812 24.105469 36.757812 C 24 36.757812 23.894531 36.757812 23.785156 36.753906 C 23.570312 36.753906 23.351562 36.753906 23.128906 36.753906 C 22.6875 36.753906 22.238281 36.75 21.777344 36.75 C 19.941406 36.746094 17.980469 36.738281 16.023438 36.734375 C 14.0625 36.730469 12.101562 36.722656 10.265625 36.71875 C 9.808594 36.71875 9.355469 36.714844 8.914062 36.714844 C 8.804688 36.714844 8.691406 36.714844 8.582031 36.714844 C 8.527344 36.714844 8.472656 36.714844 8.417969 36.714844 C 8.359375 36.710938 8.300781 36.710938 8.242188 36.710938 C 8.011719 36.703125 7.78125 36.679688 7.558594 36.644531 C 6.664062 36.511719 5.867188 36.203125 5.183594 35.851562 C 4.5 35.496094 3.921875 35.097656 3.4375 34.703125 C 2.957031 34.3125 2.570312 33.929688 2.269531 33.601562 C 1.96875 33.273438 1.753906 32.992188 1.609375 32.796875 C 1.539062 32.699219 1.484375 32.628906 1.449219 32.574219 C 1.414062 32.523438 1.398438 32.496094 1.398438 32.496094 C 1.328125 32.546875 1.226562 32.546875 1.125 32.484375 C 1.078125 32.449219 1.027344 32.402344 0.984375 32.332031 C 0.941406 32.265625 0.902344 32.175781 0.875 32.066406 C 0.839844 31.917969 0.863281 31.734375 0.652344 31.527344 " fill-opacity="1" fill-rule="evenodd"/></g><g clip-path="url(#cc1ee12f7f)"><path fill="#ffffff" d="M 58.699219 32.101562 C 58.734375 32.027344 58.78125 31.953125 58.839844 31.886719 C 58.902344 31.808594 58.964844 31.746094 59.027344 31.699219 C 59.089844 31.65625 59.148438 31.625 59.203125 31.609375 C 59.160156 31.632812 59.113281 31.667969 59.0625 31.707031 C 59.015625 31.75 58.964844 31.800781 58.914062 31.863281 C 58.808594 31.988281 58.746094 32.132812 58.71875 32.238281 C 58.675781 32.425781 58.621094 32.382812 58.632812 32.289062 C 58.640625 32.234375 58.664062 32.167969 58.699219 32.101562 Z M 57.746094 32.433594 C 57.773438 32.25 57.839844 32.125 57.917969 32.046875 C 57.863281 32.128906 57.820312 32.234375 57.796875 32.378906 C 57.777344 32.527344 57.792969 32.667969 57.832031 32.761719 C 57.894531 32.921875 57.824219 32.921875 57.785156 32.847656 C 57.742188 32.757812 57.71875 32.597656 57.746094 32.433594 Z M 58.082031 32.417969 C 58.207031 32.734375 58.089844 32.949219 57.9375 33.003906 C 57.785156 33.0625 57.609375 32.957031 57.574219 32.6875 C 57.566406 32.613281 57.574219 32.535156 57.59375 32.460938 C 57.613281 32.386719 57.648438 32.316406 57.6875 32.25 C 57.769531 32.117188 57.878906 32 57.992188 31.925781 C 57.914062 32.171875 58.035156 32.296875 58.082031 32.417969 Z M 56.628906 33.488281 C 56.6875 33.261719 56.785156 33.105469 56.894531 33.019531 C 56.855469 33.066406 56.816406 33.121094 56.785156 33.1875 C 56.753906 33.253906 56.726562 33.332031 56.703125 33.421875 C 56.683594 33.515625 56.675781 33.605469 56.675781 33.691406 C 56.675781 33.773438 56.6875 33.851562 56.707031 33.914062 C 56.769531 34.121094 56.679688 34.113281 56.640625 34.015625 C 56.589844 33.890625 56.578125 33.695312 56.628906 33.488281 Z M 57.066406 33.503906 C 57.191406 33.917969 57.015625 34.175781 56.816406 34.230469 C 56.613281 34.285156 56.398438 34.132812 56.386719 33.789062 C 56.378906 33.59375 56.460938 33.40625 56.578125 33.246094 C 56.636719 33.167969 56.703125 33.09375 56.777344 33.03125 C 56.847656 32.964844 56.921875 32.910156 57 32.871094 C 56.878906 33.175781 57.015625 33.34375 57.066406 33.503906 Z M 55.296875 34.394531 C 55.347656 34.265625 55.402344 34.152344 55.46875 34.066406 C 55.53125 33.980469 55.601562 33.914062 55.671875 33.871094 C 55.617188 33.917969 55.566406 33.980469 55.523438 34.058594 C 55.476562 34.132812 55.433594 34.222656 55.394531 34.328125 C 55.316406 34.542969 55.304688 34.765625 55.332031 34.917969 C 55.378906 35.179688 55.265625 35.15625 55.234375 35.03125 C 55.195312 34.878906 55.210938 34.636719 55.296875 34.394531 Z M 55.734375 34.144531 C 55.753906 34.269531 55.800781 34.378906 55.820312 34.480469 C 55.921875 34.988281 55.671875 35.285156 55.417969 35.320312 C 55.292969 35.339844 55.167969 35.292969 55.082031 35.191406 C 54.996094 35.085938 54.949219 34.929688 54.964844 34.722656 C 54.972656 34.601562 55.007812 34.488281 55.0625 34.386719 C 55.113281 34.28125 55.183594 34.1875 55.261719 34.097656 C 55.34375 34.007812 55.433594 33.933594 55.527344 33.863281 C 55.621094 33.800781 55.71875 33.742188 55.816406 33.703125 C 55.726562 33.878906 55.714844 34.019531 55.734375 34.144531 Z M 53.761719 35.082031 C 53.804688 35.011719 53.84375 34.945312 53.882812 34.886719 C 53.925781 34.828125 53.96875 34.78125 54.011719 34.734375 C 54.097656 34.644531 54.1875 34.585938 54.269531 34.542969 C 54.136719 34.640625 54.003906 34.796875 53.886719 35.023438 C 53.824219 35.144531 53.777344 35.261719 53.746094 35.378906 C 53.71875 35.496094 53.703125 35.605469 53.703125 35.695312 C 53.707031 36.007812 53.582031 35.957031 53.570312 35.804688 C 53.554688 35.617188 53.621094 35.34375 53.761719 35.082031 Z M 54.351562 35.28125 C 54.386719 35.894531 54.027344 36.195312 53.722656 36.179688 C 53.566406 36.175781 53.429688 36.089844 53.355469 35.953125 C 53.277344 35.816406 53.261719 35.621094 53.324219 35.386719 C 53.359375 35.253906 53.417969 35.125 53.5 35.019531 C 53.539062 34.964844 53.578125 34.914062 53.625 34.867188 C 53.671875 34.816406 53.722656 34.773438 53.773438 34.730469 C 53.984375 34.5625 54.230469 34.4375 54.460938 34.378906 C 54.207031 34.75 54.335938 35.035156 54.351562 35.28125 Z M 51.800781 35.773438 C 51.835938 35.710938 51.878906 35.644531 51.925781 35.578125 C 51.972656 35.511719 52.023438 35.453125 52.078125 35.390625 C 52.320312 35.121094 52.535156 34.972656 52.734375 34.933594 C 52.65625 34.972656 52.574219 35.019531 52.488281 35.09375 C 52.445312 35.128906 52.402344 35.167969 52.359375 35.210938 C 52.3125 35.257812 52.269531 35.308594 52.222656 35.359375 C 52.175781 35.417969 52.128906 35.476562 52.089844 35.539062 C 52.046875 35.597656 52.011719 35.65625 51.976562 35.714844 C 51.910156 35.832031 51.863281 35.949219 51.835938 36.054688 C 51.789062 36.226562 51.730469 36.289062 51.691406 36.285156 C 51.652344 36.28125 51.632812 36.214844 51.652344 36.128906 C 51.675781 36.023438 51.726562 35.898438 51.800781 35.773438 Z M 52.699219 35.316406 C 52.671875 35.480469 52.679688 35.640625 52.660156 35.78125 C 52.601562 36.128906 52.449219 36.367188 52.265625 36.496094 C 52.175781 36.566406 52.074219 36.601562 51.976562 36.617188 C 51.878906 36.632812 51.78125 36.621094 51.695312 36.59375 C 51.652344 36.578125 51.613281 36.5625 51.578125 36.539062 C 51.542969 36.515625 51.511719 36.484375 51.480469 36.453125 C 51.425781 36.390625 51.386719 36.3125 51.363281 36.222656 C 51.324219 36.046875 51.359375 35.824219 51.523438 35.582031 C 51.574219 35.515625 51.613281 35.449219 51.664062 35.394531 C 51.714844 35.335938 51.765625 35.285156 51.820312 35.238281 C 51.878906 35.1875 51.933594 35.144531 51.996094 35.109375 C 52.054688 35.070312 52.117188 35.03125 52.179688 35 C 52.433594 34.875 52.710938 34.804688 52.96875 34.792969 C 52.800781 34.972656 52.730469 35.148438 52.699219 35.316406 Z M 50.082031 35.265625 C 50.4375 34.984375 50.789062 34.871094 51.066406 34.875 C 50.828125 34.917969 50.554688 35.03125 50.277344 35.253906 C 49.984375 35.480469 49.792969 35.769531 49.722656 36 C 49.597656 36.394531 49.464844 36.277344 49.507812 36.085938 C 49.558594 35.847656 49.757812 35.523438 50.082031 35.265625 Z M 47.804688 35.105469 C 48.203125 34.785156 48.59375 34.652344 48.902344 34.652344 C 48.636719 34.699219 48.335938 34.835938 48.027344 35.085938 C 47.703125 35.347656 47.496094 35.671875 47.417969 35.929688 C 47.285156 36.371094 47.132812 36.246094 47.179688 36.027344 C 47.234375 35.761719 47.449219 35.394531 47.804688 35.105469 Z M 45.316406 34.929688 C 45.75 34.570312 46.179688 34.421875 46.523438 34.417969 C 46.230469 34.472656 45.894531 34.625 45.558594 34.90625 C 45.207031 35.199219 44.980469 35.5625 44.898438 35.851562 C 44.757812 36.339844 44.589844 36.203125 44.632812 35.960938 C 44.691406 35.664062 44.925781 35.257812 45.316406 34.929688 Z M 42.5625 34.746094 C 43.035156 34.34375 43.503906 34.175781 43.882812 34.167969 C 43.558594 34.234375 43.195312 34.40625 42.828125 34.714844 C 42.445312 35.042969 42.203125 35.441406 42.117188 35.757812 C 41.96875 36.292969 41.78125 36.148438 41.828125 35.882812 C 41.886719 35.554688 42.136719 35.105469 42.5625 34.746094 Z M 39.484375 34.542969 C 39.996094 34.101562 40.503906 33.914062 40.917969 33.90625 C 40.566406 33.976562 40.171875 34.164062 39.777344 34.507812 C 39.363281 34.863281 39.101562 35.300781 39.011719 35.644531 C 38.855469 36.234375 38.648438 36.074219 38.699219 35.785156 C 38.757812 35.429688 39.027344 34.9375 39.484375 34.542969 Z M 40.496094 35.285156 C 39.742188 37.554688 37.4375 36.550781 38.417969 34.875 C 38.972656 33.925781 40.421875 33.597656 41.4375 33.757812 C 40.597656 34.222656 40.644531 34.839844 40.496094 35.285156 Z M 35.332031 35.03125 C 35.40625 34.90625 35.5 34.78125 35.617188 34.660156 C 35.671875 34.601562 35.734375 34.542969 35.804688 34.484375 C 35.835938 34.457031 35.871094 34.425781 35.90625 34.398438 C 35.9375 34.371094 35.96875 34.34375 36 34.316406 C 36.546875 33.839844 37.09375 33.632812 37.539062 33.617188 C 37.164062 33.699219 36.738281 33.90625 36.3125 34.277344 C 36.085938 34.472656 35.917969 34.6875 35.742188 34.90625 C 35.585938 35.121094 35.492188 35.339844 35.449219 35.527344 C 35.378906 35.851562 35.289062 35.972656 35.214844 35.976562 C 35.140625 35.984375 35.082031 35.867188 35.09375 35.710938 C 35.105469 35.515625 35.179688 35.273438 35.332031 35.03125 Z M 37.097656 35.113281 C 36.898438 35.726562 36.59375 36.121094 36.261719 36.339844 C 36.097656 36.449219 35.921875 36.511719 35.765625 36.539062 C 35.683594 36.554688 35.605469 36.5625 35.527344 36.558594 C 35.449219 36.558594 35.375 36.546875 35.300781 36.53125 C 35.007812 36.464844 34.742188 36.277344 34.574219 35.988281 C 34.492188 35.839844 34.4375 35.667969 34.433594 35.464844 C 34.429688 35.265625 34.476562 35.035156 34.605469 34.785156 C 34.746094 34.5 34.992188 34.25 35.308594 34.054688 C 35.464844 33.957031 35.640625 33.871094 35.824219 33.800781 C 35.925781 33.765625 35.984375 33.734375 36.058594 33.703125 C 36.132812 33.671875 36.207031 33.644531 36.285156 33.621094 C 36.886719 33.421875 37.554688 33.371094 38.101562 33.453125 C 37.199219 33.964844 37.253906 34.628906 37.097656 35.113281 Z M 58.769531 33.234375 C 58.851562 33.191406 58.914062 33.140625 58.964844 33.089844 C 59.019531 33.039062 59.054688 32.984375 59.078125 32.933594 C 59.023438 33.015625 58.933594 33.097656 58.808594 33.167969 C 58.679688 33.238281 58.546875 33.257812 58.457031 33.25 C 58.308594 33.234375 58.320312 33.292969 58.390625 33.308594 C 58.480469 33.332031 58.625 33.3125 58.769531 33.234375 Z M 58.707031 32.925781 C 58.554688 32.925781 58.441406 32.960938 58.363281 33.015625 C 58.28125 33.066406 58.238281 33.140625 58.226562 33.210938 C 58.203125 33.351562 58.3125 33.5 58.5625 33.460938 C 58.851562 33.417969 59.101562 33.082031 59.167969 32.8125 C 58.96875 32.992188 58.828125 32.929688 58.707031 32.925781 Z M 57.648438 34.617188 C 57.753906 34.589844 57.847656 34.550781 57.921875 34.5 C 57.996094 34.453125 58.054688 34.398438 58.097656 34.34375 C 58.011719 34.425781 57.882812 34.503906 57.714844 34.546875 C 57.542969 34.597656 57.378906 34.585938 57.273438 34.546875 C 57.097656 34.480469 57.097656 34.558594 57.175781 34.597656 C 57.277344 34.648438 57.453125 34.671875 57.648438 34.617188 Z M 57.898438 34.296875 C 57.804688 34.285156 57.734375 34.246094 57.664062 34.226562 C 57.484375 34.183594 57.339844 34.191406 57.234375 34.234375 C 57.128906 34.277344 57.058594 34.351562 57.027344 34.4375 C 56.964844 34.601562 57.050781 34.808594 57.339844 34.835938 C 57.515625 34.851562 57.703125 34.777344 57.863281 34.65625 C 57.945312 34.597656 58.019531 34.527344 58.082031 34.453125 C 58.148438 34.378906 58.199219 34.300781 58.238281 34.222656 C 58.097656 34.304688 57.988281 34.3125 57.898438 34.296875 Z M 56.226562 35.878906 C 56.292969 35.875 56.359375 35.867188 56.417969 35.855469 C 56.476562 35.84375 56.527344 35.828125 56.578125 35.808594 C 56.679688 35.769531 56.761719 35.71875 56.824219 35.660156 C 56.765625 35.703125 56.691406 35.738281 56.605469 35.761719 C 56.523438 35.789062 56.429688 35.808594 56.324219 35.8125 C 56.105469 35.828125 55.921875 35.777344 55.8125 35.703125 C 55.625 35.578125 55.601562 35.671875 55.683594 35.742188 C 55.785156 35.824219 55.988281 35.894531 56.226562 35.878906 Z M 56.601562 35.558594 C 56.5 35.519531 56.425781 35.460938 56.347656 35.421875 C 56.148438 35.324219 55.984375 35.304688 55.851562 35.328125 C 55.785156 35.34375 55.730469 35.367188 55.679688 35.398438 C 55.632812 35.429688 55.59375 35.472656 55.5625 35.515625 C 55.507812 35.609375 55.488281 35.71875 55.523438 35.820312 C 55.558594 35.921875 55.652344 36.015625 55.808594 36.0625 C 55.910156 36.09375 56.019531 36.097656 56.132812 36.085938 C 56.246094 36.070312 56.359375 36.03125 56.472656 35.980469 C 56.582031 35.929688 56.6875 35.863281 56.78125 35.789062 C 56.875 35.714844 56.957031 35.632812 57.019531 35.554688 C 56.832031 35.613281 56.703125 35.597656 56.601562 35.558594 Z M 54.082031 36.832031 C 54.132812 36.859375 54.1875 36.886719 54.25 36.90625 C 54.308594 36.925781 54.375 36.945312 54.445312 36.957031 C 54.523438 36.96875 54.601562 36.976562 54.671875 36.976562 C 54.746094 36.976562 54.8125 36.96875 54.875 36.957031 C 55.003906 36.9375 55.117188 36.898438 55.203125 36.847656 C 55.039062 36.910156 54.824219 36.9375 54.578125 36.90625 C 54.449219 36.886719 54.335938 36.847656 54.242188 36.800781 C 54.148438 36.753906 54.074219 36.695312 54.019531 36.640625 C 53.84375 36.449219 53.789062 36.550781 53.863281 36.648438 C 53.90625 36.710938 53.980469 36.777344 54.082031 36.832031 Z M 55.167969 36.757812 C 55.089844 36.742188 55.027344 36.710938 54.972656 36.679688 C 54.867188 36.609375 54.796875 36.519531 54.714844 36.457031 C 54.320312 36.144531 53.988281 36.195312 53.804688 36.367188 C 53.710938 36.457031 53.65625 36.574219 53.664062 36.699219 C 53.671875 36.824219 53.738281 36.953125 53.90625 37.050781 C 54.011719 37.117188 54.136719 37.148438 54.273438 37.164062 C 54.410156 37.175781 54.554688 37.160156 54.699219 37.132812 C 54.84375 37.097656 54.984375 37.050781 55.117188 36.984375 C 55.242188 36.921875 55.363281 36.847656 55.460938 36.765625 C 55.34375 36.78125 55.25 36.773438 55.167969 36.757812 Z M 52.191406 37.636719 C 52.28125 37.679688 52.363281 37.710938 52.449219 37.734375 C 52.53125 37.757812 52.613281 37.773438 52.691406 37.78125 C 52.847656 37.796875 52.996094 37.792969 53.117188 37.757812 C 52.898438 37.78125 52.636719 37.746094 52.367188 37.625 C 52.296875 37.59375 52.234375 37.558594 52.175781 37.519531 C 52.117188 37.476562 52.066406 37.4375 52.023438 37.394531 C 51.976562 37.351562 51.9375 37.308594 51.90625 37.265625 C 51.875 37.222656 51.851562 37.179688 51.832031 37.140625 C 51.710938 36.867188 51.613281 36.953125 51.648438 37.089844 C 51.699219 37.253906 51.882812 37.488281 52.191406 37.636719 Z M 53.109375 37.648438 C 53.023438 37.609375 52.960938 37.554688 52.910156 37.5 C 52.808594 37.390625 52.761719 37.269531 52.691406 37.175781 C 52.609375 37.058594 52.519531 36.96875 52.433594 36.898438 C 52.347656 36.832031 52.257812 36.785156 52.175781 36.757812 C 52.089844 36.726562 52.007812 36.714844 51.929688 36.71875 C 51.851562 36.726562 51.773438 36.738281 51.707031 36.769531 C 51.671875 36.785156 51.640625 36.804688 51.613281 36.824219 C 51.597656 36.835938 51.582031 36.847656 51.566406 36.859375 C 51.554688 36.871094 51.542969 36.882812 51.53125 36.894531 C 51.488281 36.949219 51.453125 37.007812 51.433594 37.078125 C 51.398438 37.210938 51.421875 37.375 51.535156 37.539062 C 51.546875 37.550781 51.554688 37.566406 51.566406 37.578125 C 51.578125 37.59375 51.589844 37.605469 51.605469 37.617188 C 51.632812 37.640625 51.664062 37.664062 51.695312 37.6875 C 51.757812 37.730469 51.828125 37.769531 51.90625 37.800781 C 51.984375 37.832031 52.066406 37.855469 52.152344 37.875 C 52.238281 37.894531 52.328125 37.910156 52.417969 37.914062 C 52.785156 37.945312 53.164062 37.863281 53.445312 37.738281 C 53.304688 37.722656 53.195312 37.691406 53.109375 37.648438 Z M 49.941406 37.78125 C 50.234375 38.007812 50.515625 38.097656 50.742188 38.089844 C 50.546875 38.0625 50.328125 37.96875 50.101562 37.792969 C 49.867188 37.609375 49.710938 37.375 49.652344 37.191406 C 49.550781 36.875 49.441406 36.96875 49.476562 37.125 C 49.519531 37.316406 49.683594 37.578125 49.941406 37.78125 Z M 50.472656 37.351562 C 50.011719 36.183594 48.859375 36.898438 49.351562 37.625 C 49.679688 38.128906 50.480469 38.273438 51.03125 38.160156 C 50.558594 37.929688 50.566406 37.589844 50.472656 37.351562 Z M 47.636719 37.902344 C 47.957031 38.160156 48.269531 38.261719 48.519531 38.261719 C 48.304688 38.222656 48.0625 38.117188 47.816406 37.917969 C 47.554688 37.710938 47.386719 37.449219 47.324219 37.242188 C 47.21875 36.890625 47.097656 36.992188 47.132812 37.164062 C 47.179688 37.378906 47.351562 37.671875 47.636719 37.902344 Z M 48.234375 37.433594 C 47.746094 36.132812 46.460938 36.914062 46.984375 37.722656 C 47.339844 38.289062 48.226562 38.457031 48.839844 38.34375 C 48.320312 38.074219 48.335938 37.703125 48.234375 37.433594 Z M 45.113281 38.035156 C 45.460938 38.320312 45.800781 38.4375 46.078125 38.441406 C 45.84375 38.398438 45.578125 38.277344 45.308594 38.054688 C 45.027344 37.820312 44.847656 37.53125 44.78125 37.304688 C 44.667969 36.914062 44.53125 37.023438 44.570312 37.214844 C 44.617188 37.453125 44.800781 37.777344 45.113281 38.035156 Z M 45.777344 37.527344 C 45.261719 36.085938 43.84375 36.941406 44.394531 37.828125 C 44.78125 38.453125 45.753906 38.652344 46.429688 38.535156 C 45.863281 38.234375 45.882812 37.820312 45.777344 37.527344 Z M 42.324219 38.175781 C 42.699219 38.492188 43.070312 38.625 43.371094 38.628906 C 43.117188 38.578125 42.828125 38.445312 42.535156 38.199219 C 42.230469 37.941406 42.039062 37.625 41.96875 37.375 C 41.851562 36.949219 41.703125 37.066406 41.738281 37.277344 C 41.785156 37.535156 41.988281 37.890625 42.324219 38.175781 Z M 43.054688 37.628906 C 42.511719 36.054688 40.960938 36.980469 41.542969 37.941406 C 41.953125 38.628906 43.015625 38.855469 43.753906 38.734375 C 43.136719 38.402344 43.167969 37.953125 43.054688 37.628906 Z M 39.207031 38.332031 C 39.609375 38.679688 40.011719 38.824219 40.335938 38.832031 C 40.058594 38.777344 39.75 38.628906 39.433594 38.359375 C 39.105469 38.078125 38.902344 37.730469 38.828125 37.460938 C 38.707031 36.996094 38.542969 37.125 38.582031 37.351562 C 38.628906 37.632812 38.84375 38.019531 39.207031 38.332031 Z M 40.003906 37.742188 C 39.433594 36.035156 37.746094 37.03125 38.359375 38.070312 C 38.800781 38.820312 39.945312 39.078125 40.75 38.949219 C 40.085938 38.585938 40.121094 38.097656 40.003906 37.742188 Z M 35.375 37.984375 C 35.425781 38.074219 35.480469 38.164062 35.542969 38.25 C 35.605469 38.339844 35.671875 38.425781 35.742188 38.507812 C 35.78125 38.550781 35.820312 38.597656 35.855469 38.636719 C 35.875 38.65625 35.894531 38.675781 35.914062 38.695312 C 35.9375 38.710938 35.964844 38.730469 35.992188 38.746094 C 36.097656 38.816406 36.203125 38.871094 36.304688 38.914062 C 36.511719 39.003906 36.707031 39.046875 36.882812 39.054688 C 36.585938 38.988281 36.25 38.828125 35.917969 38.535156 C 35.667969 38.230469 35.472656 37.871094 35.382812 37.585938 C 35.3125 37.339844 35.234375 37.253906 35.1875 37.265625 C 35.140625 37.273438 35.125 37.371094 35.15625 37.492188 C 35.195312 37.636719 35.273438 37.808594 35.375 37.984375 Z M 36.535156 37.875 C 36.382812 37.417969 36.160156 37.136719 35.914062 36.996094 C 35.691406 36.855469 35.441406 36.863281 35.25 36.972656 C 35.054688 37.078125 34.921875 37.28125 34.894531 37.519531 C 34.863281 37.757812 34.933594 38.027344 35.085938 38.28125 C 35.316406 38.65625 35.597656 38.898438 35.902344 39.050781 L 35.917969 39.058594 L 35.9375 39.066406 L 35.984375 39.082031 C 36.011719 39.089844 36.042969 39.097656 36.074219 39.105469 C 36.136719 39.121094 36.195312 39.136719 36.257812 39.148438 C 36.378906 39.171875 36.503906 39.191406 36.625 39.199219 C 36.871094 39.222656 37.109375 39.214844 37.324219 39.183594 C 36.617188 38.78125 36.65625 38.257812 36.535156 37.875 Z M 59.117188 32.066406 C 59.089844 32.175781 59.050781 32.265625 59.007812 32.332031 C 58.964844 32.402344 58.914062 32.449219 58.867188 32.484375 C 58.765625 32.546875 58.664062 32.546875 58.59375 32.496094 C 58.59375 32.496094 58.578125 32.523438 58.542969 32.574219 C 58.507812 32.628906 58.453125 32.699219 58.382812 32.796875 C 58.238281 32.992188 58.023438 33.273438 57.722656 33.601562 C 57.421875 33.929688 57.035156 34.3125 56.554688 34.703125 C 56.070312 35.097656 55.492188 35.496094 54.808594 35.851562 C 54.125 36.203125 53.332031 36.511719 52.433594 36.644531 C 52.210938 36.679688 51.980469 36.703125 51.75 36.710938 C 51.691406 36.710938 51.632812 36.710938 51.574219 36.714844 C 51.519531 36.714844 51.464844 36.714844 51.410156 36.714844 C 51.300781 36.714844 51.191406 36.714844 51.078125 36.714844 C 50.636719 36.71875 50.183594 36.71875 49.726562 36.71875 C 47.890625 36.722656 45.929688 36.730469 43.96875 36.734375 C 42.011719 36.738281 40.050781 36.746094 38.214844 36.75 C 37.753906 36.75 37.304688 36.753906 36.863281 36.753906 C 36.640625 36.753906 36.421875 36.753906 36.207031 36.753906 C 36.097656 36.757812 35.992188 36.757812 35.886719 36.757812 C 35.785156 36.757812 35.6875 36.761719 35.589844 36.765625 C 34.800781 36.800781 34.085938 36.984375 33.488281 37.277344 C 32.886719 37.566406 32.40625 37.960938 32.019531 38.359375 C 31.632812 38.761719 31.339844 39.164062 31.078125 39.507812 C 30.949219 39.679688 30.824219 39.839844 30.703125 39.980469 C 30.578125 40.128906 30.457031 40.246094 30.355469 40.324219 C 30.25 40.40625 30.15625 40.449219 30.09375 40.46875 C 30.0625 40.480469 30.035156 40.484375 30.019531 40.488281 C 30.003906 40.492188 29.996094 40.492188 29.996094 40.492188 L 29.886719 40.335938 C 29.886719 40.335938 29.902344 40.335938 29.925781 40.332031 C 29.953125 40.324219 29.996094 40.316406 30.046875 40.296875 C 30.148438 40.253906 30.285156 40.160156 30.429688 40.011719 C 30.726562 39.707031 31.023438 39.261719 31.421875 38.773438 C 31.621094 38.53125 31.84375 38.28125 32.101562 38.042969 C 32.355469 37.800781 32.648438 37.574219 32.96875 37.375 C 33.292969 37.175781 33.648438 37.011719 34.027344 36.886719 C 34.40625 36.765625 34.804688 36.6875 35.210938 36.644531 C 35.414062 36.625 35.621094 36.613281 35.824219 36.613281 C 35.925781 36.609375 36.035156 36.613281 36.140625 36.613281 C 36.25 36.613281 36.355469 36.613281 36.460938 36.613281 C 36.882812 36.613281 37.300781 36.613281 37.703125 36.617188 C 38.507812 36.617188 39.261719 36.621094 39.90625 36.621094 C 41.199219 36.625 42.058594 36.628906 42.058594 36.628906 C 41.476562 36.535156 41.082031 35.878906 41.578125 35.042969 C 42.09375 34.171875 43.433594 33.882812 44.363281 34.035156 C 43.589844 34.460938 43.625 35.023438 43.488281 35.433594 C 43.222656 36.210938 42.761719 36.5625 42.339844 36.628906 L 44.789062 36.636719 C 44.289062 36.519531 43.964844 35.929688 44.414062 35.195312 C 44.894531 34.40625 46.117188 34.152344 46.964844 34.300781 C 46.253906 34.679688 46.28125 35.195312 46.148438 35.566406 C 45.914062 36.234375 45.527344 36.558594 45.15625 36.636719 L 47.324219 36.640625 C 46.863281 36.539062 46.570312 36 46.988281 35.335938 C 47.429688 34.628906 48.539062 34.410156 49.300781 34.550781 C 48.65625 34.886719 48.675781 35.355469 48.550781 35.6875 C 48.332031 36.285156 47.976562 36.574219 47.644531 36.640625 L 49.710938 36.648438 C 49.253906 36.601562 48.941406 36.089844 49.347656 35.464844 C 49.753906 34.835938 50.746094 34.65625 51.425781 34.789062 C 50.84375 35.082031 50.851562 35.5 50.738281 35.796875 C 50.519531 36.367188 50.164062 36.617188 49.847656 36.648438 C 49.847656 36.648438 50.460938 36.648438 51.378906 36.652344 C 51.4375 36.652344 51.496094 36.652344 51.554688 36.652344 C 51.621094 36.652344 51.683594 36.648438 51.75 36.648438 C 51.882812 36.648438 52.019531 36.632812 52.160156 36.625 C 52.4375 36.589844 52.730469 36.546875 53.023438 36.472656 C 53.617188 36.332031 54.21875 36.101562 54.789062 35.8125 C 55.074219 35.664062 55.351562 35.507812 55.613281 35.339844 C 55.875 35.167969 56.128906 34.992188 56.363281 34.808594 C 56.835938 34.445312 57.246094 34.066406 57.574219 33.722656 C 57.90625 33.378906 58.15625 33.066406 58.324219 32.84375 C 58.40625 32.730469 58.472656 32.640625 58.515625 32.582031 C 58.558594 32.519531 58.582031 32.484375 58.582031 32.484375 C 58.535156 32.445312 58.503906 32.382812 58.5 32.304688 C 58.492188 32.226562 58.507812 32.132812 58.558594 32.027344 C 58.59375 31.949219 58.640625 31.882812 58.699219 31.828125 C 58.757812 31.769531 58.824219 31.71875 58.898438 31.675781 C 59.039062 31.59375 59.199219 31.539062 59.339844 31.527344 C 59.128906 31.734375 59.152344 31.917969 59.117188 32.066406 " fill-opacity="1" fill-rule="evenodd"/></g></svg>