<svg xmlns="http://www.w3.org/2000/svg" xmlns:xlink="http://www.w3.org/1999/xlink" width="80" zoomAndPan="magnify" viewBox="0 0 60 44.999999" height="60" preserveAspectRatio="xMidYMid meet" version="1.0"><defs><clipPath id="607338172b"><path d="M 16.882812 4.5 L 43.132812 4.5 L 43.132812 27.75 L 16.882812 27.75 Z M 16.882812 4.5 " clip-rule="nonzero"/></clipPath><clipPath id="3d347a2e5b"><path d="M 1.390625 30.652344 L 58.390625 30.652344 L 58.390625 41.902344 L 1.390625 41.902344 Z M 1.390625 30.652344 " clip-rule="nonzero"/></clipPath><clipPath id="62346a77b4"><path d="M 26 40 L 28 40 L 28 41.902344 L 26 41.902344 Z M 26 40 " clip-rule="nonzero"/></clipPath></defs><g clip-path="url(#607338172b)"><path fill="#000000" d="M 29.71875 16.246094 C 29.71875 16.867188 29.71875 17.488281 29.722656 18.109375 L 24.105469 14.769531 L 24.105469 8.289062 C 24.238281 8.371094 24.375 8.453125 24.511719 8.53125 C 24.988281 8.816406 25.464844 9.097656 25.941406 9.382812 C 26.519531 9.722656 27.09375 10.0625 27.667969 10.402344 C 28.167969 10.699219 28.664062 10.996094 29.164062 11.289062 C 29.351562 11.402344 29.535156 11.515625 29.71875 11.625 C 29.71875 11.808594 29.71875 11.996094 29.71875 12.179688 C 29.71875 12.792969 29.71875 13.40625 29.71875 14.019531 C 29.71875 14.761719 29.71875 15.503906 29.71875 16.246094 Z M 32.132812 9.777344 C 32.707031 9.433594 33.28125 9.09375 33.855469 8.753906 C 34.332031 8.472656 34.808594 8.1875 35.289062 7.90625 C 35.425781 7.824219 35.5625 7.742188 35.699219 7.664062 L 30.082031 4.5 L 24.472656 7.660156 C 24.65625 7.769531 24.839844 7.882812 25.023438 7.992188 C 25.519531 8.285156 26.019531 8.582031 26.519531 8.878906 C 27.09375 9.21875 27.667969 9.558594 28.242188 9.902344 C 28.71875 10.183594 29.195312 10.464844 29.675781 10.75 C 29.808594 10.828125 29.941406 10.910156 30.078125 10.988281 C 30.261719 10.878906 30.449219 10.773438 30.636719 10.664062 C 31.132812 10.367188 31.632812 10.070312 32.132812 9.777344 Z M 36.066406 8.292969 C 35.882812 8.402344 35.695312 8.507812 35.511719 8.617188 C 35.011719 8.914062 34.511719 9.210938 34.015625 9.503906 C 33.441406 9.847656 32.863281 10.1875 32.289062 10.527344 C 31.8125 10.808594 31.335938 11.09375 30.859375 11.375 C 30.722656 11.457031 30.585938 11.539062 30.449219 11.617188 C 30.453125 11.867188 30.449219 12.117188 30.449219 12.363281 C 30.449219 13.007812 30.449219 13.648438 30.449219 14.289062 C 30.449219 15.03125 30.449219 15.773438 30.449219 16.519531 C 30.449219 17.046875 30.449219 17.582031 30.449219 18.109375 L 36.066406 14.769531 Z M 22.953125 17.621094 C 22.75 17.425781 22.46875 17.304688 22.183594 17.304688 C 21.917969 17.304688 21.597656 17.421875 21.414062 17.621094 C 21.222656 17.828125 21.082031 18.101562 21.09375 18.390625 C 21.105469 18.675781 21.203125 18.957031 21.414062 19.160156 C 21.914062 19.640625 22.417969 20.125 22.917969 20.605469 C 23.082031 20.761719 23.246094 20.921875 23.410156 21.078125 C 23.558594 21.222656 23.585938 21.457031 23.453125 21.617188 C 23.328125 21.773438 23.105469 21.804688 22.941406 21.699219 L 19.203125 19.285156 C 19.164062 19.257812 19.136719 19.214844 19.136719 19.167969 L 19.074219 17.652344 C 19.074219 17 19.074219 16.347656 19.074219 15.695312 C 19.074219 15.128906 19.074219 14.566406 19.074219 13.996094 C 19.074219 13.722656 19.078125 13.445312 19.074219 13.171875 C 19.074219 13.167969 19.074219 13.164062 19.074219 13.160156 C 19.074219 12.882812 18.953125 12.589844 18.753906 12.390625 C 18.566406 12.203125 18.253906 12.058594 17.984375 12.074219 C 17.703125 12.085938 17.410156 12.179688 17.214844 12.390625 C 17.015625 12.601562 16.894531 12.867188 16.894531 13.160156 C 16.894531 13.402344 16.894531 13.644531 16.894531 13.890625 C 16.894531 14.464844 16.894531 15.042969 16.894531 15.617188 C 16.894531 16.296875 16.894531 16.976562 16.894531 17.652344 C 16.894531 18.210938 16.894531 18.769531 16.894531 19.328125 C 16.894531 19.492188 16.894531 19.652344 16.894531 19.816406 C 16.894531 19.851562 16.894531 19.890625 16.894531 19.929688 C 16.898438 20.222656 17.003906 20.515625 17.214844 20.726562 C 17.390625 20.902344 17.574219 21.074219 17.757812 21.246094 L 21.582031 24.914062 C 21.609375 24.941406 21.625 24.980469 21.625 25.019531 L 21.625 27.605469 C 21.625 27.6875 21.691406 27.75 21.769531 27.75 L 27.523438 27.75 C 27.601562 27.75 27.667969 27.6875 27.667969 27.605469 L 27.699219 21.480469 C 27.6875 21.195312 27.59375 20.914062 27.382812 20.710938 Z M 42.804688 12.390625 C 42.609375 12.175781 42.316406 12.085938 42.035156 12.070312 C 41.761719 12.058594 41.453125 12.203125 41.265625 12.390625 C 41.066406 12.585938 40.945312 12.878906 40.945312 13.160156 C 40.945312 13.164062 40.945312 13.167969 40.945312 13.171875 C 40.941406 13.445312 40.945312 13.722656 40.945312 13.996094 C 40.945312 14.5625 40.945312 15.128906 40.945312 15.695312 C 40.945312 16.347656 40.945312 17 40.945312 17.652344 L 40.882812 19.167969 C 40.878906 19.214844 40.855469 19.257812 40.816406 19.285156 L 37.078125 21.699219 C 36.914062 21.804688 36.691406 21.773438 36.5625 21.617188 C 36.433594 21.457031 36.460938 21.21875 36.609375 21.078125 C 36.773438 20.917969 36.9375 20.761719 37.101562 20.605469 C 37.601562 20.125 38.105469 19.640625 38.605469 19.160156 C 38.816406 18.957031 38.914062 18.675781 38.925781 18.390625 C 38.9375 18.101562 38.796875 17.828125 38.605469 17.621094 C 38.421875 17.421875 38.101562 17.300781 37.835938 17.300781 C 37.550781 17.300781 37.269531 17.425781 37.066406 17.621094 L 32.636719 20.710938 C 32.425781 20.914062 32.332031 21.195312 32.316406 21.480469 L 32.351562 27.605469 C 32.351562 27.6875 32.414062 27.75 32.496094 27.75 L 38.246094 27.75 C 38.328125 27.75 38.394531 27.683594 38.394531 27.605469 L 38.394531 25.019531 C 38.394531 24.980469 38.410156 24.941406 38.4375 24.914062 L 42.261719 21.246094 C 42.441406 21.070312 42.628906 20.902344 42.804688 20.722656 C 43.015625 20.515625 43.121094 20.222656 43.125 19.929688 C 43.125 19.890625 43.125 19.851562 43.125 19.8125 C 43.125 19.652344 43.125 19.488281 43.125 19.328125 C 43.125 18.769531 43.125 18.210938 43.125 17.652344 C 43.125 16.972656 43.125 16.296875 43.125 15.617188 C 43.125 15.039062 43.125 14.464844 43.125 13.886719 C 43.125 13.644531 43.125 13.402344 43.125 13.160156 C 43.125 12.867188 43 12.601562 42.804688 12.390625 Z M 42.804688 12.390625 " fill-opacity="1" fill-rule="nonzero"/></g><g clip-path="url(#3d347a2e5b)"><path fill="#000000" d="M 6.605469 30.652344 L 6.472656 32.667969 L 5.5 32.667969 L 5.414062 31.414062 L 3.867188 31.414062 L 3.867188 34.417969 L 4.53125 34.417969 C 4.578125 34.195312 4.621094 33.96875 4.707031 33.742188 L 5.414062 33.742188 L 5.414062 35.804688 L 4.75 35.804688 C 4.707031 35.578125 4.617188 35.355469 4.574219 35.128906 L 3.910156 35.128906 L 3.910156 38.316406 L 5.453125 38.316406 L 5.585938 36.925781 L 6.644531 36.972656 L 6.734375 39.082031 L 1.660156 39.082031 L 1.660156 38.359375 L 2.367188 38.226562 L 2.367188 31.503906 C 2.085938 31.464844 1.808594 31.417969 1.527344 31.371094 L 1.527344 30.652344 Z M 24.527344 41.902344 C 24.527344 41.679688 24.570312 41.5 24.570312 41.320312 L 25.101562 41.1875 L 25.101562 34.015625 C 24.878906 33.96875 24.703125 33.96875 24.484375 33.925781 L 24.484375 33.339844 L 26.160156 33.117188 C 26.207031 33.339844 26.292969 33.566406 26.335938 33.746094 C 26.382812 33.746094 26.382812 33.699219 26.425781 33.699219 C 26.824219 33.207031 27.351562 33.074219 27.972656 33.117188 C 28.71875 33.207031 29.164062 33.699219 29.339844 34.371094 C 29.429688 34.6875 29.515625 35 29.515625 35.3125 C 29.558594 35.988281 29.558594 36.65625 29.472656 37.285156 C 29.425781 37.507812 29.339844 37.777344 29.25 38.003906 C 28.941406 38.675781 28.410156 39.078125 27.707031 39.125 C 27.308594 39.167969 26.957031 39.125 26.601562 38.945312 L 26.511719 38.945312 L 26.511719 41.183594 C 26.703125 41.234375 26.894531 41.28125 27.085938 41.320312 C 27.085938 41.5 27.042969 41.679688 27.042969 41.902344 Z M 26.511719 38.183594 C 26.953125 38.363281 27.394531 38.40625 27.835938 38.226562 C 27.917969 38.191406 27.976562 38.132812 28.011719 38.046875 C 28.058594 37.824219 28.144531 37.601562 28.144531 37.375 C 28.234375 36.699219 28.234375 35.984375 28.191406 35.3125 C 28.1875 35.066406 28.144531 34.824219 28.058594 34.59375 C 27.925781 34.101562 27.574219 33.921875 27.085938 34.011719 L 27 34.011719 C 26.6875 34.058594 26.511719 34.28125 26.511719 34.59375 Z M 43.289062 38.316406 L 43.863281 38.453125 C 43.863281 38.675781 43.863281 38.855469 43.816406 39.078125 L 41.875 39.078125 L 41.875 35.046875 C 41.875 34.867188 41.832031 34.6875 41.785156 34.507812 C 41.742188 34.285156 41.566406 34.195312 41.34375 34.148438 C 41.125 34.105469 40.949219 34.105469 40.773438 34.195312 C 40.59375 34.285156 40.460938 34.375 40.460938 34.597656 L 40.460938 38.316406 L 41.035156 38.453125 C 41.035156 38.628906 40.992188 38.855469 40.992188 39.078125 L 38.519531 39.078125 L 38.519531 38.453125 L 39.09375 38.316406 L 39.09375 34.054688 C 38.875 34.011719 38.695312 34.011719 38.476562 33.964844 L 38.476562 33.339844 L 40.109375 33.113281 L 40.242188 33.652344 C 40.375 33.5625 40.507812 33.429688 40.640625 33.339844 C 41.167969 32.980469 41.785156 32.933594 42.359375 33.160156 C 42.847656 33.339844 43.109375 33.742188 43.199219 34.28125 C 43.242188 34.414062 43.242188 34.59375 43.242188 34.726562 L 43.242188 38.089844 C 43.289062 38.179688 43.289062 38.269531 43.289062 38.3125 Z M 9.121094 38.359375 L 9.695312 38.492188 C 9.695312 38.71875 9.648438 38.898438 9.648438 39.121094 L 7.132812 39.121094 C 7.132812 38.941406 7.132812 38.71875 7.179688 38.492188 L 7.707031 38.359375 C 7.753906 38.226562 7.753906 34.324219 7.707031 34.101562 C 7.53125 34.054688 7.3125 34.054688 7.089844 34.011719 L 7.089844 33.382812 C 7.621094 33.292969 8.148438 33.246094 8.722656 33.15625 L 8.855469 33.695312 L 8.988281 33.558594 C 9.519531 33.113281 10.136719 32.976562 10.796875 33.15625 C 11.371094 33.292969 11.679688 33.695312 11.8125 34.277344 C 11.859375 34.410156 11.859375 34.589844 11.859375 34.726562 L 11.859375 38.3125 C 12.078125 38.355469 12.253906 38.402344 12.433594 38.445312 L 12.433594 39.074219 L 10.488281 39.074219 L 10.488281 35.179688 C 10.488281 35.046875 10.488281 34.867188 10.445312 34.730469 C 10.398438 34.375 10.179688 34.195312 9.871094 34.148438 C 9.605469 34.105469 9.382812 34.148438 9.207031 34.375 C 9.117188 34.464844 9.117188 34.550781 9.117188 34.6875 L 9.117188 38.359375 Z M 52.207031 33.925781 C 51.984375 33.925781 51.808594 33.878906 51.585938 33.878906 L 51.585938 33.339844 L 53.484375 33.117188 C 53.574219 33.339844 53.664062 33.566406 53.664062 33.835938 L 53.664062 38.359375 C 53.855469 38.398438 54.046875 38.445312 54.234375 38.492188 C 54.234375 38.71875 54.191406 38.898438 54.191406 39.121094 L 52.558594 39.121094 C 52.515625 38.988281 52.46875 38.808594 52.425781 38.628906 C 52.382812 38.671875 52.335938 38.71875 52.292969 38.71875 C 51.628906 39.34375 50.75 39.253906 50.175781 38.988281 C 49.734375 38.761719 49.511719 38.402344 49.425781 37.910156 C 49.382812 37.730469 49.382812 37.597656 49.382812 37.417969 L 49.382812 33.96875 C 49.160156 33.921875 48.941406 33.921875 48.765625 33.878906 L 48.765625 33.339844 L 50.617188 33.113281 C 50.664062 33.339844 50.75 33.519531 50.75 33.742188 L 50.75 37.148438 C 50.75 37.28125 50.75 37.460938 50.796875 37.597656 C 50.839844 38 51.105469 38.273438 51.5 38.273438 C 51.632812 38.273438 51.8125 38.226562 51.941406 38.226562 C 52.074219 38.183594 52.296875 37.914062 52.296875 37.777344 L 52.296875 34.058594 C 52.207031 34.015625 52.207031 33.96875 52.207031 33.925781 Z M 21.390625 36.480469 C 21.390625 36.972656 21.480469 37.375 21.699219 37.78125 C 21.921875 38.09375 22.230469 38.273438 22.628906 38.316406 C 23.023438 38.316406 23.375 38.226562 23.730469 38.09375 C 23.777344 38.09375 23.820312 38.046875 23.90625 38.046875 C 23.996094 38.226562 24.039062 38.40625 24.128906 38.585938 C 24.039062 38.675781 23.90625 38.71875 23.820312 38.808594 C 23.113281 39.214844 22.363281 39.347656 21.613281 39.078125 C 20.949219 38.898438 20.550781 38.453125 20.242188 37.824219 C 19.933594 37.148438 19.847656 36.433594 19.933594 35.714844 C 19.980469 35.265625 20.066406 34.816406 20.242188 34.414062 C 20.554688 33.738281 21.039062 33.292969 21.746094 33.160156 C 22.449219 33.023438 23.070312 33.113281 23.597656 33.609375 C 23.90625 33.921875 24.085938 34.324219 24.214844 34.730469 C 24.347656 35.175781 24.394531 35.582031 24.394531 36.027344 C 24.394531 36.164062 24.304688 36.296875 24.261719 36.476562 L 21.390625 36.476562 Z M 23.113281 35.71875 C 23.113281 35.542969 23.070312 35.40625 23.070312 35.273438 C 23.023438 34.914062 22.980469 34.597656 22.804688 34.285156 C 22.628906 33.925781 22.316406 33.835938 21.964844 33.972656 C 21.832031 34.015625 21.746094 34.105469 21.65625 34.242188 C 21.480469 34.734375 21.390625 35.226562 21.347656 35.71875 L 21.347656 35.855469 Z M 48.40625 36.480469 C 47.4375 36.480469 46.507812 36.523438 45.539062 36.523438 C 45.492188 36.75 45.539062 36.929688 45.582031 37.105469 C 45.625 37.421875 45.757812 37.691406 45.933594 37.914062 C 46.15625 38.183594 46.421875 38.316406 46.773438 38.316406 C 47.128906 38.316406 47.480469 38.273438 47.832031 38.140625 C 47.921875 38.09375 47.964844 38.09375 48.054688 38.046875 C 48.144531 38.226562 48.1875 38.40625 48.273438 38.585938 C 48.230469 38.585938 48.230469 38.632812 48.1875 38.632812 C 47.570312 39.078125 46.90625 39.214844 46.15625 39.167969 C 45.273438 39.078125 44.65625 38.542969 44.347656 37.691406 C 43.90625 36.613281 43.949219 35.539062 44.390625 34.460938 C 44.65625 33.789062 45.136719 33.296875 45.890625 33.164062 C 46.464844 33.027344 47.039062 33.074219 47.523438 33.433594 C 47.878906 33.699219 48.097656 34.058594 48.273438 34.417969 C 48.449219 34.910156 48.535156 35.492188 48.535156 36.03125 C 48.535156 36.164062 48.449219 36.300781 48.40625 36.480469 Z M 47.304688 35.71875 C 47.304688 35.316406 47.257812 34.960938 47.128906 34.601562 C 47.082031 34.421875 46.996094 34.242188 46.863281 34.105469 C 46.640625 33.792969 45.933594 33.882812 45.847656 34.285156 C 45.757812 34.601562 45.671875 34.914062 45.625 35.273438 C 45.582031 35.449219 45.582031 35.628906 45.582031 35.855469 Z M 38.253906 36.480469 C 37.28125 36.480469 36.355469 36.523438 35.382812 36.523438 C 35.382812 37.0625 35.472656 37.511719 35.78125 37.914062 C 36.003906 38.183594 36.265625 38.316406 36.578125 38.316406 C 36.929688 38.316406 37.324219 38.273438 37.636719 38.136719 C 37.726562 38.09375 37.769531 38.09375 37.855469 38.046875 C 37.945312 38.226562 37.988281 38.40625 38.078125 38.585938 C 37.988281 38.632812 37.945312 38.675781 37.902344 38.71875 C 37.238281 39.125 36.53125 39.257812 35.78125 39.125 C 35.074219 38.988281 34.589844 38.539062 34.28125 37.914062 C 33.972656 37.238281 33.882812 36.570312 33.929688 35.851562 C 33.972656 35.359375 34.0625 34.910156 34.238281 34.460938 C 34.457031 33.925781 34.8125 33.519531 35.339844 33.296875 C 35.957031 33.027344 36.578125 33.027344 37.195312 33.34375 C 37.59375 33.566406 37.859375 33.925781 38.035156 34.328125 C 38.253906 34.867188 38.34375 35.449219 38.34375 36.03125 C 38.386719 36.167969 38.296875 36.300781 38.253906 36.480469 Z M 37.152344 35.71875 C 37.152344 35.542969 37.105469 35.363281 37.105469 35.183594 C 37.0625 34.867188 37.019531 34.554688 36.839844 34.285156 C 36.621094 33.925781 36.3125 33.792969 35.957031 33.972656 C 35.871094 34.015625 35.78125 34.0625 35.738281 34.195312 C 35.5625 34.554688 35.472656 34.957031 35.429688 35.363281 C 35.429688 35.496094 35.382812 35.628906 35.382812 35.808594 C 35.957031 35.808594 36.53125 35.765625 37.148438 35.71875 Z M 17.640625 33.164062 L 17.773438 33.699219 C 17.859375 33.65625 17.902344 33.609375 17.992188 33.566406 C 18.390625 33.34375 18.820312 33.207031 19.273438 33.164062 C 19.492188 33.117188 19.667969 33.207031 19.800781 33.386719 L 19.625 34.957031 C 19.316406 34.957031 19.007812 34.910156 18.699219 34.910156 C 18.65625 34.640625 18.609375 34.375 18.609375 34.058594 C 18.390625 34.058594 18.214844 34.148438 18.035156 34.285156 L 18.035156 38.316406 L 18.609375 38.453125 C 18.609375 38.628906 18.609375 38.855469 18.566406 39.035156 L 16.09375 39.035156 L 16.09375 38.453125 L 16.621094 38.316406 L 16.621094 34.058594 C 16.402344 34.015625 16.226562 34.015625 16.003906 33.96875 L 16.003906 33.34375 C 16.535156 33.34375 17.0625 33.253906 17.636719 33.164062 Z M 54.496094 39.078125 C 54.496094 38.855469 54.496094 38.675781 54.542969 38.496094 L 55.070312 38.363281 L 55.070312 34.105469 C 54.894531 34.058594 54.671875 34.058594 54.453125 34.015625 L 54.453125 33.386719 L 56.128906 33.164062 L 56.261719 33.65625 L 56.96875 33.339844 C 57.234375 33.25 57.457031 33.207031 57.71875 33.164062 C 57.9375 33.117188 58.113281 33.164062 58.246094 33.386719 L 58.070312 34.957031 C 57.761719 34.957031 57.453125 34.910156 57.144531 34.910156 C 57.097656 34.640625 57.054688 34.328125 57.054688 34.058594 L 56.480469 34.28125 L 56.480469 38.359375 C 56.671875 38.410156 56.863281 38.453125 57.054688 38.492188 C 57.054688 38.671875 57.011719 38.898438 57.011719 39.078125 Z M 32.558594 34.058594 L 31.984375 34.285156 L 31.984375 38.359375 L 32.558594 38.492188 C 32.558594 38.71875 32.515625 38.898438 32.515625 39.078125 L 30.042969 39.078125 L 30.042969 38.492188 L 30.570312 38.359375 L 30.570312 34.105469 C 30.351562 34.058594 30.175781 34.058594 29.953125 34.015625 L 29.953125 33.386719 L 31.632812 33.164062 L 31.765625 33.65625 L 32.25 33.386719 C 32.558594 33.25 32.882812 33.160156 33.222656 33.117188 C 33.484375 33.117188 33.664062 33.207031 33.792969 33.386719 L 33.617188 34.957031 C 33.308594 34.957031 33 34.910156 32.691406 34.910156 Z M 14.460938 32.042969 L 14.460938 33.253906 L 15.476562 33.253906 C 15.429688 33.519531 15.429688 33.746094 15.429688 34.011719 C 15.121094 34.011719 14.8125 34.058594 14.503906 34.101562 L 14.503906 37.914062 C 14.546875 38.140625 14.679688 38.316406 14.945312 38.316406 L 15.519531 38.316406 C 15.519531 38.542969 15.5625 38.722656 15.5625 38.945312 C 15.429688 39.035156 15.253906 39.078125 15.078125 39.125 C 14.726562 39.214844 14.371094 39.214844 14.019531 39.167969 C 13.488281 39.078125 13.136719 38.722656 13.046875 38.140625 L 13.046875 34.105469 C 12.828125 34.058594 12.605469 34.015625 12.382812 34.015625 C 12.382812 33.789062 12.382812 33.519531 12.425781 33.296875 C 12.691406 33.296875 12.914062 33.25 13.175781 33.25 L 13.484375 32.132812 L 14.453125 32.042969 Z M 14.460938 32.042969 " fill-opacity="1" fill-rule="evenodd"/></g><g clip-path="url(#62346a77b4)"><path fill="#9d9e9e" d="M 27.066406 41.003906 C 27.066406 41.117188 26.953125 41.199219 26.84375 41.199219 C 26.707031 41.199219 26.59375 41.117188 26.59375 41.003906 C 26.59375 40.890625 26.707031 40.804688 26.84375 40.804688 C 26.980469 40.804688 27.066406 40.890625 27.066406 41.003906 Z M 26.675781 41.003906 C 26.675781 41.085938 26.761719 41.144531 26.84375 41.144531 C 26.925781 41.144531 27.011719 41.085938 27.011719 41.003906 C 27.011719 40.917969 26.925781 40.863281 26.84375 40.863281 C 26.734375 40.863281 26.675781 40.917969 26.675781 41.003906 Z M 26.816406 41.117188 L 26.761719 41.117188 L 26.761719 40.917969 L 26.84375 40.917969 C 26.898438 40.917969 26.898438 40.917969 26.925781 40.945312 L 26.953125 40.976562 C 26.953125 41.003906 26.925781 41.003906 26.898438 41.03125 C 26.925781 41.03125 26.925781 41.058594 26.953125 41.085938 C 26.953125 41.117188 26.953125 41.117188 26.980469 41.144531 L 26.898438 41.144531 C 26.898438 41.144531 26.898438 41.117188 26.871094 41.117188 C 26.871094 41.085938 26.84375 41.085938 26.84375 41.085938 L 26.816406 41.085938 Z M 26.816406 41.003906 C 26.871094 41.003906 26.871094 41.003906 26.871094 40.976562 C 26.871094 40.945312 26.84375 40.945312 26.84375 40.945312 L 26.816406 40.945312 Z M 26.816406 41.003906 " fill-opacity="1" fill-rule="nonzero"/></g></svg>