<svg xmlns="http://www.w3.org/2000/svg" xmlns:xlink="http://www.w3.org/1999/xlink" width="80" zoomAndPan="magnify" viewBox="0 0 60 44.999999" height="60" preserveAspectRatio="xMidYMid meet" version="1.0"><defs><clipPath id="426fd306a5"><path d="M 26 0.453125 L 28 0.453125 L 28 5 L 26 5 Z M 26 0.453125 " clip-rule="nonzero"/></clipPath><clipPath id="81c81a57c6"><path d="M 14 35 L 25 35 L 25 44.703125 L 14 44.703125 Z M 14 35 " clip-rule="nonzero"/></clipPath><clipPath id="84bbb0f4cf"><path d="M 41 35 L 51 35 L 51 44.703125 L 41 44.703125 Z M 41 35 " clip-rule="nonzero"/></clipPath><clipPath id="ad388702fb"><path d="M 30 35 L 40 35 L 40 44.703125 L 30 44.703125 Z M 30 35 " clip-rule="nonzero"/></clipPath><clipPath id="79ae587f6b"><path d="M 5 35 L 15 35 L 15 44.703125 L 5 44.703125 Z M 5 35 " clip-rule="nonzero"/></clipPath><clipPath id="db2c54ac4f"><path d="M 51 35 L 55.195312 35 L 55.195312 44.703125 L 51 44.703125 Z M 51 35 " clip-rule="nonzero"/></clipPath><clipPath id="fa8ff05b15"><path d="M 25 35 L 30 35 L 30 44.703125 L 25 44.703125 Z M 25 35 " clip-rule="nonzero"/></clipPath><clipPath id="97a9d0f282"><path d="M 8.246094 19.3125 L 10.355469 19.3125 L 10.355469 21.175781 L 8.246094 21.175781 Z M 8.246094 19.3125 " clip-rule="nonzero"/></clipPath><clipPath id="ee792e3fb9"><path d="M 10.351562 20.023438 C 9.449219 21.523438 8.550781 21.226562 8.324219 20.925781 C 8.175781 20.625 8.324219 19.648438 8.625 19.425781 C 8.925781 19.199219 10.125 19.5 10.125 19.5 " clip-rule="nonzero"/></clipPath><clipPath id="774e092640"><path d="M 0.246094 0.3125 L 2.355469 0.3125 L 2.355469 2.175781 L 0.246094 2.175781 Z M 0.246094 0.3125 " clip-rule="nonzero"/></clipPath><clipPath id="ab1548ab07"><path d="M 2.351562 1.023438 C 1.449219 2.523438 0.550781 2.226562 0.324219 1.925781 C 0.175781 1.625 0.324219 0.648438 0.625 0.425781 C 0.925781 0.199219 2.125 0.5 2.125 0.5 " clip-rule="nonzero"/></clipPath><clipPath id="720c69b5d3"><rect x="0" width="3" y="0" height="3"/></clipPath></defs><path fill="#000000" d="M 17.914062 34.710938 C 16.910156 34.710938 15.992188 34.695312 15.078125 34.710938 C 14.5625 34.726562 14.605469 34.375 14.605469 34.039062 C 14.605469 31.875 14.605469 29.722656 14.605469 27.558594 C 14.605469 24.859375 14.605469 22.171875 14.605469 19.472656 C 14.605469 16.789062 15.824219 15.582031 18.523438 15.582031 C 19.132812 15.582031 19.742188 15.566406 20.351562 15.582031 C 22.273438 15.660156 23.644531 17.03125 23.644531 18.96875 C 23.660156 23.972656 23.644531 28.976562 23.660156 33.980469 C 23.660156 34.558594 23.492188 34.742188 22.929688 34.710938 C 22.304688 34.664062 21.664062 34.679688 21.023438 34.710938 C 20.503906 34.742188 20.351562 34.527344 20.367188 34.039062 C 20.398438 33.382812 20.382812 32.714844 20.367188 32.058594 C 20.339844 31.082031 19.894531 30.59375 19.089844 30.609375 C 18.3125 30.625 17.914062 31.097656 17.914062 32.042969 C 17.914062 32.910156 17.914062 33.75 17.914062 34.710938 Z M 17.960938 29.570312 C 18.660156 29.570312 19.253906 29.554688 19.867188 29.570312 C 20.292969 29.585938 20.367188 29.371094 20.367188 29.007812 C 20.367188 25.347656 20.367188 21.683594 20.351562 18.039062 C 20.351562 17.09375 19.910156 16.652344 19.101562 16.667969 C 18.265625 16.683594 17.914062 17.09375 17.914062 18.054688 C 17.914062 21.640625 17.914062 25.222656 17.914062 28.792969 C 17.914062 29.035156 17.945312 29.25 17.960938 29.570312 Z M 17.960938 29.570312 " fill-opacity="1" fill-rule="nonzero"/><path fill="#000000" d="M 46.511719 27.144531 C 47.652344 27.144531 48.660156 27.144531 49.710938 27.144531 C 49.710938 29.664062 49.710938 32.148438 49.710938 34.757812 C 49.34375 34.757812 48.964844 34.757812 48.597656 34.757812 C 47.121094 34.757812 45.65625 34.773438 44.179688 34.757812 C 42.179688 34.742188 40.808594 33.339844 40.792969 31.324219 C 40.792969 27.207031 40.792969 23.089844 40.792969 18.984375 C 40.792969 17.277344 41.890625 15.84375 43.582031 15.722656 C 45.597656 15.566406 47.625 15.691406 49.695312 15.691406 C 49.695312 17.566406 49.695312 19.414062 49.695312 21.304688 C 48.675781 21.304688 47.683594 21.304688 46.570312 21.304688 C 46.570312 19.839844 46.570312 18.359375 46.570312 16.789062 C 45.929688 16.789062 45.367188 16.710938 44.847656 16.804688 C 44.253906 16.925781 44.027344 17.429688 44.011719 18.023438 C 44.011719 19.550781 44.027344 21.074219 43.996094 22.601562 C 43.980469 23.117188 44.195312 23.257812 44.679688 23.242188 C 45.824219 23.210938 46.953125 23.242188 48.140625 23.242188 C 48.140625 24.003906 48.140625 24.675781 48.140625 25.40625 C 47.667969 25.085938 47.226562 24.75 46.753906 24.492188 C 46.375 24.292969 45.945312 24.171875 45.519531 24.109375 C 44.527344 23.972656 44.027344 24.414062 44.011719 25.421875 C 43.996094 27.601562 44.011719 29.785156 44.011719 31.980469 C 44.011719 33.339844 44.375 33.6875 45.734375 33.675781 C 45.960938 33.675781 46.191406 33.660156 46.496094 33.644531 C 46.511719 31.476562 46.511719 29.355469 46.511719 27.144531 Z M 46.511719 27.144531 " fill-opacity="1" fill-rule="nonzero"/><path fill="#000000" d="M 30.398438 34.757812 C 30.398438 28.367188 30.398438 22.050781 30.398438 15.628906 C 31.253906 15.628906 32.074219 15.628906 32.914062 15.628906 C 33.933594 15.628906 34.941406 15.628906 35.960938 15.628906 C 37.792969 15.613281 39.375 17.171875 39.300781 19.015625 C 39.207031 21.808594 39.207031 24.597656 39.300781 27.390625 C 39.363281 29.023438 37.882812 30.714844 36.039062 30.683594 C 35.261719 30.667969 34.46875 30.683594 33.570312 30.683594 C 33.570312 31.828125 33.539062 32.910156 33.585938 33.996094 C 33.613281 34.605469 33.402344 34.804688 32.808594 34.757812 C 32.015625 34.710938 31.238281 34.757812 30.398438 34.757812 Z M 33.585938 29.601562 C 34.101562 29.601562 34.53125 29.632812 34.957031 29.601562 C 35.640625 29.554688 36.039062 29.144531 36.039062 28.472656 C 36.054688 24.933594 36.054688 21.410156 36.039062 17.871094 C 36.039062 17.292969 35.71875 16.878906 35.15625 16.789062 C 34.652344 16.710938 34.117188 16.773438 33.570312 16.773438 C 33.585938 21.074219 33.585938 25.285156 33.585938 29.601562 Z M 33.585938 29.601562 " fill-opacity="1" fill-rule="nonzero"/><path fill="#000000" d="M 13.90625 15.628906 C 13.90625 16.5 13.90625 17.230469 13.90625 17.949219 C 13.386719 17.597656 12.914062 17.15625 12.351562 16.910156 C 11.3125 16.46875 11.117188 16.636719 11.117188 17.75 C 11.117188 23.089844 11.117188 28.410156 11.117188 33.75 C 11.117188 34.054688 11.117188 34.34375 11.117188 34.695312 C 10.003906 34.695312 8.980469 34.695312 7.882812 34.695312 C 7.882812 28.714844 7.882812 22.769531 7.882812 16.773438 C 6.648438 16.621094 5.828125 17.171875 5.035156 18.054688 C 5.035156 17.335938 5.019531 16.636719 5.050781 15.917969 C 5.050781 15.8125 5.292969 15.644531 5.414062 15.644531 C 8.21875 15.628906 11.023438 15.628906 13.90625 15.628906 Z M 13.90625 15.628906 " fill-opacity="1" fill-rule="nonzero"/><path fill="#000000" d="M 54.648438 15.628906 C 54.648438 22.035156 54.648438 28.351562 54.648438 34.742188 C 53.703125 34.742188 52.789062 34.757812 51.890625 34.726562 C 51.753906 34.726562 51.523438 34.4375 51.496094 34.253906 C 51.433594 33.828125 51.480469 33.398438 51.480469 32.957031 C 51.480469 27.449219 51.496094 21.945312 51.464844 16.421875 C 51.464844 15.796875 51.632812 15.566406 52.273438 15.613281 C 53.050781 15.675781 53.828125 15.628906 54.648438 15.628906 Z M 54.648438 15.628906 " fill-opacity="1" fill-rule="nonzero"/><path fill="#000000" d="M 24.925781 32.621094 L 24.925781 34.773438 L 26.359375 34.773438 L 26.359375 32.925781 L 27.714844 32.925781 L 27.714844 34.757812 C 28.203125 34.742188 28.707031 34.742188 29.195312 34.742188 C 29.164062 34.023438 29.117188 33.324219 29.085938 32.605469 C 29.269531 32.5625 29.40625 32.53125 29.53125 32.5 L 29.53125 31.203125 C 29.347656 31.1875 29.210938 31.1875 29.085938 31.1875 C 28.523438 31.171875 27.976562 31.25 27.457031 30.851562 C 27.257812 30.699219 26.738281 30.730469 26.542969 30.882812 C 26.113281 31.21875 25.671875 31.171875 25.199219 31.1875 C 24.988281 31.1875 24.789062 31.1875 24.484375 31.1875 C 24.726562 31.675781 24.179688 32.300781 24.925781 32.621094 Z M 29.027344 32.074219 C 28.753906 31.964844 28.25 32.363281 28.1875 31.691406 C 29.011719 31.539062 29.101562 31.585938 29.027344 32.074219 Z M 27.074219 31.171875 C 27.410156 31.1875 27.714844 31.492188 27.714844 31.828125 C 27.714844 32.210938 27.410156 32.515625 27.046875 32.515625 C 26.695312 32.515625 26.359375 32.195312 26.359375 31.828125 C 26.359375 31.507812 26.726562 31.15625 27.074219 31.171875 Z M 25.03125 31.660156 L 25.855469 31.660156 C 25.992188 32.085938 25.734375 32.085938 25.460938 32.085938 C 25.199219 32.074219 24.910156 32.117188 25.03125 31.660156 Z M 25.03125 31.660156 " fill-opacity="1" fill-rule="nonzero"/><path fill="#000000" d="M 29.53125 9.238281 C 29.347656 10.03125 29.195312 10.761719 29.027344 11.496094 C 28.402344 11.710938 27.59375 11.207031 27.046875 11.984375 C 26.511719 11.222656 25.734375 11.695312 25.078125 11.511719 C 24.910156 10.792969 24.742188 10.0625 24.574219 9.328125 C 26.085938 9.160156 26.753906 9.101562 26.878906 10.277344 C 27.046875 10.109375 27.210938 10.03125 27.242188 9.910156 C 27.351562 9.46875 27.609375 9.238281 28.066406 9.253906 C 28.539062 9.238281 29.011719 9.238281 29.53125 9.238281 Z M 29.53125 9.238281 " fill-opacity="1" fill-rule="nonzero"/><path fill="#000000" d="M 27.046875 28.394531 C 26.496094 27.617188 25.71875 28.089844 25.078125 27.894531 C 24.910156 27.160156 24.742188 26.445312 24.574219 25.710938 C 26.113281 25.558594 26.726562 25.484375 26.894531 26.671875 C 27.058594 26.503906 27.210938 26.414062 27.257812 26.292969 C 27.378906 25.863281 27.625 25.621094 28.097656 25.636719 C 28.554688 25.652344 29.011719 25.636719 29.542969 25.636719 C 29.378906 26.414062 29.210938 27.128906 29.042969 27.894531 C 28.433594 28.136719 27.609375 27.589844 27.046875 28.394531 Z M 27.046875 28.394531 " fill-opacity="1" fill-rule="nonzero"/><path fill="#000000" d="M 27.046875 14.730469 C 26.496094 13.921875 25.6875 14.425781 25.0625 14.210938 C 24.894531 13.480469 24.726562 12.761719 24.558594 12.03125 C 26.085938 11.890625 26.710938 11.832031 26.863281 12.960938 C 27.03125 12.824219 27.199219 12.746094 27.242188 12.640625 C 27.394531 12.183594 27.65625 11.9375 28.15625 11.96875 C 28.601562 12 29.027344 11.96875 29.53125 11.96875 C 29.4375 12.378906 29.347656 12.746094 29.269531 13.113281 C 29.195312 13.480469 29.117188 13.84375 29.027344 14.226562 C 28.402344 14.425781 27.578125 13.90625 27.046875 14.730469 Z M 27.046875 14.730469 " fill-opacity="1" fill-rule="nonzero"/><path fill="#000000" d="M 26.96875 15.675781 C 27.058594 15.566406 27.210938 15.492188 27.242188 15.371094 C 27.378906 14.925781 27.625 14.683594 28.113281 14.699219 C 28.554688 14.714844 28.996094 14.699219 29.515625 14.699219 C 29.347656 15.460938 29.179688 16.179688 29.011719 16.957031 C 28.691406 16.957031 28.324219 16.910156 27.976562 16.972656 C 27.65625 17.03125 27.335938 17.183594 26.96875 17.324219 C 26.542969 16.636719 25.734375 17.09375 25.0625 16.925781 C 24.894531 16.195312 24.726562 15.476562 24.546875 14.699219 C 25.125 14.699219 25.65625 14.683594 26.191406 14.699219 C 26.542969 14.730469 26.785156 15.082031 26.96875 15.675781 Z M 26.96875 15.675781 " fill-opacity="1" fill-rule="nonzero"/><path fill="#000000" d="M 24.546875 17.445312 C 25.125 17.445312 25.644531 17.398438 26.160156 17.460938 C 26.617188 17.503906 26.847656 17.824219 26.9375 18.390625 C 27.046875 18.285156 27.199219 18.207031 27.242188 18.085938 C 27.378906 17.671875 27.625 17.429688 28.082031 17.445312 C 28.539062 17.460938 28.996094 17.445312 29.515625 17.445312 C 29.347656 18.191406 29.179688 18.910156 29.011719 19.671875 C 28.417969 19.886719 27.59375 19.367188 27.046875 20.175781 C 26.527344 19.414062 25.734375 19.824219 25.046875 19.671875 C 24.910156 18.96875 24.742188 18.238281 24.546875 17.445312 Z M 24.546875 17.445312 " fill-opacity="1" fill-rule="nonzero"/><path fill="#000000" d="M 24.558594 22.9375 C 25.140625 22.9375 25.671875 22.90625 26.191406 22.949219 C 26.664062 22.996094 26.863281 23.347656 26.847656 23.820312 C 26.894531 23.835938 26.9375 23.867188 26.984375 23.882812 C 27.074219 23.757812 27.210938 23.652344 27.257812 23.515625 C 27.378906 23.164062 27.5625 22.921875 27.976562 22.921875 C 28.476562 22.921875 28.980469 22.921875 29.53125 22.921875 C 29.363281 23.683594 29.195312 24.398438 29.027344 25.148438 C 28.449219 25.375 27.625 24.84375 27.074219 25.621094 C 26.542969 24.871094 25.75 25.316406 25.078125 25.148438 C 24.910156 24.445312 24.742188 23.730469 24.558594 22.9375 Z M 24.558594 22.9375 " fill-opacity="1" fill-rule="nonzero"/><path fill="#000000" d="M 26.953125 21.136719 C 27.058594 21.027344 27.210938 20.953125 27.257812 20.832031 C 27.410156 20.433594 27.625 20.160156 28.097656 20.191406 C 28.554688 20.207031 29.011719 20.191406 29.53125 20.191406 C 29.363281 20.953125 29.195312 21.667969 29.027344 22.433594 C 28.402344 22.628906 27.578125 22.128906 27.03125 22.921875 C 26.496094 22.140625 25.71875 22.628906 25.078125 22.433594 C 24.910156 21.714844 24.742188 21 24.558594 20.207031 C 25.140625 20.207031 25.6875 20.160156 26.238281 20.21875 C 26.664062 20.28125 26.878906 20.617188 26.847656 21.089844 C 26.878906 21.089844 26.90625 21.105469 26.953125 21.136719 Z M 26.953125 21.136719 " fill-opacity="1" fill-rule="nonzero"/><path fill="#000000" d="M 25.078125 30.730469 C 24.878906 29.859375 24.726562 29.144531 24.546875 28.367188 C 25.140625 28.367188 25.703125 28.320312 26.238281 28.382812 C 26.695312 28.441406 26.816406 28.839844 26.832031 29.265625 C 27.089844 29.355469 27.242188 29.34375 27.289062 29.007812 C 27.335938 28.59375 27.578125 28.335938 28.050781 28.367188 C 28.523438 28.382812 28.996094 28.367188 29.53125 28.367188 C 29.363281 29.128906 29.195312 29.859375 29.027344 30.625 C 28.644531 30.667969 28.265625 30.730469 27.867188 30.457031 C 27.351562 30.105469 26.800781 30.179688 26.238281 30.425781 C 25.871094 30.578125 25.460938 30.636719 25.078125 30.730469 Z M 25.078125 30.730469 " fill-opacity="1" fill-rule="nonzero"/><path fill="#000000" d="M 27.746094 5.179688 C 27.699219 6.066406 27.65625 6.933594 27.609375 7.835938 C 27.226562 7.835938 26.894531 7.835938 26.496094 7.835938 C 26.433594 6.964844 26.390625 6.097656 26.328125 5.179688 C 26.816406 5.179688 27.242188 5.179688 27.746094 5.179688 Z M 27.746094 5.179688 " fill-opacity="1" fill-rule="nonzero"/><g clip-path="url(#426fd306a5)"><path fill="#000000" d="M 26.296875 4.523438 C 26.433594 4.386719 26.585938 4.234375 26.832031 3.992188 C 26.832031 2.96875 26.832031 1.78125 26.832031 0.589844 C 27.210938 0.453125 27.289062 0.621094 27.289062 0.925781 C 27.273438 1.824219 27.273438 2.726562 27.289062 3.625 C 27.289062 3.882812 27.167969 4.203125 27.625 4.25 C 27.671875 4.25 27.699219 4.464844 27.761719 4.617188 C 27.273438 4.617188 26.832031 4.617188 26.40625 4.617188 C 26.359375 4.601562 26.328125 4.570312 26.296875 4.523438 Z M 26.296875 4.523438 " fill-opacity="1" fill-rule="nonzero"/></g><path fill="#000000" d="M 28.171875 8.339844 C 28.171875 8.492188 28.171875 8.613281 28.171875 8.660156 C 27.761719 8.8125 27.378906 8.964844 27.03125 9.101562 C 26.726562 8.980469 26.390625 8.828125 25.960938 8.660156 C 25.960938 8.644531 25.949219 8.519531 25.949219 8.351562 C 26.695312 8.339844 27.425781 8.339844 28.171875 8.339844 Z M 28.171875 8.339844 " fill-opacity="1" fill-rule="nonzero"/><g clip-path="url(#81c81a57c6)"><path fill="#000000" d="M 23.417969 44.625 C 23.371094 44.625 23.324219 44.625 23.28125 44.625 C 22.699219 44.609375 22.074219 44.609375 21.390625 44.625 C 21.023438 44.640625 20.8125 44.59375 20.703125 44.472656 C 20.644531 44.398438 20.613281 44.304688 20.628906 44.199219 C 20.65625 43.878906 20.644531 43.558594 20.628906 43.300781 C 20.597656 42.917969 20.214844 42.734375 19.46875 42.75 C 18.417969 42.765625 18.402344 43.160156 18.402344 43.300781 C 18.402344 43.558594 18.402344 43.832031 18.402344 44.105469 L 18.402344 44.625 L 17.394531 44.625 C 16.726562 44.625 16.101562 44.625 15.460938 44.625 C 15.1875 44.625 15.035156 44.59375 14.957031 44.503906 C 14.867188 44.414062 14.882812 44.304688 14.882812 44.230469 L 14.882812 40.125 C 14.882812 39.257812 14.882812 38.371094 14.882812 37.503906 C 14.882812 36.191406 16.132812 35.597656 18.90625 35.597656 L 19.410156 35.597656 C 19.851562 35.597656 20.292969 35.597656 20.734375 35.597656 C 22.730469 35.625 24.132812 36.3125 24.132812 37.257812 C 24.132812 38.21875 24.132812 39.179688 24.132812 40.140625 C 24.132812 41.453125 24.132812 42.8125 24.148438 44.152344 C 24.148438 44.289062 24.117188 44.382812 24.042969 44.457031 C 23.921875 44.582031 23.738281 44.625 23.417969 44.625 Z M 22.367188 44.382812 C 22.683594 44.382812 22.992188 44.382812 23.296875 44.398438 C 23.617188 44.414062 23.8125 44.382812 23.875 44.304688 C 23.890625 44.289062 23.921875 44.261719 23.921875 44.167969 C 23.90625 42.824219 23.90625 41.46875 23.90625 40.15625 C 23.90625 39.195312 23.90625 38.234375 23.90625 37.273438 C 23.90625 36.464844 22.5625 35.871094 20.734375 35.839844 C 20.292969 35.839844 19.851562 35.839844 19.410156 35.839844 L 18.90625 35.839844 C 16.285156 35.839844 15.109375 36.359375 15.109375 37.519531 C 15.109375 38.386719 15.109375 39.273438 15.109375 40.140625 L 15.109375 44.246094 C 15.109375 44.304688 15.109375 44.335938 15.125 44.351562 C 15.140625 44.367188 15.214844 44.414062 15.476562 44.414062 C 16.117188 44.414062 16.742188 44.414062 17.410156 44.414062 L 18.1875 44.414062 L 18.1875 44.121094 C 18.1875 43.832031 18.1875 43.574219 18.1875 43.3125 C 18.1875 42.8125 18.632812 42.550781 19.484375 42.535156 C 19.5 42.535156 19.515625 42.535156 19.53125 42.535156 C 20.597656 42.535156 20.855469 42.949219 20.871094 43.3125 C 20.886719 43.574219 20.902344 43.910156 20.871094 44.246094 C 20.871094 44.304688 20.886719 44.335938 20.886719 44.351562 C 20.933594 44.398438 21.039062 44.441406 21.390625 44.425781 C 21.726562 44.382812 22.0625 44.382812 22.367188 44.382812 Z M 20.277344 42.246094 C 20.261719 42.246094 20.246094 42.246094 20.230469 42.246094 C 19.820312 42.246094 19.394531 42.246094 18.949219 42.246094 C 18.753906 42.246094 18.539062 42.246094 18.324219 42.246094 L 18.21875 42.246094 L 18.203125 42.140625 C 18.203125 42.09375 18.1875 42.046875 18.1875 42.003906 C 18.171875 41.910156 18.160156 41.851562 18.160156 41.773438 C 18.160156 40.125 18.160156 38.480469 18.160156 36.832031 C 18.160156 36.175781 18.859375 36.085938 19.46875 36.085938 C 20.367188 36.085938 20.824219 36.328125 20.839844 36.832031 C 20.855469 37.898438 20.855469 38.996094 20.855469 40.050781 C 20.855469 40.660156 20.855469 41.269531 20.855469 41.878906 C 20.855469 41.988281 20.824219 42.0625 20.765625 42.125 C 20.6875 42.214844 20.519531 42.246094 20.277344 42.246094 Z M 19.5 42.019531 C 19.742188 42.019531 19.988281 42.019531 20.230469 42.019531 C 20.492188 42.019531 20.582031 41.988281 20.597656 41.957031 C 20.613281 41.941406 20.613281 41.925781 20.613281 41.878906 C 20.613281 41.269531 20.613281 40.660156 20.613281 40.050781 C 20.613281 38.996094 20.613281 37.914062 20.597656 36.847656 C 20.597656 36.496094 20.214844 36.328125 19.484375 36.328125 C 19.484375 36.328125 19.46875 36.328125 19.46875 36.328125 C 18.523438 36.328125 18.386719 36.585938 18.386719 36.847656 C 18.386719 38.496094 18.386719 40.140625 18.386719 41.789062 C 18.386719 41.851562 18.402344 41.910156 18.402344 41.988281 C 18.402344 42.003906 18.402344 42.019531 18.402344 42.03125 C 18.585938 42.03125 18.753906 42.03125 18.921875 42.03125 C 19.132812 42.019531 19.316406 42.019531 19.5 42.019531 Z M 19.5 42.019531 " fill-opacity="1" fill-rule="nonzero"/></g><g clip-path="url(#84bbb0f4cf)"><path fill="#000000" d="M 46.34375 44.625 C 45.75 44.625 45.152344 44.625 44.558594 44.625 C 42.472656 44.609375 41.070312 43.941406 41.070312 42.933594 C 41.070312 40.902344 41.070312 39.042969 41.070312 37.257812 C 41.070312 36.375 42.257812 35.703125 43.964844 35.640625 C 45.367188 35.597656 46.816406 35.609375 48.203125 35.609375 C 48.828125 35.609375 49.453125 35.625 50.078125 35.625 L 50.199219 35.625 L 50.199219 38.433594 L 46.84375 38.433594 L 46.84375 36.359375 C 46.679688 36.359375 46.527344 36.359375 46.375 36.359375 C 45.976562 36.34375 45.597656 36.34375 45.246094 36.375 C 44.789062 36.417969 44.511719 36.570312 44.511719 36.816406 C 44.511719 37.074219 44.511719 37.335938 44.511719 37.59375 C 44.511719 38.019531 44.511719 38.480469 44.5 38.921875 C 44.5 38.980469 44.511719 38.996094 44.527344 39.011719 C 44.621094 39.105469 44.957031 39.105469 45.0625 39.105469 C 45.871094 39.105469 46.664062 39.105469 47.5 39.105469 C 47.835938 39.105469 48.171875 39.105469 48.523438 39.105469 L 48.644531 39.105469 L 48.644531 40.371094 L 48.492188 40.324219 C 48.339844 40.277344 48.203125 40.234375 48.066406 40.1875 C 47.746094 40.082031 47.441406 39.988281 47.105469 39.914062 C 46.753906 39.835938 46.328125 39.777344 45.902344 39.746094 C 45.09375 39.699219 44.773438 39.835938 44.636719 39.957031 C 44.558594 40.035156 44.511719 40.125 44.511719 40.234375 C 44.5 41.042969 44.5 41.851562 44.511719 42.644531 L 44.511719 43.253906 C 44.511719 43.542969 44.589844 43.679688 44.804688 43.773438 C 45.03125 43.878906 45.429688 43.910156 46.128906 43.910156 C 46.28125 43.910156 46.417969 43.910156 46.601562 43.894531 L 46.785156 43.894531 L 46.785156 40.917969 L 50.214844 40.917969 L 50.214844 44.640625 L 47.636719 44.640625 C 47.195312 44.625 46.769531 44.625 46.34375 44.625 Z M 46.34375 35.839844 C 45.550781 35.839844 44.757812 35.855469 43.964844 35.871094 C 42.410156 35.917969 41.296875 36.511719 41.28125 37.257812 C 41.28125 39.042969 41.28125 40.902344 41.28125 42.933594 C 41.28125 43.785156 42.625 44.382812 44.542969 44.398438 C 45.566406 44.398438 46.585938 44.398438 47.609375 44.398438 L 49.957031 44.398438 L 49.957031 41.132812 L 46.984375 41.132812 L 46.984375 44.105469 L 46.585938 44.121094 C 46.402344 44.121094 46.265625 44.136719 46.113281 44.136719 C 45.367188 44.136719 44.957031 44.09375 44.695312 43.96875 C 44.40625 43.832031 44.285156 43.621094 44.285156 43.238281 L 44.285156 42.628906 C 44.285156 41.835938 44.285156 41.027344 44.285156 40.21875 C 44.285156 40.035156 44.347656 39.898438 44.484375 39.777344 C 44.726562 39.546875 45.199219 39.457031 45.914062 39.5 C 46.359375 39.53125 46.800781 39.59375 47.164062 39.683594 C 47.5 39.761719 47.804688 39.867188 48.140625 39.972656 C 48.234375 40.003906 48.324219 40.035156 48.414062 40.066406 L 48.414062 39.347656 C 48.109375 39.347656 47.804688 39.347656 47.515625 39.347656 C 46.679688 39.347656 45.886719 39.347656 45.078125 39.347656 C 44.742188 39.347656 44.5 39.332031 44.375 39.195312 C 44.316406 39.136719 44.285156 39.042969 44.285156 38.9375 C 44.300781 38.496094 44.300781 38.050781 44.300781 37.625 C 44.300781 37.367188 44.300781 37.105469 44.300781 36.832031 C 44.300781 36.648438 44.390625 36.238281 45.230469 36.160156 C 45.597656 36.128906 45.976562 36.128906 46.375 36.144531 C 46.554688 36.144531 46.753906 36.144531 46.953125 36.144531 L 47.074219 36.144531 L 47.074219 38.21875 L 49.96875 38.21875 L 49.96875 35.871094 C 49.375 35.871094 48.796875 35.871094 48.203125 35.855469 C 47.5625 35.839844 46.953125 35.839844 46.34375 35.839844 Z M 46.34375 35.839844 " fill-opacity="1" fill-rule="nonzero"/></g><g clip-path="url(#ad388702fb)"><path fill="#000000" d="M 33.292969 44.640625 C 33.25 44.640625 33.203125 44.640625 33.15625 44.640625 C 32.625 44.625 32.089844 44.625 31.511719 44.625 C 31.265625 44.625 31.007812 44.625 30.765625 44.625 L 30.640625 44.625 L 30.640625 35.609375 L 34.269531 35.609375 C 34.957031 35.609375 35.625 35.609375 36.3125 35.609375 C 36.3125 35.609375 36.328125 35.609375 36.328125 35.609375 C 37.667969 35.609375 38.933594 36.007812 39.484375 36.585938 C 39.695312 36.816406 39.789062 37.046875 39.773438 37.289062 C 39.679688 38.539062 39.679688 39.820312 39.773438 41.117188 C 39.789062 41.347656 39.695312 41.574219 39.5 41.773438 C 38.949219 42.351562 37.730469 42.75 36.433594 42.75 C 36.417969 42.75 36.402344 42.75 36.390625 42.75 C 35.855469 42.75 35.320312 42.75 34.757812 42.75 L 34.042969 42.75 C 34.042969 42.871094 34.042969 42.992188 34.042969 43.101562 C 34.042969 43.464844 34.027344 43.800781 34.058594 44.136719 C 34.070312 44.273438 34.042969 44.367188 33.964844 44.441406 C 33.859375 44.582031 33.660156 44.640625 33.292969 44.640625 Z M 32.226562 44.398438 C 32.546875 44.398438 32.851562 44.398438 33.15625 44.414062 C 33.292969 44.414062 33.691406 44.425781 33.78125 44.320312 C 33.796875 44.304688 33.8125 44.273438 33.8125 44.183594 C 33.78125 43.832031 33.78125 43.480469 33.796875 43.117188 C 33.796875 42.964844 33.796875 42.8125 33.796875 42.660156 L 33.796875 42.535156 L 34.742188 42.535156 C 35.320312 42.535156 35.839844 42.535156 36.375 42.535156 C 36.390625 42.535156 36.402344 42.535156 36.417969 42.535156 C 37.835938 42.535156 38.890625 42.078125 39.316406 41.636719 C 39.46875 41.46875 39.542969 41.300781 39.527344 41.148438 C 39.4375 39.835938 39.4375 38.539062 39.527344 37.273438 C 39.542969 37.089844 39.46875 36.90625 39.300781 36.738281 C 38.796875 36.207031 37.609375 35.839844 36.3125 35.839844 C 36.3125 35.839844 36.296875 35.839844 36.296875 35.839844 C 35.613281 35.839844 34.925781 35.839844 34.253906 35.839844 L 30.855469 35.839844 L 30.855469 44.398438 C 31.070312 44.398438 31.28125 44.398438 31.496094 44.398438 C 31.753906 44.398438 32 44.398438 32.226562 44.398438 Z M 34.820312 42.261719 C 34.683594 42.261719 34.558594 42.261719 34.421875 42.261719 C 34.269531 42.261719 34.117188 42.261719 33.949219 42.261719 L 33.828125 42.261719 L 33.828125 36.128906 L 33.949219 36.128906 C 34.117188 36.128906 34.285156 36.128906 34.453125 36.128906 C 34.835938 36.128906 35.183594 36.113281 35.550781 36.144531 C 36.175781 36.191406 36.527344 36.417969 36.542969 36.753906 C 36.542969 38.402344 36.558594 40.003906 36.542969 41.621094 C 36.542969 41.851562 36.375 42.214844 35.335938 42.261719 C 35.15625 42.261719 35 42.261719 34.820312 42.261719 Z M 34.070312 42.03125 C 34.195312 42.03125 34.316406 42.03125 34.421875 42.03125 C 34.726562 42.03125 35.03125 42.03125 35.308594 42.03125 C 35.917969 42.019531 36.28125 41.863281 36.28125 41.621094 C 36.296875 40.003906 36.296875 38.402344 36.28125 36.753906 C 36.28125 36.558594 35.992188 36.40625 35.503906 36.375 C 35.15625 36.34375 34.804688 36.359375 34.4375 36.359375 C 34.316406 36.359375 34.179688 36.359375 34.058594 36.359375 L 34.058594 42.03125 Z M 34.070312 42.03125 " fill-opacity="1" fill-rule="nonzero"/></g><g clip-path="url(#79ae587f6b)"><path fill="#000000" d="M 11.605469 44.59375 L 8.128906 44.59375 L 8.128906 36.359375 C 6.878906 36.3125 6.101562 36.601562 5.429688 36.9375 L 5.261719 37.015625 L 5.261719 36.832031 C 5.261719 36.753906 5.261719 36.679688 5.261719 36.585938 C 5.261719 36.34375 5.261719 36.085938 5.277344 35.839844 C 5.292969 35.65625 5.703125 35.609375 5.75 35.609375 C 8.097656 35.609375 10.460938 35.609375 12.855469 35.609375 L 14.363281 35.609375 L 14.363281 36.953125 L 14.210938 36.90625 C 14.058594 36.863281 13.890625 36.800781 13.738281 36.753906 C 13.402344 36.632812 13.050781 36.511719 12.671875 36.433594 C 12.230469 36.34375 11.800781 36.28125 11.664062 36.390625 C 11.605469 36.433594 11.589844 36.527344 11.589844 36.710938 Z M 8.355469 44.367188 L 11.359375 44.367188 L 11.359375 36.695312 C 11.359375 36.511719 11.375 36.3125 11.527344 36.207031 C 11.726562 36.039062 12.105469 36.085938 12.730469 36.207031 C 13.128906 36.28125 13.492188 36.40625 13.828125 36.527344 C 13.9375 36.558594 14.042969 36.601562 14.148438 36.632812 L 14.148438 35.839844 L 12.867188 35.839844 C 10.476562 35.839844 8.113281 35.839844 5.765625 35.839844 C 5.691406 35.839844 5.566406 35.886719 5.507812 35.902344 C 5.492188 36.128906 5.492188 36.359375 5.492188 36.585938 C 5.492188 36.601562 5.492188 36.617188 5.492188 36.648438 C 6.160156 36.328125 6.984375 36.054688 8.234375 36.128906 L 8.34375 36.128906 L 8.34375 44.367188 Z M 8.355469 44.367188 " fill-opacity="1" fill-rule="nonzero"/></g><g clip-path="url(#db2c54ac4f)"><path fill="#000000" d="M 53.613281 44.625 C 53.15625 44.625 52.699219 44.625 52.242188 44.609375 C 52.058594 44.609375 51.785156 44.457031 51.738281 44.304688 C 51.691406 44.152344 51.691406 43.984375 51.707031 43.847656 C 51.707031 43.785156 51.707031 43.742188 51.707031 43.679688 C 51.707031 43.085938 51.707031 42.503906 51.707031 41.910156 C 51.707031 40.003906 51.707031 38.019531 51.691406 36.085938 C 51.691406 35.945312 51.722656 35.824219 51.816406 35.75 C 51.9375 35.625 52.179688 35.582031 52.621094 35.597656 C 53.15625 35.609375 53.691406 35.609375 54.253906 35.609375 C 54.496094 35.609375 54.742188 35.609375 55 35.609375 L 55.121094 35.609375 L 55.121094 44.625 L 55.015625 44.625 C 54.773438 44.625 54.542969 44.625 54.300781 44.625 C 54.070312 44.625 53.84375 44.625 53.613281 44.625 Z M 52.5 35.824219 C 52.226562 35.824219 52.058594 35.855469 51.996094 35.917969 C 51.984375 35.929688 51.953125 35.976562 51.953125 36.085938 C 51.96875 38.019531 51.96875 40.003906 51.96875 41.910156 C 51.96875 42.503906 51.96875 43.085938 51.96875 43.679688 C 51.96875 43.742188 51.96875 43.800781 51.96875 43.863281 C 51.96875 44 51.953125 44.121094 51.984375 44.246094 C 51.996094 44.273438 52.164062 44.382812 52.273438 44.382812 C 52.941406 44.398438 53.613281 44.398438 54.328125 44.398438 C 54.527344 44.398438 54.726562 44.398438 54.925781 44.398438 L 54.925781 35.839844 C 54.710938 35.839844 54.496094 35.839844 54.300781 35.839844 C 53.734375 35.839844 53.203125 35.839844 52.652344 35.824219 C 52.578125 35.824219 52.53125 35.824219 52.5 35.824219 Z M 52.5 35.824219 " fill-opacity="1" fill-rule="nonzero"/></g><g clip-path="url(#fa8ff05b15)"><path fill="#000000" d="M 27.59375 44.703125 C 27.136719 44.703125 26.679688 44.703125 26.222656 44.6875 C 26.039062 44.6875 25.765625 44.535156 25.71875 44.382812 C 25.671875 44.230469 25.671875 44.0625 25.6875 43.925781 C 25.6875 43.863281 25.6875 43.816406 25.6875 43.757812 L 25.6875 42.003906 C 25.6875 40.082031 25.6875 38.113281 25.671875 36.160156 C 25.671875 36.023438 25.703125 35.902344 25.796875 35.824219 C 25.917969 35.703125 26.160156 35.65625 26.601562 35.671875 C 27.136719 35.6875 27.671875 35.6875 28.234375 35.6875 C 28.476562 35.6875 28.722656 35.6875 28.980469 35.6875 L 29.101562 35.6875 L 29.101562 44.703125 L 28.980469 44.703125 C 28.738281 44.703125 28.507812 44.703125 28.265625 44.703125 C 28.050781 44.703125 27.824219 44.703125 27.59375 44.703125 Z M 26.464844 35.902344 C 26.191406 35.902344 26.023438 35.929688 25.960938 35.992188 C 25.949219 36.007812 25.917969 36.054688 25.917969 36.160156 C 25.933594 38.113281 25.933594 40.097656 25.933594 42.003906 L 25.933594 43.757812 C 25.933594 43.816406 25.933594 43.878906 25.933594 43.941406 C 25.933594 44.078125 25.917969 44.199219 25.949219 44.320312 C 25.960938 44.351562 26.128906 44.457031 26.238281 44.457031 C 26.90625 44.472656 27.578125 44.472656 28.296875 44.472656 C 28.492188 44.472656 28.691406 44.472656 28.890625 44.472656 L 28.890625 35.917969 C 28.675781 35.917969 28.460938 35.917969 28.265625 35.917969 C 27.699219 35.917969 27.167969 35.917969 26.617188 35.902344 C 26.558594 35.902344 26.511719 35.902344 26.464844 35.902344 Z M 26.464844 35.902344 " fill-opacity="1" fill-rule="nonzero"/></g><g clip-path="url(#97a9d0f282)"><g clip-path="url(#ee792e3fb9)"><g transform="matrix(1, 0, 0, 1, 8, 19)"><g clip-path="url(#720c69b5d3)"><g clip-path="url(#774e092640)"><g clip-path="url(#ab1548ab07)"><rect x="-21.2" width="86.4" fill="#000000" height="64.799999" y="-28.9" fill-opacity="1"/></g></g></g></g></g></g></svg>