<svg xmlns="http://www.w3.org/2000/svg" xmlns:xlink="http://www.w3.org/1999/xlink" width="80" zoomAndPan="magnify" viewBox="0 0 60 44.999999" height="60" preserveAspectRatio="xMidYMid meet" version="1.0"><defs><clipPath id="ab02cbf9d3"><path d="M 12.894531 16.613281 L 15 16.613281 L 15 18.476562 L 12.894531 18.476562 Z M 12.894531 16.613281 " clip-rule="nonzero"/></clipPath><clipPath id="b8c487ed87"><path d="M 15 17.324219 C 14.101562 18.824219 13.199219 18.523438 12.976562 18.226562 C 12.824219 17.925781 12.976562 16.949219 13.273438 16.726562 C 13.574219 16.5 14.773438 16.800781 14.773438 16.800781 " clip-rule="nonzero"/></clipPath><clipPath id="6b7e0023e9"><path d="M 0.894531 0.613281 L 3 0.613281 L 3 2.476562 L 0.894531 2.476562 Z M 0.894531 0.613281 " clip-rule="nonzero"/></clipPath><clipPath id="c7c637388d"><path d="M 3 1.324219 C 2.101562 2.824219 1.199219 2.523438 0.976562 2.226562 C 0.824219 1.925781 0.976562 0.949219 1.273438 0.726562 C 1.574219 0.5 2.773438 0.800781 2.773438 0.800781 " clip-rule="nonzero"/></clipPath><clipPath id="c501a4351c"><rect x="0" width="3" y="0" height="3"/></clipPath><clipPath id="572d3bc74c"><path d="M 7.460938 0 L 52.460938 0 L 52.460938 45 L 7.460938 45 Z M 7.460938 0 " clip-rule="nonzero"/></clipPath></defs><g clip-path="url(#ab02cbf9d3)"><g clip-path="url(#b8c487ed87)"><g transform="matrix(1, 0, 0, 1, 12, 16)"><g clip-path="url(#c501a4351c)"><g clip-path="url(#6b7e0023e9)"><g clip-path="url(#c7c637388d)"><rect x="-25.2" width="86.4" fill="#ffffff" height="64.799999" y="-25.9" fill-opacity="1"/></g></g></g></g></g></g><g clip-path="url(#572d3bc74c)"><path fill="#ffffff" d="M 30.019531 0 C 31.472656 0 32.925781 0.136719 34.363281 0.410156 C 35.082031 0.546875 35.785156 0.71875 36.484375 0.941406 C 37.1875 1.144531 37.871094 1.386719 38.539062 1.675781 C 39.203125 1.949219 39.871094 2.257812 40.523438 2.601562 C 41.171875 2.941406 41.789062 3.316406 42.402344 3.710938 C 43.617188 4.515625 44.761719 5.4375 45.789062 6.464844 C 46.832031 7.492188 47.773438 8.601562 48.59375 9.816406 C 49.414062 11.03125 50.132812 12.316406 50.699219 13.664062 C 51.28125 15.015625 51.722656 16.417969 52.03125 17.855469 C 52.339844 19.292969 52.496094 20.765625 52.511719 22.234375 C 52.527344 23.707031 52.410156 25.175781 52.136719 26.628906 C 51.859375 28.085938 51.449219 29.503906 50.902344 30.890625 C 50.355469 32.257812 49.671875 33.589844 48.851562 34.824219 C 48.03125 36.070312 47.105469 37.234375 46.0625 38.277344 C 45.019531 39.339844 43.875 40.296875 42.640625 41.132812 C 42.027344 41.546875 41.394531 41.9375 40.726562 42.296875 C 40.078125 42.65625 39.394531 42.980469 38.707031 43.253906 C 37.339844 43.835938 35.902344 44.265625 34.433594 44.574219 C 33.695312 44.726562 32.960938 44.828125 32.226562 44.898438 C 31.492188 44.964844 30.738281 45 29.984375 45 C 28.496094 45 27.007812 44.863281 25.539062 44.554688 C 24.804688 44.402344 24.085938 44.230469 23.367188 44.007812 C 22.648438 43.785156 21.945312 43.527344 21.261719 43.238281 C 19.894531 42.65625 18.578125 41.957031 17.347656 41.117188 C 16.113281 40.28125 14.96875 39.320312 13.925781 38.261719 C 12.882812 37.199219 11.941406 36.039062 11.136719 34.804688 C 10.316406 33.558594 9.632812 32.242188 9.085938 30.871094 C 8.539062 29.503906 8.128906 28.066406 7.851562 26.613281 C 7.578125 25.160156 7.460938 23.6875 7.476562 22.21875 C 7.496094 20.746094 7.648438 19.277344 7.957031 17.839844 C 8.265625 16.402344 8.707031 15 9.289062 13.648438 C 9.582031 12.980469 9.90625 12.316406 10.246094 11.683594 C 10.605469 11.050781 10.984375 10.417969 11.394531 9.816406 C 12.214844 8.601562 13.171875 7.492188 14.199219 6.464844 C 14.710938 5.953125 15.257812 5.472656 15.824219 5.011719 C 16.386719 4.550781 16.988281 4.121094 17.585938 3.710938 C 18.199219 3.316406 18.816406 2.941406 19.464844 2.601562 C 20.117188 2.257812 20.765625 1.949219 21.449219 1.675781 C 22.117188 1.402344 22.820312 1.164062 23.503906 0.941406 C 24.203125 0.734375 24.90625 0.5625 25.625 0.410156 C 27.113281 0.136719 28.566406 0 30.019531 0 Z M 30.019531 0 C 28.566406 0 27.113281 0.136719 25.691406 0.425781 C 24.273438 0.71875 22.871094 1.144531 21.535156 1.710938 C 20.871094 1.984375 20.203125 2.308594 19.570312 2.652344 C 18.9375 2.992188 18.304688 3.371094 17.707031 3.78125 C 16.507812 4.601562 15.378906 5.523438 14.371094 6.566406 C 13.359375 7.59375 12.4375 8.738281 11.648438 9.9375 C 10.863281 11.152344 10.195312 12.433594 9.648438 13.769531 C 9.117188 15.101562 8.707031 16.503906 8.453125 17.90625 C 8.195312 19.328125 8.074219 20.765625 8.09375 22.199219 C 8.109375 23.636719 8.265625 25.074219 8.570312 26.476562 C 8.863281 27.878906 9.308594 29.246094 9.871094 30.5625 C 10.4375 31.882812 11.121094 33.128906 11.925781 34.308594 C 12.726562 35.492188 13.652344 36.585938 14.660156 37.578125 C 15.667969 38.570312 16.78125 39.476562 17.980469 40.261719 C 19.160156 41.050781 20.425781 41.714844 21.742188 42.246094 C 22.390625 42.519531 23.074219 42.757812 23.742188 42.964844 C 24.425781 43.167969 25.109375 43.339844 25.8125 43.476562 C 27.199219 43.75 28.617188 43.886719 30.035156 43.886719 C 31.457031 43.886719 32.875 43.75 34.261719 43.476562 C 35.648438 43.203125 37.015625 42.792969 38.332031 42.261719 C 38.980469 41.988281 39.632812 41.699219 40.265625 41.355469 C 40.898438 41.03125 41.496094 40.65625 42.09375 40.28125 C 42.695312 39.886719 43.257812 39.476562 43.824219 39.015625 C 44.371094 38.570312 44.898438 38.089844 45.414062 37.59375 C 46.421875 36.601562 47.347656 35.507812 48.148438 34.328125 C 48.953125 33.148438 49.65625 31.898438 50.203125 30.582031 C 50.765625 29.265625 51.210938 27.894531 51.503906 26.492188 C 51.792969 25.089844 51.945312 23.65625 51.980469 22.21875 C 52 20.78125 51.878906 19.34375 51.621094 17.925781 C 51.367188 16.503906 50.953125 15.121094 50.425781 13.785156 C 49.894531 12.453125 49.226562 11.152344 48.421875 9.953125 C 47.636719 8.738281 46.714844 7.609375 45.703125 6.585938 C 44.695312 5.558594 43.566406 4.617188 42.367188 3.796875 C 41.171875 2.976562 39.890625 2.292969 38.539062 1.726562 C 37.203125 1.164062 35.800781 0.734375 34.382812 0.445312 C 32.925781 0.136719 31.472656 0 30.019531 0 Z M 30.019531 0 " fill-opacity="1" fill-rule="nonzero"/></g><path fill="#ffffff" d="M 30.019531 1.179688 C 18.40625 1.179688 8.980469 10.605469 8.980469 22.21875 C 8.980469 33.832031 18.40625 43.253906 30.019531 43.253906 C 41.632812 43.253906 51.058594 33.832031 51.058594 22.21875 C 51.058594 10.605469 41.632812 1.179688 30.019531 1.179688 Z M 35.390625 25.519531 C 36.089844 25.332031 37 25.261719 37.734375 25.246094 L 42.007812 36.039062 Z M 36.945312 23.242188 C 36.007812 23.242188 35.066406 23.328125 34.109375 23.484375 C 28.207031 24.527344 22.289062 28.835938 16.335938 35.917969 L 29.042969 3.335938 L 34.84375 17.941406 C 33.457031 17.90625 32.105469 17.957031 30.753906 18.148438 L 29.042969 15.425781 L 27.589844 20.765625 C 29.183594 20.457031 30.667969 20.285156 32.054688 20.199219 C 33.371094 20.132812 34.621094 20.148438 35.765625 20.269531 C 41.1875 20.816406 44.816406 23.328125 47.449219 26.9375 C 43.960938 24.457031 40.453125 23.261719 36.945312 23.242188 Z M 36.945312 23.242188 " fill-opacity="1" fill-rule="evenodd"/></svg>