<svg xmlns="http://www.w3.org/2000/svg" xmlns:xlink="http://www.w3.org/1999/xlink" width="80" zoomAndPan="magnify" viewBox="0 0 60 44.999999" height="60" preserveAspectRatio="xMidYMid meet" version="1.0"><defs><clipPath id="8709e92f24"><path d="M 25 12 L 59.070312 12 L 59.070312 37.191406 L 25 37.191406 Z M 25 12 " clip-rule="nonzero"/></clipPath><clipPath id="f70c88e836"><path d="M 0.570312 14 L 27 14 L 27 32 L 0.570312 32 Z M 0.570312 14 " clip-rule="nonzero"/></clipPath><clipPath id="8df2954516"><path d="M 25 7.941406 L 51 7.941406 L 51 28 L 25 28 Z M 25 7.941406 " clip-rule="nonzero"/></clipPath></defs><g clip-path="url(#8709e92f24)"><path fill="#ffffff" d="M 26.84375 17.953125 C 26.558594 18.496094 26.292969 19.148438 26.128906 19.691406 C 26.0625 19.921875 25.980469 20.21875 25.949219 20.363281 C 25.761719 21.21875 25.691406 21.917969 25.699219 22.777344 C 25.703125 23.101562 25.746094 23.636719 25.792969 23.988281 C 25.886719 24.652344 26.074219 25.417969 26.296875 26.023438 C 26.660156 27.019531 27.140625 27.90625 27.761719 28.714844 C 28.457031 29.628906 29.257812 30.375 30.257812 31.035156 C 30.4375 31.152344 31.035156 31.496094 31.222656 31.589844 C 32.082031 32.011719 32.847656 32.273438 33.730469 32.453125 C 34.882812 32.683594 36.058594 32.710938 37.238281 32.53125 C 38.003906 32.414062 38.847656 32.179688 39.554688 31.886719 C 40.222656 31.609375 40.769531 31.316406 41.363281 30.914062 C 42.007812 30.480469 42.582031 29.988281 43.105469 29.417969 C 43.445312 29.050781 43.78125 28.625 44.050781 28.222656 L 44.097656 28.152344 L 44.710938 28.507812 L 45.328125 28.859375 L 45.222656 29.046875 C 45.136719 29.191406 45.109375 29.246094 45.097656 29.28125 C 45.050781 29.453125 45.09375 29.644531 45.210938 29.773438 C 45.257812 29.828125 45.261719 29.828125 45.496094 29.964844 C 45.625 30.042969 48.425781 31.652344 51.71875 33.550781 C 56.960938 36.570312 57.714844 37 57.765625 37.019531 C 57.835938 37.039062 57.953125 37.046875 58.023438 37.035156 C 58.089844 37.023438 58.167969 36.988281 58.226562 36.945312 C 58.324219 36.875 58.304688 36.910156 58.878906 35.90625 L 59.398438 34.992188 L 59.410156 34.933594 C 59.421875 34.847656 59.417969 34.773438 59.394531 34.691406 C 59.371094 34.613281 59.34375 34.558594 59.289062 34.492188 L 59.25 34.445312 L 58.085938 33.769531 C 57.445312 33.398438 54.628906 31.777344 51.828125 30.167969 L 46.734375 27.242188 L 46.675781 27.230469 C 46.515625 27.199219 46.355469 27.242188 46.226562 27.351562 C 46.175781 27.390625 46.171875 27.398438 46.058594 27.59375 L 45.9375 27.792969 L 45.875 27.75 C 45.839844 27.730469 45.566406 27.566406 45.261719 27.394531 L 44.714844 27.078125 L 44.78125 26.945312 C 44.855469 26.789062 44.941406 26.597656 45.039062 26.355469 C 45.105469 26.1875 45.125 26.140625 45.207031 25.902344 C 45.441406 25.234375 45.617188 24.460938 45.695312 23.722656 C 45.71875 23.542969 45.746094 23.09375 45.75 22.941406 C 45.757812 22.765625 45.757812 22.707031 45.753906 22.597656 C 45.746094 21 45.359375 19.417969 44.628906 18.003906 C 44.339844 17.445312 43.996094 16.90625 43.609375 16.414062 C 42.988281 15.625 42.246094 14.925781 41.425781 14.363281 C 40.972656 14.050781 40.472656 13.761719 39.984375 13.535156 C 38.191406 12.691406 36.179688 12.40625 34.214844 12.710938 C 33.019531 12.894531 31.867188 13.289062 30.824219 13.871094 C 29.96875 14.351562 29.25 14.902344 28.542969 15.617188 C 28.386719 15.773438 28.140625 16.046875 27.972656 16.253906 C 27.863281 16.386719 27.8125 16.457031 27.644531 16.671875 C 27.425781 16.960938 27.035156 17.582031 26.84375 17.953125 Z M 29.582031 18.433594 C 30.03125 17.777344 30.527344 17.242188 31.140625 16.761719 C 31.867188 16.191406 32.683594 15.765625 33.574219 15.496094 C 33.742188 15.445312 33.75 15.441406 33.9375 15.394531 C 34.390625 15.285156 34.777344 15.222656 35.238281 15.195312 C 36.46875 15.113281 37.691406 15.339844 38.820312 15.859375 C 39.140625 16.003906 39.621094 16.273438 39.878906 16.449219 C 40.628906 16.960938 41.207031 17.515625 41.722656 18.210938 C 42.59375 19.382812 43.105469 20.832031 43.164062 22.296875 C 43.21875 23.558594 42.953125 24.800781 42.386719 25.933594 C 42.304688 26.089844 42.042969 26.554688 41.957031 26.683594 C 41.820312 26.886719 41.679688 27.085938 41.582031 27.210938 C 41.554688 27.246094 41.507812 27.300781 41.476562 27.339844 C 41.105469 27.808594 40.554688 28.324219 40.03125 28.691406 C 39.722656 28.910156 39.4375 29.085938 39.089844 29.261719 C 37.214844 30.214844 35 30.324219 33.035156 29.554688 C 32.652344 29.402344 32.449219 29.304688 32.023438 29.058594 C 31.605469 28.820312 31.449219 28.714844 31.121094 28.460938 C 29.644531 27.304688 28.660156 25.621094 28.371094 23.761719 C 28.253906 22.996094 28.253906 22.214844 28.378906 21.445312 C 28.496094 20.726562 28.730469 19.992188 29.046875 19.355469 C 29.089844 19.277344 29.128906 19.191406 29.140625 19.171875 C 29.195312 19.0625 29.496094 18.5625 29.582031 18.433594 Z M 29.582031 18.433594 " fill-opacity="1" fill-rule="nonzero"/></g><g clip-path="url(#f70c88e836)"><path fill="#ffffff" d="M 6.140625 14.273438 C 5.574219 14.289062 5.386719 14.304688 5.269531 14.351562 C 5.191406 14.378906 5.023438 14.417969 4.894531 14.4375 C 4.769531 14.453125 4.582031 14.496094 4.484375 14.519531 C 4.0625 14.640625 3.546875 14.8125 3.484375 14.847656 C 3.449219 14.871094 3.324219 14.925781 3.207031 14.976562 C 3.09375 15.023438 2.960938 15.089844 2.914062 15.121094 C 2.867188 15.152344 2.699219 15.265625 2.546875 15.367188 C 1.875 15.800781 1.234375 16.582031 0.972656 17.273438 C 0.933594 17.378906 0.882812 17.515625 0.855469 17.570312 C 0.832031 17.628906 0.804688 17.730469 0.789062 17.800781 C 0.78125 17.871094 0.742188 18.03125 0.707031 18.15625 C 0.625 18.480469 0.570312 19.445312 0.613281 19.886719 C 0.667969 20.457031 0.707031 20.71875 0.757812 20.851562 C 0.785156 20.921875 0.84375 21.105469 0.890625 21.261719 C 1.015625 21.675781 1.472656 22.40625 1.773438 22.664062 C 1.808594 22.695312 1.917969 22.789062 2.019531 22.875 C 2.367188 23.175781 3.035156 23.574219 3.433594 23.71875 C 3.550781 23.761719 3.675781 23.8125 3.714844 23.835938 C 3.75 23.859375 3.835938 23.890625 3.910156 23.910156 C 3.980469 23.925781 4.144531 23.976562 4.269531 24.015625 C 4.769531 24.167969 6.222656 24.507812 6.730469 24.589844 C 6.804688 24.597656 6.957031 24.636719 7.074219 24.667969 C 7.191406 24.703125 7.453125 24.761719 7.648438 24.800781 C 7.847656 24.839844 8.070312 24.898438 8.140625 24.929688 C 8.214844 24.96875 8.347656 25.007812 8.4375 25.027344 C 8.660156 25.078125 9.160156 25.324219 9.328125 25.46875 C 9.519531 25.636719 9.675781 25.859375 9.785156 26.128906 C 9.871094 26.335938 9.878906 26.394531 9.878906 26.75 C 9.878906 27.109375 9.871094 27.164062 9.785156 27.378906 C 9.542969 27.972656 9.011719 28.382812 8.222656 28.570312 C 8.160156 28.585938 7.960938 28.625 7.78125 28.660156 C 7.191406 28.769531 5.71875 28.730469 5.023438 28.585938 C 4.902344 28.566406 4.730469 28.53125 4.648438 28.523438 C 4.566406 28.507812 4.40625 28.472656 4.289062 28.441406 C 4.167969 28.402344 3.941406 28.34375 3.777344 28.304688 C 3.617188 28.265625 3.414062 28.199219 3.328125 28.15625 C 3.246094 28.117188 3.152344 28.078125 3.128906 28.078125 C 3.058594 28.078125 2.582031 27.921875 2.53125 27.882812 C 2.507812 27.867188 2.398438 27.820312 2.28125 27.78125 C 2.066406 27.710938 2.019531 27.691406 1.34375 27.375 C 1.09375 27.253906 0.925781 27.195312 0.890625 27.207031 C 0.835938 27.226562 0.832031 27.28125 0.851562 27.992188 C 0.867188 28.410156 0.875 29.152344 0.875 29.644531 C 0.875 30.671875 0.863281 30.628906 1.203125 30.722656 C 1.300781 30.75 1.4375 30.796875 1.5 30.816406 C 1.5625 30.84375 1.671875 30.878906 1.746094 30.898438 C 1.816406 30.917969 1.988281 30.960938 2.121094 31 C 2.257812 31.039062 2.457031 31.089844 2.566406 31.117188 C 2.671875 31.144531 2.855469 31.191406 2.976562 31.226562 C 3.09375 31.265625 3.285156 31.308594 3.402344 31.328125 C 3.519531 31.347656 3.675781 31.375 3.746094 31.390625 C 3.816406 31.410156 3.929688 31.425781 3.992188 31.425781 C 4.054688 31.425781 4.210938 31.464844 4.335938 31.507812 C 4.503906 31.566406 4.636719 31.589844 4.820312 31.589844 C 4.957031 31.589844 5.25 31.613281 5.472656 31.640625 C 5.816406 31.6875 6.109375 31.695312 7.335938 31.675781 C 8.640625 31.660156 8.828125 31.652344 9.058594 31.59375 C 9.203125 31.558594 9.410156 31.519531 9.519531 31.511719 C 9.625 31.496094 9.796875 31.464844 9.894531 31.433594 C 9.992188 31.40625 10.15625 31.363281 10.257812 31.339844 C 10.769531 31.21875 11.527344 30.882812 12.011719 30.554688 C 12.332031 30.34375 12.847656 29.828125 13.070312 29.492188 C 13.367188 29.050781 13.699219 28.304688 13.699219 28.074219 C 13.699219 28.035156 13.738281 27.933594 13.777344 27.851562 C 13.820312 27.769531 13.875 27.632812 13.898438 27.542969 C 13.945312 27.359375 13.984375 27.324219 14.023438 27.433594 C 14.042969 27.480469 14.066406 28.34375 14.082031 29.359375 C 14.101562 30.835938 14.113281 31.207031 14.148438 31.246094 C 14.183594 31.28125 14.390625 31.285156 15.21875 31.273438 C 15.78125 31.265625 17.304688 31.246094 18.605469 31.226562 C 19.902344 31.207031 21.386719 31.1875 21.898438 31.179688 C 22.414062 31.167969 23.535156 31.152344 24.394531 31.144531 C 25.253906 31.128906 25.976562 31.109375 26 31.097656 C 26.03125 31.078125 26.03125 30.757812 26.007812 29.574219 C 25.988281 28.75 25.960938 28.0625 25.945312 28.042969 C 25.925781 28.011719 25.132812 28.015625 22.605469 28.0625 C 22.15625 28.074219 21.035156 28.089844 20.113281 28.097656 C 18.441406 28.117188 18.441406 28.117188 18.351562 28.050781 C 18.296875 28.003906 18.257812 27.9375 18.246094 27.855469 C 18.238281 27.789062 18.226562 26.929688 18.21875 25.941406 L 18.210938 24.148438 L 18.285156 24.070312 L 18.359375 23.996094 L 20.710938 23.96875 C 22.003906 23.957031 23.542969 23.933594 24.128906 23.921875 L 25.195312 23.898438 L 25.207031 22.390625 C 25.210938 21.246094 25.203125 20.875 25.171875 20.839844 C 25.140625 20.796875 25.046875 20.792969 24.589844 20.8125 C 24.289062 20.820312 23.179688 20.835938 22.113281 20.847656 C 21.050781 20.855469 19.78125 20.875 19.292969 20.882812 C 18.375 20.902344 18.261719 20.894531 18.195312 20.773438 C 18.152344 20.6875 18.132812 20.148438 18.125 18.800781 L 18.117188 17.671875 L 18.207031 17.59375 C 18.289062 17.523438 18.324219 17.519531 18.695312 17.519531 C 18.914062 17.519531 19.398438 17.507812 19.769531 17.5 C 20.136719 17.492188 21.574219 17.46875 22.964844 17.453125 C 25.007812 17.425781 25.496094 17.410156 25.535156 17.375 C 25.570312 17.339844 25.574219 17.070312 25.554688 15.832031 C 25.535156 14.503906 25.523438 14.332031 25.476562 14.3125 C 25.449219 14.296875 24.960938 14.292969 24.394531 14.308594 C 23.824219 14.316406 21.980469 14.347656 20.292969 14.367188 C 14.132812 14.441406 13.96875 14.449219 13.917969 14.5 C 13.878906 14.542969 13.875 14.800781 13.898438 16.371094 C 13.925781 18.320312 14.003906 23.867188 14.003906 24.4375 C 14.011719 24.976562 13.941406 25.191406 13.859375 24.886719 C 13.839844 24.8125 13.796875 24.722656 13.765625 24.683594 C 13.730469 24.648438 13.660156 24.484375 13.605469 24.324219 C 13.3125 23.429688 12.667969 22.738281 11.617188 22.199219 C 11.421875 22.097656 11.15625 21.976562 11.027344 21.925781 C 10.902344 21.878906 10.777344 21.828125 10.753906 21.808594 C 10.730469 21.789062 10.632812 21.753906 10.535156 21.726562 C 10.4375 21.703125 10.277344 21.664062 10.179688 21.636719 C 10.085938 21.613281 9.964844 21.570312 9.910156 21.546875 C 9.855469 21.515625 9.71875 21.476562 9.601562 21.457031 C 9.160156 21.386719 8.835938 21.324219 8.671875 21.277344 C 8.578125 21.25 8.414062 21.21875 8.304688 21.207031 C 8.195312 21.195312 8.027344 21.164062 7.929688 21.140625 C 7.828125 21.121094 7.683594 21.089844 7.601562 21.082031 C 7.335938 21.042969 6.351562 20.832031 5.976562 20.730469 C 5.761719 20.671875 5.5625 20.589844 5.1875 20.421875 C 4.96875 20.320312 4.664062 20.039062 4.566406 19.847656 C 4.523438 19.761719 4.46875 19.566406 4.441406 19.417969 C 4.402344 19.183594 4.402344 19.097656 4.433594 18.847656 C 4.484375 18.5 4.542969 18.347656 4.714844 18.121094 C 5.019531 17.714844 5.640625 17.425781 6.417969 17.332031 C 7.476562 17.203125 7.769531 17.195312 8.238281 17.273438 C 8.402344 17.296875 8.640625 17.320312 8.765625 17.320312 C 8.890625 17.320312 9.082031 17.339844 9.191406 17.359375 C 9.296875 17.375 9.515625 17.410156 9.667969 17.4375 C 9.828125 17.460938 9.984375 17.496094 10.023438 17.515625 C 10.058594 17.539062 10.199219 17.574219 10.328125 17.597656 C 10.65625 17.660156 11.34375 17.855469 11.714844 17.996094 C 11.84375 18.042969 12.019531 18.109375 12.109375 18.140625 C 12.203125 18.175781 12.359375 18.238281 12.460938 18.28125 C 12.640625 18.359375 12.652344 18.363281 12.679688 18.308594 C 12.699219 18.273438 12.707031 17.648438 12.695312 16.652344 C 12.675781 15.257812 12.667969 15.046875 12.621094 14.988281 C 12.585938 14.945312 12.5 14.917969 12.332031 14.898438 C 12.203125 14.882812 12.082031 14.859375 12.058594 14.84375 C 12.039062 14.832031 11.917969 14.808594 11.792969 14.792969 C 11.671875 14.777344 11.527344 14.742188 11.480469 14.71875 C 11.425781 14.691406 11.300781 14.660156 11.191406 14.652344 C 11.082031 14.636719 10.871094 14.609375 10.714844 14.582031 C 9.019531 14.296875 7.964844 14.226562 6.140625 14.273438 Z M 6.140625 14.273438 " fill-opacity="1" fill-rule="nonzero"/></g><g clip-path="url(#8df2954516)"><path fill="#ffffff" d="M 49.617188 7.945312 C 49.363281 7.945312 48.304688 8.382812 44.777344 9.898438 C 42.117188 11.046875 39.988281 12.007812 40.054688 12.039062 C 40.121094 12.066406 41.125 12.222656 42.289062 12.367188 C 43.457031 12.511719 44.421875 12.644531 44.441406 12.65625 C 44.457031 12.671875 43.875 13.832031 42.945312 15.652344 C 42.570312 16.386719 42.140625 17.226562 41.671875 18.140625 C 41.1875 19.078125 40.664062 20.09375 40.113281 21.15625 L 39.253906 22.804688 L 35.429688 20.179688 L 31.613281 17.558594 L 30.679688 18.667969 C 29.898438 19.605469 29.097656 20.582031 28.375 21.464844 C 27.042969 23.09375 25.988281 24.40625 25.890625 24.554688 C 25.882812 24.566406 25.882812 24.570312 25.882812 24.570312 C 25.882812 24.570312 25.886719 24.570312 25.890625 24.566406 C 25.890625 24.566406 25.890625 24.566406 25.890625 24.5625 C 25.929688 24.535156 25.960938 24.515625 25.984375 24.515625 C 26.046875 24.515625 26.050781 24.667969 26.050781 25.171875 L 26.050781 25.246094 C 26.125 25.519531 26.207031 25.785156 26.296875 26.023438 C 26.335938 26.136719 26.378906 26.246094 26.421875 26.351562 L 28.316406 24.140625 C 28.351562 24.101562 28.382812 24.066406 28.417969 24.027344 C 30.125 22.035156 31.535156 20.421875 31.585938 20.421875 C 31.644531 20.421875 32.160156 20.882812 32.742188 21.453125 C 37.566406 26.136719 39.492188 27.960938 39.632812 27.960938 C 39.636719 27.960938 39.640625 27.960938 39.640625 27.957031 C 39.699219 27.898438 40.957031 25.691406 43.128906 21.832031 C 43.128906 21.832031 43.128906 21.828125 43.128906 21.828125 C 43.671875 20.863281 44.273438 19.796875 44.925781 18.632812 C 45.042969 18.425781 45.160156 18.214844 45.277344 18.003906 C 46.269531 16.230469 47.136719 14.71875 47.195312 14.648438 C 47.203125 14.640625 47.214844 14.636719 47.226562 14.636719 C 47.347656 14.636719 47.699219 15.046875 48.652344 16.308594 C 49.382812 17.269531 49.996094 18.050781 50.027344 18.050781 C 50.078125 18.011719 49.738281 8.117188 49.683594 7.972656 C 49.675781 7.953125 49.65625 7.945312 49.617188 7.945312 Z M 49.617188 7.945312 " fill-opacity="1" fill-rule="nonzero"/></g></svg>