<svg xmlns="http://www.w3.org/2000/svg" xmlns:xlink="http://www.w3.org/1999/xlink" width="80" zoomAndPan="magnify" viewBox="0 0 60 44.999999" height="60" preserveAspectRatio="xMidYMid meet" version="1.0"><defs><clipPath id="436ca448a3"><path d="M 10.058594 2.59375 L 49.808594 2.59375 L 49.808594 42.34375 L 10.058594 42.34375 Z M 10.058594 2.59375 " clip-rule="nonzero"/></clipPath><clipPath id="98d74def4c"><path d="M 16.492188 17.214844 L 18.605469 17.214844 L 18.605469 19.078125 L 16.492188 19.078125 Z M 16.492188 17.214844 " clip-rule="nonzero"/></clipPath><clipPath id="96514c4cad"><path d="M 18.601562 17.925781 C 17.699219 19.425781 16.800781 19.125 16.574219 18.824219 C 16.425781 18.523438 16.574219 17.550781 16.875 17.324219 C 17.175781 17.101562 18.375 17.398438 18.375 17.398438 " clip-rule="nonzero"/></clipPath><clipPath id="dff38e2c89"><path d="M 0.492188 0.214844 L 2.605469 0.214844 L 2.605469 2.078125 L 0.492188 2.078125 Z M 0.492188 0.214844 " clip-rule="nonzero"/></clipPath><clipPath id="3525004b49"><path d="M 2.601562 0.925781 C 1.699219 2.425781 0.800781 2.125 0.574219 1.824219 C 0.425781 1.523438 0.574219 0.550781 0.875 0.324219 C 1.175781 0.101562 2.375 0.398438 2.375 0.398438 " clip-rule="nonzero"/></clipPath><clipPath id="8ea300d179"><rect x="0" width="3" y="0" height="3"/></clipPath></defs><g clip-path="url(#436ca448a3)"><path fill="#000000" d="M 29.953125 2.59375 C 31.234375 2.59375 32.519531 2.714844 33.785156 2.957031 C 34.417969 3.078125 35.035156 3.226562 35.65625 3.425781 C 36.273438 3.605469 36.875 3.816406 37.464844 4.074219 C 38.054688 4.316406 38.640625 4.585938 39.214844 4.890625 C 39.789062 5.191406 40.332031 5.523438 40.875 5.871094 C 41.945312 6.582031 42.953125 7.398438 43.859375 8.304688 C 44.78125 9.210938 45.609375 10.191406 46.332031 11.265625 C 47.058594 12.335938 47.691406 13.472656 48.1875 14.664062 C 48.699219 15.859375 49.09375 17.097656 49.363281 18.367188 C 49.636719 19.636719 49.773438 20.933594 49.785156 22.234375 C 49.800781 23.53125 49.695312 24.832031 49.453125 26.117188 C 49.214844 27.402344 48.851562 28.65625 48.367188 29.878906 C 47.886719 31.085938 47.28125 32.265625 46.558594 33.355469 C 45.835938 34.457031 45.019531 35.484375 44.101562 36.40625 C 43.179688 37.34375 42.171875 38.1875 41.085938 38.929688 C 40.542969 39.292969 39.984375 39.636719 39.394531 39.957031 C 38.824219 40.273438 38.21875 40.558594 37.617188 40.800781 C 36.410156 41.316406 35.140625 41.691406 33.84375 41.964844 C 33.195312 42.101562 32.546875 42.191406 31.898438 42.253906 C 31.25 42.3125 30.585938 42.34375 29.925781 42.34375 C 28.613281 42.34375 27.300781 42.222656 26.003906 41.949219 C 25.355469 41.8125 24.722656 41.664062 24.085938 41.464844 C 23.453125 41.269531 22.835938 41.042969 22.234375 40.785156 C 21.027344 40.273438 19.863281 39.652344 18.777344 38.914062 C 17.691406 38.171875 16.683594 37.328125 15.761719 36.390625 C 14.84375 35.453125 14.011719 34.425781 13.304688 33.339844 C 12.582031 32.234375 11.976562 31.070312 11.496094 29.863281 C 11.011719 28.65625 10.648438 27.386719 10.410156 26.101562 C 10.167969 24.816406 10.0625 23.519531 10.078125 22.21875 C 10.089844 20.917969 10.226562 19.621094 10.5 18.351562 C 10.769531 17.082031 11.164062 15.84375 11.675781 14.648438 C 11.933594 14.058594 12.21875 13.472656 12.519531 12.910156 C 12.835938 12.351562 13.167969 11.792969 13.53125 11.265625 C 14.253906 10.191406 15.097656 9.210938 16.003906 8.304688 C 16.457031 7.851562 16.9375 7.425781 17.4375 7.019531 C 17.933594 6.613281 18.460938 6.234375 18.988281 5.871094 C 19.53125 5.523438 20.074219 5.191406 20.648438 4.890625 C 21.222656 4.585938 21.796875 4.316406 22.398438 4.074219 C 22.988281 3.832031 23.605469 3.621094 24.207031 3.425781 C 24.828125 3.242188 25.445312 3.089844 26.078125 2.957031 C 27.390625 2.714844 28.671875 2.59375 29.953125 2.59375 Z M 29.953125 2.59375 C 28.671875 2.59375 27.390625 2.714844 26.136719 2.96875 C 24.886719 3.226562 23.648438 3.605469 22.472656 4.105469 C 21.886719 4.34375 21.296875 4.632812 20.738281 4.933594 C 20.179688 5.238281 19.625 5.570312 19.09375 5.933594 C 18.039062 6.65625 17.042969 7.472656 16.15625 8.394531 C 15.265625 9.300781 14.449219 10.3125 13.757812 11.371094 C 13.0625 12.445312 12.476562 13.578125 11.992188 14.753906 C 11.523438 15.933594 11.164062 17.171875 10.9375 18.410156 C 10.710938 19.664062 10.605469 20.933594 10.621094 22.203125 C 10.632812 23.472656 10.769531 24.742188 11.042969 25.980469 C 11.296875 27.21875 11.691406 28.429688 12.1875 29.589844 C 12.6875 30.753906 13.289062 31.859375 13.996094 32.898438 C 14.707031 33.941406 15.519531 34.910156 16.410156 35.785156 C 17.300781 36.664062 18.28125 37.464844 19.335938 38.15625 C 20.378906 38.851562 21.492188 39.441406 22.65625 39.910156 C 23.226562 40.152344 23.832031 40.363281 24.417969 40.546875 C 25.023438 40.726562 25.625 40.878906 26.246094 41 C 27.464844 41.238281 28.71875 41.359375 29.96875 41.359375 C 31.222656 41.359375 32.472656 41.238281 33.695312 41 C 34.917969 40.757812 36.121094 40.394531 37.285156 39.925781 C 37.855469 39.683594 38.429688 39.425781 38.988281 39.125 C 39.546875 38.835938 40.074219 38.503906 40.601562 38.171875 C 41.128906 37.824219 41.628906 37.464844 42.125 37.054688 C 42.609375 36.664062 43.074219 36.238281 43.527344 35.800781 C 44.417969 34.925781 45.230469 33.957031 45.941406 32.914062 C 46.648438 31.871094 47.269531 30.769531 47.75 29.605469 C 48.25 28.441406 48.640625 27.234375 48.898438 25.996094 C 49.152344 24.757812 49.289062 23.488281 49.320312 22.21875 C 49.335938 20.949219 49.230469 19.679688 49.003906 18.425781 C 48.777344 17.171875 48.414062 15.949219 47.945312 14.769531 C 47.480469 13.59375 46.890625 12.445312 46.183594 11.386719 C 45.488281 10.3125 44.675781 9.316406 43.785156 8.410156 C 42.894531 7.503906 41.898438 6.671875 40.84375 5.945312 C 39.789062 5.222656 38.65625 4.617188 37.464844 4.117188 C 36.289062 3.621094 35.050781 3.242188 33.800781 2.984375 C 32.519531 2.714844 31.234375 2.59375 29.953125 2.59375 Z M 29.953125 2.59375 " fill-opacity="1" fill-rule="nonzero"/></g><path fill="#000000" d="M 29.953125 3.636719 C 19.714844 3.636719 11.402344 11.960938 11.402344 22.21875 C 11.402344 32.476562 19.714844 40.800781 29.953125 40.800781 C 40.195312 40.800781 48.503906 32.476562 48.503906 22.21875 C 48.503906 11.960938 40.195312 3.636719 29.953125 3.636719 Z M 34.691406 25.132812 C 35.308594 24.96875 36.109375 24.90625 36.757812 24.894531 L 40.527344 34.425781 Z M 36.0625 23.125 C 35.234375 23.125 34.402344 23.199219 33.558594 23.335938 C 28.355469 24.257812 23.136719 28.066406 17.890625 34.320312 L 29.09375 5.539062 L 34.207031 18.441406 C 32.984375 18.410156 31.792969 18.457031 30.601562 18.621094 L 29.09375 16.21875 L 27.8125 20.933594 C 29.214844 20.664062 30.527344 20.511719 31.75 20.4375 C 32.910156 20.375 34.011719 20.390625 35.023438 20.496094 C 39.800781 20.980469 43 23.199219 45.324219 26.386719 C 42.246094 24.199219 39.152344 23.140625 36.0625 23.125 Z M 36.0625 23.125 " fill-opacity="1" fill-rule="evenodd"/><g clip-path="url(#98d74def4c)"><g clip-path="url(#96514c4cad)"><g transform="matrix(1, 0, 0, 1, 16, 17)"><g clip-path="url(#8ea300d179)"><g clip-path="url(#dff38e2c89)"><g clip-path="url(#3525004b49)"><rect x="-29.2" width="86.4" fill="#000000" height="64.799999" y="-26.9" fill-opacity="1"/></g></g></g></g></g></g></svg>