<svg xmlns="http://www.w3.org/2000/svg" xmlns:xlink="http://www.w3.org/1999/xlink" width="80" zoomAndPan="magnify" viewBox="0 0 60 44.999999" height="60" preserveAspectRatio="xMidYMid meet" version="1.0"><defs><clipPath id="610dc131a9"><path d="M 8.4375 13.707031 L 8.796875 13.707031 L 8.796875 14.039062 L 8.4375 14.039062 Z M 8.4375 13.707031 " clip-rule="nonzero"/></clipPath><clipPath id="61598d9b4b"><path d="M 8.773438 13.949219 C 8.101562 14.175781 8.699219 13.726562 8.699219 13.726562 " clip-rule="nonzero"/></clipPath><clipPath id="94b75cf541"><path d="M 0.4375 0.707031 L 0.796875 0.707031 L 0.796875 1.039062 L 0.4375 1.039062 Z M 0.4375 0.707031 " clip-rule="nonzero"/></clipPath><clipPath id="e2d76c923d"><path d="M 0.773438 0.949219 C 0.101562 1.175781 0.699219 0.726562 0.699219 0.726562 " clip-rule="nonzero"/></clipPath><clipPath id="54450b446b"><rect x="0" width="1" y="0" height="2"/></clipPath><clipPath id="7b3d16b452"><path d="M 30 39 L 34 39 L 34 43.300781 L 30 43.300781 Z M 30 39 " clip-rule="nonzero"/></clipPath><clipPath id="0e21188c95"><path d="M 26 39 L 30 39 L 30 43.300781 L 26 43.300781 Z M 26 39 " clip-rule="nonzero"/></clipPath><clipPath id="8ff4bdf08a"><path d="M 9.699219 25 L 14 25 L 14 29 L 9.699219 29 Z M 9.699219 25 " clip-rule="nonzero"/></clipPath><clipPath id="4d0385b869"><path d="M 9.699219 17 L 14 17 L 14 21 L 9.699219 21 Z M 9.699219 17 " clip-rule="nonzero"/></clipPath><clipPath id="bed12e332d"><path d="M 26 2.050781 L 30 2.050781 L 30 6 L 26 6 Z M 26 2.050781 " clip-rule="nonzero"/></clipPath><clipPath id="241d85ef5d"><path d="M 30 2.050781 L 34 2.050781 L 34 6 L 30 6 Z M 30 2.050781 " clip-rule="nonzero"/></clipPath><clipPath id="44d1fe4a07"><path d="M 34 2.050781 L 38 2.050781 L 38 7 L 34 7 Z M 34 2.050781 " clip-rule="nonzero"/></clipPath><clipPath id="32bab5dea8"><path d="M 46 16 L 50.199219 16 L 50.199219 21 L 46 21 Z M 46 16 " clip-rule="nonzero"/></clipPath><clipPath id="1eee187296"><path d="M 46 20 L 50.199219 20 L 50.199219 25 L 46 25 Z M 46 20 " clip-rule="nonzero"/></clipPath><clipPath id="ccd490ee53"><path d="M 25 16.828125 L 35 16.828125 L 35 23 L 25 23 Z M 25 16.828125 " clip-rule="nonzero"/></clipPath><clipPath id="cdc67c89bd"><path d="M 18.011719 23.617188 L 41.988281 23.617188 L 41.988281 28.078125 L 18.011719 28.078125 Z M 18.011719 23.617188 " clip-rule="nonzero"/></clipPath></defs><g clip-path="url(#610dc131a9)"><g clip-path="url(#61598d9b4b)"><g transform="matrix(1, 0, 0, 1, 8, 13)"><g clip-path="url(#54450b446b)"><g clip-path="url(#94b75cf541)"><g clip-path="url(#e2d76c923d)"><rect x="-21.2" width="86.4" fill="#000000" height="64.799999" y="-22.9" fill-opacity="1"/></g></g></g></g></g></g><path fill="#000000" d="M 45.1875 32.496094 C 45.238281 32.535156 45.28125 32.582031 45.316406 32.636719 C 45.347656 32.691406 45.375 32.753906 45.390625 32.816406 C 45.398438 32.882812 45.398438 32.949219 45.382812 33.015625 C 45.371094 33.085938 45.34375 33.152344 45.300781 33.210938 C 45.265625 33.273438 45.222656 33.320312 45.164062 33.351562 C 45.109375 33.394531 45.050781 33.417969 44.984375 33.425781 C 44.921875 33.441406 44.859375 33.445312 44.796875 33.433594 C 44.730469 33.417969 44.667969 33.394531 44.609375 33.359375 C 44.554688 33.320312 44.507812 33.269531 44.46875 33.210938 C 44.433594 33.160156 44.414062 33.101562 44.402344 33.039062 C 44.394531 32.972656 44.398438 32.90625 44.410156 32.839844 C 44.421875 32.773438 44.445312 32.710938 44.484375 32.652344 C 44.527344 32.59375 44.574219 32.542969 44.632812 32.503906 C 44.6875 32.46875 44.75 32.445312 44.8125 32.429688 C 44.875 32.414062 44.9375 32.410156 45 32.421875 C 45.066406 32.4375 45.128906 32.460938 45.1875 32.496094 Z M 45.1875 32.496094 " fill-opacity="1" fill-rule="nonzero"/><path fill="#000000" d="M 41.375 34.902344 C 41.515625 34.765625 41.667969 34.652344 41.84375 34.566406 C 41.980469 34.492188 42.128906 34.445312 42.28125 34.425781 C 42.421875 34.414062 42.5625 34.429688 42.699219 34.464844 C 42.832031 34.515625 42.957031 34.585938 43.074219 34.671875 L 42.632812 35.101562 C 42.554688 35.050781 42.476562 35.007812 42.386719 34.976562 C 42.304688 34.953125 42.222656 34.9375 42.136719 34.9375 C 42.046875 34.941406 41.964844 34.960938 41.882812 34.996094 C 41.785156 35.035156 41.703125 35.09375 41.628906 35.167969 C 41.578125 35.21875 41.53125 35.277344 41.492188 35.339844 C 41.449219 35.402344 41.417969 35.46875 41.402344 35.539062 C 41.386719 35.605469 41.382812 35.671875 41.394531 35.738281 C 41.414062 35.8125 41.453125 35.875 41.507812 35.925781 C 41.574219 36.007812 41.660156 36.058594 41.761719 36.082031 C 41.867188 36.101562 41.972656 36.105469 42.078125 36.089844 C 42.199219 36.082031 42.316406 36.054688 42.429688 36.015625 L 42.804688 35.902344 L 43.1875 35.785156 C 43.3125 35.757812 43.4375 35.742188 43.5625 35.738281 C 43.679688 35.726562 43.796875 35.746094 43.90625 35.785156 C 44.027344 35.824219 44.125 35.890625 44.207031 35.984375 C 44.308594 36.085938 44.378906 36.203125 44.421875 36.339844 C 44.453125 36.476562 44.460938 36.617188 44.4375 36.761719 C 44.40625 36.921875 44.347656 37.074219 44.265625 37.214844 C 44.164062 37.386719 44.042969 37.539062 43.898438 37.675781 C 43.777344 37.796875 43.644531 37.890625 43.488281 37.964844 C 43.222656 38.097656 42.941406 38.128906 42.648438 38.0625 C 42.511719 38.03125 42.378906 37.980469 42.257812 37.90625 L 42.664062 37.519531 C 42.746094 37.558594 42.828125 37.59375 42.910156 37.617188 C 42.992188 37.648438 43.078125 37.660156 43.164062 37.660156 C 43.253906 37.660156 43.34375 37.640625 43.425781 37.601562 C 43.527344 37.5625 43.613281 37.503906 43.6875 37.421875 C 43.761719 37.355469 43.824219 37.28125 43.863281 37.1875 C 43.902344 37.121094 43.921875 37.046875 43.921875 36.964844 C 43.929688 36.902344 43.917969 36.84375 43.890625 36.785156 C 43.871094 36.730469 43.839844 36.679688 43.800781 36.636719 C 43.734375 36.566406 43.652344 36.519531 43.554688 36.503906 C 43.453125 36.488281 43.347656 36.488281 43.246094 36.503906 C 43.121094 36.519531 43.003906 36.546875 42.886719 36.585938 L 42.496094 36.703125 L 42.09375 36.808594 C 41.96875 36.84375 41.839844 36.863281 41.710938 36.867188 C 41.59375 36.875 41.480469 36.859375 41.367188 36.824219 C 41.253906 36.792969 41.15625 36.734375 41.074219 36.644531 C 40.972656 36.542969 40.898438 36.421875 40.855469 36.28125 C 40.808594 36.140625 40.800781 36 40.820312 35.851562 C 40.851562 35.6875 40.910156 35.535156 40.992188 35.390625 C 41.097656 35.207031 41.222656 35.046875 41.375 34.902344 Z M 41.375 34.902344 " fill-opacity="1" fill-rule="nonzero"/><path fill="#000000" d="M 39.074219 41.109375 L 38.921875 40.84375 L 39.980469 40.183594 L 38.253906 37.34375 L 39.003906 36.882812 L 40.722656 39.714844 L 41.792969 39.054688 L 41.949219 39.316406 Z M 39.074219 41.109375 " fill-opacity="1" fill-rule="nonzero"/><path fill="#000000" d="M 37.394531 41.824219 L 35.753906 40.664062 L 35.226562 42.578125 L 34.664062 42.773438 L 35.332031 40.355469 L 34.824219 38.871094 L 35.65625 38.582031 L 36.148438 40.019531 L 38.269531 41.519531 Z M 37.394531 41.824219 " fill-opacity="1" fill-rule="nonzero"/><g clip-path="url(#7b3d16b452)"><path fill="#000000" d="M 33.464844 42.972656 L 32.582031 43.078125 L 32.199219 39.835938 L 30.371094 40.066406 L 30.332031 39.695312 L 33.03125 39.367188 Z M 33.464844 42.972656 " fill-opacity="1" fill-rule="nonzero"/></g><g clip-path="url(#0e21188c95)"><path fill="#000000" d="M 26.847656 43.105469 L 26.871094 42.800781 L 28.664062 42.929688 L 28.753906 41.734375 L 27.261719 41.621094 L 27.277344 41.3125 L 28.78125 41.421875 L 28.878906 39.976562 L 27.082031 39.84375 L 27.109375 39.472656 L 29.792969 39.671875 L 29.53125 43.300781 Z M 26.847656 43.105469 " fill-opacity="1" fill-rule="nonzero"/></g><path fill="#000000" d="M 25.253906 40.457031 C 25.238281 40.519531 25.207031 40.578125 25.164062 40.628906 C 25.121094 40.675781 25.066406 40.71875 25.011719 40.753906 C 24.953125 40.78125 24.894531 40.800781 24.832031 40.8125 C 24.757812 40.816406 24.6875 40.804688 24.621094 40.785156 C 24.484375 40.75 24.382812 40.671875 24.316406 40.546875 C 24.289062 40.488281 24.265625 40.421875 24.253906 40.355469 C 24.246094 40.292969 24.25 40.230469 24.269531 40.167969 C 24.285156 40.097656 24.320312 40.039062 24.367188 39.984375 C 24.40625 39.933594 24.457031 39.898438 24.511719 39.871094 C 24.570312 39.839844 24.628906 39.820312 24.691406 39.8125 C 24.761719 39.804688 24.828125 39.8125 24.898438 39.828125 C 24.964844 39.851562 25.027344 39.886719 25.085938 39.929688 C 25.132812 39.96875 25.175781 40.019531 25.207031 40.078125 C 25.242188 40.132812 25.265625 40.191406 25.273438 40.257812 C 25.28125 40.324219 25.277344 40.390625 25.253906 40.457031 Z M 25.253906 40.457031 " fill-opacity="1" fill-rule="nonzero"/><path fill="#000000" d="M 21.835938 37.511719 C 22.003906 37.605469 22.160156 37.71875 22.300781 37.847656 C 22.410156 37.964844 22.496094 38.09375 22.5625 38.238281 C 22.621094 38.367188 22.644531 38.507812 22.644531 38.648438 C 22.644531 38.796875 22.621094 38.9375 22.570312 39.078125 L 22.03125 38.78125 C 22.058594 38.691406 22.074219 38.601562 22.074219 38.507812 C 22.078125 38.421875 22.0625 38.335938 22.03125 38.253906 C 22.007812 38.167969 21.964844 38.09375 21.902344 38.03125 C 21.835938 37.949219 21.757812 37.886719 21.664062 37.839844 C 21.601562 37.800781 21.535156 37.773438 21.460938 37.75 C 21.394531 37.730469 21.320312 37.722656 21.25 37.726562 C 21.183594 37.726562 21.121094 37.746094 21.0625 37.78125 C 20.996094 37.824219 20.949219 37.878906 20.914062 37.949219 C 20.859375 38.035156 20.839844 38.132812 20.851562 38.238281 C 20.859375 38.34375 20.886719 38.445312 20.933594 38.542969 C 20.980469 38.65625 21.035156 38.761719 21.101562 38.863281 L 21.332031 39.183594 L 21.550781 39.523438 C 21.617188 39.632812 21.671875 39.75 21.714844 39.871094 C 21.753906 39.980469 21.773438 40.097656 21.773438 40.214844 C 21.769531 40.339844 21.738281 40.460938 21.683594 40.570312 C 21.613281 40.691406 21.519531 40.796875 21.40625 40.875 C 21.285156 40.953125 21.15625 41 21.011719 41.015625 C 20.851562 41.042969 20.691406 41.03125 20.53125 40.992188 C 20.339844 40.949219 20.15625 40.878906 19.984375 40.777344 C 19.835938 40.699219 19.703125 40.597656 19.585938 40.472656 C 19.484375 40.363281 19.40625 40.238281 19.347656 40.101562 C 19.230469 39.832031 19.203125 39.554688 19.277344 39.269531 L 19.765625 39.539062 C 19.75 39.628906 19.742188 39.722656 19.742188 39.8125 C 19.742188 39.898438 19.753906 39.984375 19.78125 40.066406 C 19.808594 40.15625 19.851562 40.230469 19.910156 40.300781 C 19.984375 40.382812 20.066406 40.449219 20.164062 40.496094 C 20.25 40.550781 20.34375 40.585938 20.441406 40.605469 C 20.515625 40.617188 20.589844 40.609375 20.664062 40.589844 C 20.722656 40.574219 20.777344 40.546875 20.824219 40.503906 C 20.867188 40.464844 20.90625 40.421875 20.941406 40.375 C 20.980469 40.285156 20.996094 40.195312 20.988281 40.101562 C 20.972656 39.992188 20.941406 39.890625 20.890625 39.796875 C 20.839844 39.683594 20.78125 39.574219 20.710938 39.472656 L 20.484375 39.128906 C 20.402344 39.019531 20.328125 38.898438 20.253906 38.78125 C 20.1875 38.667969 20.132812 38.546875 20.082031 38.425781 C 20.046875 38.3125 20.023438 38.199219 20.019531 38.078125 C 20.019531 37.960938 20.050781 37.847656 20.109375 37.742188 C 20.175781 37.613281 20.265625 37.507812 20.386719 37.429688 C 20.503906 37.34375 20.632812 37.289062 20.777344 37.261719 C 20.941406 37.238281 21.105469 37.246094 21.265625 37.289062 C 21.46875 37.328125 21.660156 37.402344 21.835938 37.511719 Z M 21.835938 37.511719 " fill-opacity="1" fill-rule="nonzero"/><path fill="#000000" d="M 15.292969 37.1875 L 15.5 36.949219 L 16.445312 37.765625 L 18.582031 35.242188 L 19.25 35.828125 L 17.113281 38.351562 L 18.058594 39.167969 L 17.855469 39.40625 Z M 15.292969 37.1875 " fill-opacity="1" fill-rule="nonzero"/><path fill="#000000" d="M 14.101562 35.777344 L 14.699219 33.839844 L 12.742188 33.921875 L 12.382812 33.433594 L 14.863281 33.34375 L 16.109375 32.402344 L 16.632812 33.121094 L 15.433594 34.027344 L 14.65625 36.527344 Z M 14.101562 35.777344 " fill-opacity="1" fill-rule="nonzero"/><path fill="#000000" d="M 11.828125 32.328125 L 11.460938 31.519531 L 14.398438 30.167969 L 13.636719 28.476562 L 13.972656 28.320312 L 15.097656 30.828125 Z M 11.828125 32.328125 " fill-opacity="1" fill-rule="nonzero"/><g clip-path="url(#8ff4bdf08a)"><path fill="#000000" d="M 9.707031 26 L 10.007812 25.925781 L 10.421875 27.703125 L 11.582031 27.421875 L 11.230469 25.953125 L 11.523438 25.878906 L 11.875 27.355469 L 13.261719 27.015625 L 12.847656 25.242188 L 13.207031 25.152344 L 13.832031 27.800781 L 10.332031 28.640625 Z M 9.707031 26 " fill-opacity="1" fill-rule="nonzero"/></g><path fill="#000000" d="M 11.722656 23.667969 C 11.652344 23.667969 11.589844 23.65625 11.523438 23.632812 C 11.46875 23.605469 11.417969 23.570312 11.371094 23.527344 C 11.324219 23.480469 11.285156 23.421875 11.253906 23.363281 C 11.230469 23.296875 11.214844 23.226562 11.214844 23.15625 C 11.214844 23.085938 11.222656 23.023438 11.246094 22.957031 C 11.269531 22.894531 11.300781 22.839844 11.34375 22.792969 C 11.390625 22.742188 11.441406 22.707031 11.5 22.675781 C 11.5625 22.644531 11.625 22.628906 11.695312 22.628906 C 11.761719 22.625 11.828125 22.636719 11.890625 22.660156 L 12.046875 22.769531 C 12.09375 22.816406 12.128906 22.871094 12.152344 22.933594 C 12.179688 22.996094 12.195312 23.0625 12.195312 23.132812 C 12.199219 23.203125 12.1875 23.269531 12.160156 23.335938 C 12.140625 23.398438 12.109375 23.453125 12.0625 23.503906 C 12.023438 23.550781 11.976562 23.589844 11.917969 23.617188 C 11.855469 23.648438 11.789062 23.667969 11.722656 23.667969 Z M 11.722656 23.667969 " fill-opacity="1" fill-rule="nonzero"/><g clip-path="url(#4d0385b869)"><path fill="#000000" d="M 13.449219 19.476562 C 13.417969 19.667969 13.359375 19.855469 13.269531 20.027344 C 13.195312 20.167969 13.101562 20.292969 12.984375 20.398438 C 12.875 20.492188 12.753906 20.5625 12.617188 20.605469 C 12.484375 20.648438 12.34375 20.667969 12.203125 20.664062 L 12.316406 20.054688 C 12.40625 20.050781 12.492188 20.039062 12.578125 20.011719 C 12.660156 19.988281 12.738281 19.949219 12.804688 19.898438 C 12.878906 19.84375 12.941406 19.777344 12.984375 19.699219 C 13.039062 19.609375 13.074219 19.511719 13.089844 19.410156 C 13.105469 19.335938 13.109375 19.261719 13.109375 19.1875 C 13.109375 19.117188 13.09375 19.046875 13.066406 18.980469 C 13.042969 18.914062 13.007812 18.859375 12.960938 18.808594 C 12.902344 18.757812 12.832031 18.730469 12.757812 18.71875 C 12.65625 18.699219 12.558594 18.707031 12.464844 18.742188 C 12.367188 18.785156 12.28125 18.84375 12.203125 18.914062 C 12.109375 18.996094 12.027344 19.085938 11.957031 19.1875 L 11.710938 19.5 L 11.46875 19.8125 C 11.382812 19.910156 11.292969 20 11.191406 20.078125 C 11.097656 20.152344 10.992188 20.207031 10.878906 20.242188 C 10.761719 20.28125 10.640625 20.28125 10.523438 20.25 C 10.386719 20.226562 10.261719 20.171875 10.15625 20.085938 C 10.042969 19.996094 9.953125 19.886719 9.894531 19.757812 C 9.824219 19.605469 9.785156 19.445312 9.769531 19.277344 C 9.753906 19.078125 9.765625 18.878906 9.8125 18.683594 C 9.839844 18.519531 9.894531 18.363281 9.976562 18.214844 C 10.046875 18.082031 10.136719 17.964844 10.253906 17.867188 C 10.359375 17.769531 10.476562 17.695312 10.609375 17.644531 C 10.742188 17.59375 10.875 17.5625 11.011719 17.546875 L 10.90625 18.097656 C 10.816406 18.109375 10.730469 18.128906 10.644531 18.15625 C 10.5625 18.183594 10.488281 18.222656 10.414062 18.273438 C 10.339844 18.324219 10.28125 18.390625 10.234375 18.46875 C 10.179688 18.566406 10.140625 18.667969 10.121094 18.773438 C 10.101562 18.875 10.101562 18.972656 10.113281 19.070312 C 10.125 19.148438 10.152344 19.21875 10.1875 19.285156 C 10.226562 19.339844 10.273438 19.382812 10.324219 19.417969 C 10.375 19.449219 10.425781 19.46875 10.480469 19.476562 C 10.574219 19.5 10.664062 19.488281 10.75 19.441406 C 10.847656 19.398438 10.933594 19.339844 11.011719 19.261719 C 11.101562 19.179688 11.183594 19.085938 11.253906 18.988281 L 11.507812 18.667969 C 11.589844 18.554688 11.675781 18.449219 11.769531 18.347656 C 11.855469 18.246094 11.945312 18.15625 12.046875 18.074219 C 12.140625 17.996094 12.242188 17.9375 12.355469 17.902344 C 12.472656 17.867188 12.589844 17.859375 12.707031 17.882812 C 12.847656 17.910156 12.976562 17.964844 13.089844 18.050781 C 13.203125 18.140625 13.292969 18.25 13.359375 18.378906 C 13.429688 18.53125 13.472656 18.691406 13.492188 18.859375 C 13.503906 19.066406 13.492188 19.273438 13.449219 19.476562 Z M 13.449219 19.476562 " fill-opacity="1" fill-rule="nonzero"/></g><path fill="#000000" d="M 11.777344 13.074219 L 12.0625 13.199219 L 11.574219 14.351562 L 14.601562 15.65625 L 14.257812 16.472656 L 11.230469 15.167969 L 10.742188 16.332031 L 10.457031 16.210938 Z M 11.777344 13.074219 " fill-opacity="1" fill-rule="nonzero"/><path fill="#000000" d="M 12.742188 11.507812 L 14.746094 11.488281 L 14.078125 9.625 L 14.429688 9.128906 L 15.269531 11.488281 L 16.527344 12.40625 L 16.011719 13.132812 L 14.796875 12.25 L 12.203125 12.265625 Z M 12.742188 11.507812 " fill-opacity="1" fill-rule="nonzero"/><path fill="#000000" d="M 15.292969 8.265625 L 15.945312 7.664062 L 18.117188 10.078125 L 19.480469 8.832031 L 19.722656 9.105469 L 17.710938 10.953125 Z M 15.292969 8.265625 " fill-opacity="1" fill-rule="nonzero"/><path fill="#000000" d="M 20.621094 4.296875 L 20.777344 4.558594 L 19.234375 5.5 L 19.847656 6.53125 L 21.128906 5.75 L 21.289062 6.011719 L 20 6.796875 L 20.742188 8.035156 L 22.285156 7.085938 L 22.472656 7.40625 L 20.171875 8.808594 L 18.320312 5.699219 Z M 20.621094 4.296875 " fill-opacity="1" fill-rule="nonzero"/><path fill="#000000" d="M 23.429688 5.527344 C 23.410156 5.464844 23.402344 5.398438 23.402344 5.335938 C 23.410156 5.269531 23.429688 5.207031 23.460938 5.144531 C 23.527344 5.019531 23.625 4.933594 23.761719 4.890625 C 23.824219 4.867188 23.890625 4.855469 23.957031 4.855469 C 24.023438 4.859375 24.085938 4.878906 24.144531 4.90625 C 24.207031 4.933594 24.257812 4.972656 24.300781 5.023438 C 24.347656 5.070312 24.378906 5.125 24.398438 5.1875 C 24.421875 5.25 24.433594 5.316406 24.421875 5.386719 C 24.425781 5.453125 24.40625 5.515625 24.375 5.574219 C 24.34375 5.632812 24.304688 5.683594 24.253906 5.722656 C 24.203125 5.773438 24.144531 5.808594 24.082031 5.832031 C 24.015625 5.851562 23.945312 5.859375 23.875 5.855469 C 23.8125 5.855469 23.75 5.839844 23.6875 5.8125 C 23.628906 5.789062 23.578125 5.75 23.535156 5.699219 C 23.484375 5.648438 23.449219 5.589844 23.429688 5.527344 Z M 23.429688 5.527344 " fill-opacity="1" fill-rule="nonzero"/><g clip-path="url(#bed12e332d)"><path fill="#000000" d="M 27.898438 5.929688 C 27.707031 5.957031 27.519531 5.953125 27.328125 5.921875 C 27.171875 5.894531 27.027344 5.839844 26.894531 5.757812 C 26.773438 5.683594 26.675781 5.589844 26.59375 5.476562 C 26.507812 5.355469 26.445312 5.222656 26.40625 5.078125 L 27.019531 5.015625 C 27.050781 5.097656 27.089844 5.175781 27.140625 5.253906 C 27.1875 5.324219 27.242188 5.382812 27.3125 5.433594 C 27.386719 5.488281 27.46875 5.527344 27.554688 5.550781 C 27.65625 5.574219 27.757812 5.578125 27.859375 5.558594 C 27.929688 5.550781 28 5.535156 28.070312 5.507812 C 28.140625 5.488281 28.203125 5.453125 28.257812 5.410156 C 28.3125 5.371094 28.355469 5.316406 28.378906 5.253906 C 28.414062 5.183594 28.425781 5.109375 28.414062 5.03125 C 28.402344 4.929688 28.363281 4.835938 28.296875 4.757812 C 28.230469 4.671875 28.148438 4.605469 28.054688 4.550781 C 27.949219 4.492188 27.839844 4.441406 27.726562 4.402344 L 27.351562 4.261719 C 27.226562 4.222656 27.105469 4.171875 26.984375 4.113281 C 26.867188 4.070312 26.753906 4.007812 26.652344 3.933594 C 26.554688 3.867188 26.472656 3.78125 26.40625 3.6875 C 26.339844 3.582031 26.296875 3.46875 26.285156 3.347656 C 26.265625 3.207031 26.28125 3.070312 26.332031 2.933594 C 26.382812 2.800781 26.457031 2.683594 26.5625 2.589844 C 26.679688 2.472656 26.816406 2.382812 26.96875 2.324219 C 27.15625 2.25 27.347656 2.199219 27.546875 2.175781 C 27.710938 2.160156 27.875 2.164062 28.039062 2.191406 C 28.1875 2.222656 28.324219 2.277344 28.453125 2.359375 C 28.574219 2.429688 28.675781 2.519531 28.765625 2.628906 C 28.851562 2.742188 28.925781 2.863281 28.984375 2.992188 L 28.4375 3.058594 L 28.296875 2.828125 C 28.246094 2.757812 28.1875 2.691406 28.121094 2.636719 C 28.042969 2.585938 27.960938 2.546875 27.875 2.523438 C 27.769531 2.5 27.664062 2.496094 27.554688 2.515625 C 27.457031 2.519531 27.359375 2.542969 27.269531 2.589844 C 27.203125 2.621094 27.144531 2.667969 27.097656 2.730469 C 27.058594 2.777344 27.027344 2.832031 27.011719 2.894531 C 27 2.949219 26.996094 3.007812 27 3.066406 C 27.011719 3.164062 27.046875 3.25 27.117188 3.324219 C 27.1875 3.398438 27.269531 3.460938 27.359375 3.511719 C 27.472656 3.574219 27.585938 3.625 27.703125 3.667969 L 28.078125 3.808594 L 28.460938 3.964844 C 28.582031 4.015625 28.699219 4.078125 28.804688 4.15625 C 28.902344 4.222656 28.988281 4.300781 29.058594 4.394531 C 29.125 4.496094 29.164062 4.605469 29.179688 4.726562 C 29.199219 4.867188 29.1875 5.007812 29.140625 5.144531 C 29.09375 5.285156 29.015625 5.40625 28.910156 5.507812 C 28.789062 5.625 28.652344 5.71875 28.496094 5.78125 C 28.304688 5.863281 28.105469 5.910156 27.898438 5.929688 Z M 27.898438 5.929688 " fill-opacity="1" fill-rule="nonzero"/></g><g clip-path="url(#241d85ef5d)"><path fill="#000000" d="M 33.421875 2.367188 L 33.398438 2.679688 L 32.15625 2.5625 L 31.855469 5.871094 L 30.976562 5.789062 L 31.277344 2.480469 L 30.035156 2.367188 L 30.070312 2.050781 Z M 33.421875 2.367188 " fill-opacity="1" fill-rule="nonzero"/></g><g clip-path="url(#44d1fe4a07)"><path fill="#000000" d="M 35.199219 2.820312 L 35.820312 4.75 L 37.378906 3.539062 L 37.949219 3.726562 L 35.976562 5.253906 L 35.496094 6.746094 L 34.652344 6.464844 L 35.121094 5.023438 L 34.320312 2.53125 Z M 35.199219 2.820312 " fill-opacity="1" fill-rule="nonzero"/></g><path fill="#000000" d="M 39.035156 4.304688 L 39.792969 4.75 L 38.171875 7.570312 L 39.761719 8.503906 L 39.574219 8.824219 L 37.222656 7.449219 Z M 39.035156 4.304688 " fill-opacity="1" fill-rule="nonzero"/><path fill="#000000" d="M 44.386719 8.222656 L 44.183594 8.453125 L 42.820312 7.257812 L 42.046875 8.15625 L 43.171875 9.15625 L 42.96875 9.394531 L 41.84375 8.394531 L 40.902344 9.476562 L 42.257812 10.683594 L 42.011719 10.960938 L 39.988281 9.171875 L 42.363281 6.433594 Z M 44.386719 8.222656 " fill-opacity="1" fill-rule="nonzero"/><path fill="#000000" d="M 44.078125 11.308594 C 44.132812 11.269531 44.191406 11.242188 44.257812 11.226562 C 44.320312 11.210938 44.382812 11.207031 44.445312 11.21875 C 44.511719 11.226562 44.574219 11.25 44.632812 11.285156 C 44.691406 11.324219 44.738281 11.371094 44.777344 11.433594 C 44.824219 11.484375 44.855469 11.546875 44.867188 11.613281 C 44.910156 11.75 44.894531 11.875 44.820312 11.992188 C 44.789062 12.054688 44.742188 12.101562 44.6875 12.140625 C 44.632812 12.179688 44.574219 12.207031 44.507812 12.222656 C 44.449219 12.238281 44.386719 12.242188 44.320312 12.234375 C 44.257812 12.21875 44.199219 12.195312 44.140625 12.160156 C 44.019531 12.085938 43.941406 11.976562 43.90625 11.835938 C 43.882812 11.773438 43.878906 11.707031 43.890625 11.640625 C 43.898438 11.574219 43.917969 11.515625 43.945312 11.457031 C 43.980469 11.398438 44.023438 11.347656 44.078125 11.308594 Z M 44.078125 11.308594 " fill-opacity="1" fill-rule="nonzero"/><path fill="#000000" d="M 45.054688 15.738281 C 44.972656 15.5625 44.917969 15.378906 44.894531 15.1875 C 44.871094 15.027344 44.875 14.871094 44.910156 14.714844 C 44.945312 14.578125 45.003906 14.449219 45.089844 14.335938 C 45.175781 14.21875 45.28125 14.121094 45.398438 14.039062 L 45.652344 14.609375 C 45.578125 14.660156 45.515625 14.726562 45.464844 14.796875 C 45.410156 14.863281 45.367188 14.9375 45.34375 15.019531 C 45.308594 15.105469 45.300781 15.195312 45.308594 15.285156 C 45.316406 15.386719 45.339844 15.488281 45.382812 15.582031 C 45.414062 15.648438 45.457031 15.714844 45.496094 15.78125 C 45.542969 15.835938 45.59375 15.886719 45.652344 15.929688 C 45.710938 15.964844 45.773438 15.988281 45.839844 15.996094 C 45.914062 16.003906 45.984375 15.992188 46.050781 15.960938 C 46.144531 15.914062 46.222656 15.851562 46.28125 15.765625 C 46.335938 15.671875 46.371094 15.570312 46.394531 15.464844 C 46.421875 15.347656 46.4375 15.226562 46.441406 15.105469 C 46.453125 14.980469 46.453125 14.847656 46.460938 14.707031 C 46.46875 14.566406 46.476562 14.433594 46.484375 14.304688 C 46.5 14.179688 46.523438 14.054688 46.558594 13.933594 C 46.589844 13.816406 46.644531 13.710938 46.71875 13.617188 C 46.796875 13.523438 46.886719 13.449219 46.996094 13.394531 C 47.128906 13.339844 47.265625 13.3125 47.40625 13.320312 C 47.546875 13.328125 47.679688 13.367188 47.804688 13.4375 C 47.945312 13.523438 48.066406 13.628906 48.171875 13.75 C 48.300781 13.90625 48.402344 14.078125 48.484375 14.261719 C 48.550781 14.417969 48.59375 14.578125 48.613281 14.75 C 48.628906 14.894531 48.621094 15.042969 48.589844 15.1875 C 48.554688 15.324219 48.5 15.453125 48.425781 15.574219 C 48.347656 15.695312 48.257812 15.800781 48.148438 15.894531 L 47.917969 15.382812 C 47.984375 15.320312 48.042969 15.25 48.097656 15.179688 C 48.148438 15.109375 48.1875 15.035156 48.222656 14.957031 C 48.25 14.867188 48.261719 14.777344 48.253906 14.683594 C 48.242188 14.574219 48.214844 14.46875 48.171875 14.371094 C 48.132812 14.277344 48.078125 14.195312 48.007812 14.121094 C 47.910156 14.011719 47.789062 13.960938 47.640625 13.964844 C 47.585938 13.96875 47.53125 13.984375 47.480469 14.007812 C 47.390625 14.046875 47.320312 14.109375 47.273438 14.195312 C 47.222656 14.289062 47.1875 14.386719 47.167969 14.492188 C 47.144531 14.617188 47.125 14.738281 47.121094 14.863281 C 47.121094 14.996094 47.113281 15.136719 47.105469 15.269531 C 47.097656 15.402344 47.085938 15.550781 47.070312 15.6875 C 47.0625 15.820312 47.039062 15.945312 46.996094 16.070312 C 46.96875 16.1875 46.917969 16.292969 46.84375 16.390625 C 46.773438 16.488281 46.683594 16.558594 46.574219 16.605469 C 46.445312 16.667969 46.308594 16.699219 46.164062 16.695312 C 46.019531 16.695312 45.882812 16.65625 45.757812 16.582031 C 45.609375 16.5 45.480469 16.394531 45.375 16.265625 C 45.238281 16.109375 45.132812 15.933594 45.054688 15.738281 Z M 45.054688 15.738281 " fill-opacity="1" fill-rule="nonzero"/><g clip-path="url(#32bab5dea8)"><path fill="#000000" d="M 50.082031 19.988281 L 49.78125 20.054688 L 49.511719 18.824219 L 46.296875 19.535156 L 46.109375 18.660156 L 49.324219 17.949219 L 49.0625 16.71875 L 49.363281 16.65625 Z M 50.082031 19.988281 " fill-opacity="1" fill-rule="nonzero"/></g><g clip-path="url(#1eee187296)"><path fill="#000000" d="M 50.195312 21.828125 L 48.5625 23.015625 L 50.179688 24.144531 L 50.179688 24.746094 L 48.140625 23.3125 L 46.589844 23.3125 L 46.589844 22.414062 L 48.089844 22.414062 L 50.195312 20.886719 Z M 50.195312 21.828125 " fill-opacity="1" fill-rule="nonzero"/></g><path fill="#000000" d="M 49.96875 25.96875 L 49.773438 26.84375 L 46.621094 26.132812 L 46.222656 27.949219 L 45.863281 27.867188 L 46.453125 25.183594 Z M 49.96875 25.96875 " fill-opacity="1" fill-rule="nonzero"/><path fill="#000000" d="M 47.886719 32.320312 L 47.601562 32.199219 L 48.328125 30.523438 L 47.242188 30.042969 L 46.640625 31.429688 L 46.363281 31.308594 L 46.957031 29.921875 L 45.652344 29.34375 L 44.925781 31.007812 L 44.589844 30.859375 L 45.667969 28.371094 L 48.964844 29.828125 Z M 47.886719 32.320312 " fill-opacity="1" fill-rule="nonzero"/><g clip-path="url(#ccd490ee53)"><path fill="#040606" d="M 25.0625 22.3125 L 34.9375 22.3125 C 34.769531 20.90625 34.375 18.769531 33.46875 18.042969 C 32.613281 17.355469 31.503906 17.050781 30.773438 16.921875 C 30.261719 16.832031 29.738281 16.832031 29.226562 16.921875 C 28.496094 17.050781 27.386719 17.355469 26.53125 18.042969 C 25.625 18.769531 25.230469 20.90625 25.0625 22.3125 " fill-opacity="1" fill-rule="nonzero"/></g><g clip-path="url(#cdc67c89bd)"><path fill="#040606" d="M 18.011719 25.566406 C 19.328125 27.105469 21.878906 26.875 25.664062 26.125 C 28.679688 25.527344 34.296875 28.257812 37.726562 28.070312 C 41.15625 27.882812 41.988281 25.566406 41.988281 25.566406 L 35.050781 23.617188 L 24.949219 23.617188 L 18.011719 25.566406 " fill-opacity="1" fill-rule="nonzero"/></g><path fill="#ffffff" d="M 24.949219 23.617188 L 35.050781 23.617188 C 35.050781 23.617188 35.027344 23.070312 34.9375 22.3125 L 25.0625 22.3125 C 24.972656 23.070312 24.949219 23.617188 24.949219 23.617188 " fill-opacity="1" fill-rule="nonzero"/></svg>