<svg xmlns="http://www.w3.org/2000/svg" xmlns:xlink="http://www.w3.org/1999/xlink" width="80" zoomAndPan="magnify" viewBox="0 0 60 44.999999" height="60" preserveAspectRatio="xMidYMid meet" version="1.0"><defs><clipPath id="069bce5500"><path d="M 26 0.453125 L 28 0.453125 L 28 5 L 26 5 Z M 26 0.453125 " clip-rule="nonzero"/></clipPath><clipPath id="3f083c82b7"><path d="M 14 35 L 25 35 L 25 44.703125 L 14 44.703125 Z M 14 35 " clip-rule="nonzero"/></clipPath><clipPath id="7bf1667916"><path d="M 40 35 L 51 35 L 51 44.703125 L 40 44.703125 Z M 40 35 " clip-rule="nonzero"/></clipPath><clipPath id="e1b7a01223"><path d="M 30 35 L 40 35 L 40 44.703125 L 30 44.703125 Z M 30 35 " clip-rule="nonzero"/></clipPath><clipPath id="c9bb00e1b5"><path d="M 5 35 L 15 35 L 15 44.703125 L 5 44.703125 Z M 5 35 " clip-rule="nonzero"/></clipPath><clipPath id="8dc038008e"><path d="M 51 35 L 55 35 L 55 44.703125 L 51 44.703125 Z M 51 35 " clip-rule="nonzero"/></clipPath><clipPath id="baa7dec168"><path d="M 25 35 L 30 35 L 30 44.703125 L 25 44.703125 Z M 25 35 " clip-rule="nonzero"/></clipPath></defs><path fill="#ffffff" d="M 17.875 34.585938 C 16.871094 34.585938 15.960938 34.570312 15.046875 34.585938 C 14.53125 34.597656 14.578125 34.25 14.578125 33.914062 C 14.578125 31.757812 14.578125 29.613281 14.578125 27.457031 C 14.578125 24.765625 14.578125 22.09375 14.578125 19.402344 C 14.578125 16.726562 15.792969 15.527344 18.484375 15.527344 C 19.089844 15.527344 19.699219 15.511719 20.304688 15.527344 C 22.222656 15.601562 23.589844 16.972656 23.589844 18.902344 C 23.605469 23.886719 23.589844 28.871094 23.605469 33.855469 C 23.605469 34.433594 23.4375 34.613281 22.875 34.585938 C 22.25 34.539062 21.613281 34.554688 20.976562 34.585938 C 20.457031 34.613281 20.304688 34.402344 20.320312 33.914062 C 20.351562 33.261719 20.335938 32.59375 20.320312 31.941406 C 20.292969 30.96875 19.851562 30.480469 19.046875 30.496094 C 18.269531 30.511719 17.875 30.984375 17.875 31.925781 C 17.875 32.792969 17.875 33.625 17.875 34.585938 Z M 17.921875 29.464844 C 18.621094 29.464844 19.210938 29.449219 19.820312 29.464844 C 20.246094 29.476562 20.320312 29.265625 20.320312 28.902344 C 20.320312 25.253906 20.320312 21.605469 20.304688 17.972656 C 20.304688 17.03125 19.867188 16.589844 19.058594 16.605469 C 18.226562 16.621094 17.875 17.03125 17.875 17.988281 C 17.875 21.5625 17.875 25.132812 17.875 28.6875 C 17.875 28.929688 17.90625 29.144531 17.921875 29.464844 Z M 17.921875 29.464844 " fill-opacity="1" fill-rule="nonzero"/><path fill="#ffffff" d="M 46.382812 27.046875 C 47.523438 27.046875 48.527344 27.046875 49.574219 27.046875 C 49.574219 29.554688 49.574219 32.03125 49.574219 34.628906 C 49.210938 34.628906 48.832031 34.628906 48.464844 34.628906 C 46.992188 34.628906 45.535156 34.644531 44.058594 34.628906 C 42.070312 34.613281 40.699219 33.214844 40.6875 31.210938 C 40.6875 27.109375 40.6875 23.003906 40.6875 18.917969 C 40.6875 17.214844 41.78125 15.785156 43.464844 15.664062 C 45.472656 15.511719 47.492188 15.632812 49.558594 15.632812 C 49.558594 17.503906 49.558594 19.34375 49.558594 21.226562 C 48.542969 21.226562 47.554688 21.226562 46.445312 21.226562 C 46.445312 19.765625 46.445312 18.292969 46.445312 16.726562 C 45.808594 16.726562 45.246094 16.652344 44.726562 16.742188 C 44.136719 16.863281 43.90625 17.367188 43.890625 17.960938 C 43.890625 19.480469 43.90625 21 43.875 22.519531 C 43.863281 23.035156 44.074219 23.171875 44.5625 23.15625 C 45.699219 23.125 46.824219 23.15625 48.011719 23.15625 C 48.011719 23.917969 48.011719 24.585938 48.011719 25.3125 C 47.539062 24.996094 47.097656 24.660156 46.628906 24.402344 C 46.246094 24.203125 45.820312 24.082031 45.398438 24.023438 C 44.410156 23.886719 43.90625 24.328125 43.890625 25.328125 C 43.875 27.503906 43.890625 29.675781 43.890625 31.863281 C 43.890625 33.214844 44.257812 33.566406 45.609375 33.550781 C 45.835938 33.550781 46.066406 33.535156 46.371094 33.519531 C 46.382812 31.363281 46.382812 29.25 46.382812 27.046875 Z M 46.382812 27.046875 " fill-opacity="1" fill-rule="nonzero"/><path fill="#ffffff" d="M 30.320312 34.628906 C 30.320312 28.261719 30.320312 21.972656 30.320312 15.574219 C 31.171875 15.574219 31.992188 15.574219 32.828125 15.574219 C 33.847656 15.574219 34.851562 15.574219 35.867188 15.574219 C 37.691406 15.558594 39.273438 17.109375 39.195312 18.945312 C 39.105469 21.726562 39.105469 24.507812 39.195312 27.289062 C 39.257812 28.914062 37.78125 30.601562 35.945312 30.574219 C 35.167969 30.558594 34.378906 30.574219 33.480469 30.574219 C 33.480469 31.710938 33.453125 32.792969 33.496094 33.871094 C 33.527344 34.476562 33.316406 34.675781 32.722656 34.628906 C 31.933594 34.585938 31.15625 34.628906 30.320312 34.628906 Z M 33.496094 29.492188 C 34.015625 29.492188 34.441406 29.523438 34.863281 29.492188 C 35.550781 29.449219 35.945312 29.039062 35.945312 28.367188 C 35.960938 24.84375 35.960938 21.332031 35.945312 17.808594 C 35.945312 17.230469 35.625 16.820312 35.0625 16.726562 C 34.5625 16.652344 34.03125 16.710938 33.480469 16.710938 C 33.496094 21 33.496094 25.191406 33.496094 29.492188 Z M 33.496094 29.492188 " fill-opacity="1" fill-rule="nonzero"/><path fill="#ffffff" d="M 13.878906 15.574219 C 13.878906 16.4375 13.878906 17.167969 13.878906 17.882812 C 13.363281 17.535156 12.890625 17.09375 12.328125 16.851562 C 11.292969 16.410156 11.097656 16.574219 11.097656 17.683594 C 11.097656 23.003906 11.097656 28.308594 11.097656 33.625 C 11.097656 33.929688 11.097656 34.21875 11.097656 34.570312 C 9.988281 34.570312 8.96875 34.570312 7.875 34.570312 C 7.875 28.613281 7.875 22.683594 7.875 16.710938 C 6.644531 16.5625 5.824219 17.109375 5.035156 17.988281 C 5.035156 17.273438 5.019531 16.574219 5.050781 15.863281 C 5.050781 15.753906 5.292969 15.589844 5.414062 15.589844 C 8.210938 15.574219 11.007812 15.574219 13.878906 15.574219 Z M 13.878906 15.574219 " fill-opacity="1" fill-rule="nonzero"/><path fill="#ffffff" d="M 54.5 15.574219 C 54.5 21.957031 54.5 28.246094 54.5 34.613281 C 53.558594 34.613281 52.644531 34.628906 51.75 34.597656 C 51.613281 34.597656 51.382812 34.3125 51.355469 34.128906 C 51.292969 33.703125 51.339844 33.277344 51.339844 32.835938 C 51.339844 27.351562 51.355469 21.863281 51.324219 16.363281 C 51.324219 15.742188 51.492188 15.511719 52.128906 15.558594 C 52.902344 15.617188 53.679688 15.574219 54.5 15.574219 Z M 54.5 15.574219 " fill-opacity="1" fill-rule="nonzero"/><path fill="#ffffff" d="M 24.867188 32.503906 L 24.867188 34.644531 L 26.292969 34.644531 L 26.292969 32.804688 L 27.648438 32.804688 L 27.648438 34.628906 C 28.132812 34.613281 28.632812 34.613281 29.121094 34.613281 C 29.089844 33.902344 29.042969 33.203125 29.015625 32.488281 C 29.195312 32.441406 29.332031 32.410156 29.457031 32.378906 L 29.457031 31.089844 C 29.273438 31.074219 29.136719 31.074219 29.015625 31.074219 C 28.453125 31.058594 27.90625 31.132812 27.386719 30.738281 C 27.191406 30.585938 26.675781 30.617188 26.476562 30.769531 C 26.050781 31.105469 25.609375 31.058594 25.140625 31.074219 C 24.925781 31.074219 24.730469 31.074219 24.425781 31.074219 C 24.667969 31.558594 24.121094 32.183594 24.867188 32.503906 Z M 28.953125 31.957031 C 28.679688 31.847656 28.179688 32.242188 28.117188 31.574219 C 28.9375 31.421875 29.03125 31.46875 28.953125 31.957031 Z M 27.007812 31.058594 C 27.34375 31.074219 27.648438 31.378906 27.648438 31.710938 C 27.648438 32.09375 27.34375 32.394531 26.976562 32.394531 C 26.628906 32.394531 26.292969 32.078125 26.292969 31.710938 C 26.292969 31.394531 26.660156 31.042969 27.007812 31.058594 Z M 24.972656 31.546875 L 25.792969 31.546875 C 25.929688 31.96875 25.671875 31.96875 25.398438 31.96875 C 25.140625 31.957031 24.851562 32 24.972656 31.546875 Z M 24.972656 31.546875 " fill-opacity="1" fill-rule="nonzero"/><path fill="#ffffff" d="M 29.457031 9.207031 C 29.273438 9.996094 29.121094 10.726562 28.953125 11.453125 C 28.332031 11.667969 27.523438 11.167969 26.976562 11.941406 C 26.445312 11.179688 25.671875 11.652344 25.019531 11.46875 C 24.851562 10.753906 24.683594 10.027344 24.515625 9.296875 C 26.019531 9.128906 26.6875 9.070312 26.8125 10.238281 C 26.976562 10.070312 27.144531 9.996094 27.175781 9.875 C 27.28125 9.433594 27.539062 9.207031 27.996094 9.222656 C 28.46875 9.207031 28.9375 9.207031 29.457031 9.207031 Z M 29.457031 9.207031 " fill-opacity="1" fill-rule="nonzero"/><path fill="#ffffff" d="M 26.976562 28.292969 C 26.429688 27.519531 25.65625 27.988281 25.019531 27.792969 C 24.851562 27.0625 24.683594 26.347656 24.515625 25.617188 C 26.050781 25.464844 26.660156 25.390625 26.824219 26.574219 C 26.992188 26.410156 27.144531 26.316406 27.191406 26.195312 C 27.3125 25.769531 27.554688 25.527344 28.027344 25.542969 C 28.484375 25.558594 28.9375 25.542969 29.46875 25.542969 C 29.304688 26.316406 29.136719 27.03125 28.96875 27.792969 C 28.359375 28.035156 27.539062 27.488281 26.976562 28.292969 Z M 26.976562 28.292969 " fill-opacity="1" fill-rule="nonzero"/><path fill="#ffffff" d="M 26.976562 14.675781 C 26.429688 13.871094 25.625 14.371094 25.003906 14.160156 C 24.835938 13.429688 24.667969 12.714844 24.5 11.988281 C 26.019531 11.851562 26.644531 11.789062 26.796875 12.914062 C 26.960938 12.777344 27.128906 12.699219 27.175781 12.59375 C 27.328125 12.136719 27.585938 11.894531 28.085938 11.925781 C 28.527344 11.957031 28.953125 11.925781 29.457031 11.925781 C 29.363281 12.335938 29.273438 12.699219 29.195312 13.066406 C 29.121094 13.429688 29.042969 13.796875 28.953125 14.175781 C 28.332031 14.371094 27.511719 13.855469 26.976562 14.675781 Z M 26.976562 14.675781 " fill-opacity="1" fill-rule="nonzero"/><path fill="#ffffff" d="M 26.902344 15.617188 C 26.992188 15.511719 27.144531 15.4375 27.175781 15.316406 C 27.3125 14.875 27.554688 14.632812 28.042969 14.644531 C 28.484375 14.660156 28.921875 14.644531 29.441406 14.644531 C 29.273438 15.40625 29.105469 16.121094 28.9375 16.894531 C 28.621094 16.894531 28.253906 16.851562 27.90625 16.910156 C 27.585938 16.972656 27.265625 17.125 26.902344 17.261719 C 26.476562 16.574219 25.671875 17.03125 25.003906 16.863281 C 24.835938 16.136719 24.667969 15.421875 24.484375 14.644531 C 25.0625 14.644531 25.59375 14.632812 26.128906 14.644531 C 26.476562 14.675781 26.71875 15.027344 26.902344 15.617188 Z M 26.902344 15.617188 " fill-opacity="1" fill-rule="nonzero"/><path fill="#ffffff" d="M 24.484375 17.382812 C 25.0625 17.382812 25.578125 17.335938 26.097656 17.398438 C 26.550781 17.441406 26.78125 17.761719 26.871094 18.324219 C 26.976562 18.21875 27.128906 18.140625 27.175781 18.019531 C 27.3125 17.609375 27.554688 17.367188 28.011719 17.382812 C 28.46875 17.398438 28.921875 17.382812 29.441406 17.382812 C 29.273438 18.125 29.105469 18.839844 28.9375 19.601562 C 28.347656 19.8125 27.523438 19.296875 26.976562 20.101562 C 26.460938 19.34375 25.671875 19.753906 24.988281 19.601562 C 24.851562 18.902344 24.683594 18.171875 24.484375 17.382812 Z M 24.484375 17.382812 " fill-opacity="1" fill-rule="nonzero"/><path fill="#ffffff" d="M 24.5 22.851562 C 25.078125 22.851562 25.609375 22.820312 26.128906 22.867188 C 26.597656 22.914062 26.796875 23.261719 26.78125 23.734375 C 26.824219 23.75 26.871094 23.78125 26.917969 23.792969 C 27.007812 23.671875 27.144531 23.566406 27.191406 23.429688 C 27.3125 23.082031 27.496094 22.835938 27.90625 22.835938 C 28.40625 22.835938 28.90625 22.835938 29.457031 22.835938 C 29.289062 23.597656 29.121094 24.3125 28.953125 25.054688 C 28.375 25.285156 27.554688 24.753906 27.007812 25.527344 C 26.476562 24.78125 25.6875 25.222656 25.019531 25.054688 C 24.851562 24.355469 24.683594 23.644531 24.5 22.851562 Z M 24.5 22.851562 " fill-opacity="1" fill-rule="nonzero"/><path fill="#ffffff" d="M 26.886719 21.058594 C 26.992188 20.953125 27.144531 20.875 27.191406 20.753906 C 27.34375 20.359375 27.554688 20.085938 28.027344 20.117188 C 28.484375 20.132812 28.9375 20.117188 29.457031 20.117188 C 29.289062 20.875 29.121094 21.589844 28.953125 22.351562 C 28.332031 22.546875 27.511719 22.046875 26.960938 22.835938 C 26.429688 22.0625 25.65625 22.546875 25.019531 22.351562 C 24.851562 21.636719 24.683594 20.921875 24.5 20.132812 C 25.078125 20.132812 25.625 20.085938 26.171875 20.148438 C 26.597656 20.207031 26.8125 20.542969 26.78125 21.011719 C 26.8125 21.011719 26.839844 21.027344 26.886719 21.058594 Z M 26.886719 21.058594 " fill-opacity="1" fill-rule="nonzero"/><path fill="#ffffff" d="M 25.019531 30.617188 C 24.820312 29.75 24.667969 29.039062 24.484375 28.261719 C 25.078125 28.261719 25.640625 28.21875 26.171875 28.277344 C 26.628906 28.339844 26.75 28.734375 26.765625 29.160156 C 27.023438 29.25 27.175781 29.234375 27.222656 28.902344 C 27.265625 28.492188 27.511719 28.230469 27.980469 28.261719 C 28.453125 28.277344 28.921875 28.261719 29.457031 28.261719 C 29.289062 29.023438 29.121094 29.75 28.953125 30.511719 C 28.574219 30.558594 28.195312 30.617188 27.796875 30.34375 C 27.28125 29.996094 26.734375 30.070312 26.171875 30.3125 C 25.808594 30.464844 25.398438 30.527344 25.019531 30.617188 Z M 25.019531 30.617188 " fill-opacity="1" fill-rule="nonzero"/><path fill="#ffffff" d="M 27.675781 5.164062 C 27.632812 6.042969 27.585938 6.910156 27.539062 7.808594 C 27.160156 7.808594 26.824219 7.808594 26.429688 7.808594 C 26.371094 6.941406 26.324219 6.074219 26.265625 5.164062 C 26.75 5.164062 27.175781 5.164062 27.675781 5.164062 Z M 27.675781 5.164062 " fill-opacity="1" fill-rule="nonzero"/><g clip-path="url(#069bce5500)"><path fill="#ffffff" d="M 26.234375 4.511719 C 26.371094 4.375 26.523438 4.222656 26.765625 3.976562 C 26.765625 2.960938 26.765625 1.773438 26.765625 0.589844 C 27.144531 0.453125 27.222656 0.621094 27.222656 0.921875 C 27.207031 1.820312 27.207031 2.714844 27.222656 3.613281 C 27.222656 3.871094 27.097656 4.191406 27.554688 4.234375 C 27.601562 4.234375 27.632812 4.449219 27.691406 4.601562 C 27.207031 4.601562 26.765625 4.601562 26.339844 4.601562 C 26.292969 4.585938 26.265625 4.554688 26.234375 4.511719 Z M 26.234375 4.511719 " fill-opacity="1" fill-rule="nonzero"/></g><path fill="#ffffff" d="M 28.101562 8.308594 C 28.101562 8.460938 28.101562 8.582031 28.101562 8.628906 C 27.691406 8.78125 27.3125 8.933594 26.960938 9.070312 C 26.660156 8.949219 26.324219 8.796875 25.898438 8.628906 C 25.898438 8.613281 25.882812 8.492188 25.882812 8.324219 C 26.628906 8.308594 27.359375 8.308594 28.101562 8.308594 Z M 28.101562 8.308594 " fill-opacity="1" fill-rule="nonzero"/><g clip-path="url(#3f083c82b7)"><path fill="#ffffff" d="M 23.359375 44.460938 C 23.316406 44.460938 23.269531 44.460938 23.222656 44.460938 C 22.648438 44.445312 22.023438 44.445312 21.339844 44.460938 C 20.976562 44.476562 20.761719 44.433594 20.65625 44.308594 C 20.59375 44.234375 20.566406 44.144531 20.582031 44.035156 C 20.609375 43.71875 20.59375 43.398438 20.582031 43.140625 C 20.550781 42.761719 20.167969 42.578125 19.425781 42.59375 C 18.375 42.609375 18.363281 43.003906 18.363281 43.140625 C 18.363281 43.398438 18.363281 43.671875 18.363281 43.945312 L 18.363281 44.460938 L 17.359375 44.460938 C 16.691406 44.460938 16.066406 44.460938 15.429688 44.460938 C 15.15625 44.460938 15.003906 44.433594 14.925781 44.339844 C 14.835938 44.25 14.851562 44.144531 14.851562 44.066406 L 14.851562 39.980469 C 14.851562 39.113281 14.851562 38.230469 14.851562 37.367188 C 14.851562 36.058594 16.097656 35.464844 18.863281 35.464844 L 19.363281 35.464844 C 19.804688 35.464844 20.246094 35.464844 20.6875 35.464844 C 22.675781 35.496094 24.074219 36.179688 24.074219 37.121094 C 24.074219 38.078125 24.074219 39.035156 24.074219 39.996094 C 24.074219 41.300781 24.074219 42.652344 24.089844 43.992188 C 24.089844 44.128906 24.058594 44.21875 23.984375 44.296875 C 23.863281 44.417969 23.679688 44.460938 23.359375 44.460938 Z M 22.3125 44.21875 C 22.632812 44.21875 22.9375 44.21875 23.238281 44.234375 C 23.558594 44.25 23.757812 44.21875 23.816406 44.144531 C 23.832031 44.128906 23.863281 44.097656 23.863281 44.007812 C 23.847656 42.667969 23.847656 41.316406 23.847656 40.007812 C 23.847656 39.050781 23.847656 38.09375 23.847656 37.136719 C 23.847656 36.332031 22.511719 35.738281 20.6875 35.707031 C 20.246094 35.707031 19.804688 35.707031 19.363281 35.707031 L 18.863281 35.707031 C 16.25 35.707031 15.078125 36.226562 15.078125 37.378906 C 15.078125 38.246094 15.078125 39.128906 15.078125 39.996094 L 15.078125 44.082031 C 15.078125 44.144531 15.078125 44.171875 15.09375 44.1875 C 15.109375 44.203125 15.183594 44.25 15.445312 44.25 C 16.082031 44.25 16.703125 44.25 17.375 44.25 L 18.148438 44.25 L 18.148438 43.960938 C 18.148438 43.671875 18.148438 43.414062 18.148438 43.15625 C 18.148438 42.652344 18.589844 42.394531 19.441406 42.378906 C 19.457031 42.378906 19.472656 42.378906 19.484375 42.378906 C 20.550781 42.378906 20.808594 42.789062 20.824219 43.15625 C 20.839844 43.414062 20.855469 43.746094 20.824219 44.082031 C 20.824219 44.144531 20.839844 44.171875 20.839844 44.1875 C 20.882812 44.234375 20.992188 44.28125 21.339844 44.265625 C 21.675781 44.21875 22.007812 44.21875 22.3125 44.21875 Z M 20.230469 42.089844 C 20.214844 42.089844 20.199219 42.089844 20.183594 42.089844 C 19.773438 42.089844 19.347656 42.089844 18.910156 42.089844 C 18.710938 42.089844 18.5 42.089844 18.285156 42.089844 L 18.179688 42.089844 L 18.164062 41.984375 C 18.164062 41.941406 18.148438 41.894531 18.148438 41.847656 C 18.132812 41.757812 18.117188 41.695312 18.117188 41.621094 C 18.117188 39.980469 18.117188 38.339844 18.117188 36.695312 C 18.117188 36.042969 18.816406 35.953125 19.425781 35.953125 C 20.320312 35.953125 20.777344 36.195312 20.792969 36.695312 C 20.808594 37.761719 20.808594 38.855469 20.808594 39.902344 C 20.808594 40.511719 20.808594 41.117188 20.808594 41.726562 C 20.808594 41.832031 20.777344 41.910156 20.71875 41.96875 C 20.640625 42.0625 20.472656 42.089844 20.230469 42.089844 Z M 19.457031 41.863281 C 19.699219 41.863281 19.941406 41.863281 20.183594 41.863281 C 20.445312 41.863281 20.535156 41.832031 20.550781 41.804688 C 20.566406 41.789062 20.566406 41.773438 20.566406 41.726562 C 20.566406 41.117188 20.566406 40.511719 20.566406 39.902344 C 20.566406 38.855469 20.566406 37.777344 20.550781 36.710938 C 20.550781 36.363281 20.167969 36.195312 19.441406 36.195312 C 19.441406 36.195312 19.425781 36.195312 19.425781 36.195312 C 18.484375 36.195312 18.347656 36.453125 18.347656 36.710938 C 18.347656 38.351562 18.347656 39.996094 18.347656 41.636719 C 18.347656 41.695312 18.363281 41.757812 18.363281 41.832031 C 18.363281 41.847656 18.363281 41.863281 18.363281 41.878906 C 18.542969 41.878906 18.710938 41.878906 18.878906 41.878906 C 19.089844 41.863281 19.273438 41.863281 19.457031 41.863281 Z M 19.457031 41.863281 " fill-opacity="1" fill-rule="nonzero"/></g><g clip-path="url(#7bf1667916)"><path fill="#ffffff" d="M 46.21875 44.460938 C 45.625 44.460938 45.03125 44.460938 44.4375 44.460938 C 42.355469 44.445312 40.960938 43.777344 40.960938 42.773438 C 40.960938 40.753906 40.960938 38.898438 40.960938 37.121094 C 40.960938 36.242188 42.144531 35.570312 43.847656 35.511719 C 45.246094 35.464844 46.6875 35.480469 48.070312 35.480469 C 48.695312 35.480469 49.316406 35.496094 49.941406 35.496094 L 50.0625 35.496094 L 50.0625 38.292969 L 46.71875 38.292969 L 46.71875 36.226562 C 46.550781 36.226562 46.398438 36.226562 46.246094 36.226562 C 45.851562 36.210938 45.472656 36.210938 45.121094 36.242188 C 44.667969 36.285156 44.394531 36.4375 44.394531 36.679688 C 44.394531 36.941406 44.394531 37.199219 44.394531 37.457031 C 44.394531 37.882812 44.394531 38.339844 44.378906 38.777344 C 44.378906 38.839844 44.394531 38.855469 44.410156 38.871094 C 44.5 38.960938 44.835938 38.960938 44.941406 38.960938 C 45.746094 38.960938 46.535156 38.960938 47.371094 38.960938 C 47.707031 38.960938 48.039062 38.960938 48.390625 38.960938 L 48.511719 38.960938 L 48.511719 40.222656 L 48.359375 40.175781 C 48.207031 40.132812 48.070312 40.085938 47.933594 40.039062 C 47.617188 39.933594 47.3125 39.84375 46.976562 39.765625 C 46.628906 39.691406 46.203125 39.628906 45.777344 39.597656 C 44.972656 39.554688 44.652344 39.691406 44.515625 39.8125 C 44.4375 39.886719 44.394531 39.980469 44.394531 40.085938 C 44.378906 40.890625 44.378906 41.695312 44.394531 42.488281 L 44.394531 43.09375 C 44.394531 43.382812 44.46875 43.519531 44.683594 43.609375 C 44.910156 43.71875 45.304688 43.746094 46.003906 43.746094 C 46.15625 43.746094 46.292969 43.746094 46.476562 43.734375 L 46.65625 43.734375 L 46.65625 40.769531 L 50.078125 40.769531 L 50.078125 44.476562 L 47.507812 44.476562 C 47.066406 44.460938 46.644531 44.460938 46.21875 44.460938 Z M 46.21875 35.707031 C 45.425781 35.707031 44.636719 35.722656 43.847656 35.738281 C 42.296875 35.785156 41.1875 36.378906 41.171875 37.121094 C 41.171875 38.898438 41.171875 40.753906 41.171875 42.773438 C 41.171875 43.625 42.507812 44.21875 44.425781 44.234375 C 45.441406 44.234375 46.460938 44.234375 47.476562 44.234375 L 49.820312 44.234375 L 49.820312 40.980469 L 46.855469 40.980469 L 46.855469 43.945312 L 46.460938 43.960938 C 46.277344 43.960938 46.140625 43.976562 45.988281 43.976562 C 45.246094 43.976562 44.835938 43.929688 44.574219 43.808594 C 44.289062 43.671875 44.164062 43.460938 44.164062 43.078125 L 44.164062 42.472656 C 44.164062 41.679688 44.164062 40.875 44.164062 40.070312 C 44.164062 39.886719 44.226562 39.75 44.363281 39.628906 C 44.605469 39.402344 45.078125 39.308594 45.792969 39.355469 C 46.230469 39.386719 46.671875 39.449219 47.039062 39.539062 C 47.371094 39.613281 47.675781 39.722656 48.011719 39.828125 C 48.101562 39.859375 48.191406 39.886719 48.285156 39.917969 L 48.285156 39.203125 C 47.980469 39.203125 47.675781 39.203125 47.386719 39.203125 C 46.550781 39.203125 45.761719 39.203125 44.957031 39.203125 C 44.621094 39.203125 44.378906 39.1875 44.257812 39.050781 C 44.195312 38.992188 44.164062 38.898438 44.164062 38.792969 C 44.179688 38.351562 44.179688 37.914062 44.179688 37.488281 C 44.179688 37.230469 44.179688 36.96875 44.179688 36.695312 C 44.179688 36.515625 44.273438 36.105469 45.109375 36.027344 C 45.472656 35.996094 45.851562 35.996094 46.246094 36.011719 C 46.429688 36.011719 46.628906 36.011719 46.824219 36.011719 L 46.945312 36.011719 L 46.945312 38.078125 L 49.835938 38.078125 L 49.835938 35.738281 C 49.242188 35.738281 48.664062 35.738281 48.070312 35.722656 C 47.433594 35.707031 46.824219 35.707031 46.21875 35.707031 Z M 46.21875 35.707031 " fill-opacity="1" fill-rule="nonzero"/></g><g clip-path="url(#e1b7a01223)"><path fill="#ffffff" d="M 33.207031 44.476562 C 33.164062 44.476562 33.117188 44.476562 33.070312 44.476562 C 32.539062 44.460938 32.007812 44.460938 31.429688 44.460938 C 31.1875 44.460938 30.929688 44.460938 30.6875 44.460938 L 30.566406 44.460938 L 30.566406 35.480469 L 34.179688 35.480469 C 34.863281 35.480469 35.535156 35.480469 36.21875 35.480469 C 36.21875 35.480469 36.234375 35.480469 36.234375 35.480469 C 37.570312 35.480469 38.832031 35.875 39.378906 36.453125 C 39.589844 36.679688 39.683594 36.910156 39.667969 37.152344 C 39.578125 38.398438 39.578125 39.675781 39.667969 40.96875 C 39.683594 41.195312 39.589844 41.421875 39.394531 41.621094 C 38.847656 42.199219 37.632812 42.59375 36.339844 42.59375 C 36.324219 42.59375 36.308594 42.59375 36.292969 42.59375 C 35.761719 42.59375 35.230469 42.59375 34.667969 42.59375 L 33.953125 42.59375 C 33.953125 42.714844 33.953125 42.835938 33.953125 42.941406 C 33.953125 43.308594 33.9375 43.640625 33.96875 43.976562 C 33.984375 44.113281 33.953125 44.203125 33.878906 44.28125 C 33.769531 44.417969 33.574219 44.476562 33.207031 44.476562 Z M 32.144531 44.234375 C 32.464844 44.234375 32.769531 44.234375 33.070312 44.25 C 33.207031 44.25 33.605469 44.265625 33.695312 44.160156 C 33.710938 44.144531 33.726562 44.113281 33.726562 44.023438 C 33.695312 43.671875 33.695312 43.324219 33.710938 42.957031 C 33.710938 42.804688 33.710938 42.652344 33.710938 42.5 L 33.710938 42.378906 L 34.652344 42.378906 C 35.230469 42.378906 35.746094 42.378906 36.277344 42.378906 C 36.292969 42.378906 36.308594 42.378906 36.324219 42.378906 C 37.738281 42.378906 38.785156 41.925781 39.210938 41.484375 C 39.363281 41.316406 39.4375 41.148438 39.425781 40.996094 C 39.332031 39.691406 39.332031 38.398438 39.425781 37.136719 C 39.4375 36.953125 39.363281 36.773438 39.195312 36.605469 C 38.695312 36.074219 37.507812 35.707031 36.21875 35.707031 C 36.21875 35.707031 36.203125 35.707031 36.203125 35.707031 C 35.519531 35.707031 34.835938 35.707031 34.167969 35.707031 L 30.777344 35.707031 L 30.777344 44.234375 C 30.988281 44.234375 31.203125 44.234375 31.414062 44.234375 C 31.675781 44.234375 31.917969 44.234375 32.144531 44.234375 Z M 34.726562 42.105469 C 34.589844 42.105469 34.46875 42.105469 34.332031 42.105469 C 34.179688 42.105469 34.03125 42.105469 33.863281 42.105469 L 33.742188 42.105469 L 33.742188 35.996094 L 33.863281 35.996094 C 34.03125 35.996094 34.195312 35.996094 34.363281 35.996094 C 34.742188 35.996094 35.09375 35.980469 35.457031 36.011719 C 36.082031 36.058594 36.429688 36.285156 36.445312 36.621094 C 36.445312 38.261719 36.460938 39.859375 36.445312 41.46875 C 36.445312 41.695312 36.277344 42.0625 35.246094 42.105469 C 35.0625 42.105469 34.910156 42.105469 34.726562 42.105469 Z M 33.984375 41.878906 C 34.105469 41.878906 34.226562 41.878906 34.332031 41.878906 C 34.636719 41.878906 34.941406 41.878906 35.214844 41.878906 C 35.824219 41.863281 36.1875 41.710938 36.1875 41.46875 C 36.203125 39.859375 36.203125 38.261719 36.1875 36.621094 C 36.1875 36.421875 35.898438 36.269531 35.414062 36.242188 C 35.0625 36.210938 34.714844 36.226562 34.347656 36.226562 C 34.226562 36.226562 34.089844 36.226562 33.96875 36.226562 L 33.96875 41.878906 Z M 33.984375 41.878906 " fill-opacity="1" fill-rule="nonzero"/></g><g clip-path="url(#c9bb00e1b5)"><path fill="#ffffff" d="M 11.582031 44.433594 L 8.117188 44.433594 L 8.117188 36.226562 C 6.871094 36.179688 6.097656 36.46875 5.429688 36.804688 L 5.261719 36.878906 L 5.261719 36.695312 C 5.261719 36.621094 5.261719 36.542969 5.261719 36.453125 C 5.261719 36.210938 5.261719 35.953125 5.277344 35.707031 C 5.292969 35.527344 5.703125 35.480469 5.75 35.480469 C 8.089844 35.480469 10.445312 35.480469 12.828125 35.480469 L 14.335938 35.480469 L 14.335938 36.816406 L 14.183594 36.773438 C 14.03125 36.726562 13.863281 36.667969 13.710938 36.621094 C 13.375 36.5 13.027344 36.378906 12.648438 36.300781 C 12.207031 36.210938 11.78125 36.148438 11.644531 36.257812 C 11.582031 36.300781 11.570312 36.394531 11.570312 36.574219 Z M 8.347656 44.203125 L 11.339844 44.203125 L 11.339844 36.558594 C 11.339844 36.378906 11.355469 36.179688 11.507812 36.074219 C 11.707031 35.90625 12.085938 35.953125 12.707031 36.074219 C 13.101562 36.148438 13.46875 36.269531 13.800781 36.394531 C 13.910156 36.421875 14.015625 36.46875 14.121094 36.5 L 14.121094 35.707031 L 12.84375 35.707031 C 10.460938 35.707031 8.105469 35.707031 5.761719 35.707031 C 5.6875 35.707031 5.566406 35.753906 5.503906 35.769531 C 5.488281 35.996094 5.488281 36.226562 5.488281 36.453125 C 5.488281 36.46875 5.488281 36.484375 5.488281 36.515625 C 6.160156 36.195312 6.980469 35.921875 8.226562 35.996094 L 8.332031 35.996094 L 8.332031 44.203125 Z M 8.347656 44.203125 " fill-opacity="1" fill-rule="nonzero"/></g><g clip-path="url(#8dc038008e)"><path fill="#ffffff" d="M 53.464844 44.460938 C 53.011719 44.460938 52.554688 44.460938 52.097656 44.445312 C 51.914062 44.445312 51.640625 44.296875 51.597656 44.144531 C 51.550781 43.992188 51.550781 43.824219 51.566406 43.6875 C 51.566406 43.625 51.566406 43.582031 51.566406 43.519531 C 51.566406 42.925781 51.566406 42.351562 51.566406 41.757812 C 51.566406 39.859375 51.566406 37.882812 51.550781 35.953125 C 51.550781 35.816406 51.582031 35.695312 51.671875 35.617188 C 51.792969 35.496094 52.039062 35.449219 52.476562 35.464844 C 53.011719 35.480469 53.542969 35.480469 54.105469 35.480469 C 54.347656 35.480469 54.589844 35.480469 54.847656 35.480469 L 54.96875 35.480469 L 54.96875 44.460938 L 54.863281 44.460938 C 54.621094 44.460938 54.394531 44.460938 54.148438 44.460938 C 53.921875 44.460938 53.695312 44.460938 53.464844 44.460938 Z M 52.355469 35.695312 C 52.082031 35.695312 51.914062 35.722656 51.855469 35.785156 C 51.839844 35.800781 51.808594 35.84375 51.808594 35.953125 C 51.824219 37.882812 51.824219 39.859375 51.824219 41.757812 C 51.824219 42.351562 51.824219 42.925781 51.824219 43.519531 C 51.824219 43.582031 51.824219 43.640625 51.824219 43.703125 C 51.824219 43.839844 51.808594 43.960938 51.839844 44.082031 C 51.855469 44.113281 52.023438 44.21875 52.128906 44.21875 C 52.796875 44.234375 53.464844 44.234375 54.179688 44.234375 C 54.378906 44.234375 54.574219 44.234375 54.773438 44.234375 L 54.773438 35.707031 C 54.558594 35.707031 54.347656 35.707031 54.148438 35.707031 C 53.585938 35.707031 53.054688 35.707031 52.507812 35.695312 C 52.433594 35.695312 52.386719 35.695312 52.355469 35.695312 Z M 52.355469 35.695312 " fill-opacity="1" fill-rule="nonzero"/></g><g clip-path="url(#baa7dec168)"><path fill="#ffffff" d="M 27.523438 44.539062 C 27.070312 44.539062 26.613281 44.539062 26.15625 44.523438 C 25.976562 44.523438 25.703125 44.371094 25.65625 44.21875 C 25.609375 44.066406 25.609375 43.898438 25.625 43.761719 C 25.625 43.703125 25.625 43.65625 25.625 43.597656 L 25.625 41.847656 C 25.625 39.933594 25.625 37.972656 25.609375 36.027344 C 25.609375 35.890625 25.640625 35.769531 25.730469 35.695312 C 25.851562 35.570312 26.097656 35.527344 26.539062 35.542969 C 27.070312 35.558594 27.601562 35.558594 28.164062 35.558594 C 28.40625 35.558594 28.648438 35.558594 28.90625 35.558594 L 29.03125 35.558594 L 29.03125 44.539062 L 28.90625 44.539062 C 28.664062 44.539062 28.4375 44.539062 28.195312 44.539062 C 27.980469 44.539062 27.753906 44.539062 27.523438 44.539062 Z M 26.402344 35.769531 C 26.128906 35.769531 25.960938 35.800781 25.898438 35.859375 C 25.882812 35.875 25.851562 35.921875 25.851562 36.027344 C 25.867188 37.972656 25.867188 39.949219 25.867188 41.847656 L 25.867188 43.597656 C 25.867188 43.65625 25.867188 43.71875 25.867188 43.777344 C 25.867188 43.914062 25.851562 44.035156 25.882812 44.160156 C 25.898438 44.1875 26.066406 44.296875 26.171875 44.296875 C 26.839844 44.308594 27.511719 44.308594 28.222656 44.308594 C 28.421875 44.308594 28.621094 44.308594 28.816406 44.308594 L 28.816406 35.785156 C 28.605469 35.785156 28.390625 35.785156 28.195312 35.785156 C 27.632812 35.785156 27.097656 35.785156 26.550781 35.769531 C 26.492188 35.769531 26.445312 35.769531 26.402344 35.769531 Z M 26.402344 35.769531 " fill-opacity="1" fill-rule="nonzero"/></g></svg>