<svg xmlns="http://www.w3.org/2000/svg" xmlns:xlink="http://www.w3.org/1999/xlink" width="80" zoomAndPan="magnify" viewBox="0 0 60 44.999999" height="60" preserveAspectRatio="xMidYMid meet" version="1.0"><defs><clipPath id="1460727a8c"><path d="M 0.652344 31.527344 L 29.984375 31.527344 L 29.984375 40.527344 L 0.652344 40.527344 Z M 0.652344 31.527344 " clip-rule="nonzero"/></clipPath><clipPath id="00afe72559"><path d="M 29.75 31.527344 L 59.082031 31.527344 L 59.082031 40.527344 L 29.75 40.527344 Z M 29.75 31.527344 " clip-rule="nonzero"/></clipPath><clipPath id="331240af7d"><path d="M 12.8125 1.035156 L 47.3125 1.035156 L 47.3125 25 L 12.8125 25 Z M 12.8125 1.035156 " clip-rule="nonzero"/></clipPath><clipPath id="7557d10c8a"><path d="M 29 26 L 31 26 L 31 31.785156 L 29 31.785156 Z M 29 26 " clip-rule="nonzero"/></clipPath></defs><g clip-path="url(#1460727a8c)"><path fill="#000000" d="M 1.355469 32.292969 C 1.367188 32.382812 1.316406 32.429688 1.273438 32.242188 C 1.246094 32.136719 1.179688 31.992188 1.074219 31.863281 C 1.027344 31.800781 0.976562 31.75 0.925781 31.707031 C 0.878906 31.667969 0.832031 31.632812 0.789062 31.609375 C 0.84375 31.625 0.898438 31.65625 0.960938 31.703125 C 1.023438 31.746094 1.085938 31.808594 1.152344 31.886719 C 1.210938 31.957031 1.253906 32.03125 1.289062 32.101562 C 1.324219 32.171875 1.347656 32.238281 1.355469 32.292969 Z M 2.199219 32.851562 C 2.164062 32.925781 2.089844 32.925781 2.15625 32.765625 C 2.191406 32.671875 2.207031 32.53125 2.1875 32.382812 C 2.167969 32.238281 2.121094 32.128906 2.070312 32.050781 C 2.144531 32.128906 2.210938 32.253906 2.238281 32.4375 C 2.269531 32.601562 2.242188 32.761719 2.199219 32.851562 Z M 1.996094 31.925781 C 2.109375 32 2.21875 32.117188 2.296875 32.253906 C 2.335938 32.320312 2.371094 32.390625 2.390625 32.464844 C 2.410156 32.539062 2.417969 32.617188 2.410156 32.695312 C 2.375 32.964844 2.199219 33.066406 2.050781 33.011719 C 1.898438 32.957031 1.78125 32.738281 1.902344 32.421875 C 1.949219 32.296875 2.070312 32.171875 1.996094 31.925781 Z M 3.339844 34.023438 C 3.300781 34.121094 3.210938 34.132812 3.273438 33.921875 C 3.292969 33.859375 3.304688 33.785156 3.304688 33.699219 C 3.304688 33.617188 3.296875 33.523438 3.277344 33.429688 C 3.253906 33.339844 3.226562 33.261719 3.195312 33.195312 C 3.164062 33.125 3.125 33.070312 3.089844 33.023438 C 3.199219 33.113281 3.292969 33.265625 3.351562 33.496094 C 3.402344 33.703125 3.390625 33.902344 3.339844 34.023438 Z M 2.984375 32.875 C 3.058594 32.917969 3.132812 32.972656 3.207031 33.035156 C 3.277344 33.097656 3.34375 33.175781 3.402344 33.253906 C 3.519531 33.414062 3.597656 33.601562 3.589844 33.800781 C 3.582031 34.144531 3.367188 34.296875 3.164062 34.242188 C 2.96875 34.1875 2.789062 33.925781 2.917969 33.511719 C 2.964844 33.351562 3.101562 33.179688 2.984375 32.875 Z M 4.738281 35.046875 C 4.707031 35.171875 4.59375 35.195312 4.640625 34.933594 C 4.671875 34.78125 4.65625 34.554688 4.578125 34.339844 C 4.542969 34.234375 4.5 34.144531 4.453125 34.066406 C 4.40625 33.992188 4.359375 33.929688 4.304688 33.878906 C 4.375 33.921875 4.445312 33.988281 4.507812 34.078125 C 4.570312 34.160156 4.625 34.273438 4.675781 34.40625 C 4.761719 34.648438 4.777344 34.890625 4.738281 35.046875 Z M 4.164062 33.710938 C 4.257812 33.753906 4.355469 33.808594 4.449219 33.875 C 4.539062 33.941406 4.632812 34.019531 4.710938 34.105469 C 4.789062 34.195312 4.859375 34.289062 4.910156 34.398438 C 4.964844 34.5 5 34.613281 5.007812 34.734375 C 5.023438 34.945312 4.976562 35.101562 4.890625 35.203125 C 4.808594 35.308594 4.679688 35.351562 4.554688 35.332031 C 4.300781 35.300781 4.054688 35.003906 4.15625 34.492188 C 4.175781 34.390625 4.222656 34.28125 4.242188 34.15625 C 4.261719 34.03125 4.25 33.890625 4.164062 33.710938 Z M 6.398438 35.824219 C 6.386719 35.976562 6.261719 36.027344 6.261719 35.710938 C 6.265625 35.621094 6.25 35.511719 6.21875 35.394531 C 6.191406 35.277344 6.140625 35.15625 6.082031 35.035156 C 5.964844 34.808594 5.832031 34.652344 5.699219 34.554688 C 5.785156 34.597656 5.871094 34.65625 5.957031 34.746094 C 6 34.792969 6.042969 34.839844 6.082031 34.898438 C 6.125 34.957031 6.164062 35.023438 6.203125 35.09375 C 6.347656 35.355469 6.410156 35.632812 6.398438 35.824219 Z M 5.511719 34.390625 C 5.742188 34.449219 5.984375 34.574219 6.191406 34.742188 C 6.246094 34.785156 6.292969 34.832031 6.339844 34.878906 C 6.386719 34.925781 6.429688 34.980469 6.46875 35.035156 C 6.546875 35.140625 6.605469 35.265625 6.640625 35.398438 C 6.703125 35.636719 6.6875 35.832031 6.609375 35.972656 C 6.535156 36.109375 6.398438 36.191406 6.246094 36.199219 C 5.941406 36.214844 5.582031 35.910156 5.621094 35.292969 C 5.636719 35.050781 5.761719 34.765625 5.511719 34.390625 Z M 8.304688 36.148438 C 8.324219 36.234375 8.304688 36.300781 8.265625 36.304688 C 8.230469 36.308594 8.171875 36.246094 8.125 36.070312 C 8.097656 35.96875 8.046875 35.851562 7.980469 35.730469 C 7.949219 35.671875 7.910156 35.613281 7.871094 35.554688 C 7.832031 35.492188 7.785156 35.433594 7.738281 35.375 C 7.691406 35.324219 7.648438 35.273438 7.605469 35.226562 C 7.558594 35.179688 7.515625 35.140625 7.472656 35.109375 C 7.390625 35.035156 7.308594 34.984375 7.226562 34.945312 C 7.425781 34.988281 7.640625 35.132812 7.882812 35.40625 C 7.9375 35.46875 7.988281 35.527344 8.035156 35.59375 C 8.082031 35.660156 8.121094 35.726562 8.160156 35.789062 C 8.230469 35.917969 8.285156 36.042969 8.304688 36.148438 Z M 6.996094 34.804688 C 7.25 34.816406 7.527344 34.890625 7.78125 35.015625 C 7.84375 35.042969 7.90625 35.082031 7.964844 35.121094 C 8.023438 35.160156 8.082031 35.203125 8.136719 35.25 C 8.191406 35.300781 8.246094 35.351562 8.292969 35.410156 C 8.34375 35.464844 8.382812 35.53125 8.433594 35.597656 C 8.597656 35.839844 8.632812 36.0625 8.59375 36.242188 C 8.570312 36.332031 8.53125 36.410156 8.476562 36.472656 C 8.449219 36.503906 8.417969 36.535156 8.382812 36.558594 C 8.34375 36.582031 8.304688 36.597656 8.261719 36.613281 C 8.179688 36.640625 8.082031 36.65625 7.984375 36.636719 C 7.886719 36.621094 7.785156 36.585938 7.695312 36.515625 C 7.511719 36.386719 7.359375 36.144531 7.304688 35.796875 C 7.28125 35.65625 7.292969 35.496094 7.261719 35.328125 C 7.230469 35.164062 7.164062 34.988281 6.996094 34.804688 Z M 10.441406 36.101562 C 10.484375 36.296875 10.351562 36.414062 10.226562 36.015625 C 10.15625 35.789062 9.964844 35.496094 9.675781 35.265625 C 9.398438 35.046875 9.125 34.929688 8.886719 34.890625 C 9.164062 34.886719 9.515625 34.996094 9.871094 35.28125 C 10.191406 35.539062 10.390625 35.863281 10.441406 36.101562 Z M 12.761719 36.046875 C 12.804688 36.265625 12.652344 36.390625 12.523438 35.949219 C 12.445312 35.6875 12.238281 35.363281 11.917969 35.097656 C 11.609375 34.847656 11.308594 34.714844 11.042969 34.664062 C 11.351562 34.664062 11.738281 34.796875 12.136719 35.117188 C 12.488281 35.410156 12.707031 35.777344 12.761719 36.046875 Z M 15.292969 35.980469 C 15.339844 36.222656 15.171875 36.359375 15.03125 35.867188 C 14.949219 35.578125 14.722656 35.214844 14.371094 34.917969 C 14.039062 34.636719 13.707031 34.484375 13.414062 34.429688 C 13.757812 34.433594 14.183594 34.582031 14.613281 34.945312 C 15.003906 35.269531 15.238281 35.679688 15.292969 35.980469 Z M 18.085938 35.898438 C 18.136719 36.164062 17.949219 36.3125 17.800781 35.773438 C 17.714844 35.457031 17.472656 35.054688 17.089844 34.726562 C 16.722656 34.414062 16.363281 34.246094 16.042969 34.179688 C 16.417969 34.1875 16.886719 34.355469 17.355469 34.757812 C 17.777344 35.117188 18.03125 35.570312 18.085938 35.898438 Z M 21.203125 35.800781 C 21.253906 36.089844 21.046875 36.25 20.894531 35.664062 C 20.800781 35.316406 20.542969 34.878906 20.128906 34.519531 C 19.734375 34.175781 19.34375 33.988281 18.992188 33.914062 C 19.40625 33.925781 19.910156 34.113281 20.417969 34.554688 C 20.875 34.949219 21.144531 35.445312 21.203125 35.800781 Z M 18.472656 33.765625 C 19.484375 33.605469 20.929688 33.933594 21.484375 34.890625 C 22.457031 36.574219 20.164062 37.578125 19.414062 35.300781 C 19.265625 34.851562 19.308594 34.234375 18.472656 33.765625 Z M 24.792969 35.726562 C 24.804688 35.882812 24.746094 36 24.671875 35.996094 C 24.597656 35.988281 24.507812 35.867188 24.4375 35.542969 C 24.394531 35.355469 24.300781 35.136719 24.144531 34.917969 C 23.972656 34.699219 23.804688 34.484375 23.578125 34.289062 C 23.15625 33.914062 22.734375 33.707031 22.355469 33.628906 C 22.800781 33.640625 23.34375 33.847656 23.890625 34.328125 C 23.921875 34.355469 23.953125 34.382812 23.980469 34.410156 C 24.015625 34.4375 24.050781 34.46875 24.085938 34.496094 C 24.152344 34.554688 24.214844 34.613281 24.273438 34.671875 C 24.386719 34.792969 24.480469 34.917969 24.554688 35.042969 C 24.707031 35.289062 24.78125 35.53125 24.792969 35.726562 Z M 21.796875 33.460938 C 22.34375 33.378906 23.007812 33.429688 23.609375 33.628906 C 23.683594 33.65625 23.757812 33.683594 23.828125 33.710938 C 23.90625 33.742188 23.964844 33.773438 24.066406 33.808594 C 24.25 33.878906 24.421875 33.964844 24.578125 34.0625 C 24.890625 34.261719 25.136719 34.511719 25.28125 34.796875 C 25.40625 35.046875 25.453125 35.28125 25.449219 35.480469 C 25.445312 35.683594 25.390625 35.859375 25.308594 36.003906 C 25.144531 36.296875 24.875 36.480469 24.585938 36.550781 C 24.511719 36.566406 24.4375 36.578125 24.359375 36.578125 C 24.28125 36.582031 24.203125 36.574219 24.125 36.558594 C 23.964844 36.53125 23.792969 36.46875 23.628906 36.359375 C 23.300781 36.140625 22.996094 35.746094 22.796875 35.128906 C 22.640625 34.640625 22.695312 33.972656 21.796875 33.460938 Z M 1.597656 33.316406 C 1.667969 33.300781 1.679688 33.238281 1.53125 33.257812 C 1.441406 33.265625 1.308594 33.246094 1.179688 33.171875 C 1.058594 33.105469 0.96875 33.023438 0.914062 32.9375 C 0.9375 32.988281 0.972656 33.042969 1.023438 33.09375 C 1.074219 33.144531 1.140625 33.199219 1.21875 33.242188 C 1.367188 33.316406 1.507812 33.339844 1.597656 33.316406 Z M 0.824219 32.816406 C 0.886719 33.089844 1.140625 33.425781 1.425781 33.46875 C 1.675781 33.507812 1.785156 33.359375 1.761719 33.21875 C 1.746094 33.148438 1.703125 33.074219 1.625 33.019531 C 1.546875 32.96875 1.433594 32.933594 1.28125 32.933594 C 1.160156 32.933594 1.023438 32.996094 0.824219 32.816406 Z M 2.804688 34.609375 C 2.886719 34.570312 2.882812 34.492188 2.707031 34.558594 C 2.605469 34.597656 2.441406 34.609375 2.269531 34.558594 C 2.101562 34.515625 1.976562 34.4375 1.886719 34.355469 C 1.929688 34.410156 1.988281 34.464844 2.0625 34.511719 C 2.136719 34.5625 2.230469 34.601562 2.335938 34.628906 C 2.53125 34.683594 2.707031 34.660156 2.804688 34.609375 Z M 1.75 34.234375 C 1.785156 34.3125 1.839844 34.390625 1.902344 34.464844 C 1.964844 34.539062 2.039062 34.613281 2.121094 34.671875 C 2.28125 34.789062 2.46875 34.863281 2.640625 34.847656 C 2.933594 34.824219 3.015625 34.613281 2.953125 34.449219 C 2.921875 34.363281 2.851562 34.289062 2.746094 34.246094 C 2.640625 34.203125 2.5 34.191406 2.320312 34.238281 C 2.25 34.257812 2.179688 34.292969 2.089844 34.308594 C 2 34.320312 1.890625 34.3125 1.75 34.234375 Z M 4.292969 35.757812 C 4.375 35.6875 4.351562 35.597656 4.164062 35.71875 C 4.054688 35.792969 3.871094 35.84375 3.652344 35.832031 C 3.550781 35.824219 3.457031 35.804688 3.375 35.777344 C 3.289062 35.753906 3.21875 35.71875 3.15625 35.675781 C 3.21875 35.734375 3.300781 35.785156 3.402344 35.824219 C 3.449219 35.84375 3.503906 35.859375 3.5625 35.875 C 3.621094 35.886719 3.683594 35.894531 3.75 35.898438 C 3.988281 35.914062 4.191406 35.839844 4.292969 35.757812 Z M 2.960938 35.570312 C 3.027344 35.652344 3.109375 35.730469 3.199219 35.808594 C 3.292969 35.878906 3.398438 35.945312 3.507812 36 C 3.617188 36.050781 3.734375 36.085938 3.84375 36.101562 C 3.957031 36.117188 4.066406 36.109375 4.167969 36.078125 C 4.324219 36.03125 4.417969 35.9375 4.449219 35.835938 C 4.484375 35.734375 4.46875 35.625 4.410156 35.53125 C 4.382812 35.488281 4.34375 35.445312 4.296875 35.414062 C 4.246094 35.382812 4.191406 35.355469 4.125 35.34375 C 3.992188 35.320312 3.828125 35.339844 3.632812 35.4375 C 3.554688 35.476562 3.480469 35.535156 3.378906 35.578125 C 3.277344 35.613281 3.148438 35.628906 2.960938 35.570312 Z M 6.105469 36.667969 C 6.179688 36.570312 6.125 36.46875 5.949219 36.660156 C 5.894531 36.71875 5.820312 36.773438 5.726562 36.820312 C 5.632812 36.867188 5.519531 36.90625 5.390625 36.925781 C 5.148438 36.960938 4.933594 36.933594 4.769531 36.867188 C 4.859375 36.917969 4.96875 36.960938 5.097656 36.980469 C 5.160156 36.988281 5.226562 36.996094 5.300781 36.996094 C 5.371094 36.996094 5.445312 36.988281 5.523438 36.976562 C 5.59375 36.964844 5.660156 36.949219 5.722656 36.929688 C 5.78125 36.90625 5.835938 36.878906 5.886719 36.851562 C 5.988281 36.796875 6.0625 36.730469 6.105469 36.667969 Z M 4.515625 36.785156 C 4.609375 36.867188 4.730469 36.941406 4.859375 37.007812 C 4.988281 37.070312 5.128906 37.121094 5.273438 37.152344 C 5.417969 37.183594 5.558594 37.199219 5.695312 37.183594 C 5.832031 37.171875 5.957031 37.136719 6.0625 37.070312 C 6.226562 36.972656 6.296875 36.84375 6.304688 36.71875 C 6.3125 36.59375 6.253906 36.476562 6.164062 36.386719 C 5.980469 36.214844 5.648438 36.164062 5.257812 36.476562 C 5.175781 36.539062 5.105469 36.632812 5 36.699219 C 4.945312 36.734375 4.882812 36.761719 4.804688 36.777344 C 4.726562 36.796875 4.628906 36.800781 4.515625 36.785156 Z M 8.308594 37.109375 C 8.347656 36.972656 8.246094 36.886719 8.125 37.164062 C 8.109375 37.203125 8.082031 37.246094 8.050781 37.289062 C 8.019531 37.332031 7.984375 37.375 7.9375 37.417969 C 7.894531 37.460938 7.84375 37.5 7.785156 37.542969 C 7.726562 37.582031 7.664062 37.617188 7.59375 37.648438 C 7.324219 37.769531 7.0625 37.804688 6.847656 37.78125 C 6.96875 37.816406 7.113281 37.820312 7.269531 37.808594 C 7.347656 37.800781 7.429688 37.78125 7.515625 37.757812 C 7.597656 37.734375 7.679688 37.703125 7.765625 37.660156 C 8.078125 37.511719 8.257812 37.277344 8.308594 37.109375 Z M 6.523438 37.765625 C 6.804688 37.890625 7.179688 37.972656 7.542969 37.941406 C 7.632812 37.9375 7.722656 37.921875 7.808594 37.902344 C 7.894531 37.882812 7.976562 37.859375 8.054688 37.824219 C 8.128906 37.792969 8.199219 37.753906 8.265625 37.710938 C 8.296875 37.6875 8.324219 37.664062 8.351562 37.640625 C 8.367188 37.628906 8.378906 37.617188 8.390625 37.601562 C 8.402344 37.589844 8.414062 37.578125 8.421875 37.5625 C 8.535156 37.398438 8.558594 37.234375 8.523438 37.097656 C 8.503906 37.03125 8.46875 36.96875 8.425781 36.917969 C 8.414062 36.902344 8.402344 36.890625 8.390625 36.878906 C 8.375 36.867188 8.363281 36.855469 8.347656 36.847656 C 8.316406 36.824219 8.285156 36.808594 8.25 36.792969 C 8.183594 36.761719 8.109375 36.746094 8.03125 36.742188 C 7.953125 36.734375 7.871094 36.746094 7.785156 36.777344 C 7.703125 36.804688 7.617188 36.851562 7.527344 36.921875 C 7.441406 36.992188 7.355469 37.082031 7.269531 37.199219 C 7.203125 37.292969 7.15625 37.414062 7.054688 37.523438 C 7.003906 37.582031 6.941406 37.632812 6.855469 37.671875 C 6.773438 37.714844 6.664062 37.75 6.523438 37.765625 Z M 10.472656 37.148438 C 10.507812 36.988281 10.398438 36.898438 10.296875 37.214844 C 10.238281 37.398438 10.085938 37.632812 9.847656 37.816406 C 9.625 37.996094 9.40625 38.085938 9.214844 38.117188 C 9.4375 38.121094 9.71875 38.03125 10.007812 37.804688 C 10.265625 37.601562 10.429688 37.339844 10.472656 37.148438 Z M 8.925781 38.183594 C 9.472656 38.296875 10.269531 38.15625 10.597656 37.648438 C 11.085938 36.917969 9.941406 36.199219 9.480469 37.375 C 9.386719 37.613281 9.394531 37.953125 8.925781 38.183594 Z M 12.804688 37.1875 C 12.839844 37.011719 12.71875 36.914062 12.613281 37.265625 C 12.550781 37.472656 12.386719 37.734375 12.128906 37.945312 C 11.878906 38.144531 11.636719 38.25 11.425781 38.289062 C 11.675781 38.289062 11.984375 38.183594 12.300781 37.929688 C 12.585938 37.695312 12.761719 37.402344 12.804688 37.1875 Z M 11.109375 38.367188 C 11.714844 38.484375 12.597656 38.3125 12.957031 37.746094 C 13.472656 36.9375 12.195312 36.148438 11.710938 37.457031 C 11.609375 37.726562 11.625 38.101562 11.109375 38.367188 Z M 15.359375 37.238281 C 15.394531 37.046875 15.257812 36.9375 15.148438 37.328125 C 15.082031 37.554688 14.902344 37.84375 14.621094 38.078125 C 14.355469 38.300781 14.089844 38.421875 13.855469 38.46875 C 14.128906 38.464844 14.46875 38.347656 14.816406 38.058594 C 15.125 37.800781 15.3125 37.476562 15.359375 37.238281 Z M 13.507812 38.5625 C 14.179688 38.679688 15.148438 38.480469 15.53125 37.851562 C 16.082031 36.964844 14.671875 36.105469 14.15625 37.550781 C 14.050781 37.847656 14.070312 38.257812 13.507812 38.5625 Z M 18.175781 37.300781 C 18.214844 37.089844 18.0625 36.96875 17.949219 37.398438 C 17.878906 37.648438 17.6875 37.964844 17.382812 38.226562 C 17.09375 38.472656 16.804688 38.605469 16.550781 38.65625 C 16.851562 38.652344 17.21875 38.519531 17.59375 38.203125 C 17.929688 37.917969 18.128906 37.558594 18.175781 37.300781 Z M 16.171875 38.761719 C 16.90625 38.886719 17.960938 38.65625 18.371094 37.964844 C 18.949219 37 17.40625 36.074219 16.867188 37.652344 C 16.753906 37.976562 16.785156 38.429688 16.171875 38.761719 Z M 21.320312 37.375 C 21.359375 37.144531 21.195312 37.019531 21.074219 37.484375 C 21 37.757812 20.796875 38.101562 20.46875 38.386719 C 20.15625 38.65625 19.847656 38.804688 19.570312 38.863281 C 19.898438 38.851562 20.296875 38.707031 20.699219 38.359375 C 21.058594 38.046875 21.273438 37.65625 21.320312 37.375 Z M 19.164062 38.980469 C 19.960938 39.105469 21.101562 38.847656 21.539062 38.09375 C 22.148438 37.054688 20.472656 36.054688 19.90625 37.769531 C 19.785156 38.121094 19.820312 38.613281 19.164062 38.980469 Z M 24.730469 37.515625 C 24.761719 37.394531 24.746094 37.292969 24.699219 37.285156 C 24.652344 37.277344 24.574219 37.363281 24.503906 37.609375 C 24.414062 37.894531 24.222656 38.253906 23.972656 38.5625 C 23.640625 38.855469 23.304688 39.019531 23.007812 39.082031 C 23.183594 39.078125 23.378906 39.035156 23.585938 38.945312 C 23.6875 38.898438 23.792969 38.84375 23.898438 38.777344 C 23.925781 38.757812 23.953125 38.742188 23.976562 38.722656 C 23.996094 38.703125 24.011719 38.683594 24.03125 38.664062 C 24.070312 38.625 24.109375 38.578125 24.148438 38.535156 C 24.21875 38.453125 24.285156 38.363281 24.34375 38.277344 C 24.40625 38.1875 24.460938 38.097656 24.511719 38.011719 C 24.613281 37.832031 24.691406 37.664062 24.730469 37.515625 Z M 22.570312 39.210938 C 22.785156 39.246094 23.023438 39.25 23.265625 39.230469 C 23.386719 39.21875 23.511719 39.203125 23.632812 39.175781 C 23.695312 39.164062 23.753906 39.152344 23.816406 39.136719 C 23.847656 39.128906 23.875 39.117188 23.90625 39.109375 L 23.949219 39.097656 L 23.972656 39.089844 L 23.988281 39.082031 C 24.292969 38.925781 24.570312 38.683594 24.800781 38.308594 C 24.953125 38.050781 25.019531 37.78125 24.988281 37.542969 C 24.960938 37.304688 24.828125 37.101562 24.636719 36.992188 C 24.445312 36.882812 24.195312 36.875 23.976562 37.015625 C 23.730469 37.160156 23.507812 37.4375 23.359375 37.902344 C 23.234375 38.285156 23.277344 38.808594 22.570312 39.210938 Z M 0.652344 31.527344 C 0.792969 31.539062 0.949219 31.59375 1.09375 31.679688 C 1.164062 31.71875 1.230469 31.769531 1.289062 31.828125 C 1.347656 31.886719 1.394531 31.953125 1.429688 32.027344 C 1.480469 32.132812 1.496094 32.230469 1.488281 32.308594 C 1.484375 32.386719 1.453125 32.449219 1.40625 32.488281 C 1.40625 32.488281 1.429688 32.523438 1.472656 32.585938 C 1.515625 32.648438 1.578125 32.734375 1.660156 32.847656 C 1.832031 33.074219 2.082031 33.386719 2.410156 33.730469 C 2.738281 34.078125 3.144531 34.457031 3.613281 34.824219 C 3.847656 35.007812 4.101562 35.183594 4.363281 35.351562 C 4.625 35.523438 4.902344 35.683594 5.183594 35.828125 C 5.75 36.121094 6.351562 36.351562 6.941406 36.492188 C 7.234375 36.566406 7.523438 36.613281 7.800781 36.644531 C 7.941406 36.652344 8.078125 36.667969 8.207031 36.667969 C 8.273438 36.671875 8.339844 36.671875 8.402344 36.671875 C 8.460938 36.671875 8.519531 36.671875 8.578125 36.671875 C 9.492188 36.671875 10.101562 36.667969 10.101562 36.667969 C 9.785156 36.636719 9.433594 36.386719 9.214844 35.816406 C 9.101562 35.515625 9.109375 35.09375 8.53125 34.804688 C 9.210938 34.667969 10.195312 34.847656 10.601562 35.480469 C 11.007812 36.109375 10.691406 36.621094 10.238281 36.667969 L 12.296875 36.664062 C 11.964844 36.59375 11.609375 36.304688 11.394531 35.703125 C 11.269531 35.367188 11.289062 34.898438 10.644531 34.5625 C 11.40625 34.421875 12.507812 34.640625 12.949219 35.351562 C 13.363281 36.015625 13.074219 36.558594 12.617188 36.660156 L 14.773438 36.65625 C 14.40625 36.578125 14.019531 36.253906 13.785156 35.582031 C 13.652344 35.210938 13.679688 34.691406 12.972656 34.3125 C 13.816406 34.164062 15.035156 34.417969 15.515625 35.210938 C 15.957031 35.949219 15.636719 36.539062 15.136719 36.65625 L 17.578125 36.648438 C 17.15625 36.585938 16.699219 36.226562 16.4375 35.449219 C 16.296875 35.039062 16.335938 34.472656 15.5625 34.046875 C 16.492188 33.894531 17.824219 34.183594 18.335938 35.058594 C 18.832031 35.894531 18.4375 36.554688 17.859375 36.648438 C 17.859375 36.648438 18.714844 36.644531 20 36.640625 C 20.640625 36.640625 21.390625 36.636719 22.195312 36.636719 C 22.59375 36.636719 23.011719 36.632812 23.429688 36.632812 C 23.535156 36.632812 23.644531 36.632812 23.75 36.632812 C 23.855469 36.632812 23.964844 36.628906 24.0625 36.632812 C 24.269531 36.632812 24.472656 36.644531 24.675781 36.664062 C 25.078125 36.707031 25.476562 36.785156 25.855469 36.910156 C 26.230469 37.03125 26.585938 37.199219 26.90625 37.398438 C 27.226562 37.597656 27.515625 37.828125 27.773438 38.066406 C 28.027344 38.308594 28.25 38.5625 28.445312 38.804688 C 28.84375 39.289062 29.136719 39.738281 29.4375 40.046875 C 29.582031 40.191406 29.714844 40.289062 29.816406 40.328125 C 29.867188 40.351562 29.910156 40.359375 29.933594 40.367188 C 29.960938 40.371094 29.976562 40.371094 29.976562 40.371094 L 29.867188 40.527344 C 29.867188 40.527344 29.859375 40.527344 29.84375 40.523438 C 29.828125 40.519531 29.804688 40.515625 29.769531 40.503906 C 29.707031 40.484375 29.617188 40.4375 29.511719 40.359375 C 29.40625 40.277344 29.289062 40.160156 29.164062 40.015625 C 29.042969 39.871094 28.917969 39.710938 28.789062 39.539062 C 28.53125 39.191406 28.238281 38.789062 27.851562 38.386719 C 27.46875 37.984375 26.992188 37.589844 26.390625 37.296875 C 25.796875 37.003906 25.082031 36.820312 24.300781 36.785156 C 24.203125 36.78125 24.101562 36.777344 24.003906 36.777344 C 23.898438 36.777344 23.792969 36.777344 23.683594 36.777344 C 23.46875 36.777344 23.253906 36.773438 23.03125 36.773438 C 22.589844 36.773438 22.140625 36.773438 21.683594 36.769531 C 19.855469 36.765625 17.90625 36.761719 15.953125 36.753906 C 14.003906 36.75 12.054688 36.746094 10.222656 36.738281 C 9.765625 36.738281 9.316406 36.738281 8.878906 36.734375 C 8.765625 36.734375 8.65625 36.734375 8.550781 36.734375 C 8.496094 36.734375 8.441406 36.734375 8.386719 36.734375 C 8.328125 36.734375 8.269531 36.730469 8.210938 36.730469 C 7.976562 36.722656 7.75 36.699219 7.527344 36.667969 C 6.636719 36.53125 5.84375 36.222656 5.164062 35.867188 C 4.484375 35.511719 3.90625 35.109375 3.425781 34.714844 C 2.945312 34.324219 2.5625 33.941406 2.261719 33.609375 C 1.960938 33.277344 1.746094 32.996094 1.605469 32.804688 C 1.535156 32.707031 1.480469 32.632812 1.445312 32.578125 C 1.410156 32.527344 1.394531 32.5 1.394531 32.5 C 1.324219 32.550781 1.222656 32.550781 1.125 32.488281 C 1.074219 32.453125 1.027344 32.402344 0.984375 32.335938 C 0.9375 32.269531 0.902344 32.175781 0.875 32.070312 C 0.839844 31.917969 0.859375 31.734375 0.652344 31.527344 " fill-opacity="1" fill-rule="evenodd"/></g><g clip-path="url(#00afe72559)"><path fill="#000000" d="M 58.445312 32.101562 C 58.480469 32.03125 58.523438 31.957031 58.582031 31.886719 C 58.648438 31.808594 58.710938 31.746094 58.773438 31.703125 C 58.835938 31.65625 58.890625 31.625 58.949219 31.609375 C 58.902344 31.632812 58.855469 31.667969 58.808594 31.707031 C 58.757812 31.75 58.707031 31.800781 58.660156 31.863281 C 58.554688 31.992188 58.488281 32.136719 58.460938 32.242188 C 58.421875 32.429688 58.367188 32.382812 58.378906 32.292969 C 58.386719 32.238281 58.410156 32.171875 58.445312 32.101562 Z M 57.496094 32.4375 C 57.523438 32.253906 57.589844 32.128906 57.664062 32.050781 C 57.613281 32.128906 57.566406 32.238281 57.546875 32.382812 C 57.527344 32.53125 57.542969 32.671875 57.578125 32.765625 C 57.644531 32.925781 57.570312 32.925781 57.535156 32.851562 C 57.492188 32.761719 57.464844 32.601562 57.496094 32.4375 Z M 57.832031 32.421875 C 57.953125 32.738281 57.835938 32.957031 57.683594 33.011719 C 57.535156 33.066406 57.359375 32.964844 57.324219 32.695312 C 57.316406 32.617188 57.324219 32.539062 57.34375 32.464844 C 57.363281 32.390625 57.398438 32.320312 57.4375 32.253906 C 57.515625 32.117188 57.625 32 57.738281 31.925781 C 57.664062 32.171875 57.785156 32.296875 57.832031 32.421875 Z M 56.382812 33.496094 C 56.441406 33.265625 56.539062 33.113281 56.644531 33.023438 C 56.609375 33.070312 56.570312 33.125 56.539062 33.195312 C 56.507812 33.261719 56.480469 33.339844 56.457031 33.429688 C 56.4375 33.523438 56.429688 33.617188 56.429688 33.699219 C 56.429688 33.785156 56.441406 33.859375 56.460938 33.921875 C 56.523438 34.132812 56.433594 34.121094 56.394531 34.023438 C 56.34375 33.902344 56.332031 33.703125 56.382812 33.496094 Z M 56.816406 33.511719 C 56.945312 33.925781 56.765625 34.1875 56.570312 34.242188 C 56.367188 34.296875 56.152344 34.144531 56.144531 33.800781 C 56.136719 33.601562 56.214844 33.414062 56.332031 33.253906 C 56.390625 33.175781 56.457031 33.097656 56.527344 33.035156 C 56.601562 32.972656 56.675781 32.917969 56.75 32.875 C 56.632812 33.179688 56.769531 33.351562 56.816406 33.511719 Z M 55.058594 34.40625 C 55.109375 34.273438 55.164062 34.160156 55.226562 34.078125 C 55.289062 33.988281 55.359375 33.921875 55.429688 33.878906 C 55.375 33.929688 55.328125 33.992188 55.28125 34.066406 C 55.234375 34.144531 55.191406 34.234375 55.15625 34.339844 C 55.078125 34.554688 55.0625 34.78125 55.09375 34.933594 C 55.140625 35.195312 55.027344 35.171875 54.996094 35.046875 C 54.957031 34.890625 54.972656 34.648438 55.058594 34.40625 Z M 55.492188 34.15625 C 55.511719 34.28125 55.558594 34.390625 55.578125 34.492188 C 55.679688 35.003906 55.433594 35.300781 55.179688 35.332031 C 55.054688 35.351562 54.929688 35.308594 54.84375 35.203125 C 54.757812 35.101562 54.710938 34.945312 54.726562 34.734375 C 54.734375 34.613281 54.769531 34.5 54.824219 34.398438 C 54.875 34.289062 54.945312 34.195312 55.023438 34.105469 C 55.101562 34.019531 55.195312 33.941406 55.285156 33.875 C 55.378906 33.808594 55.476562 33.753906 55.570312 33.710938 C 55.484375 33.890625 55.472656 34.03125 55.492188 34.15625 Z M 53.53125 35.09375 C 53.570312 35.023438 53.609375 34.957031 53.652344 34.898438 C 53.691406 34.839844 53.734375 34.792969 53.777344 34.746094 C 53.863281 34.65625 53.949219 34.597656 54.035156 34.554688 C 53.902344 34.652344 53.769531 34.808594 53.652344 35.035156 C 53.59375 35.15625 53.542969 35.277344 53.515625 35.394531 C 53.484375 35.511719 53.46875 35.621094 53.472656 35.710938 C 53.472656 36.027344 53.347656 35.976562 53.335938 35.824219 C 53.324219 35.632812 53.386719 35.355469 53.53125 35.09375 Z M 54.113281 35.292969 C 54.152344 35.910156 53.792969 36.214844 53.488281 36.199219 C 53.335938 36.191406 53.199219 36.109375 53.125 35.972656 C 53.046875 35.832031 53.03125 35.636719 53.09375 35.398438 C 53.128906 35.265625 53.1875 35.140625 53.265625 35.035156 C 53.304688 34.980469 53.347656 34.925781 53.394531 34.878906 C 53.441406 34.832031 53.488281 34.785156 53.542969 34.742188 C 53.75 34.574219 53.992188 34.449219 54.222656 34.390625 C 53.972656 34.765625 54.097656 35.050781 54.113281 35.292969 Z M 51.574219 35.789062 C 51.613281 35.726562 51.652344 35.660156 51.699219 35.59375 C 51.746094 35.527344 51.796875 35.46875 51.851562 35.40625 C 52.09375 35.132812 52.308594 34.988281 52.507812 34.945312 C 52.425781 34.984375 52.34375 35.035156 52.261719 35.109375 C 52.21875 35.140625 52.175781 35.179688 52.128906 35.226562 C 52.085938 35.273438 52.042969 35.324219 51.996094 35.375 C 51.949219 35.433594 51.902344 35.492188 51.863281 35.554688 C 51.824219 35.613281 51.785156 35.671875 51.753906 35.730469 C 51.6875 35.851562 51.636719 35.96875 51.609375 36.070312 C 51.5625 36.246094 51.507812 36.308594 51.46875 36.304688 C 51.429688 36.300781 51.410156 36.234375 51.429688 36.148438 C 51.449219 36.042969 51.503906 35.917969 51.574219 35.789062 Z M 52.472656 35.328125 C 52.441406 35.496094 52.453125 35.65625 52.429688 35.796875 C 52.375 36.144531 52.222656 36.386719 52.039062 36.515625 C 51.949219 36.585938 51.847656 36.621094 51.75 36.636719 C 51.652344 36.65625 51.554688 36.640625 51.472656 36.613281 C 51.429688 36.597656 51.390625 36.582031 51.351562 36.558594 C 51.316406 36.535156 51.285156 36.503906 51.257812 36.472656 C 51.203125 36.410156 51.164062 36.332031 51.140625 36.242188 C 51.101562 36.0625 51.136719 35.839844 51.300781 35.597656 C 51.351562 35.53125 51.390625 35.464844 51.441406 35.410156 C 51.488281 35.351562 51.542969 35.300781 51.597656 35.25 C 51.652344 35.203125 51.710938 35.160156 51.769531 35.121094 C 51.828125 35.082031 51.890625 35.042969 51.953125 35.015625 C 52.207031 34.890625 52.484375 34.816406 52.738281 34.804688 C 52.570312 34.988281 52.503906 35.164062 52.472656 35.328125 Z M 49.863281 35.28125 C 50.21875 34.996094 50.570312 34.886719 50.847656 34.890625 C 50.609375 34.929688 50.335938 35.046875 50.058594 35.265625 C 49.769531 35.496094 49.578125 35.789062 49.507812 36.015625 C 49.382812 36.414062 49.25 36.296875 49.292969 36.101562 C 49.34375 35.863281 49.542969 35.539062 49.863281 35.28125 Z M 47.597656 35.117188 C 47.996094 34.796875 48.382812 34.664062 48.691406 34.664062 C 48.425781 34.714844 48.125 34.847656 47.816406 35.097656 C 47.496094 35.363281 47.289062 35.6875 47.210938 35.949219 C 47.082031 36.390625 46.929688 36.265625 46.972656 36.046875 C 47.027344 35.777344 47.246094 35.410156 47.597656 35.117188 Z M 45.121094 34.945312 C 45.550781 34.582031 45.976562 34.433594 46.324219 34.429688 C 46.027344 34.484375 45.695312 34.636719 45.363281 34.917969 C 45.011719 35.214844 44.785156 35.578125 44.703125 35.867188 C 44.5625 36.359375 44.394531 36.222656 44.441406 35.980469 C 44.496094 35.679688 44.730469 35.269531 45.121094 34.945312 Z M 42.378906 34.757812 C 42.847656 34.355469 43.316406 34.1875 43.691406 34.179688 C 43.371094 34.246094 43.011719 34.414062 42.644531 34.726562 C 42.261719 35.054688 42.019531 35.457031 41.933594 35.773438 C 41.785156 36.3125 41.597656 36.164062 41.648438 35.898438 C 41.703125 35.570312 41.957031 35.117188 42.378906 34.757812 Z M 39.316406 34.554688 C 39.824219 34.113281 40.328125 33.925781 40.742188 33.914062 C 40.390625 33.988281 40 34.175781 39.605469 34.519531 C 39.191406 34.878906 38.933594 35.316406 38.839844 35.664062 C 38.6875 36.25 38.480469 36.089844 38.53125 35.800781 C 38.589844 35.445312 38.859375 34.949219 39.316406 34.554688 Z M 40.320312 35.300781 C 39.570312 37.578125 37.277344 36.574219 38.25 34.890625 C 38.804688 33.933594 40.25 33.605469 41.261719 33.765625 C 40.425781 34.234375 40.46875 34.851562 40.320312 35.300781 Z M 35.179688 35.042969 C 35.253906 34.917969 35.347656 34.796875 35.460938 34.671875 C 35.519531 34.613281 35.582031 34.554688 35.648438 34.496094 C 35.683594 34.46875 35.71875 34.4375 35.753906 34.410156 C 35.785156 34.382812 35.8125 34.355469 35.84375 34.328125 C 36.390625 33.847656 36.933594 33.640625 37.378906 33.628906 C 37 33.707031 36.578125 33.914062 36.15625 34.289062 C 35.929688 34.484375 35.761719 34.699219 35.589844 34.917969 C 35.433594 35.136719 35.339844 35.355469 35.296875 35.542969 C 35.226562 35.867188 35.136719 35.988281 35.0625 35.996094 C 34.988281 36 34.929688 35.882812 34.941406 35.726562 C 34.953125 35.53125 35.027344 35.289062 35.179688 35.042969 Z M 36.9375 35.128906 C 36.738281 35.746094 36.433594 36.140625 36.105469 36.359375 C 35.941406 36.46875 35.769531 36.53125 35.609375 36.558594 C 35.53125 36.574219 35.453125 36.582031 35.375 36.578125 C 35.296875 36.578125 35.222656 36.566406 35.148438 36.550781 C 34.859375 36.480469 34.589844 36.296875 34.425781 36.003906 C 34.34375 35.859375 34.289062 35.683594 34.285156 35.480469 C 34.28125 35.28125 34.328125 35.046875 34.453125 34.796875 C 34.597656 34.511719 34.84375 34.261719 35.15625 34.0625 C 35.3125 33.964844 35.484375 33.878906 35.667969 33.808594 C 35.769531 33.773438 35.828125 33.742188 35.90625 33.710938 C 35.976562 33.683594 36.050781 33.65625 36.128906 33.628906 C 36.726562 33.429688 37.390625 33.378906 37.9375 33.460938 C 37.039062 33.972656 37.09375 34.640625 36.9375 35.128906 Z M 58.515625 33.242188 C 58.59375 33.199219 58.660156 33.144531 58.710938 33.09375 C 58.761719 33.042969 58.796875 32.988281 58.820312 32.9375 C 58.765625 33.023438 58.675781 33.105469 58.554688 33.171875 C 58.425781 33.246094 58.292969 33.265625 58.203125 33.257812 C 58.054688 33.238281 58.066406 33.300781 58.136719 33.316406 C 58.226562 33.339844 58.367188 33.316406 58.515625 33.242188 Z M 58.453125 32.933594 C 58.300781 32.933594 58.1875 32.96875 58.109375 33.019531 C 58.03125 33.074219 57.988281 33.148438 57.972656 33.21875 C 57.949219 33.359375 58.058594 33.507812 58.308594 33.46875 C 58.59375 33.425781 58.847656 33.089844 58.910156 32.816406 C 58.710938 32.996094 58.574219 32.933594 58.453125 32.933594 Z M 57.398438 34.628906 C 57.503906 34.601562 57.597656 34.5625 57.671875 34.511719 C 57.746094 34.464844 57.804688 34.410156 57.847656 34.355469 C 57.757812 34.4375 57.632812 34.515625 57.464844 34.558594 C 57.292969 34.609375 57.128906 34.597656 57.027344 34.558594 C 56.851562 34.492188 56.851562 34.570312 56.929688 34.609375 C 57.027344 34.660156 57.203125 34.683594 57.398438 34.628906 Z M 57.644531 34.308594 C 57.554688 34.292969 57.484375 34.257812 57.414062 34.238281 C 57.234375 34.191406 57.09375 34.203125 56.988281 34.246094 C 56.882812 34.289062 56.8125 34.363281 56.78125 34.449219 C 56.71875 34.613281 56.800781 34.824219 57.09375 34.847656 C 57.265625 34.863281 57.453125 34.789062 57.613281 34.671875 C 57.695312 34.613281 57.769531 34.539062 57.832031 34.464844 C 57.894531 34.390625 57.949219 34.3125 57.984375 34.234375 C 57.84375 34.3125 57.734375 34.320312 57.644531 34.308594 Z M 55.984375 35.898438 C 56.050781 35.894531 56.113281 35.886719 56.171875 35.875 C 56.230469 35.859375 56.285156 35.84375 56.332031 35.824219 C 56.433594 35.785156 56.515625 35.734375 56.578125 35.675781 C 56.515625 35.71875 56.445312 35.753906 56.359375 35.777344 C 56.277344 35.804688 56.183594 35.824219 56.082031 35.832031 C 55.863281 35.84375 55.679688 35.792969 55.570312 35.71875 C 55.382812 35.597656 55.359375 35.6875 55.441406 35.757812 C 55.542969 35.839844 55.746094 35.914062 55.984375 35.898438 Z M 56.355469 35.578125 C 56.253906 35.535156 56.179688 35.476562 56.101562 35.4375 C 55.90625 35.339844 55.742188 35.320312 55.609375 35.34375 C 55.542969 35.355469 55.488281 35.382812 55.4375 35.414062 C 55.390625 35.445312 55.351562 35.488281 55.324219 35.53125 C 55.265625 35.625 55.25 35.734375 55.285156 35.835938 C 55.320312 35.9375 55.410156 36.03125 55.566406 36.078125 C 55.667969 36.109375 55.777344 36.117188 55.890625 36.101562 C 56.003906 36.085938 56.117188 36.050781 56.226562 36 C 56.335938 35.945312 56.441406 35.878906 56.535156 35.808594 C 56.625 35.730469 56.707031 35.652344 56.773438 35.570312 C 56.585938 35.628906 56.457031 35.613281 56.355469 35.578125 Z M 53.847656 36.851562 C 53.898438 36.878906 53.953125 36.90625 54.015625 36.929688 C 54.074219 36.949219 54.140625 36.964844 54.210938 36.976562 C 54.289062 36.988281 54.363281 36.996094 54.4375 36.996094 C 54.507812 36.996094 54.574219 36.988281 54.636719 36.980469 C 54.765625 36.960938 54.875 36.917969 54.964844 36.867188 C 54.800781 36.933594 54.585938 36.960938 54.34375 36.925781 C 54.214844 36.90625 54.101562 36.867188 54.007812 36.820312 C 53.914062 36.773438 53.839844 36.71875 53.785156 36.660156 C 53.609375 36.46875 53.554688 36.570312 53.628906 36.667969 C 53.671875 36.730469 53.75 36.796875 53.847656 36.851562 Z M 54.929688 36.777344 C 54.851562 36.761719 54.789062 36.734375 54.734375 36.699219 C 54.628906 36.632812 54.558594 36.539062 54.476562 36.476562 C 54.085938 36.164062 53.753906 36.214844 53.570312 36.386719 C 53.480469 36.476562 53.421875 36.59375 53.429688 36.71875 C 53.4375 36.84375 53.507812 36.972656 53.671875 37.070312 C 53.777344 37.136719 53.902344 37.171875 54.039062 37.183594 C 54.175781 37.199219 54.316406 37.183594 54.460938 37.152344 C 54.605469 37.121094 54.746094 37.070312 54.875 37.007812 C 55.003906 36.941406 55.125 36.867188 55.21875 36.785156 C 55.105469 36.800781 55.007812 36.796875 54.929688 36.777344 Z M 51.96875 37.660156 C 52.054688 37.703125 52.136719 37.734375 52.21875 37.757812 C 52.304688 37.78125 52.386719 37.800781 52.464844 37.808594 C 52.621094 37.820312 52.765625 37.816406 52.886719 37.78125 C 52.671875 37.804688 52.410156 37.769531 52.140625 37.648438 C 52.070312 37.617188 52.007812 37.582031 51.949219 37.542969 C 51.890625 37.5 51.839844 37.460938 51.796875 37.417969 C 51.75 37.375 51.714844 37.332031 51.683594 37.289062 C 51.652344 37.246094 51.625 37.203125 51.609375 37.164062 C 51.488281 36.886719 51.386719 36.972656 51.425781 37.109375 C 51.476562 37.277344 51.65625 37.511719 51.96875 37.660156 Z M 52.878906 37.671875 C 52.792969 37.632812 52.730469 37.582031 52.679688 37.523438 C 52.578125 37.414062 52.53125 37.292969 52.464844 37.199219 C 52.378906 37.082031 52.292969 36.992188 52.207031 36.921875 C 52.121094 36.851562 52.03125 36.804688 51.949219 36.777344 C 51.863281 36.746094 51.78125 36.734375 51.703125 36.742188 C 51.625 36.746094 51.550781 36.761719 51.484375 36.792969 C 51.449219 36.808594 51.417969 36.824219 51.386719 36.847656 C 51.371094 36.855469 51.359375 36.867188 51.34375 36.878906 C 51.332031 36.890625 51.320312 36.902344 51.308594 36.917969 C 51.265625 36.96875 51.230469 37.03125 51.210938 37.097656 C 51.175781 37.234375 51.199219 37.398438 51.3125 37.5625 C 51.324219 37.578125 51.332031 37.589844 51.34375 37.601562 C 51.355469 37.617188 51.367188 37.628906 51.382812 37.640625 C 51.410156 37.664062 51.4375 37.6875 51.46875 37.710938 C 51.535156 37.753906 51.605469 37.792969 51.679688 37.824219 C 51.757812 37.859375 51.839844 37.882812 51.925781 37.902344 C 52.011719 37.921875 52.101562 37.9375 52.191406 37.941406 C 52.554688 37.972656 52.929688 37.890625 53.210938 37.765625 C 53.070312 37.75 52.960938 37.714844 52.878906 37.671875 Z M 49.726562 37.804688 C 50.015625 38.03125 50.296875 38.121094 50.519531 38.117188 C 50.328125 38.085938 50.109375 37.996094 49.886719 37.816406 C 49.648438 37.632812 49.496094 37.398438 49.4375 37.214844 C 49.335938 36.898438 49.226562 36.988281 49.261719 37.148438 C 49.304688 37.339844 49.46875 37.601562 49.726562 37.804688 Z M 50.253906 37.375 C 49.792969 36.199219 48.648438 36.917969 49.136719 37.648438 C 49.464844 38.15625 50.261719 38.296875 50.808594 38.183594 C 50.339844 37.953125 50.347656 37.613281 50.253906 37.375 Z M 47.433594 37.929688 C 47.75 38.183594 48.058594 38.289062 48.308594 38.289062 C 48.097656 38.25 47.855469 38.144531 47.609375 37.945312 C 47.347656 37.734375 47.183594 37.472656 47.121094 37.265625 C 47.015625 36.914062 46.894531 37.011719 46.929688 37.1875 C 46.972656 37.402344 47.148438 37.695312 47.433594 37.929688 Z M 48.023438 37.457031 C 47.539062 36.148438 46.261719 36.9375 46.777344 37.746094 C 47.136719 38.3125 48.019531 38.484375 48.625 38.367188 C 48.109375 38.101562 48.125 37.726562 48.023438 37.457031 Z M 44.917969 38.058594 C 45.265625 38.347656 45.605469 38.464844 45.878906 38.46875 C 45.644531 38.421875 45.378906 38.300781 45.113281 38.078125 C 44.832031 37.84375 44.652344 37.554688 44.585938 37.328125 C 44.476562 36.9375 44.339844 37.046875 44.375 37.238281 C 44.421875 37.476562 44.609375 37.800781 44.917969 38.058594 Z M 45.578125 37.550781 C 45.0625 36.105469 43.652344 36.964844 44.203125 37.851562 C 44.585938 38.480469 45.554688 38.679688 46.226562 38.5625 C 45.664062 38.257812 45.683594 37.847656 45.578125 37.550781 Z M 42.140625 38.203125 C 42.515625 38.519531 42.882812 38.652344 43.183594 38.65625 C 42.929688 38.605469 42.640625 38.472656 42.351562 38.226562 C 42.046875 37.964844 41.855469 37.648438 41.785156 37.398438 C 41.671875 36.96875 41.519531 37.089844 41.558594 37.300781 C 41.605469 37.558594 41.804688 37.917969 42.140625 38.203125 Z M 42.867188 37.652344 C 42.328125 36.074219 40.785156 37 41.363281 37.964844 C 41.773438 38.65625 42.828125 38.886719 43.5625 38.761719 C 42.953125 38.429688 42.980469 37.976562 42.867188 37.652344 Z M 39.035156 38.359375 C 39.4375 38.707031 39.839844 38.851562 40.164062 38.863281 C 39.886719 38.804688 39.578125 38.65625 39.265625 38.386719 C 38.9375 38.101562 38.734375 37.757812 38.660156 37.484375 C 38.539062 37.019531 38.375 37.144531 38.414062 37.375 C 38.460938 37.65625 38.675781 38.046875 39.035156 38.359375 Z M 39.828125 37.769531 C 39.261719 36.054688 37.585938 37.054688 38.195312 38.09375 C 38.632812 38.847656 39.773438 39.105469 40.574219 38.980469 C 39.914062 38.613281 39.949219 38.121094 39.828125 37.769531 Z M 35.222656 38.011719 C 35.273438 38.097656 35.328125 38.1875 35.390625 38.277344 C 35.449219 38.363281 35.515625 38.453125 35.585938 38.535156 C 35.625 38.578125 35.664062 38.625 35.703125 38.664062 C 35.722656 38.683594 35.738281 38.703125 35.757812 38.722656 C 35.78125 38.742188 35.8125 38.757812 35.835938 38.777344 C 35.941406 38.84375 36.046875 38.898438 36.148438 38.945312 C 36.355469 39.035156 36.550781 39.078125 36.726562 39.082031 C 36.429688 39.019531 36.09375 38.855469 35.761719 38.5625 C 35.515625 38.253906 35.320312 37.894531 35.230469 37.609375 C 35.160156 37.363281 35.082031 37.277344 35.035156 37.285156 C 34.988281 37.292969 34.972656 37.394531 35.003906 37.515625 C 35.042969 37.664062 35.121094 37.832031 35.222656 38.011719 Z M 36.375 37.902344 C 36.226562 37.4375 36.003906 37.160156 35.757812 37.015625 C 35.539062 36.875 35.289062 36.882812 35.097656 36.992188 C 34.90625 37.101562 34.773438 37.304688 34.746094 37.542969 C 34.714844 37.78125 34.78125 38.050781 34.9375 38.308594 C 35.164062 38.683594 35.441406 38.925781 35.746094 39.082031 L 35.761719 39.089844 L 35.785156 39.097656 L 35.828125 39.109375 C 35.859375 39.117188 35.886719 39.128906 35.917969 39.136719 C 35.980469 39.152344 36.039062 39.164062 36.101562 39.175781 C 36.222656 39.203125 36.347656 39.21875 36.46875 39.230469 C 36.710938 39.25 36.949219 39.246094 37.164062 39.210938 C 36.457031 38.808594 36.5 38.285156 36.375 37.902344 Z M 58.859375 32.070312 C 58.832031 32.175781 58.796875 32.269531 58.75 32.335938 C 58.707031 32.402344 58.660156 32.453125 58.609375 32.488281 C 58.511719 32.550781 58.410156 32.550781 58.339844 32.5 C 58.339844 32.5 58.324219 32.527344 58.289062 32.578125 C 58.253906 32.632812 58.199219 32.707031 58.128906 32.804688 C 57.988281 32.996094 57.773438 33.277344 57.472656 33.609375 C 57.171875 33.941406 56.789062 34.324219 56.308594 34.714844 C 55.828125 35.109375 55.25 35.511719 54.570312 35.867188 C 53.890625 36.222656 53.097656 36.53125 52.207031 36.667969 C 51.984375 36.699219 51.757812 36.722656 51.523438 36.730469 C 51.464844 36.730469 51.40625 36.734375 51.347656 36.734375 C 51.292969 36.734375 51.238281 36.734375 51.183594 36.734375 C 51.078125 36.734375 50.96875 36.734375 50.859375 36.734375 C 50.417969 36.738281 49.96875 36.738281 49.511719 36.738281 C 47.683594 36.746094 45.730469 36.75 43.78125 36.753906 C 41.828125 36.761719 39.878906 36.765625 38.050781 36.769531 C 37.59375 36.773438 37.144531 36.773438 36.703125 36.773438 C 36.484375 36.773438 36.265625 36.777344 36.050781 36.777344 C 35.941406 36.777344 35.835938 36.777344 35.730469 36.777344 C 35.632812 36.777344 35.53125 36.78125 35.433594 36.785156 C 34.652344 36.820312 33.9375 37.003906 33.34375 37.296875 C 32.742188 37.589844 32.265625 37.984375 31.882812 38.386719 C 31.496094 38.789062 31.203125 39.191406 30.945312 39.539062 C 30.816406 39.710938 30.691406 39.871094 30.570312 40.015625 C 30.445312 40.160156 30.328125 40.277344 30.222656 40.359375 C 30.117188 40.4375 30.027344 40.484375 29.964844 40.503906 C 29.933594 40.515625 29.90625 40.519531 29.890625 40.523438 C 29.875 40.527344 29.867188 40.527344 29.867188 40.527344 L 29.757812 40.371094 C 29.757812 40.371094 29.773438 40.371094 29.800781 40.367188 C 29.828125 40.359375 29.867188 40.351562 29.917969 40.328125 C 30.019531 40.289062 30.152344 40.191406 30.296875 40.046875 C 30.597656 39.738281 30.890625 39.289062 31.289062 38.804688 C 31.484375 38.5625 31.707031 38.308594 31.964844 38.066406 C 32.21875 37.828125 32.507812 37.597656 32.828125 37.398438 C 33.148438 37.199219 33.503906 37.03125 33.878906 36.910156 C 34.257812 36.785156 34.65625 36.707031 35.058594 36.664062 C 35.261719 36.644531 35.464844 36.632812 35.671875 36.632812 C 35.769531 36.628906 35.878906 36.632812 35.984375 36.632812 C 36.089844 36.632812 36.199219 36.632812 36.304688 36.632812 C 36.722656 36.632812 37.140625 36.636719 37.539062 36.636719 C 38.34375 36.636719 39.09375 36.640625 39.734375 36.640625 C 41.019531 36.644531 41.875 36.648438 41.875 36.648438 C 41.296875 36.554688 40.902344 35.894531 41.398438 35.058594 C 41.910156 34.183594 43.246094 33.894531 44.171875 34.046875 C 43.398438 34.472656 43.4375 35.039062 43.296875 35.449219 C 43.035156 36.226562 42.578125 36.585938 42.15625 36.648438 L 44.597656 36.65625 C 44.097656 36.539062 43.777344 35.949219 44.21875 35.210938 C 44.699219 34.417969 45.917969 34.164062 46.761719 34.3125 C 46.054688 34.691406 46.082031 35.210938 45.949219 35.582031 C 45.714844 36.253906 45.328125 36.578125 44.960938 36.65625 L 47.117188 36.660156 C 46.660156 36.558594 46.371094 36.015625 46.785156 35.351562 C 47.226562 34.640625 48.328125 34.421875 49.089844 34.5625 C 48.445312 34.898438 48.464844 35.367188 48.339844 35.703125 C 48.125 36.304688 47.769531 36.59375 47.4375 36.664062 L 49.496094 36.667969 C 49.042969 36.621094 48.726562 36.109375 49.132812 35.480469 C 49.539062 34.847656 50.523438 34.667969 51.203125 34.804688 C 50.625 35.09375 50.632812 35.515625 50.519531 35.816406 C 50.300781 36.386719 49.949219 36.636719 49.632812 36.667969 C 49.632812 36.667969 50.242188 36.671875 51.15625 36.671875 C 51.214844 36.671875 51.273438 36.671875 51.332031 36.671875 C 51.394531 36.671875 51.460938 36.671875 51.527344 36.667969 C 51.660156 36.667969 51.792969 36.652344 51.933594 36.644531 C 52.210938 36.613281 52.5 36.566406 52.796875 36.492188 C 53.382812 36.351562 53.984375 36.121094 54.550781 35.828125 C 54.832031 35.683594 55.109375 35.523438 55.371094 35.351562 C 55.632812 35.183594 55.886719 35.007812 56.121094 34.824219 C 56.589844 34.457031 56.996094 34.078125 57.324219 33.730469 C 57.652344 33.386719 57.902344 33.074219 58.074219 32.847656 C 58.15625 32.734375 58.21875 32.648438 58.261719 32.585938 C 58.304688 32.523438 58.328125 32.488281 58.328125 32.488281 C 58.28125 32.449219 58.25 32.386719 58.242188 32.308594 C 58.238281 32.230469 58.253906 32.132812 58.304688 32.027344 C 58.339844 31.953125 58.386719 31.886719 58.445312 31.828125 C 58.503906 31.769531 58.570312 31.71875 58.640625 31.679688 C 58.785156 31.59375 58.941406 31.539062 59.082031 31.527344 C 58.875 31.734375 58.894531 31.917969 58.859375 32.070312 " fill-opacity="1" fill-rule="evenodd"/></g><g clip-path="url(#331240af7d)"><path fill="#000000" d="M 12.8125 1.058594 C 12.945312 1.570312 13.050781 2.089844 13.214844 2.589844 C 13.539062 3.574219 13.84375 4.574219 14.253906 5.523438 C 14.683594 6.5 15.445312 7.203125 16.378906 7.734375 C 19.777344 9.667969 23.160156 11.621094 26.546875 13.566406 C 26.644531 13.625 26.742188 13.691406 26.824219 13.773438 C 22.777344 11.921875 18.839844 9.867188 14.980469 7.480469 C 15.035156 7.625 15.050781 7.699219 15.089844 7.765625 C 15.707031 8.882812 16.332031 9.996094 16.941406 11.117188 C 17.5 12.144531 18.394531 12.585938 19.511719 12.757812 C 21.378906 13.039062 23.238281 13.378906 25.105469 13.699219 C 25.6875 13.796875 26.273438 13.902344 26.855469 14.027344 C 23.9375 13.90625 21.046875 13.53125 18.136719 13.105469 C 18.304688 13.246094 18.472656 13.382812 18.636719 13.523438 C 19.328125 14.117188 20.039062 14.6875 20.703125 15.3125 C 21.238281 15.808594 21.785156 15.898438 22.46875 15.664062 C 23.882812 15.183594 25.3125 14.746094 26.734375 14.292969 C 26.78125 14.277344 26.832031 14.269531 26.886719 14.28125 C 26.355469 14.53125 25.816406 14.769531 25.296875 15.03125 C 24.554688 15.40625 23.890625 15.898438 23.328125 16.515625 C 22.75 17.152344 22.660156 17.847656 23.148438 18.542969 C 23.804688 19.480469 24.519531 20.382812 25.246094 21.292969 C 24.605469 18.566406 25.21875 16.21875 27.277344 14.292969 C 27.222656 14.394531 27.167969 14.5 27.113281 14.601562 C 26.460938 15.804688 25.894531 17.039062 25.703125 18.414062 C 25.566406 19.386719 25.714844 20.285156 26.464844 20.992188 C 27.265625 21.746094 28.082031 22.492188 28.890625 23.242188 C 29.195312 23.523438 29.496094 23.808594 29.820312 24.085938 C 28.117188 21.042969 27.382812 17.765625 27.46875 14.28125 C 27.890625 15.671875 28.316406 17.058594 28.738281 18.453125 C 29.15625 19.839844 29.574219 21.230469 30.070312 22.621094 C 30.910156 19.839844 31.753906 17.058594 32.59375 14.277344 C 32.683594 17.757812 31.953125 21.027344 30.269531 24.085938 C 30.320312 24.039062 30.378906 23.996094 30.429688 23.945312 C 30.484375 23.894531 30.535156 23.839844 30.589844 23.789062 C 31.429688 23.023438 32.242188 22.226562 33.117188 21.5 C 34.359375 20.464844 34.636719 19.191406 34.226562 17.679688 C 33.933594 16.59375 33.488281 15.578125 32.953125 14.597656 C 32.90625 14.511719 32.855469 14.429688 32.8125 14.34375 C 32.804688 14.328125 32.8125 14.304688 32.816406 14.242188 C 33.792969 15.15625 34.46875 16.21875 34.816406 17.488281 C 35.160156 18.75 35.117188 20.011719 34.832031 21.296875 C 35.285156 20.71875 35.742188 20.140625 36.191406 19.558594 C 36.414062 19.269531 36.628906 18.976562 36.835938 18.675781 C 37.398438 17.875 37.34375 17.15625 36.667969 16.441406 C 35.867188 15.589844 34.875 15.027344 33.8125 14.574219 C 33.597656 14.480469 33.382812 14.386719 33.1875 14.242188 C 34.023438 14.492188 34.863281 14.730469 35.691406 14.992188 C 36.304688 15.183594 36.917969 15.378906 37.507812 15.625 C 38.234375 15.929688 38.828125 15.816406 39.410156 15.269531 C 40.132812 14.585938 40.917969 13.964844 41.675781 13.316406 C 41.753906 13.25 41.835938 13.179688 41.90625 13.078125 C 39.019531 13.527344 36.128906 13.90625 33.207031 14.011719 C 34.308594 13.8125 35.40625 13.601562 36.507812 13.414062 C 37.972656 13.164062 39.4375 12.9375 40.902344 12.691406 C 41.792969 12.542969 42.527344 12.128906 42.984375 11.332031 C 43.679688 10.125 44.34375 8.898438 45.023438 7.675781 C 45.039062 7.644531 45.046875 7.601562 45.085938 7.480469 C 41.230469 9.863281 37.289062 11.921875 33.21875 13.742188 C 34.28125 13.117188 35.332031 12.480469 36.398438 11.871094 C 38.769531 10.511719 41.132812 9.144531 43.523438 7.828125 C 44.738281 7.160156 45.621094 6.226562 46.085938 4.9375 C 46.546875 3.671875 46.90625 2.371094 47.3125 1.085938 C 47.28125 1.070312 47.246094 1.058594 47.214844 1.042969 C 47.175781 1.078125 47.128906 1.109375 47.097656 1.152344 C 45.277344 3.820312 42.882812 5.847656 40.125 7.472656 C 38.304688 8.542969 36.5 9.628906 34.679688 10.695312 C 33.785156 11.21875 33.363281 12.074219 32.996094 12.980469 C 32.859375 13.316406 32.757812 13.667969 32.628906 14.050781 C 32.148438 13.410156 31.898438 12.730469 31.9375 11.945312 C 31.953125 11.648438 31.988281 11.328125 31.910156 11.050781 C 31.65625 10.136719 30.941406 9.734375 30.085938 9.535156 C 29.597656 9.421875 29.136719 9.46875 28.730469 9.828125 C 28.636719 9.914062 28.453125 9.90625 28.308594 9.921875 C 27.6875 9.992188 27.40625 10.289062 27.484375 10.8125 C 28.410156 10.5625 29.050781 11.085938 29.015625 12.070312 C 28.980469 13.058594 28.296875 13.929688 27.4375 14.054688 C 27.3125 13.6875 27.199219 13.308594 27.058594 12.941406 C 26.652344 11.867188 26.019531 11.007812 24.980469 10.425781 C 23.101562 9.375 21.261719 8.253906 19.421875 7.144531 C 16.863281 5.605469 14.6875 3.648438 12.984375 1.175781 C 12.949219 1.125 12.90625 1.082031 12.8125 1.058594 Z M 29.234375 10.316406 L 29.242188 10.070312 L 29.910156 10.234375 L 29.90625 10.304688 Z M 29.234375 10.316406 " fill-opacity="1" fill-rule="nonzero"/></g><path fill="#000000" d="M 24.449219 28.996094 C 25.136719 28.996094 25.753906 29.027344 26.363281 28.984375 C 26.859375 28.949219 27.273438 28.683594 27.601562 28.304688 C 28.417969 27.355469 28.898438 26.238281 29.171875 25.03125 C 29.320312 24.394531 28.902344 23.507812 28.214844 22.921875 C 28.332031 23.199219 28.421875 23.417969 28.511719 23.640625 C 28.789062 24.296875 28.742188 24.910156 28.359375 25.535156 C 27.492188 26.9375 26.277344 27.941406 24.878906 28.75 C 24.753906 28.824219 24.628906 28.894531 24.449219 28.996094 Z M 24.449219 28.996094 " fill-opacity="1" fill-rule="nonzero"/><path fill="#000000" d="M 35.554688 28.972656 C 35.21875 28.769531 34.878906 28.574219 34.550781 28.363281 C 33.417969 27.621094 32.449219 26.71875 31.71875 25.558594 C 31.316406 24.914062 31.273438 24.28125 31.566406 23.601562 C 31.652344 23.398438 31.738281 23.195312 31.835938 22.96875 C 31.171875 23.402344 30.742188 24.433594 30.921875 25.164062 C 31.167969 26.183594 31.585938 27.128906 32.203125 27.984375 C 32.707031 28.691406 33.371094 29.0625 34.25 29.027344 C 34.679688 29.011719 35.113281 29.027344 35.542969 29.027344 C 35.546875 29.007812 35.550781 28.988281 35.554688 28.972656 Z M 35.554688 28.972656 " fill-opacity="1" fill-rule="nonzero"/><g clip-path="url(#7557d10c8a)"><path fill="#000000" d="M 30.046875 31.777344 C 30.585938 30.996094 30.8125 30.175781 30.617188 29.261719 C 30.4375 28.414062 30.257812 27.566406 30.082031 26.722656 C 30.054688 26.71875 30.027344 26.714844 30 26.710938 C 29.964844 26.878906 29.921875 27.042969 29.886719 27.207031 C 29.734375 27.917969 29.574219 28.628906 29.429688 29.34375 C 29.261719 30.171875 29.507812 31.136719 30.046875 31.777344 Z M 30.046875 31.777344 " fill-opacity="1" fill-rule="nonzero"/></g><path fill="#000000" d="M 29.585938 25.363281 C 29.222656 26.183594 28.859375 27.085938 28.421875 27.953125 C 27.984375 28.828125 27.351562 29.570312 26.617188 30.25 C 27.511719 30.425781 28.472656 29.917969 28.878906 29.050781 C 29.441406 27.851562 29.648438 26.582031 29.585938 25.363281 Z M 29.585938 25.363281 " fill-opacity="1" fill-rule="nonzero"/><path fill="#000000" d="M 30.507812 25.261719 C 30.414062 26.558594 30.625 27.796875 31.148438 28.972656 C 31.550781 29.886719 32.402344 30.367188 33.464844 30.273438 C 31.972656 28.878906 31.058594 27.175781 30.507812 25.261719 Z M 30.507812 25.261719 " fill-opacity="1" fill-rule="nonzero"/><path fill="#000000" d="M 37.53125 24.648438 C 37.195312 24.449219 36.855469 24.253906 36.527344 24.039062 C 35.394531 23.300781 34.425781 22.398438 33.695312 21.238281 C 33.292969 20.59375 33.25 19.960938 33.542969 19.28125 C 33.628906 19.078125 33.714844 18.875 33.8125 18.648438 C 33.148438 19.082031 32.722656 20.113281 32.898438 20.84375 C 33.148438 21.863281 33.5625 22.808594 34.179688 23.664062 C 34.6875 24.371094 35.347656 24.738281 36.226562 24.707031 C 36.65625 24.691406 37.089844 24.703125 37.519531 24.703125 C 37.523438 24.6875 37.527344 24.667969 37.53125 24.648438 Z M 37.53125 24.648438 " fill-opacity="1" fill-rule="nonzero"/><path fill="#000000" d="M 32.484375 20.941406 C 32.390625 22.238281 32.601562 23.476562 33.125 24.652344 C 33.527344 25.5625 34.378906 26.046875 35.441406 25.953125 C 33.949219 24.554688 33.035156 22.855469 32.484375 20.941406 Z M 32.484375 20.941406 " fill-opacity="1" fill-rule="nonzero"/><path fill="#000000" d="M 22.8125 24.648438 C 23.148438 24.449219 23.488281 24.253906 23.816406 24.039062 C 24.949219 23.300781 25.917969 22.398438 26.648438 21.238281 C 27.050781 20.59375 27.09375 19.960938 26.800781 19.28125 C 26.714844 19.078125 26.628906 18.875 26.53125 18.648438 C 27.195312 19.082031 27.621094 20.113281 27.445312 20.84375 C 27.195312 21.863281 26.78125 22.808594 26.164062 23.664062 C 25.65625 24.371094 24.996094 24.738281 24.117188 24.707031 C 23.6875 24.691406 23.253906 24.703125 22.820312 24.703125 C 22.820312 24.6875 22.816406 24.667969 22.8125 24.648438 Z M 22.8125 24.648438 " fill-opacity="1" fill-rule="nonzero"/><path fill="#000000" d="M 27.859375 20.941406 C 27.953125 22.238281 27.742188 23.476562 27.21875 24.652344 C 26.816406 25.5625 25.964844 26.046875 24.898438 25.953125 C 26.394531 24.554688 27.308594 22.855469 27.859375 20.941406 Z M 27.859375 20.941406 " fill-opacity="1" fill-rule="nonzero"/><path fill="#ffffff" d="M 29.242188 10.304688 C 29.464844 10.304688 29.683594 10.304688 29.90625 10.304688 C 29.90625 10.28125 29.910156 10.257812 29.910156 10.234375 C 29.691406 10.214844 29.46875 10.195312 29.25 10.179688 C 29.246094 10.21875 29.246094 10.261719 29.242188 10.304688 Z M 29.242188 10.304688 " fill-opacity="1" fill-rule="nonzero"/></svg>