<svg xmlns="http://www.w3.org/2000/svg" xmlns:xlink="http://www.w3.org/1999/xlink" width="40" zoomAndPan="magnify" viewBox="0 0 30 30.000001" height="40" preserveAspectRatio="xMidYMid meet" version="1.0"><defs><clipPath id="9b3535f0a2"><path d="M 2.480469 1.996094 L 27.882812 1.996094 L 27.882812 27.398438 L 2.480469 27.398438 Z M 2.480469 1.996094 " clip-rule="nonzero"/></clipPath></defs><g clip-path="url(#9b3535f0a2)"><path fill="#000000" d="M 15.179688 1.996094 C 8.175781 1.996094 2.480469 7.691406 2.480469 14.699219 C 2.480469 21.703125 8.175781 27.398438 15.179688 27.398438 C 22.1875 27.398438 27.882812 21.703125 27.882812 14.699219 C 27.882812 7.691406 22.1875 1.996094 15.179688 1.996094 Z M 15.179688 26.507812 C 8.660156 26.507812 3.371094 21.21875 3.371094 14.699219 C 3.371094 8.175781 8.660156 2.886719 15.179688 2.886719 C 21.703125 2.886719 26.992188 8.175781 26.992188 14.699219 C 26.992188 21.21875 21.703125 26.507812 15.179688 26.507812 Z M 15.179688 26.507812 " fill-opacity="1" fill-rule="nonzero"/></g><path fill="#000000" d="M 22.261719 14.765625 C 22.128906 14.769531 22.007812 14.726562 21.90625 14.636719 L 15.179688 8.996094 L 8.457031 14.636719 C 8.339844 14.738281 8.203125 14.78125 8.050781 14.765625 C 7.898438 14.753906 7.769531 14.6875 7.671875 14.570312 C 7.574219 14.453125 7.53125 14.316406 7.542969 14.164062 C 7.558594 14.007812 7.621094 13.882812 7.742188 13.785156 L 14.824219 7.84375 C 14.925781 7.757812 15.046875 7.714844 15.179688 7.714844 C 15.316406 7.714844 15.433594 7.757812 15.539062 7.84375 L 22.621094 13.785156 C 22.820312 13.953125 22.878906 14.15625 22.789062 14.402344 C 22.699219 14.648438 22.523438 14.769531 22.261719 14.765625 Z M 22.261719 14.765625 " fill-opacity="1" fill-rule="nonzero"/><path fill="#000000" d="M 20.664062 15.320312 L 15.464844 10.960938 C 15.382812 10.890625 15.289062 10.859375 15.179688 10.859375 C 15.074219 10.859375 14.980469 10.890625 14.898438 10.960938 L 9.699219 15.320312 C 9.59375 15.410156 9.542969 15.519531 9.542969 15.65625 L 9.542969 21.242188 C 9.542969 21.363281 9.585938 21.464844 9.671875 21.550781 C 9.757812 21.636719 9.859375 21.679688 9.980469 21.679688 L 13.742188 21.679688 L 13.742188 18.390625 C 13.742188 18.238281 13.792969 18.109375 13.902344 18 C 14.011719 17.890625 14.140625 17.839844 14.292969 17.839844 L 16.070312 17.839844 C 16.222656 17.839844 16.351562 17.890625 16.460938 18 C 16.566406 18.109375 16.621094 18.238281 16.621094 18.390625 L 16.621094 21.679688 L 20.382812 21.679688 C 20.503906 21.679688 20.605469 21.636719 20.691406 21.550781 C 20.777344 21.464844 20.820312 21.363281 20.820312 21.242188 L 20.820312 15.65625 C 20.820312 15.519531 20.769531 15.410156 20.664062 15.320312 Z M 16.621094 16.804688 C 16.621094 16.925781 16.578125 17.03125 16.492188 17.117188 C 16.40625 17.203125 16.300781 17.246094 16.179688 17.246094 L 14.183594 17.246094 C 14.0625 17.246094 13.957031 17.203125 13.871094 17.117188 C 13.785156 17.03125 13.742188 16.925781 13.742188 16.804688 L 13.742188 14.804688 C 13.742188 14.683594 13.785156 14.578125 13.871094 14.496094 C 13.957031 14.410156 14.0625 14.367188 14.183594 14.367188 L 16.179688 14.367188 C 16.300781 14.367188 16.40625 14.410156 16.492188 14.496094 C 16.578125 14.578125 16.621094 14.683594 16.621094 14.804688 Z M 16.621094 16.804688 " fill-opacity="1" fill-rule="nonzero"/></svg>