<svg xmlns="http://www.w3.org/2000/svg" xmlns:xlink="http://www.w3.org/1999/xlink" width="40" zoomAndPan="magnify" viewBox="0 0 30 30.000001" height="40" preserveAspectRatio="xMidYMid meet" version="1.0"><defs><clipPath id="5ac42f5a0e"><path d="M 4.402344 12 L 13 12 L 13 24 L 4.402344 24 Z M 4.402344 12 " clip-rule="nonzero"/></clipPath><clipPath id="fb7ea06894"><path d="M 5 17 L 25 17 L 25 25.230469 L 5 25.230469 Z M 5 17 " clip-rule="nonzero"/></clipPath><clipPath id="e36813a158"><path d="M 16 12 L 25.449219 12 L 25.449219 24 L 16 24 Z M 16 12 " clip-rule="nonzero"/></clipPath><clipPath id="089b22bb24"><path d="M 6 3.457031 L 24 3.457031 L 24 18 L 6 18 Z M 6 3.457031 " clip-rule="nonzero"/></clipPath></defs><g clip-path="url(#5ac42f5a0e)"><path fill="#000000" d="M 5.511719 22.53125 L 12.089844 17.625 L 12.859375 17.042969 L 5.964844 12.632812 C 5.78125 12.453125 5.511719 12.496094 5.328125 12.675781 C 4.601562 13.488281 4.511719 14.523438 4.511719 14.972656 L 4.511719 21.988281 C 4.511719 22.351562 4.558594 22.753906 4.695312 23.160156 Z M 5.511719 22.53125 " fill-opacity="1" fill-rule="nonzero"/></g><g clip-path="url(#fb7ea06894)"><path fill="#000000" d="M 16.945312 18.210938 L 16.171875 17.625 L 14.949219 18.390625 L 13.679688 17.582031 L 12.90625 18.167969 L 5.828125 23.429688 L 5.101562 23.96875 C 5.601562 24.691406 6.464844 25.230469 7.78125 25.230469 L 22.027344 25.230469 C 22.980469 25.230469 24.070312 24.871094 24.703125 24.015625 L 24.023438 23.476562 Z M 16.945312 18.210938 " fill-opacity="1" fill-rule="nonzero"/></g><g clip-path="url(#e36813a158)"><path fill="#000000" d="M 17.761719 17.671875 L 24.386719 22.574219 L 25.15625 23.160156 C 25.292969 22.800781 25.339844 22.394531 25.339844 21.945312 L 25.339844 14.972656 C 25.339844 14.027344 25.066406 13.261719 24.523438 12.675781 C 24.386719 12.496094 24.113281 12.496094 23.933594 12.585938 L 16.945312 17.085938 Z M 17.761719 17.671875 " fill-opacity="1" fill-rule="nonzero"/></g><path fill="#000000" d="M 14.722656 8.359375 C 14.175781 8.359375 13.769531 8.855469 13.769531 9.394531 C 13.769531 9.976562 14.175781 10.429688 14.722656 10.429688 C 15.265625 10.429688 15.71875 9.976562 15.71875 9.394531 C 15.71875 8.855469 15.265625 8.359375 14.722656 8.359375 Z M 14.722656 8.359375 " fill-opacity="1" fill-rule="nonzero"/><g clip-path="url(#089b22bb24)"><path fill="#000000" d="M 6.417969 12.09375 L 14.722656 17.3125 C 14.8125 17.355469 14.859375 17.402344 14.949219 17.402344 C 15.039062 17.402344 15.128906 17.355469 15.175781 17.3125 L 23.023438 12.316406 C 23.160156 12.226562 23.25 12.09375 23.25 11.957031 L 23.25 4.265625 C 23.25 3.816406 22.84375 3.457031 22.34375 3.457031 L 7.097656 3.457031 C 6.601562 3.457031 6.191406 3.816406 6.191406 4.265625 L 6.191406 11.734375 C 6.191406 11.867188 6.28125 12.003906 6.417969 12.09375 Z M 14.722656 6.335938 C 16.445312 6.335938 17.808594 7.730469 17.808594 9.394531 C 17.808594 9.886719 17.714844 10.382812 17.488281 10.789062 L 17.488281 10.832031 C 17.261719 11.191406 16.988281 11.417969 16.671875 11.507812 C 16.582031 11.507812 16.535156 11.507812 16.492188 11.507812 C 16.265625 11.507812 16.039062 11.417969 15.902344 11.238281 C 15.808594 11.101562 15.765625 10.921875 15.765625 10.742188 L 15.765625 10.699219 C 15.492188 10.921875 15.128906 11.058594 14.765625 11.058594 C 13.859375 11.058594 13.132812 10.292969 13.132812 9.347656 C 13.132812 8.402344 13.859375 7.640625 14.765625 7.640625 C 15.675781 7.640625 16.398438 8.402344 16.398438 9.347656 L 16.398438 10.609375 C 16.398438 10.609375 16.398438 10.832031 16.492188 10.832031 L 16.582031 10.832031 C 16.761719 10.789062 16.945312 10.519531 16.988281 10.472656 C 17.171875 10.160156 17.261719 9.753906 17.261719 9.347656 C 17.261719 8 16.171875 6.917969 14.8125 6.917969 C 13.449219 6.917969 12.363281 8 12.363281 9.347656 C 12.363281 10.699219 13.449219 11.777344 14.8125 11.777344 C 15.039062 11.777344 15.21875 11.777344 15.402344 11.734375 C 15.492188 11.6875 15.582031 11.734375 15.675781 11.777344 C 15.71875 11.824219 15.765625 11.867188 15.765625 11.957031 C 15.808594 12.046875 15.765625 12.136719 15.71875 12.183594 C 15.675781 12.273438 15.582031 12.316406 15.492188 12.316406 C 15.265625 12.363281 14.992188 12.40625 14.722656 12.40625 C 12.996094 12.40625 11.589844 11.011719 11.589844 9.304688 C 11.636719 7.730469 12.996094 6.335938 14.722656 6.335938 Z M 14.722656 6.335938 " fill-opacity="1" fill-rule="nonzero"/></g></svg>