<svg xmlns="http://www.w3.org/2000/svg" xmlns:xlink="http://www.w3.org/1999/xlink" width="40" zoomAndPan="magnify" viewBox="0 0 30 30.000001" height="40" preserveAspectRatio="xMidYMid meet" version="1.0"><defs><clipPath id="125d08587d"><path d="M 3.386719 6.007812 L 26.613281 6.007812 L 26.613281 22.703125 L 3.386719 22.703125 Z M 3.386719 6.007812 " clip-rule="nonzero"/></clipPath></defs><g clip-path="url(#125d08587d)"><path fill="#000000" d="M 24.839844 6.011719 L 5.160156 6.011719 C 4.183594 6.011719 3.386719 6.792969 3.386719 7.753906 L 3.386719 20.960938 C 3.386719 21.921875 4.183594 22.699219 5.160156 22.699219 L 24.839844 22.699219 C 25.816406 22.699219 26.613281 21.921875 26.613281 20.960938 L 26.613281 7.753906 C 26.613281 6.792969 25.816406 6.011719 24.839844 6.011719 Z M 25.78125 7.753906 L 25.78125 20.960938 C 25.78125 21.09375 25.75 21.222656 25.699219 21.335938 L 19.753906 15.503906 C 19.882812 15.144531 19.957031 14.71875 19.957031 14.222656 C 19.957031 13.910156 19.914062 13.605469 19.84375 13.308594 L 25.746094 7.515625 C 25.765625 7.589844 25.78125 7.667969 25.78125 7.753906 Z M 4.300781 21.335938 C 4.25 21.222656 4.21875 21.09375 4.21875 20.960938 L 4.21875 7.753906 C 4.21875 7.667969 4.234375 7.589844 4.253906 7.515625 L 10.226562 13.375 C 10.109375 13.789062 10.042969 14.222656 10.042969 14.667969 C 10.042969 14.992188 10.078125 15.308594 10.136719 15.613281 Z M 16.113281 14.253906 C 16.113281 15.136719 15.375 15.941406 14.566406 15.941406 C 13.894531 15.941406 13.476562 15.519531 13.476562 14.839844 C 13.476562 13.832031 14.289062 13.132812 15.023438 13.132812 C 15.652344 13.132812 16.113281 13.605469 16.113281 14.253906 Z M 24.839844 6.828125 C 24.96875 6.828125 25.089844 6.855469 25.199219 6.898438 L 19.53125 12.460938 C 18.75 10.910156 16.996094 9.792969 15.011719 9.792969 C 13.050781 9.792969 11.355469 10.917969 10.550781 12.539062 L 4.800781 6.898438 C 4.910156 6.851562 5.03125 6.828125 5.160156 6.828125 Z M 5.160156 21.882812 C 5.085938 21.882812 5.015625 21.875 4.945312 21.859375 L 10.40625 16.5 C 11.144531 18.289062 12.941406 19.523438 15.097656 19.523438 C 16.140625 19.523438 17.089844 19.269531 18.003906 18.75 L 18.058594 18.707031 C 18.101562 18.664062 18.203125 18.570312 18.203125 18.40625 C 18.203125 18.195312 18.019531 18.011719 17.8125 18.011719 C 17.753906 18.011719 17.664062 18.027344 17.589844 18.0625 C 16.785156 18.519531 16.039062 18.714844 15.097656 18.714844 C 12.699219 18.714844 10.886719 16.976562 10.886719 14.667969 C 10.886719 12.390625 12.699219 10.605469 15.011719 10.605469 C 17.460938 10.605469 19.109375 12.476562 19.109375 14.222656 C 19.109375 15.671875 18.417969 16.1875 17.824219 16.1875 C 17.363281 16.1875 17.132812 15.972656 17.132812 15.550781 C 17.132812 15.453125 17.152344 15.234375 17.203125 14.941406 L 17.59375 12.796875 C 17.625 12.613281 17.578125 12.429688 17.460938 12.292969 C 17.351562 12.164062 17.1875 12.089844 17.011719 12.089844 C 16.714844 12.089844 16.492188 12.277344 16.417969 12.589844 C 16.109375 12.28125 15.648438 12.023438 14.96875 12.023438 C 13.675781 12.023438 12.238281 13.203125 12.238281 14.894531 C 12.238281 16.121094 13.167969 17.050781 14.402344 17.050781 C 15.058594 17.050781 15.628906 16.808594 16.136719 16.320312 C 16.449219 16.789062 17.003906 17.050781 17.703125 17.050781 C 18.308594 17.050781 18.914062 16.792969 19.34375 16.253906 L 25.054688 21.859375 C 24.984375 21.875 24.914062 21.882812 24.839844 21.882812 Z M 5.160156 21.882812 " fill-opacity="1" fill-rule="nonzero"/></g></svg>