<svg xmlns="http://www.w3.org/2000/svg" xmlns:xlink="http://www.w3.org/1999/xlink" width="40" zoomAndPan="magnify" viewBox="0 0 30 30.000001" height="40" preserveAspectRatio="xMidYMid meet" version="1.0"><defs><clipPath id="d0c20fb3c2"><path d="M 1.933594 1.453125 L 28.066406 1.453125 L 28.066406 27.582031 L 1.933594 27.582031 Z M 1.933594 1.453125 " clip-rule="nonzero"/></clipPath></defs><g clip-path="url(#d0c20fb3c2)"><path fill="#000000" d="M 15 1.453125 C 7.796875 1.453125 1.933594 7.3125 1.933594 14.515625 C 1.933594 21.722656 7.796875 27.582031 15 27.582031 C 22.203125 27.582031 28.066406 21.722656 28.066406 14.515625 C 28.066406 7.3125 22.203125 1.453125 15 1.453125 Z M 15 26.664062 C 8.292969 26.664062 2.851562 21.222656 2.851562 14.515625 C 2.851562 7.808594 8.292969 2.367188 15 2.367188 C 21.707031 2.367188 27.148438 7.808594 27.148438 14.515625 C 27.148438 21.222656 21.707031 26.664062 15 26.664062 Z M 15 26.664062 " fill-opacity="1" fill-rule="nonzero"/></g><path fill="#000000" d="M 21.578125 10.308594 L 17.15625 14.515625 L 21.578125 18.726562 C 21.695312 18.5625 21.773438 18.382812 21.804688 18.183594 L 21.804688 10.847656 C 21.773438 10.648438 21.695312 10.46875 21.578125 10.308594 Z M 21.578125 10.308594 " fill-opacity="1" fill-rule="nonzero"/><path fill="#000000" d="M 15 16.566406 L 13.179688 14.835938 L 8.761719 19.039062 C 8.96875 19.175781 9.195312 19.246094 9.445312 19.246094 L 20.554688 19.246094 C 20.804688 19.246094 21.03125 19.175781 21.238281 19.039062 L 16.820312 14.835938 Z M 15 16.566406 " fill-opacity="1" fill-rule="nonzero"/><path fill="#000000" d="M 8.421875 10.308594 C 8.304688 10.46875 8.226562 10.648438 8.195312 10.847656 L 8.195312 18.183594 C 8.226562 18.382812 8.304688 18.5625 8.421875 18.726562 L 12.84375 14.515625 Z M 8.421875 10.308594 " fill-opacity="1" fill-rule="nonzero"/><path fill="#000000" d="M 13.179688 14.199219 L 15 15.933594 L 21.238281 9.992188 C 21.03125 9.855469 20.804688 9.785156 20.554688 9.789062 L 9.445312 9.789062 C 9.195312 9.785156 8.96875 9.855469 8.761719 9.992188 Z M 13.179688 14.199219 " fill-opacity="1" fill-rule="nonzero"/></svg>