<svg xmlns="http://www.w3.org/2000/svg" xmlns:xlink="http://www.w3.org/1999/xlink" width="40" zoomAndPan="magnify" viewBox="0 0 30 30.000001" height="40" preserveAspectRatio="xMidYMid meet" version="1.0"><defs><clipPath id="eb96d4848f"><path d="M 2.640625 2.203125 L 27.316406 2.203125 L 27.316406 26.878906 L 2.640625 26.878906 Z M 2.640625 2.203125 " clip-rule="nonzero"/></clipPath></defs><g clip-path="url(#eb96d4848f)"><path fill="#000000" d="M 27.355469 14.558594 C 27.355469 7.734375 21.820312 2.203125 14.996094 2.203125 C 8.175781 2.203125 2.640625 7.734375 2.640625 14.558594 C 2.640625 20.351562 6.628906 25.214844 12.011719 26.550781 L 12.011719 18.335938 L 9.464844 18.335938 L 9.464844 14.558594 L 12.011719 14.558594 L 12.011719 12.929688 C 12.011719 8.726562 13.914062 6.777344 18.042969 6.777344 C 18.828125 6.777344 20.179688 6.929688 20.730469 7.082031 L 20.730469 10.503906 C 20.4375 10.476562 19.933594 10.460938 19.304688 10.460938 C 17.277344 10.460938 16.492188 11.226562 16.492188 13.222656 L 16.492188 14.558594 L 20.53125 14.558594 L 19.835938 18.332031 L 16.492188 18.332031 L 16.492188 26.824219 C 22.613281 26.085938 27.355469 20.875 27.355469 14.558594 Z M 27.355469 14.558594 " fill-opacity="1" fill-rule="nonzero"/></g></svg>