<svg xmlns="http://www.w3.org/2000/svg" xmlns:xlink="http://www.w3.org/1999/xlink" width="40" zoomAndPan="magnify" viewBox="0 0 30 30.000001" height="40" preserveAspectRatio="xMidYMid meet" version="1.0"><defs><clipPath id="53379d5be5"><path d="M 3.386719 2.902344 L 26.613281 2.902344 L 26.613281 26.128906 L 3.386719 26.128906 Z M 3.386719 2.902344 " clip-rule="nonzero"/></clipPath></defs><g clip-path="url(#53379d5be5)"><path fill="#000000" d="M 15 2.902344 C 8.585938 2.902344 3.386719 8.101562 3.386719 14.515625 C 3.386719 20.929688 8.585938 26.128906 15 26.128906 C 21.414062 26.128906 26.613281 20.929688 26.613281 14.515625 C 26.613281 8.101562 21.414062 2.902344 15 2.902344 Z M 15 25.25 C 9.070312 25.25 4.265625 20.445312 4.265625 14.515625 C 4.265625 8.589844 9.070312 3.78125 15 3.78125 C 20.929688 3.78125 25.734375 8.589844 25.734375 14.515625 C 25.734375 20.445312 20.929688 25.25 15 25.25 Z M 15 25.25 " fill-opacity="1" fill-rule="nonzero"/></g><path fill="#000000" d="M 13.636719 20.207031 C 13.347656 20.238281 13.113281 20.269531 12.878906 20.28125 C 11.554688 20.34375 10.574219 19.820312 9.980469 18.601562 C 9.789062 18.214844 9.546875 17.847656 9.292969 17.496094 C 9.140625 17.285156 8.929688 17.117188 8.734375 16.941406 L 8.730469 16.9375 C 8.609375 16.832031 8.664062 16.632812 8.824219 16.605469 C 9.011719 16.574219 9.183594 16.605469 9.355469 16.648438 C 9.886719 16.785156 10.230469 17.164062 10.5 17.613281 C 11.117188 18.636719 12.179688 19.0625 13.328125 18.757812 C 13.519531 18.707031 13.605469 18.621094 13.648438 18.410156 C 13.699219 18.164062 13.765625 17.917969 13.839844 17.667969 C 13.882812 17.515625 13.867188 17.367188 13.785156 17.226562 C 13.703125 17.089844 13.582031 17 13.425781 16.964844 L 13.421875 16.960938 C 12.230469 16.675781 11.203125 16.148438 10.539062 15.058594 C 10.183594 14.476562 10.007812 13.835938 10.019531 13.167969 C 10.027344 12.410156 10.09375 11.652344 10.183594 10.898438 C 10.242188 10.367188 10.488281 9.898438 10.871094 9.515625 C 11.003906 9.382812 11.015625 9.273438 10.949219 9.101562 C 10.6875 8.394531 10.734375 7.691406 10.964844 6.984375 C 11.03125 6.785156 11.125 6.753906 11.316406 6.816406 C 11.90625 7 12.347656 7.386719 12.734375 7.84375 L 12.738281 7.851562 C 12.957031 8.113281 13.230469 8.191406 13.554688 8.085938 C 14.78125 7.683594 16.636719 7.679688 17.792969 8.078125 C 18.121094 8.1875 18.394531 8.109375 18.617188 7.84375 L 18.621094 7.839844 C 19.011719 7.378906 19.453125 7 20.042969 6.8125 C 20.238281 6.75 20.324219 6.796875 20.386719 6.992188 C 20.617188 7.699219 20.65625 8.398438 20.40625 9.113281 C 20.371094 9.210938 20.371094 9.386719 20.433594 9.449219 C 20.964844 9.984375 21.195312 10.652344 21.253906 11.371094 C 21.3125 12.070312 21.371094 12.777344 21.308594 13.46875 C 21.140625 15.269531 20.046875 16.316406 18.382812 16.839844 C 18.238281 16.882812 18.09375 16.921875 17.945312 16.953125 C 17.785156 16.992188 17.664062 17.085938 17.582031 17.230469 C 17.5 17.378906 17.488281 17.53125 17.542969 17.6875 C 17.769531 18.34375 17.734375 19.046875 17.734375 19.742188 C 17.730469 19.90625 17.730469 20.066406 17.730469 20.226562 C 17.730469 20.492188 17.679688 20.75 17.574219 21 C 17.472656 21.246094 17.324219 21.464844 17.136719 21.652344 C 16.945312 21.84375 16.726562 21.988281 16.480469 22.089844 C 16.234375 22.195312 15.976562 22.246094 15.707031 22.246094 L 15.660156 22.246094 C 15.394531 22.246094 15.132812 22.191406 14.886719 22.089844 C 14.636719 21.988281 14.417969 21.839844 14.230469 21.652344 C 14.039062 21.460938 13.894531 21.242188 13.792969 20.996094 C 13.6875 20.746094 13.636719 20.488281 13.636719 20.21875 Z M 13.636719 20.207031 " fill-opacity="1" fill-rule="nonzero"/></svg>