<svg xmlns="http://www.w3.org/2000/svg" xmlns:xlink="http://www.w3.org/1999/xlink" width="40" zoomAndPan="magnify" viewBox="0 0 30 30.000001" height="40" preserveAspectRatio="xMidYMid meet" version="1.0"><defs><clipPath id="667d9e0795"><path d="M 2.660156 2.175781 L 27.339844 2.175781 L 27.339844 26.855469 L 2.660156 26.855469 Z M 2.660156 2.175781 " clip-rule="nonzero"/></clipPath></defs><g clip-path="url(#667d9e0795)"><path fill="#000000" d="M 15 2.175781 C 8.183594 2.175781 2.660156 7.703125 2.660156 14.515625 C 2.660156 21.332031 8.183594 26.855469 15 26.855469 C 21.8125 26.855469 27.339844 21.332031 27.339844 14.515625 C 27.339844 7.703125 21.8125 2.175781 15 2.175781 Z M 15 25.921875 C 8.703125 25.921875 3.597656 20.8125 3.597656 14.515625 C 3.597656 8.21875 8.703125 3.113281 15 3.113281 C 21.296875 3.113281 26.402344 8.21875 26.402344 14.515625 C 26.402344 20.8125 21.296875 25.921875 15 25.921875 Z M 15 25.921875 " fill-opacity="1" fill-rule="nonzero"/></g><path fill="#000000" d="M 13.550781 20.5625 C 13.242188 20.59375 12.996094 20.628906 12.746094 20.640625 C 11.339844 20.707031 10.296875 20.152344 9.664062 18.855469 C 9.464844 18.445312 9.207031 18.054688 8.9375 17.683594 C 8.777344 17.457031 8.550781 17.277344 8.339844 17.089844 C 8.210938 16.976562 8.265625 16.761719 8.4375 16.734375 C 8.636719 16.703125 8.820312 16.738281 9 16.78125 C 9.566406 16.925781 9.929688 17.328125 10.21875 17.808594 C 10.875 18.894531 12.003906 19.347656 13.222656 19.023438 C 13.429688 18.96875 13.519531 18.878906 13.566406 18.652344 C 13.617188 18.390625 13.6875 18.128906 13.765625 17.867188 C 13.8125 17.703125 13.792969 17.546875 13.707031 17.398438 C 13.621094 17.25 13.496094 17.15625 13.328125 17.117188 L 13.320312 17.117188 C 12.058594 16.8125 10.964844 16.25 10.261719 15.09375 C 9.882812 14.476562 9.695312 13.792969 9.707031 13.085938 C 9.71875 12.28125 9.789062 11.472656 9.882812 10.671875 C 9.945312 10.109375 10.207031 9.609375 10.613281 9.203125 C 10.753906 9.0625 10.765625 8.945312 10.699219 8.761719 C 10.417969 8.011719 10.46875 7.261719 10.714844 6.511719 C 10.785156 6.300781 10.882812 6.269531 11.085938 6.335938 C 11.714844 6.53125 12.179688 6.941406 12.589844 7.429688 L 12.597656 7.433594 C 12.828125 7.714844 13.117188 7.796875 13.464844 7.683594 C 14.765625 7.257812 16.738281 7.253906 17.96875 7.675781 C 18.125 7.726562 18.285156 7.730469 18.445312 7.6875 C 18.605469 7.640625 18.738281 7.554688 18.84375 7.425781 L 18.847656 7.421875 C 19.261719 6.933594 19.730469 6.53125 20.355469 6.332031 C 20.566406 6.265625 20.65625 6.316406 20.722656 6.519531 C 20.96875 7.269531 21.007812 8.015625 20.746094 8.773438 C 20.707031 8.878906 20.707031 9.066406 20.773438 9.132812 C 21.335938 9.703125 21.582031 10.410156 21.644531 11.175781 C 21.707031 11.917969 21.769531 12.667969 21.703125 13.40625 C 21.523438 15.316406 20.359375 16.429688 18.59375 16.984375 C 18.441406 17.03125 18.289062 17.070312 18.132812 17.105469 C 17.957031 17.148438 17.828125 17.246094 17.742188 17.402344 C 17.660156 17.558594 17.644531 17.71875 17.703125 17.886719 C 17.945312 18.585938 17.90625 19.332031 17.902344 20.070312 C 17.902344 20.242188 17.902344 20.410156 17.902344 20.582031 C 17.902344 20.867188 17.847656 21.140625 17.738281 21.402344 C 17.628906 21.667969 17.472656 21.898438 17.269531 22.097656 C 17.066406 22.300781 16.835938 22.457031 16.574219 22.566406 C 16.308594 22.671875 16.035156 22.726562 15.75 22.726562 L 15.703125 22.726562 C 15.417969 22.726562 15.144531 22.671875 14.878906 22.5625 C 14.617188 22.453125 14.382812 22.300781 14.183594 22.097656 C 13.980469 21.894531 13.824219 21.664062 13.714844 21.398438 C 13.605469 21.136719 13.550781 20.863281 13.550781 20.578125 Z M 13.550781 20.5625 " fill-opacity="1" fill-rule="nonzero"/></svg>