<svg xmlns="http://www.w3.org/2000/svg" xmlns:xlink="http://www.w3.org/1999/xlink" width="40" zoomAndPan="magnify" viewBox="0 0 30 30.000001" height="40" preserveAspectRatio="xMidYMid meet" version="1.0"><defs><clipPath id="1f61b4a321"><path d="M 26 23 L 28 23 L 28 25.875 L 26 25.875 Z M 26 23 " clip-rule="nonzero"/></clipPath><clipPath id="c08a7d667c"><path d="M 1.933594 3.375 L 25 3.375 L 25 25.875 L 1.933594 25.875 Z M 1.933594 3.375 " clip-rule="nonzero"/></clipPath><clipPath id="0a29ee84d7"><path d="M 25 22 L 28.066406 22 L 28.066406 25.875 L 25 25.875 Z M 25 22 " clip-rule="nonzero"/></clipPath></defs><g clip-path="url(#1f61b4a321)"><path fill="#000000" d="M 26.773438 24.4375 C 27 24.441406 27.183594 24.257812 27.1875 24.027344 C 27.1875 24.019531 27.1875 24.011719 27.1875 24 C 27.1875 23.691406 27 23.542969 26.621094 23.542969 L 26.007812 23.542969 L 26.007812 25.164062 L 26.238281 25.164062 L 26.238281 24.457031 L 26.523438 24.457031 L 26.527344 24.464844 L 26.96875 25.164062 L 27.214844 25.164062 L 26.742188 24.441406 Z M 26.507812 24.273438 L 26.238281 24.273438 L 26.238281 23.726562 L 26.578125 23.726562 C 26.753906 23.726562 26.953125 23.753906 26.953125 23.988281 C 26.953125 24.253906 26.75 24.273438 26.507812 24.273438 " fill-opacity="1" fill-rule="nonzero"/></g><g clip-path="url(#c08a7d667c)"><path fill="#000000" d="M 20.753906 22.40625 L 17.480469 22.40625 L 17.480469 17.226562 C 17.480469 15.992188 17.457031 14.402344 15.777344 14.402344 C 14.097656 14.402344 13.8125 15.75 13.8125 17.136719 L 13.8125 22.40625 L 10.539062 22.40625 L 10.539062 11.757812 L 13.683594 11.757812 L 13.683594 13.214844 L 13.726562 13.214844 C 14.367188 12.105469 15.558594 11.445312 16.824219 11.492188 C 20.140625 11.492188 20.753906 13.699219 20.753906 16.566406 Z M 6.847656 10.300781 C 5.800781 10.300781 4.949219 9.445312 4.949219 8.382812 C 4.949219 7.324219 5.796875 6.464844 6.847656 6.464844 C 7.898438 6.464844 8.746094 7.324219 8.746094 8.382812 C 8.75 9.445312 7.898438 10.300781 6.847656 10.300781 M 8.484375 22.40625 L 5.210938 22.40625 L 5.210938 11.757812 L 8.484375 11.757812 Z M 22.386719 3.394531 L 3.566406 3.394531 C 2.675781 3.386719 1.945312 4.105469 1.933594 5.003906 L 1.933594 24.09375 C 1.945312 24.996094 2.675781 25.714844 3.566406 25.707031 L 22.386719 25.707031 C 23.277344 25.71875 24.011719 24.996094 24.023438 24.09375 L 24.023438 5.003906 C 24.007812 4.101562 23.277344 3.382812 22.386719 3.394531 " fill-opacity="1" fill-rule="nonzero"/></g><g clip-path="url(#0a29ee84d7)"><path fill="#000000" d="M 26.535156 22.820312 C 25.703125 22.828125 25.035156 23.515625 25.042969 24.355469 C 25.050781 25.195312 25.734375 25.871094 26.5625 25.863281 C 27.394531 25.855469 28.0625 25.167969 28.054688 24.328125 C 28.046875 23.496094 27.382812 22.828125 26.5625 22.820312 L 26.535156 22.820312 M 26.535156 25.6875 C 25.804688 25.699219 25.203125 25.113281 25.191406 24.378906 C 25.179688 23.640625 25.761719 23.03125 26.492188 23.019531 C 27.21875 23.007812 27.820312 23.597656 27.832031 24.332031 L 27.832031 24.355469 C 27.847656 25.074219 27.28125 25.671875 26.570312 25.6875 L 26.535156 25.6875 " fill-opacity="1" fill-rule="nonzero"/></g></svg>