<svg xmlns="http://www.w3.org/2000/svg" xmlns:xlink="http://www.w3.org/1999/xlink" width="40" zoomAndPan="magnify" viewBox="0 0 30 30.000001" height="40" preserveAspectRatio="xMidYMid meet" version="1.0"><defs><clipPath id="6198016768"><path d="M 1.933594 1.453125 L 28.066406 1.453125 L 28.066406 27.582031 L 1.933594 27.582031 Z M 1.933594 1.453125 " clip-rule="nonzero"/></clipPath></defs><g clip-path="url(#6198016768)"><path fill="#000000" d="M 15 1.453125 C 7.796875 1.453125 1.933594 7.3125 1.933594 14.515625 C 1.933594 21.722656 7.796875 27.582031 15 27.582031 C 22.203125 27.582031 28.066406 21.722656 28.066406 14.515625 C 28.066406 7.3125 22.203125 1.453125 15 1.453125 Z M 15 26.664062 C 8.292969 26.664062 2.851562 21.222656 2.851562 14.515625 C 2.851562 7.808594 8.292969 2.367188 15 2.367188 C 21.707031 2.367188 27.148438 7.808594 27.148438 14.515625 C 27.148438 21.222656 21.707031 26.664062 15 26.664062 Z M 15 26.664062 " fill-opacity="1" fill-rule="nonzero"/></g><path fill="#000000" d="M 7.753906 13.308594 C 7.867188 14.566406 8.691406 14.546875 9.363281 14.453125 C 10.085938 14.355469 11.300781 13.835938 11.246094 13.230469 C 11.1875 12.566406 11.21875 11.765625 11.648438 11.515625 C 12.375 11.097656 13.886719 11.136719 15 11.136719 C 16.113281 11.136719 17.625 11.097656 18.351562 11.515625 C 18.78125 11.765625 18.8125 12.566406 18.753906 13.230469 C 18.699219 13.835938 19.914062 14.355469 20.636719 14.453125 C 21.308594 14.546875 22.132812 14.566406 22.246094 13.308594 C 22.359375 12.046875 21.707031 9.640625 17.769531 8.917969 C 16.761719 8.730469 16.0625 8.746094 15 8.746094 C 13.9375 8.746094 13.238281 8.730469 12.230469 8.917969 C 8.292969 9.640625 7.636719 12.042969 7.753906 13.308594 Z M 7.753906 13.308594 " fill-opacity="1" fill-rule="nonzero"/><path fill="#000000" d="M 18.175781 14.078125 C 17.902344 13.011719 18.015625 11.761719 18.015625 11.761719 L 16.40625 11.761719 C 16.40625 13.554688 15 13.441406 15 13.441406 C 15 13.441406 13.59375 13.554688 13.59375 11.761719 L 11.984375 11.761719 C 11.984375 11.761719 12.097656 13.011719 11.824219 14.078125 C 11.550781 15.144531 9.988281 15.230469 10.035156 17.953125 C 10.078125 20.671875 10.261719 20.269531 12.4375 20.269531 C 14.609375 20.269531 15 20.289062 15 20.289062 C 15 20.289062 15.386719 20.269531 17.5625 20.269531 C 19.742188 20.269531 19.921875 20.671875 19.964844 17.953125 C 20.011719 15.230469 18.449219 15.140625 18.175781 14.078125 Z M 15 18.574219 C 14.753906 18.574219 14.515625 18.527344 14.289062 18.433594 C 14.058594 18.339844 13.859375 18.203125 13.683594 18.03125 C 13.507812 17.855469 13.375 17.652344 13.28125 17.425781 C 13.183594 17.199219 13.136719 16.960938 13.136719 16.714844 C 13.136719 16.464844 13.183594 16.230469 13.28125 16 C 13.375 15.773438 13.507812 15.570312 13.683594 15.394531 C 13.859375 15.222656 14.058594 15.085938 14.289062 14.992188 C 14.515625 14.898438 14.753906 14.851562 15 14.851562 C 15.246094 14.851562 15.484375 14.898438 15.710938 14.992188 C 15.941406 15.085938 16.140625 15.222656 16.316406 15.394531 C 16.492188 15.570312 16.625 15.773438 16.71875 16 C 16.816406 16.230469 16.863281 16.464844 16.863281 16.714844 C 16.863281 16.960938 16.816406 17.199219 16.71875 17.425781 C 16.625 17.652344 16.492188 17.855469 16.316406 18.03125 C 16.140625 18.203125 15.941406 18.339844 15.710938 18.433594 C 15.484375 18.527344 15.246094 18.574219 15 18.574219 Z M 15 18.574219 " fill-opacity="1" fill-rule="nonzero"/></svg>