<svg xmlns="http://www.w3.org/2000/svg" xmlns:xlink="http://www.w3.org/1999/xlink" width="40" zoomAndPan="magnify" viewBox="0 0 30 30.000001" height="40" preserveAspectRatio="xMidYMid meet" version="1.0"><defs><clipPath id="4da3523cb2"><path d="M 3.824219 3.339844 L 26.324219 3.339844 L 26.324219 25.839844 L 3.824219 25.839844 Z M 3.824219 3.339844 " clip-rule="nonzero"/></clipPath><clipPath id="bbc7e6027a"><path d="M 15 3.339844 L 26.324219 3.339844 L 26.324219 14 L 15 14 Z M 15 3.339844 " clip-rule="nonzero"/></clipPath></defs><g clip-path="url(#4da3523cb2)"><path fill="#000000" d="M 23.453125 17.820312 C 23.191406 17.558594 22.894531 17.359375 22.554688 17.21875 C 22.214844 17.078125 21.859375 17.007812 21.492188 17.007812 C 21.125 17.007812 20.769531 17.078125 20.429688 17.21875 C 20.089844 17.359375 19.792969 17.558594 19.53125 17.820312 L 18.074219 19.273438 C 17.160156 19.011719 16.292969 18.640625 15.472656 18.160156 C 14.652344 17.675781 13.90625 17.097656 13.234375 16.425781 C 12.5625 15.753906 11.984375 15.007812 11.503906 14.1875 C 11.019531 13.367188 10.648438 12.5 10.386719 11.585938 L 11.84375 10.128906 C 12.101562 9.871094 12.300781 9.570312 12.441406 9.230469 C 12.585938 8.890625 12.65625 8.535156 12.65625 8.167969 C 12.65625 7.800781 12.585938 7.449219 12.441406 7.109375 C 12.300781 6.769531 12.101562 6.46875 11.84375 6.207031 L 9.648438 4.015625 C 9.539062 3.90625 9.421875 3.808594 9.289062 3.726562 C 9.160156 3.644531 9.019531 3.578125 8.875 3.527344 C 8.730469 3.476562 8.578125 3.445312 8.425781 3.425781 C 8.273438 3.410156 8.117188 3.410156 7.964844 3.425781 C 7.8125 3.445312 7.664062 3.480469 7.515625 3.53125 C 7.371094 3.582031 7.234375 3.648438 7.101562 3.730469 C 6.972656 3.8125 6.851562 3.910156 6.742188 4.019531 C 6.632812 4.128906 6.539062 4.246094 6.457031 4.378906 L 4.625 7.308594 C 4.285156 7.851562 4.078125 8.441406 4 9.078125 C 3.925781 9.710938 3.988281 10.332031 4.191406 10.941406 C 4.753906 12.632812 5.507812 14.234375 6.445312 15.753906 C 7.382812 17.269531 8.480469 18.65625 9.742188 19.917969 C 11.003906 21.179688 12.390625 22.277344 13.910156 23.214844 C 15.425781 24.152344 17.027344 24.902344 18.722656 25.46875 C 19.328125 25.667969 19.949219 25.734375 20.585938 25.65625 C 21.21875 25.582031 21.808594 25.375 22.351562 25.035156 L 25.28125 23.207031 C 25.414062 23.125 25.535156 23.027344 25.644531 22.917969 C 25.753906 22.8125 25.847656 22.691406 25.929688 22.558594 C 26.011719 22.429688 26.078125 22.292969 26.132812 22.144531 C 26.183594 22 26.214844 21.851562 26.234375 21.699219 C 26.25 21.542969 26.25 21.390625 26.234375 21.238281 C 26.21875 21.082031 26.183594 20.933594 26.132812 20.789062 C 26.082031 20.640625 26.015625 20.503906 25.933594 20.375 C 25.851562 20.242188 25.757812 20.121094 25.648438 20.011719 Z M 23.453125 17.820312 " fill-opacity="1" fill-rule="nonzero"/></g><path fill="#000000" d="M 16.59375 8.609375 C 16.886719 8.609375 17.175781 8.640625 17.464844 8.699219 C 17.75 8.753906 18.027344 8.839844 18.300781 8.953125 C 18.570312 9.0625 18.824219 9.199219 19.070312 9.363281 C 19.3125 9.527344 19.539062 9.710938 19.742188 9.917969 C 19.949219 10.125 20.136719 10.347656 20.296875 10.59375 C 20.460938 10.835938 20.597656 11.09375 20.710938 11.363281 C 20.820312 11.632812 20.90625 11.910156 20.964844 12.199219 C 21.019531 12.484375 21.050781 12.773438 21.050781 13.066406 C 21.050781 13.273438 21.121094 13.445312 21.269531 13.589844 C 21.414062 13.738281 21.585938 13.808594 21.792969 13.808594 C 21.996094 13.808594 22.171875 13.738281 22.316406 13.589844 C 22.464844 13.445312 22.535156 13.273438 22.535156 13.066406 C 22.535156 12.675781 22.496094 12.289062 22.421875 11.90625 C 22.34375 11.527344 22.230469 11.152344 22.082031 10.792969 C 21.933594 10.433594 21.75 10.089844 21.53125 9.769531 C 21.316406 9.445312 21.070312 9.144531 20.792969 8.867188 C 20.519531 8.59375 20.21875 8.347656 19.894531 8.128906 C 19.570312 7.914062 19.226562 7.730469 18.867188 7.578125 C 18.507812 7.429688 18.136719 7.316406 17.753906 7.242188 C 17.371094 7.164062 16.984375 7.125 16.59375 7.125 C 16.390625 7.125 16.214844 7.199219 16.070312 7.34375 C 15.925781 7.488281 15.851562 7.664062 15.851562 7.867188 C 15.851562 8.074219 15.925781 8.25 16.070312 8.394531 C 16.214844 8.539062 16.390625 8.609375 16.59375 8.609375 Z M 16.59375 8.609375 " fill-opacity="1" fill-rule="nonzero"/><g clip-path="url(#bbc7e6027a)"><path fill="#000000" d="M 16.59375 4.898438 C 17.132812 4.898438 17.660156 4.953125 18.1875 5.058594 C 18.714844 5.160156 19.222656 5.316406 19.71875 5.523438 C 20.214844 5.726562 20.683594 5.980469 21.128906 6.277344 C 21.578125 6.574219 21.988281 6.914062 22.367188 7.292969 C 22.746094 7.671875 23.085938 8.085938 23.382812 8.53125 C 23.679688 8.976562 23.933594 9.445312 24.140625 9.941406 C 24.34375 10.4375 24.5 10.949219 24.605469 11.472656 C 24.710938 12 24.761719 12.53125 24.761719 13.066406 C 24.761719 13.273438 24.835938 13.445312 24.980469 13.589844 C 25.125 13.738281 25.300781 13.808594 25.503906 13.808594 C 25.710938 13.808594 25.886719 13.738281 26.03125 13.589844 C 26.175781 13.445312 26.25 13.273438 26.25 13.066406 C 26.246094 12.433594 26.183594 11.804688 26.0625 11.183594 C 25.9375 10.5625 25.753906 9.960938 25.511719 9.375 C 25.269531 8.789062 24.96875 8.234375 24.617188 7.707031 C 24.265625 7.179688 23.867188 6.691406 23.417969 6.242188 C 22.96875 5.796875 22.480469 5.394531 21.957031 5.042969 C 21.429688 4.691406 20.871094 4.394531 20.289062 4.152344 C 19.703125 3.90625 19.097656 3.722656 18.476562 3.601562 C 17.855469 3.476562 17.226562 3.414062 16.59375 3.414062 C 16.390625 3.414062 16.214844 3.484375 16.070312 3.628906 C 15.925781 3.777344 15.851562 3.949219 15.851562 4.15625 C 15.851562 4.359375 15.925781 4.535156 16.070312 4.679688 C 16.214844 4.824219 16.390625 4.898438 16.59375 4.898438 Z M 16.59375 4.898438 " fill-opacity="1" fill-rule="nonzero"/></g><path fill="#000000" d="M 16.59375 12.324219 C 16.800781 12.324219 16.976562 12.394531 17.121094 12.542969 C 17.265625 12.6875 17.335938 12.863281 17.335938 13.066406 C 17.335938 13.273438 17.410156 13.445312 17.554688 13.589844 C 17.699219 13.738281 17.875 13.808594 18.078125 13.808594 C 18.285156 13.808594 18.460938 13.738281 18.605469 13.589844 C 18.75 13.445312 18.824219 13.273438 18.824219 13.066406 C 18.824219 12.769531 18.765625 12.488281 18.652344 12.214844 C 18.539062 11.941406 18.378906 11.699219 18.171875 11.492188 C 17.960938 11.28125 17.71875 11.121094 17.449219 11.007812 C 17.175781 10.894531 16.890625 10.839844 16.59375 10.839844 C 16.390625 10.839844 16.214844 10.910156 16.070312 11.054688 C 15.925781 11.203125 15.851562 11.375 15.851562 11.582031 C 15.851562 11.785156 15.925781 11.960938 16.070312 12.105469 C 16.214844 12.25 16.390625 12.324219 16.59375 12.324219 Z M 16.59375 12.324219 " fill-opacity="1" fill-rule="nonzero"/></svg>