<svg xmlns="http://www.w3.org/2000/svg" xmlns:xlink="http://www.w3.org/1999/xlink" width="40" zoomAndPan="magnify" viewBox="0 0 30 30.000001" height="40" preserveAspectRatio="xMidYMid meet" version="1.0"><defs><clipPath id="29966c1b0f"><path d="M 4.476562 3.992188 L 25.523438 3.992188 L 25.523438 25.039062 L 4.476562 25.039062 Z M 4.476562 3.992188 " clip-rule="nonzero"/></clipPath></defs><g clip-path="url(#29966c1b0f)"><path fill="#cb2029" d="M 25.523438 21.839844 C 25.523438 23.605469 24.09375 25.039062 22.328125 25.039062 L 7.675781 25.039062 C 5.910156 25.039062 4.476562 23.605469 4.476562 21.839844 L 4.476562 7.1875 C 4.476562 5.421875 5.910156 3.988281 7.675781 3.988281 L 22.328125 3.988281 C 24.09375 3.988281 25.523438 5.421875 25.523438 7.1875 Z M 25.523438 21.839844 " fill-opacity="1" fill-rule="nonzero"/></g><path fill="#ffffff" d="M 22.460938 14.675781 C 22.460938 15.839844 22.460938 17.074219 22.199219 18.203125 C 22.015625 18.996094 21.367188 19.582031 20.585938 19.671875 C 18.738281 19.875 16.863281 19.878906 15 19.875 C 13.136719 19.878906 11.261719 19.875 9.414062 19.671875 C 8.632812 19.582031 7.984375 18.996094 7.800781 18.203125 C 7.542969 17.074219 7.542969 15.839844 7.542969 14.675781 C 7.542969 13.511719 7.542969 12.28125 7.804688 11.148438 C 7.984375 10.355469 8.636719 9.773438 9.417969 9.683594 C 11.265625 9.476562 13.140625 9.476562 15.003906 9.476562 C 16.867188 9.476562 18.738281 9.476562 20.589844 9.683594 C 21.371094 9.773438 22.019531 10.355469 22.203125 11.148438 C 22.460938 12.28125 22.460938 13.511719 22.460938 14.675781 Z M 22.460938 14.675781 " fill-opacity="1" fill-rule="nonzero"/><path fill="#cb2029" d="M 13.429688 11.898438 L 13.429688 17.480469 L 17.765625 14.6875 Z M 13.429688 11.898438 " fill-opacity="1" fill-rule="nonzero"/></svg>