<svg xmlns="http://www.w3.org/2000/svg" xmlns:xlink="http://www.w3.org/1999/xlink" width="512" zoomAndPan="magnify" viewBox="0 0 384 383.999986" height="512" preserveAspectRatio="xMidYMid meet" version="1.0"><defs><clipPath id="5566839464"><path d="M 37 269 L 347 269 L 347 364.949219 L 37 364.949219 Z M 37 269 " clip-rule="nonzero"/></clipPath><clipPath id="6c760f03d6"><path d="M 19.199219 19.199219 L 364.949219 19.199219 L 364.949219 268 L 19.199219 268 Z M 19.199219 19.199219 " clip-rule="nonzero"/></clipPath><clipPath id="98cf278795"><path d="M 51.09375 190.699219 L 53.402344 190.699219 L 53.402344 192.851562 L 51.09375 192.851562 Z M 51.09375 190.699219 " clip-rule="nonzero"/></clipPath><clipPath id="314845cc6e"><path d="M 52.351562 192.824219 C 51.074219 192.375 51.601562 191.550781 51.824219 191.550781 C 52.050781 191.550781 52.648438 192.375 52.5 192.523438 C 52.425781 192.75 51.375 192.824219 51.148438 192.601562 C 51 192.375 51.226562 191.324219 51.523438 191.023438 C 51.824219 190.800781 52.425781 190.648438 52.726562 190.726562 C 53.023438 190.875 53.398438 191.699219 53.398438 191.699219 " clip-rule="nonzero"/></clipPath><clipPath id="5a750157b7"><path d="M 0.09375 0.699219 L 2.402344 0.699219 L 2.402344 2.851562 L 0.09375 2.851562 Z M 0.09375 0.699219 " clip-rule="nonzero"/></clipPath><clipPath id="80ac77d881"><path d="M 1.351562 2.824219 C 0.0742188 2.375 0.601562 1.550781 0.824219 1.550781 C 1.050781 1.550781 1.648438 2.375 1.5 2.523438 C 1.425781 2.75 0.375 2.824219 0.148438 2.601562 C 0 2.375 0.226562 1.324219 0.523438 1.023438 C 0.824219 0.800781 1.425781 0.648438 1.726562 0.726562 C 2.023438 0.875 2.398438 1.699219 2.398438 1.699219 " clip-rule="nonzero"/></clipPath><clipPath id="911bc65fab"><rect x="0" width="3" y="0" height="3"/></clipPath></defs><path fill="#000000" d="M 167.90625 113.378906 C 167.078125 113.9375 166.269531 114.570312 165.476562 115.265625 C 138.730469 211.410156 183.445312 252.546875 200.40625 264.242188 C 209.429688 264.382812 218.445312 264.5625 227.464844 264.804688 C 232.554688 264.949219 237.636719 265.113281 242.726562 265.289062 C 254.03125 256.195312 274.933594 231.476562 260.484375 179.539062 C 260.015625 179.128906 259.539062 178.757812 259.050781 178.429688 C 254.398438 180.976562 244.578125 188.089844 243.253906 203.253906 C 243.253906 203.253906 240.640625 189.679688 253.769531 176.355469 C 237.316406 173.839844 215.53125 201.988281 215.53125 201.988281 C 214.738281 170.457031 251.492188 167.449219 251.492188 167.449219 C 241.035156 158.578125 211.246094 159.6875 211.246094 159.6875 C 235.964844 142.734375 259.566406 165.863281 259.566406 165.863281 C 256.03125 152.199219 244.980469 141.832031 240.085938 137.785156 C 241.242188 142.445312 241.832031 147.605469 241.6875 153.324219 C 241.6875 153.324219 204.757812 105.597656 176.855469 109.859375 C 199.113281 132.449219 194.683594 155.46875 194.683594 155.46875 C 192.445312 129.757812 175.785156 117.691406 167.90625 113.378906 Z M 167.90625 113.378906 " fill-opacity="1" fill-rule="nonzero"/><g clip-path="url(#5566839464)"><path fill="#000000" d="M 197.183594 345.722656 L 279.515625 341.011719 C 284.25 338.222656 288.832031 335.226562 293.257812 332.015625 L 246 325.886719 L 303.9375 323.621094 C 315.121094 314.09375 325.078125 303.167969 333.53125 291.117188 L 260.496094 284.316406 L 342.277344 277.3125 C 343.703125 274.8125 345.066406 272.269531 346.367188 269.695312 L 338.285156 269.695312 C 325.828125 270.628906 313.371094 271.125 300.910156 271.480469 C 288.074219 271.828125 275.246094 271.992188 262.410156 271.984375 C 249.574219 271.984375 236.742188 271.820312 223.90625 271.472656 C 222.296875 271.429688 220.691406 271.378906 219.082031 271.328125 C 200.113281 271.773438 181.140625 271.984375 162.175781 271.984375 C 140.421875 271.992188 118.664062 271.71875 96.902344 271.128906 C 84.363281 270.773438 71.828125 270.328125 59.300781 269.699219 L 37.609375 269.699219 C 40.183594 274.804688 43.003906 279.761719 46.058594 284.558594 L 123.480469 291.191406 L 55.183594 297.535156 C 64.910156 310.132812 76.34375 321.34375 89.125 330.832031 L 137.984375 332.75 L 99.210938 337.78125 C 105.578125 341.839844 112.230469 345.5 119.128906 348.714844 L 186.808594 352.585938 L 154.519531 360.710938 C 166.585938 363.378906 179.128906 364.792969 192 364.792969 C 209.679688 364.792969 226.738281 362.132812 242.804688 357.195312 Z M 197.183594 345.722656 " fill-opacity="1" fill-rule="nonzero"/></g><g clip-path="url(#6c760f03d6)"><path fill="#000000" d="M 301.800781 227.46875 L 361.578125 225.308594 C 363.683594 214.527344 364.792969 203.394531 364.792969 192 C 364.792969 148.847656 348.96875 109.386719 322.8125 79.105469 L 265.394531 88.625 L 311.71875 67.40625 C 280.660156 37.554688 238.476562 19.199219 192 19.199219 C 143.40625 19.199219 99.515625 39.261719 68.121094 71.539062 L 127.863281 69.550781 L 57.652344 83.332031 C 39.617188 105.597656 27.003906 132.433594 21.824219 161.839844 L 71.40625 166.4375 L 20.15625 173.761719 C 19.527344 179.753906 19.199219 185.835938 19.199219 192 C 19.199219 209.835938 21.910156 227.042969 26.929688 243.230469 L 96.585938 247.308594 L 31.0625 255.039062 C 32.167969 257.863281 33.347656 260.65625 34.601562 263.410156 C 37.507812 261.722656 40.671875 259.960938 43.609375 258.5 C 52.257812 254.175781 93.195312 267.652344 114.304688 260.023438 C 135.410156 252.390625 164.125 263.9375 164.125 263.9375 C 125.6875 219.367188 146.667969 142.179688 154.445312 118.40625 L 154.398438 118.40625 C 154.398438 118.40625 127 92.625 82.953125 153.324219 C 82.953125 153.324219 73.820312 102.289062 139.359375 99.871094 C 139.359375 99.871094 104.710938 76.773438 75.433594 92.351562 C 75.433594 92.351562 115.988281 52.0625 155.742188 95.039062 C 155.742188 95.039062 138.550781 75.699219 144.464844 58.507812 C 144.464844 58.507812 149.570312 79.191406 158.429688 86.171875 C 158.429688 86.171875 160.574219 46.152344 204.089844 41.320312 C 204.089844 41.320312 174.8125 62.003906 167.023438 92.085938 C 167.023438 92.085938 207.042969 52.871094 248.945312 81.605469 C 248.945312 81.605469 198.449219 79.726562 180.71875 94.765625 C 180.71875 94.765625 229.042969 98.730469 239.660156 136.1875 C 263.4375 139.992188 264.640625 162.378906 264.640625 162.378906 C 269.867188 158.257812 272.875 146.058594 272.875 146.058594 C 276.363281 156.199219 266.222656 167.605469 266.222656 167.605469 C 289.671875 142.253906 313.59375 166.019531 313.59375 166.019531 C 296.324219 156.832031 275.882812 170.457031 275.882812 170.457031 C 314.542969 171.882812 309.152344 201.988281 309.152344 201.988281 C 283.171875 166.183594 267.015625 181.394531 267.015625 181.394531 L 266.984375 181.394531 C 271.507812 195.214844 283.59375 239.644531 262.230469 266.089844 C 276.390625 256.398438 300.960938 265.105469 313.679688 259.511719 C 323.558594 255.160156 340.34375 263.710938 347.339844 267.742188 C 351.84375 258.519531 355.554688 248.839844 358.375 238.78125 Z M 301.800781 227.46875 " fill-opacity="1" fill-rule="nonzero"/></g><g clip-path="url(#98cf278795)"><g clip-path="url(#314845cc6e)"><g transform="matrix(1, 0, 0, 1, 51, 190)"><g clip-path="url(#911bc65fab)"><g clip-path="url(#5a750157b7)"><g clip-path="url(#80ac77d881)"><rect x="-135.48" width="552.96" fill="#000000" height="552.959979" y="-274.479997" fill-opacity="1"/></g></g></g></g></g></g></svg>