<svg xmlns="http://www.w3.org/2000/svg" xmlns:xlink="http://www.w3.org/1999/xlink" width="40" zoomAndPan="magnify" viewBox="0 0 30 30.000001" height="40" preserveAspectRatio="xMidYMid meet" version="1.0"><defs><clipPath id="3eec95114f"><path d="M 3.789062 3.34375 L 26.289062 3.34375 L 26.289062 25.84375 L 3.789062 25.84375 Z M 3.789062 3.34375 " clip-rule="nonzero"/></clipPath></defs><g clip-path="url(#3eec95114f)"><path fill="#000000" d="M 26.210938 14.558594 C 26.210938 8.363281 21.191406 3.34375 15 3.34375 C 8.808594 3.34375 3.789062 8.363281 3.789062 14.558594 C 3.789062 19.816406 7.40625 24.226562 12.289062 25.4375 L 12.289062 17.984375 L 9.976562 17.984375 L 9.976562 14.558594 L 12.289062 14.558594 L 12.289062 13.082031 C 12.289062 9.265625 14.015625 7.496094 17.765625 7.496094 C 18.472656 7.496094 19.699219 7.632812 20.199219 7.773438 L 20.199219 10.878906 C 19.9375 10.851562 19.476562 10.835938 18.90625 10.835938 C 17.066406 10.835938 16.355469 11.535156 16.355469 13.34375 L 16.355469 14.554688 L 20.019531 14.554688 L 19.390625 17.984375 L 16.355469 17.984375 L 16.355469 25.6875 C 21.910156 25.015625 26.210938 20.289062 26.210938 14.554688 Z M 26.210938 14.558594 " fill-opacity="1" fill-rule="nonzero"/></g></svg>