<svg xmlns="http://www.w3.org/2000/svg" xmlns:xlink="http://www.w3.org/1999/xlink" width="40" zoomAndPan="magnify" viewBox="0 0 30 30.000001" height="40" preserveAspectRatio="xMidYMid meet" version="1.0"><defs><clipPath id="3f85f2610a"><path d="M 4.003906 3.519531 L 25.777344 3.519531 L 25.777344 25.292969 L 4.003906 25.292969 Z M 4.003906 3.519531 " clip-rule="nonzero"/></clipPath></defs><g clip-path="url(#3f85f2610a)"><path fill="#ffffff" d="M 15 3.519531 C 8.925781 3.519531 4.003906 8.441406 4.003906 14.515625 C 4.003906 20.585938 8.925781 25.511719 15 25.511719 C 21.070312 25.511719 25.992188 20.585938 25.992188 14.515625 C 25.992188 8.441406 21.070312 3.519531 15 3.519531 Z M 15 24.675781 C 9.386719 24.675781 4.835938 20.128906 4.835938 14.515625 C 4.835938 8.902344 9.386719 4.351562 15 4.351562 C 20.609375 4.351562 25.160156 8.902344 25.160156 14.515625 C 25.160156 20.128906 20.609375 24.675781 15 24.675781 Z M 15 24.675781 " fill-opacity="1" fill-rule="nonzero"/></g><path fill="#ffffff" d="M 13.707031 19.90625 C 13.433594 19.929688 13.210938 19.960938 12.992188 19.972656 C 11.738281 20.03125 10.808594 19.535156 10.246094 18.382812 C 10.066406 18.015625 9.835938 17.667969 9.597656 17.335938 C 9.453125 17.136719 9.25 16.976562 9.066406 16.808594 L 9.0625 16.808594 C 8.949219 16.707031 9 16.515625 9.148438 16.492188 C 9.328125 16.460938 9.492188 16.492188 9.652344 16.535156 C 10.160156 16.664062 10.480469 17.019531 10.738281 17.449219 C 11.324219 18.417969 12.328125 18.820312 13.414062 18.53125 C 13.597656 18.480469 13.679688 18.402344 13.71875 18.203125 C 13.765625 17.96875 13.832031 17.734375 13.898438 17.5 C 13.941406 17.355469 13.925781 17.214844 13.847656 17.082031 C 13.769531 16.949219 13.65625 16.867188 13.507812 16.832031 L 13.503906 16.832031 C 12.375 16.5625 11.402344 16.058594 10.773438 15.027344 C 10.441406 14.476562 10.273438 13.871094 10.28125 13.238281 C 10.292969 12.523438 10.355469 11.804688 10.4375 11.089844 C 10.496094 10.589844 10.726562 10.144531 11.089844 9.78125 C 11.214844 9.65625 11.226562 9.550781 11.164062 9.386719 C 10.917969 8.71875 10.960938 8.050781 11.179688 7.382812 C 11.242188 7.195312 11.332031 7.167969 11.511719 7.222656 C 12.070312 7.398438 12.488281 7.761719 12.851562 8.199219 L 12.855469 8.203125 C 13.0625 8.453125 13.324219 8.527344 13.632812 8.425781 C 14.789062 8.046875 16.550781 8.042969 17.644531 8.417969 C 17.953125 8.523438 18.214844 8.449219 18.425781 8.199219 L 18.429688 8.195312 C 18.796875 7.757812 19.214844 7.398438 19.773438 7.222656 C 19.960938 7.164062 20.039062 7.207031 20.097656 7.390625 C 20.316406 8.058594 20.351562 8.722656 20.117188 9.398438 C 20.085938 9.492188 20.085938 9.65625 20.144531 9.71875 C 20.644531 10.226562 20.863281 10.855469 20.921875 11.539062 C 20.972656 12.199219 21.03125 12.871094 20.972656 13.523438 C 20.8125 15.226562 19.777344 16.21875 18.199219 16.714844 C 18.066406 16.753906 17.929688 16.789062 17.789062 16.824219 C 17.636719 16.859375 17.519531 16.949219 17.445312 17.085938 C 17.367188 17.226562 17.355469 17.371094 17.40625 17.519531 C 17.621094 18.140625 17.589844 18.804688 17.585938 19.464844 C 17.585938 19.617188 17.585938 19.769531 17.585938 19.921875 C 17.582031 20.175781 17.535156 20.417969 17.4375 20.652344 C 17.339844 20.886719 17.203125 21.09375 17.023438 21.273438 C 16.84375 21.453125 16.636719 21.589844 16.398438 21.6875 C 16.164062 21.785156 15.921875 21.832031 15.667969 21.832031 L 15.625 21.832031 C 15.371094 21.832031 15.125 21.785156 14.890625 21.6875 C 14.65625 21.589844 14.449219 21.449219 14.269531 21.269531 C 14.089844 21.089844 13.953125 20.882812 13.855469 20.648438 C 13.757812 20.414062 13.707031 20.171875 13.707031 19.914062 Z M 13.707031 19.90625 " fill-opacity="1" fill-rule="nonzero"/></svg>