<svg xmlns="http://www.w3.org/2000/svg" viewBox="0 0 24 24" width="28" height="28">
  <path fill="#4285F4" d="M23.49 12.27c0-.79-.07-1.54-.21-2.27H12v4.3h6.48c-.28 1.48-1.13 2.73-2.4 3.57v2.96h3.87c2.26-2.08 3.54-5.14 3.54-8.56z"/>
  <path fill="#34A853" d="M12 24c3.24 0 5.96-1.07 7.95-2.9l-3.87-2.96c-1.07.72-2.43 1.15-4.08 1.15-3.14 0-5.8-2.12-6.75-4.97H1.29v3.13A12 12 0 0012 24z"/>
  <path fill="#FBBC05" d="M5.25 14.32a7.19 7.19 0 010-4.64V6.55H1.29a12 12 0 000 10.9l3.96-3.13z"/>
  <path fill="#EA4335" d="M12 4.75c1.76 0 3.34.6 4.59 1.8l3.42-3.42C17.95 1.07 15.23 0 12 0 7.29 0 3.29 2.69 1.29 6.55l3.96 3.13c.95-2.85 3.61-4.93 6.75-4.93z"/>
</svg>
