<svg xmlns="http://www.w3.org/2000/svg" xmlns:xlink="http://www.w3.org/1999/xlink" width="40" zoomAndPan="magnify" viewBox="0 0 30 30.000001" height="40" preserveAspectRatio="xMidYMid meet" version="1.0"><defs><clipPath id="7a962a95dd"><path d="M 4.910156 4.425781 L 25.234375 4.425781 L 25.234375 24.75 L 4.910156 24.75 Z M 4.910156 4.425781 " clip-rule="nonzero"/></clipPath></defs><g clip-path="url(#7a962a95dd)"><path fill="#000000" d="M 10.863281 4.496094 C 9.78125 4.546875 9.042969 4.722656 8.398438 4.972656 C 7.730469 5.234375 7.164062 5.582031 6.601562 6.148438 C 6.035156 6.714844 5.691406 7.28125 5.433594 7.949219 C 5.183594 8.597656 5.015625 9.335938 4.964844 10.417969 C 4.917969 11.5 4.90625 11.84375 4.914062 14.605469 C 4.917969 17.363281 4.929688 17.707031 4.980469 18.792969 C 5.03125 19.871094 5.207031 20.609375 5.457031 21.257812 C 5.71875 21.925781 6.066406 22.488281 6.632812 23.054688 C 7.199219 23.617188 7.765625 23.960938 8.433594 24.21875 C 9.082031 24.46875 9.820312 24.640625 10.898438 24.6875 C 11.984375 24.734375 12.328125 24.746094 15.085938 24.742188 C 17.847656 24.734375 18.191406 24.722656 19.273438 24.671875 C 20.355469 24.621094 21.09375 24.445312 21.738281 24.195312 C 22.40625 23.933594 22.972656 23.585938 23.535156 23.019531 C 24.097656 22.453125 24.445312 21.886719 24.703125 21.21875 C 24.953125 20.574219 25.125 19.832031 25.171875 18.753906 C 25.21875 17.671875 25.230469 17.324219 25.222656 14.566406 C 25.21875 11.808594 25.207031 11.460938 25.15625 10.378906 C 25.105469 9.296875 24.929688 8.558594 24.679688 7.914062 C 24.417969 7.246094 24.070312 6.679688 23.503906 6.117188 C 22.9375 5.554688 22.371094 5.207031 21.703125 4.949219 C 21.054688 4.699219 20.316406 4.527344 19.238281 4.480469 C 18.152344 4.433594 17.804688 4.421875 15.046875 4.429688 C 12.289062 4.433594 11.945312 4.445312 10.863281 4.496094 M 10.980469 22.859375 C 9.992188 22.816406 9.453125 22.652344 9.09375 22.511719 C 8.617188 22.328125 8.28125 22.109375 7.921875 21.753906 C 7.566406 21.402344 7.347656 21.0625 7.160156 20.589844 C 7.023438 20.230469 6.855469 19.695312 6.808594 18.703125 C 6.757812 17.632812 6.746094 17.3125 6.742188 14.601562 C 6.738281 11.890625 6.746094 11.566406 6.792969 10.496094 C 6.835938 9.507812 7 8.96875 7.140625 8.609375 C 7.324219 8.136719 7.542969 7.796875 7.894531 7.441406 C 8.25 7.085938 8.589844 6.863281 9.0625 6.679688 C 9.421875 6.539062 9.957031 6.371094 10.949219 6.324219 C 12.019531 6.273438 12.339844 6.265625 15.050781 6.257812 C 17.761719 6.253906 18.085938 6.261719 19.15625 6.308594 C 20.144531 6.351562 20.683594 6.515625 21.042969 6.65625 C 21.515625 6.839844 21.855469 7.058594 22.210938 7.414062 C 22.566406 7.769531 22.789062 8.105469 22.972656 8.578125 C 23.113281 8.9375 23.28125 9.476562 23.328125 10.464844 C 23.378906 11.535156 23.390625 11.855469 23.394531 14.566406 C 23.398438 17.28125 23.390625 17.601562 23.34375 18.671875 C 23.300781 19.660156 23.132812 20.199219 22.996094 20.558594 C 22.8125 21.03125 22.59375 21.371094 22.238281 21.726562 C 21.882812 22.082031 21.546875 22.304688 21.070312 22.488281 C 20.714844 22.628906 20.175781 22.796875 19.1875 22.84375 C 18.117188 22.894531 17.796875 22.90625 15.082031 22.910156 C 12.371094 22.914062 12.050781 22.90625 10.980469 22.859375 M 19.261719 9.15625 C 19.261719 9.828125 19.808594 10.371094 20.480469 10.371094 C 21.152344 10.371094 21.699219 9.824219 21.699219 9.152344 C 21.695312 8.476562 21.148438 7.933594 20.476562 7.933594 C 19.804688 7.933594 19.257812 8.480469 19.257812 9.15625 M 9.851562 14.59375 C 9.859375 17.476562 12.199219 19.804688 15.078125 19.800781 C 17.957031 19.792969 20.289062 17.453125 20.28125 14.574219 C 20.277344 11.695312 17.9375 9.363281 15.058594 9.367188 C 12.179688 9.375 9.847656 11.714844 9.851562 14.59375 M 11.683594 14.589844 C 11.679688 12.722656 13.191406 11.203125 15.0625 11.199219 C 16.929688 11.195312 18.449219 12.707031 18.453125 14.578125 C 18.457031 16.449219 16.945312 17.96875 15.074219 17.96875 C 13.203125 17.972656 11.6875 16.460938 11.683594 14.589844 " fill-opacity="1" fill-rule="nonzero"/></g></svg>