<svg xmlns="http://www.w3.org/2000/svg" xmlns:xlink="http://www.w3.org/1999/xlink" width="40" zoomAndPan="magnify" viewBox="0 0 30 30.000001" height="40" preserveAspectRatio="xMidYMid meet" version="1.0"><defs><clipPath id="3c9edbc6bd"><path d="M 2.335938 1.851562 L 27 1.851562 L 27 27.253906 L 2.335938 27.253906 Z M 2.335938 1.851562 " clip-rule="nonzero"/></clipPath></defs><g clip-path="url(#3c9edbc6bd)"><path fill="#ffffff" d="M 19.957031 21.691406 C 20.332031 22.308594 20.445312 23.03125 20.273438 23.734375 C 20.105469 24.4375 19.671875 25.03125 19.054688 25.40625 L 16.8125 26.769531 C 16.382812 27.03125 15.902344 27.160156 15.417969 27.160156 C 14.980469 27.160156 14.539062 27.054688 14.132812 26.84375 C 9.433594 24.40625 6.746094 20.785156 5.566406 18.84375 C 2.949219 14.542969 2.398438 10.308594 2.398438 7.511719 C 2.398438 6.566406 2.882812 5.707031 3.695312 5.210938 L 5.933594 3.851562 C 6.550781 3.472656 7.277344 3.359375 7.980469 3.53125 C 8.679688 3.703125 9.273438 4.136719 9.648438 4.753906 L 11.054688 7.0625 C 11.832031 8.335938 11.425781 10.003906 10.152344 10.777344 L 8.992188 11.484375 C 8.644531 11.695312 8.472656 12.121094 8.589844 12.492188 C 8.972656 13.734375 9.511719 14.921875 10.1875 16.03125 C 10.859375 17.140625 11.667969 18.160156 12.59375 19.070312 C 12.878906 19.351562 13.324219 19.398438 13.679688 19.183594 L 14.835938 18.476562 C 16.109375 17.699219 17.777344 18.105469 18.554688 19.378906 Z M 14.625 10.859375 C 16.589844 11.160156 17.941406 13.007812 17.640625 14.96875 C 17.5625 15.460938 17.898438 15.921875 18.390625 15.996094 C 18.4375 16.003906 18.484375 16.007812 18.53125 16.007812 C 18.96875 16.007812 19.351562 15.691406 19.421875 15.246094 C 19.875 12.296875 17.847656 9.53125 14.902344 9.074219 C 14.410156 9 13.949219 9.335938 13.875 9.828125 C 13.796875 10.320312 14.136719 10.78125 14.625 10.855469 Z M 15.449219 5.511719 C 14.964844 5.4375 14.5 5.773438 14.421875 6.265625 C 14.347656 6.757812 14.683594 7.21875 15.175781 7.296875 C 17.078125 7.589844 18.753906 8.605469 19.890625 10.160156 C 21.03125 11.714844 21.496094 13.617188 21.203125 15.519531 C 21.125 16.011719 21.460938 16.472656 21.953125 16.546875 C 22 16.554688 22.046875 16.558594 22.09375 16.558594 C 22.53125 16.558594 22.914062 16.242188 22.984375 15.796875 C 23.351562 13.414062 22.769531 11.035156 21.347656 9.09375 C 19.921875 7.152344 17.828125 5.882812 15.449219 5.515625 Z M 16 1.949219 C 15.511719 1.878906 15.046875 2.210938 14.972656 2.703125 C 14.898438 3.195312 15.234375 3.65625 15.726562 3.734375 C 21.617188 4.640625 25.671875 10.175781 24.765625 16.070312 C 24.6875 16.5625 25.023438 17.023438 25.515625 17.097656 C 25.5625 17.105469 25.609375 17.109375 25.65625 17.109375 C 26.09375 17.109375 26.476562 16.789062 26.546875 16.34375 C 27.605469 9.46875 22.875 3.011719 16 1.953125 Z M 16 1.949219 " fill-opacity="1" fill-rule="nonzero"/></g></svg>