<svg xmlns="http://www.w3.org/2000/svg" xmlns:xlink="http://www.w3.org/1999/xlink" width="240" zoomAndPan="magnify" viewBox="0 0 180 89.999999" height="120" preserveAspectRatio="xMidYMid meet" version="1.0"><defs><clipPath id="187235b271"><path d="M 31 21 L 157.691406 21 L 157.691406 69 L 31 69 Z M 31 21 " clip-rule="nonzero"/></clipPath><clipPath id="9a2e17d109"><path d="M 124 55 L 142 55 L 142 71.945312 L 124 71.945312 Z M 124 55 " clip-rule="nonzero"/></clipPath><clipPath id="e0fbb34b09"><path d="M 21.941406 18 L 118 18 L 118 54 L 21.941406 54 Z M 21.941406 18 " clip-rule="nonzero"/></clipPath><clipPath id="f00a568703"><path d="M 36 55 L 54 55 L 54 71.945312 L 36 71.945312 Z M 36 55 " clip-rule="nonzero"/></clipPath><clipPath id="5ed1f82e8d"><path d="M 71.289062 24.738281 L 90.039062 24.738281 L 90.039062 44.988281 L 71.289062 44.988281 Z M 71.289062 24.738281 " clip-rule="nonzero"/></clipPath><clipPath id="cc0f3f52ce"><path d="M 45 24.738281 L 53.179688 24.738281 L 53.179688 44.988281 L 45 44.988281 Z M 45 24.738281 " clip-rule="nonzero"/></clipPath><clipPath id="03a7e0ac57"><path d="M 36.679688 24.738281 L 46 24.738281 L 46 44.988281 L 36.679688 44.988281 Z M 36.679688 24.738281 " clip-rule="nonzero"/></clipPath><clipPath id="fde12d1be2"><path d="M 13.179688 72.054688 L 167.679688 72.054688 L 167.679688 87.804688 L 13.179688 87.804688 Z M 13.179688 72.054688 " clip-rule="nonzero"/></clipPath></defs><g clip-path="url(#187235b271)"><path fill="#231f20" d="M 157.542969 59.203125 C 157.425781 57.105469 155.792969 56.492188 155.792969 56.492188 C 155.792969 56.492188 151.933594 54.945312 151.625 51.796875 L 155.792969 51.796875 L 155.835938 51.839844 L 156.992188 50.683594 L 156.992188 43.769531 L 155.636719 42.289062 C 155.636719 42.289062 151.996094 29.597656 149.617188 25.371094 C 147.25 21.144531 143.917969 21.359375 143.917969 21.359375 L 120.65625 21.359375 L 120.65625 54.453125 L 56.371094 54.453125 C 56.371094 54.453125 54.027344 50.75 50.570312 50.683594 C 47.117188 50.625 39.035156 50.683594 39.035156 50.683594 C 31.691406 54.824219 31.753906 62.972656 31.691406 65.8125 C 31.628906 68.648438 33.792969 67.90625 33.792969 67.90625 C 33.792969 67.90625 33.792969 67.90625 34.53125 62.105469 C 35.273438 56.304688 39.898438 54.085938 39.898438 54.085938 L 49.707031 54.085938 C 54.703125 55.382812 55.9375 63.773438 56.183594 65.871094 C 56.433594 67.96875 58.464844 68.589844 58.464844 68.589844 L 119.789062 68.589844 C 121.890625 68.34375 121.828125 67.351562 123.308594 61.308594 C 124.785156 55.253906 127.191406 54.15625 127.191406 54.15625 C 127.191406 54.15625 135.445312 53.503906 136.925781 54.15625 C 143.542969 57.121094 143.589844 67.789062 143.589844 67.789062 L 157.542969 67.789062 C 157.542969 67.789062 157.671875 61.308594 157.542969 59.203125 Z M 154.925781 43.460938 L 155.792969 44.386719 L 155.792969 50.355469 L 154.140625 50.683594 L 154.960938 49.527344 L 154.960938 44.800781 Z M 117.820312 65.566406 L 87.339844 65.566406 L 89.804688 63.648438 L 114.980469 63.648438 L 115.71875 59.855469 L 56.617188 59.855469 L 58.464844 58.402344 L 119.050781 58.402344 Z M 151.011719 40.621094 C 149.773438 41.976562 140.273438 38.523438 133.242188 36.175781 C 126.210938 33.828125 126.578125 31.421875 126.578125 31.421875 L 126.578125 23.582031 C 126.578125 23.582031 142.804688 22.65625 146.382812 24.078125 C 149.957031 25.492188 152.246094 39.265625 151.011719 40.621094 Z M 151.011719 40.621094 " fill-opacity="1" fill-rule="nonzero"/></g><g clip-path="url(#9a2e17d109)"><path fill="#231f20" d="M 132.996094 55.410156 C 128.441406 55.410156 124.757812 59.097656 124.757812 63.648438 C 124.757812 68.203125 128.441406 71.894531 132.996094 71.894531 C 137.542969 71.894531 141.230469 68.203125 141.230469 63.648438 C 141.230469 59.097656 137.542969 55.410156 132.996094 55.410156 Z M 132.996094 67.449219 C 130.902344 67.449219 129.199219 65.742188 129.199219 63.648438 C 129.199219 61.550781 130.902344 59.855469 132.996094 59.855469 C 135.089844 59.855469 136.785156 61.550781 136.785156 63.648438 C 136.785156 65.742188 135.089844 67.449219 132.996094 67.449219 Z M 132.996094 67.449219 " fill-opacity="1" fill-rule="nonzero"/></g><g clip-path="url(#e0fbb34b09)"><path fill="#231f20" d="M 38.789062 48.644531 L 53.964844 48.644531 L 58.59375 53.277344 L 117.820312 53.089844 L 117.820312 18.085938 L 21.949219 18.085938 L 21.949219 53.089844 L 33.234375 53.089844 Z M 38.789062 48.644531 " fill-opacity="1" fill-rule="nonzero"/></g><g clip-path="url(#f00a568703)"><path fill="#231f20" d="M 44.808594 55.410156 C 40.261719 55.410156 36.578125 59.097656 36.578125 63.648438 C 36.578125 68.203125 40.261719 71.894531 44.808594 71.894531 C 49.363281 71.894531 53.050781 68.203125 53.050781 63.648438 C 53.050781 59.097656 49.363281 55.410156 44.808594 55.410156 Z M 44.808594 67.449219 C 42.714844 67.449219 41.019531 65.742188 41.019531 63.648438 C 41.019531 61.550781 42.714844 59.855469 44.808594 59.855469 C 46.902344 59.855469 48.605469 61.550781 48.605469 63.648438 C 48.605469 65.742188 46.902344 67.449219 44.808594 67.449219 Z M 44.808594 67.449219 " fill-opacity="1" fill-rule="nonzero"/></g><g clip-path="url(#5ed1f82e8d)"><path fill="#0ea5e9" d="M 90.347656 31.109375 C 90.316406 31.03125 90.226562 30.992188 90.144531 31.023438 L 89.046875 31.457031 L 89.414062 30.707031 C 89.453125 30.628906 89.421875 30.535156 89.34375 30.5 C 89.265625 30.460938 89.175781 30.492188 89.136719 30.570312 L 88.621094 31.625 L 88.179688 31.800781 L 88.796875 30.363281 C 88.832031 30.28125 88.792969 30.191406 88.714844 30.15625 C 88.636719 30.125 88.546875 30.160156 88.511719 30.238281 L 87.773438 31.957031 L 87.289062 32.148438 L 87.679688 31.246094 C 87.710938 31.167969 87.675781 31.078125 87.597656 31.042969 C 87.519531 31.007812 87.429688 31.042969 87.394531 31.121094 L 86.882812 32.308594 L 86.019531 32.648438 L 86.597656 31.300781 L 87.914062 30.582031 C 87.988281 30.542969 88.015625 30.449219 87.976562 30.371094 C 87.933594 30.296875 87.839844 30.269531 87.765625 30.3125 L 86.796875 30.839844 L 87.320312 29.628906 C 87.351562 29.550781 87.316406 29.460938 87.238281 29.425781 C 87.160156 29.394531 87.070312 29.429688 87.035156 29.507812 L 85.613281 32.808594 L 84.730469 33.15625 L 85.082031 32.578125 C 85.125 32.503906 85.101562 32.410156 85.027344 32.363281 C 84.953125 32.320312 84.859375 32.34375 84.816406 32.417969 L 84.257812 33.34375 L 83.363281 33.695312 L 85.3125 30.960938 C 85.359375 30.890625 85.34375 30.792969 85.273438 30.746094 C 85.203125 30.695312 85.109375 30.710938 85.058594 30.78125 L 82.835938 33.90625 L 81.777344 34.320312 L 85.160156 29.660156 L 85.355469 29.4375 C 85.355469 29.4375 85.359375 29.425781 85.363281 29.421875 L 86.625 28.8125 C 86.675781 28.785156 86.707031 28.734375 86.710938 28.679688 L 86.757812 27.691406 C 86.761719 27.621094 86.546875 27.449219 86.476562 27.46875 L 85.523438 27.734375 C 85.46875 27.75 85.429688 27.792969 85.417969 27.847656 L 85.105469 29.214844 C 85.105469 29.214844 85.097656 29.222656 85.09375 29.226562 L 84.917969 29.46875 L 81.140625 33.8125 L 81.308594 32.691406 L 83.851562 29.820312 C 83.90625 29.753906 83.902344 29.65625 83.835938 29.601562 C 83.773438 29.542969 83.675781 29.550781 83.617188 29.613281 L 81.394531 32.128906 L 81.535156 31.175781 L 82.308594 30.425781 C 82.371094 30.367188 82.371094 30.269531 82.3125 30.207031 C 82.253906 30.144531 82.15625 30.144531 82.09375 30.203125 L 81.609375 30.671875 L 81.75 29.734375 L 84.644531 27.605469 C 84.714844 27.554688 84.730469 27.457031 84.679688 27.390625 C 84.628906 27.320312 84.53125 27.304688 84.460938 27.355469 L 83.398438 28.136719 L 83.695312 27.074219 C 83.71875 26.992188 83.671875 26.90625 83.589844 26.886719 C 83.507812 26.863281 83.421875 26.910156 83.398438 26.992188 L 82.996094 28.433594 L 81.816406 29.300781 L 81.953125 28.382812 L 82.992188 27.621094 C 83.058594 27.570312 83.074219 27.472656 83.023438 27.402344 C 82.972656 27.332031 82.878906 27.320312 82.808594 27.371094 L 82.015625 27.949219 L 82.09375 27.4375 L 83.601562 26.328125 C 83.671875 26.277344 83.6875 26.179688 83.636719 26.113281 C 83.585938 26.042969 83.488281 26.027344 83.417969 26.078125 L 82.15625 27.007812 L 82.226562 26.53125 L 83.136719 25.792969 C 83.203125 25.738281 83.214844 25.640625 83.160156 25.574219 C 83.105469 25.507812 83.011719 25.5 82.941406 25.550781 L 82.292969 26.078125 L 82.46875 24.910156 C 82.480469 24.828125 82.421875 24.75 82.339844 24.734375 C 82.253906 24.722656 82.175781 24.78125 82.164062 24.867188 L 81.988281 26.035156 L 81.523438 25.339844 C 81.472656 25.269531 81.378906 25.25 81.308594 25.300781 C 81.234375 25.347656 81.21875 25.441406 81.265625 25.511719 L 81.921875 26.484375 L 81.851562 26.960938 L 80.914062 25.703125 C 80.863281 25.636719 80.765625 25.621094 80.699219 25.671875 C 80.628906 25.726562 80.613281 25.820312 80.667969 25.890625 L 81.785156 27.390625 L 81.710938 27.902344 L 81.121094 27.117188 C 81.070312 27.046875 80.976562 27.03125 80.90625 27.085938 C 80.835938 27.136719 80.824219 27.230469 80.875 27.300781 L 81.644531 28.335938 L 81.507812 29.253906 L 80.632812 28.078125 L 80.667969 26.582031 C 80.667969 26.496094 80.601562 26.425781 80.515625 26.421875 C 80.429688 26.421875 80.359375 26.488281 80.359375 26.574219 L 80.332031 27.675781 L 79.546875 26.621094 C 79.496094 26.550781 79.398438 26.535156 79.328125 26.589844 C 79.257812 26.640625 79.246094 26.734375 79.296875 26.804688 L 81.445312 29.683594 L 81.304688 30.625 L 80.980469 30.03125 C 80.9375 29.957031 80.84375 29.929688 80.769531 29.972656 C 80.695312 30.011719 80.667969 30.109375 80.707031 30.183594 L 81.230469 31.128906 L 81.089844 32.078125 L 79.695312 29.023438 C 79.660156 28.945312 79.566406 28.910156 79.488281 28.945312 C 79.410156 28.980469 79.378906 29.074219 79.414062 29.152344 L 81.007812 32.640625 L 80.839844 33.761719 L 78.492188 28.503906 L 78.398438 28.222656 C 78.398438 28.222656 78.390625 28.214844 78.390625 28.210938 L 78.488281 26.8125 C 78.492188 26.753906 78.46875 26.699219 78.417969 26.667969 L 77.585938 26.136719 C 77.527344 26.097656 77.269531 26.199219 77.25 26.265625 L 77.007812 27.226562 C 76.992188 27.28125 77.011719 27.339844 77.050781 27.375 L 78.078125 28.328125 C 78.078125 28.328125 78.082031 28.339844 78.082031 28.34375 L 78.203125 28.617188 L 80.082031 34.0625 L 79.191406 33.355469 L 77.976562 29.71875 C 77.949219 29.636719 77.859375 29.59375 77.777344 29.621094 C 77.699219 29.648438 77.652344 29.734375 77.679688 29.816406 L 78.746094 33.003906 L 77.992188 32.40625 L 77.730469 31.359375 C 77.707031 31.273438 77.625 31.226562 77.542969 31.246094 C 77.457031 31.265625 77.40625 31.351562 77.429688 31.433594 L 77.59375 32.085938 L 76.851562 31.496094 L 76.457031 27.925781 C 76.445312 27.839844 76.371094 27.78125 76.285156 27.789062 C 76.199219 27.800781 76.140625 27.875 76.148438 27.960938 L 76.292969 29.269531 L 75.523438 28.480469 C 75.464844 28.421875 75.363281 28.417969 75.304688 28.480469 C 75.242188 28.539062 75.242188 28.636719 75.300781 28.699219 L 76.347656 29.769531 L 76.507812 31.226562 L 75.78125 30.648438 L 75.640625 29.363281 C 75.628906 29.28125 75.554688 29.21875 75.46875 29.226562 C 75.382812 29.238281 75.324219 29.316406 75.332031 29.398438 L 75.441406 30.375 L 75.035156 30.050781 L 74.828125 28.191406 C 74.820312 28.105469 74.742188 28.046875 74.660156 28.054688 C 74.574219 28.0625 74.511719 28.140625 74.523438 28.222656 L 74.695312 29.78125 L 74.320312 29.484375 L 74.136719 28.324219 C 74.121094 28.242188 74.042969 28.183594 73.957031 28.195312 C 73.875 28.210938 73.816406 28.289062 73.832031 28.375 L 73.960938 29.199219 L 73.039062 28.464844 C 72.972656 28.410156 72.875 28.421875 72.820312 28.488281 C 72.769531 28.554688 72.777344 28.652344 72.847656 28.707031 L 73.769531 29.441406 L 72.933594 29.5 C 72.851562 29.503906 72.785156 29.578125 72.792969 29.664062 C 72.796875 29.75 72.871094 29.8125 72.957031 29.808594 L 74.125 29.726562 L 74.5 30.023438 L 72.945312 30.207031 C 72.859375 30.21875 72.800781 30.292969 72.808594 30.378906 C 72.820312 30.464844 72.898438 30.523438 72.980469 30.515625 L 74.84375 30.296875 L 75.246094 30.617188 L 74.273438 30.734375 C 74.1875 30.742188 74.125 30.820312 74.136719 30.90625 C 74.144531 30.988281 74.222656 31.050781 74.308594 31.039062 L 75.589844 30.890625 L 76.316406 31.46875 L 74.859375 31.640625 L 73.582031 30.859375 C 73.507812 30.816406 73.414062 30.839844 73.367188 30.914062 C 73.324219 30.984375 73.347656 31.082031 73.421875 31.125 L 74.363281 31.699219 L 73.054688 31.851562 C 72.96875 31.863281 72.90625 31.9375 72.917969 32.023438 C 72.925781 32.109375 73.003906 32.167969 73.089844 32.160156 L 76.65625 31.738281 L 77.398438 32.328125 L 76.722656 32.316406 C 76.636719 32.3125 76.566406 32.382812 76.566406 32.46875 C 76.5625 32.554688 76.632812 32.625 76.71875 32.625 L 77.796875 32.648438 L 78.550781 33.246094 L 75.207031 32.925781 C 75.121094 32.917969 75.046875 32.980469 75.039062 33.066406 C 75.03125 33.152344 75.09375 33.226562 75.179688 33.234375 L 78.996094 33.597656 L 79.886719 34.304688 L 74.15625 33.707031 L 73.863281 33.648438 C 73.863281 33.648438 73.855469 33.648438 73.851562 33.648438 L 72.6875 32.863281 C 72.640625 32.832031 72.582031 32.828125 72.53125 32.851562 L 71.652344 33.308594 C 71.589844 33.339844 71.546875 33.613281 71.601562 33.664062 L 72.308594 34.351562 C 72.347656 34.394531 72.40625 34.40625 72.460938 34.390625 L 73.800781 33.976562 C 73.800781 33.976562 73.808594 33.980469 73.8125 33.980469 L 74.109375 34.011719 L 79.761719 35.109375 L 78.707031 35.527344 L 74.949219 34.761719 C 74.863281 34.746094 74.785156 34.796875 74.765625 34.882812 C 74.75 34.964844 74.804688 35.046875 74.886719 35.066406 L 78.179688 35.734375 L 77.285156 36.089844 L 76.246094 35.792969 C 76.164062 35.769531 76.078125 35.820312 76.054688 35.902344 C 76.03125 35.984375 76.078125 36.070312 76.160156 36.089844 L 76.808594 36.277344 L 75.925781 36.625 L 72.636719 35.179688 C 72.558594 35.148438 72.46875 35.183594 72.433594 35.261719 C 72.398438 35.339844 72.433594 35.429688 72.515625 35.464844 L 73.71875 35.996094 L 72.652344 36.265625 C 72.570312 36.289062 72.519531 36.371094 72.542969 36.457031 C 72.5625 36.539062 72.648438 36.589844 72.730469 36.566406 L 74.183594 36.195312 L 75.523438 36.785156 L 74.660156 37.125 L 73.480469 36.609375 C 73.398438 36.574219 73.308594 36.609375 73.273438 36.6875 C 73.242188 36.765625 73.277344 36.855469 73.355469 36.890625 L 74.253906 37.285156 L 73.773438 37.476562 L 72.058594 36.722656 C 71.976562 36.6875 71.886719 36.722656 71.851562 36.804688 C 71.816406 36.882812 71.855469 36.972656 71.933594 37.007812 L 73.367188 37.636719 L 72.921875 37.8125 L 71.824219 37.390625 C 71.746094 37.363281 71.65625 37.402344 71.625 37.480469 C 71.597656 37.5625 71.636719 37.652344 71.714844 37.679688 L 72.496094 37.980469 L 71.398438 38.410156 C 71.316406 38.441406 71.277344 38.53125 71.308594 38.613281 C 71.339844 38.691406 71.429688 38.730469 71.511719 38.699219 L 72.609375 38.265625 L 72.242188 39.019531 C 72.203125 39.09375 72.238281 39.1875 72.3125 39.226562 C 72.390625 39.261719 72.484375 39.230469 72.519531 39.152344 L 73.035156 38.097656 L 73.480469 37.921875 L 72.859375 39.363281 C 72.828125 39.441406 72.863281 39.53125 72.941406 39.566406 C 73.019531 39.597656 73.109375 39.5625 73.144531 39.484375 L 73.882812 37.765625 L 74.367188 37.574219 L 73.976562 38.476562 C 73.945312 38.554688 73.980469 38.648438 74.058594 38.679688 C 74.136719 38.714844 74.226562 38.679688 74.261719 38.601562 L 74.773438 37.417969 L 75.636719 37.074219 L 75.058594 38.421875 L 73.742188 39.140625 C 73.667969 39.183594 73.640625 39.277344 73.679688 39.351562 C 73.722656 39.425781 73.816406 39.453125 73.890625 39.414062 L 74.859375 38.882812 L 74.339844 40.09375 C 74.304688 40.171875 74.339844 40.261719 74.417969 40.296875 C 74.496094 40.332031 74.589844 40.292969 74.621094 40.214844 L 76.042969 36.917969 L 76.925781 36.566406 L 76.574219 37.144531 C 76.53125 37.21875 76.554688 37.3125 76.628906 37.359375 C 76.703125 37.402344 76.796875 37.378906 76.839844 37.304688 L 77.398438 36.378906 L 78.292969 36.027344 L 76.347656 38.761719 C 76.296875 38.832031 76.3125 38.929688 76.382812 38.980469 C 76.453125 39.027344 76.546875 39.011719 76.597656 38.941406 L 78.820312 35.820312 L 79.878906 35.402344 L 76.496094 40.0625 L 76.300781 40.285156 C 76.300781 40.285156 76.296875 40.296875 76.292969 40.300781 L 75.03125 40.914062 C 74.980469 40.9375 74.949219 40.988281 74.945312 41.042969 L 74.898438 42.03125 C 74.894531 42.101562 75.113281 42.273438 75.179688 42.257812 L 76.132812 41.988281 C 76.1875 41.972656 76.226562 41.929688 76.242188 41.875 L 76.550781 40.507812 C 76.550781 40.507812 76.558594 40.5 76.5625 40.496094 L 76.738281 40.253906 L 80.515625 35.910156 L 80.347656 37.035156 L 77.804688 39.902344 C 77.75 39.96875 77.753906 40.066406 77.820312 40.125 C 77.882812 40.179688 77.980469 40.171875 78.039062 40.109375 L 80.261719 37.59375 L 80.121094 38.546875 L 79.347656 39.296875 C 79.285156 39.359375 79.285156 39.457031 79.34375 39.515625 C 79.402344 39.578125 79.5 39.578125 79.5625 39.519531 L 80.046875 39.050781 L 79.90625 39.988281 L 77.011719 42.117188 C 76.945312 42.167969 76.929688 42.265625 76.980469 42.332031 C 77.03125 42.402344 77.125 42.417969 77.195312 42.367188 L 78.257812 41.585938 L 77.960938 42.648438 C 77.9375 42.730469 77.984375 42.816406 78.066406 42.839844 C 78.148438 42.863281 78.234375 42.8125 78.257812 42.730469 L 78.664062 41.289062 L 79.84375 40.421875 L 79.703125 41.339844 L 78.664062 42.105469 C 78.597656 42.15625 78.582031 42.25 78.632812 42.320312 C 78.683594 42.390625 78.78125 42.40625 78.847656 42.355469 L 79.640625 41.773438 L 79.5625 42.285156 L 78.054688 43.394531 C 77.984375 43.445312 77.972656 43.542969 78.023438 43.609375 C 78.074219 43.679688 78.167969 43.695312 78.238281 43.644531 L 79.5 42.71875 L 79.429688 43.191406 L 78.519531 43.929688 C 78.453125 43.984375 78.441406 44.082031 78.496094 44.148438 C 78.550781 44.214844 78.648438 44.226562 78.714844 44.171875 L 79.363281 43.644531 L 79.1875 44.8125 C 79.175781 44.894531 79.234375 44.972656 79.320312 44.988281 C 79.402344 45 79.480469 44.941406 79.496094 44.855469 L 79.667969 43.691406 L 80.136719 44.382812 C 80.183594 44.453125 80.277344 44.472656 80.351562 44.425781 C 80.421875 44.375 80.4375 44.28125 80.390625 44.210938 L 79.734375 43.238281 L 79.804688 42.765625 L 80.742188 44.019531 C 80.792969 44.085938 80.890625 44.101562 80.957031 44.050781 C 81.027344 44 81.042969 43.902344 80.988281 43.832031 L 79.871094 42.332031 L 79.945312 41.820312 L 80.535156 42.605469 C 80.585938 42.675781 80.683594 42.691406 80.75 42.640625 C 80.820312 42.585938 80.832031 42.492188 80.78125 42.421875 L 80.011719 41.390625 L 80.148438 40.46875 L 81.023438 41.644531 L 80.988281 43.140625 C 80.988281 43.226562 81.054688 43.296875 81.140625 43.300781 C 81.226562 43.304688 81.296875 43.234375 81.296875 43.148438 L 81.324219 42.046875 L 82.113281 43.101562 C 82.164062 43.171875 82.257812 43.1875 82.328125 43.132812 C 82.398438 43.085938 82.410156 42.988281 82.359375 42.917969 L 80.210938 40.039062 L 80.351562 39.101562 L 80.675781 39.691406 C 80.71875 39.765625 80.8125 39.792969 80.886719 39.75 C 80.960938 39.710938 80.988281 39.613281 80.949219 39.539062 L 80.425781 38.59375 L 80.566406 37.644531 L 81.960938 40.699219 C 82 40.777344 82.089844 40.8125 82.167969 40.777344 C 82.246094 40.742188 82.28125 40.648438 82.246094 40.570312 L 80.652344 37.085938 L 80.816406 35.960938 L 83.164062 41.21875 L 83.261719 41.5 C 83.261719 41.5 83.265625 41.507812 83.265625 41.511719 L 83.167969 42.910156 C 83.164062 42.96875 83.191406 43.023438 83.238281 43.054688 L 84.070312 43.585938 C 84.132812 43.625 84.386719 43.523438 84.40625 43.453125 L 84.648438 42.496094 C 84.664062 42.441406 84.644531 42.382812 84.605469 42.34375 L 83.578125 41.390625 C 83.578125 41.390625 83.574219 41.382812 83.574219 41.378906 L 83.453125 41.105469 L 81.578125 35.660156 L 82.464844 36.367188 L 83.679688 40.003906 C 83.707031 40.085938 83.796875 40.128906 83.878906 40.101562 C 83.957031 40.074219 84.003906 39.988281 83.976562 39.90625 L 82.910156 36.722656 L 83.664062 37.320312 L 83.925781 38.367188 C 83.949219 38.449219 84.03125 38.5 84.113281 38.476562 C 84.199219 38.457031 84.25 38.371094 84.226562 38.289062 L 84.0625 37.636719 L 84.804688 38.226562 L 85.199219 41.796875 C 85.210938 41.882812 85.285156 41.941406 85.371094 41.933594 C 85.457031 41.921875 85.515625 41.847656 85.507812 41.761719 L 85.363281 40.453125 L 86.132812 41.242188 C 86.195312 41.300781 86.292969 41.304688 86.351562 41.242188 C 86.414062 41.183594 86.417969 41.085938 86.355469 41.023438 L 85.308594 39.953125 L 85.148438 38.5 L 85.875 39.074219 L 86.015625 40.359375 C 86.027344 40.441406 86.101562 40.503906 86.1875 40.496094 C 86.273438 40.484375 86.332031 40.410156 86.324219 40.324219 L 86.214844 39.347656 L 86.621094 39.671875 L 86.828125 41.53125 C 86.835938 41.617188 86.914062 41.679688 87 41.667969 C 87.082031 41.660156 87.144531 41.582031 87.136719 41.5 L 86.960938 39.941406 L 87.335938 40.242188 L 87.519531 41.398438 C 87.535156 41.484375 87.613281 41.539062 87.699219 41.527344 C 87.78125 41.511719 87.839844 41.433594 87.828125 41.351562 L 87.695312 40.523438 L 88.617188 41.257812 C 88.683594 41.3125 88.78125 41.300781 88.835938 41.234375 C 88.890625 41.167969 88.878906 41.070312 88.8125 41.015625 L 87.886719 40.28125 L 88.722656 40.222656 C 88.804688 40.21875 88.871094 40.144531 88.863281 40.058594 C 88.859375 39.972656 88.785156 39.910156 88.699219 39.917969 L 87.53125 39.996094 L 87.15625 39.699219 L 88.710938 39.515625 C 88.796875 39.507812 88.855469 39.429688 88.847656 39.34375 C 88.835938 39.257812 88.757812 39.199219 88.675781 39.207031 L 86.816406 39.425781 L 86.410156 39.105469 L 87.382812 38.988281 C 87.46875 38.980469 87.53125 38.902344 87.519531 38.816406 C 87.511719 38.734375 87.433594 38.671875 87.347656 38.683594 L 86.066406 38.832031 L 85.339844 38.253906 L 86.796875 38.085938 L 88.074219 38.863281 C 88.148438 38.90625 88.242188 38.882812 88.289062 38.8125 C 88.332031 38.738281 88.308594 38.644531 88.234375 38.597656 L 87.292969 38.027344 L 88.605469 37.871094 C 88.6875 37.863281 88.75 37.785156 88.738281 37.699219 C 88.730469 37.613281 88.652344 37.554688 88.566406 37.5625 L 85 37.984375 L 84.257812 37.394531 L 84.933594 37.40625 C 85.019531 37.410156 85.089844 37.339844 85.089844 37.253906 C 85.09375 37.167969 85.023438 37.097656 84.9375 37.097656 L 83.859375 37.074219 L 83.105469 36.476562 L 86.449219 36.796875 C 86.535156 36.804688 86.609375 36.742188 86.617188 36.65625 C 86.625 36.574219 86.5625 36.496094 86.480469 36.488281 L 82.660156 36.125 L 81.773438 35.417969 L 87.5 36.015625 L 87.792969 36.074219 C 87.792969 36.074219 87.800781 36.074219 87.808594 36.074219 L 88.96875 36.859375 C 89.015625 36.890625 89.074219 36.894531 89.125 36.871094 L 90.003906 36.414062 C 90.066406 36.382812 90.109375 36.109375 90.054688 36.058594 L 89.347656 35.371094 C 89.308594 35.332031 89.25 35.316406 89.195312 35.332031 L 87.855469 35.746094 C 87.855469 35.746094 87.847656 35.742188 87.84375 35.742188 L 87.546875 35.710938 L 81.894531 34.613281 L 82.953125 34.195312 L 86.707031 34.960938 C 86.792969 34.980469 86.875 34.925781 86.890625 34.839844 C 86.90625 34.757812 86.855469 34.675781 86.769531 34.660156 L 83.480469 33.988281 L 84.371094 33.636719 L 85.414062 33.929688 C 85.492188 33.953125 85.582031 33.90625 85.601562 33.824219 C 85.625 33.742188 85.578125 33.65625 85.496094 33.632812 L 84.847656 33.449219 L 85.730469 33.097656 L 89.019531 34.542969 C 89.097656 34.578125 89.1875 34.539062 89.222656 34.460938 C 89.257812 34.382812 89.222656 34.292969 89.144531 34.257812 L 87.9375 33.730469 L 89.003906 33.457031 C 89.085938 33.433594 89.136719 33.351562 89.113281 33.265625 C 89.09375 33.183594 89.007812 33.136719 88.925781 33.15625 L 87.476562 33.527344 L 86.132812 32.9375 L 86.996094 32.597656 L 88.179688 33.117188 C 88.257812 33.148438 88.347656 33.113281 88.382812 33.035156 C 88.417969 32.957031 88.378906 32.867188 88.300781 32.832031 L 87.402344 32.4375 L 87.882812 32.246094 L 89.601562 33 C 89.679688 33.035156 89.769531 33 89.804688 32.921875 C 89.839844 32.839844 89.804688 32.75 89.722656 32.714844 L 88.289062 32.085938 L 88.734375 31.910156 L 89.832031 32.332031 C 89.910156 32.363281 90 32.320312 90.03125 32.242188 C 90.0625 32.164062 90.019531 32.074219 89.941406 32.042969 L 89.160156 31.742188 L 90.257812 31.3125 C 90.339844 31.28125 90.378906 31.191406 90.347656 31.109375 Z M 90.347656 31.109375 " fill-opacity="1" fill-rule="nonzero"/></g><g clip-path="url(#cc0f3f52ce)"><path fill="#0ea5e9" d="M 53.480469 32.046875 C 53.472656 30.738281 53.429688 29.441406 53.410156 28.136719 C 53.410156 28.035156 53.339844 27.941406 53.234375 27.917969 C 52.945312 27.855469 52.625 27.785156 52.339844 27.714844 C 50.929688 27.417969 49.597656 26.867188 48.285156 26.289062 C 47.261719 25.886719 46.15625 24.9375 45.042969 24.972656 C 45.144531 25.195312 45.355469 25.308594 45.511719 25.480469 C 45.734375 25.753906 46.097656 25.796875 46.394531 25.957031 C 46.960938 26.230469 47.535156 26.488281 48.117188 26.722656 C 48.578125 26.910156 49.03125 27.105469 49.484375 27.320312 C 50.570312 27.789062 51.746094 28.050781 52.886719 28.367188 C 52.902344 29.980469 53.039062 31.660156 52.890625 33.269531 C 52.828125 36.683594 52.199219 40.664062 49.007812 42.5625 C 48.078125 43.148438 47.0625 43.558594 46.039062 43.957031 C 45.628906 44.152344 45.394531 44.460938 45.015625 44.769531 C 46.132812 44.816406 47.152344 44.195312 48.140625 43.734375 C 50.902344 42.539062 52.457031 39.964844 53.128906 37.125 C 53.457031 35.449219 53.503906 33.746094 53.480469 32.046875 Z M 53.480469 32.046875 " fill-opacity="1" fill-rule="nonzero"/></g><g clip-path="url(#03a7e0ac57)"><path fill="#0ea5e9" d="M 44.898438 44.40625 C 44.679688 44.277344 44.476562 44.105469 44.253906 43.984375 C 44.046875 43.890625 43.800781 43.886719 43.589844 43.785156 C 42.664062 43.421875 41.714844 43.023438 40.960938 42.351562 C 40.292969 41.742188 39.625 41.109375 39.164062 40.320312 C 38.441406 39.046875 37.917969 37.648438 37.738281 36.1875 C 37.5 33.59375 37.613281 31 37.585938 28.394531 C 39.339844 27.882812 41.058594 27.25 42.710938 26.460938 C 43.734375 25.953125 44.386719 25.761719 45.046875 24.757812 C 43.980469 24.890625 43.105469 25.613281 42.144531 26.054688 C 40.585938 26.75 39.007812 27.445312 37.363281 27.910156 C 37.253906 27.957031 37.03125 27.957031 37.042969 28.128906 C 37.054688 28.621094 37.050781 29.113281 37.039062 29.605469 C 36.886719 33.765625 36.675781 38.613281 39.757812 41.851562 C 40.582031 42.890625 43.710938 44.96875 45.011719 44.535156 C 44.96875 44.484375 44.941406 44.4375 44.898438 44.40625 Z M 44.898438 44.40625 " fill-opacity="1" fill-rule="nonzero"/></g><path fill="#0ea5e9" d="M 50.335938 31.867188 C 50.386719 31.71875 50.292969 31.574219 50.253906 31.433594 C 50.148438 31.0625 49.765625 30.867188 49.550781 30.5625 C 49.265625 30.3125 48.953125 29.480469 48.539062 30.007812 C 48.019531 30.597656 47.574219 31.242188 47.078125 31.851562 C 46.804688 32.144531 46.542969 32.445312 46.316406 32.777344 C 45.476562 33.953125 44.6875 35.1875 44.046875 36.492188 C 44.011719 36.445312 43.953125 36.414062 43.898438 36.410156 C 43.855469 36.332031 43.808594 36.25 43.765625 36.171875 C 43.789062 36.058594 43.710938 35.929688 43.589844 35.902344 C 43.207031 35.425781 43.042969 34.53125 42.304688 34.527344 C 42.300781 34.546875 42.292969 34.5625 42.285156 34.578125 C 42.277344 34.582031 42.273438 34.585938 42.265625 34.589844 C 42.289062 34.515625 42.316406 34.4375 42.34375 34.355469 C 42.121094 34.300781 41.738281 34.4375 41.546875 34.5625 C 41.3125 34.785156 41.046875 34.960938 40.800781 35.167969 C 40.699219 35.289062 40.714844 35.472656 40.835938 35.574219 C 41.089844 35.785156 41.328125 36.015625 41.582031 36.230469 C 42.242188 36.734375 42.886719 37.265625 43.476562 37.851562 C 44.066406 38.472656 44.066406 38.824219 44.683594 37.945312 C 45.785156 36.628906 46.972656 35.382812 48.128906 34.117188 C 48.449219 33.835938 48.78125 33.5625 49.089844 33.265625 C 49.507812 32.863281 50.242188 32.527344 50.152344 31.847656 C 50.035156 31.816406 49.960938 31.863281 49.859375 31.894531 C 49.835938 31.847656 49.816406 31.796875 49.792969 31.746094 C 49.960938 31.792969 50.128906 31.824219 50.335938 31.867188 Z M 48.027344 32.550781 C 47.957031 32.371094 48.007812 32.179688 48.003906 31.988281 C 48.023438 32.210938 48.039062 32.433594 48.058594 32.65625 C 48.046875 32.621094 48.035156 32.585938 48.027344 32.550781 Z M 42.808594 36.527344 C 42.808594 36.511719 42.8125 36.5 42.820312 36.488281 L 42.816406 36.53125 C 42.816406 36.53125 42.8125 36.527344 42.808594 36.527344 Z M 42.753906 35.710938 C 42.746094 35.636719 42.734375 35.566406 42.71875 35.492188 L 42.828125 35.632812 C 42.800781 35.660156 42.777344 35.683594 42.753906 35.710938 Z M 42.328125 35.929688 C 42.332031 35.984375 42.332031 36.039062 42.328125 36.09375 C 42.3125 36.078125 42.292969 36.058594 42.277344 36.042969 C 42.296875 36.007812 42.3125 35.96875 42.328125 35.929688 Z M 43.34375 36.816406 C 43.34375 36.8125 43.347656 36.808594 43.351562 36.804688 C 43.347656 36.863281 43.34375 36.925781 43.335938 36.984375 C 43.3125 36.964844 43.292969 36.949219 43.273438 36.929688 C 43.296875 36.894531 43.320312 36.855469 43.34375 36.816406 Z M 43.699219 37.183594 C 43.707031 37.230469 43.71875 37.28125 43.734375 37.324219 C 43.714844 37.308594 43.699219 37.292969 43.679688 37.277344 C 43.6875 37.25 43.695312 37.214844 43.699219 37.183594 Z M 44.054688 37.628906 C 44.085938 37.585938 44.101562 37.53125 44.128906 37.480469 C 44.144531 37.535156 44.15625 37.585938 44.167969 37.640625 C 44.152344 37.660156 44.136719 37.679688 44.121094 37.695312 C 44.097656 37.675781 44.074219 37.652344 44.054688 37.628906 Z M 45.121094 36.484375 C 45.125 36.5 45.128906 36.515625 45.128906 36.53125 C 45.125 36.539062 45.121094 36.542969 45.113281 36.546875 Z M 45.796875 34.550781 L 45.753906 34.550781 C 45.769531 34.53125 45.785156 34.511719 45.800781 34.492188 C 45.800781 34.511719 45.796875 34.53125 45.796875 34.550781 Z M 45.789062 34.703125 C 45.789062 34.714844 45.789062 34.722656 45.789062 34.730469 C 45.785156 34.722656 45.789062 34.714844 45.789062 34.703125 Z M 46.164062 35.210938 L 46.226562 35.425781 C 46.199219 35.457031 46.171875 35.484375 46.144531 35.515625 Z M 46.25 33.960938 L 46.253906 33.925781 C 46.273438 33.898438 46.296875 33.867188 46.316406 33.839844 C 46.3125 33.9375 46.304688 34.039062 46.300781 34.136719 C 46.285156 34.078125 46.265625 34.019531 46.25 33.960938 Z M 47.304688 34.300781 C 47.296875 34.308594 47.285156 34.316406 47.277344 34.324219 C 47.273438 34.25 47.269531 34.175781 47.269531 34.101562 C 47.285156 34.160156 47.300781 34.222656 47.320312 34.28125 C 47.316406 34.289062 47.308594 34.292969 47.304688 34.300781 Z M 47.484375 32.617188 C 47.464844 32.539062 47.441406 32.449219 47.40625 32.363281 C 47.40625 32.363281 47.40625 32.359375 47.40625 32.359375 L 47.402344 32.359375 C 47.402344 32.355469 47.402344 32.355469 47.402344 32.351562 C 47.429688 32.316406 47.457031 32.28125 47.484375 32.242188 C 47.523438 32.367188 47.492188 32.492188 47.484375 32.617188 Z M 47.867188 31.757812 C 47.863281 31.746094 47.863281 31.734375 47.859375 31.726562 C 47.890625 31.679688 47.925781 31.632812 47.960938 31.585938 C 47.984375 31.648438 47.980469 31.714844 47.988281 31.78125 L 47.871094 31.792969 C 47.867188 31.78125 47.867188 31.769531 47.867188 31.757812 Z M 48.355469 31.085938 C 48.378906 31.054688 48.402344 31.027344 48.425781 31 C 48.476562 31.359375 48.535156 31.710938 48.589844 32.0625 C 48.445312 31.757812 48.359375 31.429688 48.355469 31.085938 Z M 45.324219 35.226562 C 45.316406 35.273438 45.308594 35.320312 45.304688 35.367188 C 45.300781 35.339844 45.292969 35.3125 45.289062 35.285156 C 45.300781 35.265625 45.3125 35.246094 45.324219 35.226562 Z M 44.320312 36.984375 C 44.328125 36.972656 44.335938 36.960938 44.34375 36.945312 C 44.335938 37.027344 44.332031 37.113281 44.324219 37.195312 C 44.304688 37.160156 44.28125 37.125 44.257812 37.09375 C 44.273438 37.074219 44.308594 37.007812 44.320312 36.984375 Z M 41.542969 35.386719 C 41.585938 35.359375 41.625 35.332031 41.664062 35.304688 C 41.679688 35.378906 41.695312 35.457031 41.710938 35.53125 Z M 45.632812 36.070312 C 45.636719 35.964844 45.644531 35.859375 45.648438 35.753906 C 45.667969 35.820312 45.679688 35.925781 45.730469 35.972656 C 45.699219 36.003906 45.667969 36.039062 45.632812 36.070312 Z M 46.671875 34.921875 C 46.675781 34.867188 46.695312 34.445312 46.699219 34.40625 C 46.738281 34.527344 46.777344 34.644531 46.824219 34.761719 C 46.773438 34.8125 46.722656 34.867188 46.671875 34.921875 Z M 47.875 33.707031 C 47.878906 33.628906 47.886719 33.554688 47.890625 33.480469 C 47.914062 33.527344 47.933594 33.574219 47.957031 33.621094 C 47.929688 33.648438 47.902344 33.675781 47.875 33.707031 Z M 48.53125 33.15625 C 48.523438 33.054688 48.511719 32.949219 48.503906 32.847656 C 48.550781 32.917969 48.597656 32.984375 48.648438 33.050781 C 48.609375 33.089844 48.570312 33.125 48.53125 33.15625 Z M 49.558594 32.054688 C 49.546875 31.933594 49.535156 31.816406 49.523438 31.699219 C 49.589844 31.777344 49.660156 31.855469 49.730469 31.929688 C 49.65625 31.949219 49.597656 31.988281 49.558594 32.054688 Z M 49.558594 32.054688 " fill-opacity="1" fill-rule="nonzero"/><g clip-path="url(#fde12d1be2)"><path fill="#60a5fa" d="M 141.753906 82.269531 L 22.515625 83.574219 L 144.085938 83.898438 Z M 132.421875 79.453125 L 13.183594 80.757812 L 134.753906 81.085938 Z M 154.992188 86.199219 L 35.753906 87.503906 L 157.324219 87.828125 Z M 165.1875 72.097656 L 45.953125 73.398438 L 167.523438 73.726562 Z M 140.886719 76.070312 L 21.652344 77.375 L 143.21875 77.699219 Z M 140.886719 76.070312 " fill-opacity="1" fill-rule="evenodd"/></g></svg>