<svg xmlns="http://www.w3.org/2000/svg" xmlns:xlink="http://www.w3.org/1999/xlink" width="240" zoomAndPan="magnify" viewBox="0 0 180 89.999999" height="120" preserveAspectRatio="xMidYMid meet" version="1.0"><defs><clipPath id="7c2d7abf7f"><path d="M 31 21 L 157.691406 21 L 157.691406 69 L 31 69 Z M 31 21 " clip-rule="nonzero"/></clipPath><clipPath id="7d1f31ee5b"><path d="M 124 55 L 142 55 L 142 71.945312 L 124 71.945312 Z M 124 55 " clip-rule="nonzero"/></clipPath><clipPath id="6891aabe56"><path d="M 21.941406 18 L 118 18 L 118 54 L 21.941406 54 Z M 21.941406 18 " clip-rule="nonzero"/></clipPath><clipPath id="d99dc57b31"><path d="M 36 55 L 54 55 L 54 71.945312 L 36 71.945312 Z M 36 55 " clip-rule="nonzero"/></clipPath><clipPath id="8926f4f42c"><path d="M 81 24.738281 L 89.664062 24.738281 L 89.664062 44.988281 L 81 44.988281 Z M 81 24.738281 " clip-rule="nonzero"/></clipPath><clipPath id="deb1d6512b"><path d="M 73.164062 24.738281 L 82 24.738281 L 82 44.988281 L 73.164062 44.988281 Z M 73.164062 24.738281 " clip-rule="nonzero"/></clipPath><clipPath id="8ff057ebc2"><path d="M 13.179688 72.054688 L 167.679688 72.054688 L 167.679688 87.804688 L 13.179688 87.804688 Z M 13.179688 72.054688 " clip-rule="nonzero"/></clipPath></defs><g clip-path="url(#7c2d7abf7f)"><path fill="#231f20" d="M 157.542969 59.203125 C 157.425781 57.105469 155.792969 56.492188 155.792969 56.492188 C 155.792969 56.492188 151.933594 54.945312 151.625 51.796875 L 155.792969 51.796875 L 155.835938 51.839844 L 156.992188 50.683594 L 156.992188 43.769531 L 155.636719 42.289062 C 155.636719 42.289062 151.996094 29.597656 149.617188 25.371094 C 147.25 21.144531 143.917969 21.359375 143.917969 21.359375 L 120.65625 21.359375 L 120.65625 54.453125 L 56.371094 54.453125 C 56.371094 54.453125 54.027344 50.75 50.570312 50.683594 C 47.117188 50.625 39.035156 50.683594 39.035156 50.683594 C 31.691406 54.824219 31.753906 62.972656 31.691406 65.8125 C 31.628906 68.648438 33.792969 67.90625 33.792969 67.90625 C 33.792969 67.90625 33.792969 67.90625 34.53125 62.105469 C 35.273438 56.304688 39.898438 54.085938 39.898438 54.085938 L 49.707031 54.085938 C 54.703125 55.382812 55.9375 63.773438 56.183594 65.871094 C 56.433594 67.96875 58.464844 68.589844 58.464844 68.589844 L 119.789062 68.589844 C 121.890625 68.34375 121.828125 67.351562 123.308594 61.308594 C 124.785156 55.253906 127.191406 54.15625 127.191406 54.15625 C 127.191406 54.15625 135.445312 53.503906 136.925781 54.15625 C 143.542969 57.121094 143.589844 67.789062 143.589844 67.789062 L 157.542969 67.789062 C 157.542969 67.789062 157.671875 61.308594 157.542969 59.203125 Z M 154.925781 43.460938 L 155.792969 44.386719 L 155.792969 50.355469 L 154.140625 50.683594 L 154.960938 49.527344 L 154.960938 44.800781 Z M 117.820312 65.566406 L 87.339844 65.566406 L 89.804688 63.648438 L 114.980469 63.648438 L 115.71875 59.855469 L 56.617188 59.855469 L 58.464844 58.402344 L 119.050781 58.402344 Z M 151.011719 40.621094 C 149.773438 41.976562 140.273438 38.523438 133.242188 36.175781 C 126.210938 33.828125 126.578125 31.421875 126.578125 31.421875 L 126.578125 23.582031 C 126.578125 23.582031 142.804688 22.65625 146.382812 24.078125 C 149.957031 25.492188 152.246094 39.265625 151.011719 40.621094 Z M 151.011719 40.621094 " fill-opacity="1" fill-rule="nonzero"/></g><g clip-path="url(#7d1f31ee5b)"><path fill="#231f20" d="M 132.996094 55.410156 C 128.441406 55.410156 124.757812 59.097656 124.757812 63.648438 C 124.757812 68.203125 128.441406 71.894531 132.996094 71.894531 C 137.542969 71.894531 141.230469 68.203125 141.230469 63.648438 C 141.230469 59.097656 137.542969 55.410156 132.996094 55.410156 Z M 132.996094 67.449219 C 130.902344 67.449219 129.199219 65.742188 129.199219 63.648438 C 129.199219 61.550781 130.902344 59.855469 132.996094 59.855469 C 135.089844 59.855469 136.785156 61.550781 136.785156 63.648438 C 136.785156 65.742188 135.089844 67.449219 132.996094 67.449219 Z M 132.996094 67.449219 " fill-opacity="1" fill-rule="nonzero"/></g><g clip-path="url(#6891aabe56)"><path fill="#231f20" d="M 38.789062 48.644531 L 53.964844 48.644531 L 58.59375 53.277344 L 117.820312 53.089844 L 117.820312 18.085938 L 21.949219 18.085938 L 21.949219 53.089844 L 33.234375 53.089844 Z M 38.789062 48.644531 " fill-opacity="1" fill-rule="nonzero"/></g><g clip-path="url(#d99dc57b31)"><path fill="#231f20" d="M 44.808594 55.410156 C 40.261719 55.410156 36.578125 59.097656 36.578125 63.648438 C 36.578125 68.203125 40.261719 71.894531 44.808594 71.894531 C 49.363281 71.894531 53.050781 68.203125 53.050781 63.648438 C 53.050781 59.097656 49.363281 55.410156 44.808594 55.410156 Z M 44.808594 67.449219 C 42.714844 67.449219 41.019531 65.742188 41.019531 63.648438 C 41.019531 61.550781 42.714844 59.855469 44.808594 59.855469 C 46.902344 59.855469 48.605469 61.550781 48.605469 63.648438 C 48.605469 65.742188 46.902344 67.449219 44.808594 67.449219 Z M 44.808594 67.449219 " fill-opacity="1" fill-rule="nonzero"/></g><g clip-path="url(#8926f4f42c)"><path fill="#0ea5e9" d="M 89.96875 32.046875 C 89.960938 30.738281 89.914062 29.441406 89.898438 28.136719 C 89.898438 28.035156 89.828125 27.941406 89.71875 27.917969 C 89.433594 27.855469 89.113281 27.785156 88.828125 27.714844 C 87.417969 27.417969 86.085938 26.867188 84.773438 26.289062 C 83.75 25.886719 82.644531 24.9375 81.53125 24.972656 C 81.632812 25.195312 81.84375 25.308594 82 25.480469 C 82.222656 25.753906 82.585938 25.796875 82.882812 25.957031 C 83.449219 26.230469 84.023438 26.488281 84.601562 26.722656 C 85.066406 26.910156 85.519531 27.105469 85.96875 27.320312 C 87.058594 27.789062 88.234375 28.050781 89.371094 28.367188 C 89.390625 29.980469 89.523438 31.660156 89.378906 33.269531 C 89.316406 36.683594 88.683594 40.664062 85.496094 42.5625 C 84.566406 43.148438 83.550781 43.558594 82.527344 43.957031 C 82.117188 44.152344 81.882812 44.460938 81.5 44.769531 C 82.621094 44.816406 83.640625 44.195312 84.628906 43.734375 C 87.390625 42.539062 88.945312 39.964844 89.617188 37.125 C 89.941406 35.449219 89.988281 33.746094 89.96875 32.046875 Z M 89.96875 32.046875 " fill-opacity="1" fill-rule="nonzero"/></g><g clip-path="url(#deb1d6512b)"><path fill="#0ea5e9" d="M 81.386719 44.40625 C 81.164062 44.277344 80.964844 44.105469 80.742188 43.984375 C 80.535156 43.890625 80.289062 43.886719 80.078125 43.785156 C 79.148438 43.421875 78.203125 43.023438 77.449219 42.351562 C 76.78125 41.742188 76.113281 41.109375 75.652344 40.320312 C 74.925781 39.046875 74.402344 37.648438 74.222656 36.1875 C 73.988281 33.59375 74.097656 31 74.070312 28.394531 C 75.828125 27.882812 77.546875 27.25 79.195312 26.460938 C 80.222656 25.953125 80.875 25.761719 81.535156 24.757812 C 80.46875 24.890625 79.59375 25.613281 78.628906 26.054688 C 77.074219 26.75 75.496094 27.445312 73.851562 27.910156 C 73.742188 27.957031 73.519531 27.957031 73.53125 28.128906 C 73.539062 28.621094 73.539062 29.113281 73.527344 29.605469 C 73.375 33.765625 73.164062 38.613281 76.242188 41.851562 C 77.070312 42.890625 80.199219 44.96875 81.5 44.535156 C 81.457031 44.484375 81.429688 44.4375 81.386719 44.40625 Z M 81.386719 44.40625 " fill-opacity="1" fill-rule="nonzero"/></g><path fill="#0ea5e9" d="M 86.820312 31.867188 C 86.875 31.71875 86.777344 31.574219 86.742188 31.433594 C 86.636719 31.0625 86.253906 30.867188 86.035156 30.5625 C 85.753906 30.3125 85.441406 29.480469 85.027344 30.007812 C 84.503906 30.597656 84.0625 31.242188 83.566406 31.851562 C 83.292969 32.144531 83.027344 32.445312 82.804688 32.777344 C 81.960938 33.953125 81.171875 35.1875 80.535156 36.492188 C 80.5 36.445312 80.441406 36.414062 80.386719 36.410156 C 80.339844 36.332031 80.296875 36.25 80.25 36.171875 C 80.273438 36.058594 80.199219 35.929688 80.078125 35.902344 C 79.695312 35.425781 79.53125 34.53125 78.792969 34.527344 C 78.785156 34.546875 78.78125 34.5625 78.773438 34.578125 C 78.765625 34.582031 78.757812 34.585938 78.753906 34.589844 C 78.777344 34.515625 78.804688 34.4375 78.832031 34.355469 C 78.609375 34.300781 78.226562 34.4375 78.035156 34.5625 C 77.800781 34.785156 77.53125 34.960938 77.289062 35.167969 C 77.1875 35.289062 77.203125 35.472656 77.324219 35.574219 C 77.578125 35.785156 77.816406 36.015625 78.070312 36.230469 C 78.730469 36.734375 79.375 37.265625 79.964844 37.851562 C 80.554688 38.472656 80.554688 38.824219 81.171875 37.945312 C 82.273438 36.628906 83.460938 35.382812 84.617188 34.117188 C 84.9375 33.835938 85.269531 33.5625 85.578125 33.265625 C 85.992188 32.863281 86.730469 32.527344 86.640625 31.847656 C 86.523438 31.816406 86.449219 31.863281 86.347656 31.894531 C 86.324219 31.847656 86.304688 31.796875 86.28125 31.746094 C 86.449219 31.792969 86.617188 31.824219 86.820312 31.867188 Z M 84.515625 32.550781 C 84.445312 32.371094 84.492188 32.179688 84.492188 31.988281 C 84.511719 32.210938 84.527344 32.433594 84.546875 32.65625 C 84.535156 32.621094 84.523438 32.585938 84.515625 32.550781 Z M 79.296875 36.527344 C 79.296875 36.511719 79.300781 36.5 79.308594 36.488281 L 79.304688 36.53125 C 79.304688 36.53125 79.300781 36.527344 79.296875 36.527344 Z M 79.242188 35.710938 C 79.230469 35.636719 79.21875 35.566406 79.207031 35.492188 L 79.3125 35.632812 C 79.289062 35.660156 79.265625 35.683594 79.242188 35.710938 Z M 78.816406 35.929688 C 78.816406 35.984375 78.816406 36.039062 78.816406 36.09375 C 78.800781 36.078125 78.78125 36.058594 78.765625 36.042969 C 78.785156 36.007812 78.800781 35.96875 78.816406 35.929688 Z M 79.828125 36.816406 C 79.832031 36.8125 79.835938 36.808594 79.839844 36.804688 C 79.835938 36.863281 79.832031 36.925781 79.820312 36.984375 C 79.800781 36.964844 79.78125 36.949219 79.757812 36.929688 C 79.78125 36.894531 79.808594 36.855469 79.828125 36.816406 Z M 80.1875 37.183594 C 80.195312 37.230469 80.207031 37.28125 80.222656 37.324219 C 80.203125 37.308594 80.1875 37.292969 80.167969 37.277344 C 80.175781 37.25 80.183594 37.214844 80.1875 37.183594 Z M 80.539062 37.628906 C 80.574219 37.585938 80.589844 37.53125 80.617188 37.480469 C 80.628906 37.535156 80.644531 37.585938 80.65625 37.640625 C 80.640625 37.660156 80.625 37.679688 80.609375 37.695312 C 80.585938 37.675781 80.5625 37.652344 80.539062 37.628906 Z M 81.609375 36.484375 C 81.613281 36.5 81.613281 36.515625 81.617188 36.53125 C 81.613281 36.539062 81.605469 36.542969 81.601562 36.546875 Z M 82.285156 34.550781 L 82.242188 34.550781 C 82.257812 34.53125 82.273438 34.511719 82.289062 34.492188 C 82.285156 34.511719 82.285156 34.53125 82.285156 34.550781 Z M 82.277344 34.703125 C 82.277344 34.714844 82.277344 34.722656 82.277344 34.730469 C 82.273438 34.722656 82.277344 34.714844 82.277344 34.703125 Z M 82.652344 35.210938 L 82.714844 35.425781 C 82.6875 35.457031 82.660156 35.484375 82.632812 35.515625 Z M 82.738281 33.960938 L 82.738281 33.925781 C 82.761719 33.898438 82.785156 33.867188 82.804688 33.839844 C 82.800781 33.9375 82.792969 34.039062 82.789062 34.136719 C 82.769531 34.078125 82.753906 34.019531 82.738281 33.960938 Z M 83.792969 34.300781 C 83.78125 34.308594 83.773438 34.316406 83.765625 34.324219 C 83.761719 34.25 83.757812 34.175781 83.757812 34.101562 C 83.769531 34.160156 83.789062 34.222656 83.808594 34.28125 C 83.800781 34.289062 83.796875 34.292969 83.792969 34.300781 Z M 83.972656 32.617188 C 83.953125 32.539062 83.929688 32.449219 83.894531 32.363281 C 83.894531 32.363281 83.894531 32.359375 83.894531 32.359375 L 83.890625 32.359375 C 83.890625 32.355469 83.890625 32.355469 83.886719 32.351562 C 83.917969 32.316406 83.945312 32.28125 83.972656 32.242188 C 84.011719 32.367188 83.980469 32.492188 83.972656 32.617188 Z M 84.351562 31.757812 C 84.351562 31.746094 84.347656 31.734375 84.347656 31.726562 C 84.378906 31.679688 84.414062 31.632812 84.445312 31.585938 C 84.46875 31.648438 84.464844 31.714844 84.472656 31.78125 L 84.359375 31.792969 C 84.355469 31.78125 84.355469 31.769531 84.351562 31.757812 Z M 84.84375 31.085938 C 84.867188 31.054688 84.890625 31.027344 84.914062 31 C 84.964844 31.359375 85.019531 31.710938 85.078125 32.0625 C 84.933594 31.757812 84.84375 31.429688 84.84375 31.085938 Z M 81.8125 35.226562 C 81.804688 35.273438 81.796875 35.320312 81.792969 35.367188 C 81.785156 35.339844 81.78125 35.3125 81.777344 35.285156 C 81.785156 35.265625 81.796875 35.246094 81.8125 35.226562 Z M 80.808594 36.984375 C 80.816406 36.972656 80.824219 36.960938 80.828125 36.945312 C 80.824219 37.027344 80.816406 37.113281 80.8125 37.195312 C 80.792969 37.160156 80.769531 37.125 80.746094 37.09375 C 80.761719 37.074219 80.796875 37.007812 80.808594 36.984375 Z M 78.03125 35.386719 C 78.070312 35.359375 78.113281 35.332031 78.152344 35.304688 C 78.167969 35.378906 78.183594 35.457031 78.195312 35.53125 Z M 82.121094 36.070312 C 82.125 35.964844 82.128906 35.859375 82.136719 35.753906 C 82.152344 35.820312 82.167969 35.925781 82.21875 35.972656 C 82.1875 36.003906 82.15625 36.039062 82.121094 36.070312 Z M 83.160156 34.921875 C 83.164062 34.867188 83.183594 34.445312 83.1875 34.40625 C 83.222656 34.527344 83.265625 34.644531 83.3125 34.761719 C 83.257812 34.8125 83.210938 34.867188 83.160156 34.921875 Z M 84.363281 33.707031 C 84.367188 33.628906 84.371094 33.554688 84.378906 33.480469 C 84.398438 33.527344 84.421875 33.574219 84.445312 33.621094 C 84.417969 33.648438 84.390625 33.675781 84.363281 33.707031 Z M 85.019531 33.15625 C 85.007812 33.054688 85 32.949219 84.992188 32.847656 C 85.035156 32.917969 85.085938 32.984375 85.136719 33.050781 C 85.097656 33.089844 85.058594 33.125 85.019531 33.15625 Z M 86.042969 32.054688 C 86.035156 31.933594 86.023438 31.816406 86.011719 31.699219 C 86.074219 31.777344 86.144531 31.855469 86.21875 31.929688 C 86.140625 31.949219 86.082031 31.988281 86.042969 32.054688 Z M 86.042969 32.054688 " fill-opacity="1" fill-rule="nonzero"/><g clip-path="url(#8ff057ebc2)"><path fill="#60a5fa" d="M 141.753906 82.269531 L 22.515625 83.574219 L 144.085938 83.898438 Z M 132.421875 79.453125 L 13.183594 80.757812 L 134.753906 81.085938 Z M 154.992188 86.199219 L 35.753906 87.503906 L 157.324219 87.828125 Z M 165.1875 72.097656 L 45.953125 73.398438 L 167.523438 73.726562 Z M 140.886719 76.070312 L 21.652344 77.375 L 143.21875 77.699219 Z M 140.886719 76.070312 " fill-opacity="1" fill-rule="evenodd"/></g></svg>