<svg xmlns="http://www.w3.org/2000/svg" xmlns:xlink="http://www.w3.org/1999/xlink" width="128" zoomAndPan="magnify" viewBox="0 0 96 95.999999" height="128" preserveAspectRatio="xMidYMid meet" version="1.0"><defs><clipPath id="dc6ff53c52"><path d="M 4.800781 26.023438 L 66 26.023438 L 66 60 L 4.800781 60 Z M 4.800781 26.023438 " clip-rule="nonzero"/></clipPath><clipPath id="0dd3838733"><path d="M 29 58 L 41 58 L 41 70.273438 L 29 70.273438 Z M 29 58 " clip-rule="nonzero"/></clipPath><clipPath id="9cf14fc9a1"><path d="M 67 30 L 91.050781 30 L 91.050781 64 L 67 64 Z M 67 30 " clip-rule="nonzero"/></clipPath><clipPath id="f63b6016af"><path d="M 73 58 L 85 58 L 85 70.273438 L 73 70.273438 Z M 73 58 " clip-rule="nonzero"/></clipPath><clipPath id="1987eb643f"><path d="M 88 55 L 91.050781 55 L 91.050781 59 L 88 59 Z M 88 55 " clip-rule="nonzero"/></clipPath></defs><path fill="#064088" d="M 11.160156 42.660156 C 10.589844 42.660156 10.132812 42.199219 10.132812 41.625 C 10.132812 41.054688 10.589844 40.589844 11.160156 40.589844 L 11.289062 40.589844 C 11.859375 40.589844 12.316406 41.054688 12.316406 41.625 C 12.316406 42.199219 11.859375 42.660156 11.289062 42.660156 Z M 11.160156 42.660156 " fill-opacity="1" fill-rule="evenodd"/><path fill="#064088" d="M 42.753906 63.632812 L 65.496094 63.632812 L 65.496094 61.878906 L 42.335938 61.878906 C 42.539062 62.4375 42.679688 63.023438 42.753906 63.632812 Z M 42.753906 63.632812 " fill-opacity="1" fill-rule="evenodd"/><g clip-path="url(#dc6ff53c52)"><path fill="#064088" d="M 41.191406 59.808594 L 65.496094 59.808594 L 65.496094 26.023438 L 22.125 26.023438 L 22.125 31.3125 L 30.414062 31.3125 C 30.980469 31.3125 31.441406 31.773438 31.441406 32.347656 C 31.441406 32.917969 30.980469 33.382812 30.414062 33.382812 L 9.691406 33.382812 C 9.125 33.382812 8.664062 33.847656 8.664062 34.417969 C 8.664062 34.988281 9.125 35.453125 9.691406 35.453125 L 22.125 35.453125 L 22.125 38.519531 L 27.710938 38.519531 C 28.28125 38.519531 28.738281 38.984375 28.738281 39.554688 C 28.738281 40.128906 28.28125 40.589844 27.710938 40.589844 L 15.820312 40.589844 C 15.253906 40.589844 14.792969 41.054688 14.792969 41.625 C 14.792969 42.199219 15.253906 42.660156 15.820312 42.660156 L 22.125 42.660156 L 22.125 45.730469 L 24.527344 45.730469 C 25.09375 45.730469 25.554688 46.191406 25.554688 46.765625 C 25.554688 47.335938 25.09375 47.800781 24.527344 47.800781 L 5.824219 47.800781 C 5.257812 47.800781 4.796875 48.261719 4.796875 48.835938 C 4.796875 49.40625 5.257812 49.871094 5.824219 49.871094 L 22.125 49.871094 L 22.125 52.9375 L 27.292969 52.9375 C 27.859375 52.9375 28.320312 53.402344 28.320312 53.972656 C 28.320312 54.546875 27.859375 55.007812 27.292969 55.007812 L 8.589844 55.007812 C 8.023438 55.007812 7.5625 55.472656 7.5625 56.042969 C 7.5625 56.617188 8.023438 57.078125 8.589844 57.078125 L 22.125 57.078125 L 22.125 59.808594 L 29.046875 59.808594 C 29.242188 59.554688 29.453125 59.3125 29.679688 59.082031 C 31.074219 57.679688 32.996094 56.8125 35.121094 56.8125 C 37.242188 56.8125 39.164062 57.679688 40.558594 59.082031 C 40.785156 59.3125 40.996094 59.554688 41.191406 59.808594 Z M 31.746094 49.871094 C 31.179688 49.871094 30.722656 49.40625 30.722656 48.835938 C 30.722656 48.261719 31.179688 47.800781 31.746094 47.800781 L 31.757812 47.800781 C 32.324219 47.800781 32.785156 48.261719 32.785156 48.835938 C 32.785156 49.40625 32.324219 49.871094 31.757812 49.871094 Z M 31.746094 49.871094 " fill-opacity="1" fill-rule="evenodd"/></g><path fill="#064088" d="M 27.902344 61.878906 L 22.125 61.878906 L 22.125 63.632812 L 27.484375 63.632812 C 27.558594 63.023438 27.699219 62.4375 27.902344 61.878906 Z M 27.902344 61.878906 " fill-opacity="1" fill-rule="evenodd"/><g clip-path="url(#0dd3838733)"><path fill="#064088" d="M 39.105469 60.546875 C 38.085938 59.519531 36.675781 58.882812 35.121094 58.882812 C 33.5625 58.882812 32.152344 59.519531 31.132812 60.546875 C 30.113281 61.574219 29.480469 62.996094 29.480469 64.566406 C 29.480469 66.136719 30.113281 67.558594 31.132812 68.585938 C 32.152344 69.617188 33.5625 70.253906 35.121094 70.253906 C 36.675781 70.253906 38.085938 69.617188 39.105469 68.585938 C 40.125 67.558594 40.757812 66.136719 40.757812 64.566406 C 40.757812 62.996094 40.125 61.574219 39.105469 60.546875 Z M 39.105469 60.546875 " fill-opacity="1" fill-rule="evenodd"/></g><g clip-path="url(#9cf14fc9a1)"><path fill="#064088" d="M 86.355469 63.632812 L 88.316406 63.632812 C 89.070312 63.632812 89.753906 63.320312 90.25 62.820312 C 90.746094 62.320312 91.050781 61.632812 91.050781 60.871094 L 91.050781 60.09375 L 89.117188 60.09375 C 88.445312 60.09375 87.835938 59.816406 87.398438 59.371094 C 86.957031 58.929688 86.683594 58.316406 86.683594 57.636719 L 86.683594 55.535156 C 86.683594 54.859375 86.957031 54.246094 87.398438 53.800781 C 87.835938 53.355469 88.445312 53.082031 89.117188 53.082031 L 91.050781 53.082031 L 91.050781 47.339844 C 91.050781 46.691406 90.976562 46.097656 90.816406 45.53125 C 90.652344 44.960938 90.40625 44.414062 90.070312 43.871094 L 83.589844 33.390625 C 82.972656 32.398438 82.171875 31.625 81.242188 31.101562 C 80.3125 30.582031 79.238281 30.308594 78.074219 30.308594 L 67.546875 30.308594 L 67.546875 63.632812 L 71.085938 63.632812 C 71.296875 61.863281 72.09375 60.277344 73.28125 59.082031 C 74.671875 57.679688 76.59375 56.8125 78.71875 56.8125 C 80.84375 56.8125 82.765625 57.679688 84.15625 59.082031 C 85.34375 60.277344 86.144531 61.863281 86.355469 63.632812 Z M 69.730469 46.636719 L 69.730469 33.546875 C 69.730469 32.976562 70.191406 32.511719 70.757812 32.511719 L 78.074219 32.511719 C 78.851562 32.511719 79.554688 32.6875 80.179688 33.039062 C 80.800781 33.386719 81.320312 33.894531 81.734375 34.5625 L 88.214844 45.039062 C 88.351562 45.265625 88.46875 45.488281 88.5625 45.714844 C 88.644531 45.90625 88.707031 46.109375 88.757812 46.324219 C 88.789062 46.421875 88.804688 46.527344 88.804688 46.636719 C 88.804688 47.207031 88.34375 47.671875 87.777344 47.671875 L 70.757812 47.671875 C 70.191406 47.671875 69.730469 47.207031 69.730469 46.636719 Z M 71.582031 52.117188 C 71.015625 52.117188 70.554688 51.652344 70.554688 51.082031 C 70.554688 50.511719 71.015625 50.046875 71.582031 50.046875 L 73.84375 50.046875 C 74.410156 50.046875 74.871094 50.511719 74.871094 51.082031 C 74.871094 51.652344 74.410156 52.117188 73.84375 52.117188 Z M 71.582031 52.117188 " fill-opacity="1" fill-rule="evenodd"/></g><g clip-path="url(#f63b6016af)"><path fill="#064088" d="M 82.707031 60.546875 C 81.683594 59.519531 80.277344 58.882812 78.71875 58.882812 C 77.160156 58.882812 75.753906 59.519531 74.734375 60.546875 C 73.710938 61.574219 73.082031 62.996094 73.082031 64.566406 C 73.082031 66.136719 73.710938 67.558594 74.734375 68.585938 C 75.753906 69.617188 77.164062 70.253906 78.71875 70.253906 C 80.277344 70.253906 81.683594 69.617188 82.707031 68.585938 C 83.726562 67.558594 84.355469 66.136719 84.355469 64.566406 C 84.355469 62.996094 83.726562 61.574219 82.707031 60.546875 Z M 82.707031 60.546875 " fill-opacity="1" fill-rule="evenodd"/></g><g clip-path="url(#1987eb643f)"><path fill="#3b9fef" d="M 91.054688 58.023438 L 91.054688 55.152344 L 89.117188 55.152344 C 89.011719 55.152344 88.917969 55.195312 88.847656 55.265625 C 88.777344 55.335938 88.734375 55.429688 88.734375 55.535156 L 88.734375 57.640625 C 88.734375 57.742188 88.777344 57.839844 88.847656 57.910156 C 88.917969 57.980469 89.011719 58.023438 89.117188 58.023438 Z M 91.054688 58.023438 " fill-opacity="1" fill-rule="evenodd"/></g><path fill="#3b9fef" d="M 71.785156 34.582031 L 71.785156 45.601562 L 86.144531 45.601562 L 79.992188 35.652344 C 79.765625 35.285156 79.496094 35.015625 79.183594 34.839844 C 78.878906 34.667969 78.507812 34.582031 78.074219 34.582031 Z M 71.785156 34.582031 " fill-opacity="1" fill-rule="evenodd"/></svg>