<svg xmlns="http://www.w3.org/2000/svg" xmlns:xlink="http://www.w3.org/1999/xlink" width="128" zoomAndPan="magnify" viewBox="0 0 96 95.999999" height="128" preserveAspectRatio="xMidYMid meet" version="1.0"><defs><clipPath id="ff2ad9ba8a"><path d="M 18 39 L 77.863281 39 L 77.863281 78.203125 L 18 78.203125 Z M 18 39 " clip-rule="nonzero"/></clipPath><clipPath id="54e28a5ef1"><path d="M 27 17.453125 L 69 17.453125 L 69 65 L 27 65 Z M 27 17.453125 " clip-rule="nonzero"/></clipPath></defs><g clip-path="url(#ff2ad9ba8a)"><path fill="#3b9fef" d="M 75.742188 62.773438 C 76.550781 61.828125 77.109375 60.847656 77.425781 59.835938 C 77.738281 58.828125 77.808594 57.769531 77.640625 56.65625 C 77.636719 56.617188 77.632812 56.578125 77.628906 56.535156 L 75.609375 40.566406 C 75.601562 40.515625 75.601562 40.46875 75.601562 40.417969 L 75.597656 40.417969 C 75.597656 40.050781 75.351562 39.808594 75.035156 39.695312 C 74.859375 39.632812 74.671875 39.601562 74.488281 39.601562 C 74.300781 39.601562 74.117188 39.632812 73.945312 39.695312 C 73.609375 39.816406 73.347656 40.089844 73.347656 40.519531 L 73.355469 56.277344 C 73.355469 56.601562 73.222656 56.890625 73.011719 57.101562 L 70.800781 59.304688 C 70.769531 59.339844 70.738281 59.375 70.707031 59.40625 L 70.703125 59.40625 L 67.390625 62.71875 C 66.9375 63.175781 66.203125 63.175781 65.746094 62.71875 C 65.292969 62.265625 65.292969 61.53125 65.746094 61.074219 L 69.058594 57.761719 L 69.0625 57.761719 C 69.242188 57.578125 69.332031 57.339844 69.332031 57.097656 L 69.335938 57.097656 C 69.335938 56.859375 69.246094 56.617188 69.0625 56.433594 L 69.058594 56.433594 C 68.875 56.25 68.636719 56.15625 68.398438 56.15625 L 68.398438 56.160156 C 68.152344 56.160156 67.910156 56.253906 67.726562 56.433594 L 61.800781 62.34375 C 61.757812 62.402344 61.707031 62.453125 61.65625 62.503906 C 61.589844 62.5625 61.527344 62.621094 61.464844 62.679688 L 61.398438 62.742188 C 61.382812 62.761719 61.363281 62.777344 61.347656 62.792969 C 60.59375 63.53125 60.027344 64.324219 59.644531 65.160156 C 59.265625 65.988281 59.066406 66.878906 59.042969 67.824219 L 59.042969 72.226562 L 67.285156 72.226562 L 67.285156 70.667969 C 67.285156 70.335938 67.429688 70.007812 67.703125 69.777344 C 69.898438 67.941406 71.4375 66.636719 72.628906 65.597656 C 73.867188 64.511719 74.800781 63.664062 75.742188 62.773438 Z M 57.3125 78.527344 L 69.023438 78.527344 L 69.023438 74.554688 L 57.3125 74.554688 Z M 20.25 62.773438 C 21.191406 63.660156 22.125 64.511719 23.363281 65.59375 C 24.558594 66.636719 26.09375 67.941406 28.289062 69.777344 C 28.5625 70.007812 28.707031 70.335938 28.707031 70.667969 L 28.707031 72.226562 L 36.949219 72.226562 L 36.949219 67.824219 C 36.925781 66.878906 36.726562 65.988281 36.347656 65.160156 C 35.964844 64.320312 35.398438 63.53125 34.644531 62.792969 C 34.625 62.777344 34.609375 62.761719 34.589844 62.742188 L 34.527344 62.679688 C 34.464844 62.621094 34.402344 62.5625 34.335938 62.5 C 34.28125 62.453125 34.234375 62.398438 34.191406 62.34375 L 28.261719 56.433594 C 28.082031 56.25 27.839844 56.160156 27.59375 56.160156 L 27.59375 56.15625 C 27.355469 56.15625 27.113281 56.25 26.929688 56.433594 C 26.917969 56.445312 26.902344 56.457031 26.890625 56.472656 C 26.734375 56.648438 26.65625 56.871094 26.65625 57.097656 C 26.65625 57.339844 26.75 57.578125 26.929688 57.761719 L 30.246094 61.074219 C 30.699219 61.527344 30.699219 62.265625 30.246094 62.71875 C 29.789062 63.175781 29.054688 63.175781 28.597656 62.71875 L 25.289062 59.40625 L 25.285156 59.40625 C 25.253906 59.375 25.222656 59.339844 25.191406 59.304688 L 22.980469 57.101562 C 22.769531 56.890625 22.636719 56.601562 22.636719 56.28125 L 22.644531 40.519531 C 22.644531 40.089844 22.382812 39.816406 22.046875 39.695312 C 21.875 39.632812 21.691406 39.601562 21.507812 39.601562 C 21.320312 39.601562 21.132812 39.632812 20.957031 39.695312 C 20.644531 39.808594 20.394531 40.050781 20.394531 40.421875 L 20.390625 40.421875 C 20.390625 40.46875 20.390625 40.515625 20.382812 40.566406 L 18.363281 56.535156 C 18.359375 56.578125 18.355469 56.617188 18.351562 56.65625 C 18.183594 57.769531 18.253906 58.828125 18.566406 59.835938 C 18.882812 60.847656 19.441406 61.828125 20.25 62.773438 Z M 26.96875 78.527344 L 38.683594 78.527344 L 38.683594 74.554688 L 26.96875 74.554688 Z M 26.96875 78.527344 " fill-opacity="1" fill-rule="evenodd"/></g><g clip-path="url(#54e28a5ef1)"><path fill="#064088" d="M 48.335938 19.390625 L 65.367188 24.675781 C 65.835938 24.820312 66.148438 25.238281 66.183594 25.699219 L 66.195312 25.832031 C 66.570312 29.617188 66.558594 33.425781 66.003906 37.140625 C 65.445312 40.882812 64.335938 44.535156 62.511719 47.976562 C 60.921875 50.984375 58.894531 53.632812 56.550781 55.972656 C 54.222656 58.292969 51.574219 60.3125 48.734375 62.0625 L 48.605469 62.140625 C 48.214844 62.382812 47.734375 62.363281 47.371094 62.128906 L 47.257812 62.0625 C 44.414062 60.308594 41.769531 58.296875 39.441406 55.972656 C 37.097656 53.636719 35.070312 50.984375 33.480469 47.976562 C 31.65625 44.535156 30.546875 40.882812 29.988281 37.140625 C 29.433594 33.425781 29.425781 29.617188 29.796875 25.832031 L 29.8125 25.671875 C 29.859375 25.191406 30.191406 24.808594 30.625 24.675781 L 47.65625 19.394531 C 47.886719 19.320312 48.121094 19.324219 48.335938 19.390625 Z M 47.449219 17.558594 L 28.242188 23.515625 C 27.671875 27.761719 27.542969 32.039062 28.039062 36.214844 C 28.558594 40.578125 29.765625 44.832031 31.878906 48.828125 C 33.601562 52.082031 35.804688 54.945312 38.363281 57.457031 C 40.933594 59.980469 43.867188 62.164062 47.039062 64.046875 C 47.347656 64.230469 47.675781 64.324219 47.996094 64.324219 C 48.316406 64.324219 48.644531 64.230469 48.953125 64.046875 C 52.125 62.164062 55.058594 59.980469 57.628906 57.457031 C 60.1875 54.945312 62.390625 52.082031 64.113281 48.828125 C 66.226562 44.832031 67.433594 40.578125 67.953125 36.214844 C 68.449219 32.039062 68.320312 27.761719 67.75 23.515625 L 48.542969 17.558594 C 48.351562 17.5 48.175781 17.472656 47.996094 17.472656 C 47.816406 17.472656 47.640625 17.5 47.449219 17.558594 Z M 38.589844 40.199219 L 44.109375 46.992188 C 44.902344 47.96875 46.402344 48.140625 47.378906 47.328125 C 47.53125 47.214844 47.667969 47.085938 47.789062 46.933594 L 51.882812 41.898438 L 53.3125 40.140625 L 57.402344 35.101562 C 58.207031 34.113281 58.054688 32.636719 57.066406 31.832031 C 56.074219 31.027344 54.597656 31.183594 53.796875 32.171875 L 49.703125 37.207031 L 48.273438 38.964844 L 45.925781 41.855469 L 42.195312 37.265625 C 41.390625 36.273438 39.914062 36.121094 38.925781 36.925781 C 37.9375 37.730469 37.785156 39.207031 38.589844 40.199219 Z M 63.945312 26.664062 L 47.996094 21.714844 L 32.050781 26.660156 C 31.753906 30.058594 31.789062 33.472656 32.289062 36.800781 C 32.808594 40.300781 33.839844 43.699219 35.53125 46.898438 C 37.007812 49.6875 38.894531 52.152344 41.078125 54.328125 C 43.148438 56.390625 45.484375 58.203125 47.996094 59.789062 C 50.507812 58.199219 52.84375 56.390625 54.914062 54.328125 C 57.097656 52.152344 58.984375 49.6875 60.460938 46.898438 C 62.148438 43.699219 63.183594 40.300781 63.703125 36.800781 C 64.199219 33.472656 64.238281 30.058594 63.945312 26.664062 Z M 63.945312 26.664062 " fill-opacity="1" fill-rule="evenodd"/></g></svg>