<svg xmlns="http://www.w3.org/2000/svg" xmlns:xlink="http://www.w3.org/1999/xlink" width="128" zoomAndPan="magnify" viewBox="0 0 96 48" height="64" preserveAspectRatio="xMidYMid meet" version="1.0"><defs><clipPath id="463f821814"><path d="M 3.332031 5.175781 L 92.964844 5.175781 L 92.964844 41.910156 L 3.332031 41.910156 Z M 3.332031 5.175781 " clip-rule="nonzero"/></clipPath></defs><g clip-path="url(#463f821814)"><path fill="#4d4d4d" d="M 74.550781 41.929688 L 21.714844 41.929688 C 11.554688 41.929688 3.316406 33.703125 3.316406 23.558594 C 3.316406 13.410156 11.554688 5.1875 21.714844 5.1875 L 74.550781 5.1875 C 84.710938 5.1875 92.949219 13.410156 92.949219 23.558594 C 92.949219 33.703125 84.714844 41.929688 74.550781 41.929688 Z M 74.550781 41.929688 " fill-opacity="1" fill-rule="nonzero"/></g><path fill="#ffffff" d="M 38.757812 23.558594 C 38.757812 24.089844 38.734375 24.625 38.679688 25.15625 C 38.628906 25.6875 38.550781 26.214844 38.445312 26.738281 C 38.339844 27.261719 38.210938 27.777344 38.054688 28.289062 C 37.902344 28.800781 37.722656 29.300781 37.515625 29.796875 C 37.3125 30.289062 37.082031 30.769531 36.832031 31.242188 C 36.578125 31.710938 36.304688 32.167969 36.007812 32.613281 C 35.710938 33.058594 35.394531 33.484375 35.054688 33.898438 C 34.714844 34.3125 34.355469 34.707031 33.976562 35.082031 C 33.601562 35.460938 33.203125 35.820312 32.789062 36.15625 C 32.378906 36.496094 31.949219 36.8125 31.503906 37.109375 C 31.058594 37.40625 30.601562 37.683594 30.128906 37.933594 C 29.65625 38.183594 29.175781 38.414062 28.679688 38.617188 C 28.1875 38.820312 27.683594 39 27.171875 39.15625 C 26.660156 39.3125 26.144531 39.441406 25.617188 39.546875 C 25.09375 39.648438 24.566406 39.726562 24.035156 39.78125 C 23.503906 39.832031 22.96875 39.859375 22.433594 39.859375 C 21.898438 39.859375 21.367188 39.832031 20.832031 39.78125 C 20.300781 39.726562 19.773438 39.648438 19.25 39.546875 C 18.726562 39.441406 18.207031 39.3125 17.695312 39.15625 C 17.183594 39 16.679688 38.820312 16.1875 38.617188 C 15.691406 38.414062 15.210938 38.183594 14.738281 37.933594 C 14.265625 37.683594 13.808594 37.40625 13.363281 37.109375 C 12.917969 36.8125 12.492188 36.496094 12.078125 36.15625 C 11.664062 35.820312 11.269531 35.460938 10.890625 35.082031 C 10.511719 34.707031 10.152344 34.3125 9.8125 33.898438 C 9.476562 33.484375 9.15625 33.058594 8.859375 32.613281 C 8.5625 32.167969 8.289062 31.710938 8.035156 31.242188 C 7.785156 30.769531 7.554688 30.289062 7.351562 29.796875 C 7.148438 29.300781 6.96875 28.800781 6.8125 28.289062 C 6.65625 27.777344 6.527344 27.261719 6.421875 26.738281 C 6.316406 26.214844 6.238281 25.6875 6.1875 25.15625 C 6.136719 24.625 6.109375 24.089844 6.109375 23.558594 C 6.109375 23.023438 6.136719 22.492188 6.1875 21.957031 C 6.238281 21.425781 6.316406 20.898438 6.421875 20.375 C 6.527344 19.851562 6.65625 19.335938 6.8125 18.824219 C 6.96875 18.3125 7.148438 17.8125 7.351562 17.320312 C 7.554688 16.824219 7.785156 16.34375 8.035156 15.871094 C 8.289062 15.402344 8.5625 14.945312 8.859375 14.5 C 9.15625 14.054688 9.476562 13.628906 9.8125 13.214844 C 10.152344 12.800781 10.511719 12.40625 10.890625 12.03125 C 11.269531 11.652344 11.664062 11.292969 12.078125 10.957031 C 12.492188 10.617188 12.917969 10.300781 13.363281 10.003906 C 13.808594 9.707031 14.265625 9.433594 14.738281 9.179688 C 15.210938 8.929688 15.691406 8.699219 16.1875 8.496094 C 16.679688 8.292969 17.183594 8.113281 17.695312 7.957031 C 18.207031 7.800781 18.726562 7.671875 19.25 7.570312 C 19.773438 7.464844 20.300781 7.386719 20.832031 7.332031 C 21.367188 7.28125 21.898438 7.253906 22.433594 7.253906 C 22.96875 7.253906 23.503906 7.28125 24.035156 7.332031 C 24.566406 7.386719 25.09375 7.464844 25.617188 7.570312 C 26.144531 7.671875 26.660156 7.800781 27.171875 7.957031 C 27.683594 8.113281 28.1875 8.292969 28.679688 8.496094 C 29.175781 8.699219 29.65625 8.929688 30.128906 9.179688 C 30.601562 9.433594 31.058594 9.707031 31.503906 10.003906 C 31.949219 10.300781 32.378906 10.617188 32.789062 10.957031 C 33.203125 11.292969 33.601562 11.652344 33.976562 12.03125 C 34.355469 12.40625 34.714844 12.800781 35.054688 13.214844 C 35.394531 13.628906 35.710938 14.054688 36.007812 14.5 C 36.304688 14.945312 36.578125 15.402344 36.832031 15.871094 C 37.082031 16.34375 37.3125 16.824219 37.515625 17.320312 C 37.722656 17.8125 37.902344 18.3125 38.054688 18.824219 C 38.210938 19.335938 38.339844 19.851562 38.445312 20.375 C 38.550781 20.898438 38.628906 21.425781 38.679688 21.957031 C 38.734375 22.492188 38.757812 23.023438 38.757812 23.558594 Z M 38.757812 23.558594 " fill-opacity="1" fill-rule="nonzero"/><path fill="#f2f2f2" d="M 47.484375 19.164062 L 50.710938 19.164062 C 53.425781 19.164062 55.097656 20.847656 55.097656 23.691406 C 55.097656 26.773438 53.453125 28.632812 50.605469 28.632812 L 47.484375 28.632812 Z M 49.167969 27.304688 L 50.578125 27.304688 C 52.421875 27.304688 53.363281 25.972656 53.363281 23.722656 C 53.363281 21.773438 52.398438 20.515625 50.589844 20.515625 L 49.164062 20.515625 L 49.164062 27.304688 Z M 49.167969 27.304688 " fill-opacity="1" fill-rule="nonzero"/><path fill="#f2f2f2" d="M 58.140625 26.167969 L 57.386719 28.632812 L 55.734375 28.632812 C 56.042969 27.714844 58.351562 20.207031 58.695312 19.164062 L 60.851562 19.164062 L 63.957031 28.632812 L 62.191406 28.632812 L 61.390625 26.167969 Z M 61.046875 24.769531 C 60.382812 22.675781 59.941406 21.300781 59.734375 20.460938 L 59.71875 20.460938 C 59.476562 21.535156 59.023438 23.003906 58.472656 24.769531 Z M 61.046875 24.769531 " fill-opacity="1" fill-rule="nonzero"/><path fill="#f2f2f2" d="M 66.84375 24.585938 L 66.84375 28.632812 L 65.199219 28.632812 L 65.199219 19.164062 L 68.886719 19.164062 C 70.636719 19.164062 71.882812 20.03125 71.882812 21.683594 C 71.882812 23.003906 71.152344 23.617188 70.378906 23.898438 C 71.335938 24.246094 71.703125 25.003906 71.703125 26.21875 L 71.703125 26.4375 C 71.703125 27.292969 71.742188 28.097656 71.832031 28.636719 L 70.207031 28.636719 C 70.074219 28.246094 70.039062 27.527344 70.039062 26.421875 L 70.039062 26.191406 C 70.039062 25.019531 69.613281 24.589844 68.261719 24.589844 L 66.84375 24.589844 Z M 66.84375 23.246094 L 68.394531 23.246094 C 69.425781 23.246094 70.214844 22.964844 70.214844 21.820312 C 70.214844 20.894531 69.5625 20.503906 68.667969 20.503906 L 66.847656 20.503906 L 66.847656 23.246094 Z M 66.84375 23.246094 " fill-opacity="1" fill-rule="nonzero"/><path fill="#f2f2f2" d="M 73.660156 19.164062 L 75.304688 19.164062 L 75.304688 23.667969 C 76.328125 22.410156 77.921875 20.488281 78.988281 19.164062 L 80.992188 19.164062 L 77.652344 23.015625 L 81.195312 28.632812 L 79.191406 28.632812 L 76.5 24.121094 L 75.3125 25.394531 L 75.3125 28.632812 L 73.660156 28.632812 Z M 73.660156 19.164062 " fill-opacity="1" fill-rule="nonzero"/><path fill="#4d4d4d" d="M 16.230469 24.671875 C 15.0625 21.617188 15.707031 18.3125 17.640625 15.953125 C 17.316406 16.03125 16.992188 16.128906 16.671875 16.253906 C 12.6875 17.773438 10.691406 22.230469 12.21875 26.207031 C 13.738281 30.183594 18.207031 32.175781 22.1875 30.65625 C 22.507812 30.53125 22.816406 30.390625 23.109375 30.230469 C 20.089844 29.753906 17.402344 27.726562 16.230469 24.671875 Z M 16.230469 24.671875 " fill-opacity="1" fill-rule="nonzero"/><path fill="#4d4d4d" d="M 26.25 19.988281 L 28.316406 20.640625 L 26.25 21.292969 L 25.59375 23.355469 L 24.9375 21.292969 L 22.875 20.640625 L 24.9375 19.988281 L 25.59375 17.921875 Z M 26.25 19.988281 " fill-opacity="1" fill-rule="nonzero"/><path fill="#4d4d4d" d="M 31.792969 22.007812 L 33.167969 22.441406 L 31.792969 22.875 L 31.359375 24.246094 L 30.925781 22.875 L 29.554688 22.441406 L 30.925781 22.007812 L 31.359375 20.640625 Z M 31.792969 22.007812 " fill-opacity="1" fill-rule="nonzero"/><path fill="#4d4d4d" d="M 28.621094 24.613281 L 29.585938 24.917969 L 28.621094 25.226562 L 28.316406 26.1875 L 28.011719 25.226562 L 27.046875 24.917969 L 28.011719 24.613281 L 28.316406 23.652344 Z M 28.621094 24.613281 " fill-opacity="1" fill-rule="nonzero"/></svg>