<svg xmlns="http://www.w3.org/2000/svg" xmlns:xlink="http://www.w3.org/1999/xlink" width="128" zoomAndPan="magnify" viewBox="0 0 96 48" height="64" preserveAspectRatio="xMidYMid meet" version="1.0"><defs><clipPath id="8c4218c6ed"><path d="M 3.332031 5.027344 L 92.964844 5.027344 L 92.964844 41.761719 L 3.332031 41.761719 Z M 3.332031 5.027344 " clip-rule="nonzero"/></clipPath><clipPath id="20400e5664"><path d="M 14 5.027344 L 92.964844 5.027344 L 92.964844 41.761719 L 14 41.761719 Z M 14 5.027344 " clip-rule="nonzero"/></clipPath></defs><g clip-path="url(#8c4218c6ed)"><path fill="#f1f5f9" d="M 73.992188 41.484375 L 21.660156 41.484375 C 11.59375 41.484375 3.433594 33.328125 3.433594 23.261719 C 3.433594 13.195312 11.59375 5.039062 21.660156 5.039062 L 73.992188 5.039062 C 84.058594 5.039062 92.21875 13.195312 92.21875 23.261719 C 92.21875 33.328125 84.058594 41.484375 73.992188 41.484375 Z M 73.992188 41.484375 " fill-opacity="1" fill-rule="nonzero"/></g><g clip-path="url(#20400e5664)"><path fill="#94a3b8" d="M 74.289062 5.027344 L 73.757812 5.039062 C 83.824219 5.039062 91.984375 13.1875 91.984375 23.25 C 91.984375 33.316406 83.828125 41.476562 73.761719 41.476562 L 21.429688 41.476562 C 19.058594 41.476562 16.804688 40.945312 14.726562 40.121094 C 17.117188 41.265625 19.777344 41.980469 22.601562 41.980469 L 74.289062 41.980469 C 84.394531 41.980469 92.585938 33.789062 92.585938 23.683594 L 92.585938 23.324219 C 92.585938 13.222656 84.394531 5.027344 74.289062 5.027344 Z M 74.289062 5.027344 " fill-opacity="1" fill-rule="nonzero"/></g><path fill="#fff9d6" d="M 89.824219 23.261719 C 89.824219 23.792969 89.796875 24.320312 89.746094 24.847656 C 89.691406 25.375 89.613281 25.898438 89.511719 26.417969 C 89.410156 26.9375 89.28125 27.449219 89.125 27.957031 C 88.972656 28.460938 88.792969 28.960938 88.589844 29.449219 C 88.390625 29.941406 88.164062 30.417969 87.914062 30.886719 C 87.664062 31.351562 87.390625 31.804688 87.097656 32.246094 C 86.804688 32.6875 86.488281 33.113281 86.152344 33.519531 C 85.816406 33.929688 85.460938 34.320312 85.085938 34.695312 C 84.710938 35.070312 84.320312 35.425781 83.910156 35.761719 C 83.5 36.097656 83.074219 36.414062 82.636719 36.707031 C 82.195312 37.003906 81.742188 37.273438 81.273438 37.523438 C 80.808594 37.773438 80.328125 38 79.839844 38.203125 C 79.351562 38.40625 78.851562 38.582031 78.34375 38.738281 C 77.839844 38.890625 77.324219 39.019531 76.804688 39.121094 C 76.285156 39.226562 75.761719 39.304688 75.234375 39.355469 C 74.707031 39.40625 74.179688 39.433594 73.652344 39.433594 C 73.121094 39.433594 72.59375 39.40625 72.066406 39.355469 C 71.539062 39.304688 71.015625 39.226562 70.496094 39.121094 C 69.976562 39.019531 69.464844 38.890625 68.957031 38.738281 C 68.449219 38.582031 67.953125 38.40625 67.460938 38.203125 C 66.972656 38 66.496094 37.773438 66.027344 37.523438 C 65.558594 37.273438 65.105469 37.003906 64.667969 36.707031 C 64.226562 36.414062 63.800781 36.097656 63.390625 35.761719 C 62.980469 35.425781 62.589844 35.070312 62.214844 34.695312 C 61.839844 34.320312 61.484375 33.929688 61.148438 33.519531 C 60.8125 33.113281 60.5 32.6875 60.203125 32.246094 C 59.910156 31.804688 59.636719 31.351562 59.386719 30.886719 C 59.140625 30.417969 58.914062 29.941406 58.710938 29.449219 C 58.507812 28.960938 58.328125 28.460938 58.175781 27.957031 C 58.023438 27.449219 57.894531 26.9375 57.789062 26.417969 C 57.6875 25.898438 57.609375 25.375 57.558594 24.847656 C 57.503906 24.320312 57.480469 23.792969 57.480469 23.261719 C 57.480469 22.730469 57.503906 22.203125 57.558594 21.675781 C 57.609375 21.148438 57.6875 20.625 57.789062 20.105469 C 57.894531 19.585938 58.023438 19.074219 58.175781 18.566406 C 58.328125 18.058594 58.507812 17.5625 58.710938 17.074219 C 58.914062 16.582031 59.140625 16.105469 59.386719 15.636719 C 59.636719 15.171875 59.910156 14.71875 60.203125 14.277344 C 60.5 13.835938 60.8125 13.410156 61.148438 13.003906 C 61.484375 12.59375 61.839844 12.199219 62.214844 11.828125 C 62.589844 11.453125 62.980469 11.097656 63.390625 10.761719 C 63.800781 10.425781 64.226562 10.109375 64.667969 9.816406 C 65.105469 9.519531 65.558594 9.25 66.027344 9 C 66.496094 8.75 66.972656 8.523438 67.460938 8.320312 C 67.953125 8.117188 68.449219 7.941406 68.957031 7.785156 C 69.464844 7.632812 69.976562 7.503906 70.496094 7.402344 C 71.015625 7.296875 71.539062 7.21875 72.066406 7.167969 C 72.59375 7.117188 73.121094 7.089844 73.652344 7.089844 C 74.179688 7.089844 74.707031 7.117188 75.234375 7.167969 C 75.761719 7.21875 76.285156 7.296875 76.804688 7.402344 C 77.324219 7.503906 77.839844 7.632812 78.34375 7.785156 C 78.851562 7.941406 79.351562 8.117188 79.839844 8.320312 C 80.328125 8.523438 80.808594 8.75 81.273438 9 C 81.742188 9.25 82.195312 9.519531 82.636719 9.816406 C 83.074219 10.109375 83.5 10.425781 83.910156 10.761719 C 84.320312 11.097656 84.710938 11.453125 85.085938 11.828125 C 85.460938 12.199219 85.816406 12.59375 86.152344 13.003906 C 86.488281 13.410156 86.804688 13.835938 87.097656 14.277344 C 87.390625 14.71875 87.664062 15.171875 87.914062 15.636719 C 88.164062 16.105469 88.390625 16.582031 88.589844 17.074219 C 88.792969 17.5625 88.972656 18.058594 89.125 18.566406 C 89.28125 19.074219 89.410156 19.585938 89.511719 20.105469 C 89.613281 20.625 89.691406 21.148438 89.746094 21.675781 C 89.796875 22.203125 89.824219 22.730469 89.824219 23.261719 Z M 89.824219 23.261719 " fill-opacity="1" fill-rule="nonzero"/><path fill="#94a3b8" d="M 57.480469 23.261719 C 57.480469 16.351562 61.820312 10.453125 67.917969 8.136719 C 61.496094 10.164062 56.839844 16.171875 56.839844 23.261719 C 56.839844 30.351562 61.496094 36.359375 67.917969 38.386719 C 61.820312 36.070312 57.480469 30.171875 57.480469 23.261719 Z M 57.480469 23.261719 " fill-opacity="1" fill-rule="nonzero"/><path fill="#64748b" d="M 16.292969 18.804688 L 17.949219 18.804688 L 17.949219 26.824219 L 22.257812 26.824219 L 22.0625 28.199219 L 16.292969 28.199219 Z M 16.292969 18.804688 " fill-opacity="1" fill-rule="nonzero"/><path fill="#64748b" d="M 23.511719 18.804688 L 25.167969 18.804688 L 25.167969 28.195312 L 23.511719 28.195312 Z M 23.511719 18.804688 " fill-opacity="1" fill-rule="nonzero"/><path fill="#64748b" d="M 34.671875 28.195312 L 33.433594 28.195312 C 33.375 27.902344 33.328125 27.480469 33.304688 27.015625 C 32.820312 28 31.882812 28.332031 30.652344 28.332031 C 28.195312 28.332031 26.9375 26.269531 26.9375 23.550781 C 26.9375 20.84375 28.425781 18.675781 31.144531 18.675781 C 33.300781 18.675781 34.445312 19.863281 34.691406 21.460938 L 33.0625 21.460938 C 32.851562 20.726562 32.367188 20.027344 31.054688 20.027344 C 29.316406 20.027344 28.644531 21.640625 28.644531 23.5625 C 28.644531 25.425781 29.328125 27 31.003906 27 C 32.625 27 33.03125 25.871094 33.03125 24.484375 L 33.03125 24.4375 L 30.90625 24.4375 L 30.90625 23.015625 L 34.671875 23.015625 C 34.671875 25.765625 34.671875 27.957031 34.671875 28.195312 Z M 34.671875 28.195312 " fill-opacity="1" fill-rule="nonzero"/><path fill="#64748b" d="M 36.640625 18.804688 L 38.296875 18.804688 L 38.296875 22.59375 L 42.058594 22.59375 L 42.058594 18.804688 L 43.71875 18.804688 L 43.71875 28.195312 L 42.058594 28.195312 L 42.058594 23.980469 L 38.296875 23.980469 L 38.296875 28.195312 L 36.640625 28.195312 Z M 36.640625 18.804688 " fill-opacity="1" fill-rule="nonzero"/><path fill="#64748b" d="M 47.613281 20.1875 L 44.996094 20.1875 L 44.996094 18.804688 L 51.90625 18.804688 L 51.90625 20.1875 L 49.285156 20.1875 L 49.285156 28.195312 L 47.613281 28.195312 Z M 47.613281 20.1875 " fill-opacity="1" fill-rule="nonzero"/><path fill="#64748b" d="M 78.722656 23.539062 C 78.722656 23.871094 78.691406 24.199219 78.625 24.527344 C 78.558594 24.851562 78.464844 25.171875 78.335938 25.476562 C 78.210938 25.785156 78.054688 26.078125 77.867188 26.351562 C 77.683594 26.628906 77.472656 26.886719 77.238281 27.121094 C 77.003906 27.355469 76.746094 27.566406 76.46875 27.75 C 76.195312 27.9375 75.902344 28.09375 75.59375 28.21875 C 75.285156 28.347656 74.96875 28.441406 74.644531 28.507812 C 74.316406 28.574219 73.988281 28.605469 73.65625 28.605469 C 73.324219 28.605469 72.992188 28.574219 72.667969 28.507812 C 72.339844 28.441406 72.023438 28.347656 71.714844 28.21875 C 71.410156 28.09375 71.117188 27.9375 70.839844 27.75 C 70.5625 27.566406 70.308594 27.355469 70.074219 27.121094 C 69.835938 26.886719 69.628906 26.628906 69.441406 26.351562 C 69.257812 26.078125 69.101562 25.785156 68.976562 25.476562 C 68.847656 25.171875 68.75 24.851562 68.6875 24.527344 C 68.621094 24.199219 68.589844 23.871094 68.589844 23.539062 C 68.589844 23.207031 68.621094 22.875 68.6875 22.550781 C 68.75 22.222656 68.847656 21.90625 68.976562 21.601562 C 69.101562 21.292969 69.257812 21 69.441406 20.722656 C 69.628906 20.449219 69.835938 20.191406 70.074219 19.957031 C 70.308594 19.722656 70.5625 19.511719 70.839844 19.324219 C 71.117188 19.140625 71.410156 18.984375 71.714844 18.859375 C 72.023438 18.730469 72.339844 18.632812 72.667969 18.570312 C 72.992188 18.503906 73.324219 18.472656 73.65625 18.472656 C 73.988281 18.472656 74.316406 18.503906 74.644531 18.570312 C 74.96875 18.632812 75.285156 18.730469 75.59375 18.859375 C 75.902344 18.984375 76.195312 19.140625 76.46875 19.324219 C 76.746094 19.511719 77.003906 19.722656 77.238281 19.957031 C 77.472656 20.191406 77.683594 20.449219 77.867188 20.722656 C 78.054688 21 78.210938 21.292969 78.335938 21.601562 C 78.464844 21.90625 78.558594 22.222656 78.625 22.550781 C 78.691406 22.875 78.722656 23.207031 78.722656 23.539062 Z M 78.722656 23.539062 " fill-opacity="1" fill-rule="nonzero"/><path fill="#64748b" d="M 73.335938 12.453125 L 73.972656 12.453125 L 73.972656 16.351562 L 73.335938 16.351562 Z M 73.335938 12.453125 " fill-opacity="1" fill-rule="nonzero"/><path fill="#64748b" d="M 66.28125 15.257812 L 66.773438 14.847656 L 69.277344 17.832031 L 68.789062 18.242188 Z M 66.28125 15.257812 " fill-opacity="1" fill-rule="nonzero"/><path fill="#64748b" d="M 62.679688 21.933594 L 62.792969 21.304688 L 66.628906 21.976562 L 66.519531 22.609375 Z M 62.679688 21.933594 " fill-opacity="1" fill-rule="nonzero"/><path fill="#64748b" d="M 63.898438 28.816406 L 67.273438 26.863281 L 67.59375 27.417969 L 64.21875 29.371094 Z M 63.898438 28.816406 " fill-opacity="1" fill-rule="nonzero"/><path fill="#64748b" d="M 69.582031 33.855469 L 70.90625 30.191406 L 71.507812 30.410156 L 70.183594 34.074219 Z M 69.582031 33.855469 " fill-opacity="1" fill-rule="nonzero"/><path fill="#64748b" d="M 75.832031 30.394531 L 76.429688 30.171875 L 77.773438 33.832031 L 77.171875 34.050781 Z M 75.832031 30.394531 " fill-opacity="1" fill-rule="nonzero"/><path fill="#64748b" d="M 79.730469 27.394531 L 80.050781 26.839844 L 83.429688 28.777344 L 83.109375 29.332031 Z M 79.730469 27.394531 " fill-opacity="1" fill-rule="nonzero"/><path fill="#64748b" d="M 80.671875 21.953125 L 84.507812 21.261719 L 84.621094 21.894531 L 80.785156 22.582031 Z M 80.671875 21.953125 " fill-opacity="1" fill-rule="nonzero"/><path fill="#64748b" d="M 78.011719 17.8125 L 80.503906 14.816406 L 80.996094 15.226562 L 78.503906 18.21875 Z M 78.011719 17.8125 " fill-opacity="1" fill-rule="nonzero"/></svg>