<svg xmlns="http://www.w3.org/2000/svg" xmlns:xlink="http://www.w3.org/1999/xlink" width="512" zoomAndPan="magnify" viewBox="0 0 384 383.999986" height="512" preserveAspectRatio="xMidYMid meet" version="1.0"><defs><clipPath id="e7a1c33863"><path d="M 19.199219 28.273438 L 364.949219 28.273438 L 364.949219 279 L 19.199219 279 Z M 19.199219 28.273438 " clip-rule="nonzero"/></clipPath></defs><path fill="#000000" d="M 143.515625 160.96875 C 143.515625 150.632812 145.320312 119.664062 145.320312 119.664062 C 145.371094 118.546875 146.351562 117.675781 147.496094 117.789062 C 148.484375 117.890625 149.21875 118.757812 149.261719 119.75 L 150.871094 156.507812 C 150.96875 158.816406 152.738281 160.789062 155.042969 160.957031 C 157.605469 161.140625 159.769531 159.175781 159.878906 156.660156 L 161.492188 119.722656 C 161.539062 118.699219 162.332031 117.839844 163.355469 117.78125 C 163.414062 117.777344 163.46875 117.78125 163.523438 117.78125 C 163.582031 117.78125 163.636719 117.777344 163.695312 117.78125 C 164.714844 117.839844 165.511719 118.699219 165.554688 119.722656 L 167.171875 156.660156 C 167.28125 159.175781 169.445312 161.140625 172.003906 160.957031 C 174.3125 160.789062 176.078125 158.816406 176.179688 156.507812 L 177.785156 119.75 C 177.832031 118.757812 178.566406 117.890625 179.554688 117.789062 C 180.699219 117.675781 181.679688 118.546875 181.730469 119.664062 C 181.730469 119.664062 183.535156 150.632812 183.535156 160.96875 C 183.535156 180.101562 169.515625 198.8125 169.515625 203.953125 L 169.515625 232.289062 C 172.960938 232.289062 175.753906 235.082031 175.753906 238.527344 L 175.753906 308.839844 C 175.753906 315.59375 170.277344 321.074219 163.523438 321.074219 C 156.769531 321.074219 151.292969 315.59375 151.292969 308.839844 L 151.292969 238.527344 C 151.292969 235.082031 154.085938 232.289062 157.535156 232.289062 L 157.535156 203.953125 C 157.535156 198.8125 143.515625 180.101562 143.515625 160.96875 " fill-opacity="1" fill-rule="nonzero"/><path fill="#000000" d="M 210.277344 232.289062 L 210.277344 203.953125 C 210.273438 198.8125 192.078125 185.628906 192.078125 166.496094 C 192.078125 141.550781 206.027344 119.664062 216.269531 119.664062 C 226.503906 119.664062 240.453125 141.550781 240.453125 166.496094 C 240.453125 185.617188 222.277344 198.796875 222.257812 203.945312 L 222.257812 232.289062 C 225.703125 232.289062 228.496094 235.082031 228.496094 238.527344 L 228.496094 308.839844 C 228.496094 315.59375 223.019531 321.074219 216.269531 321.074219 C 209.511719 321.074219 204.035156 315.59375 204.035156 308.839844 L 204.035156 238.527344 C 204.035156 235.082031 206.832031 232.289062 210.277344 232.289062 " fill-opacity="1" fill-rule="nonzero"/><path fill="#000000" d="M 312.820312 139.078125 C 312.820312 139.078125 312.730469 138.023438 312.640625 136.96875 C 312.59375 136.441406 312.546875 135.90625 312.5 135.511719 C 312.453125 135.113281 312.421875 134.851562 312.421875 134.851562 C 312.421875 134.851562 312.339844 135.058594 312.214844 135.378906 C 312.082031 135.695312 311.910156 136.117188 311.734375 136.539062 C 311.378906 137.382812 311.019531 138.222656 311.019531 138.222656 C 310.199219 138.71875 309.003906 139.546875 307.828125 140.695312 C 306.652344 141.839844 305.488281 143.300781 304.710938 145.035156 C 304.324219 145.898438 304.019531 146.84375 303.851562 147.851562 C 303.765625 148.355469 303.71875 148.875 303.707031 149.410156 C 303.703125 149.679688 303.710938 149.953125 303.726562 150.226562 C 303.738281 150.503906 303.757812 150.789062 303.792969 151.078125 C 303.921875 152.230469 304.261719 153.433594 304.769531 154.746094 C 305.023438 155.40625 305.359375 156.066406 305.71875 156.773438 C 306.085938 157.476562 306.515625 158.199219 307.015625 158.949219 C 310.074219 158.75 312.191406 157.808594 313.5625 156.328125 C 314.25 155.589844 314.765625 154.710938 315.097656 153.757812 C 315.433594 152.804688 315.613281 151.757812 315.675781 150.667969 C 315.777344 148.503906 315.382812 146.175781 314.777344 144.117188 C 314.625 143.601562 314.476562 143.09375 314.304688 142.621094 C 314.132812 142.144531 313.957031 141.691406 313.785156 141.265625 C 313.441406 140.410156 313.117188 139.65625 312.820312 139.078125 " fill-opacity="1" fill-rule="nonzero"/><path fill="#000000" d="M 314.089844 173.382812 C 317.234375 173.613281 319.523438 172.960938 321.128906 171.652344 C 322.726562 170.351562 323.667969 168.394531 324.078125 166.207031 C 324.183594 165.660156 324.261719 165.097656 324.3125 164.527344 C 324.363281 163.957031 324.371094 163.386719 324.371094 162.808594 C 324.359375 161.660156 324.273438 160.503906 324.105469 159.417969 C 323.800781 157.226562 323.238281 155.292969 322.839844 154.011719 C 322.839844 154.011719 322.859375 153.742188 322.878906 153.335938 C 322.894531 152.929688 322.925781 152.390625 322.949219 151.84375 C 322.992188 150.75 323.039062 149.652344 323.039062 149.652344 C 323.039062 149.652344 322.566406 150.464844 322.089844 151.277344 C 321.609375 152.082031 321.125 152.886719 321.125 152.886719 C 320.21875 153.277344 318.890625 153.945312 317.53125 154.945312 C 316.171875 155.941406 314.789062 157.257812 313.75 158.910156 C 313.222656 159.738281 312.78125 160.652344 312.46875 161.652344 C 312.316406 162.148438 312.195312 162.667969 312.109375 163.210938 C 312.015625 163.757812 311.960938 164.328125 311.949219 164.921875 C 311.9375 165.515625 311.980469 166.125 312.054688 166.773438 C 312.121094 167.417969 312.246094 168.089844 312.421875 168.789062 C 312.601562 169.484375 312.8125 170.21875 313.089844 170.980469 C 313.230469 171.367188 313.386719 171.757812 313.554688 172.152344 C 313.726562 172.550781 313.894531 172.960938 314.089844 173.382812 " fill-opacity="1" fill-rule="nonzero"/><path fill="#000000" d="M 330.875 170.667969 C 330.875 170.667969 330.929688 170.394531 331.015625 169.984375 C 331.097656 169.578125 331.214844 169.027344 331.316406 168.476562 C 331.507812 167.375 331.703125 166.269531 331.703125 166.269531 C 331.703125 166.269531 331.109375 167.027344 330.515625 167.785156 C 329.914062 168.527344 329.316406 169.277344 329.316406 169.277344 C 328.339844 169.539062 326.886719 170.03125 325.367188 170.847656 C 323.851562 171.660156 322.242188 172.804688 320.945312 174.335938 C 320.296875 175.101562 319.726562 175.960938 319.269531 176.929688 C 318.796875 177.902344 318.449219 178.980469 318.269531 180.171875 C 317.863281 182.585938 318.136719 185.445312 319.230469 189.070312 C 322.386719 189.75 324.796875 189.417969 326.621094 188.316406 C 328.453125 187.21875 329.636719 185.378906 330.402344 183.210938 C 330.761719 182.132812 331.011719 180.976562 331.183594 179.804688 C 331.335938 178.636719 331.390625 177.460938 331.398438 176.328125 C 331.382812 174.070312 331.125 172.015625 330.875 170.667969 " fill-opacity="1" fill-rule="nonzero"/><path fill="#000000" d="M 322.214844 205.742188 C 325.332031 206.882812 327.832031 206.882812 329.824219 206.023438 C 330.824219 205.597656 331.691406 204.960938 332.453125 204.167969 C 332.832031 203.769531 333.183594 203.335938 333.503906 202.867188 C 333.832031 202.402344 334.113281 201.902344 334.378906 201.386719 C 335.445312 199.300781 336.058594 196.839844 336.371094 194.550781 C 336.449219 193.976562 336.511719 193.414062 336.558594 192.871094 C 336.578125 192.601562 336.601562 192.332031 336.625 192.070312 C 336.636719 191.8125 336.644531 191.558594 336.652344 191.308594 C 336.683594 190.320312 336.679688 189.441406 336.660156 188.738281 C 336.660156 188.738281 336.757812 188.46875 336.898438 188.066406 C 337.035156 187.660156 337.21875 187.121094 337.40625 186.582031 C 337.585938 186.039062 337.769531 185.492188 337.90625 185.085938 C 338.046875 184.675781 338.128906 184.402344 338.128906 184.402344 C 338.128906 184.402344 337.953125 184.574219 337.6875 184.832031 C 337.417969 185.085938 337.058594 185.425781 336.699219 185.765625 C 335.984375 186.433594 335.261719 187.105469 335.261719 187.105469 C 334.234375 187.234375 332.695312 187.527344 331.03125 188.136719 C 329.371094 188.75 327.589844 189.675781 326.0625 191.046875 C 325.289062 191.726562 324.574219 192.523438 323.972656 193.4375 C 323.667969 193.898438 323.402344 194.386719 323.152344 194.910156 C 322.898438 195.4375 322.679688 195.992188 322.5 196.585938 C 321.777344 198.96875 321.597656 201.917969 322.214844 205.742188 " fill-opacity="1" fill-rule="nonzero"/><path fill="#000000" d="M 322.902344 223.105469 C 325.898438 224.691406 328.433594 225.046875 330.578125 224.457031 C 332.726562 223.871094 334.492188 222.355469 335.851562 220.386719 C 336.191406 219.898438 336.519531 219.378906 336.8125 218.84375 C 337.101562 218.304688 337.371094 217.75 337.617188 217.183594 C 337.863281 216.617188 338.097656 216.042969 338.296875 215.464844 C 338.496094 214.890625 338.671875 214.3125 338.835938 213.746094 C 338.996094 213.175781 339.144531 212.613281 339.265625 212.070312 C 339.386719 211.53125 339.488281 211.003906 339.574219 210.503906 C 339.753906 209.503906 339.878906 208.613281 339.945312 207.898438 C 339.945312 207.898438 340.480469 206.863281 341.011719 205.824219 C 341.28125 205.300781 341.535156 204.773438 341.726562 204.378906 C 341.917969 203.980469 342.046875 203.714844 342.046875 203.714844 C 342.046875 203.714844 341.230469 204.304688 340.414062 204.894531 C 340.007812 205.1875 339.59375 205.476562 339.285156 205.691406 C 338.972656 205.90625 338.765625 206.050781 338.765625 206.050781 C 337.703125 206.035156 336.101562 206.113281 334.328125 206.5 C 332.554688 206.882812 330.609375 207.570312 328.867188 208.742188 C 328.429688 209.03125 328.003906 209.355469 327.597656 209.710938 C 327.1875 210.066406 326.789062 210.453125 326.414062 210.875 C 326.042969 211.296875 325.691406 211.753906 325.367188 212.25 C 325.207031 212.5 325.054688 212.757812 324.90625 213.023438 C 324.753906 213.292969 324.613281 213.570312 324.476562 213.859375 C 324.207031 214.4375 323.964844 215.054688 323.765625 215.722656 C 323.570312 216.386719 323.378906 217.101562 323.25 217.863281 C 323.183594 218.242188 323.128906 218.640625 323.085938 219.046875 C 323.03125 219.453125 322.988281 219.875 322.957031 220.3125 C 322.894531 221.183594 322.894531 222.113281 322.902344 223.105469 " fill-opacity="1" fill-rule="nonzero"/><path fill="#000000" d="M 340.574219 227.800781 C 340.574219 227.800781 341.269531 226.832031 341.953125 225.847656 C 342.621094 224.855469 343.292969 223.859375 343.292969 223.859375 C 343.292969 223.859375 342.378906 224.34375 341.46875 224.824219 C 340.554688 225.292969 339.640625 225.761719 339.640625 225.761719 C 338.566406 225.601562 336.929688 225.457031 335.082031 225.597656 C 333.234375 225.738281 331.160156 226.164062 329.222656 227.105469 C 328.25 227.574219 327.328125 228.171875 326.445312 228.921875 C 325.5625 229.675781 324.765625 230.582031 324.0625 231.675781 C 322.636719 233.871094 321.640625 236.796875 321.175781 240.832031 C 323.988281 242.859375 326.507812 243.566406 328.773438 243.265625 C 329.902344 243.117188 330.964844 242.726562 331.960938 242.140625 C 332.941406 241.554688 333.851562 240.777344 334.6875 239.878906 C 336.347656 238.082031 337.671875 235.78125 338.636719 233.5625 C 338.761719 233.289062 338.878906 233.015625 338.992188 232.742188 C 339.097656 232.46875 339.203125 232.199219 339.300781 231.929688 C 339.5 231.394531 339.679688 230.878906 339.839844 230.386719 C 340.171875 229.402344 340.398438 228.511719 340.574219 227.800781 " fill-opacity="1" fill-rule="nonzero"/><path fill="#000000" d="M 316.957031 258.578125 C 319.519531 261.023438 321.976562 262.09375 324.3125 262.105469 C 325.476562 262.109375 326.621094 261.867188 327.695312 261.40625 C 328.773438 260.953125 329.808594 260.292969 330.78125 259.5 C 331.75 258.703125 332.636719 257.761719 333.464844 256.769531 C 334.285156 255.769531 335.003906 254.699219 335.664062 253.648438 C 336.308594 252.59375 336.851562 251.546875 337.324219 250.597656 C 337.792969 249.640625 338.144531 248.773438 338.425781 248.078125 C 338.425781 248.078125 338.636719 247.855469 338.953125 247.523438 C 339.109375 247.355469 339.292969 247.160156 339.488281 246.953125 C 339.679688 246.742188 339.886719 246.515625 340.09375 246.289062 C 340.914062 245.378906 341.734375 244.464844 341.734375 244.464844 C 341.734375 244.464844 340.738281 244.828125 339.742188 245.1875 C 338.753906 245.535156 337.761719 245.886719 337.761719 245.886719 C 336.691406 245.570312 335.054688 245.195312 333.160156 245.082031 C 332.214844 245.023438 331.203125 245.027344 330.171875 245.136719 C 329.132812 245.246094 328.066406 245.453125 327.015625 245.792969 C 325.96875 246.132812 324.933594 246.605469 323.953125 247.246094 C 322.957031 247.886719 322.011719 248.695312 321.152344 249.707031 C 319.394531 251.730469 317.988281 254.558594 316.957031 258.578125 " fill-opacity="1" fill-rule="nonzero"/><path fill="#000000" d="M 333.410156 268.351562 C 333.410156 268.351562 334.390625 267.582031 335.34375 266.773438 C 336.304688 265.964844 337.265625 265.15625 337.265625 265.15625 C 337.265625 265.15625 336.207031 265.382812 335.148438 265.609375 C 334.09375 265.824219 333.039062 266.035156 333.039062 266.035156 C 332.003906 265.570312 330.390625 264.957031 328.488281 264.582031 C 326.582031 264.199219 324.402344 264.054688 322.171875 264.445312 C 321.058594 264.644531 319.945312 264.976562 318.859375 265.492188 C 317.773438 266.007812 316.691406 266.683594 315.679688 267.59375 C 313.621094 269.394531 311.808594 272.066406 310.191406 275.992188 C 312.453125 278.828125 314.789062 280.253906 317.15625 280.59375 C 319.53125 280.945312 321.871094 280.191406 324.074219 278.855469 C 325.152344 278.179688 326.195312 277.359375 327.171875 276.464844 C 328.132812 275.566406 329.023438 274.585938 329.835938 273.613281 C 330.628906 272.628906 331.335938 271.648438 331.945312 270.75 C 332.539062 269.84375 333.027344 269.019531 333.410156 268.351562 " fill-opacity="1" fill-rule="nonzero"/><path fill="#000000" d="M 300.898438 292.695312 C 302.796875 295.890625 304.953125 297.65625 307.304688 298.332031 C 307.890625 298.5 308.488281 298.605469 309.089844 298.644531 C 309.691406 298.6875 310.292969 298.664062 310.902344 298.589844 C 312.113281 298.433594 313.347656 298.070312 314.546875 297.542969 C 315.734375 297.007812 316.910156 296.324219 318.023438 295.554688 C 319.117188 294.777344 320.167969 293.917969 321.117188 293.039062 C 322.058594 292.15625 322.914062 291.265625 323.65625 290.4375 C 324.378906 289.601562 324.996094 288.835938 325.476562 288.214844 C 325.476562 288.214844 325.75 288.050781 326.160156 287.808594 C 326.566406 287.554688 327.109375 287.222656 327.648438 286.886719 C 328.738281 286.203125 329.824219 285.519531 329.824219 285.519531 C 329.824219 285.519531 328.722656 285.597656 327.621094 285.679688 C 326.519531 285.746094 325.421875 285.816406 325.421875 285.816406 C 324.4375 285.203125 322.894531 284.359375 321.019531 283.710938 C 320.085938 283.382812 319.066406 283.105469 317.992188 282.917969 C 316.921875 282.734375 315.800781 282.648438 314.644531 282.6875 C 313.488281 282.730469 312.3125 282.917969 311.140625 283.285156 C 310.5625 283.46875 309.96875 283.695312 309.378906 283.972656 C 308.792969 284.246094 308.207031 284.578125 307.628906 284.960938 C 305.300781 286.503906 303.082031 288.953125 300.898438 292.695312 " fill-opacity="1" fill-rule="nonzero"/><path fill="#000000" d="M 314.636719 307.234375 C 314.636719 307.234375 314.710938 307.203125 314.839844 307.148438 C 314.972656 307.09375 315.160156 307.015625 315.382812 306.917969 C 315.828125 306.722656 316.425781 306.457031 317.019531 306.195312 C 317.617188 305.925781 318.21875 305.65625 318.664062 305.457031 C 319.117188 305.253906 319.414062 305.113281 319.414062 305.113281 C 319.414062 305.113281 319.132812 305.097656 318.710938 305.074219 C 318.289062 305.046875 317.722656 305.007812 317.15625 304.96875 C 316.035156 304.886719 314.914062 304.800781 314.914062 304.800781 C 314.007812 304.039062 312.5625 302.96875 310.757812 302.050781 C 308.949219 301.125 306.796875 300.351562 304.449219 300.125 C 302.097656 299.882812 299.601562 300.210938 297.03125 301.433594 C 296.710938 301.59375 296.394531 301.761719 296.074219 301.949219 C 295.75 302.132812 295.425781 302.328125 295.097656 302.542969 C 294.445312 302.972656 293.796875 303.464844 293.148438 304.035156 C 292.484375 304.59375 291.824219 305.226562 291.160156 305.941406 C 290.832031 306.304688 290.496094 306.675781 290.15625 307.066406 C 289.816406 307.460938 289.476562 307.875 289.136719 308.316406 C 289.878906 310.070312 290.726562 311.464844 291.679688 312.550781 C 292.636719 313.636719 293.695312 314.410156 294.832031 314.917969 C 295.980469 315.429688 297.179688 315.660156 298.433594 315.675781 C 299.0625 315.683594 299.695312 315.640625 300.339844 315.550781 C 300.984375 315.457031 301.628906 315.320312 302.269531 315.132812 C 303.542969 314.757812 304.839844 314.242188 306.058594 313.609375 C 307.277344 312.976562 308.472656 312.261719 309.546875 311.5 C 310.617188 310.738281 311.625 309.964844 312.476562 309.222656 C 313.328125 308.484375 314.0625 307.796875 314.636719 307.234375 " fill-opacity="1" fill-rule="nonzero"/><path fill="#000000" d="M 275.019531 322.472656 C 276.011719 326.222656 277.683594 328.625 279.839844 329.964844 C 280.914062 330.636719 282.109375 331.050781 283.375 331.246094 C 284.011719 331.34375 284.667969 331.394531 285.328125 331.386719 C 285.988281 331.378906 286.660156 331.320312 287.335938 331.226562 C 288.015625 331.132812 288.695312 331 289.378906 330.832031 C 290.0625 330.664062 290.730469 330.449219 291.394531 330.21875 C 292.058594 329.984375 292.71875 329.726562 293.363281 329.453125 C 294.007812 329.179688 294.621094 328.875 295.226562 328.570312 C 296.425781 327.953125 297.550781 327.308594 298.511719 326.671875 C 299.480469 326.042969 300.328125 325.457031 300.980469 324.964844 C 300.980469 324.964844 302.257812 324.609375 303.535156 324.25 C 304.179688 324.0625 304.824219 323.875 305.304688 323.734375 C 305.785156 323.589844 306.105469 323.488281 306.105469 323.488281 C 306.105469 323.488281 305.824219 323.433594 305.398438 323.351562 C 304.980469 323.269531 304.414062 323.148438 303.847656 323.03125 C 302.722656 322.785156 301.601562 322.542969 301.601562 322.542969 C 300.789062 321.644531 299.476562 320.359375 297.78125 319.175781 C 296.085938 317.988281 294.003906 316.894531 291.675781 316.34375 C 290.511719 316.066406 289.269531 315.90625 287.984375 315.941406 C 287.34375 315.957031 286.691406 316.019531 286.027344 316.140625 C 285.363281 316.253906 284.675781 316.410156 283.984375 316.632812 C 283.289062 316.851562 282.589844 317.140625 281.878906 317.484375 C 281.15625 317.820312 280.425781 318.226562 279.6875 318.710938 C 278.953125 319.199219 278.179688 319.734375 277.40625 320.359375 C 277.019531 320.675781 276.628906 321.007812 276.238281 321.363281 C 275.835938 321.714844 275.429688 322.082031 275.019531 322.472656 " fill-opacity="1" fill-rule="nonzero"/><path fill="#000000" d="M 284.859375 158.167969 C 284.859375 158.167969 284.03125 158.390625 283.207031 158.609375 C 282.792969 158.726562 282.378906 158.84375 282.070312 158.929688 C 281.761719 159.019531 281.554688 159.078125 281.554688 159.078125 C 281.554688 159.078125 281.761719 159.117188 282.082031 159.171875 C 282.398438 159.230469 282.808594 159.320312 283.226562 159.402344 C 284.066406 159.582031 284.902344 159.757812 284.902344 159.757812 C 285.289062 160.054688 285.75 160.441406 286.308594 160.851562 C 286.589844 161.058594 286.890625 161.269531 287.210938 161.484375 C 287.535156 161.703125 287.863281 161.933594 288.214844 162.15625 C 289.628906 163.039062 291.273438 163.941406 293.066406 164.503906 C 293.949219 164.789062 294.875 164.984375 295.820312 165.050781 C 296.777344 165.113281 297.722656 165.058594 298.6875 164.808594 C 300.613281 164.304688 302.5625 163.0625 304.300781 160.527344 C 303.890625 159.753906 303.46875 159.054688 303.03125 158.417969 C 302.597656 157.78125 302.121094 157.234375 301.65625 156.734375 C 300.730469 155.742188 299.722656 155.039062 298.75 154.53125 C 298.503906 154.40625 298.261719 154.289062 298.015625 154.191406 C 297.761719 154.097656 297.515625 154.011719 297.269531 153.9375 C 296.773438 153.792969 296.28125 153.691406 295.796875 153.632812 C 294.832031 153.519531 293.886719 153.566406 292.96875 153.742188 C 291.136719 154.085938 289.476562 154.878906 288.082031 155.742188 C 286.695312 156.601562 285.574219 157.53125 284.859375 158.167969 " fill-opacity="1" fill-rule="nonzero"/><path fill="#000000" d="M 291.773438 169.390625 C 291.773438 169.390625 290.898438 169.503906 290.027344 169.609375 C 289.160156 169.726562 288.292969 169.847656 288.292969 169.847656 C 288.292969 169.847656 289.117188 170.128906 289.9375 170.414062 C 290.351562 170.558594 290.765625 170.707031 291.078125 170.816406 C 291.390625 170.929688 291.597656 171.007812 291.597656 171.007812 C 292.253906 171.742188 293.320312 172.800781 294.613281 173.914062 C 295.273438 174.460938 295.972656 175.027344 296.746094 175.554688 C 297.128906 175.816406 297.535156 176.070312 297.941406 176.3125 C 298.347656 176.554688 298.765625 176.785156 299.195312 176.992188 C 300.941406 177.816406 302.835938 178.34375 304.875 178.109375 C 306.910156 177.867188 309.066406 176.886719 311.179688 174.566406 C 311.03125 174.140625 310.886719 173.730469 310.71875 173.347656 C 310.546875 172.960938 310.375 172.589844 310.195312 172.238281 C 309.835938 171.535156 309.464844 170.894531 309.042969 170.332031 C 308.632812 169.765625 308.207031 169.261719 307.773438 168.816406 C 307.332031 168.375 306.867188 168 306.402344 167.671875 C 305.933594 167.347656 305.464844 167.078125 304.992188 166.855469 C 304.511719 166.632812 304.019531 166.46875 303.53125 166.34375 C 302.5625 166.085938 301.589844 166.003906 300.648438 166.042969 C 298.742188 166.128906 296.933594 166.707031 295.398438 167.382812 C 293.859375 168.0625 292.589844 168.84375 291.773438 169.390625 " fill-opacity="1" fill-rule="nonzero"/><path fill="#000000" d="M 297.214844 181.792969 C 297.214844 181.792969 296.308594 181.78125 295.40625 181.769531 C 294.5 181.765625 293.601562 181.757812 293.601562 181.757812 C 293.601562 181.757812 294.40625 182.164062 295.207031 182.566406 C 295.605469 182.773438 295.996094 182.988281 296.292969 183.144531 C 296.59375 183.308594 296.789062 183.417969 296.789062 183.417969 C 297.378906 184.246094 298.273438 185.488281 299.449219 186.796875 C 300.019531 187.457031 300.675781 188.125 301.382812 188.773438 C 302.078125 189.421875 302.84375 190.042969 303.671875 190.582031 C 305.285156 191.683594 307.191406 192.476562 309.269531 192.53125 C 311.359375 192.582031 313.703125 191.890625 316.183594 189.835938 C 315.472656 186.210938 313.996094 183.738281 312.320312 182.148438 C 311.453125 181.359375 310.535156 180.785156 309.59375 180.382812 C 308.644531 179.984375 307.660156 179.769531 306.691406 179.671875 C 304.75 179.484375 302.84375 179.804688 301.183594 180.273438 C 299.523438 180.742188 298.121094 181.355469 297.214844 181.792969 " fill-opacity="1" fill-rule="nonzero"/><path fill="#000000" d="M 300.972656 195.210938 C 300.972656 195.210938 300.0625 195.066406 299.148438 194.917969 C 298.695312 194.851562 298.238281 194.785156 297.898438 194.734375 C 297.554688 194.6875 297.324219 194.652344 297.324219 194.652344 C 297.324219 194.652344 297.519531 194.78125 297.796875 194.980469 C 298.074219 195.179688 298.453125 195.445312 298.824219 195.707031 C 299.199219 195.976562 299.578125 196.25 299.859375 196.453125 C 300.144531 196.65625 300.328125 196.792969 300.328125 196.792969 C 300.554688 197.261719 300.855469 197.84375 301.234375 198.492188 C 301.421875 198.816406 301.625 199.160156 301.835938 199.519531 C 302.050781 199.875 302.28125 200.246094 302.535156 200.617188 C 303.53125 202.117188 304.773438 203.726562 306.277344 205.074219 C 306.65625 205.40625 307.058594 205.722656 307.46875 206.019531 C 307.878906 206.316406 308.308594 206.589844 308.753906 206.828125 C 309.652344 207.3125 310.632812 207.671875 311.699219 207.84375 C 313.824219 208.191406 316.285156 207.820312 319.085938 206.085938 C 318.863281 202.304688 317.761719 199.578125 316.25 197.730469 C 315.871094 197.265625 315.476562 196.855469 315.058594 196.492188 C 314.640625 196.132812 314.195312 195.820312 313.742188 195.550781 C 312.832031 195.011719 311.875 194.644531 310.910156 194.410156 C 308.960938 193.941406 306.964844 193.996094 305.21875 194.234375 C 303.46875 194.476562 301.957031 194.898438 300.972656 195.210938 " fill-opacity="1" fill-rule="nonzero"/><path fill="#000000" d="M 302.910156 209.417969 C 302.910156 209.417969 302.683594 209.34375 302.347656 209.238281 C 302.011719 209.136719 301.554688 208.996094 301.101562 208.863281 C 300.1875 208.597656 299.28125 208.332031 299.28125 208.332031 C 299.28125 208.332031 299.453125 208.492188 299.714844 208.730469 C 299.976562 208.96875 300.328125 209.289062 300.660156 209.617188 C 301.34375 210.277344 302.023438 210.9375 302.023438 210.9375 C 302.203125 211.441406 302.421875 212.078125 302.703125 212.792969 C 302.84375 213.148438 303.003906 213.527344 303.179688 213.917969 C 303.351562 214.3125 303.527344 214.71875 303.726562 215.132812 C 303.925781 215.550781 304.144531 215.976562 304.378906 216.402344 C 304.613281 216.832031 304.847656 217.265625 305.113281 217.695312 C 305.375 218.121094 305.65625 218.550781 305.957031 218.96875 C 306.257812 219.386719 306.566406 219.796875 306.902344 220.1875 C 308.257812 221.765625 309.902344 223.109375 312.007812 223.765625 C 314.109375 224.417969 316.664062 224.382812 319.757812 223.015625 C 319.847656 222.050781 319.835938 221.140625 319.796875 220.289062 C 319.773438 219.863281 319.738281 219.453125 319.691406 219.054688 C 319.636719 218.660156 319.570312 218.277344 319.492188 217.910156 C 319.332031 217.171875 319.148438 216.488281 318.898438 215.863281 C 318.648438 215.234375 318.367188 214.660156 318.050781 214.136719 C 317.894531 213.875 317.730469 213.625 317.5625 213.386719 C 317.386719 213.152344 317.203125 212.925781 317.011719 212.714844 C 316.632812 212.285156 316.230469 211.910156 315.808594 211.570312 C 315.390625 211.230469 314.949219 210.9375 314.5 210.675781 C 314.042969 210.417969 313.574219 210.199219 313.09375 210.011719 C 311.183594 209.257812 309.160156 209.03125 307.351562 209.023438 C 305.546875 209.023438 303.957031 209.238281 302.910156 209.417969 " fill-opacity="1" fill-rule="nonzero"/><path fill="#000000" d="M 302.890625 224.15625 C 302.890625 224.15625 302.007812 223.75 301.121094 223.339844 C 300.238281 222.945312 299.355469 222.546875 299.355469 222.546875 C 299.355469 222.546875 299.96875 223.296875 300.578125 224.046875 C 301.179688 224.804688 301.769531 225.578125 301.769531 225.578125 C 301.871094 226.113281 302.027344 226.792969 302.203125 227.558594 C 302.296875 227.941406 302.402344 228.34375 302.523438 228.765625 C 302.582031 228.980469 302.648438 229.195312 302.714844 229.414062 C 302.777344 229.632812 302.847656 229.855469 302.914062 230.082031 C 303.492188 231.882812 304.285156 233.867188 305.425781 235.65625 C 305.992188 236.546875 306.65625 237.390625 307.4375 238.136719 C 308.199219 238.878906 309.082031 239.519531 310.105469 239.996094 C 312.144531 240.945312 314.738281 241.265625 318.070312 240.3125 C 318.917969 236.429688 318.558594 233.363281 317.582031 231.066406 C 317.082031 229.917969 316.417969 228.953125 315.667969 228.148438 C 314.914062 227.347656 314.035156 226.699219 313.125 226.1875 C 311.296875 225.160156 309.28125 224.644531 307.449219 224.382812 C 305.613281 224.125 303.972656 224.121094 302.890625 224.15625 " fill-opacity="1" fill-rule="nonzero"/><path fill="#000000" d="M 300.804688 239.148438 C 300.804688 239.148438 299.96875 238.609375 299.132812 238.074219 C 298.289062 237.550781 297.449219 237.023438 297.449219 237.023438 C 297.449219 237.023438 297.964844 237.867188 298.476562 238.710938 C 298.605469 238.925781 298.734375 239.140625 298.855469 239.339844 C 298.96875 239.542969 299.074219 239.730469 299.167969 239.894531 C 299.351562 240.21875 299.476562 240.433594 299.476562 240.433594 C 299.496094 240.992188 299.566406 241.703125 299.640625 242.5 C 299.714844 243.300781 299.84375 244.207031 300.011719 245.160156 C 300.167969 246.113281 300.398438 247.121094 300.683594 248.136719 C 300.957031 249.148438 301.328125 250.175781 301.78125 251.164062 C 302.230469 252.144531 302.78125 253.09375 303.46875 253.953125 C 304.152344 254.816406 304.941406 255.585938 305.914062 256.214844 C 307.851562 257.460938 310.433594 258.148438 313.949219 257.644531 C 315.347656 253.828125 315.402344 250.664062 314.738281 248.203125 C 314.386719 246.964844 313.859375 245.894531 313.207031 244.980469 C 312.539062 244.054688 311.753906 243.28125 310.898438 242.632812 C 310.046875 241.984375 309.128906 241.460938 308.195312 241.03125 C 307.253906 240.605469 306.304688 240.273438 305.390625 240.011719 C 303.570312 239.492188 301.90625 239.261719 300.804688 239.148438 " fill-opacity="1" fill-rule="nonzero"/><path fill="#000000" d="M 296.605469 254.085938 C 296.605469 254.085938 295.832031 253.425781 295.0625 252.761719 C 294.285156 252.117188 293.511719 251.46875 293.511719 251.46875 C 293.511719 251.46875 293.910156 252.390625 294.308594 253.320312 C 294.71875 254.257812 295.085938 255.203125 295.085938 255.203125 C 295.027344 255.773438 294.988281 256.496094 294.964844 257.320312 C 294.929688 258.144531 294.921875 259.074219 294.96875 260.066406 C 294.992188 261.050781 295.078125 262.101562 295.234375 263.175781 C 295.371094 264.238281 295.59375 265.328125 295.925781 266.390625 C 296.550781 268.503906 297.632812 270.550781 299.402344 272.085938 C 301.1875 273.617188 303.710938 274.679688 307.34375 274.65625 C 309.300781 270.988281 309.792969 267.789062 309.457031 265.199219 C 309.273438 263.894531 308.898438 262.742188 308.355469 261.71875 C 307.8125 260.691406 307.125 259.800781 306.347656 259.023438 C 304.8125 257.472656 302.902344 256.378906 301.132812 255.597656 C 299.359375 254.824219 297.707031 254.351562 296.605469 254.085938 " fill-opacity="1" fill-rule="nonzero"/><path fill="#000000" d="M 290.269531 268.652344 C 290.269531 268.652344 289.578125 267.875 288.890625 267.097656 C 288.199219 266.335938 287.503906 265.570312 287.503906 265.570312 C 287.503906 265.570312 287.777344 266.5625 288.050781 267.554688 C 288.183594 268.058594 288.320312 268.5625 288.417969 268.941406 C 288.511719 269.320312 288.570312 269.570312 288.570312 269.570312 C 288.4375 270.140625 288.289062 270.863281 288.15625 271.699219 C 288.007812 272.527344 287.863281 273.464844 287.773438 274.476562 C 287.667969 275.480469 287.59375 276.550781 287.609375 277.660156 C 287.605469 278.761719 287.667969 279.890625 287.855469 281.015625 C 288.035156 282.136719 288.308594 283.238281 288.753906 284.300781 C 288.976562 284.828125 289.238281 285.347656 289.539062 285.84375 C 289.839844 286.339844 290.183594 286.816406 290.582031 287.265625 C 292.171875 289.066406 294.585938 290.5 298.253906 290.980469 C 300.753906 287.539062 301.703125 284.371094 301.722656 281.703125 C 301.722656 281.03125 301.667969 280.390625 301.558594 279.777344 C 301.460938 279.167969 301.304688 278.582031 301.097656 278.023438 C 300.6875 276.90625 300.117188 275.910156 299.445312 275.015625 C 298.777344 274.125 297.992188 273.332031 297.167969 272.636719 C 296.347656 271.9375 295.484375 271.335938 294.640625 270.820312 C 292.953125 269.785156 291.34375 269.078125 290.269531 268.652344 " fill-opacity="1" fill-rule="nonzero"/><path fill="#000000" d="M 281.808594 282.535156 C 281.808594 282.535156 281.222656 281.652344 280.632812 280.769531 C 280.339844 280.332031 280.042969 279.894531 279.820312 279.570312 C 279.59375 279.242188 279.445312 279.023438 279.445312 279.023438 C 279.445312 279.023438 279.484375 279.289062 279.535156 279.675781 C 279.585938 280.066406 279.652344 280.589844 279.71875 281.113281 C 279.785156 281.640625 279.847656 282.171875 279.898438 282.566406 C 279.917969 282.765625 279.9375 282.929688 279.945312 283.046875 C 279.957031 283.164062 279.964844 283.230469 279.964844 283.230469 C 279.75 283.785156 279.496094 284.492188 279.238281 285.320312 C 278.980469 286.140625 278.699219 287.066406 278.464844 288.074219 C 278.351562 288.585938 278.222656 289.097656 278.117188 289.632812 C 278.011719 290.167969 277.917969 290.714844 277.847656 291.277344 C 277.699219 292.398438 277.59375 293.542969 277.625 294.707031 C 277.644531 295.292969 277.679688 295.871094 277.75 296.445312 C 277.820312 297.019531 277.929688 297.59375 278.074219 298.160156 C 278.367188 299.292969 278.839844 300.402344 279.511719 301.425781 C 280.1875 302.445312 281.085938 303.402344 282.273438 304.226562 C 283.460938 305.054688 284.9375 305.761719 286.75 306.25 C 287.125 305.855469 287.476562 305.464844 287.804688 305.078125 C 288.136719 304.691406 288.441406 304.308594 288.71875 303.917969 C 289.273438 303.140625 289.746094 302.382812 290.144531 301.640625 C 290.527344 300.886719 290.832031 300.152344 291.070312 299.4375 C 291.191406 299.082031 291.296875 298.730469 291.378906 298.382812 C 291.453125 298.03125 291.519531 297.6875 291.566406 297.347656 C 291.960938 294.640625 291.304688 292.25 290.203125 290.261719 C 289.085938 288.265625 287.488281 286.625 285.929688 285.339844 C 284.367188 284.054688 282.835938 283.117188 281.808594 282.535156 " fill-opacity="1" fill-rule="nonzero"/><path fill="#000000" d="M 271.285156 295.425781 C 271.285156 295.425781 270.816406 294.449219 270.34375 293.476562 C 270.109375 292.992188 269.867188 292.507812 269.6875 292.148438 C 269.507812 291.78125 269.382812 291.542969 269.382812 291.542969 C 269.382812 291.542969 269.382812 291.8125 269.386719 292.214844 C 269.382812 292.621094 269.375 293.15625 269.371094 293.695312 C 269.347656 294.78125 269.324219 295.871094 269.324219 295.871094 C 269.03125 296.410156 268.667969 297.082031 268.292969 297.878906 C 267.925781 298.683594 267.507812 299.574219 267.125 300.554688 C 266.929688 301.042969 266.753906 301.566406 266.566406 302.085938 C 266.386719 302.605469 266.214844 303.144531 266.058594 303.699219 C 265.902344 304.25 265.773438 304.824219 265.648438 305.394531 C 265.53125 305.960938 265.429688 306.542969 265.359375 307.128906 C 265.292969 307.714844 265.253906 308.304688 265.246094 308.902344 C 265.242188 309.5 265.265625 310.085938 265.332031 310.679688 C 265.472656 311.859375 265.78125 313.039062 266.320312 314.175781 C 267.410156 316.445312 269.410156 318.5625 272.949219 320.09375 C 273.382812 319.753906 273.796875 319.414062 274.1875 319.066406 C 274.570312 318.714844 274.929688 318.363281 275.265625 318.015625 C 275.945312 317.3125 276.539062 316.625 277.03125 315.910156 C 277.53125 315.207031 277.945312 314.511719 278.289062 313.828125 C 278.625 313.132812 278.878906 312.445312 279.074219 311.777344 C 279.269531 311.101562 279.402344 310.449219 279.46875 309.804688 C 279.527344 309.152344 279.535156 308.519531 279.488281 307.902344 C 279.398438 306.667969 279.121094 305.511719 278.691406 304.421875 C 277.835938 302.234375 276.457031 300.359375 275.058594 298.839844 C 273.660156 297.324219 272.246094 296.15625 271.285156 295.425781 " fill-opacity="1" fill-rule="nonzero"/><path fill="#000000" d="M 285.5625 338.664062 C 284.871094 337.640625 283.734375 336.160156 282.1875 334.714844 C 280.640625 333.269531 278.6875 331.867188 276.410156 330.972656 C 275.839844 330.746094 275.246094 330.554688 274.640625 330.398438 C 274.027344 330.242188 273.390625 330.117188 272.742188 330.039062 C 272.089844 329.960938 271.417969 329.929688 270.726562 329.949219 C 270.382812 329.957031 270.035156 329.984375 269.679688 330.019531 C 269.320312 330.050781 268.960938 330.09375 268.59375 330.15625 C 267.859375 330.277344 267.109375 330.457031 266.339844 330.707031 C 265.566406 330.953125 264.761719 331.246094 263.945312 331.621094 C 263.53125 331.8125 263.121094 332.019531 262.695312 332.242188 C 262.265625 332.460938 261.835938 332.695312 261.398438 332.953125 C 260.960938 333.210938 260.515625 333.492188 260.066406 333.792969 C 259.613281 334.089844 259.144531 334.394531 258.675781 334.734375 C 258.675781 334.734375 258.453125 334.875 258.042969 335.136719 C 257.628906 335.402344 257.023438 335.789062 256.238281 336.261719 C 255.84375 336.496094 255.410156 336.757812 254.941406 337.042969 C 254.703125 337.1875 254.457031 337.335938 254.203125 337.488281 C 253.941406 337.636719 253.675781 337.789062 253.398438 337.949219 C 252.847656 338.261719 252.257812 338.601562 251.636719 338.957031 C 251.015625 339.308594 250.347656 339.65625 249.660156 340.03125 C 246.894531 341.515625 243.621094 343.167969 240.027344 344.734375 C 236.433594 346.3125 232.53125 347.832031 228.558594 349.15625 C 224.589844 350.484375 220.554688 351.613281 216.730469 352.503906 C 212.910156 353.390625 209.304688 354.0625 206.195312 354.503906 C 205.417969 354.632812 204.671875 354.722656 203.964844 354.8125 C 203.25 354.902344 202.578125 354.996094 201.945312 355.066406 C 200.675781 355.191406 199.570312 355.316406 198.65625 355.390625 C 196.828125 355.53125 195.785156 355.613281 195.785156 355.613281 C 195.785156 355.613281 196.71875 355.597656 198.351562 355.570312 C 199.984375 355.535156 202.3125 355.441406 205.117188 355.238281 C 207.914062 355.003906 211.183594 354.679688 214.667969 354.148438 C 218.148438 353.609375 221.851562 352.898438 225.527344 352.027344 C 226.441406 351.796875 227.367188 351.585938 228.273438 351.339844 C 229.1875 351.09375 230.089844 350.851562 230.988281 350.605469 C 231.882812 350.34375 232.769531 350.078125 233.644531 349.816406 C 234.085938 349.695312 234.519531 349.554688 234.945312 349.414062 C 235.375 349.273438 235.800781 349.136719 236.226562 349 C 239.601562 347.890625 242.730469 346.734375 245.367188 345.644531 C 246.023438 345.367188 246.667969 345.121094 247.261719 344.859375 C 247.859375 344.597656 248.425781 344.347656 248.957031 344.117188 C 250.03125 343.660156 250.941406 343.21875 251.699219 342.871094 C 252.453125 342.515625 253.054688 342.246094 253.453125 342.042969 C 253.855469 341.84375 254.070312 341.738281 254.070312 341.738281 C 254.773438 341.390625 255.5 341.152344 256.222656 341.023438 C 256.941406 340.878906 257.648438 340.84375 258.332031 340.910156 C 259.695312 341.039062 260.949219 341.578125 261.847656 342.484375 C 263.277344 343.941406 265.109375 344.78125 267.160156 345.171875 C 268.179688 345.355469 269.246094 345.417969 270.34375 345.398438 C 270.890625 345.382812 271.441406 345.347656 271.996094 345.292969 C 272.546875 345.234375 273.101562 345.152344 273.648438 345.050781 C 274.203125 344.953125 274.75 344.839844 275.296875 344.707031 C 275.566406 344.644531 275.839844 344.578125 276.105469 344.507812 C 276.375 344.433594 276.640625 344.355469 276.902344 344.273438 C 277.953125 343.957031 278.964844 343.597656 279.917969 343.230469 C 280.859375 342.847656 281.734375 342.453125 282.519531 342.078125 C 282.914062 341.890625 283.285156 341.710938 283.628906 341.535156 C 283.96875 341.355469 284.28125 341.183594 284.5625 341.027344 C 284.5625 341.027344 285.917969 340.847656 287.269531 340.667969 C 287.953125 340.578125 288.625 340.464844 289.132812 340.390625 C 289.640625 340.308594 289.980469 340.25 289.980469 340.25 C 289.980469 340.25 288.871094 339.859375 287.761719 339.472656 C 286.664062 339.082031 285.5625 338.664062 285.5625 338.664062 " fill-opacity="1" fill-rule="nonzero"/><path fill="#000000" d="M 258.863281 306.953125 C 259.730469 307.835938 260.992188 309.214844 262.1875 310.949219 C 263.378906 312.683594 264.503906 314.769531 265.054688 317.097656 C 265.191406 317.679688 265.292969 318.273438 265.347656 318.882812 C 265.402344 319.492188 265.40625 320.105469 265.363281 320.734375 C 265.320312 321.359375 265.21875 321.996094 265.0625 322.644531 C 264.984375 322.964844 264.890625 323.292969 264.777344 323.617188 C 264.660156 323.9375 264.53125 324.257812 264.386719 324.582031 C 264.089844 325.230469 263.726562 325.882812 263.289062 326.535156 C 262.847656 327.1875 262.316406 327.816406 261.710938 328.457031 C 261.40625 328.773438 261.085938 329.097656 260.742188 329.40625 C 260.390625 329.710938 260.015625 330.015625 259.621094 330.320312 C 259.230469 330.621094 258.8125 330.921875 258.375 331.21875 C 257.933594 331.511719 257.460938 331.792969 256.972656 332.074219 C 256.972656 332.074219 256.757812 332.210938 256.351562 332.46875 C 255.949219 332.726562 255.359375 333.109375 254.589844 333.566406 C 254.207031 333.796875 253.78125 334.054688 253.320312 334.332031 C 253.09375 334.46875 252.851562 334.613281 252.601562 334.765625 C 252.347656 334.910156 252.089844 335.058594 251.820312 335.214844 C 251.277344 335.523438 250.703125 335.851562 250.09375 336.199219 C 249.488281 336.542969 248.835938 336.882812 248.164062 337.25 C 245.464844 338.703125 242.269531 340.3125 238.753906 341.84375 C 235.246094 343.382812 231.4375 344.871094 227.558594 346.160156 C 223.683594 347.457031 219.746094 348.558594 216.011719 349.429688 C 212.285156 350.296875 208.765625 350.949219 205.734375 351.382812 C 204.976562 351.503906 204.25 351.59375 203.558594 351.683594 C 202.863281 351.769531 202.210938 351.855469 201.589844 351.929688 C 200.351562 352.050781 199.273438 352.171875 198.386719 352.246094 C 196.601562 352.382812 195.585938 352.460938 195.585938 352.460938 C 195.585938 352.460938 196.484375 352.335938 198.058594 352.117188 C 199.628906 351.882812 201.867188 351.515625 204.53125 350.988281 C 207.191406 350.433594 210.273438 349.734375 213.523438 348.816406 C 216.777344 347.898438 220.199219 346.785156 223.5625 345.535156 C 224.398438 345.210938 225.242188 344.90625 226.066406 344.570312 C 226.894531 344.234375 227.714844 343.898438 228.53125 343.566406 C 229.335938 343.214844 230.136719 342.867188 230.929688 342.523438 C 231.324219 342.351562 231.710938 342.171875 232.097656 341.992188 C 232.484375 341.8125 232.867188 341.632812 233.246094 341.457031 C 236.273438 340.027344 239.039062 338.597656 241.359375 337.28125 C 241.941406 336.949219 242.503906 336.652344 243.023438 336.335938 C 243.542969 336.027344 244.042969 335.734375 244.503906 335.460938 C 245.441406 334.917969 246.234375 334.402344 246.890625 334 C 247.550781 333.585938 248.066406 333.269531 248.410156 333.035156 C 248.757812 332.804688 248.945312 332.683594 248.945312 332.683594 C 249.550781 332.285156 250.074219 331.804688 250.5 331.277344 C 250.921875 330.742188 251.242188 330.152344 251.457031 329.542969 C 251.886719 328.328125 251.894531 327.03125 251.425781 325.835938 C 250.691406 323.9375 250.558594 322.007812 250.792969 320.164062 C 250.902344 319.230469 251.09375 318.308594 251.355469 317.417969 C 251.488281 316.972656 251.636719 316.535156 251.796875 316.105469 C 251.953125 315.667969 252.117188 315.242188 252.292969 314.824219 C 252.472656 314.40625 252.660156 313.996094 252.855469 313.597656 C 252.953125 313.402344 253.054688 313.207031 253.152344 313.011719 C 253.246094 312.8125 253.347656 312.621094 253.445312 312.429688 C 253.847656 311.664062 254.261719 310.953125 254.671875 310.304688 C 255.074219 309.636719 255.46875 309.027344 255.835938 308.496094 C 256.019531 308.226562 256.195312 307.980469 256.363281 307.75 C 256.523438 307.515625 256.679688 307.296875 256.820312 307.105469 C 256.820312 307.105469 257 306.015625 257.175781 304.933594 C 257.265625 304.398438 257.335938 303.84375 257.394531 303.4375 C 257.445312 303.03125 257.480469 302.757812 257.480469 302.757812 C 257.480469 302.757812 257.835938 303.804688 258.1875 304.851562 C 258.539062 305.90625 258.863281 306.953125 258.863281 306.953125 " fill-opacity="1" fill-rule="nonzero"/><path fill="#000000" d="M 288.136719 135.191406 L 285.289062 132.976562 L 286.917969 136.195312 C 286.984375 140.152344 288.160156 152.296875 300.191406 151.070312 C 303.699219 139.496094 292.003906 136.015625 288.136719 135.191406 " fill-opacity="1" fill-rule="nonzero"/><path fill="#000000" d="M 71.152344 139.078125 C 71.152344 139.078125 71.242188 138.023438 71.332031 136.96875 C 71.378906 136.441406 71.425781 135.90625 71.46875 135.511719 C 71.515625 135.113281 71.546875 134.851562 71.546875 134.851562 C 71.546875 134.851562 71.628906 135.058594 71.757812 135.378906 C 71.886719 135.695312 72.058594 136.117188 72.234375 136.539062 C 72.59375 137.382812 72.949219 138.222656 72.949219 138.222656 C 73.769531 138.71875 74.964844 139.546875 76.140625 140.695312 C 77.320312 141.839844 78.480469 143.300781 79.257812 145.035156 C 79.644531 145.898438 79.953125 146.84375 80.121094 147.851562 C 80.203125 148.355469 80.253906 148.875 80.261719 149.410156 C 80.265625 149.679688 80.261719 149.953125 80.246094 150.226562 C 80.230469 150.503906 80.210938 150.789062 80.175781 151.078125 C 80.046875 152.230469 79.710938 153.433594 79.199219 154.746094 C 78.945312 155.40625 78.613281 156.066406 78.25 156.773438 C 77.882812 157.476562 77.453125 158.199219 76.953125 158.949219 C 73.898438 158.75 71.777344 157.808594 70.40625 156.328125 C 69.722656 155.589844 69.203125 154.710938 68.875 153.757812 C 68.535156 152.804688 68.355469 151.757812 68.292969 150.667969 C 68.191406 148.503906 68.585938 146.175781 69.195312 144.117188 C 69.34375 143.601562 69.496094 143.09375 69.667969 142.621094 C 69.835938 142.144531 70.011719 141.691406 70.183594 141.265625 C 70.53125 140.410156 70.855469 139.65625 71.152344 139.078125 " fill-opacity="1" fill-rule="nonzero"/><path fill="#000000" d="M 69.878906 173.382812 C 66.734375 173.613281 64.445312 172.960938 62.84375 171.652344 C 61.242188 170.351562 60.300781 168.394531 59.890625 166.207031 C 59.785156 165.660156 59.710938 165.097656 59.65625 164.527344 C 59.609375 163.957031 59.597656 163.386719 59.601562 162.808594 C 59.609375 161.660156 59.695312 160.503906 59.863281 159.417969 C 60.167969 157.226562 60.730469 155.292969 61.132812 154.011719 C 61.132812 154.011719 61.113281 153.742188 61.09375 153.335938 C 61.074219 152.929688 61.046875 152.390625 61.019531 151.84375 C 60.976562 150.75 60.929688 149.652344 60.929688 149.652344 C 60.929688 149.652344 61.40625 150.464844 61.878906 151.277344 C 62.363281 152.082031 62.84375 152.886719 62.84375 152.886719 C 63.75 153.277344 65.082031 153.945312 66.4375 154.945312 C 67.800781 155.941406 69.179688 157.257812 70.21875 158.910156 C 70.746094 159.738281 71.1875 160.652344 71.5 161.652344 C 71.65625 162.148438 71.773438 162.667969 71.863281 163.210938 C 71.953125 163.757812 72.007812 164.328125 72.019531 164.921875 C 72.03125 165.515625 71.992188 166.125 71.917969 166.773438 C 71.847656 167.417969 71.726562 168.089844 71.550781 168.789062 C 71.367188 169.484375 71.15625 170.21875 70.878906 170.980469 C 70.742188 171.367188 70.585938 171.757812 70.414062 172.152344 C 70.246094 172.550781 70.074219 172.960938 69.878906 173.382812 " fill-opacity="1" fill-rule="nonzero"/><path fill="#000000" d="M 53.09375 170.667969 C 53.09375 170.667969 53.039062 170.394531 52.953125 169.984375 C 52.871094 169.578125 52.753906 169.027344 52.65625 168.476562 C 52.460938 167.375 52.265625 166.269531 52.265625 166.269531 C 52.265625 166.269531 52.863281 167.027344 53.457031 167.785156 C 54.054688 168.527344 54.65625 169.277344 54.65625 169.277344 C 55.632812 169.539062 57.082031 170.03125 58.601562 170.847656 C 60.117188 171.660156 61.726562 172.804688 63.023438 174.335938 C 63.675781 175.101562 64.242188 175.960938 64.703125 176.929688 C 65.171875 177.902344 65.519531 178.980469 65.699219 180.171875 C 66.105469 182.585938 65.832031 185.445312 64.738281 189.070312 C 61.582031 189.75 59.175781 189.417969 57.351562 188.316406 C 55.515625 187.21875 54.335938 185.378906 53.566406 183.210938 C 53.207031 182.132812 52.957031 180.976562 52.789062 179.804688 C 52.632812 178.636719 52.578125 177.460938 52.570312 176.328125 C 52.585938 174.070312 52.84375 172.015625 53.09375 170.667969 " fill-opacity="1" fill-rule="nonzero"/><path fill="#000000" d="M 61.757812 205.742188 C 58.640625 206.882812 56.136719 206.882812 54.144531 206.023438 C 53.144531 205.597656 52.277344 204.960938 51.519531 204.167969 C 51.140625 203.769531 50.789062 203.335938 50.464844 202.867188 C 50.140625 202.402344 49.859375 201.902344 49.59375 201.386719 C 48.527344 199.300781 47.910156 196.839844 47.597656 194.550781 C 47.519531 193.976562 47.460938 193.414062 47.410156 192.871094 C 47.390625 192.601562 47.367188 192.332031 47.347656 192.070312 C 47.332031 191.8125 47.324219 191.558594 47.316406 191.308594 C 47.285156 190.320312 47.292969 189.441406 47.308594 188.738281 C 47.308594 188.738281 47.210938 188.46875 47.074219 188.066406 C 46.933594 187.660156 46.75 187.121094 46.566406 186.582031 C 46.382812 186.039062 46.199219 185.492188 46.0625 185.085938 C 45.921875 184.675781 45.839844 184.402344 45.839844 184.402344 C 45.839844 184.402344 46.015625 184.574219 46.28125 184.832031 C 46.550781 185.085938 46.910156 185.425781 47.269531 185.765625 C 47.988281 186.433594 48.707031 187.105469 48.707031 187.105469 C 49.734375 187.234375 51.277344 187.527344 52.9375 188.136719 C 54.601562 188.75 56.378906 189.675781 57.910156 191.046875 C 58.683594 191.726562 59.394531 192.523438 59.996094 193.4375 C 60.300781 193.898438 60.566406 194.386719 60.816406 194.910156 C 61.070312 195.4375 61.289062 195.992188 61.472656 196.585938 C 62.195312 198.96875 62.371094 201.917969 61.757812 205.742188 " fill-opacity="1" fill-rule="nonzero"/><path fill="#000000" d="M 61.070312 223.105469 C 58.074219 224.691406 55.535156 225.046875 53.390625 224.457031 C 51.246094 223.871094 49.476562 222.355469 48.117188 220.386719 C 47.777344 219.898438 47.449219 219.378906 47.160156 218.84375 C 46.871094 218.304688 46.601562 217.75 46.355469 217.183594 C 46.109375 216.617188 45.871094 216.042969 45.671875 215.464844 C 45.472656 214.890625 45.296875 214.3125 45.132812 213.746094 C 44.976562 213.175781 44.824219 212.613281 44.703125 212.070312 C 44.585938 211.53125 44.484375 211.003906 44.394531 210.503906 C 44.214844 209.503906 44.089844 208.613281 44.027344 207.898438 C 44.027344 207.898438 43.492188 206.863281 42.957031 205.824219 C 42.6875 205.300781 42.433594 204.773438 42.242188 204.378906 C 42.050781 203.980469 41.921875 203.714844 41.921875 203.714844 C 41.921875 203.714844 42.742188 204.304688 43.558594 204.894531 C 43.964844 205.1875 44.375 205.476562 44.6875 205.691406 C 45 205.90625 45.207031 206.050781 45.207031 206.050781 C 46.265625 206.035156 47.867188 206.113281 49.640625 206.5 C 51.414062 206.882812 53.359375 207.570312 55.105469 208.742188 C 55.542969 209.03125 55.964844 209.355469 56.371094 209.710938 C 56.785156 210.066406 57.179688 210.453125 57.554688 210.875 C 57.929688 211.296875 58.277344 211.753906 58.601562 212.25 C 58.761719 212.5 58.914062 212.757812 59.0625 213.023438 C 59.214844 213.292969 59.355469 213.570312 59.492188 213.859375 C 59.765625 214.4375 60.003906 215.054688 60.203125 215.722656 C 60.402344 216.386719 60.589844 217.101562 60.71875 217.863281 C 60.785156 218.242188 60.84375 218.640625 60.886719 219.046875 C 60.9375 219.453125 60.980469 219.875 61.011719 220.3125 C 61.074219 221.183594 61.074219 222.113281 61.070312 223.105469 " fill-opacity="1" fill-rule="nonzero"/><path fill="#000000" d="M 43.398438 227.800781 C 43.398438 227.800781 42.699219 226.832031 42.015625 225.847656 C 41.347656 224.855469 40.675781 223.859375 40.675781 223.859375 C 40.675781 223.859375 41.589844 224.34375 42.503906 224.824219 C 43.414062 225.292969 44.328125 225.761719 44.328125 225.761719 C 45.402344 225.601562 47.039062 225.457031 48.890625 225.597656 C 50.734375 225.738281 52.808594 226.164062 54.746094 227.105469 C 55.722656 227.574219 56.644531 228.171875 57.523438 228.921875 C 58.40625 229.675781 59.203125 230.582031 59.90625 231.675781 C 61.332031 233.871094 62.332031 236.796875 62.792969 240.832031 C 59.984375 242.859375 57.460938 243.566406 55.199219 243.265625 C 54.070312 243.117188 53.003906 242.726562 52.007812 242.140625 C 51.027344 241.554688 50.121094 240.777344 49.285156 239.878906 C 47.625 238.082031 46.300781 235.78125 45.332031 233.5625 C 45.210938 233.289062 45.089844 233.015625 44.980469 232.742188 C 44.871094 232.46875 44.769531 232.199219 44.667969 231.929688 C 44.472656 231.394531 44.292969 230.878906 44.128906 230.386719 C 43.796875 229.402344 43.574219 228.511719 43.398438 227.800781 " fill-opacity="1" fill-rule="nonzero"/><path fill="#000000" d="M 67.015625 258.578125 C 64.453125 261.023438 61.992188 262.09375 59.65625 262.105469 C 58.496094 262.109375 57.347656 261.867188 56.273438 261.40625 C 55.195312 260.953125 54.164062 260.292969 53.1875 259.5 C 52.222656 258.703125 51.335938 257.761719 50.507812 256.769531 C 49.6875 255.769531 48.964844 254.699219 48.304688 253.648438 C 47.660156 252.59375 47.117188 251.546875 46.644531 250.597656 C 46.179688 249.640625 45.828125 248.773438 45.542969 248.078125 C 45.542969 248.078125 45.335938 247.855469 45.019531 247.523438 C 44.863281 247.355469 44.679688 247.160156 44.480469 246.953125 C 44.289062 246.742188 44.082031 246.515625 43.878906 246.289062 C 43.058594 245.378906 42.238281 244.464844 42.238281 244.464844 C 42.238281 244.464844 43.230469 244.828125 44.226562 245.1875 C 45.21875 245.535156 46.210938 245.886719 46.210938 245.886719 C 47.277344 245.570312 48.914062 245.195312 50.808594 245.082031 C 51.753906 245.023438 52.765625 245.027344 53.800781 245.136719 C 54.835938 245.246094 55.902344 245.453125 56.953125 245.792969 C 58.003906 246.132812 59.035156 246.605469 60.015625 247.246094 C 61.011719 247.886719 61.960938 248.695312 62.816406 249.707031 C 64.574219 251.730469 65.980469 254.558594 67.015625 258.578125 " fill-opacity="1" fill-rule="nonzero"/><path fill="#000000" d="M 50.558594 268.351562 C 50.558594 268.351562 49.578125 267.582031 48.628906 266.773438 C 47.667969 265.964844 46.707031 265.15625 46.707031 265.15625 C 46.707031 265.15625 47.765625 265.382812 48.820312 265.609375 C 49.878906 265.824219 50.929688 266.035156 50.929688 266.035156 C 51.96875 265.570312 53.578125 264.957031 55.480469 264.582031 C 57.386719 264.199219 59.566406 264.054688 61.796875 264.445312 C 62.910156 264.644531 64.027344 264.976562 65.109375 265.492188 C 66.199219 266.007812 67.28125 266.683594 68.289062 267.59375 C 70.347656 269.394531 72.160156 272.066406 73.777344 275.992188 C 71.515625 278.828125 69.179688 280.253906 66.816406 280.59375 C 64.441406 280.945312 62.097656 280.191406 59.898438 278.855469 C 58.816406 278.179688 57.777344 277.359375 56.796875 276.464844 C 55.835938 275.566406 54.945312 274.585938 54.132812 273.613281 C 53.34375 272.628906 52.636719 271.648438 52.027344 270.75 C 51.429688 269.84375 50.941406 269.019531 50.558594 268.351562 " fill-opacity="1" fill-rule="nonzero"/><path fill="#000000" d="M 83.074219 292.695312 C 81.175781 295.890625 79.015625 297.65625 76.667969 298.332031 C 76.078125 298.5 75.484375 298.605469 74.878906 298.644531 C 74.28125 298.6875 73.675781 298.664062 73.070312 298.589844 C 71.855469 298.433594 70.621094 298.070312 69.421875 297.542969 C 68.234375 297.007812 67.058594 296.324219 65.949219 295.554688 C 64.855469 294.777344 63.804688 293.917969 62.851562 293.039062 C 61.914062 292.15625 61.054688 291.265625 60.316406 290.4375 C 59.589844 289.601562 58.972656 288.835938 58.496094 288.214844 C 58.496094 288.214844 58.21875 288.050781 57.808594 287.808594 C 57.402344 287.554688 56.859375 287.222656 56.320312 286.886719 C 55.230469 286.203125 54.144531 285.519531 54.144531 285.519531 C 54.144531 285.519531 55.246094 285.597656 56.351562 285.679688 C 57.449219 285.746094 58.546875 285.816406 58.546875 285.816406 C 59.53125 285.203125 61.074219 284.359375 62.949219 283.710938 C 63.886719 283.382812 64.90625 283.105469 65.976562 282.917969 C 67.046875 282.734375 68.167969 282.648438 69.324219 282.6875 C 70.480469 282.730469 71.65625 282.917969 72.828125 283.285156 C 73.410156 283.46875 74 283.695312 74.589844 283.972656 C 75.179688 284.246094 75.765625 284.578125 76.339844 284.960938 C 78.671875 286.503906 80.886719 288.953125 83.074219 292.695312 " fill-opacity="1" fill-rule="nonzero"/><path fill="#000000" d="M 69.335938 307.234375 C 69.335938 307.234375 69.261719 307.203125 69.128906 307.148438 C 68.996094 307.09375 68.808594 307.015625 68.585938 306.917969 C 68.140625 306.722656 67.542969 306.457031 66.949219 306.195312 C 66.351562 305.925781 65.753906 305.65625 65.304688 305.457031 C 64.851562 305.253906 64.558594 305.113281 64.558594 305.113281 C 64.558594 305.113281 64.839844 305.097656 65.261719 305.074219 C 65.683594 305.046875 66.246094 305.007812 66.8125 304.96875 C 67.933594 304.886719 69.054688 304.800781 69.054688 304.800781 C 69.964844 304.039062 71.40625 302.96875 73.210938 302.050781 C 75.019531 301.125 77.175781 300.351562 79.519531 300.125 C 81.875 299.882812 84.371094 300.210938 86.9375 301.433594 C 87.257812 301.59375 87.578125 301.761719 87.898438 301.949219 C 88.21875 302.132812 88.546875 302.328125 88.871094 302.542969 C 89.523438 302.972656 90.171875 303.464844 90.820312 304.035156 C 91.484375 304.59375 92.148438 305.226562 92.808594 305.941406 C 93.136719 306.304688 93.476562 306.675781 93.816406 307.066406 C 94.15625 307.460938 94.496094 307.875 94.835938 308.316406 C 94.089844 310.070312 93.242188 311.464844 92.289062 312.550781 C 91.335938 313.636719 90.277344 314.410156 89.136719 314.917969 C 87.992188 315.429688 86.789062 315.660156 85.535156 315.675781 C 84.910156 315.683594 84.273438 315.640625 83.628906 315.550781 C 82.988281 315.457031 82.339844 315.320312 81.703125 315.132812 C 80.425781 314.757812 79.132812 314.242188 77.910156 313.609375 C 76.695312 312.976562 75.5 312.261719 74.421875 311.5 C 73.351562 310.738281 72.347656 309.964844 71.492188 309.222656 C 70.640625 308.484375 69.910156 307.796875 69.335938 307.234375 " fill-opacity="1" fill-rule="nonzero"/><path fill="#000000" d="M 108.949219 322.472656 C 107.957031 326.222656 106.289062 328.625 104.132812 329.964844 C 103.054688 330.636719 101.863281 331.050781 100.59375 331.246094 C 99.960938 331.34375 99.300781 331.394531 98.640625 331.386719 C 97.980469 331.378906 97.3125 331.320312 96.632812 331.226562 C 95.957031 331.132812 95.273438 331 94.589844 330.832031 C 93.910156 330.664062 93.242188 330.449219 92.574219 330.21875 C 91.910156 329.984375 91.25 329.726562 90.605469 329.453125 C 89.960938 329.179688 89.347656 328.875 88.746094 328.570312 C 87.546875 327.953125 86.417969 327.308594 85.457031 326.671875 C 84.488281 326.042969 83.644531 325.457031 82.988281 324.964844 C 82.988281 324.964844 81.710938 324.609375 80.433594 324.25 C 79.789062 324.0625 79.148438 323.875 78.664062 323.734375 C 78.183594 323.589844 77.867188 323.488281 77.867188 323.488281 C 77.867188 323.488281 78.148438 323.433594 78.570312 323.351562 C 78.992188 323.269531 79.558594 323.148438 80.121094 323.03125 C 81.246094 322.785156 82.367188 322.542969 82.367188 322.542969 C 83.179688 321.644531 84.492188 320.359375 86.1875 319.175781 C 87.882812 317.988281 89.96875 316.894531 92.292969 316.34375 C 93.460938 316.066406 94.703125 315.90625 95.984375 315.941406 C 96.625 315.957031 97.28125 316.019531 97.941406 316.140625 C 98.609375 316.253906 99.296875 316.410156 99.988281 316.632812 C 100.679688 316.851562 101.378906 317.140625 102.089844 317.484375 C 102.8125 317.820312 103.542969 318.226562 104.285156 318.710938 C 105.015625 319.199219 105.789062 319.734375 106.5625 320.359375 C 106.949219 320.675781 107.339844 321.007812 107.734375 321.363281 C 108.132812 321.714844 108.539062 322.082031 108.949219 322.472656 " fill-opacity="1" fill-rule="nonzero"/><path fill="#000000" d="M 99.113281 158.167969 C 99.113281 158.167969 99.9375 158.390625 100.765625 158.609375 C 101.175781 158.726562 101.589844 158.84375 101.898438 158.929688 C 102.207031 159.019531 102.414062 159.078125 102.414062 159.078125 C 102.414062 159.078125 102.203125 159.117188 101.890625 159.171875 C 101.574219 159.230469 101.164062 159.320312 100.746094 159.402344 C 99.90625 159.582031 99.066406 159.757812 99.066406 159.757812 C 98.679688 160.054688 98.222656 160.441406 97.660156 160.851562 C 97.378906 161.058594 97.078125 161.269531 96.757812 161.484375 C 96.433594 161.703125 96.109375 161.933594 95.757812 162.15625 C 94.339844 163.039062 92.695312 163.941406 90.90625 164.503906 C 90.019531 164.789062 89.09375 164.984375 88.148438 165.050781 C 87.191406 165.113281 86.25 165.058594 85.28125 164.808594 C 83.355469 164.304688 81.40625 163.0625 79.667969 160.527344 C 80.078125 159.753906 80.503906 159.054688 80.941406 158.417969 C 81.375 157.78125 81.851562 157.234375 82.316406 156.734375 C 83.238281 155.742188 84.246094 155.039062 85.222656 154.53125 C 85.464844 154.40625 85.710938 154.289062 85.957031 154.191406 C 86.207031 154.097656 86.453125 154.011719 86.703125 153.9375 C 87.195312 153.792969 87.6875 153.691406 88.171875 153.632812 C 89.140625 153.519531 90.082031 153.566406 91.003906 153.742188 C 92.832031 154.085938 94.496094 154.878906 95.886719 155.742188 C 97.277344 156.601562 98.394531 157.53125 99.113281 158.167969 " fill-opacity="1" fill-rule="nonzero"/><path fill="#000000" d="M 92.199219 169.390625 C 92.199219 169.390625 93.070312 169.503906 93.945312 169.609375 C 94.808594 169.726562 95.675781 169.847656 95.675781 169.847656 C 95.675781 169.847656 94.855469 170.128906 94.035156 170.414062 C 93.617188 170.558594 93.203125 170.707031 92.890625 170.816406 C 92.578125 170.929688 92.375 171.007812 92.375 171.007812 C 91.71875 171.742188 90.648438 172.800781 89.359375 173.914062 C 88.695312 174.460938 87.996094 175.027344 87.226562 175.554688 C 86.84375 175.816406 86.4375 176.070312 86.027344 176.3125 C 85.625 176.554688 85.203125 176.785156 84.773438 176.992188 C 83.027344 177.816406 81.136719 178.34375 79.09375 178.109375 C 77.0625 177.867188 74.90625 176.886719 72.789062 174.566406 C 72.9375 174.140625 73.082031 173.730469 73.253906 173.347656 C 73.421875 172.960938 73.597656 172.589844 73.777344 172.238281 C 74.136719 171.535156 74.507812 170.894531 74.925781 170.332031 C 75.335938 169.765625 75.761719 169.261719 76.199219 168.816406 C 76.636719 168.375 77.105469 168 77.566406 167.671875 C 78.035156 167.347656 78.503906 167.078125 78.980469 166.855469 C 79.460938 166.632812 79.949219 166.46875 80.4375 166.34375 C 81.410156 166.085938 82.378906 166.003906 83.324219 166.042969 C 85.230469 166.128906 87.039062 166.707031 88.574219 167.382812 C 90.113281 168.0625 91.378906 168.84375 92.199219 169.390625 " fill-opacity="1" fill-rule="nonzero"/><path fill="#000000" d="M 86.753906 181.792969 C 86.753906 181.792969 87.660156 181.78125 88.566406 181.769531 C 89.46875 181.765625 90.367188 181.757812 90.367188 181.757812 C 90.367188 181.757812 89.566406 182.164062 88.765625 182.566406 C 88.363281 182.773438 87.972656 182.988281 87.675781 183.144531 C 87.378906 183.308594 87.179688 183.417969 87.179688 183.417969 C 86.589844 184.246094 85.695312 185.488281 84.519531 186.796875 C 83.949219 187.457031 83.292969 188.125 82.589844 188.773438 C 81.894531 189.421875 81.128906 190.042969 80.296875 190.582031 C 78.683594 191.683594 76.78125 192.476562 74.699219 192.53125 C 72.609375 192.582031 70.269531 191.890625 67.785156 189.835938 C 68.496094 186.210938 69.972656 183.738281 71.652344 182.148438 C 72.515625 181.359375 73.433594 180.785156 74.375 180.382812 C 75.324219 179.984375 76.308594 179.769531 77.277344 179.671875 C 79.222656 179.484375 81.125 179.804688 82.789062 180.273438 C 84.449219 180.742188 85.847656 181.355469 86.753906 181.792969 " fill-opacity="1" fill-rule="nonzero"/><path fill="#000000" d="M 82.996094 195.210938 C 82.996094 195.210938 83.910156 195.066406 84.820312 194.917969 C 85.277344 194.851562 85.730469 194.785156 86.074219 194.734375 C 86.417969 194.6875 86.644531 194.652344 86.644531 194.652344 C 86.644531 194.652344 86.453125 194.78125 86.171875 194.980469 C 85.894531 195.179688 85.519531 195.445312 85.144531 195.707031 C 84.769531 195.976562 84.394531 196.25 84.109375 196.453125 C 83.824219 196.65625 83.644531 196.792969 83.644531 196.792969 C 83.417969 197.261719 83.113281 197.84375 82.738281 198.492188 C 82.546875 198.816406 82.347656 199.160156 82.132812 199.519531 C 81.917969 199.875 81.6875 200.246094 81.4375 200.617188 C 80.441406 202.117188 79.195312 203.726562 77.691406 205.074219 C 77.3125 205.40625 76.910156 205.722656 76.5 206.019531 C 76.089844 206.316406 75.664062 206.589844 75.214844 206.828125 C 74.316406 207.3125 73.335938 207.671875 72.273438 207.84375 C 70.144531 208.191406 67.683594 207.820312 64.882812 206.085938 C 65.105469 202.304688 66.207031 199.578125 67.71875 197.730469 C 68.09375 197.265625 68.496094 196.855469 68.910156 196.492188 C 69.328125 196.132812 69.777344 195.820312 70.230469 195.550781 C 71.136719 195.011719 72.09375 194.644531 73.0625 194.410156 C 75.011719 193.941406 77.003906 193.996094 78.753906 194.234375 C 80.503906 194.476562 82.011719 194.898438 82.996094 195.210938 " fill-opacity="1" fill-rule="nonzero"/><path fill="#000000" d="M 81.058594 209.417969 C 81.058594 209.417969 81.285156 209.34375 81.621094 209.238281 C 81.957031 209.136719 82.414062 208.996094 82.871094 208.863281 C 83.78125 208.597656 84.691406 208.332031 84.691406 208.332031 C 84.691406 208.332031 84.519531 208.492188 84.257812 208.730469 C 83.996094 208.96875 83.644531 209.289062 83.308594 209.617188 C 82.628906 210.277344 81.949219 210.9375 81.949219 210.9375 C 81.765625 211.441406 81.550781 212.078125 81.265625 212.792969 C 81.125 213.148438 80.964844 213.527344 80.792969 213.917969 C 80.617188 214.3125 80.445312 214.71875 80.242188 215.132812 C 80.042969 215.550781 79.828125 215.976562 79.589844 216.402344 C 79.359375 216.832031 79.121094 217.265625 78.859375 217.695312 C 78.597656 218.121094 78.3125 218.550781 78.011719 218.96875 C 77.710938 219.386719 77.40625 219.796875 77.066406 220.1875 C 75.714844 221.765625 74.070312 223.109375 71.964844 223.765625 C 69.859375 224.417969 67.308594 224.382812 64.214844 223.015625 C 64.121094 222.050781 64.132812 221.140625 64.175781 220.289062 C 64.199219 219.863281 64.230469 219.453125 64.277344 219.054688 C 64.335938 218.660156 64.402344 218.277344 64.480469 217.910156 C 64.636719 217.171875 64.824219 216.488281 65.070312 215.863281 C 65.320312 215.234375 65.605469 214.660156 65.917969 214.136719 C 66.074219 213.875 66.238281 213.625 66.410156 213.386719 C 66.582031 213.152344 66.769531 212.925781 66.957031 212.714844 C 67.335938 212.285156 67.738281 211.910156 68.160156 211.570312 C 68.578125 211.230469 69.015625 210.9375 69.46875 210.675781 C 69.925781 210.417969 70.398438 210.199219 70.875 210.011719 C 72.785156 209.257812 74.808594 209.03125 76.617188 209.023438 C 78.421875 209.023438 80.015625 209.238281 81.058594 209.417969 " fill-opacity="1" fill-rule="nonzero"/><path fill="#000000" d="M 81.082031 224.15625 C 81.082031 224.15625 81.964844 223.75 82.847656 223.339844 C 83.730469 222.945312 84.617188 222.546875 84.617188 222.546875 C 84.617188 222.546875 84.003906 223.296875 83.390625 224.046875 C 82.789062 224.804688 82.203125 225.578125 82.203125 225.578125 C 82.101562 226.113281 81.941406 226.792969 81.765625 227.558594 C 81.675781 227.941406 81.570312 228.34375 81.449219 228.765625 C 81.386719 228.980469 81.324219 229.195312 81.257812 229.414062 C 81.191406 229.632812 81.125 229.855469 81.054688 230.082031 C 80.476562 231.882812 79.683594 233.867188 78.539062 235.65625 C 77.976562 236.546875 77.3125 237.390625 76.535156 238.136719 C 75.769531 238.878906 74.886719 239.519531 73.867188 239.996094 C 71.824219 240.945312 69.234375 241.265625 65.898438 240.3125 C 65.050781 236.429688 65.410156 233.363281 66.386719 231.066406 C 66.886719 229.917969 67.550781 228.953125 68.300781 228.148438 C 69.054688 227.347656 69.9375 226.699219 70.84375 226.1875 C 72.671875 225.160156 74.6875 224.644531 76.523438 224.382812 C 78.355469 224.125 80 224.121094 81.082031 224.15625 " fill-opacity="1" fill-rule="nonzero"/><path fill="#000000" d="M 83.164062 239.148438 C 83.164062 239.148438 84.003906 238.609375 84.839844 238.074219 C 85.679688 237.550781 86.519531 237.023438 86.519531 237.023438 C 86.519531 237.023438 86.003906 237.867188 85.492188 238.710938 C 85.363281 238.925781 85.234375 239.140625 85.117188 239.339844 C 85 239.542969 84.894531 239.730469 84.800781 239.894531 C 84.617188 240.21875 84.496094 240.433594 84.496094 240.433594 C 84.472656 240.992188 84.40625 241.703125 84.328125 242.5 C 84.253906 243.300781 84.125 244.207031 83.957031 245.160156 C 83.804688 246.113281 83.574219 247.121094 83.289062 248.136719 C 83.011719 249.148438 82.640625 250.175781 82.1875 251.164062 C 81.742188 252.144531 81.1875 253.09375 80.503906 253.953125 C 79.820312 254.816406 79.027344 255.585938 78.054688 256.214844 C 76.121094 257.460938 73.539062 258.148438 70.023438 257.644531 C 68.621094 253.828125 68.566406 250.664062 69.230469 248.203125 C 69.585938 246.964844 70.113281 245.894531 70.761719 244.980469 C 71.429688 244.054688 72.21875 243.28125 73.070312 242.632812 C 73.921875 241.984375 74.839844 241.460938 75.777344 241.03125 C 76.714844 240.605469 77.664062 240.273438 78.578125 240.011719 C 80.398438 239.492188 82.0625 239.261719 83.164062 239.148438 " fill-opacity="1" fill-rule="nonzero"/><path fill="#000000" d="M 87.363281 254.085938 C 87.363281 254.085938 88.136719 253.425781 88.910156 252.761719 C 89.683594 252.117188 90.457031 251.46875 90.457031 251.46875 C 90.457031 251.46875 90.058594 252.390625 89.660156 253.320312 C 89.253906 254.257812 88.886719 255.203125 88.886719 255.203125 C 88.941406 255.773438 88.984375 256.496094 89.003906 257.320312 C 89.042969 258.144531 89.050781 259.074219 89 260.066406 C 88.976562 261.050781 88.894531 262.101562 88.734375 263.175781 C 88.597656 264.238281 88.375 265.328125 88.042969 266.390625 C 87.417969 268.503906 86.335938 270.550781 84.566406 272.085938 C 82.78125 273.617188 80.257812 274.679688 76.628906 274.65625 C 74.667969 270.988281 74.179688 267.789062 74.511719 265.199219 C 74.699219 263.894531 75.070312 262.742188 75.613281 261.71875 C 76.160156 260.691406 76.847656 259.800781 77.621094 259.023438 C 79.15625 257.472656 81.066406 256.378906 82.835938 255.597656 C 84.609375 254.824219 86.265625 254.351562 87.363281 254.085938 " fill-opacity="1" fill-rule="nonzero"/><path fill="#000000" d="M 93.703125 268.652344 C 93.703125 268.652344 94.390625 267.875 95.078125 267.097656 C 95.773438 266.335938 96.464844 265.570312 96.464844 265.570312 C 96.464844 265.570312 96.191406 266.5625 95.917969 267.554688 C 95.785156 268.058594 95.652344 268.5625 95.550781 268.941406 C 95.457031 269.320312 95.398438 269.570312 95.398438 269.570312 C 95.53125 270.140625 95.679688 270.863281 95.8125 271.699219 C 95.960938 272.527344 96.105469 273.464844 96.195312 274.476562 C 96.300781 275.480469 96.375 276.550781 96.363281 277.660156 C 96.367188 278.761719 96.300781 279.890625 96.113281 281.015625 C 95.9375 282.136719 95.660156 283.238281 95.214844 284.300781 C 94.996094 284.828125 94.734375 285.347656 94.429688 285.84375 C 94.128906 286.339844 93.785156 286.816406 93.386719 287.265625 C 91.800781 289.066406 89.382812 290.5 85.714844 290.980469 C 83.214844 287.539062 82.265625 284.371094 82.246094 281.703125 C 82.246094 281.03125 82.300781 280.390625 82.410156 279.777344 C 82.511719 279.167969 82.667969 278.582031 82.875 278.023438 C 83.28125 276.90625 83.851562 275.910156 84.523438 275.015625 C 85.195312 274.125 85.976562 273.332031 86.800781 272.636719 C 87.625 271.9375 88.484375 271.335938 89.328125 270.820312 C 91.015625 269.785156 92.625 269.078125 93.703125 268.652344 " fill-opacity="1" fill-rule="nonzero"/><path fill="#000000" d="M 102.164062 282.535156 C 102.164062 282.535156 102.75 281.652344 103.335938 280.769531 C 103.632812 280.332031 103.929688 279.894531 104.152344 279.570312 C 104.375 279.242188 104.527344 279.023438 104.527344 279.023438 C 104.527344 279.023438 104.488281 279.289062 104.4375 279.675781 C 104.386719 280.066406 104.320312 280.589844 104.25 281.113281 C 104.1875 281.640625 104.121094 282.171875 104.074219 282.566406 C 104.050781 282.765625 104.035156 282.929688 104.023438 283.046875 C 104.011719 283.164062 104.003906 283.230469 104.003906 283.230469 C 104.222656 283.785156 104.472656 284.492188 104.730469 285.320312 C 104.988281 286.140625 105.273438 287.066406 105.507812 288.074219 C 105.621094 288.585938 105.746094 289.097656 105.851562 289.632812 C 105.957031 290.167969 106.050781 290.714844 106.125 291.277344 C 106.269531 292.398438 106.375 293.542969 106.34375 294.707031 C 106.324219 295.292969 106.289062 295.871094 106.21875 296.445312 C 106.148438 297.019531 106.042969 297.59375 105.894531 298.160156 C 105.601562 299.292969 105.128906 300.402344 104.457031 301.425781 C 103.78125 302.445312 102.882812 303.402344 101.695312 304.226562 C 100.507812 305.054688 99.035156 305.761719 97.21875 306.25 C 96.847656 305.855469 96.496094 305.464844 96.167969 305.078125 C 95.835938 304.691406 95.527344 304.308594 95.253906 303.917969 C 94.695312 303.140625 94.222656 302.382812 93.824219 301.640625 C 93.441406 300.886719 93.136719 300.152344 92.898438 299.4375 C 92.78125 299.082031 92.675781 298.730469 92.59375 298.382812 C 92.515625 298.03125 92.453125 297.6875 92.402344 297.347656 C 92.007812 294.640625 92.664062 292.25 93.765625 290.261719 C 94.882812 288.265625 96.484375 286.625 98.042969 285.339844 C 99.601562 284.054688 101.132812 283.117188 102.164062 282.535156 " fill-opacity="1" fill-rule="nonzero"/><path fill="#000000" d="M 112.6875 295.425781 C 112.6875 295.425781 113.152344 294.449219 113.625 293.476562 C 113.863281 292.992188 114.101562 292.507812 114.28125 292.148438 C 114.464844 291.78125 114.585938 291.542969 114.585938 291.542969 C 114.585938 291.542969 114.585938 291.8125 114.582031 292.214844 C 114.585938 292.621094 114.59375 293.15625 114.601562 293.695312 C 114.621094 294.78125 114.644531 295.871094 114.644531 295.871094 C 114.9375 296.410156 115.300781 297.082031 115.675781 297.878906 C 116.042969 298.683594 116.460938 299.574219 116.84375 300.554688 C 117.039062 301.042969 117.21875 301.566406 117.402344 302.085938 C 117.585938 302.605469 117.757812 303.144531 117.910156 303.699219 C 118.066406 304.25 118.199219 304.824219 118.320312 305.394531 C 118.441406 305.960938 118.539062 306.542969 118.609375 307.128906 C 118.679688 307.714844 118.71875 308.304688 118.722656 308.902344 C 118.726562 309.5 118.707031 310.085938 118.636719 310.679688 C 118.5 311.859375 118.1875 313.039062 117.648438 314.175781 C 116.558594 316.445312 114.5625 318.5625 111.019531 320.09375 C 110.585938 319.753906 110.171875 319.414062 109.78125 319.066406 C 109.402344 318.714844 109.039062 318.363281 108.703125 318.015625 C 108.023438 317.3125 107.425781 316.625 106.9375 315.910156 C 106.441406 315.207031 106.023438 314.511719 105.679688 313.828125 C 105.34375 313.132812 105.089844 312.445312 104.894531 311.777344 C 104.699219 311.101562 104.566406 310.449219 104.503906 309.804688 C 104.441406 309.152344 104.4375 308.519531 104.480469 307.902344 C 104.570312 306.667969 104.851562 305.511719 105.277344 304.421875 C 106.136719 302.234375 107.515625 300.359375 108.910156 298.839844 C 110.308594 297.324219 111.722656 296.15625 112.6875 295.425781 " fill-opacity="1" fill-rule="nonzero"/><path fill="#000000" d="M 98.410156 338.664062 C 99.101562 337.640625 100.238281 336.160156 101.785156 334.714844 C 103.328125 333.269531 105.28125 331.867188 107.5625 330.972656 C 108.132812 330.746094 108.722656 330.554688 109.328125 330.398438 C 109.941406 330.242188 110.578125 330.117188 111.230469 330.039062 C 111.882812 329.960938 112.554688 329.929688 113.242188 329.949219 C 113.585938 329.957031 113.933594 329.984375 114.289062 330.019531 C 114.648438 330.050781 115.007812 330.09375 115.375 330.15625 C 116.109375 330.277344 116.859375 330.457031 117.628906 330.707031 C 118.402344 330.953125 119.207031 331.246094 120.027344 331.621094 C 120.4375 331.8125 120.851562 332.019531 121.273438 332.242188 C 121.699219 332.460938 122.132812 332.695312 122.574219 332.953125 C 123.011719 333.210938 123.453125 333.492188 123.90625 333.792969 C 124.359375 334.089844 124.824219 334.394531 125.296875 334.734375 C 125.296875 334.734375 125.515625 334.875 125.929688 335.136719 C 126.34375 335.402344 126.945312 335.789062 127.734375 336.261719 C 128.125 336.496094 128.558594 336.757812 129.03125 337.042969 C 129.265625 337.1875 129.511719 337.335938 129.769531 337.488281 C 130.027344 337.636719 130.292969 337.789062 130.570312 337.949219 C 131.125 338.261719 131.710938 338.601562 132.332031 338.957031 C 132.953125 339.308594 133.621094 339.65625 134.3125 340.03125 C 137.074219 341.515625 140.347656 343.167969 143.945312 344.734375 C 147.535156 346.3125 151.441406 347.832031 155.410156 349.15625 C 159.382812 350.484375 163.417969 351.613281 167.238281 352.503906 C 171.0625 353.390625 174.667969 354.0625 177.777344 354.503906 C 178.550781 354.632812 179.296875 354.722656 180.007812 354.8125 C 180.71875 354.902344 181.390625 354.996094 182.023438 355.066406 C 183.292969 355.191406 184.402344 355.316406 185.3125 355.390625 C 187.140625 355.53125 188.183594 355.613281 188.183594 355.613281 C 188.183594 355.613281 187.253906 355.597656 185.621094 355.570312 C 183.988281 355.535156 181.65625 355.441406 178.851562 355.238281 C 176.054688 355.003906 172.789062 354.679688 169.304688 354.148438 C 165.820312 353.609375 162.117188 352.898438 158.441406 352.027344 C 157.527344 351.796875 156.605469 351.585938 155.695312 351.339844 C 154.785156 351.09375 153.878906 350.851562 152.980469 350.605469 C 152.085938 350.34375 151.199219 350.078125 150.324219 349.816406 C 149.886719 349.695312 149.453125 349.554688 149.023438 349.414062 C 148.59375 349.273438 148.167969 349.136719 147.746094 349 C 144.367188 347.890625 141.242188 346.734375 138.605469 345.644531 C 137.945312 345.367188 137.304688 345.121094 136.710938 344.859375 C 136.113281 344.597656 135.546875 344.347656 135.011719 344.117188 C 133.941406 343.660156 133.03125 343.21875 132.269531 342.871094 C 131.515625 342.515625 130.914062 342.246094 130.515625 342.042969 C 130.113281 341.84375 129.902344 341.738281 129.902344 341.738281 C 129.195312 341.390625 128.46875 341.152344 127.746094 341.023438 C 127.03125 340.878906 126.320312 340.84375 125.636719 340.910156 C 124.273438 341.039062 123.019531 341.578125 122.125 342.484375 C 120.695312 343.941406 118.859375 344.78125 116.808594 345.171875 C 115.789062 345.355469 114.722656 345.417969 113.628906 345.398438 C 113.082031 345.382812 112.527344 345.347656 111.972656 345.292969 C 111.421875 345.234375 110.871094 345.152344 110.320312 345.050781 C 109.769531 344.953125 109.21875 344.839844 108.675781 344.707031 C 108.402344 344.644531 108.128906 344.578125 107.859375 344.507812 C 107.597656 344.433594 107.332031 344.355469 107.066406 344.273438 C 106.019531 343.957031 105.003906 343.597656 104.050781 343.230469 C 103.113281 342.847656 102.234375 342.453125 101.449219 342.078125 C 101.054688 341.890625 100.683594 341.710938 100.339844 341.535156 C 100.003906 341.355469 99.691406 341.183594 99.40625 341.027344 C 99.40625 341.027344 98.054688 340.847656 96.699219 340.667969 C 96.015625 340.578125 95.347656 340.464844 94.839844 340.390625 C 94.328125 340.308594 93.992188 340.25 93.992188 340.25 C 93.992188 340.25 95.097656 339.859375 96.207031 339.472656 C 97.308594 339.082031 98.410156 338.664062 98.410156 338.664062 " fill-opacity="1" fill-rule="nonzero"/><path fill="#000000" d="M 125.105469 306.953125 C 124.242188 307.835938 122.976562 309.214844 121.785156 310.949219 C 120.589844 312.683594 119.464844 314.769531 118.917969 317.097656 C 118.78125 317.679688 118.679688 318.273438 118.621094 318.882812 C 118.566406 319.492188 118.5625 320.105469 118.605469 320.734375 C 118.652344 321.359375 118.75 321.996094 118.90625 322.644531 C 118.988281 322.964844 119.082031 323.292969 119.191406 323.617188 C 119.308594 323.9375 119.4375 324.257812 119.585938 324.582031 C 119.878906 325.230469 120.242188 325.882812 120.679688 326.535156 C 121.121094 327.1875 121.652344 327.816406 122.257812 328.457031 C 122.5625 328.773438 122.882812 329.097656 123.230469 329.40625 C 123.582031 329.710938 123.953125 330.015625 124.347656 330.320312 C 124.742188 330.621094 125.15625 330.921875 125.597656 331.21875 C 126.035156 331.511719 126.507812 331.792969 127 332.074219 C 127 332.074219 127.214844 332.210938 127.617188 332.46875 C 128.019531 332.726562 128.609375 333.109375 129.378906 333.566406 C 129.761719 333.796875 130.1875 334.054688 130.648438 334.332031 C 130.878906 334.46875 131.117188 334.613281 131.367188 334.765625 C 131.621094 334.910156 131.882812 335.058594 132.152344 335.214844 C 132.691406 335.523438 133.265625 335.851562 133.875 336.199219 C 134.480469 336.542969 135.132812 336.882812 135.804688 337.25 C 138.503906 338.703125 141.703125 340.3125 145.214844 341.84375 C 148.722656 343.382812 152.535156 344.871094 156.410156 346.160156 C 160.285156 347.457031 164.226562 348.558594 167.957031 349.429688 C 171.6875 350.296875 175.203125 350.949219 178.234375 351.382812 C 178.992188 351.503906 179.71875 351.59375 180.414062 351.683594 C 181.105469 351.769531 181.761719 351.855469 182.378906 351.929688 C 183.617188 352.050781 184.695312 352.171875 185.585938 352.246094 C 187.367188 352.382812 188.386719 352.460938 188.386719 352.460938 C 188.386719 352.460938 187.484375 352.335938 185.910156 352.117188 C 184.339844 351.882812 182.101562 351.515625 179.4375 350.988281 C 176.78125 350.433594 173.695312 349.734375 170.445312 348.816406 C 167.191406 347.898438 163.769531 346.785156 160.410156 345.535156 C 159.570312 345.210938 158.730469 344.90625 157.902344 344.570312 C 157.078125 344.234375 156.253906 343.898438 155.4375 343.566406 C 154.632812 343.214844 153.832031 342.867188 153.042969 342.523438 C 152.644531 342.351562 152.257812 342.171875 151.871094 341.992188 C 151.488281 341.8125 151.105469 341.632812 150.726562 341.457031 C 147.699219 340.027344 144.929688 338.597656 142.609375 337.28125 C 142.03125 336.949219 141.46875 336.652344 140.945312 336.335938 C 140.425781 336.027344 139.929688 335.734375 139.464844 335.460938 C 138.527344 334.917969 137.738281 334.402344 137.078125 334 C 136.421875 333.585938 135.902344 333.269531 135.558594 333.035156 C 135.210938 332.804688 135.027344 332.683594 135.027344 332.683594 C 134.417969 332.285156 133.894531 331.804688 133.46875 331.277344 C 133.046875 330.742188 132.730469 330.152344 132.511719 329.542969 C 132.082031 328.328125 132.078125 327.03125 132.542969 325.835938 C 133.28125 323.9375 133.410156 322.007812 133.179688 320.164062 C 133.070312 319.230469 132.875 318.308594 132.613281 317.417969 C 132.480469 316.972656 132.332031 316.535156 132.171875 316.105469 C 132.019531 315.667969 131.851562 315.242188 131.675781 314.824219 C 131.496094 314.40625 131.308594 313.996094 131.113281 313.597656 C 131.015625 313.402344 130.917969 313.207031 130.820312 313.011719 C 130.722656 312.8125 130.625 312.621094 130.523438 312.429688 C 130.125 311.664062 129.707031 310.953125 129.296875 310.304688 C 128.898438 309.636719 128.503906 309.027344 128.136719 308.496094 C 127.949219 308.226562 127.773438 307.980469 127.605469 307.75 C 127.445312 307.515625 127.289062 307.296875 127.148438 307.105469 C 127.148438 307.105469 126.96875 306.015625 126.792969 304.933594 C 126.703125 304.398438 126.632812 303.84375 126.578125 303.4375 C 126.523438 303.03125 126.488281 302.757812 126.488281 302.757812 C 126.488281 302.757812 126.136719 303.804688 125.785156 304.851562 C 125.433594 305.90625 125.105469 306.953125 125.105469 306.953125 " fill-opacity="1" fill-rule="nonzero"/><path fill="#000000" d="M 95.832031 135.191406 L 98.683594 132.976562 L 97.050781 136.195312 C 96.984375 140.152344 95.808594 152.296875 83.78125 151.070312 C 80.269531 139.496094 91.964844 136.015625 95.832031 135.191406 " fill-opacity="1" fill-rule="nonzero"/><g clip-path="url(#e7a1c33863)"><path fill="#000000" d="M 24.835938 214.753906 C 24.835938 122.4375 99.671875 47.605469 191.984375 47.605469 C 284.296875 47.605469 359.136719 122.4375 359.136719 214.753906 C 359.136719 237.421875 354.621094 259.027344 346.449219 278.738281 C 358.175781 255.421875 364.78125 229.082031 364.78125 201.199219 C 364.78125 105.769531 287.417969 28.402344 191.984375 28.402344 C 96.550781 28.402344 19.1875 105.769531 19.1875 201.199219 C 19.1875 229.082031 25.792969 255.421875 37.523438 278.738281 C 29.347656 259.027344 24.835938 237.421875 24.835938 214.753906 " fill-opacity="1" fill-rule="nonzero"/></g></svg>