<svg xmlns="http://www.w3.org/2000/svg" xmlns:xlink="http://www.w3.org/1999/xlink" width="80" zoomAndPan="magnify" viewBox="0 0 60 44.999999" height="60" preserveAspectRatio="xMidYMid meet" version="1.0"><defs><clipPath id="eb48b501c3"><path d="M 16.882812 4.5 L 43.132812 4.5 L 43.132812 27.75 L 16.882812 27.75 Z M 16.882812 4.5 " clip-rule="nonzero"/></clipPath><clipPath id="3249021533"><path d="M 0 31.253906 L 57 31.253906 L 57 42.503906 L 0 42.503906 Z M 0 31.253906 " clip-rule="nonzero"/></clipPath></defs><g clip-path="url(#eb48b501c3)"><path fill="#ffffff" d="M 29.707031 16.257812 C 29.707031 16.882812 29.707031 17.503906 29.710938 18.125 L 24.097656 14.78125 L 24.097656 8.292969 C 24.234375 8.375 24.371094 8.457031 24.503906 8.535156 C 24.980469 8.820312 25.457031 9.101562 25.933594 9.386719 C 26.507812 9.726562 27.082031 10.066406 27.65625 10.410156 C 28.15625 10.707031 28.65625 11 29.152344 11.296875 C 29.339844 11.40625 29.523438 11.523438 29.707031 11.632812 C 29.707031 11.816406 29.707031 12.003906 29.707031 12.1875 C 29.707031 12.800781 29.707031 13.414062 29.707031 14.03125 C 29.707031 14.773438 29.707031 15.515625 29.707031 16.257812 Z M 32.117188 9.78125 C 32.691406 9.441406 33.265625 9.101562 33.839844 8.757812 C 34.316406 8.476562 34.792969 8.191406 35.269531 7.910156 C 35.40625 7.828125 35.542969 7.746094 35.679688 7.664062 L 30.070312 4.5 L 24.464844 7.664062 C 24.648438 7.773438 24.832031 7.886719 25.015625 7.996094 C 25.511719 8.289062 26.011719 8.585938 26.511719 8.882812 C 27.085938 9.222656 27.660156 9.566406 28.234375 9.90625 C 28.710938 10.1875 29.1875 10.472656 29.664062 10.753906 C 29.796875 10.835938 29.929688 10.914062 30.066406 10.996094 C 30.25 10.882812 30.4375 10.78125 30.621094 10.671875 C 31.121094 10.375 31.621094 10.078125 32.117188 9.78125 Z M 36.046875 8.296875 C 35.863281 8.40625 35.679688 8.511719 35.496094 8.621094 C 34.996094 8.917969 34.496094 9.214844 34 9.511719 C 33.425781 9.851562 32.851562 10.191406 32.277344 10.535156 C 31.800781 10.816406 31.324219 11.097656 30.847656 11.382812 C 30.710938 11.464844 30.574219 11.542969 30.4375 11.625 C 30.441406 11.875 30.433594 12.125 30.433594 12.371094 C 30.433594 13.015625 30.433594 13.65625 30.433594 14.300781 C 30.433594 15.042969 30.433594 15.785156 30.433594 16.53125 C 30.433594 17.0625 30.433594 17.59375 30.433594 18.125 L 36.046875 14.78125 Z M 22.949219 17.636719 C 22.746094 17.4375 22.464844 17.316406 22.179688 17.316406 C 21.910156 17.316406 21.59375 17.433594 21.410156 17.636719 C 21.21875 17.84375 21.078125 18.117188 21.089844 18.40625 C 21.101562 18.691406 21.199219 18.972656 21.410156 19.175781 C 21.910156 19.65625 22.410156 20.140625 22.914062 20.621094 C 23.078125 20.78125 23.242188 20.9375 23.40625 21.09375 C 23.554688 21.238281 23.582031 21.476562 23.449219 21.636719 C 23.320312 21.789062 23.101562 21.824219 22.933594 21.714844 L 19.199219 19.300781 C 19.160156 19.273438 19.136719 19.230469 19.136719 19.183594 L 19.070312 17.667969 C 19.070312 17.011719 19.070312 16.359375 19.070312 15.707031 C 19.070312 15.140625 19.070312 14.574219 19.070312 14.007812 C 19.070312 13.730469 19.074219 13.457031 19.070312 13.179688 C 19.070312 13.175781 19.070312 13.171875 19.070312 13.167969 C 19.070312 12.890625 18.949219 12.597656 18.753906 12.398438 C 18.5625 12.210938 18.253906 12.066406 17.984375 12.082031 C 17.703125 12.09375 17.410156 12.183594 17.214844 12.398438 C 17.015625 12.613281 16.894531 12.875 16.894531 13.167969 C 16.894531 13.410156 16.894531 13.65625 16.894531 13.898438 C 16.894531 14.476562 16.894531 15.050781 16.894531 15.628906 C 16.894531 16.308594 16.894531 16.988281 16.894531 17.667969 C 16.894531 18.226562 16.894531 18.785156 16.894531 19.34375 C 16.894531 19.503906 16.894531 19.667969 16.894531 19.828125 C 16.894531 19.867188 16.894531 19.90625 16.894531 19.945312 C 16.898438 20.238281 17.003906 20.53125 17.214844 20.742188 C 17.390625 20.917969 17.574219 21.089844 17.753906 21.261719 L 21.578125 24.9375 C 21.605469 24.964844 21.621094 25 21.621094 25.042969 L 21.621094 27.628906 C 21.621094 27.710938 21.6875 27.773438 21.765625 27.773438 L 27.511719 27.773438 C 27.59375 27.773438 27.65625 27.710938 27.660156 27.628906 L 27.691406 21.496094 C 27.679688 21.210938 27.582031 20.929688 27.371094 20.726562 Z M 42.78125 12.398438 C 42.585938 12.183594 42.292969 12.09375 42.011719 12.078125 C 41.742188 12.066406 41.429688 12.210938 41.242188 12.398438 C 41.046875 12.597656 40.925781 12.890625 40.925781 13.167969 C 40.925781 13.171875 40.925781 13.175781 40.925781 13.179688 C 40.921875 13.457031 40.925781 13.730469 40.925781 14.007812 C 40.925781 14.574219 40.925781 15.140625 40.925781 15.707031 C 40.925781 16.359375 40.925781 17.011719 40.925781 17.664062 L 40.859375 19.183594 C 40.859375 19.230469 40.832031 19.273438 40.792969 19.296875 L 37.0625 21.714844 C 36.894531 21.820312 36.675781 21.789062 36.546875 21.632812 C 36.414062 21.472656 36.441406 21.238281 36.589844 21.09375 C 36.753906 20.9375 36.917969 20.777344 37.082031 20.621094 C 37.582031 20.140625 38.085938 19.65625 38.585938 19.175781 C 38.796875 18.972656 38.894531 18.691406 38.90625 18.40625 C 38.917969 18.113281 38.777344 17.84375 38.585938 17.632812 C 38.402344 17.433594 38.082031 17.316406 37.816406 17.316406 C 37.53125 17.316406 37.25 17.4375 37.046875 17.632812 L 32.625 20.726562 C 32.414062 20.929688 32.316406 21.210938 32.304688 21.496094 L 32.335938 27.628906 C 32.335938 27.707031 32.402344 27.773438 32.480469 27.773438 L 38.226562 27.773438 C 38.308594 27.773438 38.375 27.707031 38.375 27.628906 L 38.375 25.039062 C 38.375 25 38.390625 24.964844 38.417969 24.9375 L 42.238281 21.261719 C 42.421875 21.089844 42.605469 20.917969 42.78125 20.742188 C 42.992188 20.53125 43.097656 20.238281 43.101562 19.945312 C 43.101562 19.90625 43.101562 19.867188 43.101562 19.828125 C 43.101562 19.667969 43.101562 19.503906 43.101562 19.34375 C 43.101562 18.785156 43.101562 18.222656 43.101562 17.664062 C 43.101562 16.988281 43.101562 16.308594 43.101562 15.628906 C 43.101562 15.050781 43.101562 14.472656 43.101562 13.898438 C 43.101562 13.652344 43.101562 13.410156 43.101562 13.167969 C 43.101562 12.875 42.976562 12.613281 42.78125 12.398438 Z M 42.78125 12.398438 " fill-opacity="1" fill-rule="nonzero"/></g><g clip-path="url(#3249021533)"><path fill="#ffffff" d="M 5.234375 31.253906 L 5.101562 33.246094 L 4.125 33.246094 L 4.035156 32.007812 L 2.484375 32.007812 L 2.484375 34.972656 L 3.152344 34.972656 C 3.199219 34.753906 3.242188 34.53125 3.332031 34.308594 L 4.039062 34.308594 L 4.039062 36.34375 L 3.371094 36.34375 C 3.328125 36.125 3.238281 35.902344 3.195312 35.679688 L 2.527344 35.679688 L 2.527344 38.828125 L 4.078125 38.828125 L 4.210938 37.457031 L 5.273438 37.5 L 5.363281 39.585938 L 0.269531 39.585938 L 0.269531 38.871094 L 0.980469 38.738281 L 0.980469 32.09375 C 0.699219 32.054688 0.417969 32.007812 0.136719 31.960938 L 0.136719 31.253906 Z M 23.222656 42.375 C 23.222656 42.152344 23.265625 41.976562 23.265625 41.796875 L 23.796875 41.664062 L 23.796875 34.574219 C 23.578125 34.53125 23.398438 34.53125 23.179688 34.488281 L 23.179688 33.910156 L 24.863281 33.6875 C 24.90625 33.910156 24.996094 34.132812 25.039062 34.308594 C 25.082031 34.308594 25.082031 34.265625 25.128906 34.265625 C 25.527344 33.777344 26.058594 33.644531 26.679688 33.6875 C 27.429688 33.777344 27.875 34.265625 28.050781 34.929688 C 28.140625 35.238281 28.230469 35.550781 28.230469 35.859375 C 28.273438 36.527344 28.273438 37.1875 28.183594 37.808594 C 28.140625 38.03125 28.050781 38.296875 27.964844 38.519531 C 27.652344 39.1875 27.121094 39.582031 26.414062 39.625 C 26.011719 39.671875 25.660156 39.625 25.304688 39.449219 L 25.214844 39.449219 L 25.214844 41.664062 C 25.40625 41.714844 25.597656 41.757812 25.792969 41.796875 C 25.792969 41.972656 25.746094 42.152344 25.746094 42.375 Z M 25.214844 38.695312 C 25.660156 38.875 26.101562 38.917969 26.542969 38.742188 C 26.625 38.707031 26.683594 38.644531 26.722656 38.5625 C 26.765625 38.34375 26.855469 38.121094 26.855469 37.898438 C 26.941406 37.230469 26.941406 36.523438 26.898438 35.859375 C 26.898438 35.613281 26.851562 35.378906 26.765625 35.148438 C 26.632812 34.664062 26.277344 34.484375 25.789062 34.574219 L 25.703125 34.574219 C 25.390625 34.617188 25.214844 34.839844 25.214844 35.148438 Z M 42.050781 38.828125 L 42.628906 38.960938 C 42.628906 39.183594 42.628906 39.359375 42.585938 39.582031 L 40.632812 39.582031 L 40.632812 35.59375 C 40.632812 35.417969 40.589844 35.242188 40.546875 35.0625 C 40.5 34.84375 40.324219 34.753906 40.101562 34.710938 C 39.882812 34.664062 39.703125 34.664062 39.527344 34.753906 C 39.347656 34.84375 39.214844 34.929688 39.214844 35.152344 L 39.214844 38.828125 L 39.792969 38.960938 C 39.792969 39.140625 39.746094 39.359375 39.746094 39.582031 L 37.265625 39.582031 L 37.265625 38.960938 L 37.84375 38.828125 L 37.84375 34.617188 C 37.621094 34.574219 37.445312 34.574219 37.222656 34.527344 L 37.222656 33.90625 L 38.863281 33.6875 L 38.996094 34.21875 C 39.128906 34.128906 39.261719 33.996094 39.394531 33.90625 C 39.925781 33.554688 40.546875 33.507812 41.121094 33.730469 C 41.609375 33.90625 41.871094 34.308594 41.964844 34.839844 C 42.007812 34.972656 42.007812 35.148438 42.007812 35.28125 L 42.007812 38.605469 C 42.050781 38.695312 42.050781 38.78125 42.050781 38.828125 Z M 7.757812 38.871094 L 8.332031 39.003906 C 8.332031 39.226562 8.289062 39.402344 8.289062 39.625 L 5.765625 39.625 C 5.765625 39.445312 5.765625 39.226562 5.808594 39.003906 L 6.339844 38.871094 C 6.386719 38.738281 6.386719 34.882812 6.339844 34.660156 C 6.164062 34.617188 5.941406 34.617188 5.71875 34.574219 L 5.71875 33.949219 C 6.253906 33.859375 6.785156 33.816406 7.359375 33.726562 L 7.492188 34.261719 L 7.625 34.128906 C 8.15625 33.683594 8.777344 33.550781 9.441406 33.726562 C 10.019531 33.859375 10.328125 34.261719 10.460938 34.835938 C 10.503906 34.96875 10.503906 35.144531 10.503906 35.277344 L 10.503906 38.824219 C 10.726562 38.867188 10.90625 38.914062 11.082031 38.957031 L 11.082031 39.578125 L 9.132812 39.578125 L 9.132812 35.726562 C 9.132812 35.59375 9.132812 35.417969 9.085938 35.285156 C 9.042969 34.929688 8.820312 34.753906 8.511719 34.707031 C 8.246094 34.664062 8.023438 34.707031 7.84375 34.929688 C 7.753906 35.019531 7.753906 35.109375 7.753906 35.242188 L 7.753906 38.871094 Z M 51.003906 34.488281 C 50.78125 34.488281 50.605469 34.441406 50.382812 34.441406 L 50.382812 33.910156 L 52.289062 33.6875 C 52.375 33.910156 52.464844 34.132812 52.464844 34.398438 L 52.464844 38.871094 C 52.65625 38.910156 52.851562 38.953125 53.039062 39.003906 C 53.039062 39.226562 52.996094 39.402344 52.996094 39.625 L 51.355469 39.625 C 51.3125 39.492188 51.269531 39.3125 51.222656 39.136719 C 51.179688 39.179688 51.136719 39.226562 51.089844 39.226562 C 50.425781 39.84375 49.539062 39.757812 48.964844 39.492188 C 48.519531 39.269531 48.296875 38.914062 48.214844 38.429688 C 48.167969 38.25 48.167969 38.117188 48.167969 37.941406 L 48.167969 34.527344 C 47.949219 34.484375 47.726562 34.484375 47.550781 34.441406 L 47.550781 33.90625 L 49.410156 33.6875 C 49.453125 33.90625 49.542969 34.085938 49.542969 34.304688 L 49.542969 37.675781 C 49.542969 37.808594 49.542969 37.984375 49.585938 38.117188 C 49.632812 38.515625 49.898438 38.785156 50.296875 38.785156 C 50.429688 38.785156 50.605469 38.738281 50.738281 38.738281 C 50.871094 38.695312 51.09375 38.429688 51.09375 38.296875 L 51.09375 34.621094 C 51.003906 34.574219 51.003906 34.53125 51.003906 34.488281 Z M 20.074219 37.011719 C 20.074219 37.5 20.164062 37.898438 20.382812 38.296875 C 20.605469 38.609375 20.917969 38.785156 21.316406 38.828125 C 21.714844 38.828125 22.066406 38.742188 22.421875 38.609375 C 22.46875 38.609375 22.511719 38.5625 22.601562 38.5625 C 22.6875 38.742188 22.734375 38.917969 22.820312 39.09375 C 22.734375 39.183594 22.601562 39.226562 22.511719 39.316406 C 21.800781 39.714844 21.050781 39.847656 20.296875 39.582031 C 19.628906 39.40625 19.234375 38.960938 18.921875 38.34375 C 18.613281 37.675781 18.523438 36.96875 18.613281 36.257812 C 18.65625 35.8125 18.746094 35.371094 18.921875 34.972656 C 19.234375 34.304688 19.71875 33.863281 20.429688 33.730469 C 21.136719 33.597656 21.757812 33.6875 22.289062 34.175781 C 22.601562 34.484375 22.777344 34.882812 22.910156 35.28125 C 23.042969 35.726562 23.085938 36.125 23.085938 36.566406 C 23.085938 36.699219 22.996094 36.832031 22.953125 37.011719 Z M 21.800781 36.261719 C 21.800781 36.085938 21.757812 35.953125 21.757812 35.820312 C 21.714844 35.464844 21.667969 35.152344 21.492188 34.84375 C 21.316406 34.488281 21.003906 34.402344 20.648438 34.535156 C 20.515625 34.578125 20.429688 34.667969 20.339844 34.800781 C 20.164062 35.289062 20.074219 35.773438 20.03125 36.261719 L 20.03125 36.394531 Z M 47.191406 37.011719 C 46.214844 37.011719 45.285156 37.058594 44.308594 37.058594 C 44.265625 37.277344 44.308594 37.457031 44.355469 37.632812 C 44.398438 37.945312 44.53125 38.210938 44.710938 38.429688 C 44.929688 38.695312 45.195312 38.828125 45.550781 38.828125 C 45.90625 38.828125 46.261719 38.785156 46.613281 38.652344 C 46.703125 38.609375 46.746094 38.609375 46.835938 38.5625 C 46.925781 38.742188 46.96875 38.917969 47.058594 39.09375 C 47.011719 39.09375 47.011719 39.140625 46.96875 39.140625 C 46.347656 39.582031 45.683594 39.714844 44.929688 39.671875 C 44.042969 39.582031 43.425781 39.050781 43.113281 38.210938 C 42.671875 37.144531 42.714844 36.082031 43.160156 35.019531 C 43.425781 34.351562 43.910156 33.867188 44.664062 33.734375 C 45.242188 33.601562 45.816406 33.644531 46.304688 34 C 46.660156 34.265625 46.878906 34.621094 47.054688 34.976562 C 47.230469 35.460938 47.320312 36.039062 47.320312 36.570312 C 47.320312 36.703125 47.230469 36.835938 47.1875 37.011719 Z M 46.082031 36.261719 C 46.082031 35.863281 46.039062 35.511719 45.90625 35.15625 C 45.859375 34.976562 45.773438 34.800781 45.640625 34.667969 C 45.417969 34.355469 44.710938 34.445312 44.621094 34.84375 C 44.53125 35.15625 44.445312 35.464844 44.398438 35.820312 C 44.355469 35.996094 44.355469 36.171875 44.355469 36.394531 Z M 37 37.011719 C 36.023438 37.011719 35.09375 37.058594 34.121094 37.058594 C 34.121094 37.589844 34.207031 38.03125 34.519531 38.429688 C 34.738281 38.695312 35.003906 38.828125 35.316406 38.828125 C 35.671875 38.828125 36.066406 38.785156 36.378906 38.652344 C 36.46875 38.609375 36.511719 38.609375 36.601562 38.5625 C 36.691406 38.742188 36.734375 38.917969 36.824219 39.09375 C 36.734375 39.140625 36.691406 39.183594 36.644531 39.226562 C 35.976562 39.625 35.273438 39.757812 34.519531 39.625 C 33.808594 39.492188 33.320312 39.050781 33.011719 38.429688 C 32.703125 37.761719 32.613281 37.101562 32.65625 36.390625 C 32.703125 35.90625 32.789062 35.460938 32.96875 35.019531 C 33.191406 34.488281 33.542969 34.089844 34.074219 33.867188 C 34.695312 33.601562 35.316406 33.601562 35.9375 33.910156 C 36.335938 34.132812 36.605469 34.488281 36.777344 34.886719 C 37 35.417969 37.089844 35.992188 37.089844 36.570312 C 37.132812 36.703125 37.042969 36.835938 37 37.011719 Z M 35.890625 36.261719 C 35.890625 36.085938 35.847656 35.90625 35.847656 35.730469 C 35.804688 35.421875 35.757812 35.109375 35.582031 34.84375 C 35.359375 34.488281 35.050781 34.355469 34.695312 34.535156 C 34.605469 34.578125 34.519531 34.625 34.472656 34.757812 C 34.296875 35.109375 34.207031 35.507812 34.164062 35.90625 C 34.164062 36.039062 34.121094 36.171875 34.121094 36.351562 C 34.695312 36.351562 35.269531 36.304688 35.890625 36.261719 Z M 16.308594 33.734375 L 16.441406 34.265625 C 16.53125 34.222656 16.574219 34.175781 16.664062 34.132812 C 17.0625 33.910156 17.492188 33.777344 17.949219 33.734375 C 18.167969 33.691406 18.347656 33.777344 18.480469 33.957031 L 18.300781 35.507812 C 17.992188 35.507812 17.683594 35.460938 17.371094 35.460938 C 17.328125 35.195312 17.28125 34.929688 17.28125 34.621094 C 17.0625 34.621094 16.882812 34.710938 16.707031 34.84375 L 16.707031 38.828125 L 17.28125 38.960938 C 17.28125 39.140625 17.28125 39.359375 17.238281 39.539062 L 14.757812 39.539062 L 14.757812 38.960938 L 15.289062 38.828125 L 15.289062 34.621094 C 15.066406 34.574219 14.890625 34.574219 14.667969 34.53125 L 14.667969 33.910156 C 15.199219 33.910156 15.730469 33.824219 16.308594 33.734375 Z M 53.300781 39.582031 C 53.300781 39.359375 53.300781 39.183594 53.347656 39.007812 L 53.878906 38.875 L 53.878906 34.664062 C 53.703125 34.621094 53.480469 34.621094 53.257812 34.574219 L 53.257812 33.957031 L 54.941406 33.734375 L 55.074219 34.222656 L 55.785156 33.910156 C 56.050781 33.820312 56.273438 33.777344 56.535156 33.734375 C 56.757812 33.6875 56.933594 33.734375 57.066406 33.957031 L 56.890625 35.507812 C 56.578125 35.507812 56.269531 35.460938 55.957031 35.460938 C 55.914062 35.195312 55.871094 34.886719 55.871094 34.621094 L 55.292969 34.839844 L 55.292969 38.871094 C 55.484375 38.921875 55.675781 38.964844 55.871094 39.003906 C 55.871094 39.179688 55.824219 39.402344 55.824219 39.578125 L 53.300781 39.578125 Z M 31.28125 34.621094 L 30.707031 34.84375 L 30.707031 38.871094 L 31.28125 39.003906 C 31.28125 39.226562 31.238281 39.402344 31.238281 39.578125 L 28.757812 39.578125 L 28.757812 39.003906 L 29.289062 38.871094 L 29.289062 34.664062 C 29.066406 34.621094 28.890625 34.621094 28.667969 34.574219 L 28.667969 33.957031 L 30.351562 33.734375 L 30.484375 34.222656 L 30.972656 33.957031 C 31.285156 33.820312 31.609375 33.730469 31.949219 33.691406 C 32.214844 33.691406 32.390625 33.777344 32.523438 33.957031 L 32.347656 35.507812 C 32.035156 35.507812 31.726562 35.460938 31.417969 35.460938 Z M 13.117188 32.625 L 13.117188 33.824219 L 14.136719 33.824219 C 14.09375 34.089844 14.09375 34.308594 14.09375 34.574219 C 13.78125 34.574219 13.472656 34.617188 13.160156 34.664062 L 13.160156 38.433594 C 13.207031 38.652344 13.339844 38.832031 13.605469 38.832031 L 14.179688 38.832031 C 14.179688 39.050781 14.226562 39.230469 14.226562 39.449219 C 14.09375 39.539062 13.914062 39.582031 13.738281 39.628906 C 13.382812 39.714844 13.027344 39.714844 12.675781 39.671875 C 12.144531 39.582031 11.789062 39.230469 11.699219 38.652344 L 11.699219 34.664062 C 11.476562 34.621094 11.257812 34.574219 11.03125 34.574219 C 11.03125 34.355469 11.03125 34.089844 11.078125 33.867188 C 11.34375 33.867188 11.5625 33.820312 11.828125 33.820312 L 12.136719 32.714844 L 13.113281 32.625 Z M 13.117188 32.625 " fill-opacity="1" fill-rule="evenodd"/></g><path fill="#ffffff" d="M 25.769531 41.484375 C 25.769531 41.59375 25.660156 41.679688 25.546875 41.679688 C 25.40625 41.679688 25.296875 41.59375 25.296875 41.484375 C 25.296875 41.375 25.40625 41.289062 25.546875 41.289062 C 25.6875 41.289062 25.769531 41.375 25.769531 41.484375 Z M 25.378906 41.484375 C 25.378906 41.566406 25.464844 41.625 25.546875 41.625 C 25.628906 41.625 25.714844 41.566406 25.714844 41.484375 C 25.714844 41.402344 25.628906 41.34375 25.546875 41.34375 C 25.4375 41.34375 25.378906 41.402344 25.378906 41.484375 Z M 25.519531 41.59375 L 25.464844 41.59375 L 25.464844 41.402344 L 25.546875 41.402344 C 25.601562 41.402344 25.601562 41.402344 25.628906 41.429688 L 25.660156 41.457031 C 25.660156 41.484375 25.628906 41.484375 25.601562 41.511719 C 25.628906 41.511719 25.628906 41.539062 25.660156 41.566406 C 25.660156 41.59375 25.660156 41.59375 25.6875 41.625 L 25.601562 41.625 C 25.601562 41.625 25.601562 41.59375 25.574219 41.59375 C 25.574219 41.566406 25.546875 41.566406 25.546875 41.566406 L 25.519531 41.566406 Z M 25.519531 41.484375 C 25.574219 41.484375 25.574219 41.484375 25.574219 41.457031 C 25.574219 41.429688 25.546875 41.429688 25.546875 41.429688 L 25.519531 41.429688 Z M 25.519531 41.484375 " fill-opacity="1" fill-rule="nonzero"/></svg>