<svg xmlns="http://www.w3.org/2000/svg" xmlns:xlink="http://www.w3.org/1999/xlink" width="80" zoomAndPan="magnify" viewBox="0 0 60 44.999999" height="60" preserveAspectRatio="xMidYMid meet" version="1.0"><defs><clipPath id="9beb2f8d00"><path d="M 25 12 L 59.070312 12 L 59.070312 37.191406 L 25 37.191406 Z M 25 12 " clip-rule="nonzero"/></clipPath><clipPath id="df6b2b32de"><path d="M 0.570312 14 L 26 14 L 26 32 L 0.570312 32 Z M 0.570312 14 " clip-rule="nonzero"/></clipPath><clipPath id="c8fac728fd"><path d="M 25 7.941406 L 50 7.941406 L 50 29 L 25 29 Z M 25 7.941406 " clip-rule="nonzero"/></clipPath><clipPath id="d97550b3be"><path d="M 3.292969 16.464844 L 5.40625 16.464844 L 5.40625 18.328125 L 3.292969 18.328125 Z M 3.292969 16.464844 " clip-rule="nonzero"/></clipPath><clipPath id="b538813c90"><path d="M 5.398438 17.175781 C 4.5 18.675781 3.601562 18.375 3.375 18.074219 C 3.226562 17.773438 3.375 16.800781 3.675781 16.574219 C 3.976562 16.351562 5.175781 16.648438 5.175781 16.648438 " clip-rule="nonzero"/></clipPath><clipPath id="c9253c8730"><path d="M 0.292969 0.464844 L 2.40625 0.464844 L 2.40625 2.328125 L 0.292969 2.328125 Z M 0.292969 0.464844 " clip-rule="nonzero"/></clipPath><clipPath id="de6d4d2af9"><path d="M 2.398438 1.175781 C 1.5 2.675781 0.601562 2.375 0.375 2.074219 C 0.226562 1.773438 0.375 0.800781 0.675781 0.574219 C 0.976562 0.351562 2.175781 0.648438 2.175781 0.648438 " clip-rule="nonzero"/></clipPath><clipPath id="ea84a8d727"><rect x="0" width="3" y="0" height="3"/></clipPath></defs><g clip-path="url(#9beb2f8d00)"><path fill="#000c11" d="M 26.6875 18 C 26.402344 18.546875 26.136719 19.203125 25.976562 19.746094 C 25.910156 19.980469 25.832031 20.277344 25.800781 20.425781 C 25.613281 21.285156 25.539062 21.984375 25.550781 22.847656 C 25.554688 23.175781 25.59375 23.714844 25.644531 24.066406 C 25.734375 24.734375 25.921875 25.503906 26.140625 26.109375 C 26.503906 27.109375 26.984375 28.003906 27.597656 28.816406 C 28.289062 29.734375 29.085938 30.480469 30.082031 31.144531 C 30.261719 31.265625 30.855469 31.609375 31.039062 31.703125 C 31.894531 32.125 32.65625 32.390625 33.53125 32.570312 C 34.679688 32.804688 35.84375 32.832031 37.019531 32.652344 C 37.78125 32.535156 38.617188 32.296875 39.320312 32.003906 C 39.984375 31.722656 40.53125 31.429688 41.121094 31.027344 C 41.761719 30.589844 42.328125 30.09375 42.851562 29.519531 C 43.191406 29.152344 43.523438 28.722656 43.789062 28.320312 L 43.835938 28.25 L 45.0625 28.960938 L 44.953125 29.148438 C 44.871094 29.292969 44.84375 29.347656 44.832031 29.386719 C 44.785156 29.558594 44.828125 29.746094 44.945312 29.878906 C 44.992188 29.933594 44.992188 29.933594 45.226562 30.070312 C 45.355469 30.148438 48.136719 31.769531 51.414062 33.675781 C 56.625 36.707031 57.375 37.140625 57.421875 37.15625 C 57.492188 37.179688 57.609375 37.1875 57.679688 37.175781 C 57.746094 37.164062 57.824219 37.128906 57.882812 37.085938 C 57.980469 37.015625 57.960938 37.050781 58.53125 36.042969 L 59.046875 35.125 L 59.058594 35.066406 C 59.070312 34.976562 59.066406 34.902344 59.042969 34.820312 C 59.019531 34.742188 58.992188 34.6875 58.9375 34.621094 L 58.898438 34.574219 L 57.742188 33.894531 C 57.105469 33.523438 54.304688 31.894531 51.519531 30.277344 L 46.460938 27.335938 L 46.402344 27.324219 C 46.238281 27.292969 46.082031 27.335938 45.953125 27.445312 C 45.90625 27.484375 45.898438 27.492188 45.785156 27.6875 L 45.667969 27.890625 L 45.605469 27.847656 C 45.570312 27.824219 45.296875 27.664062 44.996094 27.488281 L 44.449219 27.171875 L 44.515625 27.035156 C 44.589844 26.882812 44.675781 26.6875 44.773438 26.441406 C 44.839844 26.277344 44.859375 26.226562 44.941406 25.988281 C 45.175781 25.316406 45.347656 24.539062 45.425781 23.796875 C 45.449219 23.621094 45.476562 23.167969 45.480469 23.015625 C 45.484375 22.835938 45.484375 22.777344 45.484375 22.667969 C 45.476562 21.0625 45.09375 19.472656 44.367188 18.050781 C 44.078125 17.492188 43.734375 16.949219 43.351562 16.453125 C 42.734375 15.660156 41.996094 14.960938 41.183594 14.394531 C 40.734375 14.082031 40.234375 13.792969 39.746094 13.5625 C 37.964844 12.714844 35.96875 12.425781 34.011719 12.734375 C 32.828125 12.917969 31.679688 13.316406 30.644531 13.902344 C 29.792969 14.382812 29.078125 14.933594 28.375 15.652344 C 28.21875 15.8125 27.976562 16.085938 27.808594 16.292969 C 27.699219 16.429688 27.648438 16.496094 27.484375 16.714844 C 27.265625 17.003906 26.878906 17.628906 26.6875 18 Z M 29.40625 18.484375 C 29.855469 17.824219 30.347656 17.289062 30.957031 16.804688 C 31.679688 16.230469 32.492188 15.800781 33.378906 15.53125 C 33.542969 15.480469 33.554688 15.476562 33.738281 15.429688 C 34.1875 15.320312 34.574219 15.257812 35.03125 15.226562 C 36.253906 15.148438 37.46875 15.375 38.59375 15.898438 C 38.910156 16.042969 39.386719 16.3125 39.644531 16.488281 C 40.386719 17.003906 40.964844 17.5625 41.476562 18.257812 C 42.339844 19.441406 42.851562 20.894531 42.910156 22.367188 C 42.964844 23.632812 42.699219 24.882812 42.136719 26.023438 C 42.058594 26.179688 41.792969 26.644531 41.710938 26.773438 C 41.574219 26.980469 41.433594 27.179688 41.335938 27.304688 C 41.308594 27.339844 41.261719 27.394531 41.234375 27.433594 C 40.863281 27.90625 40.316406 28.421875 39.792969 28.792969 C 39.488281 29.011719 39.203125 29.1875 38.859375 29.363281 C 36.996094 30.324219 34.796875 30.433594 32.839844 29.65625 C 32.460938 29.507812 32.257812 29.40625 31.835938 29.164062 C 31.421875 28.921875 31.261719 28.816406 30.941406 28.558594 C 29.472656 27.398438 28.492188 25.707031 28.207031 23.835938 C 28.085938 23.066406 28.089844 22.28125 28.214844 21.507812 C 28.328125 20.789062 28.5625 20.050781 28.878906 19.410156 C 28.917969 19.332031 28.957031 19.246094 28.96875 19.226562 C 29.023438 19.117188 29.320312 18.613281 29.40625 18.484375 Z M 29.40625 18.484375 " fill-opacity="1" fill-rule="nonzero"/></g><g clip-path="url(#df6b2b32de)"><path fill="#000000" d="M 6.105469 14.304688 C 5.546875 14.316406 5.355469 14.335938 5.242188 14.382812 C 5.164062 14.410156 4.996094 14.449219 4.867188 14.46875 C 4.746094 14.488281 4.558594 14.527344 4.460938 14.550781 C 4.042969 14.675781 3.527344 14.84375 3.464844 14.882812 C 3.429688 14.90625 3.304688 14.960938 3.191406 15.011719 C 3.078125 15.054688 2.949219 15.121094 2.898438 15.15625 C 2.851562 15.1875 2.6875 15.300781 2.535156 15.402344 C 1.867188 15.835938 1.230469 16.621094 0.972656 17.316406 C 0.933594 17.425781 0.878906 17.5625 0.855469 17.617188 C 0.832031 17.675781 0.800781 17.777344 0.789062 17.847656 C 0.78125 17.921875 0.742188 18.078125 0.707031 18.207031 C 0.625 18.53125 0.570312 19.5 0.613281 19.945312 C 0.667969 20.515625 0.703125 20.78125 0.757812 20.914062 C 0.78125 20.984375 0.839844 21.171875 0.886719 21.324219 C 1.011719 21.742188 1.46875 22.476562 1.769531 22.734375 C 1.800781 22.765625 1.910156 22.859375 2.011719 22.945312 C 2.359375 23.25 3.019531 23.648438 3.417969 23.792969 C 3.535156 23.835938 3.660156 23.890625 3.695312 23.910156 C 3.730469 23.933594 3.816406 23.96875 3.890625 23.988281 C 3.960938 24.003906 4.125 24.054688 4.25 24.09375 C 4.746094 24.25 6.1875 24.585938 6.695312 24.671875 C 6.765625 24.679688 6.917969 24.714844 7.035156 24.75 C 7.152344 24.785156 7.410156 24.839844 7.605469 24.882812 C 7.804688 24.921875 8.023438 24.980469 8.097656 25.011719 C 8.167969 25.050781 8.300781 25.09375 8.390625 25.113281 C 8.609375 25.160156 9.109375 25.410156 9.277344 25.554688 C 9.464844 25.722656 9.621094 25.945312 9.730469 26.214844 C 9.8125 26.425781 9.824219 26.484375 9.824219 26.84375 C 9.824219 27.199219 9.8125 27.257812 9.730469 27.476562 C 9.492188 28.070312 8.960938 28.480469 8.175781 28.671875 C 8.117188 28.683594 7.917969 28.722656 7.738281 28.761719 C 7.152344 28.867188 5.6875 28.828125 5 28.6875 C 4.875 28.664062 4.707031 28.632812 4.625 28.621094 C 4.542969 28.609375 4.382812 28.570312 4.265625 28.539062 C 4.148438 28.503906 3.921875 28.445312 3.757812 28.402344 C 3.601562 28.363281 3.398438 28.296875 3.3125 28.253906 C 3.226562 28.214844 3.136719 28.175781 3.113281 28.175781 C 3.042969 28.175781 2.570312 28.019531 2.519531 27.980469 C 2.496094 27.960938 2.386719 27.917969 2.273438 27.875 C 2.058594 27.808594 2.011719 27.789062 1.339844 27.46875 C 1.089844 27.347656 0.921875 27.285156 0.886719 27.300781 C 0.835938 27.320312 0.832031 27.375 0.851562 28.085938 C 0.863281 28.507812 0.875 29.253906 0.875 29.75 C 0.875 30.78125 0.859375 30.738281 1.199219 30.832031 C 1.296875 30.859375 1.433594 30.90625 1.492188 30.929688 C 1.554688 30.953125 1.667969 30.992188 1.738281 31.011719 C 1.808594 31.027344 1.980469 31.074219 2.113281 31.113281 C 2.246094 31.148438 2.445312 31.203125 2.554688 31.226562 C 2.660156 31.253906 2.84375 31.304688 2.960938 31.339844 C 3.078125 31.375 3.265625 31.421875 3.382812 31.4375 C 3.503906 31.460938 3.65625 31.488281 3.726562 31.503906 C 3.796875 31.523438 3.910156 31.539062 3.972656 31.539062 C 4.035156 31.539062 4.191406 31.578125 4.3125 31.621094 C 4.480469 31.679688 4.609375 31.703125 4.792969 31.703125 C 4.929688 31.703125 5.222656 31.726562 5.445312 31.753906 C 5.785156 31.800781 6.074219 31.808594 7.296875 31.792969 C 8.589844 31.777344 8.777344 31.765625 9.007812 31.710938 C 9.152344 31.671875 9.359375 31.632812 9.464844 31.625 C 9.574219 31.609375 9.742188 31.578125 9.839844 31.546875 C 9.9375 31.519531 10.101562 31.476562 10.199219 31.453125 C 10.710938 31.332031 11.460938 30.996094 11.941406 30.664062 C 12.261719 30.449219 12.773438 29.933594 12.996094 29.597656 C 13.292969 29.152344 13.621094 28.402344 13.621094 28.171875 C 13.621094 28.128906 13.65625 28.027344 13.695312 27.945312 C 13.738281 27.863281 13.792969 27.726562 13.816406 27.640625 C 13.867188 27.453125 13.90625 27.417969 13.945312 27.527344 C 13.960938 27.574219 13.988281 28.445312 14 29.460938 C 14.019531 30.945312 14.03125 31.320312 14.070312 31.355469 C 14.101562 31.394531 14.304688 31.398438 15.132812 31.386719 C 15.6875 31.378906 17.203125 31.355469 18.496094 31.339844 C 19.785156 31.320312 21.261719 31.300781 21.773438 31.292969 C 22.285156 31.28125 23.398438 31.265625 24.253906 31.253906 C 25.109375 31.242188 25.824219 31.222656 25.847656 31.207031 C 25.878906 31.1875 25.878906 30.871094 25.855469 29.679688 C 25.835938 28.851562 25.808594 28.160156 25.796875 28.140625 C 25.777344 28.109375 24.988281 28.109375 22.472656 28.160156 C 22.027344 28.171875 20.910156 28.1875 19.996094 28.195312 C 18.335938 28.214844 18.332031 28.214844 18.246094 28.148438 C 18.191406 28.101562 18.152344 28.035156 18.140625 27.953125 C 18.128906 27.886719 18.121094 27.019531 18.113281 26.027344 L 18.105469 24.226562 L 18.179688 24.148438 L 18.253906 24.074219 L 20.59375 24.046875 C 21.875 24.035156 23.40625 24.011719 23.988281 23.996094 L 25.050781 23.976562 L 25.058594 22.460938 C 25.066406 21.3125 25.054688 20.9375 25.027344 20.902344 C 24.992188 20.859375 24.898438 20.855469 24.445312 20.875 C 24.148438 20.882812 23.042969 20.898438 21.984375 20.910156 C 20.929688 20.917969 19.667969 20.9375 19.179688 20.945312 C 18.269531 20.964844 18.15625 20.957031 18.089844 20.832031 C 18.046875 20.75 18.027344 20.207031 18.019531 18.851562 L 18.011719 17.71875 L 18.101562 17.640625 C 18.183594 17.570312 18.21875 17.566406 18.585938 17.566406 C 18.804688 17.566406 19.285156 17.554688 19.652344 17.546875 C 20.023438 17.539062 21.449219 17.515625 22.832031 17.5 C 24.859375 17.472656 25.347656 17.457031 25.386719 17.417969 C 25.421875 17.382812 25.425781 17.113281 25.40625 15.871094 C 25.386719 14.535156 25.375 14.359375 25.328125 14.339844 C 25.300781 14.328125 24.8125 14.324219 24.25 14.339844 C 23.6875 14.347656 21.851562 14.378906 20.175781 14.398438 C 14.050781 14.472656 13.890625 14.480469 13.835938 14.53125 C 13.796875 14.574219 13.792969 14.832031 13.816406 16.410156 C 13.847656 18.367188 13.921875 23.945312 13.925781 24.519531 C 13.929688 25.058594 13.863281 25.273438 13.78125 24.96875 C 13.761719 24.894531 13.71875 24.800781 13.6875 24.765625 C 13.652344 24.730469 13.582031 24.566406 13.527344 24.402344 C 13.238281 23.503906 12.59375 22.808594 11.550781 22.265625 C 11.355469 22.164062 11.09375 22.042969 10.964844 21.992188 C 10.839844 21.949219 10.71875 21.894531 10.695312 21.875 C 10.671875 21.855469 10.574219 21.820312 10.476562 21.792969 C 10.378906 21.769531 10.21875 21.730469 10.125 21.703125 C 10.027344 21.679688 9.910156 21.636719 9.855469 21.613281 C 9.800781 21.582031 9.664062 21.542969 9.546875 21.523438 C 9.109375 21.449219 8.785156 21.386719 8.625 21.339844 C 8.53125 21.316406 8.367188 21.28125 8.257812 21.273438 C 8.152344 21.257812 7.980469 21.230469 7.882812 21.207031 C 7.785156 21.183594 7.640625 21.152344 7.558594 21.144531 C 7.296875 21.105469 6.316406 20.894531 5.945312 20.792969 C 5.730469 20.730469 5.535156 20.652344 5.160156 20.480469 C 4.941406 20.378906 4.640625 20.09375 4.542969 19.90625 C 4.5 19.820312 4.445312 19.625 4.417969 19.472656 C 4.378906 19.238281 4.378906 19.148438 4.410156 18.898438 C 4.460938 18.550781 4.519531 18.398438 4.6875 18.171875 C 4.992188 17.761719 5.613281 17.472656 6.382812 17.375 C 7.433594 17.25 7.726562 17.238281 8.195312 17.316406 C 8.355469 17.34375 8.589844 17.367188 8.714844 17.367188 C 8.84375 17.367188 9.03125 17.382812 9.140625 17.402344 C 9.246094 17.417969 9.460938 17.457031 9.613281 17.480469 C 9.773438 17.503906 9.929688 17.542969 9.96875 17.5625 C 10.003906 17.585938 10.140625 17.621094 10.269531 17.644531 C 10.597656 17.707031 11.28125 17.902344 11.648438 18.046875 C 11.777344 18.09375 11.953125 18.15625 12.039062 18.191406 C 12.132812 18.222656 12.289062 18.285156 12.390625 18.332031 C 12.570312 18.410156 12.578125 18.414062 12.609375 18.359375 C 12.628906 18.324219 12.632812 17.695312 12.621094 16.695312 C 12.605469 15.292969 12.59375 15.078125 12.550781 15.023438 C 12.511719 14.976562 12.429688 14.949219 12.261719 14.929688 C 12.136719 14.914062 12.011719 14.890625 11.992188 14.878906 C 11.972656 14.867188 11.851562 14.84375 11.726562 14.824219 C 11.605469 14.808594 11.464844 14.777344 11.414062 14.75 C 11.363281 14.722656 11.234375 14.695312 11.128906 14.683594 C 11.019531 14.671875 10.808594 14.640625 10.65625 14.613281 C 8.96875 14.328125 7.917969 14.253906 6.105469 14.304688 Z M 6.105469 14.304688 " fill-opacity="1" fill-rule="nonzero"/></g><g clip-path="url(#c8fac728fd)"><path fill="#000000" d="M 49.324219 7.945312 C 49.070312 7.945312 48.019531 8.382812 44.511719 9.910156 C 41.867188 11.0625 39.75 12.027344 39.820312 12.058594 C 39.886719 12.085938 40.882812 12.242188 42.042969 12.386719 C 43.199219 12.53125 44.160156 12.667969 44.175781 12.679688 C 44.195312 12.695312 43.617188 13.863281 42.691406 15.691406 C 42.320312 16.425781 41.894531 17.269531 41.425781 18.191406 C 40.945312 19.132812 40.421875 20.152344 39.875 21.21875 L 39.023438 22.875 L 35.222656 20.242188 L 31.425781 17.605469 L 30.5 18.71875 C 29.726562 19.664062 28.925781 20.644531 28.210938 21.53125 L 28.207031 21.53125 C 26.882812 23.167969 25.835938 24.484375 25.738281 24.636719 C 25.734375 24.644531 25.730469 24.648438 25.730469 24.648438 C 25.734375 24.648438 25.734375 24.648438 25.738281 24.644531 C 25.738281 24.644531 25.738281 24.644531 25.742188 24.644531 C 25.78125 24.613281 25.808594 24.597656 25.832031 24.597656 C 25.894531 24.597656 25.902344 24.75 25.902344 25.257812 L 25.902344 25.332031 C 25.972656 25.605469 26.054688 25.871094 26.140625 26.109375 C 26.183594 26.222656 26.222656 26.332031 26.269531 26.441406 L 28.152344 24.21875 C 28.183594 24.179688 28.21875 24.140625 28.25 24.105469 C 28.25 24.101562 28.25 24.101562 28.25 24.101562 C 29.949219 22.105469 31.351562 20.484375 31.398438 20.484375 C 31.398438 20.484375 31.398438 20.484375 31.402344 20.484375 C 31.457031 20.484375 31.96875 20.945312 32.546875 21.519531 C 37.34375 26.222656 39.261719 28.058594 39.402344 28.058594 C 39.402344 28.058594 39.40625 28.058594 39.40625 28.054688 C 39.464844 27.996094 40.714844 25.777344 42.875 21.898438 C 43.414062 20.925781 44.011719 19.851562 44.660156 18.683594 C 44.777344 18.476562 44.894531 18.265625 45.011719 18.050781 C 45.996094 16.269531 46.859375 14.75 46.917969 14.683594 C 46.925781 14.675781 46.933594 14.671875 46.949219 14.671875 C 47.066406 14.671875 47.414062 15.082031 48.363281 16.347656 C 49.09375 17.3125 49.699219 18.101562 49.734375 18.101562 C 49.78125 18.0625 49.445312 8.117188 49.390625 7.972656 C 49.382812 7.953125 49.363281 7.945312 49.324219 7.945312 Z M 49.324219 7.945312 " fill-opacity="1" fill-rule="nonzero"/></g><g clip-path="url(#d97550b3be)"><g clip-path="url(#b538813c90)"><g transform="matrix(1, 0, 0, 1, 3, 16)"><g clip-path="url(#ea84a8d727)"><g clip-path="url(#c9253c8730)"><g clip-path="url(#de6d4d2af9)"><rect x="-16.2" width="86.4" fill="#000000" height="64.799999" y="-25.9" fill-opacity="1"/></g></g></g></g></g></g></svg>