<svg xmlns="http://www.w3.org/2000/svg" xmlns:xlink="http://www.w3.org/1999/xlink" width="80" zoomAndPan="magnify" viewBox="0 0 60 44.999999" height="60" preserveAspectRatio="xMidYMid meet" version="1.0"><defs><clipPath id="f08c96d034"><path d="M 9.699219 24 L 14 24 L 14 29 L 9.699219 29 Z M 9.699219 24 " clip-rule="nonzero"/></clipPath><clipPath id="cc8d7824f0"><path d="M 9.699219 17 L 14 17 L 14 21 L 9.699219 21 Z M 9.699219 17 " clip-rule="nonzero"/></clipPath><clipPath id="5af82b9c39"><path d="M 26 2.050781 L 30 2.050781 L 30 6 L 26 6 Z M 26 2.050781 " clip-rule="nonzero"/></clipPath><clipPath id="1667cb3582"><path d="M 30 2.050781 L 34 2.050781 L 34 6 L 30 6 Z M 30 2.050781 " clip-rule="nonzero"/></clipPath><clipPath id="bc70f58a15"><path d="M 34 2.050781 L 39 2.050781 L 39 7 L 34 7 Z M 34 2.050781 " clip-rule="nonzero"/></clipPath><clipPath id="4f5f2cc0e7"><path d="M 46 16 L 50.199219 16 L 50.199219 20 L 46 20 Z M 46 16 " clip-rule="nonzero"/></clipPath><clipPath id="630631c78d"><path d="M 46 20 L 50.199219 20 L 50.199219 25 L 46 25 Z M 46 20 " clip-rule="nonzero"/></clipPath><clipPath id="65cb87cd94"><path d="M 45 24 L 50.199219 24 L 50.199219 28 L 45 28 Z M 45 24 " clip-rule="nonzero"/></clipPath><clipPath id="74b1cbfc2a"><path d="M 25 16.828125 L 35 16.828125 L 35 23 L 25 23 Z M 25 16.828125 " clip-rule="nonzero"/></clipPath><clipPath id="6c2a0a0e65"><path d="M 18.011719 23.667969 L 41.988281 23.667969 L 41.988281 28.078125 L 18.011719 28.078125 Z M 18.011719 23.667969 " clip-rule="nonzero"/></clipPath></defs><path fill="#ffffff" d="M 45.269531 32.226562 C 45.320312 32.265625 45.363281 32.3125 45.398438 32.367188 C 45.429688 32.421875 45.457031 32.484375 45.472656 32.546875 C 45.484375 32.613281 45.480469 32.675781 45.464844 32.742188 C 45.453125 32.8125 45.425781 32.878906 45.382812 32.9375 C 45.351562 32.996094 45.304688 33.042969 45.246094 33.078125 C 45.191406 33.117188 45.132812 33.140625 45.066406 33.152344 C 45.003906 33.164062 44.941406 33.167969 44.875 33.160156 C 44.808594 33.144531 44.746094 33.117188 44.6875 33.085938 C 44.632812 33.042969 44.585938 32.996094 44.550781 32.9375 C 44.515625 32.886719 44.492188 32.828125 44.484375 32.765625 C 44.472656 32.699219 44.476562 32.636719 44.492188 32.570312 C 44.503906 32.5 44.527344 32.4375 44.566406 32.382812 C 44.605469 32.324219 44.65625 32.277344 44.714844 32.234375 C 44.769531 32.203125 44.828125 32.175781 44.894531 32.160156 C 44.953125 32.144531 45.019531 32.144531 45.082031 32.152344 C 45.148438 32.167969 45.210938 32.195312 45.269531 32.226562 Z M 45.269531 32.226562 " fill-opacity="1" fill-rule="nonzero"/><path fill="#ffffff" d="M 41.449219 34.613281 C 41.589844 34.476562 41.742188 34.367188 41.917969 34.277344 C 42.054688 34.207031 42.203125 34.160156 42.359375 34.140625 C 42.5 34.128906 42.636719 34.144531 42.773438 34.179688 C 42.910156 34.230469 43.035156 34.300781 43.152344 34.386719 L 42.710938 34.8125 C 42.632812 34.761719 42.550781 34.71875 42.464844 34.6875 C 42.382812 34.660156 42.296875 34.648438 42.210938 34.648438 C 42.121094 34.652344 42.039062 34.667969 41.957031 34.703125 C 41.859375 34.746094 41.777344 34.800781 41.703125 34.875 C 41.652344 34.929688 41.605469 34.984375 41.566406 35.046875 C 41.523438 35.109375 41.492188 35.171875 41.476562 35.242188 C 41.460938 35.308594 41.457031 35.375 41.464844 35.441406 C 41.488281 35.511719 41.527344 35.574219 41.582031 35.628906 C 41.648438 35.707031 41.734375 35.757812 41.835938 35.785156 C 41.941406 35.804688 42.046875 35.804688 42.152344 35.792969 C 42.273438 35.78125 42.390625 35.757812 42.503906 35.71875 L 42.882812 35.605469 L 43.265625 35.488281 C 43.390625 35.460938 43.515625 35.445312 43.640625 35.441406 C 43.761719 35.429688 43.875 35.449219 43.984375 35.488281 C 44.105469 35.527344 44.207031 35.589844 44.289062 35.6875 C 44.386719 35.785156 44.457031 35.902344 44.5 36.039062 C 44.535156 36.175781 44.539062 36.3125 44.515625 36.453125 C 44.488281 36.613281 44.429688 36.765625 44.34375 36.902344 C 44.246094 37.074219 44.121094 37.226562 43.976562 37.363281 C 43.859375 37.480469 43.722656 37.578125 43.566406 37.648438 C 43.300781 37.78125 43.019531 37.8125 42.726562 37.746094 C 42.585938 37.714844 42.457031 37.664062 42.332031 37.589844 L 42.742188 37.207031 C 42.820312 37.246094 42.902344 37.277344 42.988281 37.304688 C 43.070312 37.332031 43.152344 37.347656 43.242188 37.34375 C 43.332031 37.347656 43.417969 37.328125 43.503906 37.289062 C 43.605469 37.25 43.691406 37.191406 43.765625 37.109375 C 43.84375 37.046875 43.902344 36.96875 43.945312 36.878906 C 43.980469 36.8125 44 36.738281 44 36.660156 C 44.007812 36.59375 43.996094 36.535156 43.96875 36.480469 C 43.949219 36.421875 43.917969 36.375 43.878906 36.332031 C 43.8125 36.261719 43.730469 36.21875 43.632812 36.199219 C 43.53125 36.183594 43.425781 36.183594 43.324219 36.199219 C 43.199219 36.21875 43.082031 36.246094 42.964844 36.28125 L 42.570312 36.398438 L 42.167969 36.503906 C 42.042969 36.539062 41.914062 36.558594 41.785156 36.5625 C 41.667969 36.566406 41.554688 36.554688 41.441406 36.519531 C 41.328125 36.488281 41.226562 36.429688 41.148438 36.339844 C 41.042969 36.238281 40.96875 36.117188 40.925781 35.980469 C 40.882812 35.839844 40.871094 35.699219 40.894531 35.554688 C 40.921875 35.390625 40.980469 35.238281 41.066406 35.097656 C 41.167969 34.917969 41.296875 34.753906 41.449219 34.613281 Z M 41.449219 34.613281 " fill-opacity="1" fill-rule="nonzero"/><path fill="#ffffff" d="M 39.144531 40.765625 L 38.988281 40.503906 L 40.050781 39.847656 L 38.316406 37.035156 L 39.070312 36.578125 L 40.796875 39.382812 L 41.867188 38.726562 L 42.023438 38.988281 Z M 39.144531 40.765625 " fill-opacity="1" fill-rule="nonzero"/><path fill="#ffffff" d="M 37.460938 41.476562 L 35.816406 40.320312 L 35.285156 42.21875 L 34.71875 42.414062 L 35.390625 40.019531 L 34.882812 38.546875 L 35.71875 38.261719 L 36.207031 39.683594 L 38.335938 41.171875 Z M 37.460938 41.476562 " fill-opacity="1" fill-rule="nonzero"/><path fill="#ffffff" d="M 33.519531 42.613281 L 32.636719 42.71875 L 32.25 39.503906 L 30.417969 39.734375 L 30.378906 39.367188 L 33.085938 39.039062 Z M 33.519531 42.613281 " fill-opacity="1" fill-rule="nonzero"/><path fill="#ffffff" d="M 26.886719 42.742188 L 26.910156 42.441406 L 28.710938 42.570312 L 28.800781 41.386719 L 27.304688 41.269531 L 27.320312 40.96875 L 28.824219 41.074219 L 28.921875 39.644531 L 27.125 39.511719 L 27.148438 39.144531 L 29.839844 39.339844 L 29.578125 42.9375 Z M 26.886719 42.742188 " fill-opacity="1" fill-rule="nonzero"/><path fill="#ffffff" d="M 25.292969 40.117188 C 25.273438 40.183594 25.246094 40.238281 25.203125 40.289062 C 25.15625 40.335938 25.105469 40.378906 25.046875 40.410156 C 24.988281 40.441406 24.929688 40.457031 24.867188 40.46875 C 24.792969 40.472656 24.722656 40.464844 24.652344 40.445312 C 24.519531 40.410156 24.417969 40.332031 24.351562 40.207031 C 24.320312 40.148438 24.300781 40.085938 24.285156 40.019531 C 24.277344 39.957031 24.285156 39.894531 24.300781 39.832031 C 24.320312 39.761719 24.351562 39.703125 24.398438 39.652344 C 24.441406 39.601562 24.488281 39.5625 24.546875 39.539062 C 24.605469 39.503906 24.664062 39.488281 24.726562 39.480469 C 24.796875 39.472656 24.863281 39.476562 24.933594 39.496094 C 25 39.519531 25.0625 39.550781 25.121094 39.59375 C 25.167969 39.636719 25.210938 39.683594 25.242188 39.742188 C 25.277344 39.796875 25.300781 39.855469 25.308594 39.921875 C 25.320312 39.988281 25.3125 40.054688 25.292969 40.117188 Z M 25.292969 40.117188 " fill-opacity="1" fill-rule="nonzero"/><path fill="#ffffff" d="M 21.867188 37.199219 C 22.035156 37.292969 22.1875 37.402344 22.332031 37.535156 C 22.441406 37.648438 22.527344 37.773438 22.59375 37.917969 C 22.648438 38.046875 22.675781 38.183594 22.675781 38.328125 C 22.675781 38.472656 22.648438 38.613281 22.601562 38.753906 L 22.0625 38.457031 C 22.085938 38.371094 22.101562 38.28125 22.101562 38.1875 C 22.105469 38.101562 22.09375 38.015625 22.0625 37.933594 C 22.035156 37.847656 21.992188 37.777344 21.929688 37.714844 C 21.867188 37.632812 21.785156 37.570312 21.695312 37.527344 C 21.628906 37.488281 21.5625 37.457031 21.488281 37.4375 C 21.417969 37.414062 21.347656 37.40625 21.277344 37.410156 C 21.210938 37.414062 21.144531 37.433594 21.089844 37.46875 C 21.023438 37.507812 20.972656 37.5625 20.941406 37.632812 C 20.886719 37.71875 20.863281 37.816406 20.875 37.917969 C 20.886719 38.023438 20.914062 38.125 20.957031 38.21875 C 21.003906 38.332031 21.0625 38.4375 21.128906 38.539062 L 21.359375 38.859375 L 21.578125 39.195312 C 21.644531 39.304688 21.699219 39.417969 21.742188 39.539062 C 21.78125 39.648438 21.800781 39.761719 21.800781 39.878906 C 21.796875 40.003906 21.765625 40.121094 21.710938 40.230469 C 21.640625 40.351562 21.546875 40.453125 21.433594 40.535156 C 21.3125 40.613281 21.179688 40.660156 21.039062 40.671875 C 20.878906 40.699219 20.714844 40.691406 20.558594 40.648438 C 20.363281 40.609375 20.179688 40.535156 20.007812 40.4375 C 19.859375 40.359375 19.726562 40.257812 19.609375 40.132812 C 19.507812 40.023438 19.429688 39.902344 19.371094 39.765625 C 19.25 39.5 19.226562 39.222656 19.296875 38.941406 L 19.789062 39.210938 C 19.773438 39.300781 19.765625 39.390625 19.765625 39.480469 C 19.765625 39.566406 19.777344 39.652344 19.804688 39.734375 C 19.832031 39.820312 19.875 39.894531 19.9375 39.960938 C 20.007812 40.046875 20.089844 40.109375 20.1875 40.160156 C 20.273438 40.210938 20.367188 40.246094 20.46875 40.265625 C 20.542969 40.277344 20.617188 40.269531 20.6875 40.25 C 20.75 40.238281 20.804688 40.210938 20.851562 40.167969 C 20.894531 40.128906 20.933594 40.082031 20.964844 40.035156 C 21.007812 39.949219 21.023438 39.859375 21.015625 39.765625 C 21 39.660156 20.96875 39.558594 20.917969 39.464844 C 20.867188 39.351562 20.804688 39.246094 20.738281 39.144531 L 20.507812 38.800781 C 20.425781 38.695312 20.351562 38.570312 20.277344 38.457031 C 20.214844 38.34375 20.15625 38.226562 20.105469 38.105469 C 20.070312 37.996094 20.046875 37.878906 20.042969 37.761719 C 20.042969 37.644531 20.074219 37.53125 20.132812 37.425781 C 20.199219 37.300781 20.292969 37.195312 20.410156 37.117188 C 20.527344 37.03125 20.660156 36.976562 20.800781 36.953125 C 20.96875 36.929688 21.132812 36.9375 21.292969 36.976562 C 21.496094 37.019531 21.6875 37.089844 21.867188 37.199219 Z M 21.867188 37.199219 " fill-opacity="1" fill-rule="nonzero"/><path fill="#ffffff" d="M 15.308594 36.878906 L 15.511719 36.640625 L 16.460938 37.453125 L 18.601562 34.949219 L 19.273438 35.53125 L 17.128906 38.03125 L 18.078125 38.84375 L 17.875 39.078125 Z M 15.308594 36.878906 " fill-opacity="1" fill-rule="nonzero"/><path fill="#ffffff" d="M 14.113281 35.480469 L 14.710938 33.558594 L 12.746094 33.640625 L 12.386719 33.160156 L 14.875 33.070312 L 16.125 32.136719 L 16.648438 32.847656 L 15.445312 33.746094 L 14.667969 36.226562 Z M 14.113281 35.480469 " fill-opacity="1" fill-rule="nonzero"/><path fill="#ffffff" d="M 11.832031 32.0625 L 11.464844 31.261719 L 14.40625 29.921875 L 13.648438 28.246094 L 13.984375 28.089844 L 15.109375 30.574219 Z M 11.832031 32.0625 " fill-opacity="1" fill-rule="nonzero"/><g clip-path="url(#f08c96d034)"><path fill="#ffffff" d="M 9.707031 25.789062 L 10.007812 25.71875 L 10.425781 27.476562 L 11.585938 27.199219 L 11.234375 25.742188 L 11.527344 25.667969 L 11.882812 27.132812 L 13.269531 26.796875 L 12.855469 25.039062 L 13.214844 24.949219 L 13.84375 27.574219 L 10.335938 28.40625 Z M 9.707031 25.789062 " fill-opacity="1" fill-rule="nonzero"/></g><path fill="#ffffff" d="M 11.726562 23.476562 C 11.65625 23.476562 11.59375 23.46875 11.527344 23.445312 C 11.472656 23.414062 11.421875 23.378906 11.375 23.335938 C 11.328125 23.289062 11.289062 23.234375 11.257812 23.175781 C 11.234375 23.109375 11.21875 23.039062 11.21875 22.96875 C 11.214844 22.902344 11.226562 22.835938 11.25 22.773438 C 11.273438 22.710938 11.304688 22.65625 11.347656 22.609375 C 11.394531 22.5625 11.445312 22.523438 11.503906 22.496094 C 11.566406 22.460938 11.632812 22.445312 11.699219 22.445312 C 11.769531 22.445312 11.832031 22.457031 11.898438 22.480469 L 12.050781 22.585938 C 12.097656 22.632812 12.132812 22.6875 12.160156 22.75 C 12.1875 22.8125 12.199219 22.878906 12.199219 22.945312 C 12.207031 23.015625 12.195312 23.085938 12.167969 23.148438 C 12.144531 23.210938 12.113281 23.265625 12.070312 23.3125 C 12.027344 23.363281 11.980469 23.402344 11.921875 23.429688 C 11.859375 23.460938 11.792969 23.476562 11.726562 23.476562 Z M 11.726562 23.476562 " fill-opacity="1" fill-rule="nonzero"/><g clip-path="url(#cc8d7824f0)"><path fill="#ffffff" d="M 13.460938 19.324219 C 13.425781 19.515625 13.367188 19.695312 13.277344 19.871094 C 13.203125 20.007812 13.109375 20.132812 12.992188 20.238281 C 12.882812 20.328125 12.761719 20.398438 12.625 20.441406 C 12.488281 20.484375 12.351562 20.503906 12.207031 20.5 L 12.324219 19.894531 C 12.410156 19.894531 12.5 19.878906 12.585938 19.855469 C 12.667969 19.832031 12.746094 19.792969 12.8125 19.738281 C 12.886719 19.6875 12.949219 19.621094 12.992188 19.542969 C 13.046875 19.453125 13.082031 19.359375 13.097656 19.257812 C 13.113281 19.183594 13.117188 19.109375 13.117188 19.035156 C 13.117188 18.964844 13.101562 18.898438 13.074219 18.832031 C 13.050781 18.765625 13.015625 18.710938 12.96875 18.660156 C 12.910156 18.613281 12.839844 18.582031 12.765625 18.570312 C 12.664062 18.554688 12.566406 18.5625 12.46875 18.59375 C 12.375 18.640625 12.285156 18.695312 12.207031 18.765625 C 12.117188 18.847656 12.035156 18.9375 11.960938 19.035156 L 11.71875 19.347656 L 11.472656 19.65625 C 11.386719 19.753906 11.292969 19.839844 11.195312 19.917969 C 11.101562 19.992188 10.996094 20.046875 10.882812 20.082031 C 10.765625 20.121094 10.644531 20.121094 10.523438 20.089844 C 10.386719 20.066406 10.265625 20.011719 10.15625 19.929688 C 10.042969 19.839844 9.957031 19.730469 9.894531 19.601562 C 9.824219 19.449219 9.785156 19.292969 9.769531 19.125 C 9.753906 18.929688 9.765625 18.730469 9.8125 18.539062 C 9.839844 18.375 9.894531 18.21875 9.976562 18.070312 C 10.046875 17.9375 10.140625 17.824219 10.253906 17.726562 C 10.359375 17.632812 10.480469 17.558594 10.613281 17.507812 C 10.742188 17.457031 10.875 17.425781 11.015625 17.410156 L 10.90625 17.957031 C 10.820312 17.96875 10.730469 17.988281 10.644531 18.015625 C 10.566406 18.042969 10.488281 18.082031 10.417969 18.128906 C 10.34375 18.179688 10.28125 18.246094 10.238281 18.324219 C 10.179688 18.417969 10.144531 18.519531 10.121094 18.628906 C 10.105469 18.726562 10.101562 18.824219 10.113281 18.921875 C 10.128906 18.996094 10.152344 19.066406 10.1875 19.132812 C 10.226562 19.1875 10.273438 19.230469 10.328125 19.265625 C 10.375 19.296875 10.425781 19.316406 10.484375 19.324219 C 10.578125 19.347656 10.667969 19.335938 10.753906 19.289062 C 10.851562 19.246094 10.9375 19.1875 11.015625 19.109375 C 11.105469 19.027344 11.1875 18.9375 11.257812 18.839844 L 11.511719 18.519531 C 11.59375 18.410156 11.679688 18.304688 11.773438 18.203125 C 11.859375 18.105469 11.953125 18.015625 12.050781 17.933594 C 12.144531 17.855469 12.25 17.796875 12.363281 17.761719 C 12.480469 17.726562 12.597656 17.722656 12.714844 17.746094 C 12.855469 17.769531 12.984375 17.824219 13.097656 17.90625 C 13.210938 18 13.300781 18.109375 13.371094 18.234375 C 13.4375 18.386719 13.480469 18.542969 13.5 18.710938 C 13.515625 18.914062 13.5 19.121094 13.460938 19.324219 Z M 13.460938 19.324219 " fill-opacity="1" fill-rule="nonzero"/></g><path fill="#ffffff" d="M 11.78125 12.976562 L 12.070312 13.101562 L 11.578125 14.246094 L 14.613281 15.535156 L 14.269531 16.347656 L 11.234375 15.054688 L 10.746094 16.207031 L 10.457031 16.085938 Z M 11.78125 12.976562 " fill-opacity="1" fill-rule="nonzero"/><path fill="#ffffff" d="M 12.746094 11.421875 L 14.757812 11.40625 L 14.089844 9.558594 L 14.441406 9.066406 L 15.28125 11.40625 L 16.542969 12.316406 L 16.027344 13.035156 L 14.808594 12.160156 L 12.207031 12.175781 Z M 12.746094 11.421875 " fill-opacity="1" fill-rule="nonzero"/><path fill="#ffffff" d="M 15.308594 8.210938 L 15.960938 7.613281 L 18.136719 10.007812 L 19.503906 8.773438 L 19.746094 9.042969 L 17.726562 10.875 Z M 15.308594 8.210938 " fill-opacity="1" fill-rule="nonzero"/><path fill="#ffffff" d="M 20.648438 4.277344 L 20.800781 4.539062 L 19.257812 5.46875 L 19.871094 6.492188 L 21.152344 5.714844 L 21.316406 5.976562 L 20.027344 6.753906 L 20.769531 7.980469 L 22.316406 7.039062 L 22.503906 7.359375 L 20.195312 8.75 L 18.339844 5.667969 Z M 20.648438 4.277344 " fill-opacity="1" fill-rule="nonzero"/><path fill="#ffffff" d="M 23.460938 5.496094 C 23.441406 5.433594 23.433594 5.371094 23.433594 5.308594 C 23.441406 5.242188 23.460938 5.175781 23.492188 5.117188 C 23.558594 4.992188 23.660156 4.90625 23.796875 4.863281 C 23.859375 4.84375 23.925781 4.832031 23.992188 4.832031 C 24.058594 4.835938 24.121094 4.851562 24.179688 4.882812 C 24.242188 4.90625 24.292969 4.945312 24.335938 4.996094 C 24.382812 5.042969 24.414062 5.097656 24.433594 5.160156 C 24.457031 5.222656 24.464844 5.289062 24.457031 5.355469 C 24.457031 5.421875 24.441406 5.484375 24.410156 5.542969 C 24.378906 5.601562 24.339844 5.652344 24.285156 5.691406 C 24.238281 5.738281 24.179688 5.773438 24.113281 5.796875 C 24.046875 5.816406 23.980469 5.824219 23.910156 5.820312 C 23.84375 5.820312 23.78125 5.808594 23.722656 5.78125 C 23.660156 5.753906 23.609375 5.71875 23.566406 5.667969 C 23.519531 5.617188 23.484375 5.558594 23.460938 5.496094 Z M 23.460938 5.496094 " fill-opacity="1" fill-rule="nonzero"/><g clip-path="url(#5af82b9c39)"><path fill="#ffffff" d="M 27.941406 5.894531 C 27.75 5.921875 27.558594 5.917969 27.367188 5.886719 C 27.214844 5.863281 27.070312 5.808594 26.933594 5.722656 C 26.816406 5.652344 26.714844 5.558594 26.632812 5.445312 C 26.546875 5.324219 26.484375 5.195312 26.445312 5.054688 L 27.058594 4.988281 C 27.089844 5.070312 27.132812 5.148438 27.179688 5.226562 C 27.226562 5.296875 27.285156 5.355469 27.351562 5.40625 C 27.425781 5.460938 27.507812 5.496094 27.597656 5.519531 C 27.699219 5.542969 27.800781 5.546875 27.898438 5.527344 C 27.972656 5.519531 28.042969 5.503906 28.113281 5.476562 C 28.183594 5.457031 28.246094 5.425781 28.300781 5.378906 C 28.355469 5.339844 28.398438 5.289062 28.421875 5.226562 C 28.457031 5.15625 28.46875 5.082031 28.457031 5.003906 C 28.445312 4.902344 28.40625 4.8125 28.34375 4.734375 C 28.273438 4.652344 28.191406 4.582031 28.097656 4.53125 C 27.992188 4.46875 27.882812 4.421875 27.769531 4.382812 L 27.394531 4.242188 C 27.269531 4.203125 27.144531 4.152344 27.023438 4.097656 C 26.90625 4.050781 26.792969 3.992188 26.691406 3.917969 C 26.59375 3.847656 26.511719 3.765625 26.445312 3.671875 C 26.375 3.570312 26.335938 3.457031 26.320312 3.335938 C 26.304688 3.195312 26.320312 3.058594 26.371094 2.925781 C 26.417969 2.792969 26.496094 2.679688 26.601562 2.582031 C 26.71875 2.46875 26.855469 2.382812 27.007812 2.320312 C 27.195312 2.246094 27.390625 2.199219 27.589844 2.175781 C 27.753906 2.160156 27.917969 2.164062 28.082031 2.191406 C 28.226562 2.222656 28.367188 2.277344 28.496094 2.355469 C 28.617188 2.425781 28.71875 2.515625 28.808594 2.625 C 28.898438 2.734375 28.972656 2.855469 29.027344 2.984375 L 28.480469 3.050781 L 28.34375 2.820312 C 28.289062 2.75 28.230469 2.6875 28.160156 2.632812 C 28.085938 2.582031 28.003906 2.542969 27.917969 2.519531 C 27.8125 2.496094 27.703125 2.492188 27.597656 2.511719 C 27.496094 2.515625 27.402344 2.539062 27.3125 2.582031 C 27.242188 2.617188 27.1875 2.664062 27.140625 2.722656 C 27.097656 2.769531 27.070312 2.824219 27.050781 2.886719 C 27.039062 2.941406 27.035156 3 27.042969 3.058594 C 27.050781 3.15625 27.089844 3.238281 27.15625 3.3125 C 27.230469 3.382812 27.3125 3.449219 27.402344 3.5 C 27.511719 3.558594 27.625 3.609375 27.746094 3.65625 L 28.121094 3.792969 L 28.503906 3.949219 C 28.628906 4 28.742188 4.0625 28.847656 4.136719 C 28.945312 4.203125 29.03125 4.28125 29.101562 4.375 C 29.167969 4.472656 29.210938 4.582031 29.226562 4.703125 C 29.246094 4.84375 29.230469 4.984375 29.183594 5.117188 C 29.136719 5.257812 29.0625 5.378906 28.957031 5.476562 C 28.832031 5.59375 28.695312 5.683594 28.539062 5.75 C 28.347656 5.828125 28.148438 5.878906 27.941406 5.894531 Z M 27.941406 5.894531 " fill-opacity="1" fill-rule="nonzero"/></g><g clip-path="url(#1667cb3582)"><path fill="#ffffff" d="M 33.476562 2.363281 L 33.453125 2.671875 L 32.210938 2.558594 L 31.90625 5.839844 L 31.023438 5.757812 L 31.328125 2.476562 L 30.082031 2.363281 L 30.117188 2.050781 Z M 33.476562 2.363281 " fill-opacity="1" fill-rule="nonzero"/></g><g clip-path="url(#bc70f58a15)"><path fill="#ffffff" d="M 35.261719 2.8125 L 35.882812 4.726562 L 37.441406 3.523438 L 38.015625 3.710938 L 36.035156 5.226562 L 35.554688 6.707031 L 34.710938 6.425781 L 35.179688 4.996094 L 34.375 2.527344 Z M 35.261719 2.8125 " fill-opacity="1" fill-rule="nonzero"/></g><path fill="#ffffff" d="M 39.101562 4.285156 L 39.863281 4.726562 L 38.238281 7.523438 L 39.832031 8.445312 L 39.644531 8.765625 L 37.289062 7.398438 Z M 39.101562 4.285156 " fill-opacity="1" fill-rule="nonzero"/><path fill="#ffffff" d="M 44.46875 8.167969 L 44.261719 8.398438 L 42.898438 7.210938 L 42.121094 8.101562 L 43.25 9.09375 L 43.042969 9.328125 L 41.917969 8.339844 L 40.976562 9.410156 L 42.332031 10.605469 L 42.089844 10.882812 L 40.058594 9.109375 L 42.441406 6.394531 Z M 44.46875 8.167969 " fill-opacity="1" fill-rule="nonzero"/><path fill="#ffffff" d="M 44.15625 11.226562 C 44.210938 11.1875 44.269531 11.160156 44.335938 11.144531 C 44.398438 11.128906 44.460938 11.128906 44.523438 11.136719 C 44.59375 11.148438 44.65625 11.167969 44.714844 11.203125 C 44.773438 11.242188 44.820312 11.289062 44.859375 11.351562 C 44.90625 11.402344 44.933594 11.460938 44.949219 11.53125 C 44.992188 11.664062 44.976562 11.789062 44.902344 11.90625 C 44.867188 11.964844 44.824219 12.015625 44.769531 12.054688 C 44.714844 12.09375 44.65625 12.121094 44.589844 12.136719 C 44.527344 12.148438 44.464844 12.152344 44.402344 12.144531 C 44.335938 12.128906 44.277344 12.105469 44.222656 12.070312 C 44.097656 11.996094 44.019531 11.890625 43.984375 11.75 C 43.964844 11.6875 43.957031 11.621094 43.96875 11.554688 C 43.976562 11.492188 43.996094 11.429688 44.027344 11.375 C 44.058594 11.316406 44.101562 11.265625 44.15625 11.226562 Z M 44.15625 11.226562 " fill-opacity="1" fill-rule="nonzero"/><path fill="#ffffff" d="M 45.136719 15.617188 C 45.054688 15.445312 45 15.261719 44.972656 15.070312 C 44.949219 14.914062 44.957031 14.757812 44.992188 14.605469 C 45.027344 14.46875 45.085938 14.339844 45.171875 14.226562 C 45.257812 14.113281 45.363281 14.015625 45.480469 13.933594 L 45.734375 14.5 C 45.660156 14.550781 45.597656 14.613281 45.546875 14.6875 C 45.492188 14.75 45.449219 14.824219 45.425781 14.90625 C 45.390625 14.992188 45.382812 15.078125 45.390625 15.167969 C 45.398438 15.269531 45.421875 15.371094 45.464844 15.464844 C 45.496094 15.527344 45.539062 15.59375 45.578125 15.660156 C 45.625 15.714844 45.675781 15.765625 45.734375 15.804688 C 45.792969 15.84375 45.855469 15.863281 45.921875 15.871094 C 45.996094 15.878906 46.066406 15.871094 46.136719 15.839844 C 46.230469 15.792969 46.304688 15.726562 46.363281 15.644531 C 46.417969 15.550781 46.457031 15.453125 46.480469 15.347656 C 46.503906 15.230469 46.523438 15.109375 46.527344 14.988281 C 46.535156 14.867188 46.535156 14.734375 46.542969 14.597656 C 46.554688 14.457031 46.5625 14.328125 46.570312 14.195312 C 46.585938 14.070312 46.609375 13.949219 46.644531 13.828125 C 46.675781 13.710938 46.730469 13.609375 46.804688 13.515625 C 46.882812 13.421875 46.972656 13.347656 47.085938 13.296875 C 47.214844 13.238281 47.351562 13.214844 47.492188 13.222656 C 47.636719 13.230469 47.769531 13.269531 47.894531 13.335938 C 48.03125 13.421875 48.15625 13.523438 48.261719 13.648438 C 48.390625 13.800781 48.492188 13.972656 48.574219 14.15625 C 48.640625 14.308594 48.6875 14.46875 48.703125 14.636719 C 48.71875 14.78125 48.710938 14.925781 48.679688 15.070312 C 48.644531 15.207031 48.589844 15.335938 48.515625 15.453125 C 48.4375 15.574219 48.34375 15.679688 48.238281 15.773438 L 48.007812 15.265625 C 48.074219 15.203125 48.132812 15.132812 48.1875 15.0625 C 48.238281 14.992188 48.277344 14.917969 48.3125 14.839844 C 48.339844 14.753906 48.351562 14.664062 48.34375 14.570312 C 48.332031 14.464844 48.304688 14.359375 48.261719 14.261719 C 48.222656 14.167969 48.167969 14.085938 48.097656 14.015625 C 48 13.90625 47.875 13.855469 47.730469 13.859375 C 47.671875 13.863281 47.617188 13.878906 47.566406 13.902344 C 47.476562 13.941406 47.410156 14.003906 47.363281 14.089844 C 47.3125 14.179688 47.273438 14.28125 47.257812 14.382812 C 47.230469 14.503906 47.214844 14.628906 47.207031 14.75 C 47.207031 14.882812 47.199219 15.019531 47.191406 15.152344 C 47.183594 15.28125 47.175781 15.429688 47.15625 15.570312 C 47.152344 15.699219 47.125 15.824219 47.085938 15.945312 C 47.054688 16.0625 47.003906 16.167969 46.929688 16.265625 C 46.859375 16.359375 46.769531 16.429688 46.660156 16.476562 C 46.53125 16.539062 46.394531 16.570312 46.25 16.566406 C 46.105469 16.566406 45.96875 16.527344 45.839844 16.453125 C 45.691406 16.375 45.566406 16.269531 45.457031 16.140625 C 45.320312 15.984375 45.214844 15.808594 45.136719 15.617188 Z M 45.136719 15.617188 " fill-opacity="1" fill-rule="nonzero"/><g clip-path="url(#4f5f2cc0e7)"><path fill="#ffffff" d="M 50.175781 19.828125 L 49.871094 19.894531 L 49.601562 18.675781 L 46.382812 19.378906 L 46.191406 18.511719 L 49.414062 17.808594 L 49.152344 16.589844 L 49.457031 16.527344 Z M 50.175781 19.828125 " fill-opacity="1" fill-rule="nonzero"/></g><g clip-path="url(#630631c78d)"><path fill="#ffffff" d="M 50.289062 21.652344 L 48.65625 22.832031 L 50.273438 23.949219 L 50.273438 24.546875 L 48.230469 23.125 L 46.675781 23.125 L 46.675781 22.234375 L 48.179688 22.234375 L 50.289062 20.722656 Z M 50.289062 21.652344 " fill-opacity="1" fill-rule="nonzero"/></g><g clip-path="url(#65cb87cd94)"><path fill="#ffffff" d="M 50.0625 25.757812 L 49.863281 26.625 L 46.707031 25.921875 L 46.308594 27.722656 L 45.949219 27.640625 L 46.535156 24.980469 Z M 50.0625 25.757812 " fill-opacity="1" fill-rule="nonzero"/></g><path fill="#ffffff" d="M 47.976562 32.054688 L 47.6875 31.933594 L 48.417969 30.273438 L 47.328125 29.796875 L 46.722656 31.171875 L 46.445312 31.050781 L 47.042969 29.675781 L 45.734375 29.101562 L 45.007812 30.753906 L 44.671875 30.609375 L 45.75 28.136719 L 49.054688 29.585938 Z M 47.976562 32.054688 " fill-opacity="1" fill-rule="nonzero"/><g clip-path="url(#74b1cbfc2a)"><path fill="#ffffff" d="M 25.0625 22.351562 L 34.9375 22.351562 C 34.769531 20.933594 34.375 18.785156 33.46875 18.050781 C 32.613281 17.359375 31.503906 17.054688 30.773438 16.921875 C 30.261719 16.832031 29.738281 16.832031 29.226562 16.921875 C 28.496094 17.054688 27.386719 17.359375 26.53125 18.050781 C 25.625 18.785156 25.230469 20.933594 25.0625 22.351562 " fill-opacity="1" fill-rule="nonzero"/></g><g clip-path="url(#6c2a0a0e65)"><path fill="#ffffff" d="M 18.011719 25.628906 C 19.328125 27.179688 21.878906 26.945312 25.664062 26.191406 C 28.679688 25.59375 34.296875 28.339844 37.726562 28.152344 C 41.15625 27.964844 41.988281 25.628906 41.988281 25.628906 L 35.050781 23.667969 L 24.949219 23.667969 L 18.011719 25.628906 " fill-opacity="1" fill-rule="nonzero"/></g><path fill="#ffffff" d="M 24.949219 23.667969 L 35.050781 23.667969 C 35.050781 23.667969 35.027344 23.117188 34.9375 22.351562 L 25.0625 22.351562 C 24.972656 23.117188 24.949219 23.667969 24.949219 23.667969 " fill-opacity="1" fill-rule="nonzero"/></svg>