<svg xmlns="http://www.w3.org/2000/svg" xmlns:xlink="http://www.w3.org/1999/xlink" width="240" zoomAndPan="magnify" viewBox="0 0 180 89.999999" height="120" preserveAspectRatio="xMidYMid meet" version="1.0"><defs><g/><clipPath id="c6229d7eea"><path d="M 40 16.527344 L 140 16.527344 L 140 73.527344 L 40 73.527344 Z M 40 16.527344 " clip-rule="nonzero"/></clipPath><clipPath id="0c9d634984"><path d="M 40.835938 73.472656 L 140.585938 73.472656 L 140.585938 83.972656 L 40.835938 83.972656 Z M 40.835938 73.472656 " clip-rule="nonzero"/></clipPath></defs><g clip-path="url(#c6229d7eea)"><path fill="#231f20" d="M 119.984375 57.863281 C 115.695312 57.863281 112.21875 61.335938 112.21875 65.640625 C 112.21875 69.921875 115.695312 73.410156 119.984375 73.410156 C 124.28125 73.410156 127.757812 69.921875 127.757812 65.640625 C 127.757812 61.335938 124.28125 57.863281 119.984375 57.863281 Z M 119.984375 69.546875 C 117.839844 69.546875 116.09375 67.796875 116.09375 65.65625 C 116.09375 63.5 117.839844 61.765625 119.984375 61.765625 C 122.136719 61.765625 123.875 63.5 123.875 65.65625 C 123.875 67.796875 122.136719 69.546875 119.984375 69.546875 Z M 40.351562 60.113281 L 49.988281 60.113281 C 49.066406 61.664062 48.523438 63.460938 48.480469 65.386719 L 45.640625 65.386719 C 39.566406 65.386719 40.351562 60.113281 40.351562 60.113281 Z M 59.371094 54.730469 C 62.234375 54.730469 64.835938 55.855469 66.785156 57.664062 L 112.574219 57.664062 C 114.519531 55.855469 117.125 54.730469 119.984375 54.730469 C 122.851562 54.730469 125.453125 55.855469 127.402344 57.664062 L 137.117188 57.664062 L 137.117188 47.136719 C 137.117188 47.136719 133.179688 37.25 130.964844 31.777344 C 129.527344 28.503906 127.039062 24.855469 120.8125 24.855469 C 115.503906 24.855469 109.207031 24.855469 108.492188 24.855469 C 105.964844 24.855469 104.582031 25.953125 104.582031 28.46875 C 104.582031 29.613281 104.582031 49.027344 104.582031 49.027344 L 100.371094 49.027344 L 100.371094 16.59375 L 40.320312 16.59375 L 40.320312 57.664062 L 51.957031 57.664062 C 53.902344 55.855469 56.503906 54.730469 59.371094 54.730469 Z M 109.085938 29.363281 L 120.8125 29.363281 C 124.28125 29.363281 125.644531 30.890625 126.808594 33.527344 C 128.472656 37.621094 131.054688 44.105469 132.261719 47.132812 L 126.457031 47.132812 L 122.417969 43.425781 C 121.46875 42.59375 120.675781 41.859375 117.761719 41.859375 C 115.503906 41.859375 109.085938 41.859375 109.085938 41.859375 Z M 59.371094 65.382812 C 59.378906 65.382812 59.378906 65.386719 59.382812 65.386719 C 59.375 65.386719 59.367188 65.386719 59.355469 65.386719 C 59.367188 65.386719 59.367188 65.382812 59.371094 65.382812 Z M 68.753906 60.113281 L 110.601562 60.113281 C 109.6875 61.664062 109.136719 63.460938 109.09375 65.386719 C 109.09375 65.386719 81.804688 65.386719 70.261719 65.386719 C 70.214844 63.460938 69.667969 61.664062 68.753906 60.113281 Z M 135.554688 65.386719 C 135.425781 65.386719 133.730469 65.386719 130.878906 65.386719 C 130.835938 63.460938 130.292969 61.664062 129.371094 60.113281 L 139.769531 60.113281 C 139.769531 60.113281 140.335938 65.386719 135.554688 65.386719 Z M 59.371094 57.863281 C 55.078125 57.863281 51.597656 61.34375 51.597656 65.640625 C 51.597656 69.921875 55.078125 73.410156 59.371094 73.410156 C 63.65625 73.410156 67.140625 69.921875 67.140625 65.640625 C 67.140625 61.34375 63.65625 57.863281 59.371094 57.863281 Z M 59.371094 69.519531 C 57.222656 69.519531 55.480469 67.78125 55.480469 65.640625 C 55.480469 63.484375 57.222656 61.746094 59.371094 61.746094 C 61.515625 61.746094 63.257812 63.484375 63.257812 65.640625 C 63.257812 67.78125 61.515625 69.519531 59.371094 69.519531 " fill-opacity="1" fill-rule="nonzero"/></g><g clip-path="url(#0c9d634984)"><path fill="#60a5fa" d="M 123.765625 80.054688 L 46.859375 80.898438 L 125.269531 81.105469 Z M 117.746094 78.242188 L 40.839844 79.082031 L 119.25 79.292969 Z M 132.304688 82.59375 L 55.398438 83.433594 L 133.808594 83.644531 Z M 138.878906 73.496094 L 61.976562 74.335938 L 140.386719 74.546875 Z M 123.207031 76.058594 L 46.300781 76.902344 L 124.710938 77.109375 Z M 123.207031 76.058594 " fill-opacity="1" fill-rule="evenodd"/></g><g fill="#0ea5e9" fill-opacity="1"><g transform="translate(57.517198, 42.150014)"><g><path d="M 2.328125 0 C 1.960938 0 1.632812 -0.0703125 1.34375 -0.21875 C 1.050781 -0.363281 0.820312 -0.5625 0.65625 -0.8125 C 0.488281 -1.0625 0.40625 -1.347656 0.40625 -1.671875 L 0.40625 -2.1875 C 0.40625 -2.238281 0.421875 -2.273438 0.453125 -2.296875 C 0.484375 -2.328125 0.519531 -2.34375 0.5625 -2.34375 L 1.234375 -2.34375 C 1.285156 -2.34375 1.320312 -2.328125 1.34375 -2.296875 C 1.375 -2.273438 1.390625 -2.238281 1.390625 -2.1875 L 1.390625 -1.671875 C 1.390625 -1.472656 1.476562 -1.304688 1.65625 -1.171875 C 1.832031 -1.046875 2.054688 -0.984375 2.328125 -0.984375 L 4.421875 -0.984375 C 4.703125 -0.984375 4.925781 -1.070312 5.09375 -1.25 C 5.269531 -1.425781 5.359375 -1.648438 5.359375 -1.921875 L 5.359375 -2.421875 C 5.359375 -2.640625 5.296875 -2.820312 5.171875 -2.96875 C 5.046875 -3.125 4.867188 -3.222656 4.640625 -3.265625 L 1.921875 -3.765625 C 1.628906 -3.816406 1.367188 -3.925781 1.140625 -4.09375 C 0.910156 -4.269531 0.726562 -4.484375 0.59375 -4.734375 C 0.46875 -4.992188 0.40625 -5.28125 0.40625 -5.59375 L 0.40625 -5.8125 C 0.40625 -6.164062 0.488281 -6.476562 0.65625 -6.75 C 0.820312 -7.019531 1.050781 -7.238281 1.34375 -7.40625 C 1.632812 -7.570312 1.960938 -7.65625 2.328125 -7.65625 L 4.421875 -7.65625 C 4.785156 -7.65625 5.113281 -7.566406 5.40625 -7.390625 C 5.695312 -7.222656 5.925781 -6.992188 6.09375 -6.703125 C 6.257812 -6.410156 6.34375 -6.082031 6.34375 -5.71875 L 6.34375 -5.46875 C 6.34375 -5.425781 6.328125 -5.382812 6.296875 -5.34375 C 6.265625 -5.3125 6.226562 -5.296875 6.1875 -5.296875 L 5.515625 -5.296875 C 5.472656 -5.296875 5.4375 -5.3125 5.40625 -5.34375 C 5.375 -5.382812 5.359375 -5.425781 5.359375 -5.46875 L 5.359375 -5.71875 C 5.359375 -6 5.269531 -6.222656 5.09375 -6.390625 C 4.925781 -6.566406 4.703125 -6.65625 4.421875 -6.65625 L 2.328125 -6.65625 C 2.054688 -6.65625 1.832031 -6.578125 1.65625 -6.421875 C 1.476562 -6.265625 1.390625 -6.0625 1.390625 -5.8125 L 1.390625 -5.59375 C 1.390625 -5.363281 1.453125 -5.171875 1.578125 -5.015625 C 1.710938 -4.859375 1.890625 -4.765625 2.109375 -4.734375 L 4.828125 -4.234375 C 5.285156 -4.148438 5.648438 -3.941406 5.921875 -3.609375 C 6.203125 -3.273438 6.34375 -2.878906 6.34375 -2.421875 L 6.34375 -1.921875 C 6.34375 -1.554688 6.257812 -1.226562 6.09375 -0.9375 C 5.925781 -0.644531 5.695312 -0.414062 5.40625 -0.25 C 5.113281 -0.0820312 4.785156 0 4.421875 0 Z M 2.328125 0 "/></g></g></g><g fill="#0ea5e9" fill-opacity="1"><g transform="translate(64.267244, 42.150014)"><g><path d="M 2.921875 0 C 2.441406 0 2.007812 -0.109375 1.625 -0.328125 C 1.25 -0.546875 0.953125 -0.84375 0.734375 -1.21875 C 0.515625 -1.601562 0.40625 -2.035156 0.40625 -2.515625 L 0.40625 -5.125 C 0.40625 -5.601562 0.515625 -6.035156 0.734375 -6.421875 C 0.953125 -6.804688 1.25 -7.109375 1.625 -7.328125 C 2.007812 -7.546875 2.441406 -7.65625 2.921875 -7.65625 L 3.828125 -7.65625 C 4.304688 -7.65625 4.734375 -7.546875 5.109375 -7.328125 C 5.492188 -7.109375 5.796875 -6.804688 6.015625 -6.421875 C 6.234375 -6.035156 6.34375 -5.601562 6.34375 -5.125 L 6.34375 -2.515625 C 6.34375 -2.035156 6.234375 -1.601562 6.015625 -1.21875 C 5.796875 -0.84375 5.492188 -0.546875 5.109375 -0.328125 C 4.734375 -0.109375 4.304688 0 3.828125 0 Z M 2.921875 -0.984375 L 3.828125 -0.984375 C 4.128906 -0.984375 4.394531 -1.046875 4.625 -1.171875 C 4.851562 -1.304688 5.03125 -1.488281 5.15625 -1.71875 C 5.289062 -1.945312 5.359375 -2.210938 5.359375 -2.515625 L 5.359375 -5.125 C 5.359375 -5.425781 5.289062 -5.691406 5.15625 -5.921875 C 5.019531 -6.148438 4.835938 -6.328125 4.609375 -6.453125 C 4.390625 -6.585938 4.128906 -6.65625 3.828125 -6.65625 L 2.921875 -6.65625 C 2.617188 -6.65625 2.351562 -6.585938 2.125 -6.453125 C 1.894531 -6.328125 1.710938 -6.148438 1.578125 -5.921875 C 1.453125 -5.691406 1.390625 -5.425781 1.390625 -5.125 L 1.390625 -2.515625 C 1.390625 -2.210938 1.457031 -1.945312 1.59375 -1.71875 C 1.726562 -1.488281 1.910156 -1.304688 2.140625 -1.171875 C 2.367188 -1.046875 2.628906 -0.984375 2.921875 -0.984375 Z M 2.921875 -0.984375 "/></g></g></g><g fill="#0ea5e9" fill-opacity="1"><g transform="translate(71.017289, 42.150014)"><g><path d="M 0.625 0 C 0.582031 0 0.539062 -0.015625 0.5 -0.046875 C 0.46875 -0.0859375 0.453125 -0.132812 0.453125 -0.1875 L 0.453125 -7.46875 C 0.453125 -7.519531 0.46875 -7.5625 0.5 -7.59375 C 0.539062 -7.632812 0.582031 -7.65625 0.625 -7.65625 L 1.265625 -7.65625 C 1.304688 -7.65625 1.34375 -7.632812 1.375 -7.59375 C 1.414062 -7.5625 1.4375 -7.519531 1.4375 -7.46875 L 1.4375 -1.171875 C 1.4375 -1.117188 1.453125 -1.070312 1.484375 -1.03125 C 1.523438 -1 1.570312 -0.984375 1.625 -0.984375 L 4.515625 -0.984375 C 4.566406 -0.984375 4.609375 -0.960938 4.640625 -0.921875 C 4.679688 -0.890625 4.703125 -0.851562 4.703125 -0.8125 L 4.703125 -0.1875 C 4.703125 -0.132812 4.679688 -0.0859375 4.640625 -0.046875 C 4.609375 -0.015625 4.566406 0 4.515625 0 Z M 0.625 0 "/></g></g></g><g fill="#0ea5e9" fill-opacity="1"><g transform="translate(75.670319, 42.150014)"><g><path d="M 2.921875 0 C 2.441406 0 2.007812 -0.109375 1.625 -0.328125 C 1.25 -0.546875 0.953125 -0.84375 0.734375 -1.21875 C 0.515625 -1.601562 0.40625 -2.035156 0.40625 -2.515625 L 0.40625 -5.125 C 0.40625 -5.601562 0.515625 -6.035156 0.734375 -6.421875 C 0.953125 -6.804688 1.25 -7.109375 1.625 -7.328125 C 2.007812 -7.546875 2.441406 -7.65625 2.921875 -7.65625 L 3.828125 -7.65625 C 4.304688 -7.65625 4.734375 -7.546875 5.109375 -7.328125 C 5.492188 -7.109375 5.796875 -6.804688 6.015625 -6.421875 C 6.234375 -6.035156 6.34375 -5.601562 6.34375 -5.125 L 6.34375 -2.515625 C 6.34375 -2.035156 6.234375 -1.601562 6.015625 -1.21875 C 5.796875 -0.84375 5.492188 -0.546875 5.109375 -0.328125 C 4.734375 -0.109375 4.304688 0 3.828125 0 Z M 2.921875 -0.984375 L 3.828125 -0.984375 C 4.128906 -0.984375 4.394531 -1.046875 4.625 -1.171875 C 4.851562 -1.304688 5.03125 -1.488281 5.15625 -1.71875 C 5.289062 -1.945312 5.359375 -2.210938 5.359375 -2.515625 L 5.359375 -5.125 C 5.359375 -5.425781 5.289062 -5.691406 5.15625 -5.921875 C 5.019531 -6.148438 4.835938 -6.328125 4.609375 -6.453125 C 4.390625 -6.585938 4.128906 -6.65625 3.828125 -6.65625 L 2.921875 -6.65625 C 2.617188 -6.65625 2.351562 -6.585938 2.125 -6.453125 C 1.894531 -6.328125 1.710938 -6.148438 1.578125 -5.921875 C 1.453125 -5.691406 1.390625 -5.425781 1.390625 -5.125 L 1.390625 -2.515625 C 1.390625 -2.210938 1.457031 -1.945312 1.59375 -1.71875 C 1.726562 -1.488281 1.910156 -1.304688 2.140625 -1.171875 C 2.367188 -1.046875 2.628906 -0.984375 2.921875 -0.984375 Z M 2.921875 -0.984375 "/></g></g></g></svg>