<svg xmlns="http://www.w3.org/2000/svg" xmlns:xlink="http://www.w3.org/1999/xlink" width="240" zoomAndPan="magnify" viewBox="0 0 180 89.999999" height="120" preserveAspectRatio="xMidYMid meet" version="1.0"><defs><clipPath id="5cc48b7867"><path d="M 27 57 L 42 57 L 42 72.015625 L 27 72.015625 Z M 27 57 " clip-rule="nonzero"/></clipPath><clipPath id="fca59fdfa1"><path d="M 47 57 L 62 57 L 62 72.015625 L 47 72.015625 Z M 47 57 " clip-rule="nonzero"/></clipPath><clipPath id="e34ab6c0ee"><path d="M 107 57 L 123 57 L 123 72.015625 L 107 72.015625 Z M 107 57 " clip-rule="nonzero"/></clipPath><clipPath id="b6aeedfb53"><path d="M 144 57 L 160 57 L 160 72.015625 L 144 72.015625 Z M 144 57 " clip-rule="nonzero"/></clipPath><clipPath id="2da23126a6"><path d="M 103 8.265625 L 171 8.265625 L 171 65 L 103 65 Z M 103 8.265625 " clip-rule="nonzero"/></clipPath><clipPath id="c410270173"><path d="M 36 33 L 45.042969 33 L 45.042969 53 L 36 53 Z M 36 33 " clip-rule="nonzero"/></clipPath><clipPath id="32b0f182fb"><path d="M 28.542969 32.910156 L 37 32.910156 L 37 53 L 28.542969 53 Z M 28.542969 32.910156 " clip-rule="nonzero"/></clipPath><clipPath id="47bab5fb45"><path d="M 70.925781 32.910156 L 89.984375 32.910156 L 89.984375 53.160156 L 70.925781 53.160156 Z M 70.925781 32.910156 " clip-rule="nonzero"/></clipPath><clipPath id="5c4e5dfe40"><path d="M 61.074219 43 L 70 43 L 70 45 L 61.074219 45 Z M 61.074219 43 " clip-rule="nonzero"/></clipPath><clipPath id="948254a733"><path d="M 71.445312 72.054688 L 171 72.054688 L 171 82.554688 L 71.445312 82.554688 Z M 71.445312 72.054688 " clip-rule="nonzero"/></clipPath></defs><g clip-path="url(#5cc48b7867)"><path fill="#231f20" d="M 34.394531 57.738281 C 30.421875 57.738281 27.195312 60.960938 27.195312 64.933594 C 27.195312 68.90625 30.421875 72.121094 34.394531 72.121094 C 38.367188 72.121094 41.578125 68.898438 41.578125 64.933594 C 41.578125 60.972656 38.355469 57.738281 34.394531 57.738281 Z M 34.394531 57.738281 " fill-opacity="1" fill-rule="nonzero"/></g><g clip-path="url(#fca59fdfa1)"><path fill="#231f20" d="M 54.578125 57.738281 C 50.605469 57.738281 47.382812 60.960938 47.382812 64.933594 C 47.382812 68.90625 50.605469 72.121094 54.578125 72.121094 C 58.550781 72.121094 61.765625 68.898438 61.765625 64.933594 C 61.765625 60.972656 58.542969 57.738281 54.578125 57.738281 Z M 54.578125 57.738281 " fill-opacity="1" fill-rule="nonzero"/></g><path fill="#231f20" d="M 131.203125 22.425781 L 9.132812 22.425781 L 9.132812 64.925781 L 25.496094 64.925781 C 25.496094 60.019531 29.480469 56.039062 34.382812 56.039062 C 39.285156 56.039062 43.269531 60.019531 43.269531 64.925781 L 45.695312 64.925781 C 45.695312 60.019531 49.675781 56.039062 54.578125 56.039062 C 59.480469 56.039062 63.464844 60.019531 63.464844 64.925781 L 102.261719 64.925781 L 102.261719 52.984375 L 131.203125 52.984375 Z M 131.203125 22.425781 " fill-opacity="1" fill-rule="nonzero"/><g clip-path="url(#e34ab6c0ee)"><path fill="#231f20" d="M 115.171875 57.738281 C 111.199219 57.738281 107.984375 60.960938 107.984375 64.933594 C 107.984375 68.90625 111.207031 72.121094 115.171875 72.121094 C 119.132812 72.121094 122.367188 68.898438 122.367188 64.933594 C 122.367188 60.972656 119.144531 57.738281 115.171875 57.738281 Z M 115.171875 57.738281 " fill-opacity="1" fill-rule="nonzero"/></g><g clip-path="url(#b6aeedfb53)"><path fill="#231f20" d="M 152.128906 57.738281 C 148.15625 57.738281 144.929688 60.960938 144.929688 64.933594 C 144.929688 68.90625 148.15625 72.121094 152.128906 72.121094 C 156.101562 72.121094 159.324219 68.898438 159.324219 64.933594 C 159.324219 60.972656 156.101562 57.738281 152.128906 57.738281 Z M 152.128906 57.738281 " fill-opacity="1" fill-rule="nonzero"/></g><g clip-path="url(#2da23126a6)"><path fill="#231f20" d="M 162.800781 42.472656 L 158.910156 42.472656 L 151.492188 30.867188 C 150.296875 29 148.234375 27.867188 146.011719 27.867188 L 137.398438 27.867188 L 137.398438 20.070312 C 137.398438 19.34375 137.015625 18.707031 136.429688 18.355469 L 136.429688 9.304688 C 136.429688 8.75 135.972656 8.296875 135.417969 8.296875 L 131.273438 8.296875 C 131.273438 9.4375 132.203125 10.367188 133.34375 10.367188 C 133.902344 10.367188 134.355469 10.824219 134.355469 11.378906 L 134.355469 18.34375 C 133.761719 18.699219 133.367188 19.34375 133.367188 20.082031 L 133.367188 54.683594 L 103.941406 54.683594 L 103.941406 64.925781 L 106.265625 64.925781 C 106.265625 60.019531 110.246094 56.039062 115.148438 56.039062 C 120.054688 56.039062 124.035156 60.019531 124.035156 64.925781 L 143.210938 64.925781 C 143.210938 60.019531 147.195312 56.039062 152.097656 56.039062 C 157 56.039062 160.984375 60.019531 160.984375 64.925781 L 170.839844 64.925781 L 170.839844 50.539062 C 170.839844 46.082031 167.230469 42.472656 162.773438 42.472656 Z M 141.585938 46.324219 C 141.585938 45.839844 141.777344 45.40625 142.101562 45.089844 C 142.414062 44.777344 142.847656 44.574219 143.332031 44.574219 L 144.636719 44.574219 C 145.597656 44.574219 146.386719 45.355469 146.386719 46.3125 L 141.59375 46.3125 Z M 140.5625 42.089844 L 140.5625 29.5625 L 146.011719 29.5625 C 147.660156 29.5625 149.175781 30.394531 150.054688 31.777344 L 156.644531 42.078125 L 140.5625 42.078125 Z M 140.5625 42.089844 " fill-opacity="1" fill-rule="nonzero"/></g><g clip-path="url(#c410270173)"><path fill="#0ea5e9" d="M 45.347656 40.21875 C 45.339844 38.914062 45.292969 37.613281 45.277344 36.308594 C 45.277344 36.207031 45.207031 36.113281 45.097656 36.089844 C 44.8125 36.027344 44.492188 35.957031 44.207031 35.886719 C 42.796875 35.589844 41.464844 35.039062 40.152344 34.460938 C 39.128906 34.058594 38.023438 33.113281 36.910156 33.144531 C 37.011719 33.367188 37.222656 33.480469 37.378906 33.65625 C 37.601562 33.925781 37.960938 33.96875 38.261719 34.128906 C 38.828125 34.402344 39.402344 34.660156 39.980469 34.894531 C 40.445312 35.082031 40.894531 35.277344 41.347656 35.492188 C 42.4375 35.960938 43.613281 36.222656 44.75 36.539062 C 44.769531 38.152344 44.902344 39.832031 44.757812 41.441406 C 44.695312 44.855469 44.0625 48.835938 40.875 50.734375 C 39.945312 51.320312 38.929688 51.730469 37.90625 52.132812 C 37.496094 52.324219 37.261719 52.632812 36.878906 52.941406 C 38 52.992188 39.019531 52.367188 40.007812 51.90625 C 42.769531 50.710938 44.320312 48.136719 44.996094 45.296875 C 45.320312 43.621094 45.367188 41.917969 45.347656 40.21875 Z M 45.347656 40.21875 " fill-opacity="1" fill-rule="nonzero"/></g><g clip-path="url(#32b0f182fb)"><path fill="#0ea5e9" d="M 36.765625 52.578125 C 36.542969 52.449219 36.34375 52.277344 36.121094 52.15625 C 35.914062 52.0625 35.667969 52.058594 35.457031 51.957031 C 34.527344 51.59375 33.582031 51.195312 32.828125 50.523438 C 32.160156 49.914062 31.492188 49.285156 31.03125 48.492188 C 30.304688 47.21875 29.78125 45.820312 29.601562 44.359375 C 29.367188 41.765625 29.476562 39.171875 29.449219 36.566406 C 31.207031 36.054688 32.925781 35.425781 34.574219 34.632812 C 35.601562 34.125 36.253906 33.933594 36.914062 32.929688 C 35.847656 33.0625 34.972656 33.785156 34.007812 34.226562 C 32.453125 34.921875 30.875 35.617188 29.230469 36.082031 C 29.121094 36.128906 28.898438 36.128906 28.910156 36.300781 C 28.917969 36.792969 28.917969 37.285156 28.90625 37.777344 C 28.753906 41.9375 28.542969 46.789062 31.621094 50.023438 C 32.449219 51.0625 35.578125 53.140625 36.878906 52.707031 C 36.835938 52.65625 36.808594 52.609375 36.765625 52.578125 Z M 36.765625 52.578125 " fill-opacity="1" fill-rule="nonzero"/></g><path fill="#0ea5e9" d="M 42.199219 40.039062 C 42.253906 39.890625 42.15625 39.746094 42.121094 39.605469 C 42.011719 39.234375 41.632812 39.039062 41.414062 38.734375 C 41.132812 38.484375 40.820312 37.652344 40.40625 38.179688 C 39.882812 38.769531 39.441406 39.414062 38.945312 40.023438 C 38.671875 40.316406 38.40625 40.617188 38.183594 40.949219 C 37.339844 42.125 36.550781 43.363281 35.914062 44.664062 C 35.878906 44.617188 35.820312 44.585938 35.761719 44.582031 C 35.71875 44.503906 35.675781 44.421875 35.628906 44.34375 C 35.652344 44.230469 35.578125 44.101562 35.453125 44.078125 C 35.074219 43.597656 34.910156 42.703125 34.171875 42.699219 C 34.164062 42.71875 34.160156 42.734375 34.152344 42.75 C 34.144531 42.753906 34.136719 42.757812 34.128906 42.761719 C 34.15625 42.6875 34.179688 42.609375 34.210938 42.527344 C 33.988281 42.472656 33.605469 42.609375 33.414062 42.734375 C 33.179688 42.957031 32.910156 43.132812 32.667969 43.339844 C 32.5625 43.460938 32.582031 43.644531 32.703125 43.746094 C 32.957031 43.957031 33.195312 44.1875 33.449219 44.402344 C 34.109375 44.90625 34.753906 45.4375 35.34375 46.023438 C 35.933594 46.648438 35.933594 47 36.550781 46.117188 C 37.652344 44.800781 38.839844 43.554688 39.996094 42.289062 C 40.316406 42.007812 40.648438 41.734375 40.957031 41.4375 C 41.371094 41.035156 42.109375 40.699219 42.019531 40.019531 C 41.902344 39.992188 41.828125 40.035156 41.726562 40.066406 C 41.703125 40.019531 41.683594 39.96875 41.660156 39.917969 C 41.828125 39.964844 41.996094 39.996094 42.199219 40.039062 Z M 39.894531 40.722656 C 39.824219 40.542969 39.871094 40.351562 39.871094 40.160156 C 39.890625 40.382812 39.90625 40.605469 39.925781 40.828125 C 39.914062 40.792969 39.902344 40.757812 39.894531 40.722656 Z M 34.675781 44.699219 C 34.675781 44.683594 34.679688 44.671875 34.6875 44.660156 L 34.683594 44.703125 C 34.679688 44.703125 34.679688 44.699219 34.675781 44.699219 Z M 34.621094 43.882812 C 34.609375 43.808594 34.597656 43.738281 34.585938 43.664062 L 34.691406 43.804688 C 34.667969 43.832031 34.644531 43.859375 34.621094 43.882812 Z M 34.195312 44.101562 C 34.195312 44.15625 34.195312 44.210938 34.195312 44.265625 C 34.179688 44.25 34.160156 44.234375 34.144531 44.21875 C 34.164062 44.179688 34.179688 44.140625 34.195312 44.101562 Z M 35.207031 44.988281 C 35.210938 44.984375 35.214844 44.980469 35.214844 44.976562 C 35.214844 45.035156 35.210938 45.097656 35.199219 45.15625 C 35.179688 45.136719 35.160156 45.121094 35.136719 45.101562 C 35.160156 45.066406 35.183594 45.027344 35.207031 44.988281 Z M 35.566406 45.355469 C 35.574219 45.402344 35.585938 45.453125 35.597656 45.496094 C 35.582031 45.480469 35.566406 45.464844 35.546875 45.453125 C 35.554688 45.421875 35.5625 45.386719 35.566406 45.355469 Z M 35.917969 45.800781 C 35.953125 45.757812 35.96875 45.703125 35.996094 45.652344 C 36.007812 45.707031 36.023438 45.757812 36.035156 45.8125 C 36.019531 45.832031 36.003906 45.851562 35.988281 45.871094 C 35.964844 45.847656 35.941406 45.824219 35.917969 45.800781 Z M 36.988281 44.65625 C 36.992188 44.671875 36.992188 44.6875 36.996094 44.703125 C 36.992188 44.710938 36.984375 44.714844 36.980469 44.71875 Z M 37.664062 42.722656 L 37.621094 42.722656 C 37.636719 42.703125 37.652344 42.683594 37.667969 42.664062 C 37.664062 42.683594 37.664062 42.703125 37.664062 42.722656 Z M 37.65625 42.875 C 37.65625 42.886719 37.65625 42.894531 37.65625 42.90625 C 37.652344 42.894531 37.65625 42.886719 37.65625 42.875 Z M 38.03125 43.382812 L 38.09375 43.597656 C 38.066406 43.628906 38.039062 43.65625 38.011719 43.6875 Z M 38.117188 42.132812 L 38.117188 42.097656 C 38.140625 42.070312 38.160156 42.039062 38.183594 42.011719 C 38.179688 42.109375 38.171875 42.210938 38.167969 42.308594 C 38.148438 42.25 38.132812 42.191406 38.117188 42.132812 Z M 39.171875 42.472656 C 39.160156 42.480469 39.152344 42.488281 39.144531 42.496094 C 39.140625 42.421875 39.136719 42.347656 39.132812 42.273438 C 39.148438 42.332031 39.167969 42.394531 39.1875 42.457031 C 39.179688 42.460938 39.175781 42.46875 39.171875 42.472656 Z M 39.351562 40.792969 C 39.332031 40.710938 39.308594 40.621094 39.273438 40.535156 C 39.273438 40.535156 39.273438 40.53125 39.273438 40.53125 L 39.269531 40.53125 C 39.269531 40.527344 39.269531 40.527344 39.265625 40.523438 C 39.292969 40.488281 39.324219 40.453125 39.351562 40.417969 C 39.390625 40.539062 39.355469 40.664062 39.351562 40.792969 Z M 39.730469 39.929688 C 39.730469 39.917969 39.726562 39.90625 39.726562 39.898438 C 39.757812 39.851562 39.792969 39.804688 39.824219 39.757812 C 39.847656 39.820312 39.84375 39.886719 39.851562 39.953125 L 39.738281 39.964844 C 39.734375 39.953125 39.734375 39.941406 39.730469 39.929688 Z M 40.222656 39.257812 C 40.246094 39.230469 40.269531 39.199219 40.292969 39.171875 C 40.34375 39.53125 40.398438 39.882812 40.457031 40.234375 C 40.3125 39.929688 40.222656 39.601562 40.222656 39.257812 Z M 37.1875 43.398438 C 37.183594 43.445312 37.175781 43.492188 37.171875 43.539062 C 37.164062 43.511719 37.160156 43.484375 37.15625 43.457031 C 37.164062 43.4375 37.175781 43.417969 37.1875 43.398438 Z M 36.1875 45.15625 C 36.195312 45.144531 36.199219 45.132812 36.207031 45.117188 C 36.203125 45.203125 36.195312 45.285156 36.191406 45.367188 C 36.171875 45.332031 36.148438 45.296875 36.125 45.265625 C 36.140625 45.246094 36.175781 45.179688 36.1875 45.15625 Z M 33.410156 43.558594 C 33.449219 43.53125 33.492188 43.503906 33.53125 43.476562 C 33.546875 43.550781 33.5625 43.628906 33.574219 43.703125 Z M 37.5 44.242188 C 37.503906 44.136719 37.507812 44.03125 37.515625 43.925781 C 37.53125 43.992188 37.542969 44.097656 37.59375 44.144531 C 37.5625 44.179688 37.535156 44.210938 37.5 44.242188 Z M 38.539062 43.09375 C 38.542969 43.042969 38.5625 42.617188 38.566406 42.578125 C 38.601562 42.699219 38.644531 42.816406 38.691406 42.933594 C 38.636719 42.984375 38.589844 43.039062 38.539062 43.09375 Z M 39.742188 41.878906 C 39.746094 41.800781 39.75 41.726562 39.757812 41.652344 C 39.777344 41.699219 39.800781 41.746094 39.824219 41.792969 C 39.796875 41.820312 39.769531 41.847656 39.742188 41.878906 Z M 40.398438 41.332031 C 40.386719 41.226562 40.378906 41.121094 40.371094 41.019531 C 40.414062 41.089844 40.464844 41.15625 40.515625 41.222656 C 40.476562 41.261719 40.4375 41.296875 40.398438 41.332031 Z M 41.421875 40.226562 C 41.414062 40.109375 41.402344 39.988281 41.390625 39.871094 C 41.453125 39.949219 41.523438 40.027344 41.597656 40.101562 C 41.519531 40.121094 41.460938 40.160156 41.421875 40.226562 Z M 41.421875 40.226562 " fill-opacity="1" fill-rule="nonzero"/><g clip-path="url(#47bab5fb45)"><path fill="#0ea5e9" d="M 89.1875 39.09375 C 88.675781 37.890625 87.949219 36.808594 87.019531 35.878906 C 86.089844 34.949219 85.003906 34.21875 83.800781 33.707031 C 82.550781 33.179688 81.226562 32.910156 79.859375 32.910156 C 78.222656 32.910156 76.601562 33.308594 75.160156 34.0625 C 74.90625 34.199219 74.808594 34.511719 74.941406 34.765625 C 75.078125 35.019531 75.390625 35.117188 75.644531 34.984375 C 76.933594 34.308594 78.390625 33.949219 79.859375 33.949219 C 84.867188 33.949219 88.945312 38.027344 88.945312 43.035156 C 88.945312 48.046875 84.867188 52.121094 79.859375 52.121094 C 76.558594 52.121094 73.515625 50.328125 71.910156 47.445312 C 71.769531 47.191406 71.453125 47.101562 71.203125 47.242188 C 70.953125 47.382812 70.863281 47.699219 71.003906 47.949219 C 71.863281 49.5 73.125 50.804688 74.648438 51.71875 C 76.21875 52.664062 78.019531 53.160156 79.859375 53.160156 C 81.226562 53.160156 82.550781 52.894531 83.800781 52.367188 C 85.003906 51.855469 86.089844 51.125 87.019531 50.195312 C 87.949219 49.265625 88.675781 48.183594 89.1875 46.976562 C 89.714844 45.730469 89.984375 44.402344 89.984375 43.035156 C 89.984375 41.671875 89.714844 40.34375 89.1875 39.09375 " fill-opacity="1" fill-rule="nonzero"/></g><path fill="#0ea5e9" d="M 79.859375 49.8125 C 78.046875 49.8125 76.347656 49.109375 75.066406 47.828125 C 74.863281 47.625 74.535156 47.625 74.332031 47.828125 C 74.128906 48.03125 74.128906 48.359375 74.332031 48.5625 C 75.808594 50.039062 77.769531 50.851562 79.859375 50.851562 C 81.945312 50.851562 83.910156 50.039062 85.386719 48.5625 C 86.859375 47.085938 87.675781 45.125 87.675781 43.035156 C 87.675781 40.949219 86.859375 38.984375 85.386719 37.507812 C 83.910156 36.035156 81.945312 35.21875 79.859375 35.21875 C 79.570312 35.21875 79.339844 35.453125 79.339844 35.738281 C 79.339844 36.027344 79.570312 36.257812 79.859375 36.257812 C 81.667969 36.257812 83.371094 36.964844 84.648438 38.246094 C 85.929688 39.523438 86.636719 41.226562 86.636719 43.035156 C 86.636719 44.847656 85.929688 46.546875 84.648438 47.828125 C 83.371094 49.109375 81.667969 49.8125 79.859375 49.8125 " fill-opacity="1" fill-rule="nonzero"/><path fill="#0ea5e9" d="M 67.199219 37.042969 L 74.8125 37.042969 C 75.101562 37.042969 75.332031 36.8125 75.332031 36.523438 C 75.332031 36.238281 75.101562 36.003906 74.8125 36.003906 L 67.199219 36.003906 C 66.914062 36.003906 66.679688 36.238281 66.679688 36.523438 C 66.679688 36.8125 66.914062 37.042969 67.199219 37.042969 " fill-opacity="1" fill-rule="nonzero"/><path fill="#0ea5e9" d="M 64.402344 40.617188 L 72.015625 40.617188 C 72.300781 40.617188 72.535156 40.386719 72.535156 40.097656 C 72.535156 39.8125 72.300781 39.578125 72.015625 39.578125 L 64.402344 39.578125 C 64.117188 39.578125 63.882812 39.8125 63.882812 40.097656 C 63.882812 40.386719 64.117188 40.617188 64.402344 40.617188 " fill-opacity="1" fill-rule="nonzero"/><g clip-path="url(#5c4e5dfe40)"><path fill="#0ea5e9" d="M 69.21875 43.152344 L 61.605469 43.152344 C 61.320312 43.152344 61.085938 43.382812 61.085938 43.671875 C 61.085938 43.957031 61.320312 44.191406 61.605469 44.191406 L 69.21875 44.191406 C 69.503906 44.191406 69.738281 43.957031 69.738281 43.671875 C 69.738281 43.382812 69.503906 43.152344 69.21875 43.152344 " fill-opacity="1" fill-rule="nonzero"/></g><path fill="#0ea5e9" d="M 75.226562 46.609375 C 75.328125 46.753906 75.492188 46.835938 75.65625 46.835938 C 75.757812 46.835938 75.859375 46.804688 75.949219 46.746094 L 80.753906 43.464844 C 80.894531 43.367188 80.980469 43.207031 80.980469 43.035156 L 80.980469 38.488281 C 80.980469 38.199219 80.746094 37.96875 80.460938 37.96875 C 80.171875 37.96875 79.941406 38.199219 79.941406 38.488281 L 79.941406 42.761719 L 75.363281 45.886719 C 75.125 46.046875 75.066406 46.371094 75.226562 46.609375 " fill-opacity="1" fill-rule="nonzero"/><g clip-path="url(#948254a733)"><path fill="#60a5fa" d="M 154.375 78.636719 L 77.46875 79.480469 L 155.878906 79.6875 Z M 148.355469 76.824219 L 71.449219 77.664062 L 149.859375 77.875 Z M 162.910156 81.175781 L 86.007812 82.011719 L 164.417969 82.222656 Z M 169.488281 72.078125 L 92.582031 72.917969 L 170.992188 73.128906 Z M 153.816406 74.640625 L 76.910156 75.480469 L 155.320312 75.691406 Z M 153.816406 74.640625 " fill-opacity="1" fill-rule="evenodd"/></g></svg>