<svg xmlns="http://www.w3.org/2000/svg" xmlns:xlink="http://www.w3.org/1999/xlink" width="40" zoomAndPan="magnify" viewBox="0 0 30 30.000001" height="40" preserveAspectRatio="xMidYMid meet" version="1.0"><defs><clipPath id="899ca372c7"><path d="M 3.789062 3.34375 L 26.289062 3.34375 L 26.289062 25.84375 L 3.789062 25.84375 Z M 3.789062 3.34375 " clip-rule="nonzero"/></clipPath></defs><g clip-path="url(#899ca372c7)"><path fill="#ffffff" d="M 26.289062 14.636719 C 26.289062 8.398438 21.253906 3.34375 15.039062 3.34375 C 8.824219 3.34375 3.789062 8.398438 3.789062 14.636719 C 3.789062 19.933594 7.417969 24.375 12.320312 25.597656 L 12.320312 18.085938 L 10 18.085938 L 10 14.636719 L 12.320312 14.636719 L 12.320312 13.148438 C 12.320312 9.308594 14.054688 7.523438 17.8125 7.523438 C 18.527344 7.523438 19.757812 7.664062 20.257812 7.804688 L 20.257812 10.933594 C 19.992188 10.90625 19.53125 10.890625 18.960938 10.890625 C 17.113281 10.890625 16.402344 11.59375 16.402344 13.414062 L 16.402344 14.636719 L 20.078125 14.636719 L 19.445312 18.085938 L 16.402344 18.085938 L 16.402344 25.84375 C 21.972656 25.167969 26.289062 20.410156 26.289062 14.636719 Z M 26.289062 14.636719 " fill-opacity="1" fill-rule="nonzero"/></g></svg>