<svg xmlns="http://www.w3.org/2000/svg" xmlns:xlink="http://www.w3.org/1999/xlink" width="40" zoomAndPan="magnify" viewBox="0 0 30 30.000001" height="40" preserveAspectRatio="xMidYMid meet" version="1.0"><defs><clipPath id="1aec7ef344"><path d="M 4.003906 3.519531 L 25.777344 3.519531 L 25.777344 25.292969 L 4.003906 25.292969 Z M 4.003906 3.519531 " clip-rule="nonzero"/></clipPath></defs><g clip-path="url(#1aec7ef344)"><path fill="#000000" d="M 14.890625 3.519531 C 8.878906 3.519531 4.003906 8.394531 4.003906 14.40625 C 4.003906 20.421875 8.878906 25.292969 14.890625 25.292969 C 20.902344 25.292969 25.777344 20.421875 25.777344 14.40625 C 25.777344 8.394531 20.902344 3.519531 14.890625 3.519531 Z M 14.890625 24.46875 C 9.332031 24.46875 4.828125 19.964844 4.828125 14.40625 C 4.828125 8.851562 9.332031 4.34375 14.890625 4.34375 C 20.449219 4.34375 24.953125 8.851562 24.953125 14.40625 C 24.953125 19.964844 20.449219 24.46875 14.890625 24.46875 Z M 14.890625 24.46875 " fill-opacity="1" fill-rule="nonzero"/></g><path fill="#000000" d="M 13.613281 19.742188 C 13.339844 19.769531 13.121094 19.800781 12.902344 19.808594 C 11.660156 19.871094 10.742188 19.378906 10.183594 18.238281 C 10.007812 17.875 9.777344 17.53125 9.542969 17.199219 C 9.398438 17.003906 9.199219 16.84375 9.015625 16.679688 L 9.015625 16.675781 C 8.898438 16.578125 8.949219 16.390625 9.101562 16.363281 C 9.273438 16.335938 9.4375 16.367188 9.597656 16.40625 C 10.097656 16.535156 10.417969 16.890625 10.675781 17.3125 C 11.25 18.269531 12.246094 18.667969 13.324219 18.382812 C 13.503906 18.335938 13.585938 18.257812 13.625 18.058594 C 13.671875 17.824219 13.734375 17.597656 13.800781 17.363281 C 13.84375 17.21875 13.828125 17.082031 13.75 16.949219 C 13.675781 16.820312 13.5625 16.738281 13.417969 16.703125 L 13.410156 16.699219 C 12.292969 16.433594 11.328125 15.9375 10.707031 14.917969 C 10.375 14.371094 10.210938 13.769531 10.21875 13.144531 C 10.230469 12.433594 10.292969 11.722656 10.375 11.015625 C 10.433594 10.519531 10.664062 10.078125 11.019531 9.722656 C 11.144531 9.597656 11.15625 9.492188 11.09375 9.332031 C 10.847656 8.667969 10.890625 8.007812 11.109375 7.34375 C 11.171875 7.160156 11.257812 7.132812 11.4375 7.1875 C 11.992188 7.363281 12.402344 7.722656 12.765625 8.152344 L 12.769531 8.15625 C 12.976562 8.40625 13.230469 8.480469 13.539062 8.378906 C 14.683594 8.003906 16.425781 7.996094 17.507812 8.371094 C 17.816406 8.476562 18.074219 8.402344 18.285156 8.152344 L 18.289062 8.148438 C 18.652344 7.71875 19.066406 7.359375 19.617188 7.1875 C 19.804688 7.128906 19.882812 7.171875 19.941406 7.351562 C 20.15625 8.015625 20.191406 8.671875 19.960938 9.339844 C 19.925781 9.433594 19.929688 9.597656 19.988281 9.65625 C 20.480469 10.160156 20.699219 10.785156 20.753906 11.460938 C 20.808594 12.113281 20.863281 12.777344 20.804688 13.425781 C 20.648438 15.113281 19.621094 16.09375 18.0625 16.585938 C 17.929688 16.625 17.792969 16.660156 17.652344 16.695312 C 17.5 16.730469 17.386719 16.816406 17.3125 16.953125 C 17.238281 17.089844 17.226562 17.234375 17.277344 17.382812 C 17.488281 17.996094 17.457031 18.65625 17.453125 19.308594 C 17.453125 19.457031 17.453125 19.609375 17.453125 19.757812 C 17.449219 20.011719 17.402344 20.253906 17.304688 20.484375 C 17.210938 20.714844 17.070312 20.921875 16.894531 21.097656 C 16.714844 21.277344 16.511719 21.414062 16.277344 21.507812 C 16.046875 21.605469 15.804688 21.652344 15.554688 21.652344 L 15.511719 21.652344 C 15.257812 21.652344 15.015625 21.605469 14.785156 21.507812 C 14.550781 21.410156 14.347656 21.273438 14.167969 21.097656 C 13.992188 20.917969 13.855469 20.714844 13.757812 20.480469 C 13.660156 20.25 13.613281 20.007812 13.613281 19.753906 Z M 13.613281 19.742188 " fill-opacity="1" fill-rule="nonzero"/></svg>