<svg xmlns="http://www.w3.org/2000/svg" xmlns:xlink="http://www.w3.org/1999/xlink" width="40" zoomAndPan="magnify" viewBox="0 0 30 30.000001" height="40" preserveAspectRatio="xMidYMid meet" version="1.0"><defs><clipPath id="16576e145d"><path d="M 3.386719 2.902344 L 26.613281 2.902344 L 26.613281 26.128906 L 3.386719 26.128906 Z M 3.386719 2.902344 " clip-rule="nonzero"/></clipPath></defs><g clip-path="url(#16576e145d)"><path fill="#ffffff" d="M 6.019531 24.304688 L 6.019531 15.785156 L 15.003906 6.332031 L 23.988281 15.785156 L 23.988281 24.304688 L 26.042969 24.304688 L 26.042969 26.097656 L 3.960938 26.097656 L 3.960938 24.304688 Z M 25.589844 16.144531 L 15.003906 5.003906 L 4.417969 16.144531 L 3.386719 15.167969 L 15.003906 2.945312 L 26.617188 15.167969 Z M 22.273438 17.59375 L 19.605469 17.59375 L 19.605469 20.261719 L 22.273438 20.261719 Z M 15.003906 16.558594 C 16.402344 16.558594 17.535156 17.691406 17.535156 19.089844 C 17.535156 20.488281 16.402344 21.625 15.003906 21.625 C 13.601562 21.625 12.46875 20.488281 12.46875 19.089844 C 12.46875 17.691406 13.601562 16.558594 15.003906 16.558594 Z M 7.730469 17.59375 L 10.398438 17.59375 L 10.398438 20.261719 L 7.730469 20.261719 Z M 7.730469 17.59375 " fill-opacity="1" fill-rule="evenodd"/></g></svg>