<svg xmlns="http://www.w3.org/2000/svg" xmlns:xlink="http://www.w3.org/1999/xlink" width="40" zoomAndPan="magnify" viewBox="0 0 30 30.000001" height="40" preserveAspectRatio="xMidYMid meet" version="1.0"><defs><clipPath id="cc450e6a87"><path d="M 4.910156 4.425781 L 25.234375 4.425781 L 25.234375 24.75 L 4.910156 24.75 Z M 4.910156 4.425781 " clip-rule="nonzero"/></clipPath></defs><g clip-path="url(#cc450e6a87)"><path fill="#ffffff" d="M 10.820312 4.496094 C 9.746094 4.546875 9.011719 4.71875 8.371094 4.96875 C 7.710938 5.230469 7.148438 5.574219 6.589844 6.136719 C 6.027344 6.699219 5.683594 7.261719 5.429688 7.925781 C 5.179688 8.566406 5.011719 9.300781 4.964844 10.375 C 4.917969 11.449219 4.90625 11.792969 4.914062 14.53125 C 4.917969 17.269531 4.929688 17.613281 4.980469 18.6875 C 5.03125 19.761719 5.203125 20.492188 5.453125 21.132812 C 5.710938 21.796875 6.058594 22.359375 6.621094 22.917969 C 7.179688 23.476562 7.746094 23.820312 8.410156 24.078125 C 9.050781 24.324219 9.785156 24.496094 10.855469 24.539062 C 11.933594 24.589844 12.273438 24.597656 15.011719 24.59375 C 17.75 24.589844 18.09375 24.574219 19.171875 24.523438 C 20.242188 24.472656 20.976562 24.300781 21.617188 24.050781 C 22.28125 23.792969 22.84375 23.445312 23.402344 22.886719 C 23.960938 22.324219 24.304688 21.761719 24.558594 21.097656 C 24.808594 20.457031 24.976562 19.722656 25.023438 18.648438 C 25.070312 17.574219 25.082031 17.230469 25.078125 14.492188 C 25.070312 11.753906 25.058594 11.410156 25.007812 10.335938 C 24.957031 9.261719 24.785156 8.53125 24.535156 7.886719 C 24.277344 7.226562 23.929688 6.664062 23.371094 6.105469 C 22.808594 5.546875 22.246094 5.199219 21.582031 4.945312 C 20.9375 4.699219 20.207031 4.527344 19.132812 4.480469 C 18.058594 4.433594 17.714844 4.421875 14.976562 4.429688 C 12.238281 4.433594 11.894531 4.445312 10.820312 4.496094 M 10.9375 22.726562 C 9.953125 22.683594 9.417969 22.519531 9.0625 22.382812 C 8.59375 22.199219 8.257812 21.980469 7.902344 21.628906 C 7.546875 21.277344 7.328125 20.941406 7.144531 20.472656 C 7.007812 20.117188 6.839844 19.582031 6.792969 18.601562 C 6.746094 17.539062 6.734375 17.21875 6.726562 14.527344 C 6.722656 11.835938 6.734375 11.515625 6.78125 10.453125 C 6.820312 9.46875 6.984375 8.9375 7.121094 8.582031 C 7.304688 8.109375 7.523438 7.773438 7.875 7.417969 C 8.226562 7.066406 8.5625 6.847656 9.03125 6.664062 C 9.386719 6.523438 9.921875 6.359375 10.902344 6.3125 C 11.96875 6.261719 12.285156 6.25 14.976562 6.246094 C 17.671875 6.238281 17.988281 6.25 19.054688 6.296875 C 20.035156 6.339844 20.570312 6.503906 20.925781 6.640625 C 21.394531 6.820312 21.734375 7.039062 22.085938 7.390625 C 22.441406 7.742188 22.660156 8.078125 22.84375 8.550781 C 22.980469 8.90625 23.148438 9.4375 23.195312 10.421875 C 23.242188 11.484375 23.253906 11.804688 23.261719 14.492188 C 23.265625 17.1875 23.253906 17.503906 23.207031 18.566406 C 23.164062 19.550781 23.003906 20.085938 22.867188 20.441406 C 22.683594 20.910156 22.464844 21.246094 22.113281 21.601562 C 21.761719 21.953125 21.425781 22.171875 20.953125 22.359375 C 20.601562 22.496094 20.066406 22.660156 19.085938 22.707031 C 18.019531 22.757812 17.703125 22.769531 15.007812 22.773438 C 12.316406 22.78125 12 22.769531 10.933594 22.722656 M 19.15625 9.121094 C 19.15625 9.789062 19.699219 10.328125 20.367188 10.328125 C 21.035156 10.328125 21.578125 9.785156 21.574219 9.117188 C 21.574219 8.449219 21.03125 7.90625 20.363281 7.910156 C 19.695312 7.910156 19.15625 8.453125 19.15625 9.121094 M 9.816406 14.519531 C 9.824219 17.378906 12.144531 19.691406 15.003906 19.6875 C 17.863281 19.683594 20.175781 17.359375 20.171875 14.5 C 20.164062 11.640625 17.84375 9.328125 14.984375 9.332031 C 12.125 9.339844 9.8125 11.660156 9.816406 14.519531 M 11.632812 14.515625 C 11.628906 12.660156 13.132812 11.152344 14.988281 11.148438 C 16.84375 11.144531 18.351562 12.648438 18.355469 14.503906 C 18.359375 16.359375 16.855469 17.867188 15 17.871094 C 13.144531 17.875 11.636719 16.371094 11.632812 14.515625 " fill-opacity="1" fill-rule="nonzero"/></g></svg>