<svg xmlns="http://www.w3.org/2000/svg" xmlns:xlink="http://www.w3.org/1999/xlink" width="40" zoomAndPan="magnify" viewBox="0 0 30 30.000001" height="40" preserveAspectRatio="xMidYMid meet" version="1.0"><defs><clipPath id="f6de1021b6"><path d="M 3.742188 6.339844 L 26.242188 6.339844 L 26.242188 16 L 3.742188 16 Z M 3.742188 6.339844 " clip-rule="nonzero"/></clipPath><clipPath id="c2e86e8cca"><path d="M 3.742188 10 L 26.242188 10 L 26.242188 23.035156 L 3.742188 23.035156 Z M 3.742188 10 " clip-rule="nonzero"/></clipPath></defs><g clip-path="url(#f6de1021b6)"><path fill="#000000" d="M 14.992188 15.550781 L 26.167969 8.523438 C 26.105469 8.214844 25.996094 7.925781 25.835938 7.65625 C 25.675781 7.386719 25.476562 7.15625 25.238281 6.957031 C 25 6.757812 24.734375 6.605469 24.445312 6.5 C 24.15625 6.394531 23.859375 6.339844 23.550781 6.339844 L 6.4375 6.339844 C 6.128906 6.339844 5.832031 6.394531 5.539062 6.5 C 5.25 6.605469 4.988281 6.757812 4.75 6.957031 C 4.511719 7.15625 4.3125 7.386719 4.152344 7.65625 C 3.992188 7.925781 3.882812 8.214844 3.820312 8.523438 Z M 14.992188 15.550781 " fill-opacity="1" fill-rule="nonzero"/></g><g clip-path="url(#c2e86e8cca)"><path fill="#000000" d="M 15.527344 17.664062 C 15.171875 17.886719 14.816406 17.886719 14.457031 17.664062 L 3.765625 10.933594 L 3.765625 20.296875 C 3.765625 20.660156 3.832031 21.007812 3.964844 21.34375 C 4.101562 21.679688 4.296875 21.976562 4.546875 22.230469 C 4.796875 22.488281 5.085938 22.6875 5.414062 22.824219 C 5.742188 22.964844 6.082031 23.035156 6.4375 23.035156 L 23.550781 23.035156 C 23.90625 23.035156 24.246094 22.964844 24.574219 22.828125 C 24.898438 22.6875 25.1875 22.488281 25.441406 22.234375 C 25.691406 21.976562 25.882812 21.683594 26.019531 21.347656 C 26.15625 21.015625 26.222656 20.664062 26.222656 20.304688 L 26.222656 10.933594 Z M 15.527344 17.664062 " fill-opacity="1" fill-rule="nonzero"/></g></svg>