<svg xmlns="http://www.w3.org/2000/svg" xmlns:xlink="http://www.w3.org/1999/xlink" width="40" zoomAndPan="magnify" viewBox="0 0 30 30.000001" height="40" preserveAspectRatio="xMidYMid meet" version="1.0"><defs><clipPath id="03f36a2cb5"><path d="M 3.742188 6.339844 L 26.242188 6.339844 L 26.242188 16 L 3.742188 16 Z M 3.742188 6.339844 " clip-rule="nonzero"/></clipPath><clipPath id="6f1e50ca97"><path d="M 3.742188 10 L 26.242188 10 L 26.242188 23 L 3.742188 23 Z M 3.742188 10 " clip-rule="nonzero"/></clipPath></defs><g clip-path="url(#03f36a2cb5)"><path fill="#ffffff" d="M 15 15.355469 L 26.179688 8.476562 C 26.117188 8.175781 26.007812 7.890625 25.847656 7.628906 C 25.6875 7.367188 25.488281 7.136719 25.25 6.941406 C 25.011719 6.75 24.746094 6.601562 24.457031 6.496094 C 24.167969 6.394531 23.867188 6.339844 23.558594 6.339844 L 6.4375 6.339844 C 6.128906 6.339844 5.832031 6.394531 5.542969 6.496094 C 5.253906 6.601562 4.988281 6.75 4.75 6.941406 C 4.511719 7.136719 4.3125 7.367188 4.152344 7.628906 C 3.992188 7.890625 3.882812 8.175781 3.820312 8.476562 Z M 15 15.355469 " fill-opacity="1" fill-rule="nonzero"/></g><g clip-path="url(#6f1e50ca97)"><path fill="#ffffff" d="M 15.535156 17.425781 C 15.175781 17.644531 14.820312 17.644531 14.464844 17.425781 L 3.765625 10.835938 L 3.765625 20.003906 C 3.765625 20.359375 3.832031 20.699219 3.964844 21.027344 C 4.101562 21.355469 4.296875 21.644531 4.546875 21.898438 C 4.796875 22.148438 5.085938 22.34375 5.414062 22.480469 C 5.742188 22.613281 6.082031 22.683594 6.4375 22.683594 L 23.558594 22.683594 C 23.914062 22.683594 24.257812 22.613281 24.582031 22.480469 C 24.910156 22.34375 25.199219 22.148438 25.449219 21.898438 C 25.703125 21.648438 25.894531 21.359375 26.03125 21.03125 C 26.167969 20.703125 26.234375 20.363281 26.234375 20.007812 L 26.234375 10.835938 Z M 15.535156 17.425781 " fill-opacity="1" fill-rule="nonzero"/></g></svg>