<svg xmlns="http://www.w3.org/2000/svg" xmlns:xlink="http://www.w3.org/1999/xlink" width="40" zoomAndPan="magnify" viewBox="0 0 30 30.000001" height="40" preserveAspectRatio="xMidYMid meet" version="1.0"><defs><clipPath id="0734df4129"><path d="M 2.335938 1.851562 L 27 1.851562 L 27 27.253906 L 2.335938 27.253906 Z M 2.335938 1.851562 " clip-rule="nonzero"/></clipPath></defs><g clip-path="url(#0734df4129)"><path fill="#000000" d="M 20.011719 21.753906 C 20.390625 22.371094 20.503906 23.097656 20.332031 23.804688 C 20.160156 24.507812 19.722656 25.101562 19.105469 25.480469 L 16.859375 26.847656 C 16.429688 27.109375 15.945312 27.242188 15.457031 27.242188 C 15.019531 27.242188 14.578125 27.132812 14.167969 26.921875 C 9.453125 24.476562 6.761719 20.84375 5.578125 18.898438 C 2.949219 14.585938 2.398438 10.332031 2.398438 7.527344 C 2.398438 6.582031 2.882812 5.71875 3.699219 5.222656 L 5.945312 3.855469 C 6.566406 3.480469 7.292969 3.367188 7.996094 3.539062 C 8.699219 3.707031 9.296875 4.144531 9.671875 4.761719 L 11.082031 7.078125 C 11.859375 8.355469 11.453125 10.027344 10.175781 10.804688 L 9.011719 11.515625 C 8.664062 11.726562 8.492188 12.152344 8.609375 12.527344 C 8.996094 13.769531 9.535156 14.964844 10.210938 16.078125 C 10.886719 17.1875 11.699219 18.210938 12.625 19.125 C 12.910156 19.40625 13.359375 19.453125 13.714844 19.238281 L 14.875 18.527344 C 16.152344 17.75 17.824219 18.15625 18.605469 19.433594 L 20.015625 21.753906 Z M 14.664062 10.886719 C 16.636719 11.1875 17.992188 13.039062 17.6875 15.011719 C 17.609375 15.503906 17.949219 15.964844 18.441406 16.042969 C 18.488281 16.050781 18.535156 16.054688 18.582031 16.054688 C 19.019531 16.054688 19.40625 15.734375 19.472656 15.285156 C 19.929688 12.332031 17.898438 9.554688 14.941406 9.097656 C 14.449219 9.023438 13.984375 9.359375 13.910156 9.851562 C 13.832031 10.347656 14.171875 10.808594 14.664062 10.886719 Z M 15.492188 5.523438 C 15.003906 5.449219 14.535156 5.785156 14.460938 6.28125 C 14.382812 6.773438 14.722656 7.234375 15.214844 7.3125 C 17.125 7.605469 18.804688 8.628906 19.945312 10.1875 C 21.089844 11.746094 21.554688 13.652344 21.261719 15.5625 C 21.183594 16.054688 21.523438 16.519531 22.015625 16.59375 C 22.0625 16.601562 22.109375 16.605469 22.15625 16.605469 C 22.59375 16.605469 22.980469 16.285156 23.046875 15.839844 C 23.417969 13.453125 22.832031 11.066406 21.40625 9.117188 C 19.980469 7.167969 17.878906 5.894531 15.492188 5.527344 Z M 16.042969 1.949219 C 15.550781 1.878906 15.085938 2.214844 15.011719 2.707031 C 14.9375 3.199219 15.273438 3.660156 15.769531 3.738281 C 21.679688 4.652344 25.746094 10.203125 24.835938 16.113281 C 24.757812 16.605469 25.097656 17.070312 25.589844 17.144531 C 25.636719 17.152344 25.683594 17.15625 25.730469 17.15625 C 26.167969 17.15625 26.550781 16.835938 26.621094 16.390625 C 27.6875 9.492188 22.941406 3.015625 16.042969 1.953125 Z M 16.042969 1.949219 " fill-opacity="1" fill-rule="nonzero"/></g></svg>