<svg xmlns="http://www.w3.org/2000/svg" xmlns:xlink="http://www.w3.org/1999/xlink" width="40" zoomAndPan="magnify" viewBox="0 0 30 30.000001" height="40" preserveAspectRatio="xMidYMid meet" version="1.0"><defs><clipPath id="df9a9b89c2"><path d="M 3.785156 3.300781 L 26.285156 3.300781 L 26.285156 25.800781 L 3.785156 25.800781 Z M 3.785156 3.300781 " clip-rule="nonzero"/></clipPath></defs><g clip-path="url(#df9a9b89c2)"><path fill="#ffffff" d="M 23.957031 13.726562 L 26.167969 13.726562 C 26.089844 12.496094 25.8125 11.3125 25.339844 10.175781 C 24.867188 9.039062 24.226562 8.007812 23.414062 7.082031 L 21.851562 8.644531 C 21.707031 8.785156 21.527344 8.855469 21.324219 8.855469 C 21.117188 8.855469 20.945312 8.78125 20.796875 8.636719 C 20.652344 8.492188 20.578125 8.316406 20.578125 8.109375 C 20.578125 7.90625 20.648438 7.730469 20.792969 7.582031 L 22.351562 6.019531 C 21.429688 5.207031 20.394531 4.566406 19.257812 4.09375 C 18.121094 3.621094 16.9375 3.347656 15.707031 3.265625 L 15.707031 5.476562 C 15.707031 5.683594 15.636719 5.859375 15.488281 6.007812 C 15.34375 6.152344 15.167969 6.226562 14.960938 6.226562 C 14.753906 6.226562 14.574219 6.152344 14.429688 6.007812 C 14.28125 5.859375 14.210938 5.683594 14.210938 5.476562 L 14.210938 3.265625 C 12.980469 3.347656 11.796875 3.621094 10.660156 4.09375 C 9.523438 4.566406 8.492188 5.207031 7.566406 6.019531 L 9.125 7.582031 C 9.277344 7.726562 9.351562 7.90625 9.351562 8.113281 C 9.355469 8.324219 9.28125 8.5 9.132812 8.648438 C 8.984375 8.796875 8.808594 8.871094 8.597656 8.867188 C 8.390625 8.867188 8.210938 8.792969 8.066406 8.644531 L 6.503906 7.082031 C 5.691406 8.007812 5.050781 9.039062 4.578125 10.175781 C 4.105469 11.3125 3.832031 12.496094 3.75 13.726562 L 5.960938 13.726562 C 6.167969 13.726562 6.34375 13.796875 6.492188 13.945312 C 6.636719 14.089844 6.710938 14.269531 6.710938 14.476562 C 6.710938 14.683594 6.636719 14.859375 6.492188 15.003906 C 6.34375 15.152344 6.167969 15.226562 5.960938 15.226562 L 3.75 15.226562 C 3.832031 16.453125 4.105469 17.636719 4.578125 18.773438 C 5.050781 19.914062 5.691406 20.945312 6.503906 21.871094 L 8.066406 20.308594 C 8.214844 20.164062 8.390625 20.09375 8.59375 20.09375 C 8.800781 20.097656 8.976562 20.167969 9.121094 20.316406 C 9.265625 20.460938 9.339844 20.632812 9.339844 20.839844 C 9.339844 21.046875 9.269531 21.222656 9.125 21.367188 L 7.566406 22.929688 C 8.492188 23.742188 9.523438 24.382812 10.660156 24.855469 C 11.796875 25.328125 12.980469 25.605469 14.210938 25.683594 L 14.210938 23.472656 C 14.210938 23.265625 14.28125 23.089844 14.429688 22.941406 C 14.574219 22.796875 14.753906 22.722656 14.960938 22.722656 C 15.167969 22.722656 15.34375 22.796875 15.488281 22.941406 C 15.636719 23.089844 15.707031 23.265625 15.707031 23.472656 L 15.707031 25.683594 C 16.9375 25.605469 18.121094 25.328125 19.257812 24.855469 C 20.394531 24.382812 21.429688 23.742188 22.351562 22.929688 L 20.792969 21.367188 C 20.648438 21.222656 20.578125 21.046875 20.578125 20.839844 C 20.578125 20.632812 20.652344 20.460938 20.796875 20.316406 C 20.945312 20.167969 21.117188 20.097656 21.324219 20.09375 C 21.527344 20.09375 21.707031 20.164062 21.851562 20.308594 L 23.414062 21.871094 C 24.226562 20.945312 24.867188 19.914062 25.339844 18.773438 C 25.8125 17.636719 26.089844 16.453125 26.167969 15.226562 L 23.957031 15.226562 C 23.75 15.226562 23.574219 15.152344 23.425781 15.003906 C 23.28125 14.859375 23.207031 14.683594 23.207031 14.476562 C 23.207031 14.269531 23.28125 14.089844 23.425781 13.945312 C 23.574219 13.796875 23.75 13.726562 23.957031 13.726562 Z M 18.488281 18.003906 C 18.339844 18.144531 18.164062 18.214844 17.957031 18.214844 C 17.753906 18.214844 17.578125 18.144531 17.429688 18.003906 L 14.429688 15.007812 C 14.285156 14.859375 14.210938 14.683594 14.210938 14.476562 L 14.210938 9.226562 C 14.210938 9.019531 14.28125 8.84375 14.429688 8.695312 C 14.574219 8.550781 14.753906 8.476562 14.960938 8.476562 C 15.167969 8.476562 15.34375 8.550781 15.488281 8.695312 C 15.636719 8.84375 15.707031 9.019531 15.707031 9.226562 L 15.707031 14.164062 L 18.488281 16.945312 C 18.636719 17.089844 18.707031 17.269531 18.707031 17.476562 C 18.707031 17.683594 18.636719 17.859375 18.488281 18.003906 Z M 18.488281 18.003906 " fill-opacity="1" fill-rule="nonzero"/></g></svg>