<svg xmlns="http://www.w3.org/2000/svg" xmlns:xlink="http://www.w3.org/1999/xlink" width="40" zoomAndPan="magnify" viewBox="0 0 30 30.000001" height="40" preserveAspectRatio="xMidYMid meet" version="1.0"><defs><clipPath id="6cb03bd559"><path d="M 3.785156 3.300781 L 26.285156 3.300781 L 26.285156 25.800781 L 3.785156 25.800781 Z M 3.785156 3.300781 " clip-rule="nonzero"/></clipPath></defs><g clip-path="url(#6cb03bd559)"><path fill="#000000" d="M 24.027344 13.761719 L 26.25 13.761719 C 26.167969 12.527344 25.890625 11.339844 25.417969 10.199219 C 24.941406 9.058594 24.296875 8.023438 23.484375 7.09375 L 21.917969 8.660156 C 21.769531 8.804688 21.59375 8.875 21.386719 8.875 C 21.179688 8.875 21.003906 8.800781 20.859375 8.65625 C 20.714844 8.507812 20.640625 8.332031 20.636719 8.128906 C 20.636719 7.921875 20.707031 7.746094 20.851562 7.597656 L 22.417969 6.03125 C 21.492188 5.214844 20.457031 4.570312 19.3125 4.097656 C 18.171875 3.625 16.984375 3.347656 15.75 3.265625 L 15.75 5.484375 C 15.75 5.691406 15.675781 5.871094 15.53125 6.015625 C 15.382812 6.164062 15.207031 6.238281 15 6.238281 C 14.789062 6.238281 14.613281 6.164062 14.464844 6.015625 C 14.320312 5.871094 14.246094 5.691406 14.246094 5.484375 L 14.246094 3.265625 C 13.011719 3.347656 11.824219 3.625 10.683594 4.097656 C 9.542969 4.570312 8.507812 5.214844 7.578125 6.03125 L 9.144531 7.597656 C 9.296875 7.742188 9.371094 7.921875 9.371094 8.132812 C 9.375 8.339844 9.300781 8.519531 9.152344 8.667969 C 9.003906 8.816406 8.824219 8.890625 8.617188 8.890625 C 8.40625 8.886719 8.226562 8.8125 8.082031 8.660156 L 6.515625 7.09375 C 5.699219 8.023438 5.054688 9.058594 4.582031 10.199219 C 4.109375 11.339844 3.832031 12.527344 3.75 13.761719 L 5.96875 13.761719 C 6.175781 13.761719 6.355469 13.835938 6.5 13.984375 C 6.648438 14.128906 6.722656 14.308594 6.722656 14.515625 C 6.722656 14.722656 6.648438 14.898438 6.5 15.046875 C 6.355469 15.195312 6.175781 15.265625 5.96875 15.265625 L 3.75 15.265625 C 3.832031 16.5 4.109375 17.6875 4.582031 18.828125 C 5.054688 19.972656 5.699219 21.007812 6.515625 21.933594 L 8.082031 20.367188 C 8.230469 20.222656 8.40625 20.152344 8.613281 20.15625 C 8.816406 20.15625 8.992188 20.230469 9.140625 20.375 C 9.285156 20.519531 9.359375 20.695312 9.359375 20.902344 C 9.359375 21.109375 9.289062 21.285156 9.144531 21.433594 L 7.578125 23 C 8.507812 23.816406 9.542969 24.460938 10.683594 24.933594 C 11.824219 25.40625 13.011719 25.683594 14.246094 25.765625 L 14.246094 23.542969 C 14.246094 23.335938 14.320312 23.160156 14.464844 23.011719 C 14.613281 22.867188 14.789062 22.792969 15 22.792969 C 15.207031 22.792969 15.382812 22.867188 15.53125 23.011719 C 15.675781 23.160156 15.75 23.335938 15.75 23.542969 L 15.75 25.765625 C 16.984375 25.683594 18.171875 25.40625 19.3125 24.933594 C 20.457031 24.460938 21.492188 23.816406 22.417969 23 L 20.851562 21.433594 C 20.707031 21.285156 20.636719 21.109375 20.636719 20.902344 C 20.640625 20.695312 20.714844 20.519531 20.859375 20.375 C 21.003906 20.230469 21.179688 20.15625 21.386719 20.15625 C 21.59375 20.152344 21.769531 20.222656 21.917969 20.367188 L 23.484375 21.933594 C 24.296875 21.007812 24.941406 19.972656 25.417969 18.828125 C 25.890625 17.6875 26.167969 16.5 26.25 15.265625 L 24.027344 15.265625 C 23.820312 15.265625 23.644531 15.195312 23.496094 15.046875 C 23.351562 14.898438 23.277344 14.722656 23.277344 14.515625 C 23.277344 14.308594 23.351562 14.128906 23.496094 13.984375 C 23.644531 13.835938 23.820312 13.761719 24.027344 13.761719 Z M 18.539062 18.058594 C 18.390625 18.199219 18.214844 18.269531 18.007812 18.269531 C 17.804688 18.269531 17.625 18.199219 17.476562 18.058594 L 14.46875 15.046875 C 14.320312 14.898438 14.246094 14.722656 14.246094 14.515625 L 14.246094 9.246094 C 14.246094 9.039062 14.320312 8.863281 14.464844 8.714844 C 14.613281 8.566406 14.789062 8.496094 15 8.496094 C 15.207031 8.496094 15.382812 8.566406 15.53125 8.714844 C 15.675781 8.863281 15.75 9.039062 15.75 9.246094 L 15.75 14.203125 L 18.539062 16.992188 C 18.6875 17.140625 18.761719 17.316406 18.761719 17.523438 C 18.761719 17.734375 18.6875 17.910156 18.539062 18.058594 Z M 18.539062 18.058594 " fill-opacity="1" fill-rule="nonzero"/></g></svg>