<svg xmlns="http://www.w3.org/2000/svg" xmlns:xlink="http://www.w3.org/1999/xlink" width="512" zoomAndPan="magnify" viewBox="0 0 384 383.999986" height="512" preserveAspectRatio="xMidYMid meet" version="1.0"><defs><clipPath id="e1e0fd34a1"><path d="M 19.199219 19.199219 L 364.949219 19.199219 L 364.949219 364 L 19.199219 364 Z M 19.199219 19.199219 " clip-rule="nonzero"/></clipPath><clipPath id="3ffefcc386"><path d="M 114 83 L 273 83 L 273 364.949219 L 114 364.949219 Z M 114 83 " clip-rule="nonzero"/></clipPath></defs><g clip-path="url(#e1e0fd34a1)"><path fill="#0866ff" d="M 364.996094 192.105469 C 364.996094 96.605469 287.589844 19.199219 192.105469 19.199219 C 96.621094 19.199219 19.199219 96.605469 19.199219 192.105469 C 19.199219 273.191406 75.019531 341.238281 150.332031 359.921875 L 150.332031 244.945312 L 114.667969 244.945312 L 114.667969 192.105469 L 150.332031 192.105469 L 150.332031 169.339844 C 150.332031 110.496094 176.960938 83.214844 234.734375 83.214844 C 245.691406 83.214844 264.59375 85.355469 272.320312 87.511719 L 272.320312 135.402344 C 268.238281 134.96875 261.148438 134.75 252.347656 134.75 C 223.996094 134.75 213.039062 145.488281 213.039062 173.40625 L 213.039062 192.089844 L 269.511719 192.089844 L 259.8125 244.929688 L 213.039062 244.929688 L 213.039062 363.722656 C 298.65625 353.390625 364.996094 280.484375 364.996094 192.089844 Z M 364.996094 192.105469 " fill-opacity="1" fill-rule="nonzero"/></g><g clip-path="url(#3ffefcc386)"><path fill="#ffffff" d="M 259.828125 244.929688 L 269.527344 192.089844 L 213.054688 192.089844 L 213.054688 173.40625 C 213.054688 145.488281 224.011719 134.75 252.363281 134.75 C 261.164062 134.75 268.253906 134.96875 272.335938 135.402344 L 272.335938 87.511719 C 264.609375 85.371094 245.707031 83.214844 234.75 83.214844 C 176.976562 83.214844 150.347656 110.496094 150.347656 169.339844 L 150.347656 192.105469 L 114.683594 192.105469 L 114.683594 244.945312 L 150.347656 244.945312 L 150.347656 359.921875 C 163.722656 363.242188 177.703125 365.011719 192.121094 365.011719 C 199.214844 365.011719 206.195312 364.578125 213.070312 363.738281 L 213.070312 244.945312 L 259.84375 244.945312 Z M 259.828125 244.929688 " fill-opacity="1" fill-rule="nonzero"/></g></svg>