<svg xmlns="http://www.w3.org/2000/svg" xmlns:xlink="http://www.w3.org/1999/xlink" width="512" zoomAndPan="magnify" viewBox="0 0 384 383.999986" height="512" preserveAspectRatio="xMidYMid meet" version="1.0"><defs><clipPath id="0a30ee7692"><path d="M 51 19.199219 L 189 19.199219 L 189 91 L 51 91 Z M 51 19.199219 " clip-rule="nonzero"/></clipPath><clipPath id="9645eb09c8"><path d="M 24.742188 243 L 79 243 L 79 322 L 24.742188 322 Z M 24.742188 243 " clip-rule="nonzero"/></clipPath><clipPath id="71befcf796"><path d="M 94 332 L 189 332 L 189 364.949219 L 94 364.949219 Z M 94 332 " clip-rule="nonzero"/></clipPath><clipPath id="26a26a9477"><path d="M 331 101 L 359.242188 101 L 359.242188 216 L 331 216 Z M 331 101 " clip-rule="nonzero"/></clipPath></defs><g clip-path="url(#0a30ee7692)"><path fill="#ffffff" d="M 56.253906 89.367188 C 56.910156 88.714844 56.910156 87.402344 56.253906 86.746094 C 87.730469 47.398438 133.636719 24.445312 183.476562 23.136719 C 184.128906 24.445312 184.785156 25.101562 186.097656 25.101562 C 187.410156 25.101562 188.722656 23.789062 188.722656 22.480469 C 188.722656 21.167969 187.410156 19.199219 186.097656 19.199219 C 184.785156 19.199219 184.128906 19.855469 183.476562 21.167969 C 171.015625 21.824219 158.554688 23.136719 146.75 26.414062 C 134.289062 29.691406 122.488281 34.28125 110.683594 40.183594 C 99.535156 45.429688 89.042969 51.988281 79.207031 59.859375 C 70.679688 67.726562 62.15625 76.253906 54.941406 85.433594 C 53.628906 84.777344 52.972656 85.433594 52.316406 86.089844 C 51.664062 87.402344 51.664062 88.714844 52.972656 89.367188 C 53.628906 90.679688 54.941406 90.023438 56.253906 89.367188 Z M 56.253906 89.367188 " fill-opacity="1" fill-rule="nonzero"/></g><g clip-path="url(#9645eb09c8)"><path fill="#ffffff" d="M 74.613281 316.925781 C 53.628906 297.90625 37.890625 274.300781 28.710938 247.414062 C 29.367188 246.757812 30.019531 245.445312 29.367188 244.789062 C 28.710938 243.476562 27.398438 242.820312 26.085938 243.476562 C 25.429688 243.476562 24.773438 244.789062 24.773438 246.101562 C 25.429688 247.414062 26.085938 248.066406 27.398438 248.066406 C 36.578125 274.957031 52.972656 298.5625 73.957031 318.238281 C 73.304688 318.894531 73.957031 320.203125 74.613281 320.859375 C 75.925781 321.515625 77.238281 321.515625 77.894531 320.859375 C 78.550781 319.546875 78.550781 318.238281 77.894531 317.582031 C 77.238281 316.269531 75.925781 316.269531 74.613281 316.925781 Z M 74.613281 316.925781 " fill-opacity="1" fill-rule="nonzero"/></g><g clip-path="url(#71befcf796)"><path fill="#ffffff" d="M 186.097656 358.894531 C 184.785156 358.894531 184.128906 359.550781 183.476562 360.863281 C 153.964844 360.207031 125.109375 351.683594 99.535156 335.941406 C 99.535156 334.632812 99.535156 333.976562 98.222656 333.320312 C 96.910156 332.664062 95.601562 332.664062 94.945312 333.976562 C 94.289062 335.289062 94.289062 336.597656 95.601562 337.253906 C 96.253906 337.910156 97.566406 337.910156 98.222656 337.253906 C 123.796875 352.992188 152.652344 361.519531 182.820312 362.832031 C 183.476562 364.140625 184.128906 364.796875 185.441406 364.796875 C 186.753906 364.796875 188.066406 363.484375 188.066406 362.175781 C 188.066406 360.863281 187.410156 358.894531 186.097656 358.894531 Z M 186.097656 358.894531 " fill-opacity="1" fill-rule="nonzero"/></g><path fill="#ffffff" d="M 252.988281 345.78125 C 251.675781 346.4375 251.675781 347.089844 251.675781 348.402344 C 243.808594 351.683594 235.28125 354.304688 227.410156 356.273438 C 226.757812 355.617188 226.101562 354.960938 224.789062 354.960938 C 223.476562 354.960938 222.820312 356.929688 222.820312 358.238281 C 222.820312 359.550781 224.789062 360.207031 226.101562 360.207031 C 227.414062 360.207031 228.066406 358.894531 228.066406 358.238281 C 236.59375 356.273438 244.460938 353.648438 252.988281 350.371094 C 253.644531 351.027344 254.953125 351.683594 255.609375 351.027344 C 256.921875 350.371094 257.578125 349.058594 256.921875 347.746094 C 255.609375 345.78125 254.300781 345.125 252.988281 345.78125 Z M 252.988281 345.78125 " fill-opacity="1" fill-rule="nonzero"/><path fill="#ffffff" d="M 352.667969 234.296875 C 351.355469 233.640625 350.042969 234.953125 349.386719 236.265625 C 349.386719 237.574219 349.386719 238.230469 350.699219 238.886719 C 338.894531 279.546875 313.320312 313.648438 277.25 335.941406 C 276.597656 335.289062 275.285156 335.289062 274.628906 335.941406 C 273.316406 336.597656 273.316406 337.910156 273.972656 339.222656 C 274.628906 340.535156 275.941406 340.535156 277.25 339.878906 C 277.90625 339.222656 278.5625 337.910156 278.5625 337.253906 C 296.269531 326.105469 312.007812 312.335938 324.46875 295.285156 C 337.582031 278.234375 346.765625 259.214844 352.667969 238.886719 C 353.976562 238.886719 354.632812 238.230469 354.632812 236.921875 C 355.289062 235.609375 353.976562 234.296875 352.667969 234.296875 Z M 352.667969 234.296875 " fill-opacity="1" fill-rule="nonzero"/><g clip-path="url(#26a26a9477)"><path fill="#ffffff" d="M 357.914062 212 C 358.570312 205.441406 359.222656 198.230469 359.222656 191.015625 C 359.222656 175.277344 357.257812 159.539062 352.667969 144.453125 C 348.730469 130.683594 343.484375 117.566406 336.273438 105.109375 C 336.929688 104.453125 336.929688 103.140625 336.273438 102.484375 C 335.617188 101.171875 334.304688 101.171875 332.992188 101.828125 C 331.679688 102.484375 331.679688 103.796875 332.335938 105.109375 C 332.992188 105.761719 334.304688 106.417969 334.960938 106.417969 C 350.042969 131.996094 357.914062 161.503906 357.914062 191.015625 C 357.914062 197.574219 357.257812 204.785156 356.601562 211.34375 C 355.289062 211.34375 354.632812 212.65625 354.632812 213.3125 C 354.632812 214.625 355.289062 215.933594 356.601562 215.933594 C 357.914062 215.933594 359.222656 215.277344 359.222656 213.96875 C 359.222656 213.96875 358.570312 212.65625 357.914062 212 Z M 357.914062 212 " fill-opacity="1" fill-rule="nonzero"/></g><path fill="#ffffff" d="M 216.265625 26.414062 C 217.574219 26.414062 218.230469 25.757812 218.886719 25.101562 C 250.363281 31.003906 279.875 45.429688 303.484375 67.074219 C 302.828125 67.726562 303.484375 69.039062 304.140625 69.695312 C 305.449219 70.351562 306.761719 70.351562 308.074219 69.695312 C 308.730469 68.382812 308.730469 67.074219 308.074219 65.761719 C 307.417969 65.105469 306.105469 65.105469 305.449219 65.105469 C 293.644531 53.957031 280.53125 44.777344 266.101562 38.21875 C 251.675781 31.003906 235.9375 25.757812 220.199219 22.480469 C 220.199219 21.167969 218.886719 20.511719 218.230469 20.511719 C 216.917969 20.511719 215.609375 21.167969 215.609375 22.480469 C 215.609375 23.789062 214.296875 26.414062 216.265625 26.414062 Z M 216.265625 26.414062 " fill-opacity="1" fill-rule="nonzero"/><path fill="#ffffff" d="M 142.816406 349.058594 C 144.128906 349.714844 145.4375 348.402344 146.09375 347.089844 C 146.75 345.78125 145.4375 344.46875 144.128906 343.8125 C 142.816406 343.8125 142.160156 343.8125 141.503906 344.46875 C 106.09375 333.976562 75.269531 311.023438 54.285156 280.203125 C 54.941406 279.546875 54.941406 278.234375 54.285156 277.578125 C 53.628906 276.265625 51.664062 276.265625 51.007812 276.921875 C 49.695312 277.578125 49.695312 279.546875 50.351562 280.203125 C 51.007812 280.859375 52.316406 281.511719 52.972656 280.859375 C 63.464844 296.597656 75.925781 309.710938 91.007812 320.859375 C 106.09375 332.007812 123.144531 340.535156 140.847656 346.4375 C 140.847656 347.746094 141.503906 348.402344 142.816406 349.058594 Z M 142.816406 349.058594 " fill-opacity="1" fill-rule="nonzero"/><path fill="#ffffff" d="M 287.089844 320.203125 C 287.742188 320.859375 289.054688 320.859375 290.367188 320.203125 C 291.679688 319.546875 291.679688 317.582031 291.023438 316.925781 C 290.367188 316.269531 288.398438 315.613281 287.742188 316.269531 C 287.089844 316.925781 286.433594 318.238281 287.089844 318.894531 C 258.890625 340.535156 225.445312 351.683594 189.375 351.683594 C 185.441406 351.683594 181.507812 351.683594 177.574219 351.027344 C 177.574219 349.714844 176.261719 349.058594 175.605469 349.058594 C 174.292969 349.058594 172.980469 349.714844 172.980469 351.683594 C 172.980469 352.992188 173.636719 354.304688 175.605469 354.304688 C 176.917969 354.304688 177.574219 353.648438 178.226562 352.992188 C 182.164062 352.992188 186.097656 353.648438 190.03125 353.648438 C 208.394531 353.648438 226.757812 350.371094 244.460938 344.46875 C 258.234375 338.566406 273.316406 330.695312 287.089844 320.203125 Z M 287.089844 320.203125 " fill-opacity="1" fill-rule="nonzero"/><path fill="#ffffff" d="M 331.679688 271.675781 C 332.335938 270.363281 331.679688 269.054688 331.027344 268.398438 C 330.371094 267.742188 328.402344 268.398438 327.746094 269.054688 C 327.089844 269.710938 327.089844 271.019531 327.746094 271.675781 C 322.5 280.859375 315.941406 289.382812 309.386719 297.253906 C 308.730469 296.597656 307.417969 297.253906 306.761719 297.90625 C 306.105469 299.21875 306.105469 300.53125 306.761719 301.84375 C 307.417969 303.152344 309.386719 302.5 310.695312 301.84375 C 311.351562 301.1875 311.351562 299.875 311.351562 299.21875 C 318.566406 291.351562 324.46875 282.167969 330.371094 272.988281 C 329.714844 272.988281 331.027344 272.332031 331.679688 271.675781 Z M 331.679688 271.675781 " fill-opacity="1" fill-rule="nonzero"/><path fill="#ffffff" d="M 341.519531 140.519531 C 340.207031 141.175781 339.550781 142.488281 339.550781 143.800781 C 340.207031 145.109375 340.863281 145.765625 342.175781 145.765625 C 346.765625 160.847656 348.730469 175.933594 348.730469 191.671875 C 348.730469 210.6875 345.453125 229.050781 339.550781 246.101562 C 338.238281 246.101562 337.582031 246.757812 336.929688 247.414062 C 336.273438 248.722656 336.929688 250.035156 338.238281 250.691406 C 339.550781 251.347656 340.863281 250.691406 341.519531 249.378906 C 342.175781 248.066406 341.519531 247.414062 340.863281 246.757812 C 347.421875 229.050781 350.699219 210.6875 350.699219 191.671875 C 350.699219 175.933594 348.730469 160.195312 344.140625 145.109375 C 344.796875 144.453125 345.453125 143.144531 344.796875 142.488281 C 344.140625 141.175781 342.828125 139.863281 341.519531 140.519531 Z M 341.519531 140.519531 " fill-opacity="1" fill-rule="nonzero"/><path fill="#ffffff" d="M 331.027344 114.945312 C 313.976562 82.8125 285.777344 57.234375 252.332031 42.808594 C 252.332031 41.496094 251.675781 40.839844 251.019531 40.183594 C 249.707031 39.53125 248.398438 40.183594 247.742188 41.496094 C 247.085938 42.808594 247.742188 44.121094 249.054688 44.777344 C 250.363281 45.429688 251.019531 44.777344 251.675781 44.121094 C 284.464844 58.546875 312.007812 83.46875 329.058594 115.601562 C 328.402344 116.257812 328.402344 117.566406 328.402344 118.222656 C 329.058594 119.535156 330.371094 120.191406 331.679688 119.535156 C 332.992188 118.878906 333.648438 117.566406 332.992188 116.257812 C 333.648438 114.945312 332.335938 114.289062 331.027344 114.945312 Z M 331.027344 114.945312 " fill-opacity="1" fill-rule="nonzero"/><path fill="#ffffff" d="M 228.722656 32.972656 C 227.414062 32.972656 226.757812 32.972656 226.101562 34.28125 C 213.640625 31.660156 201.179688 29.691406 188.066406 29.691406 C 172.980469 29.691406 158.554688 31.660156 144.128906 35.59375 C 131.011719 39.53125 118.550781 44.777344 106.75 51.332031 C 106.09375 50.675781 104.78125 50.675781 104.125 51.332031 C 103.46875 51.332031 102.8125 53.300781 103.46875 54.613281 C 104.125 55.925781 105.4375 55.925781 106.75 55.269531 C 107.402344 54.613281 108.058594 53.300781 108.058594 52.644531 C 132.324219 38.875 159.867188 31.003906 188.066406 31.003906 C 200.523438 31.003906 212.984375 32.316406 225.445312 35.59375 C 225.445312 36.90625 226.101562 37.5625 227.410156 37.5625 C 228.722656 38.21875 230.035156 36.90625 230.691406 35.59375 C 231.347656 34.28125 230.691406 32.972656 228.722656 32.972656 Z M 228.722656 32.972656 " fill-opacity="1" fill-rule="nonzero"/><path fill="#ffffff" d="M 39.859375 128.714844 C 41.167969 129.371094 42.480469 128.714844 43.136719 127.40625 C 43.792969 126.09375 43.136719 125.4375 42.480469 124.78125 C 52.316406 103.140625 67.402344 83.46875 85.761719 68.382812 C 86.417969 69.039062 87.730469 69.039062 88.386719 68.382812 C 90.351562 67.074219 90.351562 65.105469 89.042969 64.449219 C 88.386719 63.136719 87.074219 63.136719 85.761719 63.792969 C 85.105469 64.449219 84.453125 65.761719 85.105469 66.417969 C 66.089844 82.15625 51.007812 101.828125 41.167969 124.125 C 39.859375 124.125 39.203125 124.78125 38.546875 125.4375 C 37.890625 126.75 38.546875 128.058594 39.859375 128.714844 Z M 39.859375 128.714844 " fill-opacity="1" fill-rule="nonzero"/><path fill="#ffffff" d="M 60.84375 105.109375 C 59.53125 105.109375 58.875 105.109375 58.21875 106.417969 C 57.5625 107.730469 57.5625 109.042969 58.875 109.699219 C 60.1875 110.355469 61.5 110.355469 62.15625 109.042969 C 62.8125 108.386719 62.8125 107.074219 62.15625 106.417969 C 79.207031 81.5 103.46875 61.824219 131.011719 50.675781 C 131.667969 51.332031 132.980469 51.988281 133.636719 51.332031 C 134.945312 50.675781 135.601562 49.367188 134.945312 48.054688 C 134.289062 46.742188 132.980469 46.085938 131.667969 46.742188 C 130.355469 47.398438 129.699219 48.054688 129.699219 49.367188 C 116.585938 54.613281 103.46875 62.480469 91.664062 72.320312 C 79.859375 81.5 69.367188 92.648438 60.84375 105.109375 Z M 60.84375 105.109375 " fill-opacity="1" fill-rule="nonzero"/><path fill="#ffffff" d="M 91.007812 312.992188 C 92.320312 313.648438 93.632812 313.648438 94.289062 312.335938 C 94.945312 311.023438 94.945312 309.710938 93.632812 309.054688 C 92.976562 308.402344 91.664062 308.402344 91.007812 309.054688 C 75.269531 295.941406 61.5 278.890625 52.316406 260.527344 C 52.972656 259.871094 52.972656 258.5625 52.972656 257.90625 C 52.316406 255.9375 51.007812 255.28125 49.695312 255.9375 C 48.382812 256.59375 47.726562 257.90625 48.382812 259.214844 C 49.039062 260.527344 49.695312 260.527344 51.007812 260.527344 C 55.597656 269.710938 61.5 278.890625 68.058594 287.414062 C 74.613281 295.285156 81.828125 303.152344 90.351562 309.710938 C 89.699219 311.023438 90.351562 312.335938 91.007812 312.992188 Z M 91.007812 312.992188 " fill-opacity="1" fill-rule="nonzero"/><path fill="#ffffff" d="M 121.832031 332.007812 C 123.144531 332.664062 123.796875 332.007812 124.453125 331.351562 C 142.816406 339.878906 162.488281 344.46875 183.476562 345.125 C 184.128906 346.4375 184.785156 347.089844 186.097656 347.089844 C 187.410156 347.089844 188.722656 345.78125 188.722656 344.46875 C 188.722656 343.15625 187.410156 341.84375 186.097656 341.84375 C 184.785156 341.84375 184.128906 342.5 183.476562 343.8125 C 163.144531 343.15625 143.472656 338.566406 125.109375 330.042969 C 125.109375 328.730469 124.453125 328.074219 123.796875 327.417969 C 122.488281 326.761719 121.175781 327.417969 120.519531 328.730469 C 119.863281 330.042969 120.519531 331.351562 121.832031 332.007812 Z M 121.832031 332.007812 " fill-opacity="1" fill-rule="nonzero"/><path fill="#ffffff" d="M 208.394531 345.78125 C 209.707031 345.78125 210.363281 345.125 210.363281 343.8125 C 220.855469 342.5 231.347656 339.878906 241.183594 335.941406 C 251.019531 332.664062 260.203125 327.417969 269.382812 322.171875 C 270.039062 322.828125 271.347656 322.828125 272.660156 322.171875 C 273.972656 321.515625 273.972656 319.546875 273.316406 318.894531 C 272.660156 317.582031 270.695312 317.582031 270.039062 318.238281 C 269.382812 318.894531 268.726562 320.203125 268.726562 320.859375 C 251.019531 332.007812 231.347656 339.222656 210.363281 342.5 C 209.707031 341.191406 208.394531 340.535156 207.738281 340.535156 C 206.425781 340.535156 205.117188 341.84375 205.769531 343.15625 C 206.425781 344.46875 207.082031 345.78125 208.394531 345.78125 Z M 208.394531 345.78125 " fill-opacity="1" fill-rule="nonzero"/><path fill="#ffffff" d="M 341.519531 219.871094 C 341.519531 218.558594 340.863281 217.246094 339.550781 216.589844 C 338.238281 215.933594 336.929688 217.246094 336.273438 218.558594 C 336.273438 219.871094 336.929688 220.527344 337.582031 221.179688 C 331.679688 250.035156 317.910156 276.265625 296.925781 297.253906 C 296.269531 296.597656 294.957031 297.253906 294.300781 297.90625 C 292.992188 299.21875 292.992188 300.53125 294.300781 301.84375 C 295.613281 303.152344 296.925781 303.152344 298.238281 301.84375 C 298.890625 301.1875 298.890625 299.875 298.890625 299.21875 C 309.386719 288.726562 317.910156 276.921875 324.46875 263.808594 C 331.679688 250.691406 336.273438 236.265625 339.550781 221.835938 C 340.207031 221.835938 340.863281 221.179688 341.519531 219.871094 Z M 341.519531 219.871094 " fill-opacity="1" fill-rule="nonzero"/><path fill="#ffffff" d="M 319.222656 107.730469 C 318.566406 106.417969 316.597656 106.417969 315.941406 107.074219 C 314.632812 107.730469 314.632812 109.699219 315.285156 110.355469 C 315.941406 111.007812 317.253906 111.664062 317.910156 111.664062 C 332.992188 135.929688 340.863281 163.472656 340.863281 191.671875 C 340.863281 192.984375 340.863281 194.292969 340.863281 194.949219 C 339.550781 194.949219 338.894531 196.261719 338.894531 197.574219 C 338.894531 198.882812 340.207031 200.195312 341.519531 200.195312 C 342.828125 200.195312 344.140625 198.882812 344.140625 197.574219 C 344.140625 196.261719 343.484375 195.605469 342.828125 194.949219 C 342.828125 193.636719 342.828125 192.328125 342.828125 191.671875 C 342.828125 162.816406 334.960938 135.273438 319.878906 111.007812 C 319.878906 109.699219 319.878906 109.042969 319.222656 107.730469 Z M 319.222656 107.730469 " fill-opacity="1" fill-rule="nonzero"/><path fill="#ffffff" d="M 300.203125 86.089844 C 292.335938 77.566406 283.152344 70.351562 273.972656 63.792969 C 270.039062 61.171875 265.449219 58.546875 260.855469 55.925781 C 260.855469 54.613281 260.203125 53.957031 259.546875 53.300781 C 258.234375 52.644531 256.921875 53.300781 256.265625 54.613281 C 255.609375 55.925781 256.265625 57.234375 257.578125 57.890625 C 258.890625 58.546875 259.546875 57.890625 260.203125 57.234375 C 264.792969 59.859375 268.726562 62.480469 273.316406 65.105469 C 282.496094 71.664062 291.679688 78.875 299.546875 87.402344 C 298.890625 88.058594 298.890625 89.367188 300.203125 90.023438 C 300.859375 91.335938 302.828125 91.335938 304.140625 90.023438 C 305.449219 89.367188 305.449219 87.402344 304.140625 86.089844 C 302.171875 86.089844 301.515625 85.433594 300.203125 86.089844 Z M 300.203125 86.089844 " fill-opacity="1" fill-rule="nonzero"/><path fill="#ffffff" d="M 94.945312 298.5625 C 94.289062 297.90625 92.976562 297.90625 92.320312 298.5625 C 83.796875 290.695312 75.925781 282.167969 69.367188 272.332031 C 70.023438 271.675781 70.023438 270.363281 69.367188 269.054688 C 68.710938 267.742188 66.746094 267.742188 66.089844 268.398438 C 64.777344 269.054688 64.777344 271.019531 65.433594 271.675781 C 66.089844 272.332031 67.402344 272.988281 68.058594 272.988281 C 74.613281 282.824219 82.484375 292.003906 91.007812 299.875 C 90.351562 300.53125 91.007812 301.84375 91.664062 302.5 C 92.976562 303.152344 94.289062 303.152344 94.945312 302.5 C 95.601562 301.84375 96.253906 299.21875 94.945312 298.5625 Z M 94.945312 298.5625 " fill-opacity="1" fill-rule="nonzero"/><path fill="#ffffff" d="M 112.648438 316.925781 C 113.304688 317.582031 114.617188 317.582031 115.273438 316.925781 C 125.765625 323.484375 137.570312 328.074219 149.375 331.351562 C 149.375 332.664062 150.03125 333.320312 151.339844 333.320312 C 152.652344 333.976562 153.964844 332.664062 154.621094 331.351562 C 155.277344 330.042969 153.964844 328.730469 152.652344 328.074219 C 151.339844 328.074219 150.683594 328.074219 150.03125 329.386719 C 138.226562 326.105469 127.078125 321.515625 116.585938 314.957031 C 116.585938 313.648438 116.585938 312.992188 115.273438 312.335938 C 113.960938 311.679688 112.648438 311.679688 111.996094 312.992188 C 111.339844 314.300781 111.339844 316.269531 112.648438 316.925781 Z M 112.648438 316.925781 " fill-opacity="1" fill-rule="nonzero"/><path fill="#ffffff" d="M 233.96875 329.386719 C 234.625 330.042969 235.9375 330.695312 236.59375 330.042969 C 237.90625 329.386719 238.558594 328.074219 237.90625 326.761719 C 237.25 325.449219 235.9375 324.796875 234.625 325.449219 C 233.3125 326.105469 232.660156 326.761719 232.660156 328.074219 C 218.230469 332.664062 203.148438 335.289062 187.410156 335.289062 C 183.476562 335.289062 179.539062 335.289062 175.605469 334.632812 C 175.605469 333.320312 174.292969 332.664062 173.636719 332.664062 C 172.328125 332.664062 171.015625 333.320312 171.015625 334.632812 C 171.015625 335.941406 171.671875 337.253906 172.980469 337.253906 C 174.292969 337.253906 174.949219 336.597656 175.605469 335.941406 C 179.539062 336.597656 183.476562 336.597656 187.410156 336.597656 C 203.804688 336.597656 219.542969 334.632812 233.96875 329.386719 Z M 233.96875 329.386719 " fill-opacity="1" fill-rule="nonzero"/><path fill="#ffffff" d="M 304.792969 278.234375 C 306.105469 278.234375 306.761719 278.234375 307.417969 277.578125 C 308.074219 276.265625 308.074219 274.957031 306.761719 274.300781 C 305.449219 273.644531 304.140625 273.644531 303.484375 274.957031 C 302.828125 275.609375 302.828125 276.921875 303.484375 277.578125 C 291.679688 293.316406 276.597656 306.433594 260.203125 316.269531 C 259.546875 315.613281 258.234375 315.613281 257.578125 316.269531 C 256.265625 316.925781 255.609375 318.238281 256.265625 319.546875 C 256.921875 320.859375 258.234375 321.515625 259.546875 320.859375 C 260.203125 320.203125 260.855469 319.546875 260.855469 318.238281 C 269.382812 312.992188 277.25 307.746094 285.121094 300.53125 C 292.335938 293.316406 298.890625 286.105469 304.792969 278.234375 Z M 304.792969 278.234375 " fill-opacity="1" fill-rule="nonzero"/><path fill="#ffffff" d="M 326.433594 149.046875 C 325.125 149.699219 324.46875 151.011719 324.46875 152.324219 C 324.46875 153.636719 325.78125 154.292969 327.089844 154.292969 C 330.371094 166.75 332.335938 179.210938 332.335938 191.671875 C 332.335938 207.410156 329.714844 223.148438 325.125 237.574219 C 323.8125 237.574219 323.15625 238.230469 322.5 239.542969 C 321.84375 240.855469 322.5 242.167969 323.8125 242.820312 C 325.125 243.476562 326.433594 242.820312 327.089844 241.511719 C 327.746094 240.199219 327.089844 239.542969 326.433594 238.886719 C 331.679688 223.804688 334.304688 208.066406 334.304688 192.328125 C 334.304688 179.210938 332.335938 166.75 329.058594 154.292969 C 329.714844 153.636719 330.371094 152.324219 329.714844 151.667969 C 329.058594 149.699219 327.746094 148.390625 326.433594 149.046875 Z M 326.433594 149.046875 " fill-opacity="1" fill-rule="nonzero"/><path fill="#ffffff" d="M 318.566406 127.40625 C 314.632812 118.878906 309.386719 111.664062 304.140625 103.796875 C 298.890625 96.582031 292.335938 90.023438 285.777344 83.46875 C 286.433594 82.8125 285.777344 81.5 285.121094 80.84375 C 283.808594 80.1875 282.496094 80.1875 281.84375 80.84375 C 280.53125 82.15625 280.53125 84.121094 281.84375 84.777344 C 282.496094 85.433594 283.808594 85.433594 284.464844 84.777344 C 298.238281 97.238281 308.730469 111.664062 317.253906 127.40625 C 316.597656 128.058594 316.597656 129.371094 316.597656 130.027344 C 317.253906 131.339844 318.566406 131.996094 319.878906 131.339844 C 321.1875 130.683594 321.84375 129.371094 321.1875 128.058594 C 320.535156 127.40625 319.878906 127.40625 318.566406 127.40625 Z M 318.566406 127.40625 " fill-opacity="1" fill-rule="nonzero"/><path fill="#ffffff" d="M 225.445312 49.367188 C 224.132812 48.710938 222.820312 50.023438 222.164062 51.332031 C 221.511719 52.644531 222.820312 53.957031 224.132812 54.613281 C 225.445312 54.613281 226.101562 54.613281 226.757812 53.300781 C 238.558594 56.578125 249.707031 61.171875 260.203125 67.074219 C 260.203125 68.382812 260.203125 69.039062 261.511719 69.695312 C 262.824219 70.351562 264.136719 70.351562 264.792969 69.039062 C 265.449219 67.726562 265.449219 66.417969 264.136719 65.761719 C 262.824219 65.105469 261.511719 65.105469 260.855469 65.761719 C 250.363281 59.859375 239.214844 54.613281 227.414062 51.332031 C 227.414062 50.675781 226.757812 49.367188 225.445312 49.367188 Z M 225.445312 49.367188 " fill-opacity="1" fill-rule="nonzero"/><path fill="#ffffff" d="M 203.148438 45.429688 C 201.835938 45.429688 201.179688 46.085938 200.523438 46.742188 C 196.589844 46.085938 192.65625 46.085938 188.722656 46.085938 C 176.917969 46.085938 165.769531 47.398438 154.621094 50.023438 C 151.996094 50.675781 148.71875 51.332031 146.09375 52.644531 C 129.042969 57.890625 113.304688 66.417969 98.878906 77.566406 C 98.222656 76.910156 96.910156 76.910156 95.601562 77.566406 C 94.289062 78.21875 94.289062 80.1875 94.945312 80.84375 C 95.601562 82.15625 97.566406 82.15625 98.222656 81.5 C 98.878906 80.84375 99.535156 79.53125 98.878906 78.875 C 112.648438 67.726562 128.390625 59.859375 145.4375 54.613281 C 148.0625 53.957031 151.339844 53.300781 153.964844 51.988281 C 165.113281 49.367188 176.261719 48.054688 187.410156 48.054688 C 191.34375 48.054688 195.277344 48.054688 199.214844 48.710938 C 199.214844 50.023438 200.523438 50.675781 201.179688 50.675781 C 202.492188 50.675781 203.804688 50.023438 203.804688 48.710938 C 205.769531 46.742188 204.460938 45.429688 203.148438 45.429688 Z M 203.148438 45.429688 " fill-opacity="1" fill-rule="nonzero"/><path fill="#ffffff" d="M 216.917969 326.761719 C 218.230469 326.761719 218.886719 325.449219 218.886719 324.796875 C 236.59375 320.859375 252.988281 313.648438 268.070312 302.5 C 275.285156 297.253906 282.496094 290.695312 289.054688 284.136719 C 294.957031 278.234375 300.203125 271.019531 304.792969 263.808594 C 306.105469 263.808594 306.761719 263.808594 307.417969 262.496094 C 308.074219 261.183594 308.074219 259.871094 306.761719 259.214844 C 305.449219 258.5625 304.140625 258.5625 303.484375 259.871094 C 302.828125 260.527344 302.828125 261.839844 303.484375 262.496094 C 284.464844 292.660156 254.300781 314.300781 219.542969 322.171875 C 218.886719 321.515625 218.230469 320.859375 216.917969 320.859375 C 215.609375 320.859375 214.953125 322.171875 214.953125 324.140625 C 214.296875 326.105469 215.609375 327.417969 216.917969 326.761719 Z M 216.917969 326.761719 " fill-opacity="1" fill-rule="nonzero"/><path fill="#ffffff" d="M 325.125 211.34375 C 325.125 210.03125 324.46875 208.722656 323.15625 208.722656 C 321.84375 208.722656 320.535156 209.378906 320.535156 210.6875 C 320.535156 212 321.1875 212.65625 321.84375 213.3125 C 319.878906 224.460938 316.597656 235.609375 312.007812 246.101562 C 310.695312 246.101562 310.039062 246.757812 309.386719 247.414062 C 308.730469 248.722656 309.386719 250.035156 310.695312 250.691406 C 312.007812 251.347656 313.320312 250.691406 313.976562 249.378906 C 314.632812 248.066406 313.976562 247.414062 313.320312 246.757812 C 317.910156 236.265625 321.1875 225.117188 323.15625 213.3125 C 324.46875 213.3125 325.125 212.65625 325.125 211.34375 Z M 325.125 211.34375 " fill-opacity="1" fill-rule="nonzero"/><path fill="#ffffff" d="M 313.320312 135.929688 C 313.976562 135.273438 314.632812 133.960938 313.976562 133.304688 C 313.320312 131.996094 312.007812 131.339844 310.695312 131.996094 C 309.386719 132.652344 308.730469 133.960938 309.386719 135.273438 C 310.039062 136.585938 310.695312 136.585938 312.007812 136.585938 C 313.976562 141.832031 315.941406 147.078125 317.910156 152.324219 C 321.1875 163.472656 323.15625 174.621094 323.15625 185.769531 C 321.84375 186.425781 321.1875 187.082031 321.1875 188.390625 C 321.1875 189.703125 322.5 191.015625 323.8125 191.015625 C 325.125 191.015625 326.433594 189.703125 326.433594 188.390625 C 326.433594 187.082031 325.78125 186.425781 324.46875 185.769531 C 323.8125 173.964844 321.84375 162.816406 318.566406 151.667969 C 317.910156 147.078125 315.941406 141.175781 313.320312 135.929688 Z M 313.320312 135.929688 " fill-opacity="1" fill-rule="nonzero"/><path fill="#ffffff" d="M 302.171875 122.15625 C 302.828125 123.46875 304.792969 123.46875 305.449219 122.8125 C 306.761719 122.15625 306.761719 120.191406 306.105469 119.535156 C 305.449219 118.878906 304.140625 118.222656 303.484375 118.222656 C 292.335938 101.171875 277.90625 86.089844 260.203125 75.597656 C 260.203125 74.285156 260.203125 73.628906 258.890625 72.972656 C 257.578125 72.320312 256.265625 72.972656 255.609375 73.628906 C 254.953125 74.941406 255.609375 76.253906 256.265625 76.910156 C 256.921875 77.566406 258.234375 77.566406 258.890625 76.910156 C 275.941406 87.402344 290.367188 101.828125 301.515625 118.878906 C 301.515625 119.535156 301.515625 120.847656 302.171875 122.15625 Z M 302.171875 122.15625 " fill-opacity="1" fill-rule="nonzero"/><path fill="#ffffff" d="M 237.90625 62.480469 C 236.59375 61.824219 235.9375 62.480469 235.28125 63.136719 C 222.164062 58.546875 207.738281 55.269531 193.96875 55.269531 C 193.3125 53.957031 192.65625 53.300781 191.34375 53.300781 C 190.03125 53.300781 188.722656 54.613281 188.722656 55.925781 C 188.722656 57.234375 190.03125 58.546875 191.34375 58.546875 C 192.65625 58.546875 193.3125 57.890625 193.96875 56.578125 C 207.738281 57.234375 221.511719 59.859375 234.625 64.449219 C 234.625 65.761719 235.28125 66.417969 235.9375 67.074219 C 237.25 67.726562 238.558594 67.074219 239.214844 65.761719 C 239.871094 64.449219 239.214844 62.480469 237.90625 62.480469 Z M 237.90625 62.480469 " fill-opacity="1" fill-rule="nonzero"/><path fill="#ffffff" d="M 167.734375 54.613281 C 166.425781 54.613281 165.769531 55.925781 165.769531 56.578125 C 154.621094 58.546875 143.472656 61.824219 132.980469 66.417969 C 132.324219 65.761719 131.011719 65.105469 130.355469 65.761719 C 129.042969 66.417969 128.390625 67.726562 129.042969 69.039062 C 129.699219 70.351562 131.011719 71.007812 132.324219 70.351562 C 133.636719 69.695312 133.636719 69.039062 133.636719 67.726562 C 144.128906 63.136719 154.621094 59.859375 165.769531 57.890625 C 166.425781 58.546875 167.082031 59.203125 168.390625 59.203125 C 169.703125 59.203125 171.015625 57.890625 170.359375 56.578125 C 170.359375 55.269531 169.046875 54.613281 167.734375 54.613281 Z M 167.734375 54.613281 " fill-opacity="1" fill-rule="nonzero"/><path fill="#ffffff" d="M 71.335938 120.847656 C 70.023438 120.847656 69.367188 120.847656 68.710938 122.15625 C 68.058594 123.46875 68.710938 124.78125 69.367188 125.4375 C 70.679688 126.09375 71.992188 125.4375 72.648438 124.78125 C 73.304688 124.125 73.304688 122.8125 72.648438 122.15625 C 81.828125 107.074219 94.289062 93.304688 108.058594 82.8125 C 108.714844 83.46875 110.027344 83.46875 110.683594 82.8125 C 111.996094 82.15625 111.996094 80.1875 111.339844 79.53125 C 110.683594 78.21875 108.714844 78.21875 108.058594 78.875 C 107.402344 79.53125 106.75 80.84375 107.402344 81.5 C 100.191406 86.746094 93.632812 92.648438 87.074219 99.207031 C 81.171875 105.761719 75.925781 113.632812 71.335938 120.847656 Z M 71.335938 120.847656 " fill-opacity="1" fill-rule="nonzero"/><path fill="#ffffff" d="M 124.453125 314.300781 C 125.765625 314.957031 127.078125 314.300781 127.734375 312.992188 C 128.390625 311.679688 127.734375 310.367188 126.421875 309.710938 C 125.109375 309.054688 124.453125 309.710938 123.796875 310.367188 C 101.5 298.5625 83.140625 280.859375 70.679688 258.5625 C 71.335938 257.90625 71.335938 256.59375 71.335938 255.9375 C 70.679688 254.625 69.367188 253.96875 68.058594 254.625 C 66.746094 255.28125 66.089844 256.59375 66.746094 257.90625 C 67.402344 258.5625 68.058594 259.214844 69.367188 259.214844 C 75.925781 270.363281 83.140625 280.203125 92.320312 289.382812 C 101.5 298.5625 111.339844 305.777344 122.488281 311.679688 C 123.144531 312.992188 123.796875 314.300781 124.453125 314.300781 Z M 124.453125 314.300781 " fill-opacity="1" fill-rule="nonzero"/><path fill="#ffffff" d="M 147.40625 324.140625 C 148.71875 324.140625 149.375 324.140625 150.03125 323.484375 C 162.488281 326.761719 174.949219 328.730469 188.066406 328.730469 C 189.375 328.730469 190.6875 328.730469 191.34375 328.730469 C 192 329.386719 192.65625 330.695312 193.96875 330.042969 C 195.277344 330.042969 196.589844 328.730469 196.589844 327.417969 C 196.589844 326.105469 195.277344 324.796875 193.96875 324.796875 C 192.65625 324.796875 192 325.449219 191.34375 326.761719 C 190.03125 326.761719 188.722656 326.761719 188.066406 326.761719 C 175.605469 326.761719 162.488281 324.796875 150.683594 321.515625 C 150.683594 320.203125 150.03125 319.546875 148.71875 318.894531 C 147.40625 318.238281 146.09375 319.546875 145.4375 320.859375 C 145.4375 322.171875 146.09375 323.484375 147.40625 324.140625 Z M 147.40625 324.140625 " fill-opacity="1" fill-rule="nonzero"/><path fill="#ffffff" d="M 251.675781 301.1875 C 251.019531 300.53125 249.707031 300.53125 249.054688 301.1875 C 247.742188 301.1875 247.085938 303.152344 247.742188 304.464844 C 248.398438 305.777344 249.707031 306.433594 251.019531 305.777344 C 251.675781 305.121094 252.332031 304.464844 252.332031 303.152344 C 263.480469 296.597656 273.316406 288.726562 281.84375 279.546875 C 290.367188 270.363281 297.582031 259.871094 303.484375 248.070312 C 304.792969 248.070312 305.449219 247.414062 306.105469 246.757812 C 306.761719 245.445312 306.105469 244.132812 304.792969 243.476562 C 303.484375 242.820312 302.171875 243.476562 301.515625 244.789062 C 300.859375 246.101562 301.515625 246.757812 302.171875 247.414062 C 291.679688 269.054688 273.316406 288.726562 251.675781 301.1875 Z M 251.675781 301.1875 " fill-opacity="1" fill-rule="nonzero"/><path fill="#ffffff" d="M 317.910156 185.113281 C 317.910156 183.800781 316.597656 182.488281 315.285156 182.488281 C 313.976562 182.488281 312.664062 183.800781 312.664062 185.113281 C 312.664062 186.425781 313.320312 187.082031 314.632812 187.734375 C 314.632812 189.046875 314.632812 190.359375 314.632812 191.671875 C 314.632812 201.507812 313.320312 211.34375 311.351562 220.527344 C 310.039062 220.527344 309.386719 221.179688 309.386719 222.492188 C 308.730469 223.804688 310.039062 225.117188 311.351562 225.773438 C 312.664062 226.425781 313.976562 225.117188 314.632812 223.804688 C 314.632812 222.492188 314.632812 221.835938 313.320312 221.179688 C 315.285156 211.34375 316.597656 201.507812 316.597656 191.671875 C 316.597656 190.359375 316.597656 189.046875 316.597656 187.734375 C 317.253906 187.082031 317.910156 186.425781 317.910156 185.113281 Z M 317.910156 185.113281 " fill-opacity="1" fill-rule="nonzero"/><path fill="#ffffff" d="M 310.039062 164.128906 C 310.039062 165.441406 312.007812 166.09375 313.320312 166.09375 C 314.632812 166.09375 315.285156 164.128906 315.285156 162.816406 C 315.285156 161.503906 313.976562 160.847656 313.320312 160.847656 C 310.039062 147.734375 304.792969 135.929688 298.238281 124.125 C 298.890625 123.46875 298.890625 122.15625 298.238281 120.847656 C 297.582031 119.535156 295.613281 119.535156 294.957031 120.191406 C 293.644531 120.847656 293.644531 122.8125 294.300781 123.46875 C 294.957031 124.125 296.269531 124.78125 296.925781 124.78125 C 303.484375 135.929688 308.730469 147.734375 312.007812 160.847656 C 310.695312 162.160156 310.039062 162.816406 310.039062 164.128906 Z M 310.039062 164.128906 " fill-opacity="1" fill-rule="nonzero"/><path fill="#ffffff" d="M 225.445312 67.074219 C 224.132812 66.417969 222.820312 67.726562 222.164062 69.039062 C 222.164062 70.351562 222.820312 71.664062 224.132812 71.664062 C 225.445312 71.664062 226.101562 71.664062 226.757812 71.007812 C 245.773438 76.910156 262.824219 87.402344 277.25 101.828125 C 276.597656 102.484375 277.25 103.796875 277.90625 104.453125 C 278.5625 105.761719 280.53125 105.761719 281.84375 104.453125 C 283.152344 103.140625 283.152344 101.828125 281.84375 100.515625 C 281.1875 99.863281 279.875 99.207031 279.21875 99.863281 C 264.792969 85.433594 247.085938 74.941406 228.066406 69.039062 C 227.414062 68.382812 226.757812 67.074219 225.445312 67.074219 Z M 225.445312 67.074219 " fill-opacity="1" fill-rule="nonzero"/><path fill="#ffffff" d="M 202.492188 67.726562 C 203.804688 67.726562 205.117188 67.074219 205.117188 65.761719 C 205.117188 64.449219 204.460938 63.136719 203.148438 63.136719 C 201.835938 63.136719 201.179688 63.792969 200.523438 64.449219 C 196.589844 63.792969 192.65625 63.792969 188.066406 63.792969 C 180.195312 63.792969 172.328125 64.449219 164.457031 65.761719 C 163.800781 65.105469 163.144531 64.449219 161.832031 64.449219 C 160.523438 64.449219 159.867188 66.417969 159.867188 67.726562 C 159.867188 69.039062 161.832031 69.695312 163.144531 69.695312 C 164.457031 69.695312 165.113281 68.382812 165.113281 67.726562 C 172.980469 65.761719 180.851562 65.105469 188.722656 65.105469 C 192.65625 65.105469 196.589844 65.105469 200.523438 65.761719 C 200.523438 66.417969 201.179688 67.726562 202.492188 67.726562 Z M 202.492188 67.726562 " fill-opacity="1" fill-rule="nonzero"/><path fill="#ffffff" d="M 135.601562 76.910156 C 136.257812 77.566406 137.570312 78.21875 138.226562 77.566406 C 139.539062 76.910156 140.191406 75.597656 139.539062 74.285156 C 138.882812 72.972656 137.570312 72.320312 136.257812 72.972656 C 134.945312 73.628906 134.945312 74.285156 134.945312 75.597656 C 115.929688 84.121094 98.878906 97.894531 86.417969 114.945312 C 85.105469 114.945312 84.453125 114.945312 83.796875 115.601562 C 83.140625 116.910156 83.140625 118.222656 84.453125 118.878906 C 85.761719 119.535156 87.074219 119.535156 87.730469 118.222656 C 88.386719 117.566406 88.386719 116.257812 87.730469 115.601562 C 100.191406 98.550781 116.585938 85.433594 135.601562 76.910156 Z M 135.601562 76.910156 " fill-opacity="1" fill-rule="nonzero"/><path fill="#ffffff" d="M 91.007812 277.578125 C 91.664062 278.890625 93.632812 278.890625 94.945312 277.578125 C 96.253906 276.921875 96.253906 274.957031 94.945312 273.644531 C 94.289062 272.988281 92.976562 272.332031 92.320312 272.988281 C 83.796875 263.152344 77.238281 252.660156 72.648438 240.855469 C 73.304688 240.199219 73.957031 238.886719 73.304688 238.230469 C 72.648438 236.921875 71.335938 236.265625 70.023438 236.921875 C 68.710938 237.574219 68.058594 238.886719 68.710938 240.199219 C 68.710938 241.511719 69.367188 242.167969 70.679688 242.167969 C 75.925781 253.96875 82.484375 264.464844 91.007812 274.300781 C 90.351562 275.609375 90.351562 276.921875 91.007812 277.578125 Z M 91.007812 277.578125 " fill-opacity="1" fill-rule="nonzero"/><path fill="#ffffff" d="M 115.273438 297.253906 C 128.390625 306.433594 142.816406 312.992188 157.898438 316.269531 C 157.898438 317.582031 158.554688 318.238281 159.867188 318.238281 C 161.179688 318.238281 162.488281 317.582031 163.144531 316.269531 C 163.144531 314.957031 162.488281 313.648438 161.179688 312.992188 C 159.867188 312.992188 159.210938 312.992188 158.554688 314.300781 C 143.472656 310.367188 129.699219 304.464844 116.585938 295.285156 C 116.585938 293.972656 116.585938 293.316406 115.929688 292.660156 C 114.617188 292.003906 113.304688 292.003906 112.648438 293.316406 C 111.996094 294.628906 111.996094 295.941406 113.304688 296.597656 C 113.304688 297.90625 114.617188 297.90625 115.273438 297.253906 Z M 115.273438 297.253906 " fill-opacity="1" fill-rule="nonzero"/><path fill="#ffffff" d="M 229.378906 314.957031 C 230.691406 314.300781 231.347656 312.992188 230.691406 311.679688 C 230.035156 310.367188 228.722656 309.710938 227.414062 310.367188 C 226.101562 311.023438 225.445312 311.679688 225.445312 312.992188 C 213.640625 316.925781 200.523438 318.894531 188.066406 318.894531 C 186.753906 318.894531 185.441406 318.894531 184.785156 318.894531 C 184.785156 317.582031 183.476562 316.925781 182.164062 316.925781 C 180.851562 316.925781 179.539062 318.238281 179.539062 319.546875 C 179.539062 320.859375 180.851562 322.171875 182.164062 322.171875 C 183.476562 322.171875 184.128906 321.515625 184.785156 320.859375 C 186.097656 320.859375 187.410156 320.859375 188.066406 320.859375 C 201.179688 320.859375 213.640625 318.894531 226.101562 314.957031 C 226.757812 314.957031 228.066406 314.957031 229.378906 314.957031 Z M 229.378906 314.957031 " fill-opacity="1" fill-rule="nonzero"/><path fill="#ffffff" d="M 130.355469 90.679688 C 131.011719 90.023438 131.667969 89.367188 131.667969 88.058594 C 145.4375 80.84375 159.867188 75.597656 175.605469 74.285156 C 176.261719 74.941406 176.917969 75.597656 178.226562 75.597656 C 179.539062 75.597656 180.851562 74.285156 180.851562 72.972656 C 180.851562 71.664062 179.539062 70.351562 178.226562 70.351562 C 176.917969 70.351562 176.261719 71.007812 176.261719 72.320312 C 160.523438 74.285156 145.4375 78.875 131.667969 86.746094 C 131.011719 86.089844 129.699219 86.089844 128.390625 86.746094 C 127.078125 87.402344 127.078125 88.714844 127.734375 90.023438 C 127.078125 91.335938 129.042969 91.335938 130.355469 90.679688 Z M 130.355469 90.679688 " fill-opacity="1" fill-rule="nonzero"/><path fill="#ffffff" d="M 97.566406 269.710938 C 105.4375 278.234375 113.960938 286.105469 123.796875 292.660156 C 123.796875 293.972656 123.796875 294.628906 125.109375 295.285156 C 126.421875 295.941406 127.734375 295.285156 128.390625 294.628906 C 129.042969 293.972656 128.390625 292.003906 127.734375 291.351562 C 127.078125 290.695312 125.765625 290.695312 125.109375 291.351562 C 115.273438 285.449219 106.75 277.578125 98.878906 269.054688 C 99.535156 268.398438 99.535156 267.085938 98.878906 266.429688 C 98.222656 265.117188 96.253906 265.117188 95.601562 265.773438 C 94.289062 266.429688 94.289062 268.398438 94.945312 269.054688 C 95.601562 270.363281 96.910156 270.363281 97.566406 269.710938 Z M 97.566406 269.710938 " fill-opacity="1" fill-rule="nonzero"/><path fill="#ffffff" d="M 147.40625 305.777344 C 148.71875 306.433594 149.375 305.777344 150.03125 305.121094 C 162.488281 309.054688 174.949219 311.023438 188.066406 311.023438 C 192 311.023438 195.933594 311.023438 200.523438 310.367188 C 201.179688 311.023438 201.835938 311.679688 203.148438 311.679688 C 204.460938 311.679688 205.769531 310.367188 205.117188 309.054688 C 205.117188 307.746094 203.804688 306.433594 202.492188 307.089844 C 201.179688 307.089844 200.523438 307.746094 200.523438 309.054688 C 196.589844 309.710938 192.65625 309.710938 188.722656 309.710938 C 175.605469 309.710938 163.144531 307.746094 151.339844 303.808594 C 151.339844 302.5 150.683594 301.84375 149.375 301.1875 C 148.0625 300.53125 146.75 301.1875 146.09375 302.5 C 145.4375 303.808594 146.09375 305.121094 147.40625 305.777344 Z M 147.40625 305.777344 " fill-opacity="1" fill-rule="nonzero"/><path fill="#ffffff" d="M 225.445312 307.089844 C 226.757812 306.433594 227.414062 305.777344 227.414062 304.464844 C 246.429688 297.90625 263.480469 286.757812 276.597656 271.675781 C 277.25 272.332031 278.5625 271.675781 279.21875 271.019531 C 279.875 269.710938 279.875 268.398438 279.21875 267.742188 C 277.90625 267.085938 276.597656 267.085938 275.941406 267.742188 C 275.285156 268.398438 275.285156 269.710938 275.941406 270.363281 C 262.824219 284.792969 245.773438 295.941406 227.414062 302.5 C 226.757812 301.84375 225.445312 301.1875 224.789062 301.84375 C 223.476562 302.5 222.820312 303.808594 222.820312 305.121094 C 222.820312 306.433594 224.132812 307.746094 225.445312 307.089844 Z M 225.445312 307.089844 " fill-opacity="1" fill-rule="nonzero"/><path fill="#ffffff" d="M 308.730469 176.589844 C 308.730469 175.277344 307.417969 173.964844 306.105469 174.621094 C 304.792969 174.621094 303.484375 175.933594 304.140625 177.242188 C 304.140625 178.554688 304.792969 179.210938 306.105469 179.210938 C 306.761719 183.144531 306.761719 187.082031 306.761719 191.015625 C 306.761719 210.03125 302.171875 229.050781 293.644531 245.445312 C 292.335938 245.445312 291.679688 245.445312 291.023438 246.757812 C 290.367188 248.070312 291.023438 249.378906 292.335938 250.035156 C 293.644531 250.691406 294.957031 250.035156 295.613281 248.722656 C 296.269531 248.070312 296.269531 246.757812 294.957031 245.445312 C 298.890625 237.574219 302.171875 229.050781 304.792969 220.527344 C 307.417969 210.6875 308.730469 200.195312 308.730469 190.359375 C 308.730469 186.425781 308.730469 182.488281 308.074219 177.898438 C 308.730469 179.210938 309.386719 177.898438 308.730469 176.589844 Z M 308.730469 176.589844 " fill-opacity="1" fill-rule="nonzero"/><path fill="#ffffff" d="M 300.859375 145.765625 C 300.203125 144.453125 299.546875 143.800781 298.238281 144.453125 C 289.710938 125.4375 276.597656 108.386719 260.203125 95.925781 C 243.152344 82.8125 222.820312 74.941406 201.835938 72.972656 C 201.835938 71.664062 200.523438 71.007812 199.871094 71.007812 C 198.558594 71.007812 197.246094 71.664062 197.246094 73.628906 C 197.246094 75.597656 197.902344 76.253906 199.871094 76.253906 C 201.179688 76.253906 201.835938 75.597656 202.492188 74.941406 C 244.460938 79.53125 280.53125 106.417969 297.582031 145.765625 C 296.925781 146.421875 296.269531 147.734375 296.925781 148.390625 C 297.582031 149.699219 298.890625 150.355469 300.203125 149.699219 C 300.859375 148.390625 301.515625 147.078125 300.859375 145.765625 Z M 300.859375 145.765625 " fill-opacity="1" fill-rule="nonzero"/><path fill="#ffffff" d="M 237.90625 44.121094 C 236.59375 43.464844 235.9375 44.121094 235.28125 44.777344 C 228.722656 42.808594 221.511719 40.839844 214.296875 39.53125 C 205.769531 38.875 197.246094 37.5625 188.722656 37.5625 C 181.507812 37.5625 174.949219 38.21875 167.734375 38.875 C 167.082031 38.21875 166.425781 37.5625 165.113281 37.5625 C 163.800781 37.5625 162.488281 38.875 163.144531 40.183594 C 163.144531 41.496094 164.457031 42.808594 165.769531 42.152344 C 167.082031 42.152344 167.734375 40.839844 167.734375 40.183594 C 174.292969 39.53125 181.507812 38.875 188.066406 38.875 C 196.589844 38.875 205.117188 39.53125 213.640625 40.839844 C 220.855469 42.152344 227.414062 43.464844 233.96875 46.085938 C 233.96875 47.398438 234.625 48.054688 235.9375 48.710938 C 237.25 49.367188 238.558594 48.710938 239.214844 47.398438 C 239.871094 46.085938 239.214844 44.777344 237.90625 44.121094 Z M 237.90625 44.121094 " fill-opacity="1" fill-rule="nonzero"/><path fill="#ffffff" d="M 97.566406 255.9375 C 111.996094 276.921875 133.636719 292.003906 157.898438 298.5625 C 157.898438 299.875 158.554688 300.53125 159.867188 300.53125 C 161.179688 301.1875 162.488281 299.875 163.144531 298.5625 C 163.800781 297.253906 162.488281 295.941406 161.179688 295.285156 C 159.867188 295.285156 159.210938 295.285156 158.554688 296.597656 C 134.289062 290.039062 113.304688 274.957031 98.878906 254.625 C 99.535156 253.96875 99.535156 252.660156 98.878906 252.003906 C 98.222656 250.691406 96.253906 250.691406 95.601562 251.347656 C 94.945312 252.003906 94.289062 253.96875 94.945312 254.625 C 94.945312 255.28125 96.253906 255.9375 97.566406 255.9375 Z M 97.566406 255.9375 " fill-opacity="1" fill-rule="nonzero"/><path fill="#ffffff" d="M 229.378906 296.597656 C 230.691406 295.941406 231.347656 294.628906 230.691406 293.316406 C 230.035156 292.003906 228.722656 291.351562 227.414062 292.003906 C 226.101562 292.660156 226.101562 293.316406 226.101562 294.628906 C 214.296875 299.21875 201.179688 301.1875 188.722656 301.1875 C 187.410156 301.1875 186.097656 301.1875 184.785156 301.1875 C 184.785156 299.875 183.476562 299.21875 182.164062 299.21875 C 180.851562 299.21875 179.539062 300.53125 179.539062 301.84375 C 179.539062 303.152344 180.851562 304.464844 182.164062 304.464844 C 183.476562 304.464844 184.128906 303.808594 184.785156 303.152344 C 186.097656 303.152344 187.410156 303.152344 188.722656 303.152344 C 201.835938 303.152344 214.953125 301.1875 226.757812 296.597656 C 227.414062 296.597656 228.722656 297.253906 229.378906 296.597656 Z M 229.378906 296.597656 " fill-opacity="1" fill-rule="nonzero"/><path fill="#ffffff" d="M 291.679688 237.574219 C 292.335938 236.265625 291.679688 234.953125 290.367188 234.296875 C 289.054688 233.640625 287.742188 234.296875 287.089844 235.609375 C 286.433594 236.921875 287.089844 237.574219 287.742188 238.230469 C 279.21875 255.28125 266.757812 270.363281 251.019531 281.511719 C 250.363281 280.859375 249.054688 280.859375 248.398438 281.511719 C 247.085938 282.167969 247.085938 284.136719 247.742188 284.792969 C 248.398438 286.105469 250.363281 286.105469 251.019531 285.449219 C 251.675781 284.792969 252.332031 283.480469 252.332031 282.824219 C 268.726562 271.675781 281.1875 256.59375 289.710938 238.886719 C 290.367188 238.886719 291.023438 238.230469 291.679688 237.574219 Z M 291.679688 237.574219 " fill-opacity="1" fill-rule="nonzero"/><path fill="#ffffff" d="M 295.613281 205.441406 C 295.613281 206.753906 296.269531 208.066406 297.582031 208.066406 C 298.890625 208.066406 300.203125 207.410156 300.203125 206.097656 C 300.203125 204.785156 299.546875 204.132812 298.890625 203.476562 C 299.546875 199.539062 299.546875 195.605469 299.546875 191.015625 C 299.546875 182.488281 298.238281 173.964844 296.269531 165.441406 C 294.300781 158.226562 292.335938 151.011719 289.054688 144.453125 C 289.710938 143.800781 289.710938 142.488281 289.710938 141.832031 C 289.054688 140.519531 287.742188 139.863281 286.433594 140.519531 C 285.121094 141.175781 284.464844 142.488281 285.121094 143.800781 C 285.777344 144.453125 286.433594 145.109375 287.742188 145.109375 C 294.300781 159.539062 297.582031 175.277344 297.582031 191.015625 C 297.582031 194.949219 297.582031 198.882812 296.925781 202.820312 C 296.269531 203.476562 295.613281 204.785156 295.613281 205.441406 Z M 295.613281 205.441406 " fill-opacity="1" fill-rule="nonzero"/><path fill="#ffffff" d="M 272.003906 118.222656 C 262.167969 106.417969 249.707031 97.238281 235.9375 90.679688 C 235.9375 89.367188 235.28125 88.714844 234.625 88.058594 C 233.3125 87.402344 232.003906 88.058594 231.347656 89.367188 C 230.691406 90.679688 231.347656 91.992188 232.660156 92.648438 C 233.96875 93.304688 234.625 92.648438 235.28125 91.992188 C 249.054688 98.550781 260.855469 107.730469 270.695312 118.878906 C 270.039062 119.535156 270.039062 120.847656 270.695312 121.503906 C 271.347656 122.8125 273.316406 122.8125 273.972656 122.15625 C 275.285156 121.503906 275.285156 119.535156 274.628906 118.878906 C 274.628906 118.222656 273.316406 118.222656 272.003906 118.222656 Z M 272.003906 118.222656 " fill-opacity="1" fill-rule="nonzero"/><path fill="#ffffff" d="M 211.671875 80.84375 C 210.363281 80.84375 209.707031 80.84375 209.050781 82.15625 C 202.492188 80.84375 195.277344 80.1875 188.066406 80.1875 C 172.980469 80.1875 158.554688 82.8125 144.785156 88.714844 C 132.324219 93.960938 121.175781 101.171875 111.339844 111.007812 C 110.683594 110.355469 109.371094 111.007812 108.058594 111.664062 C 106.75 112.976562 107.402344 114.289062 108.058594 115.601562 C 109.371094 116.910156 110.683594 116.257812 111.996094 115.601562 C 112.648438 114.945312 112.648438 113.632812 112.648438 112.976562 C 132.980469 93.304688 159.867188 82.8125 188.066406 82.8125 C 194.621094 82.8125 201.835938 83.46875 208.394531 84.777344 C 208.394531 86.089844 209.050781 86.746094 210.363281 86.746094 C 211.671875 86.746094 212.984375 86.089844 213.640625 84.777344 C 214.296875 82.8125 212.984375 81.5 211.671875 80.84375 Z M 211.671875 80.84375 " fill-opacity="1" fill-rule="nonzero"/><path fill="#ffffff" d="M 292.992188 194.292969 C 292.992188 192.984375 291.679688 191.671875 290.367188 191.671875 C 289.054688 191.671875 287.742188 192.984375 287.742188 194.292969 C 287.742188 195.605469 288.398438 196.261719 289.054688 196.917969 C 288.398438 215.277344 282.496094 232.328125 272.660156 247.414062 C 271.347656 247.414062 270.695312 247.414062 270.039062 248.722656 C 269.382812 250.035156 269.382812 251.347656 270.695312 252.003906 C 272.003906 252.660156 273.316406 252.660156 273.972656 251.347656 C 274.628906 250.691406 274.628906 249.378906 273.972656 248.070312 C 283.808594 232.984375 289.710938 215.277344 290.367188 196.917969 C 292.335938 196.261719 292.992188 195.605469 292.992188 194.292969 Z M 292.992188 194.292969 " fill-opacity="1" fill-rule="nonzero"/><path fill="#ffffff" d="M 289.054688 174.621094 C 290.367188 174.621094 291.679688 173.308594 291.023438 171.339844 C 291.023438 170.03125 289.710938 169.375 289.054688 169.375 C 285.777344 153.636719 278.5625 138.550781 268.070312 126.09375 C 268.726562 125.4375 268.726562 124.125 268.070312 122.8125 C 267.414062 121.503906 265.449219 121.503906 264.792969 122.8125 C 263.480469 123.46875 263.480469 125.4375 264.792969 126.09375 C 265.449219 126.75 266.757812 127.40625 267.414062 126.75 C 277.90625 139.207031 285.121094 153.636719 288.398438 169.375 C 287.746094 170.03125 287.089844 170.6875 287.089844 171.996094 C 286.433594 173.964844 287.742188 174.621094 289.054688 174.621094 Z M 289.054688 174.621094 " fill-opacity="1" fill-rule="nonzero"/><path fill="#ffffff" d="M 184.785156 88.714844 C 184.128906 88.058594 183.476562 86.746094 182.164062 87.402344 C 180.851562 87.402344 179.539062 88.714844 179.539062 90.023438 C 179.539062 91.335938 180.851562 92.648438 182.164062 92.648438 C 183.476562 92.648438 184.128906 91.992188 184.128906 90.679688 C 185.441406 90.679688 186.753906 90.679688 187.410156 90.679688 C 207.082031 90.679688 226.101562 96.582031 242.496094 107.074219 C 242.496094 108.386719 242.496094 109.042969 243.808594 109.699219 C 245.117188 110.355469 246.429688 110.355469 247.085938 109.042969 C 247.742188 107.730469 247.742188 106.417969 246.429688 105.761719 C 245.773438 105.109375 244.460938 105.109375 243.152344 105.761719 C 226.757812 95.269531 207.082031 89.367188 187.410156 89.367188 C 187.410156 88.714844 186.097656 88.714844 184.785156 88.714844 Z M 184.785156 88.714844 " fill-opacity="1" fill-rule="nonzero"/><path fill="#ffffff" d="M 123.796875 271.675781 C 132.324219 278.234375 141.503906 283.480469 151.339844 287.414062 C 161.832031 291.351562 172.328125 293.972656 183.476562 293.972656 C 183.476562 295.285156 184.785156 295.941406 186.097656 295.941406 C 187.410156 295.941406 188.722656 294.628906 188.722656 293.316406 C 188.722656 292.003906 187.410156 290.695312 186.097656 290.695312 C 184.785156 290.695312 184.128906 291.351562 183.476562 292.003906 C 162.488281 290.695312 141.503906 282.824219 125.109375 269.710938 C 125.765625 269.054688 125.109375 267.742188 124.453125 267.085938 C 123.144531 266.429688 121.832031 266.429688 121.175781 267.085938 C 120.519531 267.742188 120.519531 269.710938 121.175781 270.363281 C 121.832031 272.332031 123.144531 272.332031 123.796875 271.675781 Z M 123.796875 271.675781 " fill-opacity="1" fill-rule="nonzero"/><path fill="#ffffff" d="M 208.394531 293.972656 C 209.707031 293.972656 210.363281 292.660156 210.363281 292.003906 C 226.101562 288.726562 240.527344 281.511719 252.988281 271.675781 C 253.644531 272.332031 254.953125 272.332031 256.265625 271.675781 C 257.578125 271.019531 257.578125 269.054688 256.265625 268.398438 C 255.609375 267.085938 253.644531 267.085938 252.988281 268.398438 C 252.332031 269.054688 251.675781 270.363281 252.332031 271.019531 C 239.871094 280.859375 225.445312 288.070312 210.363281 291.351562 C 209.707031 290.695312 209.050781 290.039062 207.738281 290.039062 C 206.425781 290.039062 205.117188 291.351562 205.769531 293.316406 C 205.769531 293.316406 207.082031 294.628906 208.394531 293.972656 Z M 208.394531 293.972656 " fill-opacity="1" fill-rule="nonzero"/><path fill="#ffffff" d="M 209.050781 283.480469 C 209.707031 284.136719 211.015625 284.792969 211.671875 284.792969 C 212.984375 284.136719 213.640625 282.824219 213.640625 281.511719 C 212.984375 280.203125 211.671875 279.546875 210.363281 279.546875 C 209.050781 279.546875 208.394531 280.859375 208.394531 281.511719 C 201.835938 282.824219 194.621094 283.480469 188.066406 283.480469 C 184.128906 283.480469 180.195312 283.480469 176.261719 282.824219 C 176.261719 281.511719 174.949219 280.859375 174.292969 280.859375 C 172.980469 280.859375 171.671875 281.511719 171.671875 282.824219 C 171.671875 284.136719 172.328125 285.449219 173.636719 285.449219 C 174.949219 285.449219 175.605469 284.792969 176.261719 284.136719 C 180.195312 284.792969 184.128906 284.792969 188.722656 284.792969 C 195.277344 286.105469 202.492188 284.792969 209.050781 283.480469 Z M 209.050781 283.480469 " fill-opacity="1" fill-rule="nonzero"/><path fill="#ffffff" d="M 272.660156 237.574219 C 273.316406 236.265625 272.660156 234.953125 271.347656 234.296875 C 270.039062 233.640625 268.726562 234.296875 268.070312 235.609375 C 267.414062 236.265625 267.414062 237.574219 268.726562 238.230469 C 260.203125 252.660156 249.054688 263.808594 234.625 272.332031 C 233.96875 271.675781 232.660156 271.675781 232.003906 271.675781 C 230.691406 272.332031 230.035156 273.644531 230.691406 274.957031 C 231.347656 276.265625 232.660156 276.921875 233.96875 276.265625 C 235.28125 275.609375 235.28125 274.957031 235.28125 273.644531 C 249.707031 265.117188 261.511719 253.316406 270.039062 238.886719 C 270.695312 238.886719 272.003906 238.230469 272.660156 237.574219 Z M 272.660156 237.574219 " fill-opacity="1" fill-rule="nonzero"/><path fill="#ffffff" d="M 266.757812 138.550781 C 256.921875 124.125 243.152344 112.320312 227.414062 105.109375 C 227.414062 103.796875 226.757812 103.140625 226.101562 102.484375 C 224.789062 101.828125 223.476562 102.484375 222.820312 103.796875 C 222.164062 105.109375 222.820312 106.417969 224.132812 107.074219 C 225.445312 107.730469 226.101562 107.074219 226.757812 106.417969 C 259.546875 121.503906 281.1875 154.292969 281.1875 191.015625 C 281.1875 198.230469 280.53125 204.785156 279.21875 211.34375 C 277.90625 211.34375 277.25 212 277.25 213.3125 C 276.597656 214.625 277.90625 215.933594 279.21875 216.589844 C 280.53125 217.246094 281.84375 215.933594 282.496094 214.625 C 282.496094 213.3125 282.496094 212.65625 281.1875 212 C 282.496094 205.441406 283.808594 198.230469 283.808594 191.015625 C 282.496094 172.652344 277.25 154.292969 266.757812 138.550781 Z M 266.757812 138.550781 " fill-opacity="1" fill-rule="nonzero"/><path fill="#ffffff" d="M 194.621094 95.925781 C 193.3125 95.925781 192.65625 96.582031 192 97.238281 C 190.6875 97.238281 189.375 97.238281 188.066406 97.238281 C 180.851562 97.238281 173.636719 97.894531 166.425781 99.863281 C 165.769531 99.207031 164.457031 98.550781 163.800781 98.550781 C 162.488281 99.207031 161.832031 100.515625 161.832031 101.828125 C 162.488281 103.140625 163.800781 103.796875 165.113281 103.796875 C 166.425781 103.796875 167.082031 102.484375 167.082031 101.828125 C 174.292969 100.515625 180.851562 99.207031 188.066406 99.207031 C 189.375 99.207031 190.6875 99.207031 191.34375 99.207031 C 191.34375 100.515625 192.65625 101.171875 193.3125 101.171875 C 194.621094 101.171875 195.933594 100.515625 195.933594 98.550781 C 195.933594 96.582031 195.933594 95.925781 194.621094 95.925781 Z M 194.621094 95.925781 " fill-opacity="1" fill-rule="nonzero"/><path fill="#ffffff" d="M 124.453125 243.476562 C 123.144531 242.167969 121.832031 242.167969 120.519531 242.820312 C 119.207031 243.476562 119.207031 245.445312 119.863281 246.101562 C 120.519531 246.757812 121.832031 247.414062 122.488281 246.757812 C 131.667969 257.90625 144.128906 266.429688 157.242188 271.019531 C 157.242188 272.332031 157.898438 272.988281 159.210938 273.644531 C 160.523438 274.300781 161.832031 273.644531 162.488281 272.332031 C 163.144531 271.019531 162.488281 269.710938 161.179688 269.054688 C 159.867188 268.398438 159.210938 269.054688 158.554688 269.710938 C 145.4375 264.464844 133.636719 256.59375 124.453125 245.445312 C 125.109375 245.445312 125.109375 244.132812 124.453125 243.476562 Z M 124.453125 243.476562 " fill-opacity="1" fill-rule="nonzero"/><path fill="#ffffff" d="M 190.6875 278.890625 C 192 278.890625 192.65625 278.234375 193.3125 276.921875 C 208.394531 276.265625 223.476562 271.019531 235.9375 262.496094 C 236.59375 263.152344 237.90625 263.152344 239.214844 262.496094 C 240.527344 261.839844 240.527344 259.871094 239.871094 259.214844 C 239.214844 257.90625 237.25 257.90625 236.59375 258.5625 C 235.9375 259.214844 235.28125 260.527344 235.9375 261.183594 C 223.476562 269.710938 209.050781 274.300781 193.96875 274.957031 C 193.3125 274.300781 192.65625 273.644531 191.34375 273.644531 C 190.03125 273.644531 188.722656 274.957031 188.722656 276.265625 C 188.722656 277.578125 189.375 278.890625 190.6875 278.890625 Z M 190.6875 278.890625 " fill-opacity="1" fill-rule="nonzero"/><path fill="#ffffff" d="M 275.941406 185.113281 C 275.941406 183.800781 274.628906 182.488281 273.316406 182.488281 C 272.003906 182.488281 270.695312 183.800781 270.695312 185.113281 C 270.695312 186.425781 271.347656 187.082031 272.660156 187.082031 C 272.660156 188.390625 272.660156 189.703125 272.660156 191.015625 C 272.660156 208.066406 268.070312 223.804688 258.234375 237.574219 C 256.921875 237.574219 256.265625 237.574219 255.609375 238.230469 C 254.953125 239.542969 254.953125 240.855469 256.265625 241.511719 C 257.578125 242.167969 258.890625 242.167969 259.546875 240.855469 C 260.203125 240.199219 260.203125 238.886719 259.546875 237.574219 C 268.726562 223.148438 273.972656 206.753906 273.972656 189.703125 C 273.972656 188.390625 273.972656 187.082031 273.972656 185.769531 C 275.285156 187.082031 275.941406 186.425781 275.941406 185.113281 Z M 275.941406 185.113281 " fill-opacity="1" fill-rule="nonzero"/><path fill="#ffffff" d="M 251.019531 130.683594 C 249.707031 129.371094 248.398438 129.371094 247.085938 130.683594 C 245.773438 131.996094 245.773438 133.304688 247.085938 134.617188 C 247.742188 135.273438 249.054688 135.273438 249.707031 135.273438 C 254.953125 141.175781 259.546875 147.078125 262.824219 154.292969 C 262.167969 154.945312 262.167969 156.257812 262.167969 156.914062 C 262.824219 158.226562 264.136719 158.882812 265.449219 158.226562 C 266.757812 157.570312 267.414062 156.257812 266.757812 154.945312 C 266.101562 153.636719 265.449219 153.636719 264.136719 153.636719 C 260.855469 146.421875 256.265625 140.519531 251.019531 134.617188 C 252.332031 132.652344 251.675781 131.339844 251.019531 130.683594 Z M 251.019531 130.683594 " fill-opacity="1" fill-rule="nonzero"/><path fill="#ffffff" d="M 230.035156 114.289062 C 228.722656 113.632812 228.066406 113.632812 226.757812 114.945312 C 214.953125 109.042969 201.835938 105.761719 188.722656 105.761719 C 184.785156 105.761719 180.195312 105.761719 176.261719 106.417969 C 175.605469 105.761719 174.949219 105.109375 173.636719 105.109375 C 172.328125 105.109375 171.015625 106.417969 171.671875 108.386719 C 171.671875 109.699219 172.980469 111.007812 174.949219 110.355469 C 176.261719 110.355469 176.917969 109.042969 176.917969 108.386719 C 180.851562 107.730469 184.785156 107.730469 188.722656 107.730469 C 201.835938 107.730469 214.953125 111.007812 226.101562 116.910156 C 226.101562 118.222656 226.757812 118.878906 227.414062 119.535156 C 228.722656 120.191406 230.035156 119.535156 230.691406 118.222656 C 231.347656 116.910156 231.347656 114.945312 230.035156 114.289062 Z M 230.035156 114.289062 " fill-opacity="1" fill-rule="nonzero"/><path fill="#ffffff" d="M 157.898438 258.5625 C 156.585938 257.90625 155.277344 258.5625 154.621094 259.871094 C 153.964844 261.183594 154.621094 262.496094 155.933594 263.152344 C 157.242188 263.808594 157.898438 263.152344 159.210938 262.496094 C 168.390625 266.429688 178.882812 268.398438 188.722656 268.398438 C 192.65625 268.398438 197.246094 268.398438 201.179688 267.742188 C 201.835938 268.398438 202.492188 269.054688 203.804688 269.054688 C 205.117188 269.054688 205.769531 267.742188 205.769531 265.773438 C 205.769531 263.808594 204.460938 263.808594 202.492188 263.808594 C 201.179688 263.808594 200.523438 265.117188 200.523438 265.773438 C 196.589844 266.429688 192.65625 266.429688 188.722656 266.429688 C 178.882812 266.429688 169.046875 264.464844 159.867188 260.527344 C 159.210938 260.527344 159.210938 259.214844 157.898438 258.5625 Z M 157.898438 258.5625 " fill-opacity="1" fill-rule="nonzero"/><path fill="#ffffff" d="M 254.953125 230.363281 C 256.265625 230.363281 256.921875 230.363281 257.578125 229.050781 C 258.234375 227.738281 257.578125 226.425781 256.265625 225.773438 C 254.953125 225.117188 253.644531 225.773438 252.988281 227.082031 C 252.332031 227.738281 252.332031 229.050781 253.644531 229.707031 C 247.085938 240.855469 237.90625 250.691406 226.101562 257.25 C 225.445312 256.59375 224.132812 256.59375 223.476562 256.59375 C 222.164062 257.25 221.511719 258.5625 222.164062 259.871094 C 222.820312 261.183594 224.132812 261.839844 225.445312 261.183594 C 226.757812 260.527344 226.757812 259.871094 226.757812 258.5625 C 239.214844 251.347656 248.398438 242.167969 254.953125 230.363281 Z M 254.953125 230.363281 " fill-opacity="1" fill-rule="nonzero"/><path fill="#ffffff" d="M 260.855469 205.441406 C 260.855469 206.753906 261.511719 208.066406 262.824219 208.722656 C 264.136719 208.722656 265.449219 208.066406 266.101562 206.753906 C 266.101562 205.441406 266.101562 204.785156 264.792969 204.132812 C 265.449219 200.195312 265.449219 196.261719 265.449219 191.671875 C 265.449219 177.898438 262.167969 164.785156 254.953125 152.980469 C 255.609375 152.324219 255.609375 151.011719 254.953125 149.699219 C 254.300781 148.390625 252.332031 148.390625 251.675781 149.046875 C 251.019531 149.699219 250.363281 151.667969 251.019531 152.324219 C 251.675781 152.980469 252.988281 153.636719 253.644531 153.636719 C 260.203125 164.785156 263.480469 177.898438 263.480469 191.671875 C 263.480469 195.605469 263.480469 199.539062 262.824219 203.476562 C 262.167969 203.476562 260.855469 204.132812 260.855469 205.441406 Z M 260.855469 205.441406 " fill-opacity="1" fill-rule="nonzero"/><path fill="#ffffff" d="M 230.691406 126.75 C 218.230469 118.222656 203.148438 114.289062 188.066406 114.289062 C 180.851562 114.289062 174.292969 114.945312 167.082031 116.910156 C 166.425781 116.257812 165.113281 115.601562 164.457031 116.257812 C 163.144531 116.910156 162.488281 118.222656 163.144531 119.535156 C 163.800781 120.847656 165.113281 121.503906 166.425781 120.847656 C 167.734375 120.191406 168.390625 119.535156 168.390625 118.222656 C 174.949219 116.257812 181.507812 115.601562 188.722656 115.601562 C 203.804688 115.601562 217.574219 120.191406 230.035156 128.058594 C 230.035156 129.371094 230.035156 130.027344 230.691406 130.683594 C 232.003906 131.339844 233.3125 131.339844 233.96875 130.027344 C 234.625 128.714844 234.625 127.40625 233.3125 126.75 C 232.660156 126.09375 232.003906 126.09375 230.691406 126.75 Z M 230.691406 126.75 " fill-opacity="1" fill-rule="nonzero"/><path fill="#ffffff" d="M 132.324219 225.773438 C 131.667969 224.460938 130.355469 224.460938 129.042969 225.117188 C 127.734375 225.773438 127.734375 227.082031 128.390625 228.394531 C 129.042969 229.050781 130.355469 229.707031 131.011719 229.707031 C 134.289062 234.953125 138.226562 239.542969 142.816406 243.476562 C 147.40625 247.414062 152.652344 250.691406 157.898438 253.316406 C 157.898438 254.625 158.554688 255.28125 159.210938 255.9375 C 160.523438 256.59375 161.832031 255.9375 162.488281 254.625 C 163.144531 253.316406 162.488281 252.003906 161.179688 251.347656 C 159.867188 250.691406 159.210938 251.347656 158.554688 252.003906 C 148.0625 246.757812 138.882812 238.886719 132.324219 229.050781 C 132.980469 227.738281 132.980469 226.425781 132.324219 225.773438 Z M 132.324219 225.773438 " fill-opacity="1" fill-rule="nonzero"/><path fill="#ffffff" d="M 184.785156 258.5625 C 184.785156 257.25 183.476562 256.59375 182.820312 256.59375 C 181.507812 256.59375 180.195312 257.25 180.195312 258.5625 C 180.195312 259.871094 180.851562 261.183594 182.164062 261.183594 C 183.476562 261.183594 184.128906 260.527344 184.785156 259.871094 C 186.097656 259.871094 187.410156 259.871094 188.722656 259.871094 C 200.523438 259.871094 212.328125 256.59375 222.820312 250.691406 C 223.476562 251.347656 224.789062 251.347656 226.101562 250.691406 C 227.414062 250.035156 227.414062 248.066406 226.757812 247.414062 C 226.101562 246.101562 224.132812 246.101562 223.476562 246.757812 C 221.511719 248.070312 221.511719 248.722656 221.511719 250.035156 C 211.671875 255.9375 199.871094 258.5625 188.066406 258.5625 C 187.410156 258.5625 186.097656 258.5625 184.785156 258.5625 Z M 184.785156 258.5625 " fill-opacity="1" fill-rule="nonzero"/><path fill="#ffffff" d="M 240.527344 231.019531 C 239.871094 232.328125 239.871094 233.640625 241.183594 234.296875 C 242.496094 234.953125 243.808594 234.953125 244.460938 233.640625 C 245.117188 232.984375 245.117188 231.671875 244.460938 230.363281 C 248.398438 225.117188 251.019531 219.214844 253.644531 213.3125 C 256.265625 206.097656 257.578125 198.230469 257.578125 191.015625 C 257.578125 183.144531 256.265625 175.933594 253.644531 168.71875 C 254.300781 168.0625 254.953125 166.75 254.300781 166.09375 C 253.644531 164.785156 252.332031 164.128906 251.019531 164.785156 C 249.707031 165.441406 249.054688 166.75 249.707031 168.0625 C 250.363281 169.375 251.019531 169.375 252.332031 169.375 C 254.953125 176.589844 255.609375 183.800781 255.609375 191.015625 C 255.609375 204.785156 251.675781 218.558594 243.152344 229.707031 C 242.496094 229.707031 241.183594 230.363281 240.527344 231.019531 Z M 240.527344 231.019531 " fill-opacity="1" fill-rule="nonzero"/><path fill="#ffffff" d="M 233.96875 139.863281 C 227.414062 133.960938 218.886719 129.371094 210.363281 126.09375 C 210.363281 124.78125 209.707031 124.125 208.394531 123.46875 C 207.082031 122.8125 205.769531 124.125 205.117188 125.4375 C 204.460938 126.75 205.769531 128.058594 207.082031 128.714844 C 208.394531 128.714844 209.050781 128.714844 209.707031 128.058594 C 218.230469 130.683594 226.101562 135.273438 232.660156 141.175781 C 232.003906 141.832031 232.660156 143.144531 233.3125 143.800781 C 234.625 145.109375 235.9375 144.453125 237.25 143.800781 C 238.558594 143.144531 237.90625 141.175781 237.25 139.863281 C 235.9375 139.863281 234.625 139.207031 233.96875 139.863281 Z M 233.96875 139.863281 " fill-opacity="1" fill-rule="nonzero"/><path fill="#ffffff" d="M 217.574219 246.101562 C 218.886719 245.445312 218.886719 244.789062 218.886719 243.476562 C 224.789062 240.199219 230.035156 235.609375 234.625 230.363281 C 239.214844 225.117188 242.496094 219.214844 245.117188 213.3125 C 246.429688 213.3125 247.085938 212.65625 247.742188 211.34375 C 248.398438 210.03125 247.742188 208.722656 246.429688 208.066406 C 245.117188 207.410156 243.808594 208.066406 243.152344 209.378906 C 242.496094 210.6875 243.152344 211.34375 243.808594 212 C 239.214844 224.460938 230.035156 234.296875 218.886719 241.511719 C 218.230469 240.855469 216.917969 240.855469 216.265625 240.855469 C 214.953125 241.511719 214.296875 242.820312 214.953125 244.132812 C 214.296875 246.757812 216.265625 246.757812 217.574219 246.101562 Z M 217.574219 246.101562 " fill-opacity="1" fill-rule="nonzero"/><path fill="#ffffff" d="M 241.839844 160.195312 C 241.183594 158.882812 239.214844 158.882812 238.558594 159.539062 C 237.25 160.195312 237.25 162.160156 237.90625 162.816406 C 238.558594 163.472656 239.214844 164.128906 240.527344 164.128906 C 244.460938 171.339844 246.429688 178.554688 247.085938 186.425781 C 246.429688 187.082031 245.773438 187.738281 245.773438 189.046875 C 245.773438 190.359375 247.085938 191.671875 248.398438 191.671875 C 249.707031 191.671875 251.019531 190.359375 251.019531 189.046875 C 251.019531 187.734375 250.363281 187.082031 249.054688 186.425781 C 248.398438 178.554688 245.773438 170.6875 242.496094 163.472656 C 242.496094 162.816406 242.496094 161.503906 241.839844 160.195312 Z M 241.839844 160.195312 " fill-opacity="1" fill-rule="nonzero"/><path fill="#ffffff" d="M 219.542969 143.800781 C 220.855469 144.453125 222.164062 144.453125 222.820312 143.144531 C 223.476562 141.832031 223.476562 140.519531 222.164062 139.863281 C 221.511719 139.207031 220.199219 139.207031 218.886719 139.863281 C 209.707031 134.617188 199.214844 131.339844 188.066406 131.339844 C 183.476562 131.339844 179.539062 131.996094 174.949219 132.652344 C 174.292969 131.996094 172.980469 131.339844 172.328125 131.339844 C 171.015625 131.996094 170.359375 133.304688 170.359375 134.617188 C 171.015625 135.929688 172.328125 136.585938 173.636719 136.585938 C 174.949219 136.585938 175.605469 135.273438 175.605469 134.617188 C 179.539062 133.960938 184.128906 133.304688 188.066406 133.304688 C 198.558594 133.304688 209.050781 135.929688 217.574219 141.175781 C 218.230469 141.832031 218.230469 143.144531 219.542969 143.800781 Z M 219.542969 143.800781 " fill-opacity="1" fill-rule="nonzero"/><path fill="#ffffff" d="M 148.0625 231.671875 C 147.40625 230.363281 145.4375 230.363281 144.128906 231.671875 C 142.816406 232.328125 142.816406 234.296875 144.128906 235.609375 C 144.785156 236.265625 146.09375 236.921875 147.40625 236.265625 C 152.652344 240.855469 158.554688 244.789062 164.457031 247.414062 C 171.671875 250.691406 179.539062 252.003906 188.066406 252.003906 C 189.375 252.003906 190.6875 252.003906 192 252.003906 C 192.65625 253.316406 193.3125 253.316406 194.621094 253.316406 C 195.933594 253.316406 197.246094 252.003906 196.589844 250.691406 C 196.589844 249.378906 195.277344 248.066406 193.96875 248.722656 C 192.65625 248.722656 192 249.378906 192 250.691406 C 190.6875 250.691406 189.375 250.691406 188.722656 250.691406 C 173.636719 250.691406 159.867188 245.445312 149.375 235.609375 C 149.375 233.640625 149.375 232.984375 148.0625 231.671875 Z M 148.0625 231.671875 " fill-opacity="1" fill-rule="nonzero"/></svg>