<svg xmlns="http://www.w3.org/2000/svg" xmlns:xlink="http://www.w3.org/1999/xlink" width="512" zoomAndPan="magnify" viewBox="0 0 384 383.999986" height="512" preserveAspectRatio="xMidYMid meet" version="1.0"><defs><g/><clipPath id="1824a63c7e"><path d="M 250 117 L 328.648438 117 L 328.648438 186 L 250 186 Z M 250 117 " clip-rule="nonzero"/></clipPath><clipPath id="a19d6f31b7"><path d="M 145 296 L 224 296 L 224 364.949219 L 145 364.949219 Z M 145 296 " clip-rule="nonzero"/></clipPath><clipPath id="89ce01bef7"><path d="M 38.398438 187 L 117 187 L 117 256 L 38.398438 256 Z M 38.398438 187 " clip-rule="nonzero"/></clipPath><clipPath id="bb2005c66e"><path d="M 262 19.199219 L 318 19.199219 L 318 68 L 262 68 Z M 262 19.199219 " clip-rule="nonzero"/></clipPath></defs><g fill="#ffffff" fill-opacity="1"><g transform="translate(239.32868, 325.349857)"><g><path d="M 23.140625 0.796875 C 20.796875 0.796875 18.578125 0.445312 16.484375 -0.25 C 14.398438 -0.945312 12.5 -1.925781 10.78125 -3.1875 C 9.0625 -4.457031 7.570312 -5.957031 6.3125 -7.6875 C 5.050781 -9.414062 4.078125 -11.316406 3.390625 -13.390625 C 2.710938 -15.460938 2.375 -17.648438 2.375 -19.953125 C 2.375 -22.273438 2.710938 -24.472656 3.390625 -26.546875 C 4.078125 -28.628906 5.050781 -30.535156 6.3125 -32.265625 C 7.570312 -33.992188 9.0625 -35.488281 10.78125 -36.75 C 12.5 -38.007812 14.398438 -38.984375 16.484375 -39.671875 C 18.578125 -40.367188 20.796875 -40.71875 23.140625 -40.71875 C 25.253906 -40.71875 27.316406 -40.421875 29.328125 -39.828125 C 31.335938 -39.234375 33.191406 -38.332031 34.890625 -37.125 C 36.585938 -35.925781 38.039062 -34.421875 39.25 -32.609375 C 40.46875 -30.804688 41.320312 -28.707031 41.8125 -26.3125 L 36.53125 -26.3125 C 35.925781 -28.457031 34.96875 -30.242188 33.65625 -31.671875 C 32.351562 -33.097656 30.785156 -34.164062 28.953125 -34.875 C 27.128906 -35.59375 25.144531 -35.953125 23 -35.953125 C 20.832031 -35.953125 18.8125 -35.5625 16.9375 -34.78125 C 15.0625 -34 13.425781 -32.890625 12.03125 -31.453125 C 10.632812 -30.015625 9.539062 -28.320312 8.75 -26.375 C 7.957031 -24.4375 7.5625 -22.296875 7.5625 -19.953125 C 7.5625 -17.609375 7.957031 -15.457031 8.75 -13.5 C 9.539062 -11.550781 10.632812 -9.867188 12.03125 -8.453125 C 13.425781 -7.035156 15.0625 -5.941406 16.9375 -5.171875 C 18.8125 -4.398438 20.832031 -4.015625 23 -4.015625 C 25.144531 -4.015625 27.125 -4.367188 28.9375 -5.078125 C 30.757812 -5.796875 32.328125 -6.867188 33.640625 -8.296875 C 34.960938 -9.722656 35.914062 -11.5 36.5 -13.625 L 41.8125 -13.625 C 41.320312 -11.21875 40.472656 -9.109375 39.265625 -7.296875 C 38.066406 -5.492188 36.617188 -3.992188 34.921875 -2.796875 C 33.222656 -1.597656 31.367188 -0.695312 29.359375 -0.09375 C 27.347656 0.5 25.273438 0.796875 23.140625 0.796875 Z M 23.140625 0.796875 "/></g></g></g><g fill="#ffffff" fill-opacity="1"><g transform="translate(283.529032, 325.349857)"><g><path d="M 20.0625 0 L 5.421875 0 L 5.421875 -39.84375 L 19.984375 -39.84375 C 23.128906 -39.84375 25.988281 -39.367188 28.5625 -38.421875 C 31.144531 -37.472656 33.363281 -36.117188 35.21875 -34.359375 C 37.070312 -32.609375 38.492188 -30.515625 39.484375 -28.078125 C 40.484375 -25.648438 40.984375 -22.941406 40.984375 -19.953125 C 40.984375 -16.960938 40.484375 -14.238281 39.484375 -11.78125 C 38.492188 -9.332031 37.078125 -7.226562 35.234375 -5.46875 C 33.390625 -3.71875 31.1875 -2.367188 28.625 -1.421875 C 26.0625 -0.472656 23.207031 0 20.0625 0 Z M 10.515625 -35.21875 L 10.515625 -4.6875 L 19.953125 -4.6875 C 23.210938 -4.6875 26.019531 -5.304688 28.375 -6.546875 C 30.726562 -7.785156 32.546875 -9.539062 33.828125 -11.8125 C 35.109375 -14.09375 35.75 -16.765625 35.75 -19.828125 C 35.75 -22.921875 35.109375 -25.617188 33.828125 -27.921875 C 32.546875 -30.222656 30.71875 -32.015625 28.34375 -33.296875 C 25.96875 -34.578125 23.128906 -35.21875 19.828125 -35.21875 Z M 10.515625 -35.21875 "/></g></g></g><g fill="#ffffff" fill-opacity="1"><g transform="translate(324.917296, 325.349857)"><g><path d="M 22.359375 0 L 17.546875 0 L 0.59375 -39.84375 L 6.09375 -39.84375 L 19.921875 -6.703125 L 20.015625 -6.796875 L 33.78125 -39.84375 L 39.28125 -39.84375 Z M 22.359375 0 "/></g></g></g><path fill="#ffffff" d="M 201.433594 255.714844 L 162.964844 255.714844 C 162.746094 255.714844 162.542969 255.597656 162.433594 255.410156 L 143.199219 222.09375 C 143.089844 221.90625 143.089844 221.671875 143.199219 221.480469 L 162.433594 188.164062 C 162.542969 187.972656 162.746094 187.859375 162.964844 187.859375 L 201.433594 187.859375 C 201.65625 187.859375 201.855469 187.976562 201.96875 188.164062 L 221.203125 221.480469 C 221.3125 221.671875 221.3125 221.90625 221.203125 222.09375 L 201.96875 255.410156 C 201.859375 255.601562 201.65625 255.714844 201.433594 255.714844 Z M 163.320312 254.488281 L 201.082031 254.488281 L 219.960938 221.785156 L 201.082031 189.085938 L 163.320312 189.085938 L 144.4375 221.785156 Z M 163.320312 254.488281 " fill-opacity="1" fill-rule="nonzero"/><path fill="#ffffff" d="M 208.1875 131.359375 L 169.71875 131.359375 C 169.5 131.359375 169.296875 131.242188 169.1875 131.050781 L 149.953125 97.734375 C 149.84375 97.546875 149.84375 97.3125 149.953125 97.121094 L 169.1875 63.804688 C 169.296875 63.617188 169.5 63.5 169.71875 63.5 L 208.1875 63.5 C 208.40625 63.5 208.609375 63.617188 208.71875 63.804688 L 227.953125 97.121094 C 228.0625 97.3125 228.0625 97.546875 227.953125 97.734375 L 208.71875 131.050781 C 208.609375 131.242188 208.410156 131.359375 208.1875 131.359375 Z M 170.074219 130.128906 L 207.832031 130.128906 L 226.714844 97.429688 L 207.832031 64.726562 L 170.074219 64.726562 L 151.191406 97.429688 Z M 170.074219 130.128906 " fill-opacity="1" fill-rule="nonzero"/><g clip-path="url(#1824a63c7e)"><path fill="#ffffff" d="M 309.113281 185.394531 L 270.644531 185.394531 C 270.425781 185.394531 270.222656 185.277344 270.113281 185.089844 L 250.878906 151.773438 C 250.769531 151.582031 250.769531 151.347656 250.878906 151.160156 L 270.113281 117.84375 C 270.222656 117.652344 270.425781 117.535156 270.644531 117.535156 L 309.113281 117.535156 C 309.332031 117.535156 309.535156 117.652344 309.648438 117.84375 L 328.882812 151.160156 C 328.992188 151.347656 328.992188 151.582031 328.882812 151.773438 L 309.648438 185.089844 C 309.539062 185.277344 309.335938 185.394531 309.113281 185.394531 Z M 271 184.167969 L 308.761719 184.167969 L 327.640625 151.464844 L 308.761719 118.761719 L 271 118.761719 L 252.117188 151.464844 Z M 271 184.167969 " fill-opacity="1" fill-rule="nonzero"/></g><g clip-path="url(#a19d6f31b7)"><path fill="#ffffff" d="M 203.921875 364.761719 L 165.449219 364.761719 C 165.230469 364.761719 165.03125 364.644531 164.917969 364.457031 L 145.683594 331.140625 C 145.574219 330.949219 145.574219 330.71875 145.683594 330.527344 L 164.917969 297.210938 C 165.027344 297.019531 165.230469 296.90625 165.449219 296.90625 L 203.921875 296.90625 C 204.140625 296.90625 204.34375 297.023438 204.453125 297.210938 L 223.6875 330.527344 C 223.796875 330.71875 223.796875 330.949219 223.6875 331.140625 L 204.453125 364.457031 C 204.34375 364.648438 204.140625 364.761719 203.921875 364.761719 Z M 165.804688 363.535156 L 203.566406 363.535156 L 222.449219 330.832031 L 203.566406 298.132812 L 165.804688 298.132812 L 146.925781 330.832031 Z M 165.804688 363.535156 " fill-opacity="1" fill-rule="nonzero"/></g><g clip-path="url(#89ce01bef7)"><path fill="#ffffff" d="M 96.746094 255.714844 L 58.273438 255.714844 C 58.054688 255.714844 57.851562 255.597656 57.742188 255.410156 L 38.507812 222.09375 C 38.398438 221.90625 38.398438 221.671875 38.507812 221.480469 L 57.742188 188.164062 C 57.851562 187.972656 58.054688 187.859375 58.273438 187.859375 L 96.746094 187.859375 C 96.964844 187.859375 97.167969 187.976562 97.277344 188.164062 L 116.511719 221.480469 C 116.621094 221.671875 116.621094 221.90625 116.511719 222.09375 L 97.277344 255.410156 C 97.167969 255.601562 96.964844 255.714844 96.746094 255.714844 Z M 58.628906 254.488281 L 96.390625 254.488281 L 115.269531 221.785156 L 96.390625 189.085938 L 58.628906 189.085938 L 39.75 221.785156 Z M 58.628906 254.488281 " fill-opacity="1" fill-rule="nonzero"/></g><g clip-path="url(#bb2005c66e)"><path fill="#ffffff" d="M 303.652344 67.554688 L 276.109375 67.554688 C 276 67.554688 275.898438 67.496094 275.84375 67.398438 L 262.070312 43.546875 C 262.015625 43.453125 262.015625 43.335938 262.070312 43.242188 L 275.84375 19.386719 C 275.898438 19.292969 276 19.234375 276.109375 19.234375 L 303.652344 19.234375 C 303.761719 19.234375 303.863281 19.292969 303.917969 19.386719 L 317.6875 43.242188 C 317.742188 43.335938 317.742188 43.453125 317.6875 43.546875 L 303.917969 67.398438 C 303.863281 67.496094 303.761719 67.554688 303.652344 67.554688 Z M 276.285156 66.9375 L 303.472656 66.9375 L 317.066406 43.394531 L 303.472656 19.847656 L 276.285156 19.847656 L 262.691406 43.394531 Z M 276.285156 66.9375 " fill-opacity="1" fill-rule="nonzero"/></g><path fill="#ffffff" d="M 248.667969 208.941406 L 221.125 208.941406 C 221.015625 208.941406 220.914062 208.882812 220.859375 208.785156 L 207.089844 184.933594 C 207.03125 184.839844 207.03125 184.722656 207.089844 184.628906 L 220.859375 160.773438 C 220.914062 160.679688 221.015625 160.621094 221.125 160.621094 L 248.667969 160.621094 C 248.777344 160.621094 248.878906 160.679688 248.933594 160.773438 L 262.707031 184.628906 C 262.761719 184.722656 262.761719 184.839844 262.707031 184.933594 L 248.933594 208.785156 C 248.878906 208.882812 248.777344 208.941406 248.667969 208.941406 Z M 221.300781 208.328125 L 248.492188 208.328125 L 262.085938 184.78125 L 248.492188 161.234375 L 221.300781 161.234375 L 207.707031 184.78125 Z M 221.300781 208.328125 " fill-opacity="1" fill-rule="nonzero"/><path fill="#ffffff" d="M 106.046875 183.160156 L 78.503906 183.160156 C 78.394531 183.160156 78.292969 183.101562 78.238281 183.007812 L 64.464844 159.15625 C 64.410156 159.0625 64.410156 158.941406 64.464844 158.847656 L 78.238281 134.996094 C 78.292969 134.902344 78.394531 134.84375 78.503906 134.84375 L 106.046875 134.84375 C 106.15625 134.84375 106.257812 134.902344 106.3125 134.996094 L 120.082031 158.847656 C 120.136719 158.941406 120.136719 159.0625 120.082031 159.15625 L 106.3125 183.007812 C 106.257812 183.101562 106.15625 183.160156 106.046875 183.160156 Z M 78.679688 182.546875 L 105.867188 182.546875 L 119.460938 159 L 105.867188 135.457031 L 78.679688 135.457031 L 65.085938 159 Z M 78.679688 182.546875 " fill-opacity="1" fill-rule="nonzero"/><path fill="#ffffff" d="M 261.984375 264.777344 L 234.441406 264.777344 C 234.332031 264.777344 234.230469 264.71875 234.175781 264.625 L 220.402344 240.769531 C 220.347656 240.675781 220.347656 240.558594 220.402344 240.464844 L 234.175781 216.613281 C 234.230469 216.515625 234.332031 216.457031 234.441406 216.457031 L 261.984375 216.457031 C 262.09375 216.457031 262.195312 216.515625 262.25 216.613281 L 276.019531 240.464844 C 276.078125 240.558594 276.078125 240.675781 276.019531 240.769531 L 262.25 264.625 C 262.195312 264.71875 262.09375 264.777344 261.984375 264.777344 Z M 234.617188 264.164062 L 261.804688 264.164062 L 275.402344 240.617188 L 261.804688 217.074219 L 234.617188 217.074219 L 221.023438 240.617188 Z M 234.617188 264.164062 " fill-opacity="1" fill-rule="nonzero"/><path fill="#ffffff" d="M 109.488281 308.730469 L 81.945312 308.730469 C 81.835938 308.730469 81.734375 308.671875 81.679688 308.578125 L 67.90625 284.726562 C 67.851562 284.632812 67.851562 284.515625 67.90625 284.417969 L 81.679688 260.566406 C 81.734375 260.472656 81.835938 260.414062 81.945312 260.414062 L 109.488281 260.414062 C 109.597656 260.414062 109.699219 260.472656 109.753906 260.566406 L 123.527344 284.417969 C 123.582031 284.515625 123.582031 284.632812 123.527344 284.726562 L 109.753906 308.578125 C 109.699219 308.671875 109.597656 308.730469 109.488281 308.730469 Z M 82.121094 308.117188 L 109.3125 308.117188 L 122.90625 284.574219 L 109.3125 261.027344 L 82.121094 261.027344 L 68.527344 284.574219 Z M 82.121094 308.117188 " fill-opacity="1" fill-rule="nonzero"/><path fill="#ffffff" d="M 184.691406 336.460938 L 122.296875 336.460938 C 121.640625 336.460938 121.03125 336.109375 120.703125 335.539062 L 89.503906 281.503906 C 89.175781 280.9375 89.175781 280.234375 89.503906 279.664062 L 120.703125 225.628906 C 121.03125 225.058594 121.636719 224.707031 122.296875 224.707031 L 184.691406 224.707031 C 185.347656 224.707031 185.957031 225.058594 186.285156 225.628906 L 217.484375 279.664062 C 217.8125 280.234375 217.8125 280.9375 217.484375 281.503906 L 186.285156 335.539062 C 185.957031 336.109375 185.351562 336.460938 184.691406 336.460938 Z M 123.359375 332.777344 L 183.628906 332.777344 L 213.761719 280.582031 L 183.628906 228.390625 L 123.359375 228.390625 L 93.226562 280.582031 Z M 123.359375 332.777344 " fill-opacity="1" fill-rule="nonzero"/><path fill="#ffffff" d="M 220.859375 280.585938 C 220.859375 281.027344 220.816406 281.46875 220.730469 281.902344 C 220.640625 282.335938 220.515625 282.757812 220.34375 283.167969 C 220.175781 283.578125 219.96875 283.96875 219.722656 284.335938 C 219.472656 284.703125 219.195312 285.046875 218.882812 285.359375 C 218.566406 285.671875 218.226562 285.953125 217.859375 286.199219 C 217.488281 286.445312 217.101562 286.652344 216.691406 286.824219 C 216.28125 286.992188 215.859375 287.121094 215.421875 287.207031 C 214.988281 287.292969 214.550781 287.335938 214.105469 287.335938 C 213.664062 287.335938 213.222656 287.292969 212.789062 287.207031 C 212.355469 287.121094 211.929688 286.992188 211.523438 286.824219 C 211.113281 286.652344 210.722656 286.445312 210.355469 286.199219 C 209.984375 285.953125 209.644531 285.671875 209.332031 285.359375 C 209.019531 285.046875 208.738281 284.703125 208.492188 284.335938 C 208.246094 283.96875 208.035156 283.578125 207.867188 283.167969 C 207.699219 282.757812 207.570312 282.335938 207.484375 281.902344 C 207.398438 281.46875 207.351562 281.027344 207.351562 280.585938 C 207.351562 280.140625 207.398438 279.703125 207.484375 279.265625 C 207.570312 278.832031 207.699219 278.410156 207.867188 278 C 208.035156 277.589844 208.246094 277.203125 208.492188 276.832031 C 208.738281 276.464844 209.019531 276.121094 209.332031 275.808594 C 209.644531 275.496094 209.984375 275.214844 210.355469 274.96875 C 210.722656 274.722656 211.113281 274.515625 211.523438 274.34375 C 211.929688 274.175781 212.355469 274.046875 212.789062 273.960938 C 213.222656 273.875 213.664062 273.832031 214.105469 273.832031 C 214.550781 273.832031 214.988281 273.875 215.421875 273.960938 C 215.859375 274.046875 216.28125 274.175781 216.691406 274.34375 C 217.101562 274.515625 217.488281 274.722656 217.859375 274.96875 C 218.226562 275.214844 218.566406 275.496094 218.882812 275.808594 C 219.195312 276.121094 219.472656 276.464844 219.722656 276.832031 C 219.96875 277.203125 220.175781 277.589844 220.34375 278 C 220.515625 278.410156 220.640625 278.832031 220.730469 279.265625 C 220.816406 279.703125 220.859375 280.140625 220.859375 280.585938 Z M 220.859375 280.585938 " fill-opacity="1" fill-rule="nonzero"/><path fill="#ffffff" d="M 191.4375 226.550781 C 191.4375 226.992188 191.394531 227.433594 191.308594 227.867188 C 191.222656 228.300781 191.09375 228.722656 190.925781 229.132812 C 190.753906 229.542969 190.546875 229.933594 190.300781 230.300781 C 190.054688 230.667969 189.773438 231.011719 189.460938 231.324219 C 189.148438 231.636719 188.804688 231.917969 188.4375 232.164062 C 188.070312 232.410156 187.679688 232.617188 187.269531 232.789062 C 186.859375 232.957031 186.4375 233.085938 186.003906 233.171875 C 185.566406 233.257812 185.128906 233.300781 184.683594 233.300781 C 184.242188 233.300781 183.804688 233.257812 183.367188 233.171875 C 182.933594 233.085938 182.511719 232.957031 182.101562 232.789062 C 181.691406 232.617188 181.300781 232.410156 180.933594 232.164062 C 180.566406 231.917969 180.222656 231.636719 179.910156 231.324219 C 179.597656 231.011719 179.316406 230.667969 179.070312 230.300781 C 178.824219 229.933594 178.617188 229.542969 178.445312 229.132812 C 178.277344 228.722656 178.148438 228.300781 178.0625 227.867188 C 177.976562 227.433594 177.933594 226.992188 177.933594 226.550781 C 177.933594 226.105469 177.976562 225.667969 178.0625 225.230469 C 178.148438 224.796875 178.277344 224.375 178.445312 223.964844 C 178.617188 223.554688 178.824219 223.167969 179.070312 222.796875 C 179.316406 222.429688 179.597656 222.089844 179.910156 221.773438 C 180.222656 221.460938 180.566406 221.179688 180.933594 220.933594 C 181.300781 220.6875 181.691406 220.480469 182.101562 220.3125 C 182.511719 220.140625 182.933594 220.011719 183.367188 219.925781 C 183.804688 219.839844 184.242188 219.796875 184.683594 219.796875 C 185.128906 219.796875 185.566406 219.839844 186.003906 219.925781 C 186.4375 220.011719 186.859375 220.140625 187.269531 220.3125 C 187.679688 220.480469 188.070312 220.6875 188.4375 220.933594 C 188.804688 221.179688 189.148438 221.460938 189.460938 221.773438 C 189.773438 222.089844 190.054688 222.429688 190.300781 222.796875 C 190.546875 223.167969 190.753906 223.554688 190.925781 223.964844 C 191.09375 224.375 191.222656 224.796875 191.308594 225.230469 C 191.394531 225.667969 191.4375 226.105469 191.4375 226.550781 Z M 191.4375 226.550781 " fill-opacity="1" fill-rule="nonzero"/><path fill="#ffffff" d="M 182.207031 214.757812 L 119.8125 214.757812 C 119.152344 214.757812 118.546875 214.40625 118.214844 213.835938 L 87.019531 159.800781 C 86.6875 159.230469 86.6875 158.53125 87.019531 157.960938 L 118.214844 103.925781 C 118.546875 103.355469 119.152344 103.003906 119.8125 103.003906 L 182.207031 103.003906 C 182.863281 103.003906 183.472656 103.355469 183.800781 103.925781 L 215 157.960938 C 215.328125 158.53125 215.328125 159.230469 215 159.800781 L 183.800781 213.835938 C 183.472656 214.40625 182.863281 214.757812 182.207031 214.757812 Z M 120.875 211.074219 L 181.144531 211.074219 L 211.277344 158.878906 L 181.144531 106.683594 L 120.875 106.683594 L 90.738281 158.878906 Z M 120.875 211.074219 " fill-opacity="1" fill-rule="nonzero"/><path fill="#ffffff" d="M 218.375 158.878906 C 218.375 159.324219 218.332031 159.761719 218.242188 160.195312 C 218.15625 160.632812 218.027344 161.054688 217.859375 161.464844 C 217.691406 161.875 217.480469 162.261719 217.234375 162.632812 C 216.988281 163 216.710938 163.339844 216.394531 163.65625 C 216.082031 163.96875 215.742188 164.25 215.371094 164.496094 C 215.003906 164.742188 214.613281 164.949219 214.203125 165.117188 C 213.796875 165.289062 213.371094 165.417969 212.9375 165.503906 C 212.503906 165.589844 212.0625 165.632812 211.621094 165.632812 C 211.175781 165.632812 210.738281 165.589844 210.304688 165.503906 C 209.867188 165.417969 209.445312 165.289062 209.035156 165.117188 C 208.625 164.949219 208.238281 164.742188 207.867188 164.496094 C 207.5 164.25 207.160156 163.96875 206.84375 163.65625 C 206.53125 163.339844 206.253906 163 206.003906 162.632812 C 205.757812 162.261719 205.550781 161.875 205.382812 161.464844 C 205.210938 161.054688 205.085938 160.632812 204.996094 160.195312 C 204.910156 159.761719 204.867188 159.324219 204.867188 158.878906 C 204.867188 158.4375 204.910156 157.996094 204.996094 157.5625 C 205.085938 157.128906 205.210938 156.707031 205.382812 156.296875 C 205.550781 155.886719 205.757812 155.496094 206.003906 155.128906 C 206.253906 154.757812 206.53125 154.417969 206.84375 154.105469 C 207.160156 153.792969 207.5 153.511719 207.867188 153.265625 C 208.238281 153.019531 208.625 152.8125 209.035156 152.640625 C 209.445312 152.472656 209.867188 152.34375 210.304688 152.257812 C 210.738281 152.171875 211.175781 152.128906 211.621094 152.128906 C 212.0625 152.128906 212.503906 152.171875 212.9375 152.257812 C 213.371094 152.34375 213.796875 152.472656 214.203125 152.640625 C 214.613281 152.8125 215.003906 153.019531 215.371094 153.265625 C 215.742188 153.511719 216.082031 153.792969 216.394531 154.105469 C 216.710938 154.417969 216.988281 154.757812 217.234375 155.128906 C 217.480469 155.496094 217.691406 155.886719 217.859375 156.296875 C 218.027344 156.707031 218.15625 157.128906 218.242188 157.5625 C 218.332031 157.996094 218.375 158.4375 218.375 158.878906 Z M 218.375 158.878906 " fill-opacity="1" fill-rule="nonzero"/><path fill="#ffffff" d="M 188.953125 104.84375 C 188.953125 105.289062 188.910156 105.726562 188.824219 106.164062 C 188.738281 106.597656 188.609375 107.019531 188.441406 107.429688 C 188.269531 107.839844 188.0625 108.226562 187.816406 108.597656 C 187.570312 108.964844 187.289062 109.304688 186.976562 109.621094 C 186.664062 109.933594 186.320312 110.214844 185.953125 110.460938 C 185.585938 110.707031 185.195312 110.914062 184.785156 111.082031 C 184.375 111.253906 183.953125 111.382812 183.519531 111.46875 C 183.082031 111.554688 182.644531 111.597656 182.199219 111.597656 C 181.757812 111.597656 181.320312 111.554688 180.882812 111.46875 C 180.449219 111.382812 180.027344 111.253906 179.617188 111.082031 C 179.207031 110.914062 178.816406 110.707031 178.449219 110.460938 C 178.082031 110.214844 177.738281 109.933594 177.425781 109.621094 C 177.113281 109.304688 176.832031 108.964844 176.585938 108.597656 C 176.339844 108.226562 176.132812 107.839844 175.960938 107.429688 C 175.792969 107.019531 175.664062 106.597656 175.578125 106.164062 C 175.492188 105.726562 175.449219 105.289062 175.449219 104.84375 C 175.449219 104.402344 175.492188 103.960938 175.578125 103.527344 C 175.664062 103.09375 175.792969 102.671875 175.960938 102.261719 C 176.132812 101.851562 176.339844 101.460938 176.585938 101.09375 C 176.832031 100.722656 177.113281 100.382812 177.425781 100.070312 C 177.738281 99.757812 178.082031 99.476562 178.449219 99.230469 C 178.816406 98.984375 179.207031 98.777344 179.617188 98.605469 C 180.027344 98.4375 180.449219 98.308594 180.882812 98.222656 C 181.320312 98.136719 181.757812 98.09375 182.199219 98.09375 C 182.644531 98.09375 183.082031 98.136719 183.519531 98.222656 C 183.953125 98.308594 184.375 98.4375 184.785156 98.605469 C 185.195312 98.777344 185.585938 98.984375 185.953125 99.230469 C 186.320312 99.476562 186.664062 99.757812 186.976562 100.070312 C 187.289062 100.382812 187.570312 100.722656 187.816406 101.09375 C 188.0625 101.460938 188.269531 101.851562 188.441406 102.261719 C 188.609375 102.671875 188.738281 103.09375 188.824219 103.527344 C 188.910156 103.960938 188.953125 104.402344 188.953125 104.84375 Z M 188.953125 104.84375 " fill-opacity="1" fill-rule="nonzero"/><path fill="#ffffff" d="M 289.882812 153.304688 L 227.488281 153.304688 C 226.832031 153.304688 226.222656 152.957031 225.894531 152.386719 L 194.695312 98.351562 C 194.367188 97.78125 194.367188 97.078125 194.695312 96.507812 L 225.894531 42.472656 C 226.222656 41.90625 226.832031 41.554688 227.488281 41.554688 L 289.882812 41.554688 C 290.542969 41.554688 291.148438 41.90625 291.480469 42.472656 L 322.675781 96.507812 C 323.007812 97.078125 323.007812 97.78125 322.675781 98.351562 L 291.480469 152.386719 C 291.148438 152.957031 290.542969 153.304688 289.882812 153.304688 Z M 228.550781 149.625 L 288.820312 149.625 L 318.957031 97.429688 L 288.820312 45.234375 L 228.550781 45.234375 L 198.417969 97.429688 Z M 228.550781 149.625 " fill-opacity="1" fill-rule="nonzero"/><path fill="#ffffff" d="M 326.054688 97.429688 C 326.054688 97.871094 326.007812 98.3125 325.921875 98.746094 C 325.835938 99.179688 325.707031 99.601562 325.539062 100.011719 C 325.367188 100.421875 325.160156 100.8125 324.914062 101.179688 C 324.667969 101.550781 324.386719 101.890625 324.074219 102.203125 C 323.761719 102.515625 323.421875 102.796875 323.050781 103.042969 C 322.683594 103.289062 322.292969 103.496094 321.882812 103.667969 C 321.472656 103.835938 321.050781 103.964844 320.617188 104.050781 C 320.183594 104.136719 319.742188 104.179688 319.300781 104.179688 C 318.855469 104.179688 318.417969 104.136719 317.984375 104.050781 C 317.546875 103.964844 317.125 103.835938 316.714844 103.667969 C 316.304688 103.496094 315.917969 103.289062 315.546875 103.042969 C 315.179688 102.796875 314.839844 102.515625 314.523438 102.203125 C 314.210938 101.890625 313.929688 101.550781 313.683594 101.179688 C 313.4375 100.8125 313.230469 100.421875 313.0625 100.011719 C 312.890625 99.601562 312.761719 99.179688 312.675781 98.746094 C 312.589844 98.3125 312.546875 97.871094 312.546875 97.429688 C 312.546875 96.984375 312.589844 96.546875 312.675781 96.109375 C 312.761719 95.675781 312.890625 95.253906 313.0625 94.84375 C 313.230469 94.433594 313.4375 94.046875 313.683594 93.675781 C 313.929688 93.308594 314.210938 92.96875 314.523438 92.652344 C 314.839844 92.339844 315.179688 92.058594 315.546875 91.8125 C 315.917969 91.566406 316.304688 91.359375 316.714844 91.191406 C 317.125 91.019531 317.546875 90.890625 317.984375 90.804688 C 318.417969 90.71875 318.855469 90.675781 319.300781 90.675781 C 319.742188 90.675781 320.183594 90.71875 320.617188 90.804688 C 321.050781 90.890625 321.472656 91.019531 321.882812 91.191406 C 322.292969 91.359375 322.683594 91.566406 323.050781 91.8125 C 323.421875 92.058594 323.761719 92.339844 324.074219 92.652344 C 324.386719 92.96875 324.667969 93.308594 324.914062 93.675781 C 325.160156 94.046875 325.367188 94.433594 325.539062 94.84375 C 325.707031 95.253906 325.835938 95.675781 325.921875 96.109375 C 326.007812 96.546875 326.054688 96.984375 326.054688 97.429688 Z M 326.054688 97.429688 " fill-opacity="1" fill-rule="nonzero"/><path fill="#ffffff" d="M 296.632812 43.394531 C 296.632812 43.835938 296.589844 44.277344 296.503906 44.710938 C 296.414062 45.144531 296.289062 45.566406 296.117188 45.976562 C 295.949219 46.386719 295.742188 46.777344 295.492188 47.144531 C 295.246094 47.515625 294.96875 47.855469 294.65625 48.167969 C 294.339844 48.480469 294 48.761719 293.632812 49.007812 C 293.261719 49.253906 292.875 49.460938 292.464844 49.632812 C 292.054688 49.800781 291.632812 49.929688 291.195312 50.015625 C 290.761719 50.101562 290.324219 50.148438 289.878906 50.148438 C 289.4375 50.148438 288.996094 50.101562 288.5625 50.015625 C 288.128906 49.929688 287.703125 49.800781 287.296875 49.632812 C 286.886719 49.460938 286.496094 49.253906 286.128906 49.007812 C 285.757812 48.761719 285.417969 48.480469 285.105469 48.167969 C 284.789062 47.855469 284.511719 47.515625 284.265625 47.144531 C 284.019531 46.777344 283.808594 46.386719 283.640625 45.976562 C 283.472656 45.566406 283.34375 45.144531 283.257812 44.710938 C 283.167969 44.277344 283.125 43.835938 283.125 43.394531 C 283.125 42.949219 283.167969 42.511719 283.257812 42.078125 C 283.34375 41.640625 283.472656 41.21875 283.640625 40.808594 C 283.808594 40.398438 284.019531 40.011719 284.265625 39.640625 C 284.511719 39.273438 284.789062 38.933594 285.105469 38.617188 C 285.417969 38.304688 285.757812 38.023438 286.128906 37.777344 C 286.496094 37.53125 286.886719 37.324219 287.296875 37.15625 C 287.703125 36.984375 288.128906 36.855469 288.5625 36.769531 C 288.996094 36.683594 289.4375 36.640625 289.878906 36.640625 C 290.324219 36.640625 290.761719 36.683594 291.195312 36.769531 C 291.632812 36.855469 292.054688 36.984375 292.464844 37.15625 C 292.875 37.324219 293.261719 37.53125 293.632812 37.777344 C 294 38.023438 294.339844 38.304688 294.65625 38.617188 C 294.96875 38.933594 295.246094 39.273438 295.492188 39.640625 C 295.742188 40.011719 295.949219 40.398438 296.117188 40.808594 C 296.289062 41.21875 296.414062 41.640625 296.503906 42.078125 C 296.589844 42.511719 296.632812 42.949219 296.632812 43.394531 Z M 296.632812 43.394531 " fill-opacity="1" fill-rule="nonzero"/></svg>