<svg xmlns="http://www.w3.org/2000/svg" xmlns:xlink="http://www.w3.org/1999/xlink" width="512" zoomAndPan="magnify" viewBox="0 0 384 383.999986" height="512" preserveAspectRatio="xMidYMid meet" version="1.0"><defs><clipPath id="36db0efeed"><path d="M 163 86 L 220 86 L 220 299 L 163 299 Z M 163 86 " clip-rule="nonzero"/></clipPath><clipPath id="7fa250c623"><path d="M 193.800781 -28.210938 L 412.296875 190.285156 L 190.089844 412.492188 L -28.40625 193.996094 Z M 193.800781 -28.210938 " clip-rule="nonzero"/></clipPath><clipPath id="534d1fae80"><path d="M 193.800781 -28.210938 L 412.296875 190.285156 L 190.089844 412.492188 L -28.40625 193.996094 Z M 193.800781 -28.210938 " clip-rule="nonzero"/></clipPath><clipPath id="7a7f77e1fc"><path d="M 162 83 L 221 83 L 221 301 L 162 301 Z M 162 83 " clip-rule="nonzero"/></clipPath><clipPath id="5aa5dd9327"><path d="M 193.800781 -28.210938 L 412.296875 190.285156 L 190.089844 412.492188 L -28.40625 193.996094 Z M 193.800781 -28.210938 " clip-rule="nonzero"/></clipPath><clipPath id="2cbc2d179d"><path d="M 193.800781 -28.210938 L 412.296875 190.285156 L 190.089844 412.492188 L -28.40625 193.996094 Z M 193.800781 -28.210938 " clip-rule="nonzero"/></clipPath><clipPath id="3b734e6faf"><path d="M 161 80 L 223 80 L 223 304 L 161 304 Z M 161 80 " clip-rule="nonzero"/></clipPath><clipPath id="3597bb8f5c"><path d="M 193.800781 -28.210938 L 412.296875 190.285156 L 190.089844 412.492188 L -28.40625 193.996094 Z M 193.800781 -28.210938 " clip-rule="nonzero"/></clipPath><clipPath id="7be09895ec"><path d="M 193.800781 -28.210938 L 412.296875 190.285156 L 190.089844 412.492188 L -28.40625 193.996094 Z M 193.800781 -28.210938 " clip-rule="nonzero"/></clipPath><clipPath id="32137c7876"><path d="M 159 78 L 224 78 L 224 307 L 159 307 Z M 159 78 " clip-rule="nonzero"/></clipPath><clipPath id="bdce80fc51"><path d="M 193.800781 -28.210938 L 412.296875 190.285156 L 190.089844 412.492188 L -28.40625 193.996094 Z M 193.800781 -28.210938 " clip-rule="nonzero"/></clipPath><clipPath id="7912320da4"><path d="M 193.800781 -28.210938 L 412.296875 190.285156 L 190.089844 412.492188 L -28.40625 193.996094 Z M 193.800781 -28.210938 " clip-rule="nonzero"/></clipPath><clipPath id="debfab0fb9"><path d="M 157 75 L 226 75 L 226 309 L 157 309 Z M 157 75 " clip-rule="nonzero"/></clipPath><clipPath id="04199f8ce8"><path d="M 193.800781 -28.210938 L 412.296875 190.285156 L 190.089844 412.492188 L -28.40625 193.996094 Z M 193.800781 -28.210938 " clip-rule="nonzero"/></clipPath><clipPath id="26a6eaa463"><path d="M 193.800781 -28.210938 L 412.296875 190.285156 L 190.089844 412.492188 L -28.40625 193.996094 Z M 193.800781 -28.210938 " clip-rule="nonzero"/></clipPath><clipPath id="f2a55f0651"><path d="M 155 73 L 228 73 L 228 312 L 155 312 Z M 155 73 " clip-rule="nonzero"/></clipPath><clipPath id="d40b16a980"><path d="M 193.800781 -28.210938 L 412.296875 190.285156 L 190.089844 412.492188 L -28.40625 193.996094 Z M 193.800781 -28.210938 " clip-rule="nonzero"/></clipPath><clipPath id="2e4513cc76"><path d="M 193.800781 -28.210938 L 412.296875 190.285156 L 190.089844 412.492188 L -28.40625 193.996094 Z M 193.800781 -28.210938 " clip-rule="nonzero"/></clipPath><clipPath id="57d41e2032"><path d="M 153 70 L 230 70 L 230 314 L 153 314 Z M 153 70 " clip-rule="nonzero"/></clipPath><clipPath id="49e53d42b7"><path d="M 193.800781 -28.210938 L 412.296875 190.285156 L 190.089844 412.492188 L -28.40625 193.996094 Z M 193.800781 -28.210938 " clip-rule="nonzero"/></clipPath><clipPath id="b9c728b6f3"><path d="M 193.800781 -28.210938 L 412.296875 190.285156 L 190.089844 412.492188 L -28.40625 193.996094 Z M 193.800781 -28.210938 " clip-rule="nonzero"/></clipPath><clipPath id="ec06fab231"><path d="M 151 68 L 233 68 L 233 316 L 151 316 Z M 151 68 " clip-rule="nonzero"/></clipPath><clipPath id="3cbb3599aa"><path d="M 193.800781 -28.210938 L 412.296875 190.285156 L 190.089844 412.492188 L -28.40625 193.996094 Z M 193.800781 -28.210938 " clip-rule="nonzero"/></clipPath><clipPath id="e98aa208b3"><path d="M 193.800781 -28.210938 L 412.296875 190.285156 L 190.089844 412.492188 L -28.40625 193.996094 Z M 193.800781 -28.210938 " clip-rule="nonzero"/></clipPath><clipPath id="2d874cc8fb"><path d="M 148 66 L 235 66 L 235 319 L 148 319 Z M 148 66 " clip-rule="nonzero"/></clipPath><clipPath id="c3b0dc0045"><path d="M 193.800781 -28.210938 L 412.296875 190.285156 L 190.089844 412.492188 L -28.40625 193.996094 Z M 193.800781 -28.210938 " clip-rule="nonzero"/></clipPath><clipPath id="b364c6ff7c"><path d="M 193.800781 -28.210938 L 412.296875 190.285156 L 190.089844 412.492188 L -28.40625 193.996094 Z M 193.800781 -28.210938 " clip-rule="nonzero"/></clipPath><clipPath id="010e709420"><path d="M 146 64 L 238 64 L 238 321 L 146 321 Z M 146 64 " clip-rule="nonzero"/></clipPath><clipPath id="e6c1b67ebf"><path d="M 193.800781 -28.210938 L 412.296875 190.285156 L 190.089844 412.492188 L -28.40625 193.996094 Z M 193.800781 -28.210938 " clip-rule="nonzero"/></clipPath><clipPath id="28405eb080"><path d="M 193.800781 -28.210938 L 412.296875 190.285156 L 190.089844 412.492188 L -28.40625 193.996094 Z M 193.800781 -28.210938 " clip-rule="nonzero"/></clipPath><clipPath id="90f7e2c1b3"><path d="M 143 62 L 241 62 L 241 322 L 143 322 Z M 143 62 " clip-rule="nonzero"/></clipPath><clipPath id="62e34e8dd4"><path d="M 193.800781 -28.210938 L 412.296875 190.285156 L 190.089844 412.492188 L -28.40625 193.996094 Z M 193.800781 -28.210938 " clip-rule="nonzero"/></clipPath><clipPath id="ad23973b11"><path d="M 193.800781 -28.210938 L 412.296875 190.285156 L 190.089844 412.492188 L -28.40625 193.996094 Z M 193.800781 -28.210938 " clip-rule="nonzero"/></clipPath><clipPath id="7f2cfd3915"><path d="M 140 60 L 244 60 L 244 324 L 140 324 Z M 140 60 " clip-rule="nonzero"/></clipPath><clipPath id="a60545d643"><path d="M 193.800781 -28.210938 L 412.296875 190.285156 L 190.089844 412.492188 L -28.40625 193.996094 Z M 193.800781 -28.210938 " clip-rule="nonzero"/></clipPath><clipPath id="2f87c40d97"><path d="M 193.800781 -28.210938 L 412.296875 190.285156 L 190.089844 412.492188 L -28.40625 193.996094 Z M 193.800781 -28.210938 " clip-rule="nonzero"/></clipPath><clipPath id="d7e119667d"><path d="M 136 59 L 247 59 L 247 326 L 136 326 Z M 136 59 " clip-rule="nonzero"/></clipPath><clipPath id="b0e38a6156"><path d="M 193.800781 -28.210938 L 412.296875 190.285156 L 190.089844 412.492188 L -28.40625 193.996094 Z M 193.800781 -28.210938 " clip-rule="nonzero"/></clipPath><clipPath id="89df311d26"><path d="M 193.800781 -28.210938 L 412.296875 190.285156 L 190.089844 412.492188 L -28.40625 193.996094 Z M 193.800781 -28.210938 " clip-rule="nonzero"/></clipPath><clipPath id="471fb9b4bc"><path d="M 133 58 L 250 58 L 250 327 L 133 327 Z M 133 58 " clip-rule="nonzero"/></clipPath><clipPath id="b3bebeb933"><path d="M 193.800781 -28.210938 L 412.296875 190.285156 L 190.089844 412.492188 L -28.40625 193.996094 Z M 193.800781 -28.210938 " clip-rule="nonzero"/></clipPath><clipPath id="86981e8a29"><path d="M 193.800781 -28.210938 L 412.296875 190.285156 L 190.089844 412.492188 L -28.40625 193.996094 Z M 193.800781 -28.210938 " clip-rule="nonzero"/></clipPath><clipPath id="46799394f6"><path d="M 130 56 L 254 56 L 254 328 L 130 328 Z M 130 56 " clip-rule="nonzero"/></clipPath><clipPath id="e8eaff3f6c"><path d="M 193.800781 -28.210938 L 412.296875 190.285156 L 190.089844 412.492188 L -28.40625 193.996094 Z M 193.800781 -28.210938 " clip-rule="nonzero"/></clipPath><clipPath id="7c828f7339"><path d="M 193.800781 -28.210938 L 412.296875 190.285156 L 190.089844 412.492188 L -28.40625 193.996094 Z M 193.800781 -28.210938 " clip-rule="nonzero"/></clipPath><clipPath id="e81a8dbbfc"><path d="M 126 55 L 258 55 L 258 329 L 126 329 Z M 126 55 " clip-rule="nonzero"/></clipPath><clipPath id="d4089f68f6"><path d="M 193.800781 -28.210938 L 412.296875 190.285156 L 190.089844 412.492188 L -28.40625 193.996094 Z M 193.800781 -28.210938 " clip-rule="nonzero"/></clipPath><clipPath id="455e3cf4d3"><path d="M 193.800781 -28.210938 L 412.296875 190.285156 L 190.089844 412.492188 L -28.40625 193.996094 Z M 193.800781 -28.210938 " clip-rule="nonzero"/></clipPath><clipPath id="ace440b0a7"><path d="M 122 55 L 261 55 L 261 330 L 122 330 Z M 122 55 " clip-rule="nonzero"/></clipPath><clipPath id="75df3b0e93"><path d="M 193.800781 -28.210938 L 412.296875 190.285156 L 190.089844 412.492188 L -28.40625 193.996094 Z M 193.800781 -28.210938 " clip-rule="nonzero"/></clipPath><clipPath id="3498451fbc"><path d="M 193.800781 -28.210938 L 412.296875 190.285156 L 190.089844 412.492188 L -28.40625 193.996094 Z M 193.800781 -28.210938 " clip-rule="nonzero"/></clipPath><clipPath id="c0036d8938"><path d="M 118 54 L 265 54 L 265 331 L 118 331 Z M 118 54 " clip-rule="nonzero"/></clipPath><clipPath id="cab490789f"><path d="M 193.800781 -28.210938 L 412.296875 190.285156 L 190.089844 412.492188 L -28.40625 193.996094 Z M 193.800781 -28.210938 " clip-rule="nonzero"/></clipPath><clipPath id="e6a5ec808f"><path d="M 193.800781 -28.210938 L 412.296875 190.285156 L 190.089844 412.492188 L -28.40625 193.996094 Z M 193.800781 -28.210938 " clip-rule="nonzero"/></clipPath><clipPath id="9ae908d9e3"><path d="M 114 53 L 269 53 L 269 331 L 114 331 Z M 114 53 " clip-rule="nonzero"/></clipPath><clipPath id="8635a0fefa"><path d="M 193.800781 -28.210938 L 412.296875 190.285156 L 190.089844 412.492188 L -28.40625 193.996094 Z M 193.800781 -28.210938 " clip-rule="nonzero"/></clipPath><clipPath id="268426e55d"><path d="M 193.800781 -28.210938 L 412.296875 190.285156 L 190.089844 412.492188 L -28.40625 193.996094 Z M 193.800781 -28.210938 " clip-rule="nonzero"/></clipPath><clipPath id="5a1e7bdfe9"><path d="M 110 53 L 274 53 L 274 332 L 110 332 Z M 110 53 " clip-rule="nonzero"/></clipPath><clipPath id="f2394bdaf3"><path d="M 193.800781 -28.210938 L 412.296875 190.285156 L 190.089844 412.492188 L -28.40625 193.996094 Z M 193.800781 -28.210938 " clip-rule="nonzero"/></clipPath><clipPath id="b7915fcc73"><path d="M 193.800781 -28.210938 L 412.296875 190.285156 L 190.089844 412.492188 L -28.40625 193.996094 Z M 193.800781 -28.210938 " clip-rule="nonzero"/></clipPath><clipPath id="0129d78317"><path d="M 105 53 L 278 53 L 278 332 L 105 332 Z M 105 53 " clip-rule="nonzero"/></clipPath><clipPath id="27d96f6aaa"><path d="M 193.800781 -28.210938 L 412.296875 190.285156 L 190.089844 412.492188 L -28.40625 193.996094 Z M 193.800781 -28.210938 " clip-rule="nonzero"/></clipPath><clipPath id="05f57e6084"><path d="M 193.800781 -28.210938 L 412.296875 190.285156 L 190.089844 412.492188 L -28.40625 193.996094 Z M 193.800781 -28.210938 " clip-rule="nonzero"/></clipPath><clipPath id="0082cf0cdb"><path d="M 101 53 L 282 53 L 282 332 L 101 332 Z M 101 53 " clip-rule="nonzero"/></clipPath><clipPath id="ca9c36ff99"><path d="M 193.800781 -28.210938 L 412.296875 190.285156 L 190.089844 412.492188 L -28.40625 193.996094 Z M 193.800781 -28.210938 " clip-rule="nonzero"/></clipPath><clipPath id="7a6807db6d"><path d="M 193.800781 -28.210938 L 412.296875 190.285156 L 190.089844 412.492188 L -28.40625 193.996094 Z M 193.800781 -28.210938 " clip-rule="nonzero"/></clipPath><clipPath id="077de8faea"><path d="M 96 53 L 287 53 L 287 332 L 96 332 Z M 96 53 " clip-rule="nonzero"/></clipPath><clipPath id="ba025c28d8"><path d="M 193.800781 -28.210938 L 412.296875 190.285156 L 190.089844 412.492188 L -28.40625 193.996094 Z M 193.800781 -28.210938 " clip-rule="nonzero"/></clipPath><clipPath id="5dde1b8398"><path d="M 193.800781 -28.210938 L 412.296875 190.285156 L 190.089844 412.492188 L -28.40625 193.996094 Z M 193.800781 -28.210938 " clip-rule="nonzero"/></clipPath><clipPath id="fd162ae7ef"><path d="M 92 52 L 292 52 L 292 332 L 92 332 Z M 92 52 " clip-rule="nonzero"/></clipPath><clipPath id="8dc923f967"><path d="M 193.800781 -28.210938 L 412.296875 190.285156 L 190.089844 412.492188 L -28.40625 193.996094 Z M 193.800781 -28.210938 " clip-rule="nonzero"/></clipPath><clipPath id="7d5586f5e3"><path d="M 193.800781 -28.210938 L 412.296875 190.285156 L 190.089844 412.492188 L -28.40625 193.996094 Z M 193.800781 -28.210938 " clip-rule="nonzero"/></clipPath><clipPath id="e205c282da"><path d="M 87 52 L 296 52 L 296 332 L 87 332 Z M 87 52 " clip-rule="nonzero"/></clipPath><clipPath id="5f5d165921"><path d="M 193.800781 -28.210938 L 412.296875 190.285156 L 190.089844 412.492188 L -28.40625 193.996094 Z M 193.800781 -28.210938 " clip-rule="nonzero"/></clipPath><clipPath id="f2a3372338"><path d="M 193.800781 -28.210938 L 412.296875 190.285156 L 190.089844 412.492188 L -28.40625 193.996094 Z M 193.800781 -28.210938 " clip-rule="nonzero"/></clipPath><clipPath id="5266f74b79"><path d="M 82 52 L 301 52 L 301 332 L 82 332 Z M 82 52 " clip-rule="nonzero"/></clipPath><clipPath id="5a3a1124bf"><path d="M 193.800781 -28.210938 L 412.296875 190.285156 L 190.089844 412.492188 L -28.40625 193.996094 Z M 193.800781 -28.210938 " clip-rule="nonzero"/></clipPath><clipPath id="e9fad050ff"><path d="M 193.800781 -28.210938 L 412.296875 190.285156 L 190.089844 412.492188 L -28.40625 193.996094 Z M 193.800781 -28.210938 " clip-rule="nonzero"/></clipPath><clipPath id="29b7d238f3"><path d="M 77 52 L 306 52 L 306 332 L 77 332 Z M 77 52 " clip-rule="nonzero"/></clipPath><clipPath id="881b054f18"><path d="M 193.800781 -28.210938 L 412.296875 190.285156 L 190.089844 412.492188 L -28.40625 193.996094 Z M 193.800781 -28.210938 " clip-rule="nonzero"/></clipPath><clipPath id="61e1a39c38"><path d="M 193.800781 -28.210938 L 412.296875 190.285156 L 190.089844 412.492188 L -28.40625 193.996094 Z M 193.800781 -28.210938 " clip-rule="nonzero"/></clipPath><clipPath id="9d78ee3f0c"><path d="M 72 52 L 311 52 L 311 333 L 72 333 Z M 72 52 " clip-rule="nonzero"/></clipPath><clipPath id="3132c21820"><path d="M 193.800781 -28.210938 L 412.296875 190.285156 L 190.089844 412.492188 L -28.40625 193.996094 Z M 193.800781 -28.210938 " clip-rule="nonzero"/></clipPath><clipPath id="225f48a19c"><path d="M 193.800781 -28.210938 L 412.296875 190.285156 L 190.089844 412.492188 L -28.40625 193.996094 Z M 193.800781 -28.210938 " clip-rule="nonzero"/></clipPath><clipPath id="6091f08e37"><path d="M 67 51 L 316 51 L 316 333 L 67 333 Z M 67 51 " clip-rule="nonzero"/></clipPath><clipPath id="dff744d1e9"><path d="M 193.800781 -28.210938 L 412.296875 190.285156 L 190.089844 412.492188 L -28.40625 193.996094 Z M 193.800781 -28.210938 " clip-rule="nonzero"/></clipPath><clipPath id="351c3d8f1b"><path d="M 193.800781 -28.210938 L 412.296875 190.285156 L 190.089844 412.492188 L -28.40625 193.996094 Z M 193.800781 -28.210938 " clip-rule="nonzero"/></clipPath><clipPath id="d252c606cb"><path d="M 62 51 L 321 51 L 321 334 L 62 334 Z M 62 51 " clip-rule="nonzero"/></clipPath><clipPath id="fceaea90e5"><path d="M 193.800781 -28.210938 L 412.296875 190.285156 L 190.089844 412.492188 L -28.40625 193.996094 Z M 193.800781 -28.210938 " clip-rule="nonzero"/></clipPath><clipPath id="6b6a33fa64"><path d="M 193.800781 -28.210938 L 412.296875 190.285156 L 190.089844 412.492188 L -28.40625 193.996094 Z M 193.800781 -28.210938 " clip-rule="nonzero"/></clipPath><clipPath id="1f551afd9d"><path d="M 57 49 L 326 49 L 326 335 L 57 335 Z M 57 49 " clip-rule="nonzero"/></clipPath><clipPath id="15be562a93"><path d="M 193.800781 -28.210938 L 412.296875 190.285156 L 190.089844 412.492188 L -28.40625 193.996094 Z M 193.800781 -28.210938 " clip-rule="nonzero"/></clipPath><clipPath id="6b78725eba"><path d="M 193.800781 -28.210938 L 412.296875 190.285156 L 190.089844 412.492188 L -28.40625 193.996094 Z M 193.800781 -28.210938 " clip-rule="nonzero"/></clipPath><clipPath id="04801b68e6"><path d="M 52 47 L 331 47 L 331 337 L 52 337 Z M 52 47 " clip-rule="nonzero"/></clipPath><clipPath id="566dc96f19"><path d="M 193.800781 -28.210938 L 412.296875 190.285156 L 190.089844 412.492188 L -28.40625 193.996094 Z M 193.800781 -28.210938 " clip-rule="nonzero"/></clipPath><clipPath id="4d87e6b71e"><path d="M 193.800781 -28.210938 L 412.296875 190.285156 L 190.089844 412.492188 L -28.40625 193.996094 Z M 193.800781 -28.210938 " clip-rule="nonzero"/></clipPath><clipPath id="de63966989"><path d="M 47 45 L 336 45 L 336 340 L 47 340 Z M 47 45 " clip-rule="nonzero"/></clipPath><clipPath id="f9ed32a2a9"><path d="M 193.800781 -28.210938 L 412.296875 190.285156 L 190.089844 412.492188 L -28.40625 193.996094 Z M 193.800781 -28.210938 " clip-rule="nonzero"/></clipPath><clipPath id="ed7a5d1f40"><path d="M 193.800781 -28.210938 L 412.296875 190.285156 L 190.089844 412.492188 L -28.40625 193.996094 Z M 193.800781 -28.210938 " clip-rule="nonzero"/></clipPath><clipPath id="be782bec2b"><path d="M 203.683594 -13.78125 L 397.648438 180.183594 L 179.574219 398.257812 L -14.390625 204.292969 Z M 203.683594 -13.78125 " clip-rule="nonzero"/></clipPath><clipPath id="b1247857bb"><path d="M 42 42 L 341 42 L 341 343 L 42 343 Z M 42 42 " clip-rule="nonzero"/></clipPath><clipPath id="d23fe337d1"><path d="M 193.800781 -28.210938 L 412.296875 190.285156 L 190.089844 412.492188 L -28.40625 193.996094 Z M 193.800781 -28.210938 " clip-rule="nonzero"/></clipPath><clipPath id="dcd5104d08"><path d="M 193.800781 -28.210938 L 412.296875 190.285156 L 190.089844 412.492188 L -28.40625 193.996094 Z M 193.800781 -28.210938 " clip-rule="nonzero"/></clipPath><clipPath id="b2dba22f06"><path d="M 197.996094 -19.46875 L 403.335938 185.871094 L 185.261719 403.945312 L -20.078125 198.609375 Z M 197.996094 -19.46875 " clip-rule="nonzero"/></clipPath><clipPath id="3619e7fead"><path d="M 37 38 L 346 38 L 346 347 L 37 347 Z M 37 38 " clip-rule="nonzero"/></clipPath><clipPath id="359fe32a43"><path d="M 193.800781 -28.210938 L 412.296875 190.285156 L 190.089844 412.492188 L -28.40625 193.996094 Z M 193.800781 -28.210938 " clip-rule="nonzero"/></clipPath><clipPath id="2cb5becb59"><path d="M 193.800781 -28.210938 L 412.296875 190.285156 L 190.089844 412.492188 L -28.40625 193.996094 Z M 193.800781 -28.210938 " clip-rule="nonzero"/></clipPath></defs><g clip-path="url(#36db0efeed)"><g clip-path="url(#7fa250c623)"><g clip-path="url(#534d1fae80)"><path fill="#ffffff" d="M 200.851562 90.449219 C 198.933594 88.53125 196.9375 87.472656 194.882812 87.332031 C 188.492188 86.902344 181.984375 95.542969 176.558594 111.675781 C 164.019531 148.941406 160.761719 215.4375 169.289062 259.902344 C 173.746094 283.113281 180.734375 296.722656 188.480469 297.246094 C 194.871094 297.679688 201.378906 289.03125 206.804688 272.90625 C 219.339844 235.636719 222.601562 169.140625 214.070312 124.675781 C 210.800781 107.625 206.152344 95.75 200.851562 90.449219 Z M 182.042969 294.691406 C 176.574219 289.222656 171.828125 277.21875 168.535156 260.046875 C 159.984375 215.472656 163.253906 148.804688 175.828125 111.429688 C 181.378906 94.9375 188.160156 86.109375 194.933594 86.566406 C 203.054688 87.113281 210.304688 100.949219 214.828125 124.53125 C 223.378906 169.109375 220.105469 235.773438 207.535156 273.148438 C 201.984375 289.640625 195.203125 298.46875 188.429688 298.015625 C 186.222656 297.867188 184.082031 296.734375 182.042969 294.691406 " fill-opacity="1" fill-rule="nonzero"/></g></g></g><g clip-path="url(#7a7f77e1fc)"><g clip-path="url(#5aa5dd9327)"><g clip-path="url(#2cbc2d179d)"><path fill="#ffffff" d="M 202.816406 87.671875 C 200.929688 85.78125 198.945312 84.710938 196.890625 84.523438 C 190.429688 83.914062 183.664062 92.261719 177.84375 108.03125 C 164.078125 145.292969 159.242188 213.425781 167.0625 259.90625 C 171.226562 284.65625 178.300781 299.289062 186.472656 300.058594 C 192.933594 300.664062 199.699219 292.316406 205.519531 276.550781 C 219.285156 239.285156 224.117188 171.152344 216.300781 124.671875 C 213.183594 106.148438 208.4375 93.289062 202.816406 87.671875 Z M 180.078125 297.472656 C 174.289062 291.683594 169.441406 278.6875 166.304688 260.035156 C 158.46875 213.441406 163.320312 145.132812 177.121094 107.761719 C 184.753906 87.097656 192.125 83.300781 196.960938 83.753906 C 205.507812 84.5625 212.832031 99.425781 217.058594 124.546875 C 224.898438 171.136719 220.046875 239.445312 206.242188 276.816406 C 198.605469 297.480469 191.238281 301.277344 186.402344 300.824219 C 184.203125 300.617188 182.082031 299.476562 180.078125 297.472656 " fill-opacity="1" fill-rule="nonzero"/></g></g></g><g clip-path="url(#3b734e6faf)"><g clip-path="url(#3597bb8f5c)"><g clip-path="url(#7be09895ec)"><path fill="#ffffff" d="M 204.910156 84.984375 C 203.042969 83.121094 201.070312 82.035156 199.011719 81.785156 C 192.480469 80.996094 185.464844 89.027344 179.25 104.386719 C 164.21875 141.542969 157.71875 211.226562 164.761719 259.71875 C 168.589844 286.050781 175.722656 301.75 184.355469 302.789062 C 190.882812 303.578125 197.898438 295.554688 204.113281 280.191406 C 219.144531 243.035156 225.644531 173.351562 218.601562 124.859375 C 215.691406 104.820312 210.859375 90.933594 204.910156 84.984375 Z M 177.984375 300.160156 C 171.867188 294.042969 166.929688 280.011719 164 259.828125 C 156.941406 211.222656 163.460938 141.363281 178.539062 104.097656 C 186.6875 83.957031 194.21875 80.433594 199.101562 81.023438 C 208.101562 82.109375 215.484375 98.046875 219.363281 124.75 C 226.425781 173.359375 219.902344 243.21875 204.828125 280.480469 C 196.679688 300.617188 189.144531 304.144531 184.261719 303.554688 C 182.0625 303.289062 179.960938 302.136719 177.984375 300.160156 " fill-opacity="1" fill-rule="nonzero"/></g></g></g><g clip-path="url(#32137c7876)"><g clip-path="url(#bdce80fc51)"><g clip-path="url(#7912320da4)"><path fill="#ffffff" d="M 207.128906 82.402344 C 205.28125 80.554688 203.3125 79.449219 201.246094 79.144531 C 194.652344 78.167969 187.378906 85.84375 180.78125 100.761719 C 164.445312 137.695312 156.195312 208.832031 162.390625 259.328125 C 165.820312 287.28125 173.011719 304.085938 182.117188 305.433594 C 188.710938 306.414062 195.980469 298.734375 202.582031 283.816406 C 218.917969 246.882812 227.167969 175.746094 220.972656 125.25 C 218.320312 103.644531 213.421875 88.695312 207.128906 82.402344 Z M 175.769531 302.753906 C 169.296875 296.28125 164.300781 281.179688 161.628906 259.421875 C 155.414062 208.808594 163.695312 137.496094 180.078125 100.449219 C 186.929688 84.964844 194.289062 77.335938 201.359375 78.382812 C 210.835938 79.785156 218.257812 96.835938 221.738281 125.15625 C 227.949219 175.769531 219.667969 247.085938 203.28125 284.128906 C 196.433594 299.613281 189.074219 307.246094 182 306.195312 C 179.804688 305.867188 177.71875 304.703125 175.769531 302.753906 " fill-opacity="1" fill-rule="nonzero"/></g></g></g><g clip-path="url(#debfab0fb9)"><g clip-path="url(#04199f8ce8)"><g clip-path="url(#26a6eaa463)"><path fill="#ffffff" d="M 209.316406 79.855469 C 207.519531 78.058594 205.609375 76.957031 203.605469 76.605469 C 196.933594 75.425781 189.421875 82.726562 182.445312 97.164062 C 164.765625 133.761719 154.671875 206.238281 159.953125 258.722656 C 162.886719 287.890625 170.292969 306.300781 179.757812 307.976562 C 186.429688 309.15625 193.945312 301.851562 200.917969 287.417969 C 218.601562 250.816406 228.691406 178.34375 223.410156 125.855469 C 221.101562 102.859375 216.007812 86.546875 209.316406 79.855469 Z M 173.429688 305.230469 C 166.585938 298.390625 161.539062 282.179688 159.1875 258.800781 C 153.898438 206.195312 164.019531 133.535156 181.753906 96.828125 C 188.992188 81.839844 196.597656 74.585938 203.742188 75.847656 C 213.714844 77.609375 221.160156 95.808594 224.179688 125.777344 C 229.46875 178.382812 219.34375 251.042969 201.609375 287.75 C 194.371094 302.738281 186.769531 309.996094 179.625 308.730469 C 177.429688 308.34375 175.355469 307.15625 173.429688 305.230469 " fill-opacity="1" fill-rule="nonzero"/></g></g></g><g clip-path="url(#f2a55f0651)"><g clip-path="url(#d40b16a980)"><g clip-path="url(#2e4513cc76)"><path fill="#ffffff" d="M 211.773438 77.492188 C 209.996094 75.710938 208.09375 74.589844 206.085938 74.179688 C 199.242188 72.765625 191.6875 79.484375 184.242188 93.605469 C 165.179688 129.742188 153.160156 203.433594 157.449219 257.886719 C 159.875 288.714844 167.289062 308.34375 177.277344 310.402344 C 184.121094 311.816406 191.675781 305.09375 199.121094 290.972656 C 218.183594 254.839844 230.199219 181.140625 225.914062 126.6875 C 223.976562 102.058594 218.851562 84.570312 211.773438 77.492188 Z M 170.960938 307.589844 C 163.730469 300.359375 158.652344 282.992188 156.679688 257.949219 C 152.386719 203.375 164.445312 129.488281 183.558594 93.246094 C 191.183594 78.789062 199.027344 71.9375 206.242188 73.421875 C 216.742188 75.59375 224.191406 94.980469 226.679688 126.628906 C 230.976562 181.203125 218.921875 255.085938 199.804688 291.332031 C 192.179688 305.789062 184.335938 312.640625 177.121094 311.152344 C 174.929688 310.703125 172.871094 309.5 170.960938 307.589844 " fill-opacity="1" fill-rule="nonzero"/></g></g></g><g clip-path="url(#57d41e2032)"><g clip-path="url(#49e53d42b7)"><g clip-path="url(#b9c728b6f3)"><path fill="#ffffff" d="M 214.351562 75.257812 C 212.589844 73.496094 210.699219 72.351562 208.695312 71.878906 C 201.769531 70.238281 193.984375 76.539062 186.171875 90.097656 C 165.699219 125.636719 151.664062 200.425781 154.882812 256.816406 C 156.738281 289.3125 164.132812 310.203125 174.671875 312.699219 C 181.59375 314.34375 189.378906 308.042969 197.191406 294.480469 C 217.664062 258.941406 231.699219 184.152344 228.480469 127.761719 C 226.980469 101.453125 221.847656 82.75 214.351562 75.257812 Z M 168.371094 309.816406 C 160.71875 302.167969 155.640625 283.605469 154.117188 256.859375 C 150.886719 200.34375 164.96875 125.363281 185.503906 89.714844 C 193.503906 75.828125 201.582031 69.402344 208.867188 71.128906 C 219.921875 73.75 227.347656 94.375 229.25 127.714844 C 232.472656 184.234375 218.394531 259.214844 197.859375 294.863281 C 189.859375 308.75 181.78125 315.175781 174.496094 313.449219 C 172.308594 312.929688 170.261719 311.703125 168.371094 309.816406 " fill-opacity="1" fill-rule="nonzero"/></g></g></g><g clip-path="url(#ec06fab231)"><g clip-path="url(#3cbb3599aa)"><g clip-path="url(#e98aa208b3)"><path fill="#ffffff" d="M 217.050781 73.167969 C 215.304688 71.421875 213.425781 70.257812 211.425781 69.71875 C 204.421875 67.832031 196.40625 73.691406 188.242188 86.660156 C 166.324219 121.460938 150.183594 197.199219 152.257812 255.496094 C 153.472656 289.675781 160.835938 311.871094 171.941406 314.859375 C 178.941406 316.742188 186.957031 310.890625 195.121094 297.921875 C 217.039062 263.117188 233.179688 187.378906 231.105469 129.082031 C 230.109375 101.066406 224.984375 81.101562 217.050781 73.167969 Z M 165.847656 311.996094 C 157.722656 303.875 152.496094 283.722656 151.488281 255.519531 C 149.410156 197.097656 165.605469 121.160156 187.589844 86.25 C 195.953125 72.964844 204.261719 66.992188 211.625 68.976562 C 223.074219 72.058594 230.648438 94.523438 231.875 129.058594 C 233.953125 187.480469 217.757812 263.417969 195.773438 298.328125 C 187.40625 311.613281 179.101562 317.585938 171.742188 315.601562 C 169.640625 315.035156 167.671875 313.820312 165.847656 311.996094 " fill-opacity="1" fill-rule="nonzero"/></g></g></g><g clip-path="url(#2d874cc8fb)"><g clip-path="url(#c3b0dc0045)"><g clip-path="url(#b364c6ff7c)"><path fill="#ffffff" d="M 219.863281 71.226562 C 218.140625 69.5 216.277344 68.320312 214.285156 67.714844 C 207.207031 65.566406 198.964844 70.953125 190.453125 83.296875 C 167.0625 117.21875 148.730469 193.753906 149.578125 253.90625 C 150.082031 289.773438 157.371094 313.3125 169.078125 316.863281 C 176.15625 319.011719 184.398438 313.625 192.910156 301.277344 C 216.300781 267.359375 234.636719 190.824219 233.785156 130.671875 C 233.367188 100.910156 228.273438 79.636719 219.863281 71.226562 Z M 163.03125 313.933594 C 154.429688 305.339844 149.234375 283.875 148.808594 253.914062 C 147.957031 193.628906 166.355469 116.898438 189.820312 82.859375 C 198.539062 70.214844 207.078125 64.722656 214.507812 66.980469 C 226.546875 70.632812 234.042969 94.441406 234.554688 130.664062 C 235.40625 190.949219 217.007812 267.683594 193.539062 301.71875 C 184.824219 314.363281 176.285156 319.855469 168.855469 317.597656 C 166.773438 316.964844 164.824219 315.730469 163.03125 313.933594 " fill-opacity="1" fill-rule="nonzero"/></g></g></g><g clip-path="url(#010e709420)"><g clip-path="url(#e6c1b67ebf)"><g clip-path="url(#28405eb080)"><path fill="#ffffff" d="M 222.792969 69.453125 C 221.09375 67.75 219.25 66.550781 217.277344 65.878906 C 210.121094 63.449219 201.65625 68.339844 192.8125 80.03125 C 167.921875 112.914062 147.300781 190.082031 146.847656 252.039062 C 146.570312 289.59375 153.761719 314.515625 166.082031 318.695312 C 173.242188 321.132812 181.707031 316.238281 190.550781 304.550781 C 215.441406 271.65625 236.0625 194.496094 236.515625 132.539062 C 236.746094 100.996094 231.710938 78.371094 222.792969 69.453125 Z M 160.097656 315.710938 C 150.988281 306.601562 145.847656 283.773438 146.078125 252.035156 C 146.53125 189.933594 167.222656 112.5625 192.199219 79.566406 C 201.261719 67.585938 210.023438 62.601562 217.527344 65.152344 C 230.171875 69.453125 237.5625 94.644531 237.289062 132.542969 C 236.828125 194.640625 216.140625 272.011719 191.164062 305.011719 C 182.097656 316.992188 173.339844 321.972656 165.835938 319.425781 C 163.78125 318.726562 161.863281 317.476562 160.097656 315.710938 " fill-opacity="1" fill-rule="nonzero"/></g></g></g><g clip-path="url(#90f7e2c1b3)"><g clip-path="url(#62e34e8dd4)"><g clip-path="url(#ad23973b11)"><path fill="#ffffff" d="M 225.835938 67.851562 C 224.164062 66.183594 222.355469 64.96875 220.414062 64.234375 C 213.171875 61.492188 204.492188 65.863281 195.316406 76.867188 C 168.898438 108.570312 145.910156 186.183594 144.070312 249.886719 C 142.9375 289.101562 150 315.441406 162.949219 320.34375 C 170.195312 323.082031 178.871094 318.714844 188.046875 307.710938 C 214.460938 276.007812 237.453125 198.394531 239.292969 134.691406 C 240.257812 101.351562 235.300781 77.320312 225.835938 67.851562 Z M 157.050781 317.304688 C 147.394531 307.648438 142.335938 283.410156 143.300781 249.867188 C 145.144531 186.015625 168.214844 108.191406 194.726562 76.378906 C 204.128906 65.09375 213.105469 60.648438 220.683594 63.515625 C 233.964844 68.542969 241.203125 95.15625 240.0625 134.714844 C 238.21875 198.5625 215.148438 276.390625 188.640625 308.199219 C 179.230469 319.484375 170.257812 323.929688 162.679688 321.058594 C 160.660156 320.300781 158.785156 319.035156 157.050781 317.304688 " fill-opacity="1" fill-rule="nonzero"/></g></g></g><g clip-path="url(#7f2cfd3915)"><g clip-path="url(#a60545d643)"><g clip-path="url(#2f87c40d97)"><path fill="#ffffff" d="M 228.976562 66.445312 C 227.347656 64.816406 225.585938 63.589844 223.6875 62.796875 C 216.363281 59.71875 207.46875 63.535156 197.972656 73.835938 C 170.003906 104.179688 144.558594 182.054688 141.25 247.433594 C 139.183594 288.277344 146.070312 316.070312 159.675781 321.785156 C 167 324.859375 175.894531 321.042969 185.390625 310.742188 C 213.359375 280.398438 238.804688 202.523438 242.109375 137.140625 C 243.890625 101.988281 239.035156 76.503906 228.976562 66.445312 Z M 153.902344 318.714844 C 143.648438 308.46875 138.695312 282.765625 140.484375 247.398438 C 143.800781 181.863281 169.332031 103.769531 197.40625 73.316406 C 207.140625 62.753906 216.335938 58.871094 223.984375 62.085938 C 237.90625 67.929688 244.964844 96.003906 242.878906 137.179688 C 239.5625 202.71875 214.027344 280.808594 185.957031 311.261719 C 176.21875 321.824219 167.027344 325.707031 159.375 322.492188 C 157.410156 321.667969 155.585938 320.398438 153.902344 318.714844 " fill-opacity="1" fill-rule="nonzero"/></g></g></g><g clip-path="url(#d7e119667d)"><g clip-path="url(#b0e38a6156)"><g clip-path="url(#89df311d26)"><path fill="#ffffff" d="M 232.222656 65.222656 C 230.648438 63.648438 228.945312 62.429688 227.117188 61.578125 C 219.699219 58.132812 210.59375 61.371094 200.777344 70.949219 C 171.246094 99.757812 143.257812 177.6875 138.394531 244.667969 C 135.316406 287.089844 141.984375 316.375 156.246094 323 C 163.660156 326.445312 172.769531 323.203125 182.585938 313.632812 C 212.121094 284.820312 240.105469 206.886719 244.972656 139.910156 C 247.652344 102.925781 242.925781 75.925781 232.222656 65.222656 Z M 150.652344 319.933594 C 139.753906 309.039062 134.925781 281.824219 137.628906 244.613281 C 142.503906 177.472656 170.589844 99.320312 200.242188 70.394531 C 210.308594 60.578125 219.710938 57.289062 227.441406 60.878906 C 242.003906 67.648438 248.839844 97.214844 245.734375 139.964844 C 240.863281 207.105469 212.773438 285.257812 183.121094 314.183594 C 173.054688 324 163.648438 327.289062 155.921875 323.695312 C 154.03125 322.820312 152.273438 321.554688 150.652344 319.933594 " fill-opacity="1" fill-rule="nonzero"/></g></g></g><g clip-path="url(#471fb9b4bc)"><g clip-path="url(#b3bebeb933)"><g clip-path="url(#86981e8a29)"><path fill="#ffffff" d="M 235.367188 64.074219 C 233.917969 62.625 232.363281 61.464844 230.699219 60.613281 C 223.199219 56.757812 213.875 59.386719 203.738281 68.210938 C 172.617188 95.3125 142.007812 173.085938 135.507812 241.578125 C 131.402344 284.851562 137.976562 316.417969 152.660156 323.964844 C 160.164062 327.820312 169.488281 325.191406 179.625 316.367188 C 210.746094 289.261719 241.355469 211.492188 247.855469 143 C 251.5 104.617188 246.738281 75.445312 235.367188 64.074219 Z M 147.3125 320.945312 C 135.710938 309.351562 131.035156 280.558594 134.742188 241.503906 C 141.261719 172.847656 171.984375 94.84375 203.234375 67.632812 C 213.628906 58.582031 223.246094 55.917969 231.054688 59.929688 C 246.265625 67.734375 252.820312 98.816406 248.617188 143.074219 C 242.101562 211.734375 211.375 289.730469 180.128906 316.945312 C 169.734375 325.996094 160.117188 328.660156 152.308594 324.652344 C 150.523438 323.734375 148.855469 322.492188 147.3125 320.945312 " fill-opacity="1" fill-rule="nonzero"/></g></g></g><g clip-path="url(#46799394f6)"><g clip-path="url(#e8eaff3f6c)"><g clip-path="url(#7c828f7339)"><path fill="#ffffff" d="M 238.796875 63.265625 C 237.441406 61.914062 235.992188 60.792969 234.453125 59.921875 C 226.859375 55.613281 217.316406 57.59375 206.855469 65.65625 C 174.136719 90.863281 140.824219 168.242188 132.597656 238.148438 C 127.339844 282.824219 133.585938 315.972656 148.910156 324.660156 C 156.507812 328.960938 166.050781 326.980469 176.507812 318.921875 C 209.226562 293.710938 242.539062 216.332031 250.765625 146.429688 C 255.496094 106.246094 250.910156 75.382812 238.796875 63.265625 Z M 144.070312 321.886719 C 131.761719 309.578125 127.078125 278.480469 131.835938 238.058594 C 140.082031 167.976562 173.523438 90.363281 206.382812 65.046875 C 217.105469 56.785156 226.945312 54.78125 234.832031 59.25 C 250.425781 68.09375 256.824219 101.527344 251.53125 146.519531 C 243.28125 216.601562 209.839844 294.214844 176.980469 319.53125 C 166.257812 327.792969 156.417969 329.796875 148.535156 325.328125 C 146.949219 324.429688 145.460938 323.277344 144.070312 321.886719 " fill-opacity="1" fill-rule="nonzero"/></g></g></g><g clip-path="url(#e81a8dbbfc)"><g clip-path="url(#d4089f68f6)"><g clip-path="url(#455e3cf4d3)"><path fill="#ffffff" d="M 242.296875 62.675781 C 241.070312 61.449219 239.761719 60.398438 238.382812 59.535156 C 230.691406 54.722656 220.917969 56.019531 210.125 63.292969 C 175.800781 86.414062 139.707031 163.160156 129.671875 234.375 C 123.191406 280.339844 129.0625 315.085938 144.980469 325.042969 C 152.671875 329.855469 162.441406 328.554688 173.238281 321.285156 C 207.5625 298.164062 243.65625 221.417969 253.691406 150.207031 C 259.609375 108.230469 255.230469 75.609375 242.296875 62.675781 Z M 140.558594 322.472656 C 127.433594 309.347656 122.957031 276.484375 128.90625 234.261719 C 138.972656 162.867188 175.210938 85.882812 209.695312 62.652344 C 220.761719 55.203125 230.820312 53.898438 238.789062 58.882812 C 254.972656 69.003906 260.976562 104.042969 254.453125 150.3125 C 244.390625 221.710938 208.148438 298.695312 173.664062 321.925781 C 162.605469 329.378906 152.542969 330.679688 144.574219 325.699219 C 143.160156 324.808594 141.816406 323.734375 140.558594 322.472656 " fill-opacity="1" fill-rule="nonzero"/></g></g></g><g clip-path="url(#ace440b0a7)"><g clip-path="url(#75df3b0e93)"><g clip-path="url(#3498451fbc)"><path fill="#ffffff" d="M 245.871094 62.316406 C 244.804688 61.25 243.679688 60.304688 242.5 59.488281 C 234.707031 54.109375 224.695312 54.679688 213.550781 61.140625 C 177.613281 81.984375 138.667969 157.839844 126.730469 230.234375 C 118.960938 277.359375 124.375 313.722656 140.863281 325.089844 C 148.65625 330.46875 158.664062 329.894531 169.808594 323.433594 C 205.75 302.59375 244.695312 226.742188 256.632812 154.34375 C 263.847656 110.597656 259.691406 76.136719 245.871094 62.316406 Z M 136.976562 322.828125 C 122.960938 308.8125 118.71875 274.105469 125.972656 230.113281 C 137.9375 157.515625 177.054688 81.417969 213.164062 60.476562 C 224.585938 53.855469 234.882812 53.292969 242.933594 58.855469 C 259.675781 70.414062 265.207031 107.050781 257.390625 154.46875 C 245.421875 227.066406 206.308594 303.164062 170.199219 324.097656 C 158.777344 330.722656 148.480469 331.28125 140.429688 325.722656 C 139.21875 324.886719 138.066406 323.917969 136.976562 322.828125 " fill-opacity="1" fill-rule="nonzero"/></g></g></g><g clip-path="url(#c0036d8938)"><g clip-path="url(#cab490789f)"><g clip-path="url(#e6a5ec808f)"><path fill="#ffffff" d="M 249.503906 62.179688 C 248.644531 61.324219 247.75 60.539062 246.820312 59.824219 C 238.921875 53.800781 228.660156 53.59375 217.132812 59.226562 C 179.585938 77.578125 137.710938 152.269531 123.785156 225.726562 C 114.671875 273.847656 119.550781 311.800781 136.542969 324.75 C 144.4375 330.773438 154.703125 330.984375 166.230469 325.351562 C 203.777344 307 245.652344 232.3125 259.574219 158.851562 C 268.195312 113.367188 264.300781 76.980469 249.503906 62.179688 Z M 133.339844 322.960938 C 118.347656 307.96875 114.363281 271.320312 123.035156 225.585938 C 136.996094 151.917969 179.058594 76.980469 216.796875 58.535156 C 228.601562 52.765625 239.144531 53.003906 247.285156 59.214844 C 264.507812 72.359375 269.503906 110.589844 260.328125 158.992188 C 246.367188 232.660156 204.304688 307.597656 166.566406 326.042969 C 154.761719 331.808594 144.21875 331.578125 136.074219 325.363281 C 135.128906 324.636719 134.210938 323.835938 133.339844 322.960938 " fill-opacity="1" fill-rule="nonzero"/></g></g></g><g clip-path="url(#9ae908d9e3)"><g clip-path="url(#8635a0fefa)"><g clip-path="url(#268426e55d)"><path fill="#ffffff" d="M 253.183594 62.277344 C 252.589844 61.683594 251.980469 61.125 251.355469 60.597656 C 243.351562 53.839844 232.8125 52.792969 220.875 57.5625 C 181.714844 73.21875 136.847656 146.457031 120.855469 220.835938 C 110.332031 269.761719 114.578125 309.269531 132.007812 323.980469 C 140.015625 330.738281 150.550781 331.785156 162.488281 327.015625 C 201.648438 311.359375 246.519531 238.117188 262.511719 163.742188 C 272.65625 116.574219 269.046875 78.140625 253.183594 62.277344 Z M 129.652344 322.855469 C 113.589844 306.796875 109.898438 268.105469 120.101562 220.671875 C 136.140625 146.078125 181.222656 72.585938 220.589844 56.847656 C 232.804688 51.964844 243.617188 53.058594 251.851562 60.007812 C 269.476562 74.890625 273.84375 114.699219 263.261719 163.90625 C 247.222656 238.5 202.140625 311.992188 162.773438 327.726562 C 150.558594 332.613281 139.746094 331.519531 131.515625 324.566406 C 130.875 324.03125 130.253906 323.460938 129.652344 322.855469 " fill-opacity="1" fill-rule="nonzero"/></g></g></g><g clip-path="url(#5a1e7bdfe9)"><g clip-path="url(#f2394bdaf3)"><g clip-path="url(#b7915fcc73)"><path fill="#ffffff" d="M 256.890625 62.605469 C 256.632812 62.347656 256.378906 62.105469 256.121094 61.859375 C 248.007812 54.265625 237.167969 52.300781 224.773438 56.175781 C 184.011719 68.914062 136.085938 140.410156 117.929688 215.550781 C 106.136719 264.34375 109.433594 304.929688 126.472656 321.972656 C 126.726562 322.226562 126.984375 322.472656 127.246094 322.714844 C 135.355469 330.3125 146.195312 332.277344 158.589844 328.40625 C 199.351562 315.664062 247.28125 244.167969 265.433594 169.027344 C 277.222656 120.234375 273.929688 79.644531 256.890625 62.605469 Z M 125.933594 322.519531 C 108.699219 305.289062 105.328125 264.433594 117.179688 215.367188 C 135.394531 139.996094 183.550781 68.253906 224.542969 55.441406 C 237.21875 51.476562 248.316406 53.503906 256.644531 61.296875 C 256.910156 61.542969 257.171875 61.800781 257.429688 62.058594 C 274.660156 79.289062 278.03125 120.148438 266.179688 169.207031 C 247.972656 244.582031 199.8125 316.328125 158.820312 329.136719 C 146.140625 333.097656 135.046875 331.074219 126.71875 323.28125 C 126.453125 323.03125 126.191406 322.777344 125.933594 322.519531 " fill-opacity="1" fill-rule="nonzero"/></g></g></g><g clip-path="url(#0129d78317)"><g clip-path="url(#27d96f6aaa)"><g clip-path="url(#05f57e6084)"><path fill="#ffffff" d="M 260.636719 63.179688 C 252.464844 55.007812 241.480469 52.210938 228.824219 55.082031 C 186.476562 64.6875 135.429688 134.117188 115.03125 209.863281 C 101.59375 259.738281 104.355469 302.285156 122.238281 320.898438 C 122.398438 321.066406 122.5625 321.234375 122.726562 321.398438 C 130.898438 329.570312 141.882812 332.367188 154.539062 329.5 C 196.886719 319.894531 247.933594 250.457031 268.332031 174.71875 C 281.769531 124.839844 279.003906 82.289062 261.125 63.679688 C 260.960938 63.511719 260.796875 63.34375 260.636719 63.179688 Z M 122.1875 321.945312 C 122.015625 321.773438 121.847656 321.605469 121.683594 321.429688 C 103.617188 302.625 100.78125 259.796875 114.289062 209.660156 C 134.753906 133.675781 186.058594 63.992188 228.65625 54.332031 C 241.839844 51.335938 253.222656 54.371094 261.679688 63.148438 C 279.746094 81.949219 282.582031 124.78125 269.074219 174.917969 C 248.609375 250.90625 197.304688 320.585938 154.707031 330.25 C 141.78125 333.179688 130.550781 330.308594 122.1875 321.945312 " fill-opacity="1" fill-rule="nonzero"/></g></g></g><g clip-path="url(#0082cf0cdb)"><g clip-path="url(#ca9c36ff99)"><g clip-path="url(#7a6807db6d)"><path fill="#ffffff" d="M 264.410156 64.011719 C 256.28125 55.882812 245.492188 52.527344 233.027344 54.300781 C 189.113281 60.546875 134.894531 127.59375 112.164062 203.761719 C 97.25 253.730469 99.097656 297.675781 116.984375 318.445312 C 125.300781 328.109375 136.835938 332.195312 150.332031 330.277344 C 194.25 324.03125 248.46875 256.984375 271.199219 180.816406 C 286.113281 130.847656 284.265625 86.902344 266.375 66.132812 C 265.742188 65.394531 265.082031 64.6875 264.410156 64.011719 Z M 118.417969 321.117188 C 117.726562 320.425781 117.054688 319.703125 116.402344 318.949219 C 98.347656 297.980469 96.4375 253.757812 111.425781 203.542969 C 134.234375 127.113281 188.738281 59.824219 232.921875 53.539062 C 246.691406 51.582031 258.464844 55.773438 266.960938 65.632812 C 285.019531 86.597656 286.925781 130.820312 271.9375 181.039062 C 249.128906 257.464844 194.625 324.753906 150.441406 331.039062 C 137.730469 332.847656 126.722656 329.417969 118.417969 321.117188 " fill-opacity="1" fill-rule="nonzero"/></g></g></g><g clip-path="url(#077de8faea)"><g clip-path="url(#ba025c28d8)"><g clip-path="url(#5dde1b8398)"><path fill="#ffffff" d="M 268.164062 65.0625 C 260.105469 57.003906 249.578125 53.148438 237.390625 53.863281 C 191.929688 56.515625 134.484375 120.835938 109.335938 197.238281 C 92.953125 247.019531 93.773438 292.246094 111.484375 315.273438 C 119.886719 326.199219 131.816406 331.542969 145.972656 330.71875 C 191.433594 328.0625 248.878906 263.742188 274.023438 187.339844 C 290.410156 137.558594 289.585938 92.332031 271.878906 69.304688 C 270.710938 67.785156 269.46875 66.367188 268.164062 65.0625 Z M 114.664062 320.066406 C 113.332031 318.734375 112.070312 317.292969 110.871094 315.742188 C 93.011719 292.515625 92.144531 247.015625 108.605469 197 C 133.84375 120.320312 191.59375 55.761719 237.34375 53.09375 C 251.769531 52.25 263.917969 57.691406 272.492188 68.835938 C 290.351562 92.0625 291.21875 137.5625 274.753906 187.582031 C 249.519531 264.257812 191.765625 328.816406 146.019531 331.484375 C 133.605469 332.210938 122.875 328.277344 114.664062 320.066406 " fill-opacity="1" fill-rule="nonzero"/></g></g></g><g clip-path="url(#fd162ae7ef)"><g clip-path="url(#8dc923f967)"><g clip-path="url(#7d5586f5e3)"><path fill="#ffffff" d="M 271.878906 66.324219 C 263.933594 58.378906 253.71875 54.078125 241.902344 53.785156 C 194.917969 52.609375 134.210938 113.84375 106.566406 190.285156 C 88.738281 239.582031 88.417969 285.949219 105.734375 311.289062 C 114.195312 323.675781 126.554688 330.421875 141.460938 330.792969 C 188.445312 331.96875 249.152344 270.734375 276.796875 194.292969 C 294.625 144.996094 294.941406 98.628906 277.628906 73.289062 C 275.878906 70.722656 273.957031 68.402344 271.878906 66.324219 Z M 110.949219 318.808594 C 108.835938 316.695312 106.882812 314.335938 105.101562 311.722656 C 87.644531 286.183594 87.933594 239.546875 105.84375 190.019531 C 133.59375 113.296875 194.636719 51.832031 241.917969 53.011719 C 257.085938 53.394531 269.660156 60.257812 278.261719 72.855469 C 295.714844 98.398438 295.429688 145.03125 277.519531 194.554688 C 249.769531 271.28125 188.726562 332.746094 141.441406 331.5625 C 129.417969 331.261719 119.027344 326.886719 110.949219 318.808594 " fill-opacity="1" fill-rule="nonzero"/></g></g></g><g clip-path="url(#e205c282da)"><g clip-path="url(#5f5d165921)"><g clip-path="url(#f2a3372338)"><path fill="#ffffff" d="M 275.523438 67.769531 C 267.746094 59.988281 257.921875 55.316406 246.558594 54.089844 C 198.097656 48.847656 134.082031 106.628906 103.859375 182.894531 C 84.632812 231.40625 83.0625 278.730469 99.753906 306.398438 C 108.234375 320.457031 121.046875 328.78125 136.804688 330.488281 C 185.265625 335.730469 249.28125 277.949219 279.503906 201.683594 C 298.730469 153.171875 300.300781 105.847656 283.609375 78.175781 C 281.242188 74.257812 278.535156 70.78125 275.523438 67.769531 Z M 107.296875 317.359375 C 104.242188 314.304688 101.5 310.777344 99.097656 306.796875 C 82.28125 278.925781 83.832031 231.339844 103.144531 182.609375 C 133.484375 106.046875 197.859375 48.046875 246.640625 53.324219 C 262.648438 55.058594 275.65625 63.515625 284.265625 77.777344 C 301.082031 105.648438 299.53125 153.238281 280.21875 201.96875 C 249.878906 278.53125 185.503906 336.527344 136.71875 331.253906 C 125.183594 330.003906 115.195312 325.257812 107.296875 317.359375 " fill-opacity="1" fill-rule="nonzero"/></g></g></g><g clip-path="url(#5266f74b79)"><g clip-path="url(#5a3a1124bf)"><g clip-path="url(#e9fad050ff)"><path fill="#ffffff" d="M 279.085938 69.386719 C 271.53125 61.832031 262.164062 56.875 251.363281 54.808594 C 201.457031 45.253906 134.109375 99.195312 101.230469 175.058594 C 80.359375 223.203125 77.5 270.101562 93.570312 300.507812 C 102.003906 316.453125 115.292969 326.574219 132 329.773438 C 181.90625 339.324219 249.253906 285.378906 282.132812 209.519531 C 303.003906 161.375 305.863281 114.476562 289.789062 84.066406 C 286.808594 78.429688 283.21875 73.515625 279.085938 69.386719 Z M 103.738281 315.742188 C 99.546875 311.554688 95.910156 306.582031 92.890625 300.867188 C 76.710938 270.257812 79.5625 223.113281 100.523438 174.75 C 133.539062 98.578125 201.265625 44.429688 251.507812 54.050781 C 268.453125 57.296875 281.929688 67.554688 290.46875 83.710938 C 306.652344 114.320312 303.800781 161.464844 282.839844 209.828125 C 249.824219 286 182.09375 340.144531 131.855469 330.527344 C 120.898438 328.429688 111.394531 323.402344 103.738281 315.742188 " fill-opacity="1" fill-rule="nonzero"/></g></g></g><g clip-path="url(#29b7d238f3)"><g clip-path="url(#881b054f18)"><g clip-path="url(#61e1a39c38)"><path fill="#ffffff" d="M 282.53125 71.148438 C 275.273438 63.890625 266.441406 58.742188 256.304688 55.957031 C 205.007812 41.839844 134.300781 91.550781 98.6875 166.769531 C 76.550781 213.523438 72.265625 260.910156 87.222656 293.523438 C 95.515625 311.59375 109.285156 323.730469 127.058594 328.621094 C 178.355469 342.738281 249.0625 293.027344 284.675781 217.808594 C 306.8125 171.054688 311.097656 123.667969 296.140625 91.054688 C 292.578125 83.292969 288 76.617188 282.53125 71.148438 Z M 100.285156 313.976562 C 94.753906 308.445312 90.128906 301.699219 86.523438 293.84375 C 71.472656 261.027344 75.757812 213.398438 97.992188 166.441406 C 133.757812 90.898438 204.871094 41.003906 256.507812 55.214844 C 274.507812 60.167969 288.453125 72.449219 296.839844 90.734375 C 311.890625 123.554688 307.605469 171.183594 285.371094 218.140625 C 249.601562 293.675781 178.492188 343.574219 126.851562 329.363281 C 116.585938 326.535156 107.636719 321.328125 100.285156 313.976562 " fill-opacity="1" fill-rule="nonzero"/></g></g></g><g clip-path="url(#9d78ee3f0c)"><g clip-path="url(#3132c21820)"><g clip-path="url(#225f48a19c)"><path fill="#ffffff" d="M 285.839844 73.03125 C 278.953125 66.148438 270.746094 60.929688 261.386719 57.566406 C 208.75 38.636719 134.667969 83.703125 96.25 158.023438 C 72.941406 203.109375 67.148438 250.710938 80.757812 285.355469 C 88.785156 305.800781 103.039062 320.203125 121.976562 327.011719 C 174.613281 345.941406 248.695312 300.875 287.117188 226.554688 C 310.421875 181.46875 316.214844 133.871094 302.609375 99.222656 C 298.542969 88.878906 292.886719 80.082031 285.839844 73.03125 Z M 96.980469 312.089844 C 89.855469 304.96875 84.140625 296.082031 80.042969 285.636719 C 66.355469 250.789062 72.152344 202.949219 95.566406 157.671875 C 134.15625 83.019531 208.660156 37.789062 261.644531 56.839844 C 280.800781 63.730469 295.210938 78.289062 303.320312 98.9375 C 317.007812 133.789062 311.207031 181.628906 287.800781 226.90625 C 249.207031 301.558594 174.703125 346.792969 121.714844 327.734375 C 112.25 324.332031 103.941406 319.054688 96.980469 312.089844 " fill-opacity="1" fill-rule="nonzero"/></g></g></g><g clip-path="url(#6091f08e37)"><g clip-path="url(#dff744d1e9)"><g clip-path="url(#351c3d8f1b)"><path fill="#ffffff" d="M 288.972656 74.996094 C 282.554688 68.582031 275.0625 63.425781 266.597656 59.65625 C 212.683594 35.664062 135.222656 75.660156 93.921875 148.820312 C 69.554688 191.980469 62.199219 239.503906 74.238281 275.949219 C 81.851562 298.992188 96.558594 315.925781 116.765625 324.921875 C 170.679688 348.917969 248.140625 308.921875 289.441406 235.757812 C 313.804688 192.597656 321.164062 145.074219 309.125 108.632812 C 304.703125 95.238281 297.878906 83.90625 288.972656 74.996094 Z M 93.84375 310.125 C 84.855469 301.136719 77.972656 289.703125 73.507812 276.1875 C 61.402344 239.542969 68.78125 191.789062 93.25 148.441406 C 134.738281 74.945312 212.644531 34.800781 266.910156 58.957031 C 287.320312 68.039062 302.175781 85.132812 309.855469 108.390625 C 321.960938 145.035156 314.582031 192.789062 290.113281 236.136719 C 248.625 309.632812 170.722656 349.773438 116.453125 325.625 C 107.90625 321.816406 100.324219 316.605469 93.84375 310.125 " fill-opacity="1" fill-rule="nonzero"/></g></g></g><g clip-path="url(#d252c606cb)"><g clip-path="url(#fceaea90e5)"><g clip-path="url(#6b6a33fa64)"><path fill="#ffffff" d="M 291.886719 77 C 286.046875 71.160156 279.375 66.21875 271.929688 62.253906 C 216.808594 32.9375 135.96875 67.433594 91.722656 139.148438 C 66.421875 180.160156 57.453125 227.296875 67.730469 265.234375 C 74.738281 291.101562 89.847656 310.839844 111.433594 322.320312 C 166.550781 351.636719 247.394531 317.144531 291.636719 245.429688 C 316.941406 204.414062 325.910156 157.277344 315.628906 119.339844 C 311.042969 102.398438 302.972656 88.082031 291.886719 77 Z M 90.929688 308.121094 C 79.746094 296.941406 71.617188 282.515625 66.988281 265.4375 C 56.65625 227.296875 65.65625 179.9375 91.070312 138.746094 C 135.523438 66.691406 216.820312 32.070312 272.292969 61.578125 C 294.070312 73.160156 309.308594 93.066406 316.371094 119.140625 C 326.707031 157.28125 317.707031 204.640625 292.292969 245.832031 C 247.839844 317.890625 166.546875 352.503906 111.070312 322.996094 C 103.558594 319.003906 96.820312 314.015625 90.929688 308.121094 " fill-opacity="1" fill-rule="nonzero"/></g></g></g><g clip-path="url(#1f551afd9d)"><g clip-path="url(#15be562a93)"><g clip-path="url(#6b78725eba)"><path fill="#ffffff" d="M 294.527344 78.960938 C 289.402344 73.835938 283.675781 69.300781 277.382812 65.390625 C 221.128906 30.492188 136.925781 59.03125 89.671875 129.011719 C 63.164062 168.261719 52.835938 213.53125 61.320312 253.203125 C 67.5 282.074219 82.941406 304.890625 105.980469 319.183594 C 162.230469 354.085938 246.4375 325.542969 293.691406 255.566406 C 320.199219 216.316406 330.527344 171.046875 322.042969 131.375 C 317.550781 110.390625 308.167969 92.601562 294.527344 78.960938 Z M 88.289062 306.15625 C 74.542969 292.414062 65.09375 274.5 60.570312 253.363281 C 52.039062 213.488281 62.414062 168.003906 89.03125 128.582031 C 136.511719 58.261719 221.1875 29.625 277.789062 64.742188 C 301.007812 79.144531 316.574219 102.132812 322.792969 131.214844 C 331.328125 171.089844 320.949219 216.570312 294.328125 255.996094 C 246.847656 326.316406 162.175781 354.957031 105.574219 319.839844 C 99.230469 315.902344 93.457031 311.320312 88.289062 306.15625 " fill-opacity="1" fill-rule="nonzero"/></g></g></g><g clip-path="url(#04801b68e6)"><g clip-path="url(#566dc96f19)"><g clip-path="url(#4d87e6b71e)"><path fill="#ffffff" d="M 296.425781 80.492188 C 292.269531 76.335938 287.765625 72.523438 282.941406 69.089844 C 225.644531 28.34375 138.09375 50.46875 87.773438 118.40625 C 60.574219 155.128906 48.660156 199.390625 55.089844 239.851562 C 60.101562 271.402344 76.195312 298.265625 100.417969 315.488281 C 157.714844 356.230469 245.269531 334.109375 295.589844 266.171875 C 322.785156 229.449219 334.703125 185.183594 328.273438 144.730469 C 324.261719 119.460938 313.132812 97.199219 296.425781 80.492188 Z M 86.390625 304.628906 C 69.566406 287.804688 58.371094 265.402344 54.328125 239.972656 C 47.867188 199.3125 59.832031 154.835938 87.15625 117.949219 C 137.722656 49.679688 225.753906 27.480469 283.386719 68.460938 C 307.773438 85.808594 323.992188 112.847656 329.035156 144.605469 C 335.492188 185.265625 323.53125 229.742188 296.210938 266.628906 C 245.640625 334.898438 157.609375 357.101562 99.976562 316.113281 C 95.113281 312.660156 90.578125 308.816406 86.390625 304.628906 " fill-opacity="1" fill-rule="nonzero"/></g></g></g><g clip-path="url(#de63966989)"><g clip-path="url(#f9ed32a2a9)"><g clip-path="url(#ed7a5d1f40)"><g clip-path="url(#be782bec2b)"><path fill="#ffffff" d="M 298.261719 82.042969 C 295.210938 78.988281 291.992188 76.097656 288.601562 73.371094 C 230.359375 26.527344 139.492188 41.761719 86.050781 107.335938 C 58.28125 141.410156 44.816406 184.371094 49.113281 225.203125 C 52.769531 259.925781 68.976562 290.46875 94.761719 311.207031 C 153.007812 358.050781 243.871094 342.816406 297.3125 277.242188 C 325.082031 243.167969 338.546875 200.210938 334.25 159.371094 C 331.074219 129.210938 318.425781 102.203125 298.261719 82.042969 Z M 84.558594 303.082031 C 64.265625 282.789062 51.542969 255.625 48.351562 225.28125 C 44.035156 184.246094 57.554688 141.078125 85.457031 106.851562 C 139.164062 40.945312 230.511719 25.664062 289.085938 72.773438 C 315.023438 93.636719 331.339844 124.363281 335.011719 159.292969 C 339.332031 200.328125 325.808594 243.5 297.90625 277.730469 C 244.199219 343.628906 152.851562 358.917969 94.28125 311.804688 C 90.871094 309.0625 87.628906 306.152344 84.558594 303.082031 " fill-opacity="1" fill-rule="nonzero"/></g></g></g></g><g clip-path="url(#b1247857bb)"><g clip-path="url(#d23fe337d1)"><g clip-path="url(#dcd5104d08)"><g clip-path="url(#b2dba22f06)"><path fill="#ffffff" d="M 299.621094 83.265625 C 297.910156 81.558594 296.15625 79.890625 294.347656 78.265625 C 265.730469 52.496094 228.140625 40.121094 188.511719 43.429688 C 148.875 46.738281 111.941406 65.335938 84.515625 95.796875 C 57.089844 126.257812 42.453125 164.933594 43.304688 204.699219 C 44.160156 244.453125 60.402344 280.542969 89.011719 306.316406 C 148.105469 359.519531 242.238281 351.652344 298.847656 288.785156 C 326.273438 258.320312 340.90625 219.644531 340.058594 179.878906 C 339.257812 142.628906 324.957031 108.605469 299.621094 83.265625 Z M 83.199219 301.855469 C 57.714844 276.375 43.34375 242.164062 42.539062 204.714844 C 41.679688 164.75 56.386719 125.886719 83.945312 95.28125 C 111.503906 64.675781 148.617188 45.988281 188.449219 42.664062 C 228.292969 39.335938 266.085938 51.777344 294.863281 77.695312 C 323.644531 103.605469 339.96875 139.894531 340.824219 179.863281 C 341.679688 219.824219 326.976562 258.6875 299.417969 289.292969 C 242.523438 352.484375 147.90625 360.375 88.496094 306.886719 C 86.683594 305.253906 84.914062 303.570312 83.199219 301.855469 " fill-opacity="1" fill-rule="nonzero"/></g></g></g></g><g clip-path="url(#3619e7fead)"><g clip-path="url(#359fe32a43)"><g clip-path="url(#2cb5becb59)"><path fill="#ffffff" d="M 300.175781 83.792969 C 240.351562 23.96875 143.011719 23.96875 83.1875 83.792969 C 23.363281 143.617188 23.363281 240.960938 83.1875 300.785156 C 143.011719 360.609375 240.351562 360.609375 300.175781 300.785156 C 360.003906 240.960938 360.003906 143.617188 300.175781 83.792969 Z M 82.644531 301.328125 C 22.515625 241.203125 22.519531 143.375 82.644531 83.25 C 142.769531 23.125 240.59375 23.125 300.71875 83.25 C 360.84375 143.375 360.847656 241.203125 300.71875 301.328125 C 240.597656 361.453125 142.765625 361.453125 82.644531 301.328125 " fill-opacity="1" fill-rule="nonzero"/></g></g></g></svg>