<svg xmlns="http://www.w3.org/2000/svg" xmlns:xlink="http://www.w3.org/1999/xlink" width="512" zoomAndPan="magnify" viewBox="0 0 384 383.999986" height="512" preserveAspectRatio="xMidYMid meet" version="1.0"><defs><clipPath id="ccfedd342f"><path d="M 51 19.199219 L 189 19.199219 L 189 91 L 51 91 Z M 51 19.199219 " clip-rule="nonzero"/></clipPath><clipPath id="9b2ec08f50"><path d="M 24.742188 243 L 79 243 L 79 322 L 24.742188 322 Z M 24.742188 243 " clip-rule="nonzero"/></clipPath><clipPath id="c4e337cbb5"><path d="M 94 333 L 189 333 L 189 364.949219 L 94 364.949219 Z M 94 333 " clip-rule="nonzero"/></clipPath><clipPath id="99747ce09c"><path d="M 331 101 L 359.242188 101 L 359.242188 217 L 331 217 Z M 331 101 " clip-rule="nonzero"/></clipPath></defs><g clip-path="url(#ccfedd342f)"><path fill="#000000" d="M 56.25 89.398438 C 56.90625 88.742188 56.90625 87.429688 56.25 86.777344 C 87.726562 47.410156 133.632812 24.449219 183.46875 23.136719 C 184.125 24.449219 184.78125 25.105469 186.09375 25.105469 C 187.402344 25.105469 188.714844 23.792969 188.714844 22.480469 C 188.714844 21.167969 187.402344 19.199219 186.09375 19.199219 C 184.78125 19.199219 184.125 19.855469 183.46875 21.167969 C 171.007812 21.824219 158.550781 23.136719 146.746094 26.417969 C 134.289062 29.695312 122.484375 34.289062 110.679688 40.195312 C 99.53125 45.441406 89.039062 52.003906 79.203125 59.875 C 70.679688 67.75 62.152344 76.277344 54.941406 85.464844 C 53.628906 84.808594 52.972656 85.464844 52.316406 86.121094 C 51.660156 87.429688 51.660156 88.742188 52.972656 89.398438 C 53.628906 90.710938 54.941406 90.054688 56.25 89.398438 Z M 56.25 89.398438 " fill-opacity="1" fill-rule="nonzero"/></g><g clip-path="url(#9b2ec08f50)"><path fill="#000000" d="M 74.613281 317.058594 C 53.628906 298.03125 37.890625 274.410156 28.710938 247.511719 C 29.367188 246.855469 30.019531 245.542969 29.367188 244.890625 C 28.710938 243.578125 27.398438 242.921875 26.085938 243.578125 C 25.429688 243.578125 24.773438 244.890625 24.773438 246.199219 C 25.429688 247.511719 26.085938 248.167969 27.398438 248.167969 C 36.578125 275.066406 52.972656 298.6875 73.957031 318.367188 C 73.300781 319.023438 73.957031 320.335938 74.613281 320.992188 C 75.925781 321.648438 77.234375 321.648438 77.890625 320.992188 C 78.546875 319.679688 78.546875 318.367188 77.890625 317.710938 C 77.234375 316.402344 75.925781 316.402344 74.613281 317.058594 Z M 74.613281 317.058594 " fill-opacity="1" fill-rule="nonzero"/></g><g clip-path="url(#c4e337cbb5)"><path fill="#000000" d="M 186.09375 359.046875 C 184.78125 359.046875 184.125 359.703125 183.46875 361.011719 C 153.960938 360.359375 125.105469 351.828125 99.53125 336.082031 C 99.53125 334.769531 99.53125 334.113281 98.21875 333.457031 C 96.910156 332.800781 95.597656 332.800781 94.941406 334.113281 C 94.285156 335.425781 94.285156 336.738281 95.597656 337.394531 C 96.253906 338.050781 97.566406 338.050781 98.21875 337.394531 C 123.796875 353.140625 152.648438 361.667969 182.8125 362.980469 C 183.46875 364.292969 184.125 364.949219 185.4375 364.949219 C 186.746094 364.949219 188.058594 363.636719 188.058594 362.324219 C 188.058594 361.011719 187.402344 359.046875 186.09375 359.046875 Z M 186.09375 359.046875 " fill-opacity="1" fill-rule="nonzero"/></g><path fill="#000000" d="M 252.980469 345.925781 C 251.667969 346.578125 251.667969 347.234375 251.667969 348.546875 C 243.800781 351.828125 235.273438 354.453125 227.40625 356.421875 C 226.75 355.765625 226.09375 355.109375 224.78125 355.109375 C 223.46875 355.109375 222.816406 357.078125 222.816406 358.390625 C 222.816406 359.703125 224.78125 360.359375 226.09375 360.359375 C 227.40625 360.359375 228.0625 359.046875 228.0625 358.390625 C 236.585938 356.421875 244.453125 353.796875 252.980469 350.515625 C 253.636719 351.171875 254.945312 351.828125 255.601562 351.171875 C 256.914062 350.515625 257.570312 349.203125 256.914062 347.890625 C 255.601562 345.925781 254.292969 345.269531 252.980469 345.925781 Z M 252.980469 345.925781 " fill-opacity="1" fill-rule="nonzero"/><path fill="#000000" d="M 352.65625 234.390625 C 351.34375 233.734375 350.03125 235.046875 349.375 236.359375 C 349.375 237.671875 349.375 238.328125 350.6875 238.984375 C 338.882812 279.660156 313.308594 313.777344 277.242188 336.082031 C 276.585938 335.425781 275.277344 335.425781 274.621094 336.082031 C 273.308594 336.738281 273.308594 338.050781 273.964844 339.363281 C 274.621094 340.675781 275.929688 340.675781 277.242188 340.019531 C 277.898438 339.363281 278.554688 338.050781 278.554688 337.394531 C 296.261719 326.242188 312 312.464844 324.457031 295.40625 C 337.574219 278.347656 346.753906 259.324219 352.65625 238.984375 C 353.964844 238.984375 354.621094 238.328125 354.621094 237.015625 C 355.277344 235.703125 353.964844 234.390625 352.65625 234.390625 Z M 352.65625 234.390625 " fill-opacity="1" fill-rule="nonzero"/><g clip-path="url(#99747ce09c)"><path fill="#000000" d="M 357.902344 212.085938 C 358.558594 205.523438 359.210938 198.308594 359.210938 191.089844 C 359.210938 175.34375 357.246094 159.597656 352.65625 144.507812 C 348.71875 130.730469 343.472656 117.609375 336.261719 105.144531 C 336.917969 104.488281 336.917969 103.175781 336.261719 102.519531 C 335.605469 101.210938 334.292969 101.210938 332.980469 101.863281 C 331.671875 102.519531 331.671875 103.832031 332.328125 105.144531 C 332.980469 105.800781 334.292969 106.457031 334.949219 106.457031 C 350.03125 132.042969 357.902344 161.566406 357.902344 191.089844 C 357.902344 197.652344 357.246094 204.867188 356.589844 211.429688 C 355.277344 211.429688 354.621094 212.742188 354.621094 213.398438 C 354.621094 214.710938 355.277344 216.023438 356.589844 216.023438 C 357.902344 216.023438 359.210938 215.367188 359.210938 214.054688 C 359.210938 214.054688 358.558594 212.742188 357.902344 212.085938 Z M 357.902344 212.085938 " fill-opacity="1" fill-rule="nonzero"/></g><path fill="#000000" d="M 216.257812 26.417969 C 217.570312 26.417969 218.222656 25.761719 218.878906 25.105469 C 250.355469 31.007812 279.867188 45.441406 303.472656 67.09375 C 302.816406 67.75 303.472656 69.0625 304.128906 69.71875 C 305.441406 70.375 306.753906 70.375 308.0625 69.71875 C 308.71875 68.40625 308.71875 67.09375 308.0625 65.78125 C 307.40625 65.125 306.097656 65.125 305.441406 65.125 C 293.636719 53.972656 280.523438 44.785156 266.09375 38.226562 C 251.667969 31.007812 235.929688 25.761719 220.191406 22.480469 C 220.191406 21.167969 218.878906 20.511719 218.222656 20.511719 C 216.914062 20.511719 215.601562 21.167969 215.601562 22.480469 C 215.601562 23.792969 214.289062 26.417969 216.257812 26.417969 Z M 216.257812 26.417969 " fill-opacity="1" fill-rule="nonzero"/><path fill="#000000" d="M 142.8125 349.203125 C 144.125 349.859375 145.433594 348.546875 146.089844 347.234375 C 146.746094 345.925781 145.433594 344.613281 144.125 343.957031 C 142.8125 343.957031 142.15625 343.957031 141.5 344.613281 C 106.089844 334.113281 75.269531 311.152344 54.285156 280.316406 C 54.941406 279.660156 54.941406 278.347656 54.285156 277.691406 C 53.628906 276.378906 51.660156 276.378906 51.003906 277.035156 C 49.695312 277.691406 49.695312 279.660156 50.351562 280.316406 C 51.003906 280.972656 52.316406 281.628906 52.972656 280.972656 C 63.464844 296.71875 75.925781 309.839844 91.007812 320.992188 C 106.089844 332.144531 123.140625 340.675781 140.84375 346.578125 C 140.84375 347.890625 141.5 348.546875 142.8125 349.203125 Z M 142.8125 349.203125 " fill-opacity="1" fill-rule="nonzero"/><path fill="#000000" d="M 287.078125 320.335938 C 287.734375 320.992188 289.046875 320.992188 290.359375 320.335938 C 291.667969 319.679688 291.667969 317.710938 291.015625 317.058594 C 290.359375 316.402344 288.390625 315.746094 287.734375 316.402344 C 287.078125 317.058594 286.421875 318.367188 287.078125 319.023438 C 258.882812 340.675781 225.4375 351.828125 189.371094 351.828125 C 185.4375 351.828125 181.5 351.828125 177.566406 351.171875 C 177.566406 349.859375 176.253906 349.203125 175.601562 349.203125 C 174.289062 349.203125 172.976562 349.859375 172.976562 351.828125 C 172.976562 353.140625 173.632812 354.453125 175.601562 354.453125 C 176.910156 354.453125 177.566406 353.796875 178.222656 353.140625 C 182.15625 353.140625 186.09375 353.796875 190.027344 353.796875 C 208.386719 353.796875 226.75 350.515625 244.453125 344.613281 C 258.226562 338.707031 273.308594 330.835938 287.078125 320.335938 Z M 287.078125 320.335938 " fill-opacity="1" fill-rule="nonzero"/><path fill="#000000" d="M 331.671875 271.789062 C 332.328125 270.476562 331.671875 269.164062 331.015625 268.507812 C 330.359375 267.851562 328.390625 268.507812 327.734375 269.164062 C 327.082031 269.820312 327.082031 271.132812 327.734375 271.789062 C 322.492188 280.972656 315.933594 289.5 309.375 297.375 C 308.71875 296.71875 307.40625 297.375 306.753906 298.03125 C 306.097656 299.34375 306.097656 300.65625 306.753906 301.96875 C 307.40625 303.277344 309.375 302.625 310.6875 301.96875 C 311.34375 301.3125 311.34375 300 311.34375 299.34375 C 318.554688 291.46875 324.457031 282.285156 330.359375 273.101562 C 329.703125 273.101562 331.015625 272.445312 331.671875 271.789062 Z M 331.671875 271.789062 " fill-opacity="1" fill-rule="nonzero"/><path fill="#000000" d="M 341.507812 140.574219 C 340.195312 141.230469 339.539062 142.542969 339.539062 143.855469 C 340.195312 145.164062 340.851562 145.820312 342.164062 145.820312 C 346.753906 160.910156 348.71875 176 348.71875 191.746094 C 348.71875 210.773438 345.441406 229.144531 339.539062 246.199219 C 338.226562 246.199219 337.574219 246.855469 336.917969 247.511719 C 336.261719 248.824219 336.917969 250.136719 338.226562 250.792969 C 339.539062 251.449219 340.851562 250.792969 341.507812 249.480469 C 342.164062 248.167969 341.507812 247.511719 340.851562 246.855469 C 347.410156 229.144531 350.6875 210.773438 350.6875 191.746094 C 350.6875 176 348.71875 160.253906 344.128906 145.164062 C 344.785156 144.507812 345.441406 143.199219 344.785156 142.542969 C 344.128906 141.230469 342.820312 139.917969 341.507812 140.574219 Z M 341.507812 140.574219 " fill-opacity="1" fill-rule="nonzero"/><path fill="#000000" d="M 331.015625 114.988281 C 313.964844 82.839844 285.769531 57.253906 252.324219 42.820312 C 252.324219 41.507812 251.667969 40.851562 251.011719 40.195312 C 249.699219 39.539062 248.390625 40.195312 247.734375 41.507812 C 247.078125 42.820312 247.734375 44.128906 249.046875 44.785156 C 250.355469 45.441406 251.011719 44.785156 251.667969 44.128906 C 284.457031 58.5625 312 83.496094 329.046875 115.644531 C 328.390625 116.296875 328.390625 117.609375 328.390625 118.265625 C 329.046875 119.578125 330.359375 120.234375 331.671875 119.578125 C 332.984375 118.921875 333.636719 117.609375 332.984375 116.296875 C 333.636719 114.988281 332.328125 114.332031 331.015625 114.988281 Z M 331.015625 114.988281 " fill-opacity="1" fill-rule="nonzero"/><path fill="#000000" d="M 228.714844 32.976562 C 227.40625 32.976562 226.75 32.976562 226.09375 34.289062 C 213.632812 31.664062 201.175781 29.695312 188.058594 29.695312 C 172.976562 29.695312 158.550781 31.664062 144.125 35.601562 C 131.007812 39.539062 118.550781 44.785156 106.746094 51.347656 C 106.089844 50.691406 104.777344 50.691406 104.121094 51.347656 C 103.464844 51.347656 102.8125 53.316406 103.464844 54.628906 C 104.121094 55.941406 105.433594 55.941406 106.746094 55.285156 C 107.402344 54.628906 108.058594 53.316406 108.058594 52.660156 C 132.320312 38.882812 159.863281 31.007812 188.058594 31.007812 C 200.519531 31.007812 212.976562 32.320312 225.4375 35.601562 C 225.4375 36.914062 226.09375 37.570312 227.40625 37.570312 C 228.714844 38.226562 230.027344 36.914062 230.683594 35.601562 C 231.339844 34.289062 230.683594 32.976562 228.714844 32.976562 Z M 228.714844 32.976562 " fill-opacity="1" fill-rule="nonzero"/><path fill="#000000" d="M 39.859375 128.765625 C 41.167969 129.421875 42.480469 128.765625 43.136719 127.453125 C 43.792969 126.140625 43.136719 125.484375 42.480469 124.828125 C 52.316406 103.175781 67.398438 83.496094 85.761719 68.40625 C 86.417969 69.0625 87.726562 69.0625 88.382812 68.40625 C 90.351562 67.09375 90.351562 65.125 89.039062 64.46875 C 88.382812 63.15625 87.074219 63.15625 85.761719 63.8125 C 85.105469 64.46875 84.449219 65.78125 85.105469 66.4375 C 66.089844 82.183594 51.003906 101.863281 41.167969 124.171875 C 39.859375 124.171875 39.203125 124.828125 38.546875 125.484375 C 37.890625 126.796875 38.546875 128.109375 39.859375 128.765625 Z M 39.859375 128.765625 " fill-opacity="1" fill-rule="nonzero"/><path fill="#000000" d="M 60.84375 105.144531 C 59.53125 105.144531 58.875 105.144531 58.21875 106.457031 C 57.5625 107.769531 57.5625 109.082031 58.875 109.738281 C 60.1875 110.394531 61.496094 110.394531 62.152344 109.082031 C 62.808594 108.425781 62.808594 107.113281 62.152344 106.457031 C 79.203125 81.527344 103.464844 61.84375 131.007812 50.691406 C 131.664062 51.347656 132.976562 52.003906 133.632812 51.347656 C 134.941406 50.691406 135.597656 49.378906 134.941406 48.066406 C 134.289062 46.753906 132.976562 46.097656 131.664062 46.753906 C 130.351562 47.410156 129.695312 48.066406 129.695312 49.378906 C 116.582031 54.628906 103.464844 62.5 91.664062 72.34375 C 79.859375 81.527344 69.367188 92.679688 60.84375 105.144531 Z M 60.84375 105.144531 " fill-opacity="1" fill-rule="nonzero"/><path fill="#000000" d="M 91.007812 313.121094 C 92.320312 313.777344 93.628906 313.777344 94.285156 312.464844 C 94.941406 311.152344 94.941406 309.839844 93.628906 309.183594 C 92.972656 308.527344 91.664062 308.527344 91.007812 309.183594 C 75.269531 296.0625 61.496094 279.003906 52.316406 260.632812 C 52.972656 259.976562 52.972656 258.667969 52.972656 258.011719 C 52.316406 256.042969 51.003906 255.386719 49.695312 256.042969 C 48.382812 256.699219 47.726562 258.011719 48.382812 259.324219 C 49.039062 260.632812 49.695312 260.632812 51.003906 260.632812 C 55.597656 269.820312 61.496094 279.003906 68.054688 287.535156 C 74.613281 295.40625 81.828125 303.277344 90.351562 309.839844 C 89.695312 311.152344 90.351562 312.464844 91.007812 313.121094 Z M 91.007812 313.121094 " fill-opacity="1" fill-rule="nonzero"/><path fill="#000000" d="M 121.828125 332.144531 C 123.140625 332.800781 123.796875 332.144531 124.449219 331.492188 C 142.8125 340.019531 162.484375 344.613281 183.46875 345.269531 C 184.125 346.578125 184.78125 347.234375 186.09375 347.234375 C 187.402344 347.234375 188.714844 345.925781 188.714844 344.613281 C 188.714844 343.300781 187.402344 341.988281 186.09375 341.988281 C 184.78125 341.988281 184.125 342.644531 183.46875 343.957031 C 163.140625 343.300781 143.46875 338.707031 125.105469 330.179688 C 125.105469 328.867188 124.449219 328.210938 123.796875 327.554688 C 122.484375 326.898438 121.171875 327.554688 120.515625 328.867188 C 119.859375 330.179688 120.515625 331.492188 121.828125 332.144531 Z M 121.828125 332.144531 " fill-opacity="1" fill-rule="nonzero"/><path fill="#000000" d="M 208.386719 345.925781 C 209.699219 345.925781 210.355469 345.269531 210.355469 343.957031 C 220.847656 342.644531 231.339844 340.019531 241.175781 336.082031 C 251.011719 332.800781 260.191406 327.554688 269.375 322.304688 C 270.03125 322.960938 271.339844 322.960938 272.652344 322.304688 C 273.964844 321.648438 273.964844 319.679688 273.308594 319.023438 C 272.652344 317.710938 270.683594 317.710938 270.03125 318.367188 C 269.375 319.023438 268.71875 320.335938 268.71875 320.992188 C 251.011719 332.144531 231.339844 339.363281 210.355469 342.644531 C 209.699219 341.332031 208.386719 340.675781 207.730469 340.675781 C 206.421875 340.675781 205.109375 341.988281 205.765625 343.300781 C 206.421875 344.613281 207.078125 345.925781 208.386719 345.925781 Z M 208.386719 345.925781 " fill-opacity="1" fill-rule="nonzero"/><path fill="#000000" d="M 341.507812 219.957031 C 341.507812 218.644531 340.851562 217.332031 339.539062 216.675781 C 338.226562 216.023438 336.917969 217.332031 336.261719 218.644531 C 336.261719 219.957031 336.917969 220.613281 337.574219 221.269531 C 331.671875 250.136719 317.898438 276.378906 296.914062 297.375 C 296.261719 296.71875 294.949219 297.375 294.292969 298.03125 C 292.980469 299.34375 292.980469 300.65625 294.292969 301.96875 C 295.605469 303.277344 296.914062 303.277344 298.226562 301.96875 C 298.882812 301.3125 298.882812 300 298.882812 299.34375 C 309.375 288.84375 317.898438 277.035156 324.457031 263.914062 C 331.671875 250.792969 336.261719 236.359375 339.539062 221.925781 C 340.195312 221.925781 340.851562 221.269531 341.507812 219.957031 Z M 341.507812 219.957031 " fill-opacity="1" fill-rule="nonzero"/><path fill="#000000" d="M 319.210938 107.769531 C 318.554688 106.457031 316.589844 106.457031 315.933594 107.113281 C 314.621094 107.769531 314.621094 109.738281 315.277344 110.394531 C 315.933594 111.050781 317.246094 111.707031 317.898438 111.707031 C 332.984375 135.980469 340.851562 163.535156 340.851562 191.746094 C 340.851562 193.058594 340.851562 194.371094 340.851562 195.027344 C 339.539062 195.027344 338.882812 196.339844 338.882812 197.652344 C 338.882812 198.964844 340.195312 200.277344 341.507812 200.277344 C 342.820312 200.277344 344.128906 198.964844 344.128906 197.652344 C 344.128906 196.339844 343.476562 195.683594 342.820312 195.027344 C 342.820312 193.714844 342.820312 192.402344 342.820312 191.746094 C 342.820312 162.878906 334.949219 135.324219 319.867188 111.050781 C 319.867188 109.738281 319.867188 109.082031 319.210938 107.769531 Z M 319.210938 107.769531 " fill-opacity="1" fill-rule="nonzero"/><path fill="#000000" d="M 300.195312 86.121094 C 292.324219 77.589844 283.144531 70.375 273.964844 63.8125 C 270.03125 61.1875 265.4375 58.5625 260.847656 55.941406 C 260.847656 54.628906 260.191406 53.972656 259.539062 53.316406 C 258.226562 52.660156 256.914062 53.316406 256.257812 54.628906 C 255.601562 55.941406 256.257812 57.253906 257.570312 57.910156 C 258.882812 58.5625 259.539062 57.910156 260.191406 57.253906 C 264.785156 59.875 268.71875 62.5 273.308594 65.125 C 282.488281 71.6875 291.667969 78.902344 299.539062 87.429688 C 298.882812 88.085938 298.882812 89.398438 300.195312 90.054688 C 300.851562 91.367188 302.816406 91.367188 304.128906 90.054688 C 305.441406 89.398438 305.441406 87.429688 304.128906 86.121094 C 302.160156 86.121094 301.507812 85.464844 300.195312 86.121094 Z M 300.195312 86.121094 " fill-opacity="1" fill-rule="nonzero"/><path fill="#000000" d="M 94.941406 298.6875 C 94.285156 298.03125 92.972656 298.03125 92.320312 298.6875 C 83.792969 290.8125 75.925781 282.285156 69.367188 272.445312 C 70.023438 271.789062 70.023438 270.476562 69.367188 269.164062 C 68.710938 267.851562 66.742188 267.851562 66.089844 268.507812 C 64.777344 269.164062 64.777344 271.132812 65.433594 271.789062 C 66.089844 272.445312 67.398438 273.101562 68.054688 273.101562 C 74.613281 282.941406 82.480469 292.125 91.007812 300 C 90.351562 300.65625 91.007812 301.96875 91.664062 302.625 C 92.972656 303.277344 94.285156 303.277344 94.941406 302.625 C 95.597656 301.96875 96.253906 299.34375 94.941406 298.6875 Z M 94.941406 298.6875 " fill-opacity="1" fill-rule="nonzero"/><path fill="#000000" d="M 112.648438 317.058594 C 113.304688 317.710938 114.613281 317.710938 115.269531 317.058594 C 125.761719 323.617188 137.566406 328.210938 149.371094 331.492188 C 149.371094 332.800781 150.023438 333.457031 151.335938 333.457031 C 152.648438 334.113281 153.960938 332.800781 154.617188 331.492188 C 155.269531 330.179688 153.960938 328.867188 152.648438 328.210938 C 151.335938 328.210938 150.679688 328.210938 150.023438 329.523438 C 138.222656 326.242188 127.074219 321.648438 116.582031 315.089844 C 116.582031 313.777344 116.582031 313.121094 115.269531 312.464844 C 113.957031 311.808594 112.648438 311.808594 111.992188 313.121094 C 111.335938 314.433594 111.335938 316.402344 112.648438 317.058594 Z M 112.648438 317.058594 " fill-opacity="1" fill-rule="nonzero"/><path fill="#000000" d="M 233.960938 329.523438 C 234.617188 330.179688 235.929688 330.835938 236.585938 330.179688 C 237.898438 329.523438 238.554688 328.210938 237.898438 326.898438 C 237.242188 325.585938 235.929688 324.929688 234.617188 325.585938 C 233.308594 326.242188 232.652344 326.898438 232.652344 328.210938 C 218.222656 332.800781 203.140625 335.425781 187.402344 335.425781 C 183.46875 335.425781 179.535156 335.425781 175.601562 334.769531 C 175.601562 333.457031 174.289062 332.800781 173.632812 332.800781 C 172.320312 332.800781 171.007812 333.457031 171.007812 334.769531 C 171.007812 336.082031 171.664062 337.394531 172.976562 337.394531 C 174.289062 337.394531 174.945312 336.738281 175.601562 336.082031 C 179.535156 336.738281 183.46875 336.738281 187.402344 336.738281 C 203.796875 336.738281 219.535156 334.769531 233.960938 329.523438 Z M 233.960938 329.523438 " fill-opacity="1" fill-rule="nonzero"/><path fill="#000000" d="M 304.785156 278.347656 C 306.097656 278.347656 306.753906 278.347656 307.40625 277.691406 C 308.0625 276.378906 308.0625 275.066406 306.753906 274.410156 C 305.441406 273.757812 304.128906 273.757812 303.472656 275.066406 C 302.816406 275.722656 302.816406 277.035156 303.472656 277.691406 C 291.667969 293.4375 276.585938 306.558594 260.191406 316.402344 C 259.539062 315.746094 258.226562 315.746094 257.570312 316.402344 C 256.257812 317.058594 255.601562 318.367188 256.257812 319.679688 C 256.914062 320.992188 258.226562 321.648438 259.539062 320.992188 C 260.191406 320.335938 260.847656 319.679688 260.847656 318.367188 C 269.375 313.121094 277.242188 307.871094 285.113281 300.65625 C 292.324219 293.4375 298.882812 286.222656 304.785156 278.347656 Z M 304.785156 278.347656 " fill-opacity="1" fill-rule="nonzero"/><path fill="#000000" d="M 326.425781 149.101562 C 325.113281 149.757812 324.457031 151.070312 324.457031 152.382812 C 324.457031 153.695312 325.769531 154.351562 327.082031 154.351562 C 330.359375 166.816406 332.328125 179.28125 332.328125 191.746094 C 332.328125 207.492188 329.703125 223.238281 325.113281 237.671875 C 323.800781 237.671875 323.144531 238.328125 322.492188 239.640625 C 321.835938 240.953125 322.492188 242.265625 323.800781 242.921875 C 325.113281 243.578125 326.425781 242.921875 327.082031 241.609375 C 327.734375 240.296875 327.082031 239.640625 326.425781 238.984375 C 331.671875 223.894531 334.292969 208.148438 334.292969 192.402344 C 334.292969 179.28125 332.328125 166.816406 329.046875 154.351562 C 329.703125 153.695312 330.359375 152.382812 329.703125 151.726562 C 329.046875 149.757812 327.734375 148.445312 326.425781 149.101562 Z M 326.425781 149.101562 " fill-opacity="1" fill-rule="nonzero"/><path fill="#000000" d="M 318.554688 127.453125 C 314.621094 118.921875 309.375 111.707031 304.128906 103.832031 C 298.882812 96.617188 292.324219 90.054688 285.769531 83.496094 C 286.421875 82.839844 285.769531 81.527344 285.113281 80.871094 C 283.800781 80.214844 282.488281 80.214844 281.832031 80.871094 C 280.523438 82.183594 280.523438 84.152344 281.832031 84.808594 C 282.488281 85.464844 283.800781 85.464844 284.457031 84.808594 C 298.226562 97.273438 308.71875 111.707031 317.246094 127.453125 C 316.589844 128.109375 316.589844 129.421875 316.589844 130.078125 C 317.246094 131.386719 318.554688 132.042969 319.867188 131.386719 C 321.179688 130.730469 321.835938 129.421875 321.179688 128.109375 C 320.523438 127.453125 319.867188 127.453125 318.554688 127.453125 Z M 318.554688 127.453125 " fill-opacity="1" fill-rule="nonzero"/><path fill="#000000" d="M 225.4375 49.378906 C 224.125 48.722656 222.816406 50.035156 222.160156 51.347656 C 221.503906 52.660156 222.816406 53.972656 224.125 54.628906 C 225.4375 54.628906 226.09375 54.628906 226.75 53.316406 C 238.554688 56.597656 249.699219 61.1875 260.191406 67.09375 C 260.191406 68.40625 260.191406 69.0625 261.503906 69.71875 C 262.816406 70.375 264.128906 70.375 264.785156 69.0625 C 265.4375 67.75 265.4375 66.4375 264.128906 65.78125 C 262.816406 65.125 261.503906 65.125 260.847656 65.78125 C 250.355469 59.875 239.207031 54.628906 227.40625 51.347656 C 227.40625 50.691406 226.75 49.378906 225.4375 49.378906 Z M 225.4375 49.378906 " fill-opacity="1" fill-rule="nonzero"/><path fill="#000000" d="M 203.140625 45.441406 C 201.832031 45.441406 201.175781 46.097656 200.519531 46.753906 C 196.585938 46.097656 192.648438 46.097656 188.714844 46.097656 C 176.910156 46.097656 165.761719 47.410156 154.617188 50.035156 C 151.992188 50.691406 148.714844 51.347656 146.089844 52.660156 C 129.042969 57.910156 113.304688 66.4375 98.875 77.589844 C 98.21875 76.933594 96.910156 76.933594 95.597656 77.589844 C 94.285156 78.246094 94.285156 80.214844 94.941406 80.871094 C 95.597656 82.183594 97.566406 82.183594 98.21875 81.527344 C 98.875 80.871094 99.53125 79.558594 98.875 78.902344 C 112.648438 67.75 128.386719 59.875 145.433594 54.628906 C 148.058594 53.972656 151.335938 53.316406 153.960938 52.003906 C 165.109375 49.378906 176.253906 48.066406 187.402344 48.066406 C 191.339844 48.066406 195.273438 48.066406 199.207031 48.722656 C 199.207031 50.035156 200.519531 50.691406 201.175781 50.691406 C 202.484375 50.691406 203.796875 50.035156 203.796875 48.722656 C 205.765625 46.753906 204.453125 45.441406 203.140625 45.441406 Z M 203.140625 45.441406 " fill-opacity="1" fill-rule="nonzero"/><path fill="#000000" d="M 216.914062 326.898438 C 218.222656 326.898438 218.878906 325.585938 218.878906 324.929688 C 236.585938 320.992188 252.980469 313.777344 268.0625 302.625 C 275.277344 297.375 282.488281 290.8125 289.046875 284.253906 C 294.949219 278.347656 300.195312 271.132812 304.785156 263.914062 C 306.097656 263.914062 306.753906 263.914062 307.40625 262.601562 C 308.0625 261.289062 308.0625 259.976562 306.753906 259.324219 C 305.441406 258.667969 304.128906 258.667969 303.472656 259.976562 C 302.816406 260.632812 302.816406 261.945312 303.472656 262.601562 C 284.457031 292.78125 254.292969 314.433594 219.535156 322.304688 C 218.878906 321.648438 218.222656 320.992188 216.914062 320.992188 C 215.601562 320.992188 214.945312 322.304688 214.945312 324.273438 C 214.289062 326.242188 215.601562 327.554688 216.914062 326.898438 Z M 216.914062 326.898438 " fill-opacity="1" fill-rule="nonzero"/><path fill="#000000" d="M 325.113281 211.429688 C 325.113281 210.117188 324.457031 208.804688 323.144531 208.804688 C 321.835938 208.804688 320.523438 209.460938 320.523438 210.773438 C 320.523438 212.085938 321.179688 212.742188 321.835938 213.398438 C 319.867188 224.550781 316.589844 235.703125 312 246.199219 C 310.6875 246.199219 310.03125 246.855469 309.375 247.511719 C 308.71875 248.824219 309.375 250.136719 310.6875 250.792969 C 312 251.449219 313.308594 250.792969 313.964844 249.480469 C 314.621094 248.167969 313.964844 247.511719 313.308594 246.855469 C 317.898438 236.359375 321.179688 225.207031 323.144531 213.398438 C 324.457031 213.398438 325.113281 212.742188 325.113281 211.429688 Z M 325.113281 211.429688 " fill-opacity="1" fill-rule="nonzero"/><path fill="#000000" d="M 313.308594 135.980469 C 313.964844 135.324219 314.621094 134.011719 313.964844 133.355469 C 313.308594 132.042969 312 131.386719 310.6875 132.042969 C 309.375 132.699219 308.71875 134.011719 309.375 135.324219 C 310.03125 136.636719 310.6875 136.636719 312 136.636719 C 313.964844 141.886719 315.933594 147.132812 317.898438 152.382812 C 321.179688 163.535156 323.144531 174.6875 323.144531 185.84375 C 321.835938 186.5 321.179688 187.15625 321.179688 188.464844 C 321.179688 189.777344 322.492188 191.089844 323.800781 191.089844 C 325.113281 191.089844 326.425781 189.777344 326.425781 188.464844 C 326.425781 187.15625 325.769531 186.5 324.457031 185.84375 C 323.800781 174.03125 321.835938 162.878906 318.554688 151.726562 C 317.898438 147.132812 315.933594 141.230469 313.308594 135.980469 Z M 313.308594 135.980469 " fill-opacity="1" fill-rule="nonzero"/><path fill="#000000" d="M 302.160156 122.203125 C 302.816406 123.515625 304.785156 123.515625 305.441406 122.859375 C 306.753906 122.203125 306.753906 120.234375 306.097656 119.578125 C 305.441406 118.921875 304.128906 118.265625 303.472656 118.265625 C 292.324219 101.210938 277.898438 86.121094 260.191406 75.621094 C 260.191406 74.308594 260.191406 73.652344 258.882812 72.996094 C 257.570312 72.34375 256.257812 72.996094 255.601562 73.652344 C 254.945312 74.964844 255.601562 76.277344 256.257812 76.933594 C 256.914062 77.589844 258.226562 77.589844 258.882812 76.933594 C 275.929688 87.429688 290.359375 101.863281 301.507812 118.921875 C 301.507812 119.578125 301.507812 120.890625 302.160156 122.203125 Z M 302.160156 122.203125 " fill-opacity="1" fill-rule="nonzero"/><path fill="#000000" d="M 237.898438 62.5 C 236.585938 61.84375 235.929688 62.5 235.273438 63.15625 C 222.160156 58.5625 207.730469 55.285156 193.960938 55.285156 C 193.304688 53.972656 192.648438 53.316406 191.339844 53.316406 C 190.027344 53.316406 188.714844 54.628906 188.714844 55.941406 C 188.714844 57.253906 190.027344 58.5625 191.339844 58.5625 C 192.648438 58.5625 193.304688 57.910156 193.960938 56.597656 C 207.730469 57.253906 221.503906 59.875 234.617188 64.46875 C 234.617188 65.78125 235.273438 66.4375 235.929688 67.09375 C 237.242188 67.75 238.554688 67.09375 239.207031 65.78125 C 239.863281 64.46875 239.207031 62.5 237.898438 62.5 Z M 237.898438 62.5 " fill-opacity="1" fill-rule="nonzero"/><path fill="#000000" d="M 167.730469 54.628906 C 166.417969 54.628906 165.761719 55.941406 165.761719 56.597656 C 154.617188 58.5625 143.46875 61.84375 132.976562 66.4375 C 132.320312 65.78125 131.007812 65.125 130.351562 65.78125 C 129.042969 66.4375 128.386719 67.75 129.042969 69.0625 C 129.695312 70.375 131.007812 71.03125 132.320312 70.375 C 133.632812 69.71875 133.632812 69.0625 133.632812 67.75 C 144.125 63.15625 154.617188 59.875 165.761719 57.910156 C 166.417969 58.5625 167.074219 59.21875 168.386719 59.21875 C 169.699219 59.21875 171.007812 57.910156 170.355469 56.597656 C 170.355469 55.285156 169.042969 54.628906 167.730469 54.628906 Z M 167.730469 54.628906 " fill-opacity="1" fill-rule="nonzero"/><path fill="#000000" d="M 71.335938 120.890625 C 70.023438 120.890625 69.367188 120.890625 68.710938 122.203125 C 68.054688 123.515625 68.710938 124.828125 69.367188 125.484375 C 70.679688 126.140625 71.988281 125.484375 72.644531 124.828125 C 73.300781 124.171875 73.300781 122.859375 72.644531 122.203125 C 81.828125 107.113281 94.285156 93.335938 108.058594 82.839844 C 108.710938 83.496094 110.023438 83.496094 110.679688 82.839844 C 111.992188 82.183594 111.992188 80.214844 111.335938 79.558594 C 110.679688 78.246094 108.710938 78.246094 108.058594 78.902344 C 107.402344 79.558594 106.746094 80.871094 107.402344 81.527344 C 100.1875 86.777344 93.628906 92.679688 87.074219 99.242188 C 81.171875 105.800781 75.925781 113.675781 71.335938 120.890625 Z M 71.335938 120.890625 " fill-opacity="1" fill-rule="nonzero"/><path fill="#000000" d="M 124.449219 314.433594 C 125.761719 315.089844 127.074219 314.433594 127.730469 313.121094 C 128.386719 311.808594 127.730469 310.496094 126.417969 309.839844 C 125.105469 309.183594 124.449219 309.839844 123.796875 310.496094 C 101.5 298.6875 83.136719 280.972656 70.679688 258.667969 C 71.335938 258.011719 71.335938 256.699219 71.335938 256.042969 C 70.679688 254.730469 69.367188 254.074219 68.054688 254.730469 C 66.742188 255.386719 66.089844 256.699219 66.742188 258.011719 C 67.398438 258.667969 68.054688 259.324219 69.367188 259.324219 C 75.925781 270.476562 83.136719 280.316406 92.320312 289.5 C 101.5 298.6875 111.335938 305.902344 122.484375 311.808594 C 123.140625 313.121094 123.796875 314.433594 124.449219 314.433594 Z M 124.449219 314.433594 " fill-opacity="1" fill-rule="nonzero"/><path fill="#000000" d="M 147.402344 324.273438 C 148.714844 324.273438 149.371094 324.273438 150.023438 323.617188 C 162.484375 326.898438 174.945312 328.867188 188.058594 328.867188 C 189.371094 328.867188 190.683594 328.867188 191.339844 328.867188 C 191.992188 329.523438 192.648438 330.835938 193.960938 330.179688 C 195.273438 330.179688 196.585938 328.867188 196.585938 327.554688 C 196.585938 326.242188 195.273438 324.929688 193.960938 324.929688 C 192.648438 324.929688 191.992188 325.585938 191.339844 326.898438 C 190.027344 326.898438 188.714844 326.898438 188.058594 326.898438 C 175.601562 326.898438 162.484375 324.929688 150.679688 321.648438 C 150.679688 320.335938 150.023438 319.679688 148.714844 319.023438 C 147.402344 318.367188 146.089844 319.679688 145.433594 320.992188 C 145.433594 322.304688 146.089844 323.617188 147.402344 324.273438 Z M 147.402344 324.273438 " fill-opacity="1" fill-rule="nonzero"/><path fill="#000000" d="M 251.667969 301.3125 C 251.011719 300.65625 249.699219 300.65625 249.046875 301.3125 C 247.734375 301.3125 247.078125 303.277344 247.734375 304.589844 C 248.390625 305.902344 249.699219 306.558594 251.011719 305.902344 C 251.667969 305.246094 252.324219 304.589844 252.324219 303.277344 C 263.472656 296.71875 273.308594 288.84375 281.832031 279.660156 C 290.359375 270.476562 297.570312 259.976562 303.472656 248.167969 C 304.785156 248.167969 305.441406 247.511719 306.097656 246.855469 C 306.753906 245.542969 306.097656 244.234375 304.785156 243.578125 C 303.472656 242.921875 302.160156 243.578125 301.507812 244.890625 C 300.851562 246.199219 301.507812 246.855469 302.160156 247.511719 C 291.667969 269.164062 273.308594 288.84375 251.667969 301.3125 Z M 251.667969 301.3125 " fill-opacity="1" fill-rule="nonzero"/><path fill="#000000" d="M 317.898438 185.1875 C 317.898438 183.875 316.589844 182.5625 315.277344 182.5625 C 313.964844 182.5625 312.652344 183.875 312.652344 185.1875 C 312.652344 186.5 313.308594 187.15625 314.621094 187.808594 C 314.621094 189.121094 314.621094 190.433594 314.621094 191.746094 C 314.621094 201.589844 313.308594 211.429688 311.34375 220.613281 C 310.03125 220.613281 309.375 221.269531 309.375 222.582031 C 308.71875 223.894531 310.03125 225.207031 311.34375 225.863281 C 312.652344 226.519531 313.964844 225.207031 314.621094 223.894531 C 314.621094 222.582031 314.621094 221.925781 313.308594 221.269531 C 315.277344 211.429688 316.589844 201.589844 316.589844 191.746094 C 316.589844 190.433594 316.589844 189.121094 316.589844 187.808594 C 317.246094 187.15625 317.898438 186.5 317.898438 185.1875 Z M 317.898438 185.1875 " fill-opacity="1" fill-rule="nonzero"/><path fill="#000000" d="M 310.03125 164.191406 C 310.03125 165.503906 312 166.160156 313.308594 166.160156 C 314.621094 166.160156 315.277344 164.191406 315.277344 162.878906 C 315.277344 161.566406 313.964844 160.910156 313.308594 160.910156 C 310.03125 147.789062 304.785156 135.980469 298.226562 124.171875 C 298.882812 123.515625 298.882812 122.203125 298.226562 120.890625 C 297.570312 119.578125 295.605469 119.578125 294.949219 120.234375 C 293.636719 120.890625 293.636719 122.859375 294.292969 123.515625 C 294.949219 124.171875 296.261719 124.828125 296.914062 124.828125 C 303.472656 135.980469 308.71875 147.789062 312 160.910156 C 310.6875 162.222656 310.03125 162.878906 310.03125 164.191406 Z M 310.03125 164.191406 " fill-opacity="1" fill-rule="nonzero"/><path fill="#000000" d="M 225.4375 67.09375 C 224.125 66.4375 222.816406 67.75 222.160156 69.0625 C 222.160156 70.375 222.816406 71.6875 224.125 71.6875 C 225.4375 71.6875 226.09375 71.6875 226.75 71.03125 C 245.765625 76.933594 262.816406 87.429688 277.242188 101.863281 C 276.585938 102.519531 277.242188 103.832031 277.898438 104.488281 C 278.554688 105.800781 280.523438 105.800781 281.832031 104.488281 C 283.144531 103.175781 283.144531 101.863281 281.832031 100.554688 C 281.175781 99.898438 279.867188 99.242188 279.210938 99.898438 C 264.785156 85.464844 247.078125 74.964844 228.0625 69.0625 C 227.40625 68.40625 226.75 67.09375 225.4375 67.09375 Z M 225.4375 67.09375 " fill-opacity="1" fill-rule="nonzero"/><path fill="#000000" d="M 202.484375 67.75 C 203.796875 67.75 205.109375 67.09375 205.109375 65.78125 C 205.109375 64.46875 204.453125 63.15625 203.140625 63.15625 C 201.832031 63.15625 201.175781 63.8125 200.519531 64.46875 C 196.585938 63.8125 192.648438 63.8125 188.058594 63.8125 C 180.191406 63.8125 172.320312 64.46875 164.453125 65.78125 C 163.796875 65.125 163.140625 64.46875 161.828125 64.46875 C 160.515625 64.46875 159.863281 66.4375 159.863281 67.75 C 159.863281 69.0625 161.828125 69.71875 163.140625 69.71875 C 164.453125 69.71875 165.109375 68.40625 165.109375 67.75 C 172.976562 65.78125 180.847656 65.125 188.714844 65.125 C 192.648438 65.125 196.585938 65.125 200.519531 65.78125 C 200.519531 66.4375 201.175781 67.75 202.484375 67.75 Z M 202.484375 67.75 " fill-opacity="1" fill-rule="nonzero"/><path fill="#000000" d="M 135.597656 76.933594 C 136.253906 77.589844 137.566406 78.246094 138.222656 77.589844 C 139.53125 76.933594 140.1875 75.621094 139.53125 74.308594 C 138.878906 72.996094 137.566406 72.34375 136.253906 72.996094 C 134.941406 73.652344 134.941406 74.308594 134.941406 75.621094 C 115.925781 84.152344 98.875 97.929688 86.417969 114.988281 C 85.105469 114.988281 84.449219 114.988281 83.792969 115.644531 C 83.136719 116.953125 83.136719 118.265625 84.449219 118.921875 C 85.761719 119.578125 87.074219 119.578125 87.726562 118.265625 C 88.382812 117.609375 88.382812 116.296875 87.726562 115.644531 C 100.1875 98.585938 116.582031 85.464844 135.597656 76.933594 Z M 135.597656 76.933594 " fill-opacity="1" fill-rule="nonzero"/><path fill="#000000" d="M 91.007812 277.691406 C 91.664062 279.003906 93.628906 279.003906 94.941406 277.691406 C 96.253906 277.035156 96.253906 275.066406 94.941406 273.757812 C 94.285156 273.101562 92.972656 272.445312 92.320312 273.101562 C 83.792969 263.257812 77.234375 252.761719 72.644531 240.953125 C 73.300781 240.296875 73.957031 238.984375 73.300781 238.328125 C 72.644531 237.015625 71.335938 236.359375 70.023438 237.015625 C 68.710938 237.671875 68.054688 238.984375 68.710938 240.296875 C 68.710938 241.609375 69.367188 242.265625 70.679688 242.265625 C 75.925781 254.074219 82.480469 264.570312 91.007812 274.410156 C 90.351562 275.722656 90.351562 277.035156 91.007812 277.691406 Z M 91.007812 277.691406 " fill-opacity="1" fill-rule="nonzero"/><path fill="#000000" d="M 115.269531 297.375 C 128.386719 306.558594 142.8125 313.121094 157.894531 316.402344 C 157.894531 317.710938 158.550781 318.367188 159.863281 318.367188 C 161.171875 318.367188 162.484375 317.710938 163.140625 316.402344 C 163.140625 315.089844 162.484375 313.777344 161.171875 313.121094 C 159.863281 313.121094 159.207031 313.121094 158.550781 314.433594 C 143.46875 310.496094 129.695312 304.589844 116.582031 295.40625 C 116.582031 294.09375 116.582031 293.4375 115.925781 292.78125 C 114.613281 292.125 113.304688 292.125 112.648438 293.4375 C 111.992188 294.75 111.992188 296.0625 113.304688 296.71875 C 113.304688 298.03125 114.613281 298.03125 115.269531 297.375 Z M 115.269531 297.375 " fill-opacity="1" fill-rule="nonzero"/><path fill="#000000" d="M 229.371094 315.089844 C 230.683594 314.433594 231.339844 313.121094 230.683594 311.808594 C 230.027344 310.496094 228.714844 309.839844 227.40625 310.496094 C 226.09375 311.152344 225.4375 311.808594 225.4375 313.121094 C 213.632812 317.058594 200.519531 319.023438 188.058594 319.023438 C 186.746094 319.023438 185.4375 319.023438 184.78125 319.023438 C 184.78125 317.710938 183.46875 317.058594 182.15625 317.058594 C 180.847656 317.058594 179.535156 318.367188 179.535156 319.679688 C 179.535156 320.992188 180.847656 322.304688 182.15625 322.304688 C 183.46875 322.304688 184.125 321.648438 184.78125 320.992188 C 186.09375 320.992188 187.402344 320.992188 188.058594 320.992188 C 201.175781 320.992188 213.632812 319.023438 226.09375 315.089844 C 226.75 315.089844 228.0625 315.089844 229.371094 315.089844 Z M 229.371094 315.089844 " fill-opacity="1" fill-rule="nonzero"/><path fill="#000000" d="M 130.351562 90.710938 C 131.007812 90.054688 131.664062 89.398438 131.664062 88.085938 C 145.433594 80.871094 159.863281 75.621094 175.601562 74.308594 C 176.253906 74.964844 176.910156 75.621094 178.222656 75.621094 C 179.535156 75.621094 180.847656 74.308594 180.847656 72.996094 C 180.847656 71.6875 179.535156 70.375 178.222656 70.375 C 176.910156 70.375 176.253906 71.03125 176.253906 72.34375 C 160.515625 74.308594 145.433594 78.902344 131.664062 86.777344 C 131.007812 86.121094 129.695312 86.121094 128.386719 86.777344 C 127.074219 87.429688 127.074219 88.742188 127.730469 90.054688 C 127.074219 91.367188 129.042969 91.367188 130.351562 90.710938 Z M 130.351562 90.710938 " fill-opacity="1" fill-rule="nonzero"/><path fill="#000000" d="M 97.566406 269.820312 C 105.433594 278.347656 113.957031 286.222656 123.796875 292.78125 C 123.796875 294.09375 123.796875 294.75 125.105469 295.40625 C 126.417969 296.0625 127.730469 295.40625 128.386719 294.75 C 129.042969 294.09375 128.386719 292.125 127.730469 291.46875 C 127.074219 290.8125 125.761719 290.8125 125.105469 291.46875 C 115.269531 285.566406 106.746094 277.691406 98.875 269.164062 C 99.53125 268.507812 99.53125 267.195312 98.875 266.539062 C 98.21875 265.226562 96.253906 265.226562 95.597656 265.882812 C 94.285156 266.539062 94.285156 268.507812 94.941406 269.164062 C 95.597656 270.476562 96.910156 270.476562 97.566406 269.820312 Z M 97.566406 269.820312 " fill-opacity="1" fill-rule="nonzero"/><path fill="#000000" d="M 147.402344 305.902344 C 148.714844 306.558594 149.371094 305.902344 150.023438 305.246094 C 162.484375 309.183594 174.945312 311.152344 188.058594 311.152344 C 191.992188 311.152344 195.929688 311.152344 200.519531 310.496094 C 201.175781 311.152344 201.832031 311.808594 203.140625 311.808594 C 204.453125 311.808594 205.765625 310.496094 205.109375 309.183594 C 205.109375 307.871094 203.796875 306.558594 202.484375 307.214844 C 201.175781 307.214844 200.519531 307.871094 200.519531 309.183594 C 196.585938 309.839844 192.648438 309.839844 188.714844 309.839844 C 175.601562 309.839844 163.140625 307.871094 151.335938 303.933594 C 151.335938 302.625 150.679688 301.96875 149.371094 301.3125 C 148.058594 300.65625 146.746094 301.3125 146.089844 302.625 C 145.433594 303.933594 146.089844 305.246094 147.402344 305.902344 Z M 147.402344 305.902344 " fill-opacity="1" fill-rule="nonzero"/><path fill="#000000" d="M 225.4375 307.214844 C 226.75 306.558594 227.40625 305.902344 227.40625 304.589844 C 246.421875 298.03125 263.472656 286.878906 276.585938 271.789062 C 277.242188 272.445312 278.554688 271.789062 279.210938 271.132812 C 279.867188 269.820312 279.867188 268.507812 279.210938 267.851562 C 277.898438 267.195312 276.585938 267.195312 275.929688 267.851562 C 275.277344 268.507812 275.277344 269.820312 275.929688 270.476562 C 262.816406 284.910156 245.765625 296.0625 227.40625 302.625 C 226.75 301.96875 225.4375 301.3125 224.78125 301.96875 C 223.46875 302.625 222.816406 303.933594 222.816406 305.246094 C 222.816406 306.558594 224.125 307.871094 225.4375 307.214844 Z M 225.4375 307.214844 " fill-opacity="1" fill-rule="nonzero"/><path fill="#000000" d="M 308.71875 176.65625 C 308.71875 175.34375 307.40625 174.03125 306.097656 174.6875 C 304.785156 174.6875 303.472656 176 304.128906 177.3125 C 304.128906 178.625 304.785156 179.28125 306.097656 179.28125 C 306.753906 183.21875 306.753906 187.15625 306.753906 191.089844 C 306.753906 210.117188 302.160156 229.144531 293.636719 245.542969 C 292.324219 245.542969 291.667969 245.542969 291.015625 246.855469 C 290.359375 248.167969 291.015625 249.480469 292.324219 250.136719 C 293.636719 250.792969 294.949219 250.136719 295.605469 248.824219 C 296.261719 248.167969 296.261719 246.855469 294.949219 245.542969 C 298.882812 237.671875 302.160156 229.144531 304.785156 220.613281 C 307.40625 210.773438 308.71875 200.277344 308.71875 190.433594 C 308.71875 186.5 308.71875 182.5625 308.0625 177.96875 C 308.71875 179.28125 309.375 177.96875 308.71875 176.65625 Z M 308.71875 176.65625 " fill-opacity="1" fill-rule="nonzero"/><path fill="#000000" d="M 300.851562 145.820312 C 300.195312 144.507812 299.539062 143.855469 298.226562 144.507812 C 289.703125 125.484375 276.585938 108.425781 260.191406 95.960938 C 243.144531 82.839844 222.816406 74.964844 201.832031 72.996094 C 201.832031 71.6875 200.519531 71.03125 199.863281 71.03125 C 198.550781 71.03125 197.238281 71.6875 197.238281 73.652344 C 197.238281 75.621094 197.894531 76.277344 199.863281 76.277344 C 201.175781 76.277344 201.832031 75.621094 202.484375 74.964844 C 244.453125 79.558594 280.523438 106.457031 297.570312 145.820312 C 296.914062 146.476562 296.261719 147.789062 296.914062 148.445312 C 297.570312 149.757812 298.882812 150.414062 300.195312 149.757812 C 300.851562 148.445312 301.507812 147.132812 300.851562 145.820312 Z M 300.851562 145.820312 " fill-opacity="1" fill-rule="nonzero"/><path fill="#000000" d="M 237.898438 44.128906 C 236.585938 43.476562 235.929688 44.128906 235.273438 44.785156 C 228.714844 42.820312 221.503906 40.851562 214.289062 39.539062 C 205.765625 38.882812 197.238281 37.570312 188.714844 37.570312 C 181.5 37.570312 174.945312 38.226562 167.730469 38.882812 C 167.074219 38.226562 166.417969 37.570312 165.109375 37.570312 C 163.796875 37.570312 162.484375 38.882812 163.140625 40.195312 C 163.140625 41.507812 164.453125 42.820312 165.761719 42.164062 C 167.074219 42.164062 167.730469 40.851562 167.730469 40.195312 C 174.289062 39.539062 181.5 38.882812 188.058594 38.882812 C 196.585938 38.882812 205.109375 39.539062 213.632812 40.851562 C 220.847656 42.164062 227.40625 43.476562 233.960938 46.097656 C 233.960938 47.410156 234.617188 48.066406 235.929688 48.722656 C 237.242188 49.378906 238.554688 48.722656 239.207031 47.410156 C 239.863281 46.097656 239.207031 44.785156 237.898438 44.128906 Z M 237.898438 44.128906 " fill-opacity="1" fill-rule="nonzero"/><path fill="#000000" d="M 97.566406 256.042969 C 111.992188 277.035156 133.632812 292.125 157.894531 298.6875 C 157.894531 300 158.550781 300.65625 159.863281 300.65625 C 161.171875 301.3125 162.484375 300 163.140625 298.6875 C 163.796875 297.375 162.484375 296.0625 161.171875 295.40625 C 159.863281 295.40625 159.207031 295.40625 158.550781 296.71875 C 134.285156 290.15625 113.304688 275.066406 98.875 254.730469 C 99.53125 254.074219 99.53125 252.761719 98.875 252.105469 C 98.21875 250.792969 96.253906 250.792969 95.597656 251.449219 C 94.941406 252.105469 94.285156 254.074219 94.941406 254.730469 C 94.941406 255.386719 96.253906 256.042969 97.566406 256.042969 Z M 97.566406 256.042969 " fill-opacity="1" fill-rule="nonzero"/><path fill="#000000" d="M 229.371094 296.71875 C 230.683594 296.0625 231.339844 294.75 230.683594 293.4375 C 230.027344 292.125 228.714844 291.46875 227.40625 292.125 C 226.09375 292.78125 226.09375 293.4375 226.09375 294.75 C 214.289062 299.34375 201.175781 301.3125 188.714844 301.3125 C 187.402344 301.3125 186.09375 301.3125 184.78125 301.3125 C 184.78125 300 183.46875 299.34375 182.15625 299.34375 C 180.847656 299.34375 179.535156 300.65625 179.535156 301.96875 C 179.535156 303.277344 180.847656 304.589844 182.15625 304.589844 C 183.46875 304.589844 184.125 303.933594 184.78125 303.277344 C 186.09375 303.277344 187.402344 303.277344 188.714844 303.277344 C 201.832031 303.277344 214.945312 301.3125 226.75 296.71875 C 227.40625 296.71875 228.714844 297.375 229.371094 296.71875 Z M 229.371094 296.71875 " fill-opacity="1" fill-rule="nonzero"/><path fill="#000000" d="M 291.667969 237.671875 C 292.324219 236.359375 291.667969 235.046875 290.359375 234.390625 C 289.046875 233.734375 287.734375 234.390625 287.078125 235.703125 C 286.421875 237.015625 287.078125 237.671875 287.734375 238.328125 C 279.210938 255.386719 266.75 270.476562 251.011719 281.628906 C 250.355469 280.972656 249.046875 280.972656 248.390625 281.628906 C 247.078125 282.285156 247.078125 284.253906 247.734375 284.910156 C 248.390625 286.222656 250.355469 286.222656 251.011719 285.566406 C 251.667969 284.910156 252.324219 283.597656 252.324219 282.941406 C 268.71875 271.789062 281.175781 256.699219 289.703125 238.984375 C 290.359375 238.984375 291.015625 238.328125 291.667969 237.671875 Z M 291.667969 237.671875 " fill-opacity="1" fill-rule="nonzero"/><path fill="#000000" d="M 295.605469 205.523438 C 295.605469 206.835938 296.261719 208.148438 297.570312 208.148438 C 298.882812 208.148438 300.195312 207.492188 300.195312 206.179688 C 300.195312 204.867188 299.539062 204.210938 298.882812 203.554688 C 299.539062 199.621094 299.539062 195.683594 299.539062 191.089844 C 299.539062 182.5625 298.226562 174.03125 296.261719 165.503906 C 294.292969 158.289062 292.324219 151.070312 289.046875 144.507812 C 289.703125 143.855469 289.703125 142.542969 289.703125 141.886719 C 289.046875 140.574219 287.734375 139.917969 286.421875 140.574219 C 285.113281 141.230469 284.457031 142.542969 285.113281 143.855469 C 285.769531 144.507812 286.421875 145.164062 287.734375 145.164062 C 294.292969 159.597656 297.570312 175.34375 297.570312 191.089844 C 297.570312 195.027344 297.570312 198.964844 296.914062 202.898438 C 296.261719 203.554688 295.605469 204.867188 295.605469 205.523438 Z M 295.605469 205.523438 " fill-opacity="1" fill-rule="nonzero"/><path fill="#000000" d="M 271.996094 118.265625 C 262.160156 106.457031 249.699219 97.273438 235.929688 90.710938 C 235.929688 89.398438 235.273438 88.742188 234.617188 88.085938 C 233.308594 87.429688 231.996094 88.085938 231.339844 89.398438 C 230.683594 90.710938 231.339844 92.023438 232.652344 92.679688 C 233.960938 93.335938 234.617188 92.679688 235.273438 92.023438 C 249.046875 98.585938 260.847656 107.769531 270.683594 118.921875 C 270.03125 119.578125 270.03125 120.890625 270.683594 121.546875 C 271.339844 122.859375 273.308594 122.859375 273.964844 122.203125 C 275.277344 121.546875 275.277344 119.578125 274.621094 118.921875 C 274.621094 118.265625 273.308594 118.265625 271.996094 118.265625 Z M 271.996094 118.265625 " fill-opacity="1" fill-rule="nonzero"/><path fill="#000000" d="M 211.667969 80.871094 C 210.355469 80.871094 209.699219 80.871094 209.042969 82.183594 C 202.484375 80.871094 195.273438 80.214844 188.058594 80.214844 C 172.976562 80.214844 158.550781 82.839844 144.777344 88.742188 C 132.320312 93.992188 121.171875 101.210938 111.335938 111.050781 C 110.679688 110.394531 109.367188 111.050781 108.058594 111.707031 C 106.746094 113.019531 107.402344 114.332031 108.058594 115.644531 C 109.367188 116.953125 110.679688 116.296875 111.992188 115.644531 C 112.648438 114.988281 112.648438 113.675781 112.648438 113.019531 C 132.976562 93.335938 159.863281 82.839844 188.058594 82.839844 C 194.617188 82.839844 201.832031 83.496094 208.386719 84.808594 C 208.386719 86.121094 209.042969 86.777344 210.355469 86.777344 C 211.667969 86.777344 212.976562 86.121094 213.632812 84.808594 C 214.289062 82.839844 212.976562 81.527344 211.667969 80.871094 Z M 211.667969 80.871094 " fill-opacity="1" fill-rule="nonzero"/><path fill="#000000" d="M 292.980469 194.371094 C 292.980469 193.058594 291.667969 191.746094 290.359375 191.746094 C 289.046875 191.746094 287.734375 193.058594 287.734375 194.371094 C 287.734375 195.683594 288.390625 196.339844 289.046875 196.996094 C 288.390625 215.367188 282.488281 232.421875 272.652344 247.511719 C 271.339844 247.511719 270.683594 247.511719 270.03125 248.824219 C 269.375 250.136719 269.375 251.449219 270.683594 252.105469 C 271.996094 252.761719 273.308594 252.761719 273.964844 251.449219 C 274.621094 250.792969 274.621094 249.480469 273.964844 248.167969 C 283.800781 233.078125 289.703125 215.367188 290.359375 196.996094 C 292.324219 196.339844 292.980469 195.683594 292.980469 194.371094 Z M 292.980469 194.371094 " fill-opacity="1" fill-rule="nonzero"/><path fill="#000000" d="M 289.046875 174.6875 C 290.359375 174.6875 291.667969 173.375 291.015625 171.410156 C 291.015625 170.097656 289.703125 169.441406 289.046875 169.441406 C 285.769531 153.695312 278.554688 138.605469 268.0625 126.140625 C 268.71875 125.484375 268.71875 124.171875 268.0625 122.859375 C 267.40625 121.546875 265.4375 121.546875 264.785156 122.859375 C 263.472656 123.515625 263.472656 125.484375 264.785156 126.140625 C 265.4375 126.796875 266.75 127.453125 267.40625 126.796875 C 277.898438 139.261719 285.113281 153.695312 288.390625 169.441406 C 287.734375 170.097656 287.078125 170.753906 287.078125 172.066406 C 286.421875 174.03125 287.734375 174.6875 289.046875 174.6875 Z M 289.046875 174.6875 " fill-opacity="1" fill-rule="nonzero"/><path fill="#000000" d="M 184.78125 88.742188 C 184.125 88.085938 183.46875 86.777344 182.15625 87.429688 C 180.847656 87.429688 179.535156 88.742188 179.535156 90.054688 C 179.535156 91.367188 180.847656 92.679688 182.15625 92.679688 C 183.46875 92.679688 184.125 92.023438 184.125 90.710938 C 185.4375 90.710938 186.746094 90.710938 187.402344 90.710938 C 207.078125 90.710938 226.09375 96.617188 242.488281 107.113281 C 242.488281 108.425781 242.488281 109.082031 243.800781 109.738281 C 245.109375 110.394531 246.421875 110.394531 247.078125 109.082031 C 247.734375 107.769531 247.734375 106.457031 246.421875 105.800781 C 245.765625 105.144531 244.453125 105.144531 243.144531 105.800781 C 226.75 95.304688 207.078125 89.398438 187.402344 89.398438 C 187.402344 88.742188 186.09375 88.742188 184.78125 88.742188 Z M 184.78125 88.742188 " fill-opacity="1" fill-rule="nonzero"/><path fill="#000000" d="M 123.796875 271.789062 C 132.320312 278.347656 141.5 283.597656 151.335938 287.535156 C 161.828125 291.46875 172.320312 294.09375 183.46875 294.09375 C 183.46875 295.40625 184.78125 296.0625 186.09375 296.0625 C 187.402344 296.0625 188.714844 294.75 188.714844 293.4375 C 188.714844 292.125 187.402344 290.8125 186.09375 290.8125 C 184.78125 290.8125 184.125 291.46875 183.46875 292.125 C 162.484375 290.8125 141.5 282.941406 125.105469 269.820312 C 125.761719 269.164062 125.105469 267.851562 124.449219 267.195312 C 123.140625 266.539062 121.828125 266.539062 121.171875 267.195312 C 120.515625 267.851562 120.515625 269.820312 121.171875 270.476562 C 121.828125 272.445312 123.140625 272.445312 123.796875 271.789062 Z M 123.796875 271.789062 " fill-opacity="1" fill-rule="nonzero"/><path fill="#000000" d="M 208.386719 294.09375 C 209.699219 294.09375 210.355469 292.78125 210.355469 292.125 C 226.09375 288.84375 240.519531 281.628906 252.980469 271.789062 C 253.636719 272.445312 254.945312 272.445312 256.257812 271.789062 C 257.570312 271.132812 257.570312 269.164062 256.257812 268.507812 C 255.601562 267.195312 253.636719 267.195312 252.980469 268.507812 C 252.324219 269.164062 251.667969 270.476562 252.324219 271.132812 C 239.863281 280.972656 225.4375 288.191406 210.355469 291.46875 C 209.699219 290.8125 209.042969 290.15625 207.730469 290.15625 C 206.421875 290.15625 205.109375 291.46875 205.765625 293.4375 C 205.765625 293.4375 207.078125 294.75 208.386719 294.09375 Z M 208.386719 294.09375 " fill-opacity="1" fill-rule="nonzero"/><path fill="#000000" d="M 209.042969 283.597656 C 209.699219 284.253906 211.011719 284.910156 211.667969 284.910156 C 212.976562 284.253906 213.632812 282.941406 213.632812 281.628906 C 212.976562 280.316406 211.667969 279.660156 210.355469 279.660156 C 209.042969 279.660156 208.386719 280.972656 208.386719 281.628906 C 201.832031 282.941406 194.617188 283.597656 188.058594 283.597656 C 184.125 283.597656 180.191406 283.597656 176.253906 282.941406 C 176.253906 281.628906 174.945312 280.972656 174.289062 280.972656 C 172.976562 280.972656 171.664062 281.628906 171.664062 282.941406 C 171.664062 284.253906 172.320312 285.566406 173.632812 285.566406 C 174.945312 285.566406 175.601562 284.910156 176.253906 284.253906 C 180.191406 284.910156 184.125 284.910156 188.714844 284.910156 C 195.273438 286.222656 202.484375 284.910156 209.042969 283.597656 Z M 209.042969 283.597656 " fill-opacity="1" fill-rule="nonzero"/><path fill="#000000" d="M 272.652344 237.671875 C 273.308594 236.359375 272.652344 235.046875 271.339844 234.390625 C 270.03125 233.734375 268.71875 234.390625 268.0625 235.703125 C 267.40625 236.359375 267.40625 237.671875 268.71875 238.328125 C 260.191406 252.761719 249.046875 263.914062 234.617188 272.445312 C 233.960938 271.789062 232.652344 271.789062 231.996094 271.789062 C 230.683594 272.445312 230.027344 273.757812 230.683594 275.066406 C 231.339844 276.378906 232.652344 277.035156 233.960938 276.378906 C 235.273438 275.722656 235.273438 275.066406 235.273438 273.757812 C 249.699219 265.226562 261.503906 253.417969 270.03125 238.984375 C 270.683594 238.984375 271.996094 238.328125 272.652344 237.671875 Z M 272.652344 237.671875 " fill-opacity="1" fill-rule="nonzero"/><path fill="#000000" d="M 266.75 138.605469 C 256.914062 124.171875 243.144531 112.363281 227.40625 105.144531 C 227.40625 103.832031 226.75 103.175781 226.09375 102.519531 C 224.78125 101.863281 223.46875 102.519531 222.816406 103.832031 C 222.160156 105.144531 222.816406 106.457031 224.125 107.113281 C 225.4375 107.769531 226.09375 107.113281 226.75 106.457031 C 259.539062 121.546875 281.175781 154.351562 281.175781 191.089844 C 281.175781 198.308594 280.523438 204.867188 279.210938 211.429688 C 277.898438 211.429688 277.242188 212.085938 277.242188 213.398438 C 276.585938 214.710938 277.898438 216.023438 279.210938 216.675781 C 280.523438 217.332031 281.832031 216.023438 282.488281 214.710938 C 282.488281 213.398438 282.488281 212.742188 281.175781 212.085938 C 282.488281 205.523438 283.800781 198.308594 283.800781 191.089844 C 282.488281 172.722656 277.242188 154.351562 266.75 138.605469 Z M 266.75 138.605469 " fill-opacity="1" fill-rule="nonzero"/><path fill="#000000" d="M 194.617188 95.960938 C 193.304688 95.960938 192.648438 96.617188 191.992188 97.273438 C 190.683594 97.273438 189.371094 97.273438 188.058594 97.273438 C 180.847656 97.273438 173.632812 97.929688 166.417969 99.898438 C 165.761719 99.242188 164.453125 98.585938 163.796875 98.585938 C 162.484375 99.242188 161.828125 100.554688 161.828125 101.863281 C 162.484375 103.175781 163.796875 103.832031 165.109375 103.832031 C 166.417969 103.832031 167.074219 102.519531 167.074219 101.863281 C 174.289062 100.554688 180.847656 99.242188 188.058594 99.242188 C 189.371094 99.242188 190.683594 99.242188 191.339844 99.242188 C 191.339844 100.554688 192.648438 101.210938 193.304688 101.210938 C 194.617188 101.210938 195.929688 100.554688 195.929688 98.585938 C 195.929688 96.617188 195.929688 95.960938 194.617188 95.960938 Z M 194.617188 95.960938 " fill-opacity="1" fill-rule="nonzero"/><path fill="#000000" d="M 124.449219 243.578125 C 123.140625 242.265625 121.828125 242.265625 120.515625 242.921875 C 119.203125 243.578125 119.203125 245.542969 119.859375 246.199219 C 120.515625 246.855469 121.828125 247.511719 122.484375 246.855469 C 131.664062 258.011719 144.125 266.539062 157.238281 271.132812 C 157.238281 272.445312 157.894531 273.101562 159.207031 273.757812 C 160.515625 274.410156 161.828125 273.757812 162.484375 272.445312 C 163.140625 271.132812 162.484375 269.820312 161.171875 269.164062 C 159.863281 268.507812 159.207031 269.164062 158.550781 269.820312 C 145.433594 264.570312 133.632812 256.699219 124.449219 245.542969 C 125.105469 245.542969 125.105469 244.234375 124.449219 243.578125 Z M 124.449219 243.578125 " fill-opacity="1" fill-rule="nonzero"/><path fill="#000000" d="M 190.683594 279.003906 C 191.992188 279.003906 192.648438 278.347656 193.304688 277.035156 C 208.386719 276.378906 223.46875 271.132812 235.929688 262.601562 C 236.585938 263.257812 237.898438 263.257812 239.207031 262.601562 C 240.519531 261.945312 240.519531 259.976562 239.863281 259.324219 C 239.207031 258.011719 237.242188 258.011719 236.585938 258.667969 C 235.929688 259.324219 235.273438 260.632812 235.929688 261.289062 C 223.46875 269.820312 209.042969 274.410156 193.960938 275.066406 C 193.304688 274.410156 192.648438 273.757812 191.339844 273.757812 C 190.027344 273.757812 188.714844 275.066406 188.714844 276.378906 C 188.714844 277.691406 189.371094 279.003906 190.683594 279.003906 Z M 190.683594 279.003906 " fill-opacity="1" fill-rule="nonzero"/><path fill="#000000" d="M 275.929688 185.1875 C 275.929688 183.875 274.621094 182.5625 273.308594 182.5625 C 271.996094 182.5625 270.683594 183.875 270.683594 185.1875 C 270.683594 186.5 271.339844 187.15625 272.652344 187.15625 C 272.652344 188.464844 272.652344 189.777344 272.652344 191.089844 C 272.652344 208.148438 268.0625 223.894531 258.226562 237.671875 C 256.914062 237.671875 256.257812 237.671875 255.601562 238.328125 C 254.945312 239.640625 254.945312 240.953125 256.257812 241.609375 C 257.570312 242.265625 258.882812 242.265625 259.539062 240.953125 C 260.191406 240.296875 260.191406 238.984375 259.539062 237.671875 C 268.71875 223.238281 273.964844 206.835938 273.964844 189.777344 C 273.964844 188.464844 273.964844 187.15625 273.964844 185.84375 C 275.277344 187.15625 275.929688 186.5 275.929688 185.1875 Z M 275.929688 185.1875 " fill-opacity="1" fill-rule="nonzero"/><path fill="#000000" d="M 251.011719 130.730469 C 249.699219 129.421875 248.390625 129.421875 247.078125 130.730469 C 245.765625 132.042969 245.765625 133.355469 247.078125 134.667969 C 247.734375 135.324219 249.046875 135.324219 249.699219 135.324219 C 254.945312 141.230469 259.539062 147.132812 262.816406 154.351562 C 262.160156 155.007812 262.160156 156.320312 262.160156 156.976562 C 262.816406 158.289062 264.128906 158.941406 265.4375 158.289062 C 266.75 157.632812 267.40625 156.320312 266.75 155.007812 C 266.09375 153.695312 265.4375 153.695312 264.128906 153.695312 C 260.847656 146.476562 256.257812 140.574219 251.011719 134.667969 C 252.324219 132.699219 251.667969 131.386719 251.011719 130.730469 Z M 251.011719 130.730469 " fill-opacity="1" fill-rule="nonzero"/><path fill="#000000" d="M 230.027344 114.332031 C 228.714844 113.675781 228.0625 113.675781 226.75 114.988281 C 214.945312 109.082031 201.832031 105.800781 188.714844 105.800781 C 184.78125 105.800781 180.191406 105.800781 176.253906 106.457031 C 175.601562 105.800781 174.945312 105.144531 173.632812 105.144531 C 172.320312 105.144531 171.007812 106.457031 171.664062 108.425781 C 171.664062 109.738281 172.976562 111.050781 174.945312 110.394531 C 176.253906 110.394531 176.910156 109.082031 176.910156 108.425781 C 180.847656 107.769531 184.78125 107.769531 188.714844 107.769531 C 201.832031 107.769531 214.945312 111.050781 226.09375 116.953125 C 226.09375 118.265625 226.75 118.921875 227.40625 119.578125 C 228.714844 120.234375 230.027344 119.578125 230.683594 118.265625 C 231.339844 116.953125 231.339844 114.988281 230.027344 114.332031 Z M 230.027344 114.332031 " fill-opacity="1" fill-rule="nonzero"/><path fill="#000000" d="M 157.894531 258.667969 C 156.582031 258.011719 155.269531 258.667969 154.617188 259.976562 C 153.960938 261.289062 154.617188 262.601562 155.925781 263.257812 C 157.238281 263.914062 157.894531 263.257812 159.207031 262.601562 C 168.386719 266.539062 178.878906 268.507812 188.714844 268.507812 C 192.648438 268.507812 197.238281 268.507812 201.175781 267.851562 C 201.832031 268.507812 202.484375 269.164062 203.796875 269.164062 C 205.109375 269.164062 205.765625 267.851562 205.765625 265.882812 C 205.765625 263.914062 204.453125 263.914062 202.484375 263.914062 C 201.175781 263.914062 200.519531 265.226562 200.519531 265.882812 C 196.585938 266.539062 192.648438 266.539062 188.714844 266.539062 C 178.878906 266.539062 169.042969 264.570312 159.863281 260.632812 C 159.207031 260.632812 159.207031 259.324219 157.894531 258.667969 Z M 157.894531 258.667969 " fill-opacity="1" fill-rule="nonzero"/><path fill="#000000" d="M 254.945312 230.457031 C 256.257812 230.457031 256.914062 230.457031 257.570312 229.144531 C 258.226562 227.832031 257.570312 226.519531 256.257812 225.863281 C 254.945312 225.207031 253.636719 225.863281 252.980469 227.175781 C 252.324219 227.832031 252.324219 229.144531 253.636719 229.800781 C 247.078125 240.953125 237.898438 250.792969 226.09375 257.355469 C 225.4375 256.699219 224.125 256.699219 223.46875 256.699219 C 222.160156 257.355469 221.503906 258.667969 222.160156 259.976562 C 222.816406 261.289062 224.125 261.945312 225.4375 261.289062 C 226.75 260.632812 226.75 259.976562 226.75 258.667969 C 239.207031 251.449219 248.390625 242.265625 254.945312 230.457031 Z M 254.945312 230.457031 " fill-opacity="1" fill-rule="nonzero"/><path fill="#000000" d="M 260.847656 205.523438 C 260.847656 206.835938 261.503906 208.148438 262.816406 208.804688 C 264.128906 208.804688 265.4375 208.148438 266.09375 206.835938 C 266.09375 205.523438 266.09375 204.867188 264.785156 204.210938 C 265.4375 200.277344 265.4375 196.339844 265.4375 191.746094 C 265.4375 177.96875 262.160156 164.847656 254.945312 153.039062 C 255.601562 152.382812 255.601562 151.070312 254.945312 149.757812 C 254.292969 148.445312 252.324219 148.445312 251.667969 149.101562 C 251.011719 149.757812 250.355469 151.726562 251.011719 152.382812 C 251.667969 153.039062 252.980469 153.695312 253.636719 153.695312 C 260.191406 164.847656 263.472656 177.96875 263.472656 191.746094 C 263.472656 195.683594 263.472656 199.621094 262.816406 203.554688 C 262.160156 203.554688 260.847656 204.210938 260.847656 205.523438 Z M 260.847656 205.523438 " fill-opacity="1" fill-rule="nonzero"/><path fill="#000000" d="M 230.683594 126.796875 C 218.222656 118.265625 203.140625 114.332031 188.058594 114.332031 C 180.847656 114.332031 174.289062 114.988281 167.074219 116.953125 C 166.417969 116.296875 165.109375 115.644531 164.453125 116.296875 C 163.140625 116.953125 162.484375 118.265625 163.140625 119.578125 C 163.796875 120.890625 165.109375 121.546875 166.417969 120.890625 C 167.730469 120.234375 168.386719 119.578125 168.386719 118.265625 C 174.945312 116.296875 181.5 115.644531 188.714844 115.644531 C 203.796875 115.644531 217.570312 120.234375 230.027344 128.109375 C 230.027344 129.421875 230.027344 130.078125 230.683594 130.730469 C 231.996094 131.386719 233.308594 131.386719 233.960938 130.078125 C 234.617188 128.765625 234.617188 127.453125 233.308594 126.796875 C 232.652344 126.140625 231.996094 126.140625 230.683594 126.796875 Z M 230.683594 126.796875 " fill-opacity="1" fill-rule="nonzero"/><path fill="#000000" d="M 132.320312 225.863281 C 131.664062 224.550781 130.351562 224.550781 129.042969 225.207031 C 127.730469 225.863281 127.730469 227.175781 128.386719 228.488281 C 129.042969 229.144531 130.351562 229.800781 131.007812 229.800781 C 134.285156 235.046875 138.222656 239.640625 142.8125 243.578125 C 147.402344 247.511719 152.648438 250.792969 157.894531 253.417969 C 157.894531 254.730469 158.550781 255.386719 159.207031 256.042969 C 160.515625 256.699219 161.828125 256.042969 162.484375 254.730469 C 163.140625 253.417969 162.484375 252.105469 161.171875 251.449219 C 159.863281 250.792969 159.207031 251.449219 158.550781 252.105469 C 148.058594 246.855469 138.878906 238.984375 132.320312 229.144531 C 132.976562 227.832031 132.976562 226.519531 132.320312 225.863281 Z M 132.320312 225.863281 " fill-opacity="1" fill-rule="nonzero"/><path fill="#000000" d="M 184.78125 258.667969 C 184.78125 257.355469 183.46875 256.699219 182.8125 256.699219 C 181.5 256.699219 180.191406 257.355469 180.191406 258.667969 C 180.191406 259.976562 180.847656 261.289062 182.15625 261.289062 C 183.46875 261.289062 184.125 260.632812 184.78125 259.976562 C 186.09375 259.976562 187.402344 259.976562 188.714844 259.976562 C 200.519531 259.976562 212.324219 256.699219 222.816406 250.792969 C 223.46875 251.449219 224.78125 251.449219 226.09375 250.792969 C 227.40625 250.136719 227.40625 248.167969 226.75 247.511719 C 226.09375 246.199219 224.125 246.199219 223.46875 246.855469 C 221.503906 248.167969 221.503906 248.824219 221.503906 250.136719 C 211.667969 256.042969 199.863281 258.667969 188.058594 258.667969 C 187.402344 258.667969 186.09375 258.667969 184.78125 258.667969 Z M 184.78125 258.667969 " fill-opacity="1" fill-rule="nonzero"/><path fill="#000000" d="M 240.519531 231.109375 C 239.863281 232.421875 239.863281 233.734375 241.175781 234.390625 C 242.488281 235.046875 243.800781 235.046875 244.453125 233.734375 C 245.109375 233.078125 245.109375 231.765625 244.453125 230.457031 C 248.390625 225.207031 251.011719 219.300781 253.636719 213.398438 C 256.257812 206.179688 257.570312 198.308594 257.570312 191.089844 C 257.570312 183.21875 256.257812 176 253.636719 168.785156 C 254.292969 168.128906 254.945312 166.816406 254.292969 166.160156 C 253.636719 164.847656 252.324219 164.191406 251.011719 164.847656 C 249.699219 165.503906 249.046875 166.816406 249.699219 168.128906 C 250.355469 169.441406 251.011719 169.441406 252.324219 169.441406 C 254.945312 176.65625 255.601562 183.875 255.601562 191.089844 C 255.601562 204.867188 251.667969 218.644531 243.144531 229.800781 C 242.488281 229.800781 241.175781 230.457031 240.519531 231.109375 Z M 240.519531 231.109375 " fill-opacity="1" fill-rule="nonzero"/><path fill="#000000" d="M 233.960938 139.917969 C 227.40625 134.011719 218.878906 129.421875 210.355469 126.140625 C 210.355469 124.828125 209.699219 124.171875 208.386719 123.515625 C 207.078125 122.859375 205.765625 124.171875 205.109375 125.484375 C 204.453125 126.796875 205.765625 128.109375 207.078125 128.765625 C 208.386719 128.765625 209.042969 128.765625 209.699219 128.109375 C 218.222656 130.730469 226.09375 135.324219 232.652344 141.230469 C 231.996094 141.886719 232.652344 143.199219 233.308594 143.855469 C 234.617188 145.164062 235.929688 144.507812 237.242188 143.855469 C 238.554688 143.199219 237.898438 141.230469 237.242188 139.917969 C 235.929688 139.917969 234.617188 139.261719 233.960938 139.917969 Z M 233.960938 139.917969 " fill-opacity="1" fill-rule="nonzero"/><path fill="#000000" d="M 217.570312 246.199219 C 218.878906 245.542969 218.878906 244.890625 218.878906 243.578125 C 224.78125 240.296875 230.027344 235.703125 234.617188 230.457031 C 239.207031 225.207031 242.488281 219.300781 245.109375 213.398438 C 246.421875 213.398438 247.078125 212.742188 247.734375 211.429688 C 248.390625 210.117188 247.734375 208.804688 246.421875 208.148438 C 245.109375 207.492188 243.800781 208.148438 243.144531 209.460938 C 242.488281 210.773438 243.144531 211.429688 243.800781 212.085938 C 239.207031 224.550781 230.027344 234.390625 218.878906 241.609375 C 218.222656 240.953125 216.914062 240.953125 216.257812 240.953125 C 214.945312 241.609375 214.289062 242.921875 214.945312 244.234375 C 214.289062 246.855469 216.257812 246.855469 217.570312 246.199219 Z M 217.570312 246.199219 " fill-opacity="1" fill-rule="nonzero"/><path fill="#000000" d="M 241.832031 160.253906 C 241.175781 158.941406 239.207031 158.941406 238.554688 159.597656 C 237.242188 160.253906 237.242188 162.222656 237.898438 162.878906 C 238.554688 163.535156 239.207031 164.191406 240.519531 164.191406 C 244.453125 171.410156 246.421875 178.625 247.078125 186.5 C 246.421875 187.15625 245.765625 187.808594 245.765625 189.121094 C 245.765625 190.433594 247.078125 191.746094 248.390625 191.746094 C 249.699219 191.746094 251.011719 190.433594 251.011719 189.121094 C 251.011719 187.808594 250.355469 187.15625 249.046875 186.5 C 248.390625 178.625 245.765625 170.753906 242.488281 163.535156 C 242.488281 162.878906 242.488281 161.566406 241.832031 160.253906 Z M 241.832031 160.253906 " fill-opacity="1" fill-rule="nonzero"/><path fill="#000000" d="M 219.535156 143.855469 C 220.847656 144.507812 222.160156 144.507812 222.816406 143.199219 C 223.46875 141.886719 223.46875 140.574219 222.160156 139.917969 C 221.503906 139.261719 220.191406 139.261719 218.878906 139.917969 C 209.699219 134.667969 199.207031 131.386719 188.058594 131.386719 C 183.46875 131.386719 179.535156 132.042969 174.945312 132.699219 C 174.289062 132.042969 172.976562 131.386719 172.320312 131.386719 C 171.007812 132.042969 170.355469 133.355469 170.355469 134.667969 C 171.007812 135.980469 172.320312 136.636719 173.632812 136.636719 C 174.945312 136.636719 175.601562 135.324219 175.601562 134.667969 C 179.535156 134.011719 184.125 133.355469 188.058594 133.355469 C 198.550781 133.355469 209.042969 135.980469 217.570312 141.230469 C 218.222656 141.886719 218.222656 143.199219 219.535156 143.855469 Z M 219.535156 143.855469 " fill-opacity="1" fill-rule="nonzero"/><path fill="#000000" d="M 148.058594 231.765625 C 147.402344 230.457031 145.433594 230.457031 144.125 231.765625 C 142.8125 232.421875 142.8125 234.390625 144.125 235.703125 C 144.777344 236.359375 146.089844 237.015625 147.402344 236.359375 C 152.648438 240.953125 158.550781 244.890625 164.453125 247.511719 C 171.664062 250.792969 179.535156 252.105469 188.058594 252.105469 C 189.371094 252.105469 190.683594 252.105469 191.992188 252.105469 C 192.648438 253.417969 193.304688 253.417969 194.617188 253.417969 C 195.929688 253.417969 197.238281 252.105469 196.585938 250.792969 C 196.585938 249.480469 195.273438 248.167969 193.960938 248.824219 C 192.648438 248.824219 191.992188 249.480469 191.992188 250.792969 C 190.683594 250.792969 189.371094 250.792969 188.714844 250.792969 C 173.632812 250.792969 159.863281 245.542969 149.371094 235.703125 C 149.371094 233.734375 149.371094 233.078125 148.058594 231.765625 Z M 148.058594 231.765625 " fill-opacity="1" fill-rule="nonzero"/></svg>