<svg xmlns="http://www.w3.org/2000/svg" xmlns:xlink="http://www.w3.org/1999/xlink" width="512" zoomAndPan="magnify" viewBox="0 0 384 383.999986" height="512" preserveAspectRatio="xMidYMid meet" version="1.0"><defs><clipPath id="3213edc1c0"><path d="M 22.726562 196 L 31 196 L 31 206 L 22.726562 206 Z M 22.726562 196 " clip-rule="nonzero"/></clipPath><clipPath id="99b245ed51"><path d="M 163 19.199219 L 175 19.199219 L 175 36 L 163 36 Z M 163 19.199219 " clip-rule="nonzero"/></clipPath><clipPath id="d480b1ee99"><path d="M 205 19.199219 L 216 19.199219 L 216 35 L 205 35 Z M 205 19.199219 " clip-rule="nonzero"/></clipPath><clipPath id="acd5b9fb74"><path d="M 353 195 L 360.976562 195 L 360.976562 205 L 353 205 Z M 353 195 " clip-rule="nonzero"/></clipPath><clipPath id="0bc1ca79ad"><path d="M 185 349 L 196 349 L 196 364.949219 L 185 364.949219 Z M 185 349 " clip-rule="nonzero"/></clipPath></defs><path fill="#ffffff" d="M 266.046875 234.410156 L 263.820312 236.519531 L 263.046875 235.632812 L 265.355469 233.664062 Z M 266.046875 234.410156 " fill-opacity="1" fill-rule="nonzero"/><path fill="#ffffff" d="M 246.113281 249.882812 C 244.398438 250.925781 242.660156 251.925781 240.894531 252.878906 L 239.742188 250.625 C 241.511719 249.773438 243.257812 248.871094 244.976562 247.925781 Z M 246.113281 249.882812 " fill-opacity="1" fill-rule="nonzero"/><path fill="#ffffff" d="M 220.308594 261.492188 C 218.378906 262.078125 216.433594 262.617188 214.476562 263.101562 L 213.644531 259.429688 C 215.554688 259.039062 217.457031 258.597656 219.347656 258.101562 Z M 220.308594 261.492188 " fill-opacity="1" fill-rule="nonzero"/><path fill="#ffffff" d="M 192.28125 266.339844 C 190.257812 266.433594 188.230469 266.476562 186.203125 266.464844 L 186.324219 261.550781 C 188.265625 261.640625 190.210938 261.679688 192.152344 261.667969 Z M 192.28125 266.339844 " fill-opacity="1" fill-rule="nonzero"/><path fill="#ffffff" d="M 163.789062 264.144531 C 161.792969 263.738281 159.808594 263.277344 157.835938 262.765625 L 159.4375 257.019531 C 161.289062 257.574219 163.15625 258.078125 165.035156 258.535156 Z M 163.789062 264.144531 " fill-opacity="1" fill-rule="nonzero"/><path fill="#ffffff" d="M 136.585938 254.953125 C 134.746094 254.058594 132.933594 253.113281 131.144531 252.121094 L 134.605469 246.089844 C 136.261719 247.074219 137.9375 248.015625 139.640625 248.910156 Z M 136.585938 254.953125 " fill-opacity="1" fill-rule="nonzero"/><path fill="#ffffff" d="M 112.445312 239.203125 C 110.878906 237.878906 109.347656 236.511719 107.851562 235.105469 L 113.273438 229.503906 C 114.628906 230.855469 116.023438 232.175781 117.449219 233.457031 Z M 112.445312 239.203125 " fill-opacity="1" fill-rule="nonzero"/><path fill="#ffffff" d="M 92.8125 217.960938 C 91.609375 216.289062 90.4375 214.59375 89.3125 212.867188 L 96.746094 208.253906 C 97.71875 209.898438 98.726562 211.519531 99.789062 213.109375 Z M 92.8125 217.960938 " fill-opacity="1" fill-rule="nonzero"/><path fill="#ffffff" d="M 78.738281 192.527344 C 77.964844 190.605469 77.246094 188.660156 76.578125 186.699219 L 86.148438 183.671875 C 86.675781 185.492188 87.253906 187.300781 87.878906 189.09375 Z M 78.738281 192.527344 " fill-opacity="1" fill-rule="nonzero"/><path fill="#ffffff" d="M 71.550781 164.226562 C 71.4375 163.195312 71.339844 162.160156 71.25 161.125 C 71.167969 160.089844 71.085938 159.054688 71.035156 158.015625 L 81.601562 157.414062 C 81.664062 158.355469 81.722656 159.300781 81.804688 160.242188 C 81.882812 161.183594 81.972656 162.125 82.078125 163.066406 Z M 71.550781 164.226562 " fill-opacity="1" fill-rule="nonzero"/><path fill="#ffffff" d="M 72.242188 135.042969 C 72.566406 132.996094 72.941406 130.957031 73.375 128.933594 L 82.917969 130.753906 C 82.605469 132.625 82.34375 134.507812 82.132812 136.394531 Z M 72.242188 135.042969 " fill-opacity="1" fill-rule="nonzero"/><path fill="#ffffff" d="M 80.507812 107.164062 C 81.351562 105.285156 82.246094 103.429688 83.1875 101.605469 L 90.304688 104.9375 C 89.566406 106.703125 88.871094 108.488281 88.226562 110.289062 Z M 80.507812 107.164062 " fill-opacity="1" fill-rule="nonzero"/><path fill="#ffffff" d="M 95.707031 82.664062 C 96.996094 81.089844 98.351562 79.566406 99.726562 78.074219 L 103.550781 81.207031 C 102.414062 82.785156 101.332031 84.398438 100.273438 86.019531 Z M 95.707031 82.664062 " fill-opacity="1" fill-rule="nonzero"/><path fill="#ffffff" d="M 116.660156 63.429688 C 117.515625 62.859375 118.375 62.296875 119.234375 61.738281 L 119.859375 62.539062 C 119.136719 63.253906 118.410156 63.964844 117.683594 64.667969 Z M 116.660156 63.429688 " fill-opacity="1" fill-rule="nonzero"/><path fill="#ffffff" d="M 227.230469 286.800781 L 223.859375 287.671875 L 223.574219 286.367188 L 226.957031 285.679688 Z M 227.230469 286.800781 " fill-opacity="1" fill-rule="nonzero"/><path fill="#ffffff" d="M 198.890625 291.199219 C 196.617188 291.292969 194.335938 291.328125 192.054688 291.300781 L 192.152344 288.425781 C 194.378906 288.554688 196.613281 288.621094 198.84375 288.628906 Z M 198.890625 291.199219 " fill-opacity="1" fill-rule="nonzero"/><path fill="#ffffff" d="M 166.851562 288.519531 C 164.609375 288.042969 162.382812 287.503906 160.167969 286.910156 L 161.363281 282.800781 C 163.480469 283.464844 165.613281 284.070312 167.765625 284.625 Z M 166.851562 288.519531 " fill-opacity="1" fill-rule="nonzero"/><path fill="#ffffff" d="M 136.324219 277.894531 C 134.261719 276.875 132.222656 275.800781 130.214844 274.675781 L 133.046875 269.855469 C 134.925781 271.015625 136.835938 272.125 138.773438 273.183594 Z M 136.324219 277.894531 " fill-opacity="1" fill-rule="nonzero"/><path fill="#ffffff" d="M 109.214844 260.019531 C 107.457031 258.515625 105.738281 256.96875 104.058594 255.371094 L 108.816406 250.542969 C 110.351562 252.113281 111.929688 253.640625 113.546875 255.128906 Z M 109.214844 260.019531 " fill-opacity="1" fill-rule="nonzero"/><path fill="#ffffff" d="M 87.242188 235.898438 C 85.910156 233.996094 84.625 232.054688 83.394531 230.082031 L 90.160156 226 C 91.261719 227.886719 92.410156 229.746094 93.609375 231.574219 Z M 87.242188 235.898438 " fill-opacity="1" fill-rule="nonzero"/><path fill="#ffffff" d="M 71.929688 206.945312 C 71.101562 204.765625 70.332031 202.5625 69.617188 200.34375 L 78.09375 197.761719 C 78.695312 199.851562 79.355469 201.929688 80.066406 203.992188 Z M 71.929688 206.945312 " fill-opacity="1" fill-rule="nonzero"/><path fill="#ffffff" d="M 64.117188 175.015625 C 63.839844 172.691406 63.609375 170.363281 63.449219 168.023438 L 73.375 167.539062 C 73.433594 169.707031 73.542969 171.875 73.722656 174.035156 Z M 64.117188 175.015625 " fill-opacity="1" fill-rule="nonzero"/><path fill="#ffffff" d="M 64.140625 141.984375 C 64.433594 139.648438 64.789062 137.320312 65.207031 135 L 76.382812 137.265625 C 75.90625 139.363281 75.484375 141.480469 75.117188 143.605469 Z M 64.140625 141.984375 " fill-opacity="1" fill-rule="nonzero"/><path fill="#ffffff" d="M 72.589844 109.898438 C 73.046875 108.808594 73.515625 107.726562 74 106.648438 C 74.484375 105.574219 74.976562 104.5 75.5 103.441406 L 86.332031 108.660156 C 85.875 109.632812 85.414062 110.605469 84.972656 111.585938 C 84.53125 112.566406 84.105469 113.550781 83.691406 114.542969 Z M 72.589844 109.898438 " fill-opacity="1" fill-rule="nonzero"/><path fill="#ffffff" d="M 89.351562 81.269531 C 90.804688 79.414062 92.300781 77.597656 93.847656 75.824219 L 102.328125 82.890625 C 100.988281 84.582031 99.691406 86.304688 98.4375 88.0625 Z M 89.351562 81.269531 " fill-opacity="1" fill-rule="nonzero"/><path fill="#ffffff" d="M 112.925781 58.117188 C 114.804688 56.714844 116.714844 55.367188 118.65625 54.070312 L 123.894531 61.300781 C 122.183594 62.648438 120.511719 64.042969 118.878906 65.476562 Z M 112.925781 58.117188 " fill-opacity="1" fill-rule="nonzero"/><path fill="#ffffff" d="M 141.53125 42.144531 C 143.683594 41.289062 145.863281 40.519531 148.054688 39.796875 L 150.128906 45.015625 C 148.132812 45.957031 146.167969 46.964844 144.21875 47.992188 Z M 141.53125 42.144531 " fill-opacity="1" fill-rule="nonzero"/><path fill="#ffffff" d="M 172.953125 34.566406 C 174.117188 34.472656 175.28125 34.386719 176.445312 34.304688 L 176.625 35.445312 C 175.511719 35.757812 174.398438 36.0625 173.289062 36.363281 Z M 172.953125 34.566406 " fill-opacity="1" fill-rule="nonzero"/><path fill="#ffffff" d="M 159.789062 317.488281 L 155.957031 316.496094 L 156.394531 315.042969 L 160.132812 316.222656 Z M 159.789062 317.488281 " fill-opacity="1" fill-rule="nonzero"/><path fill="#ffffff" d="M 129.199219 306.25 C 126.886719 305.089844 124.601562 303.867188 122.351562 302.582031 L 124.03125 299.78125 C 126.171875 301.132812 128.355469 302.429688 130.566406 303.667969 Z M 129.199219 306.25 " fill-opacity="1" fill-rule="nonzero"/><path fill="#ffffff" d="M 98.832031 285.933594 C 96.867188 284.222656 94.949219 282.460938 93.074219 280.648438 L 96.527344 277.222656 C 98.265625 279.050781 100.050781 280.832031 101.886719 282.5625 Z M 98.832031 285.933594 " fill-opacity="1" fill-rule="nonzero"/><path fill="#ffffff" d="M 74.34375 258.558594 C 72.855469 256.40625 71.421875 254.214844 70.046875 251.988281 L 75.515625 248.761719 C 76.742188 250.945312 78.03125 253.101562 79.375 255.222656 Z M 74.34375 258.558594 " fill-opacity="1" fill-rule="nonzero"/><path fill="#ffffff" d="M 57.25 225.855469 C 56.332031 223.390625 55.476562 220.90625 54.683594 218.394531 L 62.074219 216.214844 C 62.734375 218.621094 63.460938 221.011719 64.246094 223.382812 Z M 57.25 225.855469 " fill-opacity="1" fill-rule="nonzero"/><path fill="#ffffff" d="M 48.699219 189.773438 C 48.421875 187.148438 48.214844 184.515625 48.078125 181.878906 L 57.054688 181.542969 C 57.105469 184.027344 57.226562 186.507812 57.410156 188.988281 Z M 48.699219 189.773438 " fill-opacity="1" fill-rule="nonzero"/><path fill="#ffffff" d="M 49.429688 152.5625 C 49.808594 149.9375 50.257812 147.328125 50.773438 144.726562 L 60.617188 146.832031 C 60.0625 149.242188 59.574219 151.667969 59.144531 154.109375 Z M 49.429688 152.5625 " fill-opacity="1" fill-rule="nonzero"/><path fill="#ffffff" d="M 59.257812 116.523438 C 60.261719 114.0625 61.316406 111.621094 62.441406 109.207031 L 72.578125 114.195312 C 71.441406 116.378906 70.355469 118.59375 69.34375 120.84375 Z M 59.257812 116.523438 " fill-opacity="1" fill-rule="nonzero"/><path fill="#ffffff" d="M 77.476562 83.707031 C 79.054688 81.546875 80.691406 79.429688 82.382812 77.355469 L 92.246094 85.761719 C 90.613281 87.585938 89.03125 89.457031 87.496094 91.367188 Z M 77.476562 83.707031 " fill-opacity="1" fill-rule="nonzero"/><path fill="#ffffff" d="M 103.554688 56.472656 C 104.605469 55.640625 105.671875 54.824219 106.742188 54.019531 C 107.820312 53.21875 108.898438 52.425781 110 51.660156 L 117.890625 62.816406 C 116.898438 63.527344 115.90625 64.242188 114.929688 64.972656 C 113.953125 65.703125 112.984375 66.449219 112.027344 67.203125 Z M 103.554688 56.472656 " fill-opacity="1" fill-rule="nonzero"/><path fill="#ffffff" d="M 135.984375 37.257812 C 138.449219 36.210938 140.9375 35.230469 143.449219 34.316406 L 147.988281 46.015625 C 145.722656 46.957031 143.484375 47.957031 141.273438 49.011719 Z M 135.984375 37.257812 " fill-opacity="1" fill-rule="nonzero"/><path fill="#ffffff" d="M 172.171875 27.230469 C 174.808594 26.871094 177.449219 26.582031 180.09375 26.363281 L 181.316406 36.4375 C 178.871094 36.835938 176.445312 37.300781 174.03125 37.824219 Z M 172.171875 27.230469 " fill-opacity="1" fill-rule="nonzero"/><path fill="#ffffff" d="M 209.402344 27.113281 C 212.007812 27.449219 214.601562 27.886719 217.179688 28.375 L 216.367188 34.703125 C 213.859375 34.539062 211.351562 34.457031 208.851562 34.40625 Z M 209.402344 27.113281 " fill-opacity="1" fill-rule="nonzero"/><path fill="#ffffff" d="M 244.804688 36.894531 C 246.015625 37.441406 247.21875 37.996094 248.417969 38.558594 L 247.96875 39.792969 C 246.6875 39.488281 245.414062 39.179688 244.148438 38.863281 Z M 244.804688 36.894531 " fill-opacity="1" fill-rule="nonzero"/><path fill="#ffffff" d="M 75.851562 310.832031 L 72.589844 307.738281 L 73.828125 306.535156 L 76.890625 309.765625 Z M 75.851562 310.832031 " fill-opacity="1" fill-rule="nonzero"/><path fill="#ffffff" d="M 51.644531 282.8125 C 49.984375 280.382812 48.386719 277.910156 46.855469 275.394531 L 50.070312 273.535156 C 51.453125 276.058594 52.90625 278.550781 54.425781 281 Z M 51.644531 282.8125 " fill-opacity="1" fill-rule="nonzero"/><path fill="#ffffff" d="M 32.652344 245.886719 C 31.640625 243.109375 30.703125 240.300781 29.84375 237.464844 L 35.160156 235.964844 C 35.882812 238.734375 36.675781 241.488281 37.542969 244.222656 Z M 32.652344 245.886719 " fill-opacity="1" fill-rule="nonzero"/><g clip-path="url(#3213edc1c0)"><path fill="#ffffff" d="M 23.398438 205.1875 C 23.101562 202.230469 22.882812 199.265625 22.742188 196.292969 L 29.957031 196.097656 C 29.972656 198.949219 30.066406 201.796875 30.230469 204.644531 Z M 23.398438 205.1875 " fill-opacity="1" fill-rule="nonzero"/></g><path fill="#ffffff" d="M 24.425781 163.269531 C 24.867188 160.316406 25.386719 157.371094 25.984375 154.441406 L 34.527344 156.347656 C 33.859375 159.101562 33.261719 161.875 32.742188 164.667969 Z M 24.425781 163.269531 " fill-opacity="1" fill-rule="nonzero"/><path fill="#ffffff" d="M 35.800781 122.699219 C 36.972656 119.9375 38.21875 117.207031 39.539062 114.507812 L 48.640625 119.121094 C 47.324219 121.617188 46.074219 124.152344 44.894531 126.714844 Z M 35.800781 122.699219 " fill-opacity="1" fill-rule="nonzero"/><path fill="#ffffff" d="M 57.03125 86.117188 C 58.851562 83.71875 60.734375 81.367188 62.679688 79.070312 L 71.308594 86.585938 C 69.429688 88.675781 67.601562 90.816406 65.832031 93.007812 Z M 57.03125 86.117188 " fill-opacity="1" fill-rule="nonzero"/><path fill="#ffffff" d="M 86.648438 55.714844 C 89.007812 53.820312 91.398438 51.972656 93.847656 50.195312 L 101.175781 60.738281 C 98.839844 62.28125 96.539062 63.886719 94.296875 65.566406 Z M 86.648438 55.714844 " fill-opacity="1" fill-rule="nonzero"/><path fill="#ffffff" d="M 122.839844 33.136719 C 125.597656 31.859375 128.390625 30.652344 131.214844 29.523438 L 136.386719 43.3125 C 133.757812 44.226562 131.15625 45.214844 128.574219 46.269531 Z M 122.839844 33.136719 " fill-opacity="1" fill-rule="nonzero"/><g clip-path="url(#99b245ed51)"><path fill="#ffffff" d="M 163.761719 20.433594 C 165.265625 20.1875 166.773438 19.960938 168.28125 19.753906 C 169.792969 19.550781 171.304688 19.355469 172.820312 19.199219 L 174.515625 34.636719 C 173.136719 34.796875 171.757812 34.960938 170.386719 35.148438 C 169.011719 35.335938 167.636719 35.542969 166.269531 35.765625 Z M 163.761719 20.433594 " fill-opacity="1" fill-rule="nonzero"/></g><g clip-path="url(#d480b1ee99)"><path fill="#ffffff" d="M 206.578125 19.199219 C 209.605469 19.519531 212.617188 19.917969 215.617188 20.394531 L 213.6875 34.519531 C 210.914062 34.207031 208.140625 33.964844 205.359375 33.800781 Z M 206.578125 19.199219 " fill-opacity="1" fill-rule="nonzero"/></g><path fill="#ffffff" d="M 248.070312 29.171875 C 250.886719 30.265625 253.671875 31.4375 256.421875 32.675781 L 252.085938 43.359375 C 249.4375 42.410156 246.765625 41.535156 244.078125 40.726562 Z M 248.070312 29.171875 " fill-opacity="1" fill-rule="nonzero"/><path fill="#ffffff" d="M 285.132812 49.566406 C 287.542969 51.335938 289.878906 53.199219 292.171875 55.105469 L 287.875 60.949219 C 285.476562 59.402344 283.027344 57.941406 280.570312 56.511719 Z M 285.132812 49.566406 " fill-opacity="1" fill-rule="nonzero"/><path fill="#ffffff" d="M 314.933594 78.792969 C 315.832031 80.003906 316.726562 81.21875 317.609375 82.4375 L 316.484375 83.414062 C 315.378906 82.40625 314.28125 81.398438 313.195312 80.386719 Z M 314.933594 78.792969 " fill-opacity="1" fill-rule="nonzero"/><path fill="#ffffff" d="M 126.007812 151.171875 L 128.394531 149.25 L 129.097656 150.203125 L 126.632812 151.972656 Z M 126.007812 151.171875 " fill-opacity="1" fill-rule="nonzero"/><path fill="#ffffff" d="M 147.695312 137.09375 C 149.542969 136.179688 151.417969 135.316406 153.3125 134.5 L 154.296875 136.957031 C 152.410156 137.660156 150.539062 138.417969 148.691406 139.226562 Z M 147.695312 137.09375 " fill-opacity="1" fill-rule="nonzero"/><path fill="#ffffff" d="M 175.214844 127.636719 C 177.246094 127.222656 179.289062 126.867188 181.34375 126.5625 L 181.839844 130.496094 C 179.847656 130.703125 177.855469 130.964844 175.875 131.28125 Z M 175.214844 127.636719 " fill-opacity="1" fill-rule="nonzero"/><path fill="#ffffff" d="M 204.394531 125.492188 C 206.476562 125.601562 208.554688 125.769531 210.628906 125.996094 L 209.96875 131.15625 C 207.996094 130.863281 206.015625 130.621094 204.03125 130.429688 Z M 204.394531 125.492188 " fill-opacity="1" fill-rule="nonzero"/><path fill="#ffffff" d="M 233.320312 130.808594 C 235.316406 131.449219 237.296875 132.144531 239.257812 132.890625 L 236.894531 138.75 C 235.070312 137.972656 233.222656 137.242188 231.359375 136.566406 Z M 233.320312 130.808594 " fill-opacity="1" fill-rule="nonzero"/><path fill="#ffffff" d="M 260.0625 143.386719 C 261.832031 144.523438 263.574219 145.707031 265.285156 146.9375 L 260.921875 152.804688 C 259.359375 151.601562 257.761719 150.4375 256.132812 149.320312 Z M 260.0625 143.386719 " fill-opacity="1" fill-rule="nonzero"/><path fill="#ffffff" d="M 282.8125 162.429688 C 284.246094 163.976562 285.640625 165.566406 286.992188 167.191406 L 280.582031 172.355469 C 279.378906 170.800781 278.128906 169.28125 276.835938 167.796875 Z M 282.8125 162.429688 " fill-opacity="1" fill-rule="nonzero"/><path fill="#ffffff" d="M 300.238281 186.605469 C 301.257812 188.46875 302.230469 190.359375 303.152344 192.273438 L 294.476562 196.183594 C 293.722656 194.382812 292.917969 192.601562 292.0625 190.839844 Z M 300.238281 186.605469 " fill-opacity="1" fill-rule="nonzero"/><path fill="#ffffff" d="M 311.085938 214.539062 C 311.332031 215.578125 311.5625 216.621094 311.78125 217.664062 C 311.996094 218.710938 312.191406 219.761719 312.375 220.8125 L 301.964844 222.566406 C 301.808594 221.609375 301.636719 220.652344 301.460938 219.695312 C 301.285156 218.738281 301.09375 217.785156 300.894531 216.835938 Z M 311.085938 214.539062 " fill-opacity="1" fill-rule="nonzero"/><path fill="#ffffff" d="M 313.804688 244.4375 L 313.710938 246.03125 C 313.683594 246.5625 313.640625 247.09375 313.589844 247.625 L 313.296875 250.804688 L 303.316406 249.941406 L 303.449219 247.019531 C 303.476562 246.53125 303.5 246.042969 303.503906 245.558594 L 303.539062 244.09375 Z M 313.804688 244.4375 " fill-opacity="1" fill-rule="nonzero"/><path fill="#ffffff" d="M 308.28125 273.835938 C 307.945312 274.84375 307.597656 275.84375 307.234375 276.839844 C 306.867188 277.832031 306.484375 278.820312 306.089844 279.800781 L 298.359375 277.054688 C 298.648438 276.113281 298.925781 275.167969 299.1875 274.222656 C 299.457031 273.277344 299.710938 272.332031 299.953125 271.378906 Z M 308.28125 273.835938 " fill-opacity="1" fill-rule="nonzero"/><path fill="#ffffff" d="M 295.082031 300.410156 C 294.492188 301.273438 293.886719 302.132812 293.269531 302.976562 C 292.65625 303.824219 292.019531 304.65625 291.378906 305.484375 L 287.085938 302.5625 C 287.59375 301.699219 288.082031 300.828125 288.570312 299.960938 C 289.054688 299.089844 289.53125 298.214844 289.992188 297.335938 Z M 295.082031 300.410156 " fill-opacity="1" fill-rule="nonzero"/><path fill="#ffffff" d="M 275.257812 321.957031 C 274.445312 322.589844 273.632812 323.21875 272.816406 323.84375 L 272.128906 323.097656 C 272.785156 322.320312 273.449219 321.550781 274.109375 320.785156 Z M 275.257812 321.957031 " fill-opacity="1" fill-rule="nonzero"/><path fill="#ffffff" d="M 166.484375 100.628906 L 169.914062 100.035156 L 170.089844 101.371094 L 166.664062 101.769531 Z M 166.484375 100.628906 " fill-opacity="1" fill-rule="nonzero"/><path fill="#ffffff" d="M 195.796875 98.585938 C 198.136719 98.695312 200.472656 98.867188 202.808594 99.105469 L 202.433594 102.085938 C 200.167969 101.746094 197.894531 101.46875 195.609375 101.253906 Z M 195.796875 98.585938 " fill-opacity="1" fill-rule="nonzero"/><path fill="#ffffff" d="M 228.355469 104.347656 C 230.605469 105.054688 232.832031 105.828125 235.042969 106.65625 L 233.367188 110.839844 C 231.269531 109.949219 229.148438 109.109375 227.007812 108.332031 Z M 228.355469 104.347656 " fill-opacity="1" fill-rule="nonzero"/><path fill="#ffffff" d="M 258.539062 118.292969 C 260.546875 119.546875 262.523438 120.859375 264.460938 122.230469 L 260.960938 126.992188 C 259.160156 125.613281 257.324219 124.285156 255.457031 122.996094 Z M 258.539062 118.292969 " fill-opacity="1" fill-rule="nonzero"/><path fill="#ffffff" d="M 284.359375 139.515625 C 285.992188 141.25 287.578125 143.027344 289.113281 144.851562 L 283.535156 149.371094 C 282.152344 147.59375 280.71875 145.851562 279.238281 144.152344 Z M 284.359375 139.515625 " fill-opacity="1" fill-rule="nonzero"/><path fill="#ffffff" d="M 304.007812 166.746094 C 305.144531 168.851562 306.222656 170.984375 307.246094 173.148438 L 299.675781 176.578125 C 298.785156 174.519531 297.835938 172.488281 296.832031 170.476562 Z M 304.007812 166.746094 " fill-opacity="1" fill-rule="nonzero"/><path fill="#ffffff" d="M 316.128906 198.203125 C 316.703125 200.535156 317.210938 202.882812 317.660156 205.242188 L 308.445312 206.839844 C 308.101562 204.632812 307.699219 202.433594 307.234375 200.246094 Z M 316.128906 198.203125 " fill-opacity="1" fill-rule="nonzero"/><path fill="#ffffff" d="M 320.128906 231.832031 C 320.117188 234.246094 320.042969 236.660156 319.902344 239.074219 L 309.125 238.179688 C 309.367188 235.972656 309.550781 233.757812 309.671875 231.539062 Z M 320.128906 231.832031 " fill-opacity="1" fill-rule="nonzero"/><path fill="#ffffff" d="M 315.519531 265.570312 C 315.191406 266.738281 314.847656 267.902344 314.488281 269.0625 C 314.128906 270.21875 313.742188 271.371094 313.347656 272.519531 L 302.03125 268.527344 C 302.40625 267.488281 302.765625 266.441406 303.113281 265.394531 C 303.464844 264.347656 303.804688 263.296875 304.125 262.238281 Z M 315.519531 265.570312 " fill-opacity="1" fill-rule="nonzero"/><path fill="#ffffff" d="M 301.753906 296.785156 L 300.78125 298.316406 C 300.460938 298.832031 300.125 299.335938 299.785156 299.835938 L 297.738281 302.835938 L 288.296875 296.480469 L 290.035156 293.644531 C 290.332031 293.175781 290.625 292.707031 290.898438 292.222656 L 291.738281 290.792969 Z M 301.753906 296.785156 " fill-opacity="1" fill-rule="nonzero"/><path fill="#ffffff" d="M 280.066406 322.960938 C 279.179688 323.777344 278.28125 324.578125 277.371094 325.367188 C 276.460938 326.152344 275.535156 326.925781 274.605469 327.683594 L 268.433594 320.695312 C 269.238281 319.917969 270.03125 319.132812 270.816406 318.335938 C 271.601562 317.546875 272.378906 316.746094 273.144531 315.933594 Z M 280.066406 322.960938 " fill-opacity="1" fill-rule="nonzero"/><path fill="#ffffff" d="M 252.308594 342.101562 C 251.242188 342.636719 250.171875 343.152344 249.09375 343.65625 C 248.015625 344.160156 246.925781 344.636719 245.832031 345.105469 L 243.175781 339.835938 C 244.152344 339.257812 245.117188 338.664062 246.082031 338.070312 C 247.042969 337.472656 248 336.863281 248.941406 336.238281 Z M 252.308594 342.101562 " fill-opacity="1" fill-rule="nonzero"/><path fill="#ffffff" d="M 220.730469 352.59375 C 219.578125 352.777344 218.421875 352.957031 217.269531 353.125 L 216.996094 352.003906 C 218.078125 351.59375 219.160156 351.191406 220.242188 350.796875 Z M 220.730469 352.59375 " fill-opacity="1" fill-rule="nonzero"/><path fill="#ffffff" d="M 234.558594 72.695312 L 238.296875 73.996094 L 237.734375 75.417969 L 234.109375 73.929688 Z M 234.558594 72.695312 " fill-opacity="1" fill-rule="nonzero"/><path fill="#ffffff" d="M 264.816406 86.8125 C 267.082031 88.210938 269.3125 89.671875 271.5 91.191406 L 269.488281 93.949219 C 267.421875 92.363281 265.3125 90.835938 263.160156 89.363281 Z M 264.816406 86.8125 " fill-opacity="1" fill-rule="nonzero"/><path fill="#ffffff" d="M 294.003906 110.476562 C 295.847656 112.421875 297.640625 114.414062 299.375 116.457031 L 295.40625 119.691406 C 293.816406 117.648438 292.167969 115.648438 290.46875 113.695312 Z M 294.003906 110.476562 " fill-opacity="1" fill-rule="nonzero"/><path fill="#ffffff" d="M 316.320312 140.96875 C 317.625 143.320312 318.863281 145.710938 320.035156 148.140625 L 313.933594 150.945312 C 312.90625 148.585938 311.8125 146.25 310.664062 143.941406 Z M 316.320312 140.96875 " fill-opacity="1" fill-rule="nonzero"/><path fill="#ffffff" d="M 330.292969 176.28125 C 330.957031 178.90625 331.550781 181.546875 332.074219 184.207031 L 324.042969 185.625 C 323.644531 183.097656 323.179688 180.578125 322.648438 178.070312 Z M 330.292969 176.28125 " fill-opacity="1" fill-rule="nonzero"/><path fill="#ffffff" d="M 334.816406 214.171875 C 334.785156 216.890625 334.683594 219.605469 334.503906 222.320312 L 325.09375 221.558594 C 325.339844 219.023438 325.519531 216.476562 325.628906 213.929688 Z M 334.816406 214.171875 " fill-opacity="1" fill-rule="nonzero"/><path fill="#ffffff" d="M 329.535156 252.117188 C 328.816406 254.75 328.03125 257.363281 327.179688 259.953125 L 317.140625 256.46875 C 318.015625 254.082031 318.824219 251.675781 319.566406 249.246094 Z M 329.535156 252.117188 " fill-opacity="1" fill-rule="nonzero"/><path fill="#ffffff" d="M 314.980469 287.742188 C 313.640625 290.136719 312.238281 292.496094 310.769531 294.816406 L 300.550781 287.992188 C 302.007812 285.929688 303.40625 283.828125 304.753906 281.6875 Z M 314.980469 287.742188 " fill-opacity="1" fill-rule="nonzero"/><path fill="#ffffff" d="M 291.8125 318.738281 C 290.84375 319.714844 289.863281 320.683594 288.867188 321.636719 C 287.867188 322.589844 286.851562 323.519531 285.828125 324.441406 L 276.78125 314.242188 C 277.726562 313.417969 278.65625 312.574219 279.582031 311.726562 C 280.507812 310.878906 281.421875 310.019531 282.324219 309.144531 Z M 291.8125 318.738281 " fill-opacity="1" fill-rule="nonzero"/><path fill="#ffffff" d="M 260.933594 342.175781 L 259.121094 343.160156 C 258.523438 343.496094 257.910156 343.8125 257.296875 344.121094 L 253.613281 345.976562 L 247.730469 334.457031 L 251.019531 332.597656 C 251.570312 332.296875 252.121094 331.988281 252.660156 331.660156 L 254.285156 330.699219 Z M 260.933594 342.175781 " fill-opacity="1" fill-rule="nonzero"/><path fill="#ffffff" d="M 224.957031 356.242188 C 223.628906 356.5625 222.292969 356.867188 220.957031 357.152344 C 219.617188 357.429688 218.273438 357.6875 216.929688 357.925781 L 214.648438 347.582031 C 215.875 347.253906 217.097656 346.910156 218.3125 346.550781 C 219.53125 346.199219 220.742188 345.828125 221.949219 345.441406 Z M 224.957031 356.242188 " fill-opacity="1" fill-rule="nonzero"/><path fill="#ffffff" d="M 186.828125 359.976562 C 185.472656 359.917969 184.121094 359.839844 182.773438 359.746094 C 181.425781 359.65625 180.078125 359.527344 178.738281 359.390625 L 179 352.6875 C 180.289062 352.65625 181.574219 352.59375 182.859375 352.535156 C 184.144531 352.472656 185.429688 352.390625 186.710938 352.292969 Z M 186.828125 359.976562 " fill-opacity="1" fill-rule="nonzero"/><path fill="#ffffff" d="M 149.664062 353.007812 C 148.414062 352.550781 147.167969 352.09375 145.929688 351.625 L 146.273438 350.359375 C 147.578125 350.550781 148.871094 350.746094 150.164062 350.949219 Z M 149.664062 353.007812 " fill-opacity="1" fill-rule="nonzero"/><path fill="#ffffff" d="M 317.609375 82.4375 L 320.605469 85.789062 L 319.265625 86.894531 L 316.484375 83.414062 Z M 317.609375 82.4375 " fill-opacity="1" fill-rule="nonzero"/><path fill="#ffffff" d="M 339.902344 113.136719 C 341.382812 115.773438 342.796875 118.453125 344.132812 121.171875 L 340.613281 122.804688 C 339.433594 120.089844 338.179688 117.40625 336.851562 114.757812 Z M 339.902344 113.136719 " fill-opacity="1" fill-rule="nonzero"/><path fill="#ffffff" d="M 355.871094 152.738281 C 356.636719 155.683594 357.316406 158.652344 357.921875 161.636719 L 352.191406 162.664062 C 351.734375 159.761719 351.199219 156.867188 350.585938 153.984375 Z M 355.871094 152.738281 " fill-opacity="1" fill-rule="nonzero"/><g clip-path="url(#acd5b9fb74)"><path fill="#ffffff" d="M 361.257812 195.332031 C 361.257812 198.390625 361.171875 201.453125 360.996094 204.507812 L 353.386719 203.9375 C 353.664062 201.023438 353.867188 198.105469 353.996094 195.175781 Z M 361.257812 195.332031 " fill-opacity="1" fill-rule="nonzero"/></g><path fill="#ffffff" d="M 355.6875 238.128906 C 354.902344 241.105469 354.039062 244.058594 353.09375 246.988281 L 344.328125 243.972656 C 345.328125 241.242188 346.253906 238.480469 347.105469 235.695312 Z M 355.6875 238.128906 " fill-opacity="1" fill-rule="nonzero"/><path fill="#ffffff" d="M 339.308594 278.28125 C 337.78125 280.964844 336.183594 283.609375 334.511719 286.207031 L 325.578125 280.265625 C 327.21875 277.882812 328.800781 275.449219 330.3125 272.976562 Z M 339.308594 278.28125 " fill-opacity="1" fill-rule="nonzero"/><path fill="#ffffff" d="M 313.152344 313.082031 C 310.992188 315.304688 308.773438 317.46875 306.496094 319.578125 L 298.4375 310.578125 C 300.621094 308.691406 302.753906 306.746094 304.828125 304.738281 Z M 313.152344 313.082031 " fill-opacity="1" fill-rule="nonzero"/><path fill="#ffffff" d="M 279.0625 340.472656 C 276.414062 342.113281 273.71875 343.683594 270.980469 345.183594 L 264.582031 332.769531 C 267.167969 331.523438 269.71875 330.207031 272.234375 328.820312 Z M 279.0625 340.472656 " fill-opacity="1" fill-rule="nonzero"/><path fill="#ffffff" d="M 238.960938 358.515625 C 237.460938 358.957031 235.949219 359.375 234.433594 359.773438 C 232.917969 360.171875 231.394531 360.539062 229.867188 360.886719 L 226.496094 345.765625 C 227.890625 345.46875 229.28125 345.140625 230.667969 344.808594 C 232.054688 344.476562 233.4375 344.125 234.816406 343.757812 Z M 238.960938 358.515625 " fill-opacity="1" fill-rule="nonzero"/><g clip-path="url(#0bc1ca79ad)"><path fill="#ffffff" d="M 195.359375 364.796875 L 193.015625 364.78125 C 192.234375 364.78125 191.453125 364.757812 190.671875 364.730469 L 185.988281 364.542969 L 186.488281 349.851562 L 190.78125 349.820312 C 191.496094 349.820312 192.210938 349.816406 192.925781 349.789062 L 195.070312 349.730469 Z M 195.359375 364.796875 " fill-opacity="1" fill-rule="nonzero"/></g><path fill="#ffffff" d="M 151.855469 358.960938 C 150.355469 358.546875 148.859375 358.113281 147.375 357.660156 C 145.890625 357.195312 144.414062 356.714844 142.945312 356.210938 L 146.378906 344.671875 C 147.777344 345.023438 149.179688 345.351562 150.589844 345.664062 C 151.992188 345.988281 153.402344 346.289062 154.8125 346.570312 Z M 151.855469 358.960938 " fill-opacity="1" fill-rule="nonzero"/><path fill="#ffffff" d="M 111.898438 341.664062 C 110.585938 340.859375 109.285156 340.039062 107.996094 339.203125 C 106.707031 338.367188 105.441406 337.5 104.179688 336.625 L 108.132812 330.109375 C 109.433594 330.785156 110.746094 331.433594 112.054688 332.082031 C 113.367188 332.726562 114.6875 333.355469 116.015625 333.964844 Z M 111.898438 341.664062 " fill-opacity="1" fill-rule="nonzero"/><path fill="#ffffff" d="M 78.800781 314.261719 C 77.808594 313.121094 76.824219 311.980469 75.851562 310.832031 L 76.890625 309.765625 C 78.082031 310.671875 79.261719 311.582031 80.433594 312.492188 Z M 78.800781 314.261719 " fill-opacity="1" fill-rule="nonzero"/></svg>