<svg xmlns="http://www.w3.org/2000/svg" xmlns:xlink="http://www.w3.org/1999/xlink" width="512" zoomAndPan="magnify" viewBox="0 0 384 383.999986" height="512" preserveAspectRatio="xMidYMid meet" version="1.0"><defs><clipPath id="23885f9b44"><path d="M 22.726562 196 L 31 196 L 31 206 L 22.726562 206 Z M 22.726562 196 " clip-rule="nonzero"/></clipPath><clipPath id="e72dcd6fad"><path d="M 163 19.199219 L 175 19.199219 L 175 36 L 163 36 Z M 163 19.199219 " clip-rule="nonzero"/></clipPath><clipPath id="391059ec23"><path d="M 205 19.199219 L 216 19.199219 L 216 35 L 205 35 Z M 205 19.199219 " clip-rule="nonzero"/></clipPath><clipPath id="7da0938534"><path d="M 353 195 L 360.976562 195 L 360.976562 205 L 353 205 Z M 353 195 " clip-rule="nonzero"/></clipPath><clipPath id="3b3b5b70fb"><path d="M 185 349 L 196 349 L 196 364.949219 L 185 364.949219 Z M 185 349 " clip-rule="nonzero"/></clipPath></defs><path fill="#000000" d="M 265.835938 234.503906 L 263.613281 236.613281 L 262.839844 235.726562 L 265.144531 233.757812 Z M 265.835938 234.503906 " fill-opacity="1" fill-rule="nonzero"/><path fill="#000000" d="M 245.917969 249.984375 C 244.207031 251.03125 242.46875 252.027344 240.703125 252.980469 L 239.554688 250.726562 C 241.320312 249.875 243.066406 248.972656 244.785156 248.027344 Z M 245.917969 249.984375 " fill-opacity="1" fill-rule="nonzero"/><path fill="#000000" d="M 220.136719 261.597656 C 218.210938 262.1875 216.265625 262.722656 214.308594 263.210938 L 213.476562 259.535156 C 215.386719 259.144531 217.289062 258.703125 219.175781 258.207031 Z M 220.136719 261.597656 " fill-opacity="1" fill-rule="nonzero"/><path fill="#000000" d="M 192.132812 266.445312 C 190.113281 266.542969 188.085938 266.585938 186.0625 266.574219 L 186.183594 261.65625 C 188.125 261.746094 190.066406 261.785156 192.007812 261.773438 Z M 192.132812 266.445312 " fill-opacity="1" fill-rule="nonzero"/><path fill="#000000" d="M 163.667969 264.25 C 161.671875 263.84375 159.691406 263.386719 157.71875 262.875 L 159.320312 257.125 C 161.167969 257.679688 163.035156 258.183594 164.914062 258.640625 Z M 163.667969 264.25 " fill-opacity="1" fill-rule="nonzero"/><path fill="#000000" d="M 136.484375 255.058594 C 134.648438 254.160156 132.835938 253.214844 131.050781 252.222656 L 134.511719 246.191406 C 136.160156 247.175781 137.839844 248.113281 139.542969 249.011719 Z M 136.484375 255.058594 " fill-opacity="1" fill-rule="nonzero"/><path fill="#000000" d="M 112.367188 239.300781 C 110.800781 237.972656 109.273438 236.609375 107.777344 235.203125 L 113.195312 229.59375 C 114.550781 230.949219 115.941406 232.269531 117.367188 233.550781 Z M 112.367188 239.300781 " fill-opacity="1" fill-rule="nonzero"/><path fill="#000000" d="M 92.75 218.046875 C 91.546875 216.378906 90.378906 214.679688 89.257812 212.949219 L 96.683594 208.339844 C 97.652344 209.984375 98.660156 211.605469 99.722656 213.195312 Z M 92.75 218.046875 " fill-opacity="1" fill-rule="nonzero"/><path fill="#000000" d="M 78.6875 192.605469 C 77.917969 190.679688 77.199219 188.738281 76.53125 186.773438 L 86.089844 183.742188 C 86.621094 185.566406 87.199219 187.375 87.824219 189.167969 Z M 78.6875 192.605469 " fill-opacity="1" fill-rule="nonzero"/><path fill="#000000" d="M 71.511719 164.289062 C 71.394531 163.257812 71.296875 162.222656 71.210938 161.1875 C 71.125 160.152344 71.046875 159.117188 70.996094 158.078125 L 81.550781 157.472656 C 81.613281 158.417969 81.671875 159.363281 81.753906 160.304688 C 81.832031 161.246094 81.921875 162.1875 82.023438 163.128906 Z M 71.511719 164.289062 " fill-opacity="1" fill-rule="nonzero"/><path fill="#000000" d="M 72.199219 135.09375 C 72.523438 133.046875 72.898438 131.007812 73.332031 128.980469 L 82.867188 130.800781 C 82.554688 132.675781 82.292969 134.558594 82.082031 136.445312 Z M 72.199219 135.09375 " fill-opacity="1" fill-rule="nonzero"/><path fill="#000000" d="M 80.457031 107.199219 C 81.300781 105.324219 82.195312 103.46875 83.136719 101.640625 L 90.246094 104.972656 C 89.507812 106.742188 88.816406 108.527344 88.171875 110.328125 Z M 80.457031 107.199219 " fill-opacity="1" fill-rule="nonzero"/><path fill="#000000" d="M 95.644531 82.695312 C 96.933594 81.117188 98.285156 79.59375 99.660156 78.101562 L 103.480469 81.234375 C 102.34375 82.8125 101.261719 84.425781 100.203125 86.050781 Z M 95.644531 82.695312 " fill-opacity="1" fill-rule="nonzero"/><path fill="#000000" d="M 116.578125 63.449219 C 117.433594 62.878906 118.292969 62.316406 119.152344 61.757812 L 119.777344 62.558594 C 119.050781 63.273438 118.328125 63.984375 117.601562 64.6875 Z M 116.578125 63.449219 " fill-opacity="1" fill-rule="nonzero"/><path fill="#000000" d="M 227.054688 286.917969 L 223.683594 287.789062 L 223.402344 286.484375 L 226.777344 285.796875 Z M 227.054688 286.917969 " fill-opacity="1" fill-rule="nonzero"/><path fill="#000000" d="M 198.738281 291.320312 C 196.464844 291.414062 194.1875 291.449219 191.910156 291.421875 L 192.007812 288.546875 C 194.230469 288.671875 196.460938 288.738281 198.691406 288.75 Z M 198.738281 291.320312 " fill-opacity="1" fill-rule="nonzero"/><path fill="#000000" d="M 166.726562 288.636719 C 164.488281 288.160156 162.261719 287.625 160.046875 287.027344 L 161.242188 282.914062 C 163.355469 283.578125 165.488281 284.1875 167.636719 284.742188 Z M 166.726562 288.636719 " fill-opacity="1" fill-rule="nonzero"/><path fill="#000000" d="M 136.226562 278.011719 C 134.164062 276.988281 132.128906 275.914062 130.121094 274.789062 L 132.949219 269.96875 C 134.828125 271.125 136.734375 272.238281 138.671875 273.296875 Z M 136.226562 278.011719 " fill-opacity="1" fill-rule="nonzero"/><path fill="#000000" d="M 109.140625 260.125 C 107.382812 258.621094 105.667969 257.070312 103.988281 255.476562 L 108.742188 250.644531 C 110.277344 252.214844 111.851562 253.746094 113.46875 255.234375 Z M 109.140625 260.125 " fill-opacity="1" fill-rule="nonzero"/><path fill="#000000" d="M 87.1875 235.992188 C 85.855469 234.089844 84.574219 232.148438 83.34375 230.175781 L 90.101562 226.089844 C 91.199219 227.980469 92.351562 229.839844 93.550781 231.667969 Z M 87.1875 235.992188 " fill-opacity="1" fill-rule="nonzero"/><path fill="#000000" d="M 71.886719 207.027344 C 71.058594 204.847656 70.289062 202.644531 69.578125 200.421875 L 78.046875 197.839844 C 78.648438 199.933594 79.304688 202.011719 80.015625 204.070312 Z M 71.886719 207.027344 " fill-opacity="1" fill-rule="nonzero"/><path fill="#000000" d="M 64.082031 175.085938 C 63.804688 172.761719 63.574219 170.429688 63.414062 168.089844 L 73.332031 167.605469 C 73.390625 169.773438 73.5 171.941406 73.679688 174.105469 Z M 64.082031 175.085938 " fill-opacity="1" fill-rule="nonzero"/><path fill="#000000" d="M 64.101562 142.039062 C 64.394531 139.703125 64.75 137.371094 65.167969 135.050781 L 76.335938 137.316406 C 75.859375 139.417969 75.4375 141.535156 75.074219 143.660156 Z M 64.101562 142.039062 " fill-opacity="1" fill-rule="nonzero"/><path fill="#000000" d="M 72.546875 109.9375 C 73.003906 108.847656 73.472656 107.765625 73.957031 106.6875 C 74.441406 105.613281 74.933594 104.539062 75.453125 103.480469 L 86.277344 108.699219 C 85.820312 109.671875 85.359375 110.644531 84.921875 111.625 C 84.480469 112.605469 84.050781 113.59375 83.636719 114.582031 Z M 72.546875 109.9375 " fill-opacity="1" fill-rule="nonzero"/><path fill="#000000" d="M 89.296875 81.296875 C 90.746094 79.441406 92.242188 77.625 93.785156 75.847656 L 102.261719 82.917969 C 100.917969 84.609375 99.625 86.335938 98.375 88.09375 Z M 89.296875 81.296875 " fill-opacity="1" fill-rule="nonzero"/><path fill="#000000" d="M 112.847656 58.132812 C 114.722656 56.730469 116.632812 55.382812 118.574219 54.085938 L 123.804688 61.320312 C 122.097656 62.667969 120.425781 64.0625 118.796875 65.5 Z M 112.847656 58.132812 " fill-opacity="1" fill-rule="nonzero"/><path fill="#000000" d="M 141.429688 42.152344 C 143.578125 41.296875 145.757812 40.527344 147.949219 39.804688 L 150.019531 45.027344 C 148.023438 45.96875 146.058594 46.976562 144.113281 48.003906 Z M 141.429688 42.152344 " fill-opacity="1" fill-rule="nonzero"/><path fill="#000000" d="M 172.824219 34.574219 C 173.988281 34.480469 175.152344 34.390625 176.3125 34.3125 L 176.492188 35.453125 C 175.378906 35.765625 174.265625 36.070312 173.15625 36.371094 Z M 172.824219 34.574219 " fill-opacity="1" fill-rule="nonzero"/><path fill="#000000" d="M 159.667969 317.621094 L 155.839844 316.628906 L 156.28125 315.171875 L 160.011719 316.355469 Z M 159.667969 317.621094 " fill-opacity="1" fill-rule="nonzero"/><path fill="#000000" d="M 129.109375 306.375 C 126.796875 305.214844 124.515625 303.992188 122.265625 302.707031 L 123.941406 299.902344 C 126.085938 301.257812 128.261719 302.554688 130.472656 303.792969 Z M 129.109375 306.375 " fill-opacity="1" fill-rule="nonzero"/><path fill="#000000" d="M 98.765625 286.050781 C 96.800781 284.339844 94.886719 282.578125 93.015625 280.765625 L 96.464844 277.335938 C 98.199219 279.164062 99.984375 280.945312 101.816406 282.679688 Z M 98.765625 286.050781 " fill-opacity="1" fill-rule="nonzero"/><path fill="#000000" d="M 74.300781 258.664062 C 72.8125 256.511719 71.378906 254.320312 70.003906 252.089844 L 75.46875 248.863281 C 76.695312 251.046875 77.980469 253.203125 79.324219 255.328125 Z M 74.300781 258.664062 " fill-opacity="1" fill-rule="nonzero"/><path fill="#000000" d="M 57.222656 225.945312 C 56.300781 223.484375 55.445312 220.992188 54.65625 218.484375 L 62.039062 216.300781 C 62.699219 218.710938 63.425781 221.101562 64.210938 223.472656 Z M 57.222656 225.945312 " fill-opacity="1" fill-rule="nonzero"/><path fill="#000000" d="M 48.675781 189.847656 C 48.402344 187.222656 48.195312 184.589844 48.058594 181.949219 L 57.023438 181.613281 C 57.078125 184.097656 57.195312 186.582031 57.382812 189.0625 Z M 48.675781 189.847656 " fill-opacity="1" fill-rule="nonzero"/><path fill="#000000" d="M 49.40625 152.621094 C 49.785156 149.996094 50.230469 147.382812 50.746094 144.78125 L 60.585938 146.886719 C 60.03125 149.300781 59.539062 151.726562 59.113281 154.167969 Z M 49.40625 152.621094 " fill-opacity="1" fill-rule="nonzero"/><path fill="#000000" d="M 59.226562 116.566406 C 60.230469 114.105469 61.285156 111.660156 62.410156 109.246094 L 72.535156 114.234375 C 71.398438 116.421875 70.3125 118.636719 69.304688 120.890625 Z M 59.226562 116.566406 " fill-opacity="1" fill-rule="nonzero"/><path fill="#000000" d="M 77.429688 83.734375 C 79.003906 81.574219 80.640625 79.457031 82.332031 77.378906 L 92.1875 85.789062 C 90.554688 87.617188 88.972656 89.488281 87.441406 91.398438 Z M 77.429688 83.734375 " fill-opacity="1" fill-rule="nonzero"/><path fill="#000000" d="M 103.484375 56.488281 C 104.535156 55.65625 105.597656 54.839844 106.671875 54.035156 C 107.746094 53.234375 108.824219 52.4375 109.925781 51.671875 L 117.808594 62.832031 C 116.820312 63.546875 115.828125 64.261719 114.851562 64.992188 C 113.875 65.722656 112.90625 66.46875 111.949219 67.226562 Z M 103.484375 56.488281 " fill-opacity="1" fill-rule="nonzero"/><path fill="#000000" d="M 135.886719 37.265625 C 138.347656 36.21875 140.835938 35.238281 143.347656 34.324219 L 147.882812 46.027344 C 145.617188 46.96875 143.378906 47.96875 141.171875 49.027344 Z M 135.886719 37.265625 " fill-opacity="1" fill-rule="nonzero"/><path fill="#000000" d="M 172.042969 27.234375 C 174.675781 26.875 177.316406 26.585938 179.957031 26.367188 L 181.179688 36.445312 C 178.738281 36.84375 176.3125 37.308594 173.898438 37.835938 Z M 172.042969 27.234375 " fill-opacity="1" fill-rule="nonzero"/><path fill="#000000" d="M 209.238281 27.117188 C 211.84375 27.453125 214.4375 27.890625 217.011719 28.378906 L 216.199219 34.710938 C 213.695312 34.546875 211.1875 34.464844 208.6875 34.414062 Z M 209.238281 27.117188 " fill-opacity="1" fill-rule="nonzero"/><path fill="#000000" d="M 244.613281 36.902344 C 245.820312 37.449219 247.023438 38.003906 248.222656 38.566406 L 247.773438 39.800781 C 246.496094 39.496094 245.222656 39.1875 243.957031 38.871094 Z M 244.613281 36.902344 " fill-opacity="1" fill-rule="nonzero"/><path fill="#000000" d="M 75.804688 310.960938 L 72.546875 307.863281 L 73.78125 306.660156 L 76.84375 309.894531 Z M 75.804688 310.960938 " fill-opacity="1" fill-rule="nonzero"/><path fill="#000000" d="M 51.617188 282.925781 C 49.960938 280.496094 48.363281 278.023438 46.832031 275.507812 L 50.046875 273.644531 C 51.429688 276.171875 52.878906 278.664062 54.398438 281.117188 Z M 51.617188 282.925781 " fill-opacity="1" fill-rule="nonzero"/><path fill="#000000" d="M 32.644531 245.988281 C 31.632812 243.207031 30.699219 240.398438 29.835938 237.5625 L 35.152344 236.058594 C 35.871094 238.832031 36.664062 241.585938 37.53125 244.320312 Z M 32.644531 245.988281 " fill-opacity="1" fill-rule="nonzero"/><g clip-path="url(#23885f9b44)"><path fill="#000000" d="M 23.398438 205.269531 C 23.101562 202.3125 22.882812 199.34375 22.742188 196.371094 L 29.949219 196.175781 C 29.96875 199.027344 30.058594 201.878906 30.226562 204.726562 Z M 23.398438 205.269531 " fill-opacity="1" fill-rule="nonzero"/></g><path fill="#000000" d="M 24.421875 163.332031 C 24.863281 160.378906 25.382812 157.433594 25.980469 154.503906 L 34.519531 156.40625 C 33.851562 159.164062 33.253906 161.941406 32.730469 164.730469 Z M 24.421875 163.332031 " fill-opacity="1" fill-rule="nonzero"/><path fill="#000000" d="M 35.789062 122.746094 C 36.960938 119.980469 38.207031 117.25 39.523438 114.550781 L 48.617188 119.164062 C 47.304688 121.664062 46.054688 124.199219 44.875 126.765625 Z M 35.789062 122.746094 " fill-opacity="1" fill-rule="nonzero"/><path fill="#000000" d="M 57 86.144531 C 58.820312 83.746094 60.703125 81.394531 62.644531 79.09375 L 71.265625 86.613281 C 69.386719 88.707031 67.5625 90.847656 65.796875 93.039062 Z M 57 86.144531 " fill-opacity="1" fill-rule="nonzero"/><path fill="#000000" d="M 86.59375 55.730469 C 88.949219 53.835938 91.339844 51.988281 93.785156 50.210938 L 101.105469 60.753906 C 98.773438 62.300781 96.476562 63.90625 94.234375 65.585938 Z M 86.59375 55.730469 " fill-opacity="1" fill-rule="nonzero"/><path fill="#000000" d="M 122.75 33.140625 C 125.507812 31.863281 128.296875 30.660156 131.121094 29.527344 L 136.289062 43.324219 C 133.664062 44.238281 131.0625 45.226562 128.484375 46.28125 Z M 122.75 33.140625 " fill-opacity="1" fill-rule="nonzero"/><g clip-path="url(#e72dcd6fad)"><path fill="#000000" d="M 163.636719 20.433594 C 165.140625 20.1875 166.648438 19.960938 168.15625 19.753906 C 169.664062 19.550781 171.175781 19.355469 172.691406 19.199219 L 174.382812 34.640625 C 173.007812 34.804688 171.628906 34.964844 170.257812 35.15625 C 168.882812 35.34375 167.511719 35.550781 166.144531 35.773438 Z M 163.636719 20.433594 " fill-opacity="1" fill-rule="nonzero"/></g><g clip-path="url(#391059ec23)"><path fill="#000000" d="M 206.421875 19.199219 C 209.441406 19.519531 212.453125 19.917969 215.453125 20.394531 L 213.519531 34.527344 C 210.753906 34.210938 207.976562 33.972656 205.199219 33.804688 Z M 206.421875 19.199219 " fill-opacity="1" fill-rule="nonzero"/></g><path fill="#000000" d="M 247.875 29.175781 C 250.6875 30.273438 253.472656 31.441406 256.21875 32.683594 L 251.886719 43.371094 C 249.242188 42.421875 246.574219 41.542969 243.886719 40.738281 Z M 247.875 29.175781 " fill-opacity="1" fill-rule="nonzero"/><path fill="#000000" d="M 284.90625 49.578125 C 287.3125 51.351562 289.648438 53.214844 291.9375 55.121094 L 287.644531 60.964844 C 285.246094 59.421875 282.800781 57.957031 280.347656 56.53125 Z M 284.90625 49.578125 " fill-opacity="1" fill-rule="nonzero"/><path fill="#000000" d="M 314.679688 78.816406 C 315.578125 80.03125 316.472656 81.246094 317.351562 82.464844 L 316.226562 83.441406 C 315.125 82.4375 314.03125 81.425781 312.945312 80.414062 Z M 314.679688 78.816406 " fill-opacity="1" fill-rule="nonzero"/><path fill="#000000" d="M 125.917969 151.230469 L 128.304688 149.308594 L 129.007812 150.261719 L 126.542969 152.03125 Z M 125.917969 151.230469 " fill-opacity="1" fill-rule="nonzero"/><path fill="#000000" d="M 147.585938 137.148438 C 149.433594 136.230469 151.304688 135.367188 153.199219 134.550781 L 154.183594 137.007812 C 152.296875 137.714844 150.429688 138.472656 148.582031 139.28125 Z M 147.585938 137.148438 " fill-opacity="1" fill-rule="nonzero"/><path fill="#000000" d="M 175.082031 127.6875 C 177.113281 127.273438 179.15625 126.914062 181.207031 126.609375 L 181.703125 130.546875 C 179.710938 130.753906 177.722656 131.015625 175.742188 131.328125 Z M 175.082031 127.6875 " fill-opacity="1" fill-rule="nonzero"/><path fill="#000000" d="M 204.238281 125.539062 C 206.316406 125.648438 208.394531 125.816406 210.46875 126.042969 L 209.808594 131.203125 C 207.835938 130.914062 205.859375 130.671875 203.871094 130.476562 Z M 204.238281 125.539062 " fill-opacity="1" fill-rule="nonzero"/><path fill="#000000" d="M 233.140625 130.859375 C 235.132812 131.5 237.109375 132.191406 239.070312 132.941406 L 236.707031 138.800781 C 234.886719 138.023438 233.042969 137.296875 231.179688 136.617188 Z M 233.140625 130.859375 " fill-opacity="1" fill-rule="nonzero"/><path fill="#000000" d="M 259.855469 143.441406 C 261.625 144.578125 263.367188 145.761719 265.074219 146.992188 L 260.714844 152.863281 C 259.152344 151.660156 257.554688 150.496094 255.929688 149.378906 Z M 259.855469 143.441406 " fill-opacity="1" fill-rule="nonzero"/><path fill="#000000" d="M 282.585938 162.492188 C 284.019531 164.042969 285.414062 165.632812 286.765625 167.257812 L 280.359375 172.421875 C 279.15625 170.867188 277.90625 169.347656 276.617188 167.863281 Z M 282.585938 162.492188 " fill-opacity="1" fill-rule="nonzero"/><path fill="#000000" d="M 299.996094 186.679688 C 301.019531 188.542969 301.988281 190.433594 302.910156 192.351562 L 294.242188 196.261719 C 293.488281 194.460938 292.683594 192.675781 291.832031 190.914062 Z M 299.996094 186.679688 " fill-opacity="1" fill-rule="nonzero"/><path fill="#000000" d="M 310.835938 214.625 C 311.082031 215.664062 311.3125 216.707031 311.53125 217.753906 C 311.746094 218.800781 311.941406 219.847656 312.125 220.902344 L 301.722656 222.65625 C 301.566406 221.695312 301.398438 220.738281 301.21875 219.785156 C 301.042969 218.828125 300.855469 217.875 300.652344 216.921875 Z M 310.835938 214.625 " fill-opacity="1" fill-rule="nonzero"/><path fill="#000000" d="M 313.554688 244.535156 L 313.457031 246.132812 C 313.429688 246.664062 313.386719 247.195312 313.339844 247.726562 L 313.046875 250.90625 L 303.074219 250.042969 L 303.203125 247.117188 C 303.230469 246.632812 303.253906 246.144531 303.261719 245.65625 L 303.296875 244.195312 Z M 313.554688 244.535156 " fill-opacity="1" fill-rule="nonzero"/><path fill="#000000" d="M 308.035156 273.949219 C 307.699219 274.953125 307.351562 275.957031 306.988281 276.953125 C 306.621094 277.945312 306.242188 278.933594 305.847656 279.914062 L 298.121094 277.167969 C 298.410156 276.226562 298.6875 275.28125 298.949219 274.335938 C 299.21875 273.390625 299.472656 272.441406 299.714844 271.492188 Z M 308.035156 273.949219 " fill-opacity="1" fill-rule="nonzero"/><path fill="#000000" d="M 294.847656 300.535156 C 294.253906 301.398438 293.652344 302.253906 293.035156 303.101562 C 292.421875 303.953125 291.789062 304.78125 291.148438 305.609375 L 286.859375 302.683594 C 287.363281 301.824219 287.851562 300.953125 288.339844 300.085938 C 288.824219 299.214844 289.300781 298.339844 289.761719 297.457031 Z M 294.847656 300.535156 " fill-opacity="1" fill-rule="nonzero"/><path fill="#000000" d="M 275.039062 322.089844 C 274.226562 322.726562 273.414062 323.355469 272.601562 323.976562 L 271.914062 323.230469 C 272.570312 322.453125 273.230469 321.683594 273.894531 320.917969 Z M 275.039062 322.089844 " fill-opacity="1" fill-rule="nonzero"/><path fill="#000000" d="M 166.359375 100.664062 L 169.789062 100.070312 L 169.964844 101.40625 L 166.539062 101.804688 Z M 166.359375 100.664062 " fill-opacity="1" fill-rule="nonzero"/><path fill="#000000" d="M 195.644531 98.621094 C 197.984375 98.730469 200.320312 98.902344 202.652344 99.140625 L 202.28125 102.121094 C 200.015625 101.785156 197.742188 101.507812 195.457031 101.289062 Z M 195.644531 98.621094 " fill-opacity="1" fill-rule="nonzero"/><path fill="#000000" d="M 228.179688 104.386719 C 230.421875 105.09375 232.652344 105.863281 234.859375 106.695312 L 233.183594 110.882812 C 231.089844 109.988281 228.972656 109.148438 226.832031 108.371094 Z M 228.179688 104.386719 " fill-opacity="1" fill-rule="nonzero"/><path fill="#000000" d="M 258.335938 118.335938 C 260.34375 119.59375 262.316406 120.90625 264.25 122.273438 L 260.753906 127.039062 C 258.957031 125.660156 257.125 124.328125 255.257812 123.042969 Z M 258.335938 118.335938 " fill-opacity="1" fill-rule="nonzero"/><path fill="#000000" d="M 284.132812 139.566406 C 285.765625 141.300781 287.347656 143.082031 288.882812 144.90625 L 283.308594 149.429688 C 281.929688 147.652344 280.496094 145.910156 279.015625 144.207031 Z M 284.132812 139.566406 " fill-opacity="1" fill-rule="nonzero"/><path fill="#000000" d="M 303.765625 166.8125 C 304.898438 168.914062 305.976562 171.050781 307 173.21875 L 299.4375 176.648438 C 298.542969 174.589844 297.597656 172.554688 296.59375 170.542969 Z M 303.765625 166.8125 " fill-opacity="1" fill-rule="nonzero"/><path fill="#000000" d="M 315.875 198.285156 C 316.449219 200.613281 316.957031 202.964844 317.40625 205.324219 L 308.199219 206.921875 C 307.855469 204.714844 307.453125 202.515625 306.988281 200.328125 Z M 315.875 198.285156 " fill-opacity="1" fill-rule="nonzero"/><path fill="#000000" d="M 319.871094 231.925781 C 319.859375 234.339844 319.785156 236.757812 319.644531 239.171875 L 308.878906 238.277344 C 309.121094 236.070312 309.300781 233.851562 309.425781 231.632812 Z M 319.871094 231.925781 " fill-opacity="1" fill-rule="nonzero"/><path fill="#000000" d="M 315.265625 265.679688 C 314.9375 266.847656 314.597656 268.011719 314.234375 269.171875 C 313.875 270.332031 313.492188 271.484375 313.09375 272.628906 L 301.792969 268.636719 C 302.164062 267.597656 302.523438 266.550781 302.871094 265.503906 C 303.222656 264.457031 303.558594 263.402344 303.882812 262.347656 Z M 315.265625 265.679688 " fill-opacity="1" fill-rule="nonzero"/><path fill="#000000" d="M 301.511719 296.90625 L 300.539062 298.441406 C 300.21875 298.957031 299.882812 299.460938 299.542969 299.960938 L 297.5 302.960938 L 288.066406 296.601562 L 289.804688 293.765625 C 290.101562 293.296875 290.390625 292.824219 290.667969 292.34375 L 291.507812 290.910156 Z M 301.511719 296.90625 " fill-opacity="1" fill-rule="nonzero"/><path fill="#000000" d="M 279.84375 323.09375 C 278.957031 323.910156 278.058594 324.714844 277.152344 325.503906 C 276.242188 326.289062 275.316406 327.0625 274.386719 327.820312 L 268.222656 320.828125 C 269.027344 320.050781 269.820312 319.265625 270.601562 318.46875 C 271.386719 317.675781 272.164062 316.875 272.925781 316.0625 Z M 279.84375 323.09375 " fill-opacity="1" fill-rule="nonzero"/><path fill="#000000" d="M 252.109375 342.246094 C 251.046875 342.777344 249.972656 343.296875 248.894531 343.796875 C 247.820312 344.304688 246.730469 344.78125 245.640625 345.246094 L 242.984375 339.976562 C 243.960938 339.398438 244.925781 338.804688 245.890625 338.210938 C 246.851562 337.613281 247.804688 337 248.746094 336.378906 Z M 252.109375 342.246094 " fill-opacity="1" fill-rule="nonzero"/><path fill="#000000" d="M 220.5625 352.742188 C 219.40625 352.925781 218.253906 353.101562 217.101562 353.273438 L 216.828125 352.148438 C 217.910156 351.742188 218.992188 351.339844 220.070312 350.941406 Z M 220.5625 352.742188 " fill-opacity="1" fill-rule="nonzero"/><path fill="#000000" d="M 234.375 72.71875 L 238.109375 74.019531 L 237.550781 75.445312 L 233.929688 73.953125 Z M 234.375 72.71875 " fill-opacity="1" fill-rule="nonzero"/><path fill="#000000" d="M 264.605469 86.84375 C 266.871094 88.242188 269.097656 89.703125 271.285156 91.222656 L 269.273438 93.980469 C 267.210938 92.394531 265.101562 90.867188 262.953125 89.390625 Z M 264.605469 86.84375 " fill-opacity="1" fill-rule="nonzero"/><path fill="#000000" d="M 293.769531 110.519531 C 295.609375 112.460938 297.402344 114.457031 299.136719 116.5 L 295.171875 119.734375 C 293.582031 117.691406 291.9375 115.691406 290.238281 113.734375 Z M 293.769531 110.519531 " fill-opacity="1" fill-rule="nonzero"/><path fill="#000000" d="M 316.066406 141.019531 C 317.371094 143.375 318.609375 145.769531 319.777344 148.195312 L 313.683594 151.003906 C 312.652344 148.644531 311.5625 146.308594 310.417969 144 Z M 316.066406 141.019531 " fill-opacity="1" fill-rule="nonzero"/><path fill="#000000" d="M 330.027344 176.351562 C 330.691406 178.976562 331.285156 181.617188 331.808594 184.277344 L 323.78125 185.699219 C 323.386719 183.167969 322.921875 180.648438 322.386719 178.140625 Z M 330.027344 176.351562 " fill-opacity="1" fill-rule="nonzero"/><path fill="#000000" d="M 334.546875 214.257812 C 334.515625 216.976562 334.414062 219.695312 334.234375 222.410156 L 324.832031 221.648438 C 325.078125 219.109375 325.257812 216.5625 325.367188 214.015625 Z M 334.546875 214.257812 " fill-opacity="1" fill-rule="nonzero"/><path fill="#000000" d="M 329.269531 252.21875 C 328.554688 254.851562 327.769531 257.46875 326.914062 260.0625 L 316.886719 256.570312 C 317.757812 254.1875 318.566406 251.777344 319.308594 249.347656 Z M 329.269531 252.21875 " fill-opacity="1" fill-rule="nonzero"/><path fill="#000000" d="M 314.726562 287.859375 C 313.390625 290.253906 311.988281 292.613281 310.519531 294.9375 L 300.308594 288.109375 C 301.765625 286.046875 303.164062 283.945312 304.507812 281.804688 Z M 314.726562 287.859375 " fill-opacity="1" fill-rule="nonzero"/><path fill="#000000" d="M 291.582031 318.867188 C 290.613281 319.847656 289.628906 320.816406 288.636719 321.769531 C 287.640625 322.722656 286.625 323.65625 285.597656 324.578125 L 276.5625 314.371094 C 277.503906 313.546875 278.433594 312.703125 279.359375 311.855469 C 280.285156 311.007812 281.199219 310.148438 282.101562 309.273438 Z M 291.582031 318.867188 " fill-opacity="1" fill-rule="nonzero"/><path fill="#000000" d="M 260.730469 342.316406 L 258.917969 343.304688 C 258.316406 343.640625 257.707031 343.953125 257.09375 344.265625 L 253.410156 346.121094 L 247.535156 334.59375 L 250.824219 332.738281 C 251.375 332.433594 251.921875 332.125 252.460938 331.800781 L 254.082031 330.835938 Z M 260.730469 342.316406 " fill-opacity="1" fill-rule="nonzero"/><path fill="#000000" d="M 224.785156 356.390625 C 223.453125 356.710938 222.121094 357.015625 220.785156 357.300781 C 219.445312 357.578125 218.105469 357.835938 216.761719 358.078125 L 214.480469 347.726562 C 215.707031 347.398438 216.929688 347.054688 218.144531 346.695312 C 219.359375 346.339844 220.574219 345.972656 221.777344 345.585938 Z M 224.785156 356.390625 " fill-opacity="1" fill-rule="nonzero"/><path fill="#000000" d="M 186.683594 360.125 C 185.332031 360.066406 183.984375 359.992188 182.636719 359.894531 C 181.289062 359.804688 179.945312 359.675781 178.601562 359.539062 L 178.863281 352.835938 C 180.152344 352.800781 181.4375 352.742188 182.722656 352.683594 C 184.007812 352.617188 185.289062 352.539062 186.566406 352.441406 Z M 186.683594 360.125 " fill-opacity="1" fill-rule="nonzero"/><path fill="#000000" d="M 149.550781 353.152344 C 148.304688 352.699219 147.058594 352.238281 145.824219 351.773438 L 146.167969 350.507812 C 147.46875 350.695312 148.761719 350.894531 150.054688 351.09375 Z M 149.550781 353.152344 " fill-opacity="1" fill-rule="nonzero"/><path fill="#000000" d="M 317.351562 82.464844 L 320.347656 85.816406 L 319.007812 86.921875 L 316.226562 83.441406 Z M 317.351562 82.464844 " fill-opacity="1" fill-rule="nonzero"/><path fill="#000000" d="M 339.625 113.179688 C 341.109375 115.816406 342.519531 118.496094 343.855469 121.214844 L 340.339844 122.847656 C 339.160156 120.132812 337.90625 117.449219 336.582031 114.800781 Z M 339.625 113.179688 " fill-opacity="1" fill-rule="nonzero"/><path fill="#000000" d="M 355.585938 152.796875 C 356.347656 155.742188 357.027344 158.710938 357.628906 161.699219 L 351.90625 162.730469 C 351.453125 159.820312 350.917969 156.925781 350.304688 154.046875 Z M 355.585938 152.796875 " fill-opacity="1" fill-rule="nonzero"/><g clip-path="url(#7da0938534)"><path fill="#000000" d="M 360.964844 195.410156 C 360.964844 198.472656 360.878906 201.53125 360.703125 204.589844 L 353.101562 204.019531 C 353.378906 201.105469 353.578125 198.183594 353.710938 195.253906 Z M 360.964844 195.410156 " fill-opacity="1" fill-rule="nonzero"/></g><path fill="#000000" d="M 355.398438 238.226562 C 354.617188 241.203125 353.753906 244.15625 352.808594 247.085938 L 344.046875 244.074219 C 345.046875 241.339844 345.972656 238.578125 346.824219 235.792969 Z M 355.398438 238.226562 " fill-opacity="1" fill-rule="nonzero"/><path fill="#000000" d="M 339.035156 278.394531 C 337.511719 281.082031 335.910156 283.726562 334.242188 286.328125 L 325.3125 280.382812 C 326.957031 277.996094 328.535156 275.5625 330.046875 273.089844 Z M 339.035156 278.394531 " fill-opacity="1" fill-rule="nonzero"/><path fill="#000000" d="M 312.902344 313.210938 C 310.742188 315.4375 308.527344 317.601562 306.25 319.707031 L 298.199219 310.707031 C 300.378906 308.820312 302.511719 306.871094 304.585938 304.863281 Z M 312.902344 313.210938 " fill-opacity="1" fill-rule="nonzero"/><path fill="#000000" d="M 278.839844 340.617188 C 276.195312 342.257812 273.5 343.828125 270.765625 345.324219 L 264.375 332.910156 C 266.953125 331.664062 269.503906 330.34375 272.015625 328.957031 Z M 278.839844 340.617188 " fill-opacity="1" fill-rule="nonzero"/><path fill="#000000" d="M 238.777344 358.664062 C 237.273438 359.105469 235.765625 359.523438 234.25 359.925781 C 232.738281 360.320312 231.214844 360.6875 229.6875 361.039062 L 226.320312 345.910156 C 227.714844 345.609375 229.101562 345.285156 230.488281 344.953125 C 231.875 344.621094 233.253906 344.269531 234.632812 343.898438 Z M 238.777344 358.664062 " fill-opacity="1" fill-rule="nonzero"/><g clip-path="url(#3b3b5b70fb)"><path fill="#000000" d="M 195.210938 364.949219 L 192.867188 364.933594 C 192.085938 364.933594 191.304688 364.910156 190.527344 364.882812 L 185.847656 364.695312 L 186.34375 350 L 190.636719 349.964844 C 191.351562 349.96875 192.066406 349.964844 192.78125 349.9375 L 194.921875 349.875 Z M 195.210938 364.949219 " fill-opacity="1" fill-rule="nonzero"/></g><path fill="#000000" d="M 151.742188 359.109375 C 150.242188 358.695312 148.75 358.261719 147.265625 357.808594 C 145.785156 357.34375 144.308594 356.863281 142.839844 356.359375 L 146.269531 344.816406 C 147.667969 345.164062 149.070312 345.496094 150.476562 345.808594 C 151.882812 346.128906 153.289062 346.433594 154.699219 346.714844 Z M 151.742188 359.109375 " fill-opacity="1" fill-rule="nonzero"/><path fill="#000000" d="M 111.820312 341.804688 C 110.507812 341 109.210938 340.179688 107.921875 339.34375 C 106.632812 338.507812 105.367188 337.640625 104.109375 336.761719 L 108.058594 330.246094 C 109.359375 330.921875 110.667969 331.570312 111.976562 332.222656 C 113.289062 332.867188 114.609375 333.492188 115.933594 334.101562 Z M 111.820312 341.804688 " fill-opacity="1" fill-rule="nonzero"/><path fill="#000000" d="M 78.75 314.390625 C 77.761719 313.25 76.777344 312.109375 75.804688 310.960938 L 76.84375 309.894531 C 78.03125 310.800781 79.210938 311.710938 80.382812 312.625 Z M 78.75 314.390625 " fill-opacity="1" fill-rule="nonzero"/></svg>