<svg xmlns="http://www.w3.org/2000/svg" xmlns:xlink="http://www.w3.org/1999/xlink" width="500" zoomAndPan="magnify" viewBox="0 0 375 374.999991" height="500" preserveAspectRatio="xMidYMid meet" version="1.2"><defs><clipPath id="9c60560f80"><path d="M 75 71.910156 L 300 71.910156 L 300 214.410156 L 75 214.410156 Z M 75 71.910156 "/></clipPath><clipPath id="33ef15680e"><path d="M 124 4 L 135.878906 4 L 135.878906 18 L 124 18 Z M 124 4 "/></clipPath><clipPath id="6b61b38075"><rect x="0" width="136" y="0" height="26"/></clipPath></defs><g id="16a774a394"><g clip-rule="nonzero" clip-path="url(#9c60560f80)"><path style=" stroke:none;fill-rule:nonzero;fill:#000000;fill-opacity:1;" d="M 276.878906 134.195312 L 298.628906 145.871094 L 299.96875 143.382812 L 276.878906 130.996094 L 276.878906 120.558594 L 274.046875 120.558594 L 274.046875 129.472656 L 225.867188 103.601562 L 225.867188 71.910156 L 223.035156 71.910156 L 223.035156 102.078125 L 190.496094 84.609375 L 199.851562 79.59375 L 198.511719 77.101562 L 187.5 83.011719 L 176.488281 77.101562 L 175.148438 79.59375 L 184.503906 84.609375 L 151.964844 102.085938 L 151.964844 71.917969 L 149.132812 71.917969 L 149.132812 103.609375 L 100.953125 129.472656 L 100.953125 120.558594 L 98.121094 120.558594 L 98.121094 130.996094 L 75.03125 143.375 L 76.371094 145.863281 L 98.121094 134.1875 L 98.121094 198.503906 L 75.707031 198.503906 L 75.707031 201.335938 L 98.132812 201.335938 L 98.132812 214.222656 L 100.960938 214.222656 L 100.960938 201.335938 L 151.964844 201.335938 L 151.964844 105.289062 L 187.5 86.222656 L 223.035156 105.289062 L 223.035156 201.335938 L 274.046875 201.335938 L 274.046875 214.222656 L 276.878906 214.222656 L 276.878906 201.335938 L 299.304688 201.335938 L 299.304688 198.503906 L 276.878906 198.503906 Z M 149.132812 198.503906 L 100.953125 198.503906 L 100.953125 132.671875 L 149.132812 106.8125 Z M 225.867188 198.503906 L 225.867188 106.8125 L 274.046875 132.671875 L 274.046875 198.503906 Z M 225.867188 198.503906 "/></g><g style="fill:#000000;fill-opacity:1;"><g transform="translate(139.377424, 239.009135)"><path style="stroke:none" d="M 4.5625 -1.359375 L 14.34375 -1.359375 L 14.34375 0 L 2.90625 0 L 2.90625 -19.90625 L 4.5625 -19.90625 Z M 4.5625 -1.359375 "/></g></g><g style="fill:#000000;fill-opacity:1;"><g transform="translate(155.1083, 239.009135)"><path style="stroke:none" d="M 12.5 0.421875 C 11.019531 0.421875 9.644531 0.164062 8.375 -0.34375 C 7.113281 -0.863281 6.003906 -1.582031 5.046875 -2.5 C 4.085938 -3.414062 3.34375 -4.507812 2.8125 -5.78125 C 2.28125 -7.0625 2.015625 -8.453125 2.015625 -9.953125 C 2.015625 -11.390625 2.273438 -12.734375 2.796875 -13.984375 C 3.316406 -15.242188 4.050781 -16.34375 5 -17.28125 C 5.945312 -18.21875 7.054688 -18.953125 8.328125 -19.484375 C 9.609375 -20.023438 11 -20.296875 12.5 -20.296875 C 14 -20.296875 15.382812 -20.023438 16.65625 -19.484375 C 17.9375 -18.953125 19.050781 -18.21875 20 -17.28125 C 20.945312 -16.34375 21.679688 -15.242188 22.203125 -13.984375 C 22.722656 -12.734375 22.984375 -11.390625 22.984375 -9.953125 C 22.984375 -8.453125 22.71875 -7.0625 22.1875 -5.78125 C 21.65625 -4.507812 20.910156 -3.414062 19.953125 -2.5 C 18.992188 -1.582031 17.878906 -0.863281 16.609375 -0.34375 C 15.347656 0.164062 13.976562 0.421875 12.5 0.421875 Z M 12.5 -1.25 C 14.195312 -1.25 15.710938 -1.628906 17.046875 -2.390625 C 18.378906 -3.148438 19.425781 -4.1875 20.1875 -5.5 C 20.945312 -6.8125 21.328125 -8.296875 21.328125 -9.953125 C 21.328125 -11.585938 20.9375 -13.0625 20.15625 -14.375 C 19.375 -15.695312 18.320312 -16.738281 17 -17.5 C 15.675781 -18.257812 14.175781 -18.640625 12.5 -18.640625 C 10.84375 -18.640625 9.347656 -18.257812 8.015625 -17.5 C 6.679688 -16.738281 5.625 -15.695312 4.84375 -14.375 C 4.0625 -13.0625 3.671875 -11.585938 3.671875 -9.953125 C 3.671875 -8.296875 4.050781 -6.8125 4.8125 -5.5 C 5.570312 -4.1875 6.617188 -3.148438 7.953125 -2.390625 C 9.285156 -1.628906 10.800781 -1.25 12.5 -1.25 Z M 12.5 -1.25 "/></g></g><g style="fill:#000000;fill-opacity:1;"><g transform="translate(180.111796, 239.009135)"><path style="stroke:none" d="M 12.03125 -8.921875 L 12.03125 -10.421875 L 19.234375 -10.421875 L 19.234375 -3.234375 C 18.359375 -2.140625 17.320312 -1.269531 16.125 -0.625 C 14.9375 0.0078125 13.519531 0.328125 11.875 0.328125 C 10.457031 0.328125 9.148438 0.0664062 7.953125 -0.453125 C 6.753906 -0.984375 5.710938 -1.71875 4.828125 -2.65625 C 3.941406 -3.59375 3.25 -4.6875 2.75 -5.9375 C 2.257812 -7.195312 2.015625 -8.546875 2.015625 -9.984375 C 2.015625 -11.421875 2.257812 -12.757812 2.75 -14 C 3.25 -15.25 3.941406 -16.34375 4.828125 -17.28125 C 5.710938 -18.21875 6.757812 -18.953125 7.96875 -19.484375 C 9.175781 -20.023438 10.488281 -20.296875 11.90625 -20.296875 C 13.507812 -20.296875 14.910156 -19.976562 16.109375 -19.34375 C 17.316406 -18.707031 18.359375 -17.847656 19.234375 -16.765625 L 17.921875 -15.765625 C 17.148438 -16.710938 16.273438 -17.425781 15.296875 -17.90625 C 14.316406 -18.394531 13.1875 -18.640625 11.90625 -18.640625 C 10.332031 -18.640625 8.910156 -18.257812 7.640625 -17.5 C 6.378906 -16.738281 5.382812 -15.703125 4.65625 -14.390625 C 3.925781 -13.085938 3.5625 -11.617188 3.5625 -9.984375 C 3.5625 -8.328125 3.921875 -6.84375 4.640625 -5.53125 C 5.359375 -4.226562 6.347656 -3.195312 7.609375 -2.4375 C 8.878906 -1.675781 10.300781 -1.296875 11.875 -1.296875 C 13.101562 -1.296875 14.195312 -1.519531 15.15625 -1.96875 C 16.113281 -2.414062 16.96875 -3.0625 17.71875 -3.90625 L 17.71875 -8.921875 Z M 12.03125 -8.921875 "/></g></g><g style="fill:#000000;fill-opacity:1;"><g transform="translate(201.678792, 239.009135)"><path style="stroke:none" d="M 12.5 0.421875 C 11.019531 0.421875 9.644531 0.164062 8.375 -0.34375 C 7.113281 -0.863281 6.003906 -1.582031 5.046875 -2.5 C 4.085938 -3.414062 3.34375 -4.507812 2.8125 -5.78125 C 2.28125 -7.0625 2.015625 -8.453125 2.015625 -9.953125 C 2.015625 -11.390625 2.273438 -12.734375 2.796875 -13.984375 C 3.316406 -15.242188 4.050781 -16.34375 5 -17.28125 C 5.945312 -18.21875 7.054688 -18.953125 8.328125 -19.484375 C 9.609375 -20.023438 11 -20.296875 12.5 -20.296875 C 14 -20.296875 15.382812 -20.023438 16.65625 -19.484375 C 17.9375 -18.953125 19.050781 -18.21875 20 -17.28125 C 20.945312 -16.34375 21.679688 -15.242188 22.203125 -13.984375 C 22.722656 -12.734375 22.984375 -11.390625 22.984375 -9.953125 C 22.984375 -8.453125 22.71875 -7.0625 22.1875 -5.78125 C 21.65625 -4.507812 20.910156 -3.414062 19.953125 -2.5 C 18.992188 -1.582031 17.878906 -0.863281 16.609375 -0.34375 C 15.347656 0.164062 13.976562 0.421875 12.5 0.421875 Z M 12.5 -1.25 C 14.195312 -1.25 15.710938 -1.628906 17.046875 -2.390625 C 18.378906 -3.148438 19.425781 -4.1875 20.1875 -5.5 C 20.945312 -6.8125 21.328125 -8.296875 21.328125 -9.953125 C 21.328125 -11.585938 20.9375 -13.0625 20.15625 -14.375 C 19.375 -15.695312 18.320312 -16.738281 17 -17.5 C 15.675781 -18.257812 14.175781 -18.640625 12.5 -18.640625 C 10.84375 -18.640625 9.347656 -18.257812 8.015625 -17.5 C 6.679688 -16.738281 5.625 -15.695312 4.84375 -14.375 C 4.0625 -13.0625 3.671875 -11.585938 3.671875 -9.953125 C 3.671875 -8.296875 4.050781 -6.8125 4.8125 -5.5 C 5.570312 -4.1875 6.617188 -3.148438 7.953125 -2.390625 C 9.285156 -1.628906 10.800781 -1.25 12.5 -1.25 Z M 12.5 -1.25 "/></g></g><g style="fill:#000000;fill-opacity:1;"><g transform="translate(226.693828, 239.009135)"><path style="stroke:none" d=""/></g></g><g style="fill:#000000;fill-opacity:1;"><g transform="translate(231.146953, 239.009135)"><path style="stroke:none" d=""/></g></g><g transform="matrix(1,0,0,1,119,244)"><g clip-path="url(#6b61b38075)"><g style="fill:#000000;fill-opacity:1;"><g transform="translate(1.303698, 17.350726)"><path style="stroke:none" d="M 11.359375 -12.515625 L 11.359375 -11.65625 L 6.65625 -11.65625 L 6.65625 0 L 5.625 0 L 5.625 -11.65625 L 0.9375 -11.65625 L 0.9375 -12.515625 Z M 11.359375 -12.515625 "/></g></g><g style="fill:#000000;fill-opacity:1;"><g transform="translate(13.578659, 17.350726)"><path style="stroke:none" d="M 4.734375 0 L 0.84375 -12.515625 L 1.875 -12.515625 L 5.140625 -1.546875 L 8.21875 -12.515625 L 9.40625 -12.515625 L 12.3125 -1.546875 L 15.734375 -12.515625 L 16.78125 -12.515625 L 12.734375 0 L 11.84375 0 L 8.8125 -11.125 L 5.609375 0 Z M 4.734375 0 "/></g></g><g style="fill:#000000;fill-opacity:1;"><g transform="translate(31.199467, 17.350726)"><path style="stroke:none" d="M 7.859375 0.265625 C 6.929688 0.265625 6.066406 0.101562 5.265625 -0.21875 C 4.472656 -0.539062 3.773438 -0.988281 3.171875 -1.5625 C 2.566406 -2.144531 2.097656 -2.835938 1.765625 -3.640625 C 1.429688 -4.441406 1.265625 -5.316406 1.265625 -6.265625 C 1.265625 -7.171875 1.425781 -8.015625 1.75 -8.796875 C 2.082031 -9.585938 2.546875 -10.273438 3.140625 -10.859375 C 3.742188 -11.453125 4.441406 -11.914062 5.234375 -12.25 C 6.035156 -12.59375 6.910156 -12.765625 7.859375 -12.765625 C 8.804688 -12.765625 9.675781 -12.59375 10.46875 -12.25 C 11.269531 -11.914062 11.96875 -11.453125 12.5625 -10.859375 C 13.164062 -10.273438 13.628906 -9.585938 13.953125 -8.796875 C 14.285156 -8.015625 14.453125 -7.171875 14.453125 -6.265625 C 14.453125 -5.316406 14.285156 -4.441406 13.953125 -3.640625 C 13.617188 -2.835938 13.148438 -2.144531 12.546875 -1.5625 C 11.941406 -0.988281 11.238281 -0.539062 10.4375 -0.21875 C 9.644531 0.101562 8.785156 0.265625 7.859375 0.265625 Z M 7.859375 -0.78125 C 8.929688 -0.78125 9.882812 -1.019531 10.71875 -1.5 C 11.550781 -1.976562 12.207031 -2.628906 12.6875 -3.453125 C 13.164062 -4.273438 13.40625 -5.210938 13.40625 -6.265625 C 13.40625 -7.285156 13.160156 -8.207031 12.671875 -9.03125 C 12.179688 -9.863281 11.519531 -10.519531 10.6875 -11 C 9.851562 -11.476562 8.910156 -11.71875 7.859375 -11.71875 C 6.816406 -11.71875 5.875 -11.476562 5.03125 -11 C 4.195312 -10.519531 3.535156 -9.863281 3.046875 -9.03125 C 2.554688 -8.207031 2.3125 -7.285156 2.3125 -6.265625 C 2.3125 -5.210938 2.550781 -4.273438 3.03125 -3.453125 C 3.507812 -2.628906 4.164062 -1.976562 5 -1.5 C 5.84375 -1.019531 6.796875 -0.78125 7.859375 -0.78125 Z M 7.859375 -0.78125 "/></g></g><g style="fill:#000000;fill-opacity:1;"><g transform="translate(46.920351, 17.350726)"><path style="stroke:none" d="M 4.359375 0.234375 C 3.484375 0.234375 2.734375 0.0195312 2.109375 -0.40625 C 1.492188 -0.832031 0.988281 -1.367188 0.59375 -2.015625 L 1.484375 -2.546875 C 1.859375 -1.941406 2.28125 -1.5 2.75 -1.21875 C 3.226562 -0.9375 3.765625 -0.796875 4.359375 -0.796875 C 5.191406 -0.796875 5.828125 -1.082031 6.265625 -1.65625 C 6.703125 -2.238281 6.921875 -3.066406 6.921875 -4.140625 L 6.921875 -12.515625 L 7.96875 -12.515625 L 7.96875 -4.140625 C 7.96875 -2.742188 7.640625 -1.664062 6.984375 -0.90625 C 6.335938 -0.144531 5.460938 0.234375 4.359375 0.234375 Z M 4.359375 0.234375 "/></g></g><g style="fill:#000000;fill-opacity:1;"><g transform="translate(56.51307, 17.350726)"><path style="stroke:none" d="M 9.890625 -11.640625 L 2.875 -11.640625 L 2.875 -6.703125 L 9.890625 -6.703125 L 9.890625 -5.828125 L 2.875 -5.828125 L 2.875 -0.875 L 9.890625 -0.875 L 9.890625 0 L 1.828125 0 L 1.828125 -12.515625 L 9.890625 -12.515625 Z M 9.890625 -11.640625 "/></g></g><g style="fill:#000000;fill-opacity:1;"><g transform="translate(67.502787, 17.350726)"><path style="stroke:none" d="M 4.359375 0.234375 C 3.484375 0.234375 2.734375 0.0195312 2.109375 -0.40625 C 1.492188 -0.832031 0.988281 -1.367188 0.59375 -2.015625 L 1.484375 -2.546875 C 1.859375 -1.941406 2.28125 -1.5 2.75 -1.21875 C 3.226562 -0.9375 3.765625 -0.796875 4.359375 -0.796875 C 5.191406 -0.796875 5.828125 -1.082031 6.265625 -1.65625 C 6.703125 -2.238281 6.921875 -3.066406 6.921875 -4.140625 L 6.921875 -12.515625 L 7.96875 -12.515625 L 7.96875 -4.140625 C 7.96875 -2.742188 7.640625 -1.664062 6.984375 -0.90625 C 6.335938 -0.144531 5.460938 0.234375 4.359375 0.234375 Z M 4.359375 0.234375 "/></g></g><g style="fill:#000000;fill-opacity:1;"><g transform="translate(77.095506, 17.350726)"><path style="stroke:none" d=""/></g></g><g style="fill:#000000;fill-opacity:1;"><g transform="translate(79.889503, 17.350726)"><path style="stroke:none" d="M 9.890625 -11.640625 L 2.875 -11.640625 L 2.875 -6.703125 L 9.890625 -6.703125 L 9.890625 -5.828125 L 2.875 -5.828125 L 2.875 0 L 1.828125 0 L 1.828125 -12.515625 L 9.890625 -12.515625 Z M 9.890625 -11.640625 "/></g></g><g style="fill:#000000;fill-opacity:1;"><g transform="translate(90.786089, 17.350726)"><path style="stroke:none" d="M 1.953125 0 L 1.953125 -12.515625 L 2.984375 -12.515625 L 2.984375 0 Z M 1.953125 0 "/></g></g><g style="fill:#000000;fill-opacity:1;"><g transform="translate(95.722149, 17.350726)"><path style="stroke:none" d="M 11.15625 0 L 10.03125 0 L 7.0625 -5.015625 C 6.789062 -4.972656 6.5 -4.953125 6.1875 -4.953125 L 2.875 -4.953125 L 2.875 0 L 1.828125 0 L 1.828125 -12.515625 L 6.1875 -12.515625 C 7.019531 -12.515625 7.765625 -12.367188 8.421875 -12.078125 C 9.085938 -11.796875 9.617188 -11.375 10.015625 -10.8125 C 10.410156 -10.25 10.609375 -9.554688 10.609375 -8.734375 C 10.609375 -7.835938 10.375 -7.09375 9.90625 -6.5 C 9.445312 -5.914062 8.832031 -5.5 8.0625 -5.25 Z M 2.875 -5.984375 L 6.1875 -5.984375 C 7.175781 -5.984375 7.988281 -6.210938 8.625 -6.671875 C 9.269531 -7.140625 9.59375 -7.828125 9.59375 -8.734375 C 9.59375 -9.640625 9.269531 -10.320312 8.625 -10.78125 C 7.988281 -11.238281 7.175781 -11.46875 6.1875 -11.46875 L 2.875 -11.46875 Z M 2.875 -5.984375 "/></g></g><g style="fill:#000000;fill-opacity:1;"><g transform="translate(107.699078, 17.350726)"><path style="stroke:none" d="M 1.828125 0 L 1.828125 -12.515625 L 3.203125 -12.515625 L 8.25 -1.1875 L 13.296875 -12.515625 L 14.671875 -12.515625 L 14.671875 0 L 13.640625 0 L 13.640625 -10.796875 L 8.765625 0 L 7.703125 0 L 2.875 -10.796875 L 2.875 0 Z M 1.828125 0 "/></g></g><g clip-rule="nonzero" clip-path="url(#33ef15680e)"><g style="fill:#000000;fill-opacity:1;"><g transform="translate(124.202281, 17.350726)"><path style="stroke:none" d="M 9.921875 -12.515625 L 10.96875 -12.515625 L 6.265625 -4.390625 L 6.265625 0 L 5.21875 0 L 5.21875 -4.390625 L 0.5 -12.515625 L 1.546875 -12.515625 L 5.734375 -5.265625 Z M 9.921875 -12.515625 "/></g></g></g></g></g></g></svg>