<svg xmlns="http://www.w3.org/2000/svg" xmlns:xlink="http://www.w3.org/1999/xlink" width="512" zoomAndPan="magnify" viewBox="0 0 384 383.999986" height="512" preserveAspectRatio="xMidYMid meet" version="1.0"><defs><g/><clipPath id="22b1b39f13"><path d="M 27 69 L 370.828125 69 L 370.828125 371 L 27 371 Z M 27 69 " clip-rule="nonzero"/></clipPath><clipPath id="1177966f3d"><rect x="0" width="191" y="0" height="84"/></clipPath></defs><g clip-path="url(#22b1b39f13)"><path fill="#000000" d="M 326.058594 69.488281 L 327.820312 71.253906 C 330.292969 73.722656 330 78.3125 327.117188 82.375 L 319.707031 92.796875 C 319.050781 93.722656 318.464844 94.691406 317.945312 95.699219 C 317.429688 96.710938 316.984375 97.75 316.617188 98.824219 C 316.246094 99.898438 315.957031 100.992188 315.746094 102.105469 C 315.535156 103.21875 315.402344 104.34375 315.351562 105.476562 C 315.300781 106.613281 315.328125 107.742188 315.441406 108.871094 C 315.550781 110 315.742188 111.117188 316.011719 112.21875 C 316.285156 113.320312 316.632812 114.398438 317.058594 115.449219 C 317.480469 116.503906 317.980469 117.519531 318.550781 118.5 L 318.703125 118.761719 C 319.269531 119.746094 319.898438 120.683594 320.597656 121.578125 C 321.296875 122.472656 322.054688 123.3125 322.875 124.097656 C 323.695312 124.882812 324.566406 125.605469 325.488281 126.265625 C 326.410156 126.925781 327.375 127.515625 328.382812 128.039062 C 329.390625 128.5625 330.429688 129.011719 331.5 129.386719 C 332.570312 129.757812 333.664062 130.054688 334.777344 130.273438 C 335.890625 130.488281 337.011719 130.628906 338.144531 130.683594 C 339.28125 130.742188 340.410156 130.71875 341.539062 130.613281 L 354.273438 129.40625 C 359.226562 128.9375 363.351562 130.984375 364.25 134.355469 L 369.929688 155.542969 C 370.832031 158.917969 368.285156 162.75 363.757812 164.820312 L 352.085938 170.167969 C 351.054688 170.640625 350.0625 171.183594 349.113281 171.800781 C 348.160156 172.414062 347.257812 173.09375 346.402344 173.839844 C 345.546875 174.582031 344.75 175.382812 344.007812 176.242188 C 343.269531 177.101562 342.59375 178.007812 341.984375 178.960938 C 341.375 179.917969 340.835938 180.910156 340.367188 181.941406 C 339.898438 182.972656 339.507812 184.035156 339.191406 185.121094 C 338.875 186.210938 338.636719 187.316406 338.476562 188.4375 C 338.320312 189.558594 338.242188 190.6875 338.246094 191.820312 L 338.246094 192.121094 C 338.242188 193.253906 338.320312 194.382812 338.476562 195.503906 C 338.636719 196.628906 338.875 197.734375 339.191406 198.820312 C 339.507812 199.910156 339.898438 200.96875 340.367188 202 C 340.835938 203.035156 341.375 204.027344 341.984375 204.980469 C 342.59375 205.9375 343.269531 206.84375 344.007812 207.703125 C 344.75 208.558594 345.546875 209.359375 346.402344 210.105469 C 347.257812 210.847656 348.160156 211.527344 349.113281 212.144531 C 350.0625 212.757812 351.054688 213.300781 352.085938 213.773438 L 363.757812 219.121094 C 368.277344 221.195312 370.832031 225.027344 369.929688 228.398438 L 364.25 249.585938 C 363.347656 252.960938 359.222656 255.003906 354.269531 254.535156 L 341.539062 253.332031 C 340.410156 253.226562 339.277344 253.203125 338.144531 253.257812 C 337.011719 253.316406 335.886719 253.453125 334.773438 253.671875 C 333.660156 253.890625 332.570312 254.183594 331.496094 254.558594 C 330.425781 254.933594 329.386719 255.378906 328.378906 255.902344 C 327.371094 256.425781 326.40625 257.015625 325.484375 257.679688 C 324.5625 258.339844 323.691406 259.0625 322.875 259.847656 C 322.054688 260.632812 321.296875 261.472656 320.597656 262.363281 C 319.898438 263.257812 319.265625 264.199219 318.699219 265.183594 L 318.546875 265.445312 C 317.976562 266.425781 317.480469 267.441406 317.054688 268.492188 C 316.628906 269.546875 316.28125 270.621094 316.011719 271.722656 C 315.742188 272.824219 315.550781 273.941406 315.4375 275.070312 C 315.328125 276.199219 315.296875 277.332031 315.347656 278.464844 C 315.398438 279.597656 315.53125 280.722656 315.742188 281.835938 C 315.957031 282.953125 316.246094 284.046875 316.613281 285.121094 C 316.984375 286.191406 317.425781 287.234375 317.945312 288.242188 C 318.460938 289.253906 319.046875 290.222656 319.703125 291.148438 L 327.113281 301.570312 C 330 305.628906 330.289062 310.21875 327.820312 312.691406 L 312.308594 328.203125 C 309.839844 330.671875 305.246094 330.378906 301.1875 327.496094 L 290.765625 320.085938 C 289.839844 319.429688 288.871094 318.84375 287.863281 318.324219 C 286.851562 317.808594 285.8125 317.363281 284.738281 316.996094 C 283.664062 316.628906 282.570312 316.335938 281.457031 316.125 C 280.339844 315.914062 279.21875 315.78125 278.082031 315.730469 C 276.949219 315.679688 275.816406 315.710938 274.6875 315.820312 C 273.558594 315.933594 272.445312 316.121094 271.34375 316.394531 C 270.242188 316.664062 269.164062 317.011719 268.109375 317.4375 C 267.058594 317.863281 266.042969 318.359375 265.0625 318.929688 L 264.800781 319.082031 C 263.816406 319.648438 262.878906 320.277344 261.984375 320.976562 C 261.089844 321.675781 260.25 322.4375 259.464844 323.253906 C 258.679688 324.074219 257.957031 324.945312 257.296875 325.867188 C 256.636719 326.789062 256.042969 327.753906 255.523438 328.761719 C 255 329.769531 254.550781 330.808594 254.175781 331.878906 C 253.804688 332.949219 253.507812 334.042969 253.289062 335.15625 C 253.070312 336.269531 252.933594 337.394531 252.878906 338.527344 C 252.820312 339.660156 252.84375 340.789062 252.949219 341.921875 L 254.152344 354.652344 C 254.625 359.609375 252.578125 363.730469 249.207031 364.632812 L 228.015625 370.308594 C 224.640625 371.210938 220.8125 368.667969 218.742188 364.140625 L 213.394531 352.464844 C 212.921875 351.4375 212.375 350.445312 211.761719 349.492188 C 211.148438 348.542969 210.46875 347.636719 209.722656 346.785156 C 208.980469 345.929688 208.179688 345.132812 207.320312 344.390625 C 206.460938 343.652344 205.554688 342.976562 204.601562 342.367188 C 203.644531 341.753906 202.652344 341.214844 201.621094 340.75 C 200.585938 340.28125 199.527344 339.886719 198.4375 339.570312 C 197.351562 339.253906 196.246094 339.019531 195.125 338.859375 C 194 338.703125 192.875 338.625 191.742188 338.628906 L 191.4375 338.628906 C 190.304688 338.625 189.179688 338.703125 188.054688 338.859375 C 186.933594 339.019531 185.828125 339.253906 184.742188 339.570312 C 183.652344 339.886719 182.59375 340.28125 181.558594 340.75 C 180.527344 341.214844 179.535156 341.753906 178.578125 342.367188 C 177.625 342.976562 176.71875 343.652344 175.859375 344.390625 C 175 345.132812 174.199219 345.929688 173.457031 346.785156 C 172.710938 347.636719 172.03125 348.542969 171.417969 349.492188 C 170.804688 350.445312 170.257812 351.4375 169.785156 352.464844 L 164.4375 364.140625 C 162.367188 368.660156 158.535156 371.214844 155.160156 370.308594 L 133.972656 364.632812 C 130.601562 363.730469 128.558594 359.609375 129.027344 354.652344 L 130.230469 341.921875 C 130.335938 340.792969 130.359375 339.660156 130.300781 338.527344 C 130.246094 337.394531 130.109375 336.269531 129.890625 335.15625 C 129.671875 334.042969 129.378906 332.953125 129.003906 331.882812 C 128.628906 330.808594 128.179688 329.769531 127.660156 328.761719 C 127.136719 327.757812 126.542969 326.792969 125.882812 325.871094 C 125.222656 324.945312 124.5 324.074219 123.714844 323.257812 C 122.929688 322.4375 122.089844 321.679688 121.195312 320.980469 C 120.304688 320.28125 119.363281 319.648438 118.378906 319.085938 L 118.117188 318.933594 C 117.136719 318.363281 116.121094 317.863281 115.070312 317.4375 C 114.015625 317.015625 112.941406 316.667969 111.835938 316.394531 C 110.734375 316.125 109.621094 315.933594 108.492188 315.824219 C 107.363281 315.710938 106.230469 315.679688 105.097656 315.734375 C 103.964844 315.785156 102.839844 315.914062 101.722656 316.128906 C 100.609375 316.339844 99.515625 316.628906 98.441406 316.996094 C 97.371094 317.367188 96.328125 317.808594 95.316406 318.328125 C 94.308594 318.84375 93.339844 319.433594 92.414062 320.089844 L 81.992188 327.496094 C 81.613281 327.761719 81.238281 328.007812 80.863281 328.226562 L 27.425781 368.121094 L 123.847656 271.699219 C 166.199219 307.699219 230.992188 304.460938 269.316406 261.996094 C 304.484375 223.019531 305.148438 163.96875 271.3125 124.234375 Z M 326.058594 69.488281 " fill-opacity="1" fill-rule="nonzero"/></g><path fill="#f7931e" d="M 356.144531 15.433594 L 259.324219 112.257812 C 216.972656 76.253906 152.179688 79.496094 113.855469 121.957031 C 78.6875 160.933594 78.023438 219.988281 111.859375 259.71875 L 57.113281 314.464844 L 55.351562 312.703125 C 52.878906 310.230469 53.171875 305.640625 56.054688 301.582031 L 63.46875 291.15625 C 64.125 290.230469 64.710938 289.265625 65.226562 288.253906 C 65.746094 287.246094 66.1875 286.203125 66.558594 285.128906 C 66.925781 284.058594 67.214844 282.964844 67.429688 281.847656 C 67.640625 280.734375 67.773438 279.609375 67.824219 278.476562 C 67.875 277.34375 67.84375 276.210938 67.734375 275.082031 C 67.621094 273.953125 67.429688 272.835938 67.160156 271.734375 C 66.890625 270.632812 66.542969 269.554688 66.117188 268.503906 C 65.691406 267.453125 65.195312 266.4375 64.625 265.453125 L 64.472656 265.191406 C 63.90625 264.207031 63.273438 263.269531 62.574219 262.375 C 61.875 261.484375 61.117188 260.644531 60.296875 259.859375 C 59.476562 259.074219 58.605469 258.351562 57.683594 257.691406 C 56.761719 257.03125 55.796875 256.4375 54.789062 255.914062 C 53.78125 255.394531 52.742188 254.945312 51.667969 254.570312 C 50.597656 254.199219 49.503906 253.902344 48.390625 253.683594 C 47.277344 253.46875 46.15625 253.332031 45.019531 253.273438 C 43.886719 253.21875 42.757812 253.242188 41.625 253.347656 L 28.894531 254.554688 C 23.9375 255.023438 19.816406 252.976562 18.914062 249.605469 L 13.234375 228.414062 C 12.335938 225.039062 14.878906 221.210938 19.40625 219.140625 L 31.082031 213.792969 C 32.109375 213.320312 33.101562 212.773438 34.054688 212.160156 C 35.003906 211.546875 35.910156 210.867188 36.761719 210.121094 C 37.617188 209.378906 38.414062 208.578125 39.15625 207.71875 C 39.894531 206.859375 40.570312 205.953125 41.179688 205 C 41.789062 204.042969 42.332031 203.050781 42.796875 202.019531 C 43.265625 200.984375 43.660156 199.925781 43.976562 198.839844 C 44.292969 197.75 44.527344 196.644531 44.6875 195.523438 C 44.84375 194.398438 44.921875 193.273438 44.917969 192.140625 L 44.917969 191.839844 C 44.921875 190.703125 44.84375 189.578125 44.6875 188.453125 C 44.527344 187.332031 44.292969 186.226562 43.976562 185.140625 C 43.660156 184.050781 43.265625 182.992188 42.796875 181.957031 C 42.332031 180.925781 41.789062 179.933594 41.179688 178.976562 C 40.570312 178.023438 39.894531 177.117188 39.15625 176.257812 C 38.414062 175.402344 37.617188 174.597656 36.761719 173.855469 C 35.910156 173.109375 35.003906 172.429688 34.054688 171.816406 C 33.101562 171.203125 32.109375 170.65625 31.082031 170.183594 L 19.40625 164.835938 C 14.886719 162.765625 12.332031 158.933594 13.234375 155.5625 L 18.917969 134.351562 C 19.824219 130.976562 23.945312 128.933594 28.898438 129.402344 L 41.628906 130.605469 C 42.757812 130.710938 43.890625 130.734375 45.023438 130.679688 C 46.15625 130.621094 47.28125 130.484375 48.394531 130.265625 C 49.507812 130.050781 50.601562 129.753906 51.671875 129.378906 C 52.742188 129.003906 53.78125 128.558594 54.789062 128.035156 C 55.796875 127.511719 56.761719 126.921875 57.683594 126.257812 C 58.605469 125.597656 59.476562 124.875 60.296875 124.089844 C 61.113281 123.304688 61.875 122.464844 62.570312 121.574219 C 63.269531 120.679688 63.902344 119.738281 64.46875 118.757812 L 64.621094 118.496094 C 65.191406 117.511719 65.6875 116.496094 66.113281 115.445312 C 66.539062 114.394531 66.886719 113.316406 67.15625 112.214844 C 67.425781 111.113281 67.617188 110 67.730469 108.871094 C 67.839844 107.742188 67.871094 106.609375 67.820312 105.476562 C 67.769531 104.34375 67.636719 103.21875 67.425781 102.105469 C 67.214844 100.988281 66.921875 99.894531 66.554688 98.824219 C 66.1875 97.75 65.746094 96.710938 65.226562 95.699219 C 64.710938 94.691406 64.125 93.722656 63.46875 92.796875 L 56.058594 82.375 C 53.175781 78.316406 52.882812 73.722656 55.351562 71.253906 L 70.863281 55.742188 C 73.332031 53.269531 77.925781 53.5625 81.984375 56.449219 L 92.40625 63.855469 C 93.332031 64.511719 94.300781 65.101562 95.308594 65.617188 C 96.320312 66.136719 97.363281 66.578125 98.433594 66.945312 C 99.507812 67.316406 100.601562 67.605469 101.714844 67.816406 C 102.832031 68.03125 103.957031 68.160156 105.089844 68.210938 C 106.222656 68.261719 107.355469 68.234375 108.484375 68.121094 C 109.613281 68.011719 110.726562 67.820312 111.828125 67.550781 C 112.933594 67.277344 114.007812 66.929688 115.0625 66.507812 C 116.113281 66.082031 117.128906 65.582031 118.109375 65.011719 L 118.371094 64.859375 C 119.355469 64.296875 120.296875 63.664062 121.1875 62.964844 C 122.082031 62.265625 122.921875 61.507812 123.707031 60.6875 C 124.492188 59.867188 125.214844 59 125.875 58.074219 C 126.535156 57.152344 127.128906 56.1875 127.652344 55.183594 C 128.171875 54.175781 128.621094 53.136719 128.996094 52.0625 C 129.371094 50.992188 129.664062 49.902344 129.882812 48.789062 C 130.101562 47.671875 130.238281 46.550781 130.296875 45.417969 C 130.351562 44.285156 130.328125 43.152344 130.222656 42.023438 L 129.019531 29.292969 C 128.550781 24.335938 130.59375 20.214844 133.964844 19.3125 L 155.15625 13.632812 C 158.53125 12.730469 162.359375 15.277344 164.429688 19.804688 L 169.777344 31.476562 C 170.25 32.507812 170.796875 33.496094 171.410156 34.449219 C 172.023438 35.402344 172.703125 36.304688 173.449219 37.160156 C 174.191406 38.015625 174.996094 38.8125 175.851562 39.550781 C 176.710938 40.292969 177.617188 40.96875 178.574219 41.578125 C 179.527344 42.1875 180.519531 42.726562 181.550781 43.195312 C 182.585938 43.664062 183.644531 44.054688 184.734375 44.371094 C 185.820312 44.6875 186.925781 44.925781 188.046875 45.082031 C 189.171875 45.242188 190.296875 45.320312 191.433594 45.316406 L 191.734375 45.316406 C 192.867188 45.320312 193.992188 45.242188 195.117188 45.082031 C 196.238281 44.925781 197.34375 44.6875 198.433594 44.371094 C 199.519531 44.054688 200.578125 43.664062 201.613281 43.195312 C 202.644531 42.726562 203.636719 42.1875 204.59375 41.578125 C 205.546875 40.96875 206.453125 40.292969 207.3125 39.550781 C 208.171875 38.8125 208.972656 38.015625 209.714844 37.160156 C 210.460938 36.304688 211.140625 35.402344 211.753906 34.449219 C 212.367188 33.496094 212.914062 32.507812 213.386719 31.476562 L 218.734375 19.804688 C 220.804688 15.285156 224.636719 12.730469 228.007812 13.632812 L 249.207031 19.304688 C 252.582031 20.207031 254.625 24.332031 254.15625 29.285156 L 252.949219 42.015625 C 252.847656 43.148438 252.820312 44.277344 252.878906 45.410156 C 252.9375 46.542969 253.074219 47.667969 253.292969 48.78125 C 253.507812 49.894531 253.804688 50.988281 254.179688 52.058594 C 254.550781 53.128906 255 54.167969 255.523438 55.175781 C 256.046875 56.183594 256.636719 57.148438 257.296875 58.070312 C 257.957031 58.992188 258.679688 59.863281 259.464844 60.683594 C 260.25 61.5 261.089844 62.261719 261.984375 62.960938 C 262.878906 63.660156 263.816406 64.289062 264.800781 64.855469 L 265.0625 65.007812 C 266.042969 65.578125 267.0625 66.074219 268.113281 66.5 C 269.164062 66.925781 270.242188 67.273438 271.34375 67.542969 C 272.445312 67.816406 273.5625 68.003906 274.691406 68.117188 C 275.820312 68.226562 276.953125 68.257812 278.085938 68.207031 C 279.21875 68.15625 280.34375 68.023438 281.457031 67.8125 C 282.570312 67.601562 283.667969 67.308594 284.738281 66.941406 C 285.8125 66.574219 286.855469 66.128906 287.863281 65.613281 C 288.875 65.09375 289.839844 64.507812 290.765625 63.851562 L 301.191406 56.441406 C 301.265625 56.390625 301.335938 56.339844 301.414062 56.289062 Z M 356.144531 15.433594 " fill-opacity="1" fill-rule="nonzero"/><g transform="matrix(1, 0, 0, 1, 96, 150)"><g clip-path="url(#1177966f3d)"><g fill="#292e3b" fill-opacity="1"><g transform="translate(1.093828, 69.736166)"><g><path d="M 6.921875 0 L 6.921875 -49.640625 L 11.609375 -49.640625 L 11.609375 -1.859375 L 36.375 -1.859375 L 36.375 0 Z M 6.921875 0 "/></g></g></g><g fill="#292e3b" fill-opacity="1"><g transform="translate(37.457626, 69.736166)"><g><path d="M 26.34375 0.765625 C 23.394531 0.765625 20.648438 0.109375 18.109375 -1.203125 C 15.578125 -2.523438 13.363281 -4.347656 11.46875 -6.671875 C 9.582031 -8.992188 8.117188 -11.675781 7.078125 -14.71875 C 6.046875 -17.769531 5.53125 -21.046875 5.53125 -24.546875 C 5.53125 -28.046875 6.046875 -31.316406 7.078125 -34.359375 C 8.117188 -37.398438 9.582031 -40.082031 11.46875 -42.40625 C 13.363281 -44.738281 15.578125 -46.5625 18.109375 -47.875 C 20.648438 -49.1875 23.394531 -49.84375 26.34375 -49.84375 C 29.289062 -49.84375 32.03125 -49.1875 34.5625 -47.875 C 37.101562 -46.5625 39.304688 -44.738281 41.171875 -42.40625 C 43.035156 -40.082031 44.5 -37.398438 45.5625 -34.359375 C 46.625 -31.316406 47.15625 -28.046875 47.15625 -24.546875 C 47.15625 -21.046875 46.625 -17.769531 45.5625 -14.71875 C 44.5 -11.675781 43.035156 -8.992188 41.171875 -6.671875 C 39.304688 -4.347656 37.101562 -2.523438 34.5625 -1.203125 C 32.03125 0.109375 29.289062 0.765625 26.34375 0.765625 Z M 26.34375 -1.109375 C 28.644531 -1.109375 30.773438 -1.785156 32.734375 -3.140625 C 34.691406 -4.503906 36.394531 -6.316406 37.84375 -8.578125 C 39.300781 -10.835938 40.429688 -13.359375 41.234375 -16.140625 C 42.046875 -18.929688 42.453125 -21.734375 42.453125 -24.546875 C 42.453125 -27.398438 42.046875 -30.207031 41.234375 -32.96875 C 40.429688 -35.738281 39.300781 -38.253906 37.84375 -40.515625 C 36.394531 -42.773438 34.691406 -44.582031 32.734375 -45.9375 C 30.773438 -47.300781 28.644531 -47.984375 26.34375 -47.984375 C 23.988281 -47.984375 21.832031 -47.300781 19.875 -45.9375 C 17.914062 -44.582031 16.207031 -42.773438 14.75 -40.515625 C 13.300781 -38.253906 12.171875 -35.738281 11.359375 -32.96875 C 10.554688 -30.207031 10.15625 -27.398438 10.15625 -24.546875 C 10.15625 -21.734375 10.554688 -18.929688 11.359375 -16.140625 C 12.171875 -13.359375 13.300781 -10.835938 14.75 -8.578125 C 16.207031 -6.316406 17.914062 -4.503906 19.875 -3.140625 C 21.832031 -1.785156 23.988281 -1.109375 26.34375 -1.109375 Z M 26.34375 -1.109375 "/></g></g></g><g fill="#292e3b" fill-opacity="1"><g transform="translate(88.754371, 69.736166)"><g><path d="M 27.03125 0.828125 C 24.082031 0.828125 21.304688 0.171875 18.703125 -1.140625 C 16.097656 -2.453125 13.816406 -4.269531 11.859375 -6.59375 C 9.898438 -8.925781 8.351562 -11.613281 7.21875 -14.65625 C 6.09375 -17.695312 5.53125 -20.96875 5.53125 -24.46875 C 5.53125 -27.976562 6.09375 -31.253906 7.21875 -34.296875 C 8.351562 -37.335938 9.898438 -40.019531 11.859375 -42.34375 C 13.816406 -44.675781 16.097656 -46.5 18.703125 -47.8125 C 21.304688 -49.125 24.082031 -49.78125 27.03125 -49.78125 C 29.570312 -49.78125 32.0625 -49.15625 34.5 -47.90625 C 36.945312 -46.664062 39.113281 -44.894531 41 -42.59375 L 39.546875 -41.421875 C 37.835938 -43.441406 35.910156 -45.03125 33.765625 -46.1875 C 31.628906 -47.34375 29.382812 -47.921875 27.03125 -47.921875 C 24.726562 -47.921875 22.5625 -47.238281 20.53125 -45.875 C 18.507812 -44.507812 16.722656 -42.695312 15.171875 -40.4375 C 13.628906 -38.1875 12.421875 -35.675781 11.546875 -32.90625 C 10.671875 -30.144531 10.234375 -27.332031 10.234375 -24.46875 C 10.234375 -21.519531 10.691406 -18.601562 11.609375 -15.71875 C 12.535156 -12.84375 13.835938 -10.265625 15.515625 -7.984375 C 17.203125 -5.703125 19.207031 -3.9375 21.53125 -2.6875 C 23.863281 -1.445312 26.457031 -0.988281 29.3125 -1.3125 C 30.976562 -1.539062 32.382812 -2.023438 33.53125 -2.765625 C 34.6875 -3.503906 35.617188 -4.300781 36.328125 -5.15625 C 37.046875 -6.007812 37.578125 -6.734375 37.921875 -7.328125 C 38.265625 -7.929688 38.4375 -8.234375 38.4375 -8.234375 L 38.4375 -23.515625 L 32.15625 -23.515625 L 32.15625 -25.375 L 43.140625 -25.375 L 43.140625 -9.8125 C 42.359375 -7.601562 41.132812 -5.703125 39.46875 -4.109375 C 37.8125 -2.523438 35.898438 -1.316406 33.734375 -0.484375 C 31.566406 0.347656 29.332031 0.785156 27.03125 0.828125 Z M 27.03125 0.828125 "/></g></g></g><g fill="#292e3b" fill-opacity="1"><g transform="translate(137.424058, 69.736166)"><g><path d="M 26.34375 0.765625 C 23.394531 0.765625 20.648438 0.109375 18.109375 -1.203125 C 15.578125 -2.523438 13.363281 -4.347656 11.46875 -6.671875 C 9.582031 -8.992188 8.117188 -11.675781 7.078125 -14.71875 C 6.046875 -17.769531 5.53125 -21.046875 5.53125 -24.546875 C 5.53125 -28.046875 6.046875 -31.316406 7.078125 -34.359375 C 8.117188 -37.398438 9.582031 -40.082031 11.46875 -42.40625 C 13.363281 -44.738281 15.578125 -46.5625 18.109375 -47.875 C 20.648438 -49.1875 23.394531 -49.84375 26.34375 -49.84375 C 29.289062 -49.84375 32.03125 -49.1875 34.5625 -47.875 C 37.101562 -46.5625 39.304688 -44.738281 41.171875 -42.40625 C 43.035156 -40.082031 44.5 -37.398438 45.5625 -34.359375 C 46.625 -31.316406 47.15625 -28.046875 47.15625 -24.546875 C 47.15625 -21.046875 46.625 -17.769531 45.5625 -14.71875 C 44.5 -11.675781 43.035156 -8.992188 41.171875 -6.671875 C 39.304688 -4.347656 37.101562 -2.523438 34.5625 -1.203125 C 32.03125 0.109375 29.289062 0.765625 26.34375 0.765625 Z M 26.34375 -1.109375 C 28.644531 -1.109375 30.773438 -1.785156 32.734375 -3.140625 C 34.691406 -4.503906 36.394531 -6.316406 37.84375 -8.578125 C 39.300781 -10.835938 40.429688 -13.359375 41.234375 -16.140625 C 42.046875 -18.929688 42.453125 -21.734375 42.453125 -24.546875 C 42.453125 -27.398438 42.046875 -30.207031 41.234375 -32.96875 C 40.429688 -35.738281 39.300781 -38.253906 37.84375 -40.515625 C 36.394531 -42.773438 34.691406 -44.582031 32.734375 -45.9375 C 30.773438 -47.300781 28.644531 -47.984375 26.34375 -47.984375 C 23.988281 -47.984375 21.832031 -47.300781 19.875 -45.9375 C 17.914062 -44.582031 16.207031 -42.773438 14.75 -40.515625 C 13.300781 -38.253906 12.171875 -35.738281 11.359375 -32.96875 C 10.554688 -30.207031 10.15625 -27.398438 10.15625 -24.546875 C 10.15625 -21.734375 10.554688 -18.929688 11.359375 -16.140625 C 12.171875 -13.359375 13.300781 -10.835938 14.75 -8.578125 C 16.207031 -6.316406 17.914062 -4.503906 19.875 -3.140625 C 21.832031 -1.785156 23.988281 -1.109375 26.34375 -1.109375 Z M 26.34375 -1.109375 "/></g></g></g></g></g></svg>