<svg xmlns="http://www.w3.org/2000/svg" xmlns:xlink="http://www.w3.org/1999/xlink" width="512" zoomAndPan="magnify" viewBox="0 0 384 383.999986" height="512" preserveAspectRatio="xMidYMid meet" version="1.0"><defs><clipPath id="c6d2c5cacc"><path d="M 61 71 L 329.734375 71 L 329.734375 325.609375 L 61 325.609375 Z M 61 71 " clip-rule="nonzero"/></clipPath><clipPath id="81dec8262c"><path d="M 54.484375 58.609375 L 155 58.609375 L 155 314 L 54.484375 314 Z M 54.484375 58.609375 " clip-rule="nonzero"/></clipPath><clipPath id="fadc8317f0"><path d="M 198.476562 81.289062 L 202.738281 81.289062 L 202.738281 84.898438 L 198.476562 84.898438 Z M 198.476562 81.289062 " clip-rule="nonzero"/></clipPath><clipPath id="28729cc619"><path d="M 202.726562 82.574219 C 200.851562 85.574219 199.050781 85.050781 198.675781 84.375 C 198.300781 83.773438 198.601562 81.898438 199.199219 81.449219 C 199.800781 81 202.199219 81.675781 202.199219 81.675781 " clip-rule="nonzero"/></clipPath><clipPath id="b6ed450939"><path d="M 0.476562 0.289062 L 4.738281 0.289062 L 4.738281 3.898438 L 0.476562 3.898438 Z M 0.476562 0.289062 " clip-rule="nonzero"/></clipPath><clipPath id="5b171b10e5"><path d="M 4.726562 1.574219 C 2.851562 4.574219 1.050781 4.050781 0.675781 3.375 C 0.300781 2.773438 0.601562 0.898438 1.199219 0.449219 C 1.800781 0 4.199219 0.675781 4.199219 0.675781 " clip-rule="nonzero"/></clipPath><clipPath id="34afcf256f"><rect x="0" width="5" y="0" height="4"/></clipPath></defs><g clip-path="url(#c6d2c5cacc)"><path fill="#ff921b" d="M 329.511719 309.382812 L 190.847656 309.382812 C 186.699219 318.800781 177.222656 325.304688 166.234375 325.195312 C 157.765625 325.082031 150.308594 320.988281 145.542969 314.765625 C 144.8125 313.8125 145.488281 312.464844 146.71875 312.464844 L 165.113281 312.523438 L 173.578125 298.785156 L 165.113281 284.992188 L 146.71875 284.933594 C 145.542969 284.933594 144.871094 283.589844 145.597656 282.636719 C 150.53125 276.246094 158.269531 272.152344 166.960938 272.261719 C 177.617188 272.429688 186.699219 278.878906 190.792969 288.019531 L 308.09375 288.019531 L 308.09375 171.726562 L 195.5 97.378906 L 82.800781 171.726562 L 82.800781 289.195312 L 61.378906 289.195312 L 61.378906 160.179688 L 195.5 71.699219 L 329.511719 160.179688 Z M 329.511719 309.382812 " fill-opacity="1" fill-rule="nonzero"/></g><path fill="#ff921b" d="M 252.46875 264.246094 L 284.316406 232.398438 L 284.316406 264.246094 Z M 252.46875 264.246094 " fill-opacity="1" fill-rule="nonzero"/><path fill="#000000" d="M 304.503906 186.921875 L 206.941406 284.488281 L 222.023438 284.488281 L 222.023438 276.804688 C 222.023438 276.132812 222.585938 275.570312 223.257812 275.570312 C 223.929688 275.570312 224.492188 276.132812 224.492188 276.804688 L 224.492188 284.488281 L 232.902344 284.488281 L 232.902344 276.804688 C 232.902344 276.132812 233.460938 275.570312 234.132812 275.570312 C 234.808594 275.570312 235.367188 276.132812 235.367188 276.804688 L 235.367188 284.488281 L 243.777344 284.488281 L 243.777344 276.804688 C 243.777344 276.132812 244.339844 275.570312 245.011719 275.570312 C 245.683594 275.570312 246.246094 276.132812 246.246094 276.804688 L 246.246094 284.488281 L 254.65625 284.488281 L 254.65625 276.804688 C 254.65625 276.132812 255.21875 275.570312 255.890625 275.570312 C 256.5625 275.570312 257.125 276.132812 257.125 276.804688 L 257.125 284.488281 L 265.535156 284.488281 L 265.535156 276.804688 C 265.535156 276.132812 266.09375 275.570312 266.769531 275.570312 C 267.441406 275.570312 268 276.132812 268 276.804688 L 268 284.488281 L 276.414062 284.488281 L 276.414062 276.804688 C 276.414062 276.132812 276.972656 275.570312 277.644531 275.570312 C 278.320312 275.570312 278.878906 276.132812 278.878906 276.804688 L 278.878906 284.488281 L 287.289062 284.488281 L 287.289062 276.804688 C 287.289062 276.132812 287.851562 275.570312 288.523438 275.570312 C 289.195312 275.570312 289.757812 276.132812 289.757812 276.804688 L 289.757812 284.488281 L 304.839844 284.488281 L 304.839844 269.402344 L 297.160156 269.402344 C 296.484375 269.402344 295.925781 268.84375 295.925781 268.171875 C 295.925781 267.496094 296.484375 266.9375 297.160156 266.9375 L 304.839844 266.9375 L 304.839844 258.527344 L 297.160156 258.527344 C 296.484375 258.527344 295.925781 257.964844 295.925781 257.292969 C 295.925781 256.621094 296.484375 256.058594 297.160156 256.058594 L 304.839844 256.058594 L 304.839844 247.648438 L 297.160156 247.648438 C 296.484375 247.648438 295.925781 247.085938 295.925781 246.414062 C 295.925781 245.742188 296.484375 245.179688 297.160156 245.179688 L 304.839844 245.179688 L 304.839844 236.769531 L 297.160156 236.769531 C 296.484375 236.769531 295.925781 236.210938 295.925781 235.535156 C 295.925781 234.863281 296.484375 234.304688 297.160156 234.304688 L 304.839844 234.304688 L 304.839844 225.894531 L 297.160156 225.894531 C 296.484375 225.894531 295.925781 225.332031 295.925781 224.660156 C 295.925781 223.984375 296.484375 223.425781 297.160156 223.425781 L 304.839844 223.425781 L 304.839844 215.015625 L 297.160156 215.015625 C 296.484375 215.015625 295.925781 214.453125 295.925781 213.78125 C 295.925781 213.109375 296.484375 212.546875 297.160156 212.546875 L 304.839844 212.546875 L 304.839844 204.136719 L 297.160156 204.136719 C 296.484375 204.136719 295.925781 203.578125 295.925781 202.902344 C 295.925781 202.230469 296.484375 201.671875 297.160156 201.671875 L 304.839844 201.671875 L 304.839844 186.921875 Z M 285.214844 230.210938 C 286.113281 230.601562 286.730469 231.445312 286.730469 232.453125 L 286.730469 264.300781 C 286.730469 265.648438 285.664062 266.710938 284.316406 266.710938 L 252.46875 266.710938 C 251.460938 266.710938 250.621094 266.09375 250.226562 265.199219 C 250.113281 264.917969 250.058594 264.582031 250.058594 264.246094 C 250.058594 263.628906 250.28125 263.011719 250.789062 262.507812 L 282.636719 230.660156 C 283.253906 230.042969 284.316406 229.816406 285.214844 230.210938 Z M 285.214844 230.210938 " fill-opacity="1" fill-rule="nonzero"/><g clip-path="url(#81dec8262c)"><path fill="#000000" d="M 121.542969 116.21875 L 100.125 130.347656 L 100.125 102.3125 L 121.542969 102.3125 Z M 149.804688 58.746094 C 145.933594 58.691406 142.121094 58.746094 138.253906 58.746094 C 137.246094 58.746094 136.515625 59.195312 136.066406 60.035156 C 134.945312 62.109375 131.972656 65.699219 128.777344 65.699219 C 124.628906 65.8125 121.882812 60.484375 118.011719 60.316406 C 110.050781 60.035156 102.089844 60.371094 94.125 60.316406 C 78.3125 61.042969 65.472656 66.988281 55.042969 97.601562 C 54.875 98.21875 54.484375 99.117188 55.210938 99.453125 C 58.128906 100.742188 71.191406 78.539062 89.585938 82.632812 C 100.070312 84.929688 100.238281 95.527344 100.125 99.675781 L 121.601562 99.675781 C 121.601562 96.539062 121.601562 93.398438 121.601562 90.257812 C 121.65625 87.003906 122.664062 84.203125 125.1875 82.015625 C 126.925781 80.5 129.617188 80.277344 131.691406 81.230469 C 133.710938 82.183594 134.832031 83.921875 135.84375 85.714844 C 136.460938 86.835938 137.300781 87.34375 138.589844 87.285156 C 142.289062 87.230469 145.992188 87.285156 149.691406 87.285156 C 152.328125 87.285156 154.121094 85.492188 154.121094 82.855469 C 154.121094 76.296875 154.121094 69.734375 154.121094 63.230469 C 154.179688 60.652344 152.382812 58.800781 149.804688 58.746094 Z M 100.125 165.839844 L 106.574219 165.839844 C 107.300781 165.839844 107.917969 166.457031 107.917969 167.1875 C 107.917969 167.914062 107.300781 168.53125 106.574219 168.53125 L 100.125 168.53125 L 100.125 174.308594 L 111.621094 174.308594 C 112.40625 174.308594 112.964844 174.925781 112.964844 175.652344 C 112.964844 176.382812 112.347656 177 111.621094 177 L 100.125 177 L 100.125 182.773438 L 106.574219 182.773438 C 107.300781 182.773438 107.917969 183.390625 107.917969 184.121094 C 107.917969 184.847656 107.300781 185.464844 106.574219 185.464844 L 100.125 185.464844 L 100.125 191.242188 L 111.621094 191.242188 C 112.40625 191.242188 112.964844 191.859375 112.964844 192.585938 C 112.964844 193.316406 112.347656 193.933594 111.621094 193.933594 L 100.125 193.933594 L 100.125 199.707031 L 106.574219 199.707031 C 107.300781 199.707031 107.917969 200.324219 107.917969 201.054688 C 107.917969 201.78125 107.300781 202.398438 106.574219 202.398438 L 100.125 202.398438 L 100.125 208.175781 L 111.621094 208.175781 C 112.40625 208.175781 112.964844 208.792969 112.964844 209.519531 C 112.964844 210.25 112.347656 210.867188 111.621094 210.867188 L 100.125 210.867188 L 100.125 216.640625 L 106.574219 216.640625 C 107.300781 216.640625 107.917969 217.257812 107.917969 217.988281 C 107.917969 218.714844 107.300781 219.332031 106.574219 219.332031 L 100.125 219.332031 L 100.125 225.277344 L 111.621094 225.277344 C 112.40625 225.277344 112.964844 225.894531 112.964844 226.621094 C 112.964844 227.351562 112.347656 227.96875 111.621094 227.96875 L 100.125 227.96875 L 100.125 233.742188 L 106.574219 233.742188 C 107.300781 233.742188 107.917969 234.359375 107.917969 235.089844 C 107.917969 235.816406 107.300781 236.433594 106.574219 236.433594 L 100.125 236.433594 L 100.125 242.265625 L 111.621094 242.265625 C 112.40625 242.265625 112.964844 242.882812 112.964844 243.609375 C 112.964844 244.339844 112.347656 244.957031 111.621094 244.957031 L 100.125 244.957031 L 100.125 250.730469 L 106.574219 250.730469 C 107.300781 250.730469 107.917969 251.347656 107.917969 252.078125 C 107.917969 252.808594 107.300781 253.421875 106.574219 253.421875 L 100.125 253.421875 L 100.125 259.253906 L 111.621094 259.253906 C 112.40625 259.253906 112.964844 259.871094 112.964844 260.601562 C 112.964844 261.328125 112.347656 261.945312 111.621094 261.945312 L 100.125 261.945312 L 100.125 267.777344 L 106.574219 267.777344 C 107.300781 267.777344 107.917969 268.394531 107.917969 269.125 C 107.917969 269.851562 107.300781 270.46875 106.574219 270.46875 L 100.125 270.46875 L 100.125 276.300781 L 111.621094 276.300781 C 112.40625 276.300781 112.964844 276.917969 112.964844 277.644531 C 112.964844 278.375 112.347656 278.992188 111.621094 278.992188 L 100.125 278.992188 L 100.125 284.710938 L 106.574219 284.710938 C 107.300781 284.710938 107.917969 285.328125 107.917969 286.058594 C 107.917969 286.785156 107.300781 287.402344 106.574219 287.402344 L 100.125 287.402344 L 100.125 292.28125 L 61.378906 292.28125 L 61.378906 313.699219 L 62.445312 313.699219 L 62.445312 307.25 C 62.445312 306.464844 63.0625 305.90625 63.792969 305.90625 C 64.519531 305.90625 65.136719 306.523438 65.136719 307.25 L 65.136719 313.699219 L 70.96875 313.699219 L 70.96875 302.207031 C 70.96875 301.421875 71.585938 300.859375 72.3125 300.859375 C 73.042969 300.859375 73.660156 301.476562 73.660156 302.207031 L 73.660156 313.699219 L 79.433594 313.699219 L 79.433594 307.25 C 79.433594 306.464844 80.050781 305.90625 80.78125 305.90625 C 81.511719 305.90625 82.125 306.523438 82.125 307.25 L 82.125 313.699219 L 87.957031 313.699219 L 87.957031 302.207031 C 87.957031 301.421875 88.574219 300.859375 89.304688 300.859375 C 90.03125 300.859375 90.648438 301.476562 90.648438 302.207031 L 90.648438 313.699219 L 96.480469 313.699219 L 96.480469 307.25 C 96.480469 306.464844 97.097656 305.90625 97.828125 305.90625 C 98.554688 305.90625 99.171875 306.523438 99.171875 307.25 L 99.171875 313.699219 L 105.003906 313.699219 L 105.003906 302.207031 C 105.003906 301.421875 105.621094 300.859375 106.347656 300.859375 C 107.078125 300.859375 107.695312 301.476562 107.695312 302.207031 L 107.695312 313.699219 L 113.527344 313.699219 L 113.527344 307.25 C 113.527344 306.464844 114.144531 305.90625 114.871094 305.90625 C 115.601562 305.90625 116.21875 306.523438 116.21875 307.25 L 116.21875 313.699219 L 121.710938 313.699219 L 121.710938 151.429688 L 100.292969 165.5625 L 100.292969 165.839844 Z M 100.125 165.839844 " fill-opacity="1" fill-rule="nonzero"/></g><path fill="#ff921b" d="M 164.886719 199.316406 L 193.425781 199.316406 L 193.425781 227.855469 L 168.980469 227.855469 C 166.738281 227.855469 164.886719 226.0625 164.886719 223.761719 Z M 197.464844 199.316406 L 197.464844 227.855469 L 221.910156 227.855469 C 224.152344 227.855469 226.003906 226.0625 226.003906 223.761719 L 226.003906 199.316406 Z M 164.886719 170.773438 L 164.886719 195.222656 L 193.425781 195.222656 L 193.425781 166.683594 L 168.980469 166.683594 C 166.679688 166.738281 164.886719 168.53125 164.886719 170.773438 Z M 221.910156 166.738281 L 197.464844 166.738281 L 197.464844 195.277344 L 226.003906 195.277344 L 226.003906 170.832031 C 226.003906 168.53125 224.210938 166.738281 221.910156 166.738281 Z M 221.910156 166.738281 " fill-opacity="1" fill-rule="nonzero"/><g clip-path="url(#fadc8317f0)"><g clip-path="url(#28729cc619)"><g transform="matrix(1, 0, 0, 1, 198, 81)"><g clip-path="url(#34afcf256f)"><g clip-path="url(#b6ed450939)"><g clip-path="url(#5b171b10e5)"><rect x="-282.48" width="552.96" fill="#ff921b" height="552.959979" y="-165.479997" fill-opacity="1"/></g></g></g></g></g></g></svg>